<?xml version="1.0" encoding="UTF-8"?>
<!DOCTYPE svg PUBLIC "-//W3C//DTD SVG 1.0//EN" "http://www.w3.org/TR/2001/REC-SVG-20010904/DTD/svg10.dtd">
<!-- Creator: CorelDRAW 2019 (64-Bit) -->
<svg xmlns="http://www.w3.org/2000/svg" xml:space="preserve" width="2.40547in" height="2.05982in" version="1.0" style="shape-rendering:geometricPrecision; text-rendering:geometricPrecision; image-rendering:optimizeQuality; fill-rule:evenodd; clip-rule:evenodd"
viewBox="0 0 2405.46 2059.82"
 xmlns:xlink="http://www.w3.org/1999/xlink"
 xmlns:xodm="http://www.corel.com/coreldraw/odm/2003">
 <defs>
  <style type="text/css">
   <![CDATA[
    .fil0 {fill:#02965C}
   ]]>
  </style>
 </defs>
 <g id="Layer_x0020_1">
  <metadata id="CorelCorpID_0Corel-Layer"/>
  <g id="_2154084230016">
   <path class="fil0" d="M-0 539.63c73.37,41.09 1192.48,539.09 1199.52,539.44 27.6,1.37 530.4,-235.81 603.88,-266.97 102.27,-43.38 202.31,-89.27 301.85,-135.2 97.61,-45.04 212.02,-89.05 298.94,-136.84 -40.05,-26.93 -1199.38,-540.01 -1200.01,-540.05 -3.04,-0.21 -1122.97,494.1 -1204.18,539.63z"/>
   <path class="fil0" d="M-0 1030.61c73.15,41.59 1193.49,538.36 1199.88,538.75l1055.15 -469.57c50.16,-23.22 102.91,-42.91 149.59,-68.33 -9.63,-7.65 -278.09,-131.71 -296.71,-136.34 -29.34,-7.3 -117.51,42.9 -150.05,57.83l-753.29 336.35c-18.17,0.89 -539.81,-237.16 -603.03,-266.53 -41.54,-19.3 -276.7,-132.44 -300.15,-128.55 -14.28,2.37 -281.1,123.57 -301.39,136.39z"/>
   <path class="fil0" d="M-0 1520.29c53.33,33.67 1197.56,539.36 1199.99,539.52 6.89,0.46 1183.5,-522.37 1205.47,-540.8l-296.5 -133.26c-28.18,-6.76 -258.31,106.28 -301.87,125.94 -63.56,28.68 -583.49,267.59 -602.62,268.66 -35.37,1.98 -868.98,-400.73 -904.1,-395.59 -11.48,1.68 -280.31,123.54 -300.38,135.52z"/>
  </g>
 </g>
</svg>
