<?xml version="1.0" encoding="UTF-8"?>
<!DOCTYPE svg PUBLIC "-//W3C//DTD SVG 1.1//EN" "http://www.w3.org/Graphics/SVG/1.1/DTD/svg11.dtd">
<!-- Creator: CorelDRAW 2019 (64-Bit) -->
<svg xmlns="http://www.w3.org/2000/svg" xml:space="preserve" width="0.559811in" height="0.589689in" version="1.1" style="shape-rendering:geometricPrecision; text-rendering:geometricPrecision; image-rendering:optimizeQuality; fill-rule:evenodd; clip-rule:evenodd"
viewBox="0 0 559.81 589.69"
 xmlns:xlink="http://www.w3.org/1999/xlink"
 xmlns:xodm="http://www.corel.com/coreldraw/odm/2003">
 <defs>
  <style type="text/css">
   <![CDATA[
    .fil1 {fill:#E4A788}
    .fil2 {fill:#FEFEFE}
    .fil3 {fill:#E4A788;fill-rule:nonzero}
    .fil0 {fill:#FFEFE6;fill-rule:nonzero}
   ]]>
  </style>
 </defs>
 <g id="Layer_x0020_1">
  <metadata id="CorelCorpID_0Corel-Layer"/>
  <g id="_2017122132208">
   <circle id="Ellipse_x0020_20" class="fil0" cx="229.17" cy="229.17" r="229.17"/>
   <g>
    <g>
     <path class="fil1" d="M410.7 295.36c-3.58,1.18 -6.84,2.14 -10.01,3.87 -1.84,1.01 -6.87,4.91 -8.29,5.17l-5.26 5.87c-1.72,2.08 -3.04,4.44 -4.5,6.25 -1.36,3.35 -3.03,5.48 -3.78,9.43 -0.25,5.45 3.35,9.77 9.25,9.06 5.89,-0.71 6.44,-5.9 8.77,-10.24 4.75,-8.86 13.81,-13.74 23.88,-14.45l9.04 0.24c10.71,1.38 18.2,7.75 21.8,14.83 2.28,4.5 2.87,8.96 8.44,9.63 5.91,0.71 9.46,-3.57 9.26,-9.13 -0.79,-3.74 -2.66,-7.24 -4.33,-10.09 -0.92,-1.57 -2.11,-3.26 -3.06,-4.51 -1.31,-1.71 -2.33,-2.52 -2.96,-3.99 -1.05,-0.48 -0.68,-0.2 -1.11,-1.08 -1.51,-0.62 -2.65,-1.87 -4.3,-3.11 -1.42,-1.07 -2.69,-1.84 -4.28,-2.82 -3.82,-2.36 -6.21,-2.64 -9.99,-4.38l-9.95 -2.28 -9.09 0.24 -9.55 1.52z"/>
     <path class="fil1" d="M276.48 294.22l-7.15 1.24 -10.67 5.08c-3.89,2.24 -7.57,6.08 -8.65,6.35 -0.66,1.82 -0.2,0.78 -1.67,2.24l-4.8 6.56c-1.7,2.91 -3.61,6.56 -4.39,10.18 -0.09,5.54 3.26,9.69 8.96,9.22 6.07,-0.49 6.11,-4.92 8.67,-9.48 4.21,-7.54 10.66,-13.36 21.65,-15.06 3.04,-0.52 10.18,-1.36 12.54,0.43 4.1,-0.29 9.79,2.84 12.35,4.65 10.8,7.65 8.99,16.94 15.5,19.06 6.03,1.98 9.09,-2.13 10.72,-5.94 0.32,-5.42 -2.33,-8.63 -3.86,-12.77 -0.69,-0.52 -3.35,-4.66 -4.46,-5.94 -1.65,-1.9 -3.83,-3.72 -5.08,-5.25 -3.18,-2.02 -5.11,-4 -9.25,-5.97l-10.78 -4.23 -8.33 -0.79 -11.3 0.41z"/>
    </g>
    <polygon class="fil2" points="550.35,261.81 559.81,261.81 559.81,252.35 550.35,252.35 "/>
    <path class="fil3" d="M354.24 183.75c56.05,0 106.79,22.72 143.52,59.45 36.73,36.73 59.45,87.47 59.45,143.52 0,56.05 -22.72,106.79 -59.45,143.52 -36.73,36.73 -87.47,59.45 -143.52,59.45 -56.05,0 -106.79,-22.72 -143.52,-59.45 -36.73,-36.73 -59.45,-87.47 -59.45,-143.52 0,-56.05 22.72,-106.79 59.45,-143.52 36.73,-36.73 87.47,-59.45 143.52,-59.45zm131.48 71.49c-33.65,-33.65 -80.13,-54.46 -131.48,-54.46 -51.35,0 -97.83,20.81 -131.48,54.46 -33.65,33.65 -54.46,80.13 -54.46,131.48 0,51.35 20.81,97.83 54.46,131.48 33.65,33.65 80.13,54.46 131.48,54.46 51.35,0 97.83,-20.81 131.48,-54.46 33.65,-33.65 54.46,-80.13 54.46,-131.48 0,-51.35 -20.81,-97.83 -54.46,-131.48z"/>
    <path class="fil1" d="M260.12 376.32c-1.79,2.26 -3.59,2.91 -4.5,6.32l0.02 9.57 0.57 9.35 0.56 8.73c1.08,1.59 1.48,7.76 1.78,10.23 1.56,6.39 2.61,12.77 4.24,19.26 0.79,3.13 5.42,16.45 5.38,17.96l0.47 0.65c0.07,0.12 0.33,0.53 0.4,0.67l8.2 18.72c0.72,0.63 3.59,6.12 4.41,7.45l9.76 13.91c1.73,2.13 3.57,4.56 5.48,6.37l0.94 0.99c3.3,2.27 6.76,7.76 19.78,15.65 1.56,0.95 6.54,3 7.47,3.94 7.74,2.24 12.81,4.74 22.23,5.6 9.25,0.85 16.98,-0.13 25.48,-2.11l9.54 -3.24c3.09,-1.76 6.63,-3.25 9.83,-5.15 2.3,-1.37 7.68,-5.51 9.02,-5.9 0.8,-1.37 9.48,-8.79 9.83,-8.98l0.28 -0.31c0.92,-1.89 3.94,-5.02 5.55,-6.94 5.55,-6.65 13.98,-21.61 14.83,-22.39 0.07,-1.64 3.02,-6.9 3.96,-8.98 0.88,-1.95 3.05,-7.95 3.89,-9 1.48,-7.19 6.09,-17.8 8.3,-28.96l1.54 -7.92c0.35,-1.65 0.03,-1.14 0.77,-2.2 -0.33,-2.52 0.35,-5.55 0.88,-8.06l0.87 -9c0.06,-0.47 0.1,-0.86 0.2,-1.31 0.24,-1.1 0.04,-0.48 0.39,-1.07 -1.71,-7.4 3.74,-18.69 -3.56,-23.03 -3.89,-2.31 -20.19,-1.28 -25.91,-1.28 -52.89,0.05 -111.23,-0.95 -162.9,0.46zm16.02 13.19c-1.48,1.88 -2.98,2.42 -3.73,5.25l0.02 7.94 0.47 7.76 0.46 7.24c0.9,1.32 1.23,6.44 1.48,8.49 1.3,5.3 2.16,10.59 3.52,15.98 0.65,2.6 4.5,13.65 4.46,14.91l0.39 0.54c0.06,0.09 0.27,0.44 0.33,0.55l6.81 15.53c0.59,0.52 2.98,5.08 3.66,6.19l8.1 11.54c1.44,1.77 2.96,3.78 4.55,5.29l0.78 0.82c2.74,1.89 5.61,6.44 16.41,12.99 1.3,0.78 5.42,2.49 6.19,3.27 6.43,1.86 10.63,3.93 18.44,4.65 7.68,0.7 14.09,-0.11 21.15,-1.75l7.92 -2.69c2.57,-1.46 5.5,-2.7 8.15,-4.28 1.91,-1.14 6.37,-4.57 7.49,-4.9 0.67,-1.14 7.87,-7.29 8.16,-7.45l0.23 -0.26c0.76,-1.57 3.27,-4.17 4.6,-5.76 4.61,-5.51 11.6,-17.93 12.3,-18.58 0.06,-1.36 2.51,-5.72 3.28,-7.45 0.73,-1.62 2.53,-6.59 3.23,-7.46 1.22,-5.96 5.05,-14.77 6.89,-24.03l1.28 -6.57c0.29,-1.37 0.02,-0.95 0.64,-1.83 -0.28,-2.09 0.29,-4.61 0.73,-6.69l0.72 -7.47c0.04,-0.39 0.08,-0.71 0.17,-1.09 0.2,-0.92 0.03,-0.39 0.32,-0.89 -1.42,-6.14 3.11,-15.5 -2.95,-19.11 -3.22,-1.92 -16.75,-1.06 -21.5,-1.06 -43.89,0.04 -92.29,-0.79 -135.17,0.38z"/>
   </g>
  </g>
 </g>
</svg>
