<?xml version="1.0" encoding="UTF-8"?>
<!DOCTYPE svg PUBLIC "-//W3C//DTD SVG 1.1//EN" "http://www.w3.org/Graphics/SVG/1.1/DTD/svg11.dtd">
<!-- Creator: CorelDRAW 2019 (64-Bit) -->
<svg xmlns="http://www.w3.org/2000/svg" xml:space="preserve" width="0.660819in" height="0.607276in" version="1.1" style="shape-rendering:geometricPrecision; text-rendering:geometricPrecision; image-rendering:optimizeQuality; fill-rule:evenodd; clip-rule:evenodd"
viewBox="0 0 660.82 607.28"
 xmlns:xlink="http://www.w3.org/1999/xlink"
 xmlns:xodm="http://www.corel.com/coreldraw/odm/2003">
 <defs>
  <style type="text/css">
   <![CDATA[
    .fil1 {fill:#FF6B82}
    .fil0 {fill:#FDE7E8;fill-rule:nonzero;fill-opacity:0.878431}
   ]]>
  </style>
 </defs>
 <g id="Layer_x0020_1">
  <metadata id="CorelCorpID_0Corel-Layer"/>
  <g id="_2017182758176">
   <path id="Ellipse_x0020_32_5" class="fil0" d="M481 240.5c0,-132.83 -107.68,-240.5 -240.5,-240.5 -132.83,0 -240.5,107.68 -240.5,240.5 0,132.83 107.68,240.5 240.5,240.5 132.83,0 240.5,-107.68 240.5,-240.5z"/>
   <g>
    <path class="fil1" d="M473.07 537.09c0,21.22 -0.87,54.26 8.03,70.19 9.95,-22.27 21.06,-40.6 33.63,-59.78 24.7,-37.69 55.13,-68.65 89.95,-95.79 16.04,-12.5 42.25,-24.89 56.13,-37.07 -75.85,0.86 -116.06,-42.79 -107.98,-117.97l-4.92 3.8c-3.55,3.33 -1.74,0.87 -5.75,5.83 -41.61,51.57 -69.09,160.67 -69.09,230.8z"/>
    <path class="fil1" d="M237.34 414.2c2.13,2.04 2.39,2.33 6.16,4.91 2.15,1.47 4.28,2.7 6.46,4 70.81,42.28 120.97,92.19 158.12,166.83l12.11 15.6c8.37,-97.52 6,-160.61 -36.44,-249.74l-26.01 -47.07c-1.96,-3.07 -2.92,-4.84 -5.56,-7.94l-5.83 -5.94c-0.52,-0.51 -1.44,-1.36 -2.2,-2 13.26,73.13 -31.57,125.83 -106.81,121.36z"/>
    <path class="fil1" d="M449.78 480.6c9.18,-62.51 17.3,-98.14 40.87,-149.96 8.96,-19.69 24.9,-46.31 35.28,-60.84 15.52,-21.72 27.83,-35.08 43.55,-54.9 -30.64,9.87 -57.37,36.43 -124.96,34.71 -54.93,-1.4 -80.73,-18.15 -118.8,-37.56 49.39,64.03 81.94,97.17 107.46,186.89 7.8,27.4 9.59,55.45 16.59,81.66z"/>
    <path class="fil1" d="M435.12 157.81c-43.77,21.09 -18.61,81.68 25.89,67.42 46.36,-14.85 19.94,-89.5 -25.89,-67.42z"/>
    <path class="fil1" d="M271.45 303.07c-46.13,10.68 -32.13,82.07 19.74,67.82 37.69,-10.35 24.87,-78.14 -19.74,-67.82z"/>
    <path class="fil1" d="M611.03 303.58c-41.07,10.37 -31.21,80.83 18.63,67.58 39.05,-10.37 28.28,-79.43 -18.63,-67.58z"/>
   </g>
  </g>
 </g>
</svg>
