<?xml version="1.0" encoding="UTF-8"?>
<!DOCTYPE svg PUBLIC "-//W3C//DTD SVG 1.1//EN" "http://www.w3.org/Graphics/SVG/1.1/DTD/svg11.dtd">
<!-- Creator: CorelDRAW 2019 (64-Bit) -->
<svg xmlns="http://www.w3.org/2000/svg" xml:space="preserve" width="0.862882in" height="0.762378in" version="1.1" style="shape-rendering:geometricPrecision; text-rendering:geometricPrecision; image-rendering:optimizeQuality; fill-rule:evenodd; clip-rule:evenodd"
viewBox="0 0 862.88 762.38"
 xmlns:xlink="http://www.w3.org/1999/xlink"
 xmlns:xodm="http://www.corel.com/coreldraw/odm/2003">
 <defs>
  <style type="text/css">
   <![CDATA[
    .fil1 {fill:#E4A788}
    .fil0 {fill:#FFECE2;fill-rule:nonzero;fill-opacity:0.701961}
   ]]>
  </style>
 </defs>
 <g id="Layer_x0020_1">
  <metadata id="CorelCorpID_0Corel-Layer"/>
  <g id="_1614555090208">
   <path id="Ellipse_x0020_10" class="fil0" d="M604.17 302.08c0,-166.83 -135.25,-302.08 -302.08,-302.08 -166.83,0 -302.08,135.25 -302.08,302.08 0,166.83 135.25,302.08 302.08,302.08 166.83,0 302.08,-135.25 302.08,-302.08z"/>
   <g>
    <path class="fil1" d="M527.67 241.15c-1.94,5.13 -12.24,11.84 -16.93,14.88 -8.47,5.48 -17.46,0.84 -27.67,-1.92 -18.05,-4.88 -36.26,-9.59 -53.91,-14.21 -20.89,-5.47 -92.59,-27.45 -108.86,-26.9 -14.12,22.03 -31.1,70.13 -43.22,99.26 -14.16,34.05 -27.73,67.18 -41.72,101.19 -15.4,37.44 -31.52,69.64 -12.65,113.82 13.61,31.89 39.57,57.24 78.94,66.08 83.05,18.63 157.77,-62.86 126.83,-145.99 -11.19,-30.06 -80.79,-193.68 -81.52,-205.4 11.76,2.16 142.48,34.78 150.63,40.35 5.2,3.55 3.15,2.52 5.57,9.29 6.75,18.88 12.41,17.64 24.44,25.89l0.02 373.08c-27.3,2.51 -60.52,-4.35 -81.64,8.16 -10.3,6.1 -39.56,34.56 -28.81,55.76 6.38,11.17 30.19,6.87 55.39,6.87 37.13,0 172.65,3.85 188.43,-3.38 7.4,-27.63 -13.04,-49.54 -27.92,-58.79 -20.37,-12.67 -55.22,-7.71 -82.02,-8.22l-0.45 -370.9c3.98,-7.02 12.15,-10.01 16.89,-14.01 8.34,-7.04 8.88,-4.1 22.04,-0.49l147.33 40.11c-4.41,17.16 -16.9,43.48 -24.1,61.01 -18.79,45.71 -70.15,157.27 -70.17,192.79 -0.1,145.66 216.41,141.74 220.19,6.46 0.97,-34.79 -5.64,-43.28 -16.8,-70.62l-76.51 -185.83c-11.1,-26.76 -9.02,-20.93 -54.35,-33.22 -43.53,-11.81 -95.83,-22.65 -137.27,-37.5 -11.87,-39.1 -24.65,-25.91 -27.24,-37.62 -0.01,-14.95 6.09,-59.51 -10.14,-61.45 -19.83,-2.37 -12.81,47.94 -12.81,61.45zm-87.39 497.3c20.19,2.42 181.82,3.59 196.45,-0.33 -0.64,-33.35 -66.57,-25.43 -98.04,-25.42 -33.63,0 -91.81,-9.07 -98.41,25.75zm292.78 -224.91c-117.38,31.67 -69.36,199.83 41.04,171.89 40.51,-10.25 77.94,-52.84 65.44,-105.41 -9.68,-40.72 -53.19,-80.85 -106.48,-66.47zm-33.78 -11.03c19,-8.08 27.24,-12.57 52.7,-12.72 30.84,-0.18 32.26,5.8 55.39,12.31l-53.31 -132.55c-6.12,6.84 -54.29,123.85 -54.77,132.96zm-388.13 -104.05c-43.44,6.64 -81.88,48.67 -73.56,101.34 6.96,44.09 49,80.06 101.8,72.9 43.9,-5.95 82.14,-50.1 73.02,-102.91 -7.39,-42.8 -49.02,-79.31 -101.26,-71.33zm222.59 -132.74c-18,6.56 -11.7,35.93 10.41,29.99 18.96,-5.09 10.72,-37.69 -10.41,-29.99zm-263.64 122.58c20.5,-5.21 27.55,-13.25 55.3,-13.19 27.98,0.06 34.9,8.82 54.73,13.02 -5.24,-15.96 -48.5,-124.15 -54.74,-132.01 -5.46,6.69 -51.45,118.21 -55.29,132.18z"/>
    <path class="fil1" d="M342.04 514.61c-27.98,32.09 -39.78,-30.16 -53.69,-5.16 -4.28,12.39 5.03,22.59 12.26,27.38 20.04,13.28 7.54,4.76 18.02,24.24 9.12,1.15 13.45,0.79 16.54,-7.3 5.15,-13.46 -2.3,-7.01 11.43,-14.15 9.62,-5 18.66,-14.71 16.92,-31.65 -3.13,-30.41 -39.27,-27.75 -54.69,-44.98 -0.19,-14.19 12.59,-19.75 25.65,-13.45 10.43,5.03 9.78,23.11 25.2,13.75 10.53,-8.05 -1.37,-25.17 -13.33,-31.99 -9.72,-5.55 -6.56,-0.52 -9.83,-9.22 -12.75,-33.87 -23.1,1.56 -26.15,4.56 -3.37,3.33 -6.94,3.56 -11.8,7.37 -16.01,12.54 -16.24,36.33 -0.02,49.38 14.91,12 41.53,12.9 43.48,31.21z"/>
    <path class="fil1" d="M740.61 587.91c-17.39,0.23 -39.68,-3.44 -52.43,6.84 -0.85,14.94 4.71,15.37 18.86,15.9 11.15,0.42 22.58,0.05 33.78,0.21 2.14,13.24 -2.41,44.06 6.13,51.43 21.22,18.32 17.7,-40.35 18.14,-51.41 13.69,-0.27 52.59,6.36 52.83,-11.48 0.23,-17.1 -39.2,-11.11 -52.15,-11.66 -4.06,-17.8 2.86,-37.57 -6.63,-52.38 -27.22,-3.89 -14.13,31.48 -18.54,52.56z"/>
   </g>
  </g>
 </g>
</svg>
