<?xml version="1.0" encoding="UTF-8"?>
<!DOCTYPE svg PUBLIC "-//W3C//DTD SVG 1.0//EN" "http://www.w3.org/TR/2001/REC-SVG-20010904/DTD/svg10.dtd">
<!-- Creator: CorelDRAW 2019 (64-Bit) -->
<svg xmlns="http://www.w3.org/2000/svg" xml:space="preserve" width="2.4141in" height="1.26867in" version="1.0" style="shape-rendering:geometricPrecision; text-rendering:geometricPrecision; image-rendering:optimizeQuality; fill-rule:evenodd; clip-rule:evenodd"
viewBox="0 0 2414.1 1268.67"
 xmlns:xlink="http://www.w3.org/1999/xlink"
 xmlns:xodm="http://www.corel.com/coreldraw/odm/2003">
 <defs>
  <style type="text/css">
   <![CDATA[
    .fil0 {fill:#02965C}
   ]]>
  </style>
 </defs>
 <g id="Layer_x0020_1">
  <metadata id="CorelCorpID_0Corel-Layer"/>
  <g id="_2190166126864">
   <path class="fil0" d="M139.67 515.78c10.83,139.51 6.55,500.67 69.84,628.63 17.54,35.46 26.49,29.2 68.85,35.13l0.79 89.08 143.13 -0.43 0.29 -88.38 445.17 -1.46 0.47 90.31 144.04 -0.5 0.41 -88.31 384.3 -1.51 0.69 90.19 143.02 -0.36 0.45 -88.7 445.92 -1.14 0.72 90.19 143.05 -0.32 0.36 -88.37c47.39,-7.94 67.61,11.28 95.89,-104.09 25.7,-104.81 34.32,-253.02 40.67,-362.89 3.74,-64.75 1.52,-133.5 6.54,-196.98 52.17,-2.85 90.93,-7.41 118.72,-41.57 23.2,-28.52 29.4,-90.24 7.75,-124.79 -42.71,-68.15 -249.74,-112.37 -342.58,15.59 -23.98,33.06 -38.36,63.79 -53.3,107.05 -30.41,88.05 -35.57,185.78 -38.09,282.76 -63.26,-19.96 -77.61,-36.08 -159.15,-36.86 -328.59,-3.12 -671.59,0.02 -1001.76,0.02 -82.83,0 -210.79,-7.9 -285.33,12.91 -30.41,8.48 -50.04,22.68 -74.04,30.5 4.37,-180.53 -36.31,-413.22 -179.37,-463.97 -64.96,-23.04 -206.59,-16.07 -252.23,49.43 -22.6,32.43 -18.09,95.06 4.05,125 25.93,35.07 67.25,41.13 120.71,43.86z"/>
   <path class="fil0" d="M245.39 208.3c9.32,7.97 21.28,9.16 34.2,12.04 83.1,18.58 136.6,60.48 180.37,131.54 45.89,74.47 73.21,173.78 79.56,276.71 20.43,4.8 47.32,-6.54 71.12,-7.44l255.95 -0.16c225.5,0 450.99,0 676.48,0 105.13,0 229.82,-8.73 329.91,8.64 20.36,-89.22 15.7,-176.54 79.34,-275.15 87.45,-135.49 162.2,-120.46 206.76,-140.28 8.08,-3.6 4.41,-1.39 9.7,-5.86 -64.34,-35.16 -61.07,-54.61 -186.9,-103.5 -334.91,-130.1 -974.07,-123.87 -1318.33,-63.62 -106.62,18.66 -236.67,55.92 -328.84,109.27l-89.33 57.8z"/>
  </g>
 </g>
</svg>
