<?xml version="1.0" encoding="UTF-8"?>
<!DOCTYPE svg PUBLIC "-//W3C//DTD SVG 1.0//EN" "http://www.w3.org/TR/2001/REC-SVG-20010904/DTD/svg10.dtd">
<!-- Creator: CorelDRAW 2019 (64-Bit) -->
<svg xmlns="http://www.w3.org/2000/svg" xml:space="preserve" width="1.65386in" height="1.99104in" version="1.0" style="shape-rendering:geometricPrecision; text-rendering:geometricPrecision; image-rendering:optimizeQuality; fill-rule:evenodd; clip-rule:evenodd"
viewBox="0 0 1653.86 1991.04"
 xmlns:xlink="http://www.w3.org/1999/xlink"
 xmlns:xodm="http://www.corel.com/coreldraw/odm/2003">
 <defs>
  <style type="text/css">
   <![CDATA[
    .fil0 {fill:#02965C}
   ]]>
  </style>
 </defs>
 <g id="Layer_x0020_1">
  <metadata id="CorelCorpID_0Corel-Layer"/>
  <g id="_2190327027424">
   <path class="fil0" d="M1130.72 1655.13c49.48,-4.3 88.83,32.57 93.65,76.3 5.59,50.59 -32.43,91.08 -76.02,95.78 -50.63,5.46 -91.82,-31.86 -96.1,-77.74 -4.68,-50.18 33.25,-90.41 78.46,-94.34zm-467.96 -1365.97l951.94 -0.12 -0.06 1307.81 -952.53 -0.06 0.66 -1307.62zm380.13 -160.26c5.22,-2.84 164.41,-3.68 183.21,-2 22.07,1.98 24.27,27.87 7.76,34.23l-182.9 1.5c-21.16,-1.37 -25.7,-24.14 -8.07,-33.73zm610.97 1622.5l0 -1614.63c-4.61,-11.59 -2.53,-25.42 -15.46,-51.61 -36.78,-74.55 -97.53,-74.85 -116.76,-85.15l-764.98 0c-16.39,8.22 -37.95,4.38 -72,29.8 -77.33,57.72 -61.71,141.9 -61.71,236.89l0 1393.14c0,64.85 -5.07,124.03 32.07,166.94 40.43,46.7 73.68,59.27 139.07,59.22l597.06 0c60.58,0 130.44,7.89 180.73,-17.47 33.95,-17.13 57.18,-44.79 71.05,-78.37 5.18,-12.54 6.94,-29.79 10.93,-38.76z"/>
   <path class="fil0" d="M-0 292.63l0 37.3c4.39,8.96 10.5,41.08 14.17,53.94 34.73,121.49 68.54,258.1 102.01,381.47l233.07 869.66c19.06,72.56 39.33,143.98 58.02,216.68 11.17,43.46 20.53,66.73 44.72,92.54 36.45,38.89 81.13,39.54 93.06,46.52l37 0.31 93.27 -25.92c30.59,-8.36 61.79,-16.83 91.39,-24.67 -10.88,-5.37 -115.79,-9.87 -170.47,-106.66 -22.87,-40.5 -24.83,-70.52 -22.93,-116.26 1.24,-29.85 1.77,-21.83 -4.11,-24.37l-153.07 41.64c-3.26,-22.09 -13.62,-51.42 -19.35,-73.82 -6.16,-24.04 -12.5,-48.07 -19.27,-72.19 -13.54,-48.18 -25.95,-97.39 -39.16,-146.04l-116.75 -436.34c-16.52,-61.68 -116.96,-429.25 -115.76,-438.23l-1.7 -2.98c-0.26,-0.53 -1.14,-2.41 -1.39,-3.04l-23.64 -90.13 492.75 -131.63 -0.73 -131.15c-27.11,4.53 -63.18,16.75 -91,24.08 -15.35,4.05 -29.94,7.87 -45.57,12.17 -13.54,3.74 -37.72,9.04 -36.5,-14.53 0.86,-16.68 20.49,-18.6 35.38,-22.34 21.47,-5.39 129.49,-33.67 135.79,-37.5 0.5,-32.78 2.39,-51.96 12.32,-81.27 12.24,-36.12 26.91,-49.05 31.33,-60.11 -15.41,2.19 -146.94,38.81 -172.9,45.9 -57.4,15.67 -115.55,30.41 -172.68,46.24 -36.83,10.2 -145.04,37.17 -171.68,47.27 -38.6,14.63 -68.25,46.57 -83.48,81.82 -5.5,12.73 -7.56,31.77 -12.13,41.62z"/>
   <path class="fil0" d="M1132.03 1669.91c-37.45,3.25 -68.87,36.59 -65,78.15 3.54,38.01 37.67,68.93 79.61,64.41 36.11,-3.89 67.6,-37.43 62.98,-79.35 -4,-36.23 -36.59,-66.77 -77.59,-63.21z"/>
   <path class="fil0" d="M1042.89 128.9c-17.63,9.59 -13.09,32.37 8.07,33.73l182.9 -1.5c16.5,-6.36 14.31,-32.25 -7.76,-34.23 -18.8,-1.68 -177.99,-0.84 -183.21,2z"/>
  </g>
 </g>
</svg>
