<?xml version="1.0" encoding="UTF-8"?>
<!DOCTYPE svg PUBLIC "-//W3C//DTD SVG 1.0//EN" "http://www.w3.org/TR/2001/REC-SVG-20010904/DTD/svg10.dtd">
<!-- Creator: CorelDRAW 2019 (64-Bit) -->
<svg xmlns="http://www.w3.org/2000/svg" xml:space="preserve" width="1.96991in" height="2.36139in" version="1.0" style="shape-rendering:geometricPrecision; text-rendering:geometricPrecision; image-rendering:optimizeQuality; fill-rule:evenodd; clip-rule:evenodd"
viewBox="0 0 1969.91 2361.39"
 xmlns:xlink="http://www.w3.org/1999/xlink"
 xmlns:xodm="http://www.corel.com/coreldraw/odm/2003">
 <defs>
  <style type="text/css">
   <![CDATA[
    .fil0 {fill:#02965C}
   ]]>
  </style>
 </defs>
 <g id="Layer_x0020_1">
  <metadata id="CorelCorpID_0Corel-Layer"/>
  <g id="_2190160947120">
   <path class="fil0" d="M1967.46 794.57l-117.02 0.04c-3.39,23.38 -0.44,428.05 -0.76,466.53 -0.28,34.54 2.93,446.59 -1.33,466.46l-78.32 0c-2.74,-29.86 -0.5,-296.48 -0.5,-350.2l-0.01 -465.03c0,-36.66 2.26,-81.17 -0.33,-116.85l-785.33 -0.92c-3.76,28.69 -0.72,1192.51 -0.72,1282.85 0,42.07 0,80.35 0,123.84 -0,45.48 -4.37,76.53 18.54,109.71 42.6,61.73 120.51,45.97 210.83,45.96l644.55 0.04c43.09,-0.13 69.42,-17.2 88.34,-39.45 23.95,-28.17 22.87,-62.07 22.99,-106.16l0.29 -386.68c0,-171.36 2.39,-344.42 -0.14,-515.57 -0.61,-41.72 3.47,-491.41 -1.11,-514.59zm-806.67 251.94c-32.87,11.43 -37.85,32.43 -37.77,73.1l0.05 222.4c0.04,32.35 -6.82,77.65 12.28,99.91 22.59,26.32 51.11,20.12 92.35,19.97 55.7,-0.2 312.6,3.3 331.4,-3.35 30.57,-10.81 35.62,-36.28 35.59,-73.55l-0 -222.41c0,-32.56 6.19,-78.59 -11.99,-99.76 -22.78,-26.52 -52.49,-19.86 -92.15,-19.86 -57.01,0 -308.78,-3.74 -329.75,3.55zm-19.53 94.09l432.74 -0.02c0.92,-45.9 -4.06,-80.52 -65.68,-80.41l-298.37 0.01c-62.98,-0.22 -68.63,30.05 -68.69,80.42zm331.05 198.2l-223.45 0.65 0.1 -178.1 -107.74 -0.02c0.42,39.59 -4.26,226.86 3.63,248.36 13.24,36.11 44.31,35.21 87.89,35.18l250.2 -0c42.14,0 76.11,-0.54 88.33,-37.22 4.5,-13.5 5.43,-227.72 1.5,-246.51l-99.05 0.15c-5.2,20.41 -2.02,147.46 -1.41,177.51z"/>
   <path class="fil0" d="M68.31 1048.15c-81.72,17.29 -66,96.55 -66.65,139.29 -0.27,17.53 -0.35,49.03 0.02,66.54 1.81,86.09 -0.73,184.38 -0.73,275.06 0,185.96 -1.83,372.81 -0.05,558.66l0.05 128.77c0,47.94 -4.76,87.86 22.31,117.69 25.68,28.3 64.37,26.14 112.64,26.14 47.18,0 94.45,0.02 141.53,0.01 49.11,0 523.62,2.72 558.22,-0.49 35.91,-3.33 66.25,-31.88 72.5,-66.08 4.71,-25.74 1.6,-372.56 1.6,-415.94l0 -697.54c0.02,-46.41 3.32,-85.4 -26.77,-112.63 -29.47,-26.66 -70.78,-21.56 -117.78,-21.56l-558.53 0.19c-32.91,-0.26 -110.89,-3.93 -138.35,1.88zm274.69 832.77l214.63 0.37 68.05 -155.11c-68.55,-78.89 -160.68,-123.03 -266.05,-71.98 -25.75,12.48 -64.63,42.11 -79.61,62.04 -9.08,12.08 -1.71,17.56 4.95,32.66l58.03 132.03zm72.42 -399c-196.33,23.51 -355.43,190.44 -335.04,413.55 17.92,196.03 195.41,357.68 414.7,336.9 192.08,-18.2 358.77,-195.83 335.87,-412.66 -22.06,-208.77 -209.42,-362.47 -415.52,-337.79zm6.78 122.24c-127.88,16.64 -241.52,136.13 -219.5,288.01 5.2,35.84 16.81,66.05 32.37,93.74 13.24,23.55 38.52,53.57 59.58,69.32 49.85,37.3 112.41,66.13 194.68,54.75 130.28,-18.02 237.91,-134.91 219.05,-287.2 -15.94,-128.72 -137.27,-237.99 -286.19,-218.62zm304.76 -300.98c-59.31,18.62 -32.63,101.78 23.31,87.23 20.59,-5.35 39.31,-26.84 32.17,-55.33 -5.18,-20.67 -29.03,-40.2 -55.48,-31.89zm-106.89 21.09c-34.5,12.3 -12.84,57.41 17.44,44.35 24.29,-10.47 12.39,-54.98 -17.44,-44.35zm-510.48 -130.37c-40.2,8.11 -49.55,75.65 16.18,75.94 59.68,0.26 658.92,2.58 677.04,-1.18 27.25,-5.65 39.18,-40.79 20.27,-62.85 -16.35,-19.06 -60.96,-12.65 -90.71,-12.65 -44.47,0 -607.42,-2.37 -622.77,0.73z"/>
   <path class="fil0" d="M983.62 714.22l785.68 0.19 0.24 -356.54 80.07 0.04 0.1 356.39 118.05 0.21c3.97,-26.73 1.3,-565.36 1,-603.3 -0.32,-40.3 -17.65,-77.38 -53.25,-96.36 -37.17,-19.82 -89.36,-13.81 -136.84,-13.81 -201.35,0 -402.68,0 -604.03,0 -45.96,0 -99.83,-6.56 -137.19,13.47 -30.65,16.43 -53.91,47.36 -54.3,96.62l0.02 452.49c0,47.09 -2.98,104.82 0.45,150.61z"/>
   <path class="fil0" d="M48.02 411.49c-58.8,16.96 -47.07,71.73 -47.07,136.95 0,46.7 -3.46,340.46 3.61,361.29 18,53.04 79.63,42.45 138.92,42.45l545.9 -0c32.05,-0.06 156.75,3.73 177.9,-3.46 53.07,-18.05 42.23,-81.43 42.23,-139.96 0,-47.27 3.92,-337.9 -4.36,-359.87 -16.48,-43.73 -55.98,-40.39 -91.94,-40.43l-591.39 -0.03c-33.31,0 -154.49,-2.5 -173.81,3.07zm35.62 20.3c-54.55,15.92 -48.03,60.27 -48.03,119.18 0,42.24 -2.93,315.08 2,333.23 15.8,58.27 76.78,47.52 121.04,47.52l505.46 -0.01c31.89,-0.06 132.75,4.72 161.69,-1.56 59.12,-12.83 49.35,-76.66 49.35,-116.34 0,-46.86 3.17,-310.46 -1.38,-333.72 -12.28,-62.77 -80.34,-51.07 -118.68,-51.07l-505.46 0c-32.33,0 -143.5,-3.8 -165.99,2.76zm732.66 346.48c-41.11,17.33 -15.48,72.03 21.94,58.05 36.32,-13.57 17.91,-74.85 -21.94,-58.05zm-20.8 -173.19l62.72 -0.16 0.07 -30.71 -62.62 -0.56 -0.17 31.42zm-74.77 298.27c68.17,9 66.44,-29.95 66.44,-74.38l0 -288.11c0.01,-23.93 3.02,-43.85 -10.5,-59.61 -13.26,-15.46 -32.96,-19.17 -56.13,-15.11l0.18 437.2zm-77.05 0.76l0.99 -438.85c-130.47,-3.76 -266.5,-0.24 -397.57,-0.23 -32.8,0 -65.64,0.01 -98.57,0.01 -36.69,0 -63.18,-3.23 -76.8,24.27 -10.09,20.4 -5.15,161.6 -5.15,195.61 0,210.77 -19.31,219.15 76.89,219.15l500.21 0.04zm14.96 0.03l45.19 -0.05 0.72 -439.26 -45.74 0.21 -0.17 439.11z"/>
  </g>
 </g>
</svg>
