<?xml version="1.0" encoding="UTF-8"?>
<!DOCTYPE svg PUBLIC "-//W3C//DTD SVG 1.0//EN" "http://www.w3.org/TR/2001/REC-SVG-20010904/DTD/svg10.dtd">
<!-- Creator: CorelDRAW 2019 (64-Bit) -->
<svg xmlns="http://www.w3.org/2000/svg" xml:space="preserve" width="2.8462in" height="2.22007in" version="1.0" style="shape-rendering:geometricPrecision; text-rendering:geometricPrecision; image-rendering:optimizeQuality; fill-rule:evenodd; clip-rule:evenodd"
viewBox="0 0 2846.2 2220.07"
 xmlns:xlink="http://www.w3.org/1999/xlink"
 xmlns:xodm="http://www.corel.com/coreldraw/odm/2003">
 <defs>
  <style type="text/css">
   <![CDATA[
    .fil0 {fill:#02965C}
   ]]>
  </style>
 </defs>
 <g id="Layer_x0020_1">
  <metadata id="CorelCorpID_0Corel-Layer"/>
  <g id="_2190163234608">
   <path class="fil0" d="M611.52 1953.09l1740.96 0.45c3.29,-231.78 0.16,-473.13 0.16,-706.39 0,-46.27 5.91,-197.51 -2.3,-231.7 -20.31,-84.63 -106.97,-70.79 -165.05,-70.79l-1404.56 0c-80.08,0 -146,-8.75 -166.07,69.64 -9.08,35.46 -1.73,868.85 -3.14,938.79zm699.45 -924.77c-131.35,4.57 -312.25,-0.11 -452.98,-0.11 -195.87,0 -165.46,-33.71 -165.46,296.2 0,35.86 -4.94,506.5 4.01,529.92 19.44,50.89 122.33,32.02 196.57,32.33l1067.46 0.18c50.33,-0.05 101.03,0.7 150.99,-0.15 38.98,-0.66 117.71,9.67 141.99,-13.01 29.04,-27.13 16.8,-91.67 17.67,-134.93 3.83,-191.79 0.03,-414.66 0.06,-610.98 0.01,-38.36 11.4,-97.31 -57.71,-99.6 -99.52,-3.3 -205.43,0.04 -305.67,0.04 -99.04,0 -204.23,0.12 -298.31,0.01 -97.2,-0.12 -205.35,-3.14 -298.61,0.1zm-573.11 24.18c-33.35,10.02 -22.56,58.13 -22.56,120.91 0,192.83 -2.72,399.43 0.03,589.92 0.78,53.94 -16.97,101.52 44.17,100.9 186.35,-1.87 1450.22,4.99 1471.08,-2.85 21.89,-8.23 17.98,-26.02 17.96,-52.39l-0.01 -663.67c-0,-85.23 9.89,-94.35 -52.63,-93.98 -120.05,0.72 -1444.69,-2.86 -1458.03,1.15z"/>
   <path class="fil0" d="M1904.71 916.44c67.35,-1.69 364.71,-9.18 404.96,9.73 50.15,23.55 71.49,63.03 71.36,134.88 -0.12,70.9 0.46,141.9 -0.1,212.78 97.66,0.82 128.11,141.35 37.54,185.28 -13.43,6.51 -26.68,6.08 -37.12,12.78l-0.32 106.43c27.75,4.19 48.07,22.02 46.8,55 -1.71,44.66 -34.81,37.76 -46.81,56.27l0.04 240.19c35.41,1.14 369.83,3.7 396.72,-2.31 86.48,-19.33 66.39,-120.78 66.39,-195.74l0 -1594.17c0,-45.61 5.43,-81.13 -23.52,-108.72 -33.8,-32.2 -49.83,-28.26 -105.14,-28.26l-663.65 0c-41.45,0 -84.83,-5.5 -112.4,17.48 -28.71,23.93 -35.3,48.18 -35.2,98.43l0.02 533.73c0,86.51 -3.53,180.67 0.44,266.22zm119.91 -356.45c-4.06,18.63 -2.07,68.77 -2.26,93.78 -0.03,4.14 -0.3,10.24 -0.01,14.16l1.43 9.9c0.21,1.02 0.69,2.25 0.88,3.07 3.63,14.92 310.65,6.14 350.24,6.14l336.95 -0.49c1.12,-0.23 2,-0.47 3.02,-0.76l5.4 -2.4c13.24,-5.63 6.48,-82.38 6.42,-100.16 -0.12,-33.83 0.95,-26.54 -77.91,-26.54 -91.26,0 -607.59,-4.21 -624.18,3.3zm20.63 103.79l658.44 0.57 -0.4 -84.82 -658.35 0.86 0.31 83.39zm-20.06 -422.83c-4.85,16.04 -4.95,107.4 0.16,123.18 19.92,9.11 589.9,3.54 658.58,3.87 47.09,0.22 42.55,12.05 42.59,-72.43 0.01,-50.01 12.5,-58.82 -35.48,-58.48l-242.56 -0.1c-68.17,-2.74 -406.44,-3.24 -423.3,3.97zm20.07 103.67c31.46,0.56 637.63,3.43 657.68,-1.83l0.38 -81.1 -657.93 -1.65 -0.13 84.58z"/>
   <path class="fil0" d="M581.39 1553.45c5.21,-25.4 1.49,-343.25 1.49,-397.59 0,-148.75 -19.42,-239.71 166.25,-239.69 269.22,0.04 531.62,0.54 800.11,-0.02 5.73,-36.75 1.32,-245.31 1.46,-311.63 0.08,-38.43 -9.55,-58.04 -35.45,-70.86 -27.5,-13.61 -355.21,-5.93 -414.98,-5.93 -279.64,0 -559.12,0 -839.22,0 -57.04,0 -144.96,-16.38 -156.39,49.91 -5.52,31.99 -1.21,717.33 -1.21,827.53 0,179.47 -3.99,148.79 269.97,148.79 61.99,0 149.29,5.11 207.98,-0.5z"/>
   <path class="fil0" d="M449.89 2212.79c24.76,12.78 148.17,4.83 190.39,4.83l605.85 0.08c5.19,-16.53 10.69,-21.31 19.87,-36.16 10.38,-16.79 12.12,-22.29 37.93,-22.29l383.17 0.68 34.69 56.31 788.5 -2.17c14.34,-4.77 -18.29,-42.21 -31.07,-59.98 -12.93,-17.97 -115.77,-168.98 -121.87,-171.06l-1751.18 -0.37c-27.31,36.06 -52.45,73.13 -80.19,112.16 -13.23,18.61 -75.74,101.34 -76.09,117.98z"/>
   <path class="fil0" d="M582.83 1664.12l0.06 -85.69c-82.45,-12.1 -358.51,9.92 -432.94,-3.07 -81.87,-14.29 -69.32,-104.43 -69.32,-149.12 0,-114.33 -4.86,-822.67 2.17,-855.97 16.6,-78.63 106.17,-65.81 157.17,-65.81l1088.53 0c53.42,0 166.82,-10.8 205.27,14.13 53.89,34.94 39.31,101.46 39.31,177.29 0,55.9 -6.43,171.43 1.44,220.3l78.54 -0.22c4.08,-107.23 0.19,-256.28 0.19,-371.08 0,-39.48 6.7,-85.62 -16.13,-108.54 -26.5,-26.61 -56.33,-20.5 -101.44,-20.5l-1376.47 0c-59.6,0 -127.88,-12.79 -151.77,33.36 -8.28,16 -6.79,36.81 -6.73,57.06l0.01 990.22c0,196.49 -32.06,169.44 330.55,169.44 51.82,0 212.34,6.76 251.56,-1.79z"/>
   <path class="fil0" d="M582.35 1916.11l0.5 -134.25c-21.24,-4.9 -88.52,-1.79 -114.7,-1.87 -53.51,-0.18 -53.89,17.85 -53.98,67.61 -0.08,46.27 -0.28,69.99 50.39,69.93 29.74,-0.04 92.13,3.2 117.79,-1.42z"/>
   <path class="fil0" d="M1260.54 2217.54l444.22 0.07c-14.13,-46.59 -30.74,-44.24 -49.69,-44.24l-369.76 -0.56c-6.66,17.76 -16.24,24.95 -24.77,44.74z"/>
   <path class="fil0" d="M2381.01 1445.44c90.41,-10.66 95.23,-136.09 0.13,-149.53l-0.13 149.53z"/>
  </g>
 </g>
</svg>
