<?xml version="1.0" encoding="UTF-8"?>
<!DOCTYPE svg PUBLIC "-//W3C//DTD SVG 1.0//EN" "http://www.w3.org/TR/2001/REC-SVG-20010904/DTD/svg10.dtd">
<!-- Creator: CorelDRAW 2019 (64-Bit) -->
<svg xmlns="http://www.w3.org/2000/svg" xml:space="preserve" width="2.9034in" height="2.05643in" version="1.0" style="shape-rendering:geometricPrecision; text-rendering:geometricPrecision; image-rendering:optimizeQuality; fill-rule:evenodd; clip-rule:evenodd"
viewBox="0 0 2903.39 2056.43"
 xmlns:xlink="http://www.w3.org/1999/xlink"
 xmlns:xodm="http://www.corel.com/coreldraw/odm/2003">
 <defs>
  <style type="text/css">
   <![CDATA[
    .fil0 {fill:#02965C}
   ]]>
  </style>
 </defs>
 <g id="Layer_x0020_1">
  <metadata id="CorelCorpID_0Corel-Layer"/>
  <g id="_2190328602992">
   <path class="fil0" d="M2372.6 1131.77c55.15,-100.46 27.81,-561.91 27.85,-722.94 0.13,-444.92 74.04,-401 -363.81,-400.96 -184.83,0.02 -1445.45,-26.43 -1508.33,17.58 -56.93,39.85 -34.01,258.61 -33.92,341.71 0.97,885.42 -97.85,777.54 361.69,777.93 211.64,0.18 1410.36,15.63 1516.51,-13.32zm-1743.65 -121.53c57.07,14.8 1560.8,16.85 1635.34,1.22l0.84 -870.72 -1634.11 -4.6 -2.06 874.1z"/>
   <path class="fil0" d="M828.32 1953.55l1250 0c188.88,0 196.14,-9.24 195.26,-197.87 -0.96,-206.2 -55.37,-168.4 -375.81,-167.03l-1097.22 0c-180.68,0 -177.62,13.74 -177.42,195.48 0.19,182.13 29.8,169.42 205.2,169.42zm0 -107.38l525.03 -6.21c15.11,-60.16 15.92,-79.38 -1.21,-135.52l-412.71 -9.25c-93.8,-0.06 -234.87,-18.59 -191.43,113.71 15.2,46.3 16.24,37.26 80.32,37.27z"/>
   <path class="fil0" d="M2585.37 1373.71l295.77 0.61 14.43 -36.83c16.44,-71.19 2.19,-1001.39 0.01,-1024.49l-321.67 -5.33c-7.85,136.38 -19.22,996.36 11.46,1066.05zm148.92 -409.76c32.83,0 59.46,26.62 59.46,59.46 0,32.83 -26.62,59.46 -59.46,59.46 -32.83,0 -59.46,-26.62 -59.46,-59.46 0,-32.83 26.62,-59.46 59.46,-59.46zm0 -266.94c32.83,0 59.46,26.62 59.46,59.46 0,32.83 -26.62,59.46 -59.46,59.46 -32.83,0 -59.46,-26.62 -59.46,-59.46 0,-32.83 26.62,-59.46 59.46,-59.46zm0 -62.5c67.35,0 121.95,54.6 121.95,121.95 0,67.35 -54.6,121.95 -121.95,121.95 -67.35,0 -121.95,-54.6 -121.95,-121.95 0,-67.35 54.6,-121.95 121.95,-121.95zm0 34.72c48.18,0 87.24,39.06 87.24,87.24 0,48.18 -39.06,87.24 -87.24,87.24 -48.18,0 -87.24,-39.06 -87.24,-87.24 0,-48.18 39.06,-87.24 87.24,-87.24zm0 232.22c67.35,0 121.95,54.6 121.95,121.95 0,67.35 -54.6,121.95 -121.95,121.95 -67.35,0 -121.95,-54.6 -121.95,-121.95 0,-67.35 54.6,-121.95 121.95,-121.95zm0 34.72c48.18,0 87.24,39.06 87.24,87.24 0,48.18 -39.06,87.24 -87.24,87.24 -48.18,0 -87.24,-39.06 -87.24,-87.24 0,-48.18 39.06,-87.24 87.24,-87.24z"/>
   <path class="fil0" d="M308.19 1362.14c34.29,-41.07 14.91,-1017.51 12.33,-1042.79 -61.22,-22.3 -254.17,-19.06 -320.52,-3.18l0.15 1033.65c18.44,48.53 289.92,25.59 308.04,12.31zm-144.04 -665.14c32.83,0 59.46,26.62 59.46,59.46 0,32.83 -26.62,59.46 -59.46,59.46 -32.83,0 -59.46,-26.62 -59.46,-59.46 0,-32.83 26.62,-59.46 59.46,-59.46zm0 -62.5c67.35,0 121.95,54.6 121.95,121.95 0,67.35 -54.6,121.95 -121.95,121.95 -67.35,0 -121.95,-54.6 -121.95,-121.95 0,-67.35 54.6,-121.95 121.95,-121.95zm0 34.72c48.18,0 87.24,39.06 87.24,87.24 0,48.18 -39.06,87.24 -87.24,87.24 -48.18,0 -87.24,-39.06 -87.24,-87.24 0,-48.18 39.06,-87.24 87.24,-87.24zm0 294.72c32.83,0 59.46,26.62 59.46,59.46 0,32.83 -26.62,59.46 -59.46,59.46 -32.83,0 -59.46,-26.62 -59.46,-59.46 0,-32.83 26.62,-59.46 59.46,-59.46zm0 -62.5c67.35,0 121.95,54.6 121.95,121.95 0,67.35 -54.6,121.95 -121.95,121.95 -67.35,0 -121.95,-54.6 -121.95,-121.95 0,-67.35 54.6,-121.95 121.95,-121.95zm0 34.72c48.18,0 87.24,39.06 87.24,87.24 0,48.18 -39.06,87.24 -87.24,87.24 -48.18,0 -87.24,-39.06 -87.24,-87.24 0,-48.18 39.06,-87.24 87.24,-87.24z"/>
   <path class="fil0" d="M1281.69 1304.13l-301.95 -0.68c-70.3,1.63 -62.23,-10.74 -85.04,35.93 30.19,58.56 114.41,34.59 253.06,34.59 97.22,0 194.44,0.03 291.66,0.02l501.39 1.16c83.44,-11.79 37.4,8.15 59.46,-35.76 -26.59,-52.96 -10.74,-35.11 -185.85,-34.33 -65.61,0.3 -135.11,2.08 -200.26,-1.53l-7.63 -127.2 -318 0.84 -6.85 126.96z"/>
   <polygon class="fil0" points="883.39,2056.43 1140.41,2055.41 1143.33,1984.42 883.15,1981.84 "/>
   <polygon class="fil0" points="1752.65,2052.91 2012.96,2055.22 2014.82,1987.19 1753.12,1982.79 "/>
  </g>
 </g>
</svg>
