<?xml version="1.0" encoding="UTF-8"?>
<!DOCTYPE svg PUBLIC "-//W3C//DTD SVG 1.1//EN" "http://www.w3.org/Graphics/SVG/1.1/DTD/svg11.dtd">
<!-- Creator: CorelDRAW 2019 (64-Bit) -->
<svg xmlns="http://www.w3.org/2000/svg" xml:space="preserve" width="5.8105in" height="5.8279in" version="1.1" style="shape-rendering:geometricPrecision; text-rendering:geometricPrecision; image-rendering:optimizeQuality; fill-rule:evenodd; clip-rule:evenodd"
viewBox="0 0 5810.5 5827.9"
 xmlns:xlink="http://www.w3.org/1999/xlink"
 xmlns:xodm="http://www.corel.com/coreldraw/odm/2003">
 <defs>
  <style type="text/css">
   <![CDATA[
    .fil5 {fill:#263138;fill-rule:nonzero}
    .fil3 {fill:#36464F;fill-rule:nonzero}
    .fil4 {fill:#445964;fill-rule:nonzero}
    .fil2 {fill:#55BC7E;fill-rule:nonzero}
    .fil6 {fill:#EB9380;fill-rule:nonzero}
    .fil0 {fill:#EBEBEB;fill-rule:nonzero}
    .fil7 {fill:white;fill-rule:nonzero}
    .fil8 {fill:black;fill-rule:nonzero;fill-opacity:0.101961}
    .fil1 {fill:#55BC7E;fill-rule:nonzero;fill-opacity:0.101961}
   ]]>
  </style>
 </defs>
 <g id="Layer_x0020_1">
  <metadata id="CorelCorpID_0Corel-Layer"/>
  <g id="_1614171686944">
   <g>
    <g>
     <path class="fil0" d="M2061.62 2206.82c0,28.94 -4.72,54.95 -14.2,77.99 -9.43,23.04 -28.94,43.13 -58.46,60.27 -8.89,5.31 -19.8,11.37 -32.81,18.18 -12.97,6.78 -25.69,14.91 -38.12,24.37 -12.38,9.43 -22.87,20.51 -31.46,33.23 -8.55,12.7 -12.85,27.31 -12.85,43.87 0,12.41 2.4,23.33 7.12,32.79 4.72,9.44 10.91,17.42 18.62,23.93 7.67,6.51 16.68,11.37 27,14.64 10.36,3.22 20.85,4.87 31.46,4.87 13.01,0 24.81,-2.21 35.46,-6.66 10.61,-4.42 20.26,-10.04 28.81,-16.83 8.55,-6.8 16.26,-14.49 23.04,-23.04 6.78,-8.57 12.55,-16.7 17.27,-24.39l77.12 53.18c-7.7,18.32 -17.86,34.58 -30.58,48.75 -12.72,14.17 -27.17,26.14 -43.43,35.89 -16.26,9.75 -33.82,17.12 -52.74,22.16 -18.91,5.01 -38.41,7.54 -58.5,7.54 -22.45,0 -44.6,-3.26 -66.46,-9.75 -21.86,-6.5 -41.49,-16.85 -58.93,-31.02 -17.44,-14.17 -31.59,-32.35 -42.54,-54.5 -10.95,-22.16 -16.39,-48.61 -16.39,-79.31 0,-18.91 2.19,-35.61 6.61,-50.08 4.46,-14.49 10.78,-27.63 19.08,-39.44 8.26,-11.81 18.03,-22.45 29.23,-31.89 11.25,-9.48 23.93,-18.62 38.12,-27.48 11.84,-7.1 23.63,-13.9 35.43,-20.39 11.83,-6.51 22.62,-13.73 32.35,-21.71 9.77,-7.98 17.74,-17.15 23.97,-27.46 6.19,-10.36 9.31,-22.91 9.31,-37.68l97.47 0zm-1.77 -206.5l0 0 0 122.3 -98.4 0 0 -122.3 98.4 0z"/>
     <path class="fil0" d="M3745.74 2026.7c0,-28.94 4.72,-54.94 14.2,-77.98 9.43,-23.04 28.94,-43.13 58.46,-60.28 8.89,-5.31 19.8,-11.37 32.81,-18.17 12.97,-6.78 25.69,-14.91 38.12,-24.37 12.38,-9.43 22.87,-20.51 31.46,-33.23 8.55,-12.7 12.85,-27.32 12.85,-43.87 0,-12.4 -2.4,-23.33 -7.12,-32.79 -4.72,-9.43 -10.91,-17.42 -18.62,-23.93 -7.67,-6.51 -16.68,-11.37 -27,-14.64 -10.36,-3.22 -20.85,-4.86 -31.46,-4.86 -13.02,0 -24.81,2.21 -35.46,6.65 -10.61,4.42 -20.26,10.05 -28.81,16.83 -8.55,6.8 -16.26,14.49 -23.04,23.04 -6.78,8.57 -12.55,16.7 -17.27,24.39l-77.13 -53.18c7.71,-18.32 17.86,-34.58 30.58,-48.76 12.72,-14.17 27.17,-26.14 43.43,-35.89 16.26,-9.75 33.82,-17.12 52.74,-22.16 18.91,-5.01 38.41,-7.54 58.5,-7.54 22.45,0 44.61,3.26 66.47,9.75 21.86,6.51 41.49,16.85 58.93,31.02 17.44,14.17 31.59,32.35 42.54,54.5 10.95,22.16 16.39,48.61 16.39,79.31 0,18.91 -2.19,35.61 -6.61,50.08 -4.46,14.49 -10.78,27.63 -19.08,39.44 -8.26,11.81 -18.03,22.45 -29.23,31.89 -11.24,9.48 -23.93,18.61 -38.12,27.48 -11.83,7.1 -23.63,13.9 -35.43,20.39 -11.83,6.51 -22.62,13.73 -32.35,21.71 -9.78,7.98 -17.73,17.14 -23.97,27.46 -6.19,10.36 -9.31,22.91 -9.31,37.68l-97.47 0zm1.77 206.5l0 0 0 -122.3 98.39 0 0 122.3 -98.39 0z"/>
     <path class="fil0" d="M2982.38 688.53c0,21.33 -3.48,40.5 -10.46,57.48 -6.95,16.98 -21.33,31.8 -43.09,44.43 -6.55,3.91 -14.59,8.39 -24.18,13.4 -9.56,5 -18.94,10.99 -28.1,17.96 -9.13,6.95 -16.86,15.12 -23.19,24.49 -6.3,9.36 -9.47,20.14 -9.47,32.34 0,9.15 1.77,17.2 5.25,24.17 3.48,6.96 8.04,12.84 13.72,17.63 5.65,4.8 12.3,8.39 19.9,10.79 7.64,2.37 15.37,3.59 23.19,3.59 9.59,0 18.28,-1.63 26.14,-4.91 7.83,-3.26 14.94,-7.41 21.24,-12.41 6.3,-5.02 11.98,-10.68 16.98,-16.98 5,-6.32 9.25,-12.31 12.73,-17.98l56.85 39.2c-5.68,13.5 -13.16,25.49 -22.54,35.94 -9.38,10.45 -20.03,19.27 -32.01,26.45 -11.98,7.19 -24.93,12.62 -38.87,16.33 -13.94,3.7 -28.32,5.56 -43.12,5.56 -16.55,0 -32.88,-2.41 -48.99,-7.19 -16.11,-4.8 -30.58,-12.42 -43.44,-22.87 -12.85,-10.45 -23.29,-23.85 -31.36,-40.18 -8.07,-16.33 -12.08,-35.83 -12.08,-58.46 0,-13.94 1.61,-26.25 4.88,-36.92 3.29,-10.68 7.94,-20.37 14.06,-29.07 6.08,-8.71 13.29,-16.55 21.55,-23.5 8.29,-6.98 17.63,-13.72 28.1,-20.26 8.72,-5.23 17.42,-10.24 26.11,-15.03 8.72,-4.8 16.67,-10.12 23.84,-16 7.2,-5.88 13.07,-12.64 17.67,-20.24 4.56,-7.64 6.86,-16.89 6.86,-27.78l71.84 0zm-1.3 -152.21l0 0 0 90.15 -72.52 0 0 -90.15 72.52 0z"/>
    </g>
    <g>
     <path class="fil0" d="M5203.49 4211.44l194.19 -3.87 95.72 -1.56c31.84,-0.65 63.51,-0.52 95.26,-0.76l-6.19 6.19 -0.74 -162.76 6.93 6.94 -192.59 -0.87c-64.2,-0.07 -128.39,-1.56 -192.59,-2.28l3.79 -3.79c-0.26,26.66 -1.19,53.46 -1.81,80.56l-1.97 82.2zm-1.97 -80.56l0 0c-0.63,-27.16 -1.56,-54.6 -1.82,-82.2l-0.04 -3.75 3.83 -0.04c64.2,-0.71 128.39,-2.2 192.59,-2.27l192.59 -0.87 6.97 -0.03 -0.03 6.97 -0.75 162.76 -0.03 6.24 -6.17 -0.05c-32.44,-0.24 -64.96,-0.11 -97.33,-0.76l-96.86 -1.56 -190.98 -3.87 -1.97 -80.56z"/>
     <path class="fil0" d="M5418.35 4416.67l194.19 -3.87 95.72 -1.56c31.83,-0.65 63.51,-0.52 95.26,-0.76l-6.19 6.19 -0.75 -162.76 6.94 6.94 -192.59 -0.87c-64.2,-0.07 -128.39,-1.56 -192.59,-2.28l3.79 -3.79c-0.26,26.66 -1.19,53.46 -1.82,80.56l-1.97 82.2zm-1.97 -80.56l0 0c-0.63,-27.16 -1.56,-54.6 -1.82,-82.2l-0.04 -3.75 3.83 -0.04c64.2,-0.71 128.39,-2.2 192.59,-2.27l192.59 -0.87 6.97 -0.03 -0.03 6.97 -0.74 162.76 -0.03 6.24 -6.16 -0.05c-32.44,-0.24 -64.97,-0.11 -97.33,-0.76l-96.86 -1.56 -190.98 -3.87 -1.97 -80.56z"/>
     <path class="fil0" d="M1038.09 2267.5l194.19 -3.87 95.72 -1.56c31.84,-0.65 63.51,-0.52 95.26,-0.76l-6.19 6.19 -0.75 -162.76 6.94 6.94 -192.59 -0.87c-64.2,-0.07 -128.39,-1.56 -192.59,-2.27l3.79 -3.79c-0.26,26.66 -1.19,53.47 -1.82,80.56l-1.97 82.2zm-1.97 -80.57l0 0c-0.63,-27.15 -1.56,-54.6 -1.81,-82.2l-0.04 -3.75 3.83 -0.04c64.2,-0.71 128.39,-2.2 192.59,-2.27l192.59 -0.87 6.97 -0.03 -0.03 6.97 -0.75 162.76 -0.03 6.24 -6.16 -0.05c-32.44,-0.24 -64.97,-0.11 -97.33,-0.76l-96.86 -1.56 -190.98 -3.87 -1.97 -80.57z"/>
     <path class="fil0" d="M1256.52 2472.74l194.19 -3.87 95.72 -1.56c31.83,-0.65 63.51,-0.52 95.26,-0.76l-6.19 6.19 -0.75 -162.76 6.94 6.94 -192.59 -0.87c-64.2,-0.07 -128.39,-1.56 -192.59,-2.27l3.79 -3.79c-0.26,26.66 -1.19,53.47 -1.82,80.56l-1.97 82.2zm-1.97 -80.56l0 0c-0.63,-27.16 -1.56,-54.6 -1.82,-82.2l-0.03 -3.75 3.83 -0.04c64.2,-0.71 128.39,-2.2 192.59,-2.27l192.59 -0.87 6.97 -0.03 -0.03 6.97 -0.74 162.76 -0.03 6.24 -6.17 -0.05c-32.44,-0.24 -64.97,-0.11 -97.33,-0.76l-96.86 -1.56 -190.99 -3.87 -1.97 -80.56z"/>
     <path class="fil0" d="M3.83 4416.67l194.19 -3.87 95.72 -1.56c31.83,-0.65 63.51,-0.52 95.26,-0.76l-6.19 6.19 -0.75 -162.76 6.94 6.94 -192.59 -0.87c-64.2,-0.07 -128.39,-1.56 -192.59,-2.28l3.79 -3.79c-0.26,26.66 -1.19,53.46 -1.82,80.56l-1.97 82.2zm-1.97 -80.56l0 0c-0.63,-27.16 -1.56,-54.6 -1.82,-82.2l-0.04 -3.75 3.83 -0.04c64.2,-0.71 128.39,-2.2 192.59,-2.27l192.59 -0.87 6.97 -0.03 -0.03 6.97 -0.75 162.76 -0.03 6.24 -6.16 -0.05c-32.44,-0.24 -64.97,-0.11 -97.33,-0.76l-96.86 -1.56 -190.98 -3.87 -1.97 -80.56z"/>
     <path class="fil0" d="M218.69 565.94l194.19 -3.87 95.73 -1.56c31.83,-0.65 63.5,-0.52 95.26,-0.76l-6.19 6.19 -0.74 -162.76 6.93 6.94 -192.59 -0.87c-64.2,-0.07 -128.39,-1.56 -192.59,-2.27l3.79 -3.79c-0.26,26.66 -1.19,53.47 -1.82,80.57l-1.97 82.2zm-1.97 -80.57l0 0c-0.63,-27.15 -1.56,-54.6 -1.81,-82.2l-0.04 -3.75 3.83 -0.04c64.2,-0.71 128.39,-2.2 192.59,-2.27l192.59 -0.87 6.97 -0.03 -0.03 6.97 -0.74 162.76 -0.03 6.24 -6.17 -0.05c-32.44,-0.24 -64.97,-0.11 -97.33,-0.76l-96.86 -1.56 -190.99 -3.87 -1.97 -80.57z"/>
     <path class="fil0" d="M3.83 771.17l194.19 -3.87 95.72 -1.56c31.83,-0.65 63.51,-0.52 95.26,-0.76l-6.19 6.19 -0.75 -162.76 6.94 6.94 -192.59 -0.87c-64.2,-0.07 -128.39,-1.56 -192.59,-2.27l3.79 -3.79c-0.26,26.66 -1.19,53.47 -1.82,80.57l-1.97 82.2zm-1.97 -80.57l0 0c-0.63,-27.15 -1.56,-54.6 -1.82,-82.2l-0.04 -3.75 3.83 -0.04c64.2,-0.71 128.39,-2.2 192.59,-2.27l192.59 -0.87 6.97 -0.03 -0.03 6.97 -0.75 162.76 -0.03 6.24 -6.16 -0.05c-32.44,-0.24 -64.97,-0.11 -97.33,-0.76l-96.86 -1.56 -190.98 -3.87 -1.97 -80.57z"/>
     <path class="fil0" d="M5418.35 565.94l194.19 -3.87 95.72 -1.56c31.83,-0.65 63.51,-0.52 95.26,-0.76l-6.19 6.19 -0.75 -162.76 6.94 6.94 -192.59 -0.87c-64.2,-0.07 -128.39,-1.56 -192.59,-2.27l3.79 -3.79c-0.26,26.66 -1.19,53.47 -1.82,80.57l-1.97 82.2zm-1.97 -80.57l0 0c-0.63,-27.15 -1.56,-54.6 -1.82,-82.2l-0.04 -3.75 3.83 -0.04c64.2,-0.71 128.39,-2.2 192.59,-2.27l192.59 -0.87 6.97 -0.03 -0.03 6.97 -0.74 162.76 -0.03 6.24 -6.16 -0.05c-32.44,-0.24 -64.97,-0.11 -97.33,-0.76l-96.86 -1.56 -190.98 -3.87 -1.97 -80.57z"/>
     <path class="fil0" d="M1474.96 2267.5l194.19 -3.87 95.73 -1.56c31.83,-0.65 63.51,-0.52 95.26,-0.76l-6.19 6.19 -0.75 -162.76 6.93 6.94 -192.58 -0.87c-64.2,-0.07 -128.39,-1.56 -192.59,-2.27l3.79 -3.79c-0.26,26.66 -1.19,53.47 -1.82,80.56l-1.97 82.2zm-1.97 -80.57l0 0c-0.63,-27.15 -1.56,-54.6 -1.82,-82.2l-0.04 -3.75 3.83 -0.04c64.2,-0.71 128.39,-2.2 192.59,-2.27l192.58 -0.87 6.97 -0.03 -0.03 6.97 -0.75 162.76 -0.03 6.24 -6.17 -0.05c-32.44,-0.24 -64.97,-0.11 -97.33,-0.76l-96.86 -1.56 -190.98 -3.87 -1.97 -80.57z"/>
    </g>
    <g>
     <g>
      <polygon class="fil1" points="2038.76,914.6 2038.76,1635.01 759.32,1635.01 759.32,1804.32 135.26,1219.54 703.37,690.02 759.32,745.29 759.32,859.35 1982.74,859.35 "/>
      <polygon class="fil1" points="2038.76,914.6 2038.76,1635.01 759.32,1635.01 759.32,1804.32 135.26,1219.54 703.37,690.02 759.32,745.29 759.32,859.35 1982.74,859.35 "/>
     </g>
     <g>
      <polygon class="fil2" points="1982.74,1579.72 703.37,1579.72 703.37,859.35 1982.74,859.35 "/>
      <polygon class="fil2" points="703.37,1749.05 703.37,690.02 135.26,1219.54 "/>
     </g>
    </g>
    <g>
     <polygon class="fil3" points="5104.04,1804.32 5048.04,1749.05 5048.04,1635.01 3824.59,1635.01 3768.67,1579.72 3768.67,859.35 5048.04,859.35 5048.04,690.02 5672.09,1274.87 "/>
     <g>
      <polygon class="fil4" points="3768.67,859.35 5048.04,859.35 5048.04,1579.72 3768.67,1579.72 "/>
      <polygon class="fil4" points="5048.04,690.02 5048.04,1749.05 5616.15,1219.54 "/>
     </g>
    </g>
    <g>
     <g>
      <g>
       <path class="fil3" d="M3328.81 4540.09c0,0 -0.14,0.69 -0.42,1.94 -0.14,0.42 -0.14,0.83 -0.28,1.39 -0.14,1.11 -0.41,2.22 -0.69,3.75 -0.14,0.83 -0.28,1.67 -0.42,2.5 -0.42,1.53 -0.69,3.33 -0.97,5.42 -0.28,1.25 -0.42,2.5 -0.69,3.89 -0.42,2.78 -0.97,5.83 -1.67,9.17 -0.97,5.28 -2.09,11.25 -3.2,17.92 -1.8,9.86 -3.89,21.11 -6.25,33.89 -0.7,3.61 -1.39,7.5 -2.09,11.53 -0.97,5.28 -1.94,10.83 -3.06,16.53 -1.11,6.25 -2.22,12.78 -3.47,19.58 -0.14,0.14 -0.14,0.28 -0.14,0.42 -0.83,4.72 -1.8,9.58 -2.64,14.58 -2.64,14.86 -5.42,30.69 -8.61,47.64 -0.14,0.42 -0.28,0.83 -0.28,1.25 -3.33,18.89 -6.94,39.17 -10.83,60.42 -0.97,5.56 -2.08,11.11 -3.19,16.67 -1.11,5.83 -2.22,11.67 -3.19,17.5 0,0.14 -0.14,0.28 0,0.42 -0.56,3.61 -1.25,7.36 -2.09,11.11 0,0.14 0,0.14 0,0.28 -5.28,29.59 -10.97,60.83 -17.08,93.89 -2.08,11.11 -4.03,22.36 -6.11,33.75 -4.03,22.22 -8.19,45 -12.5,68.47 -1.11,5.41 -2.08,10.83 -2.92,16.39 -6.25,34.03 -12.64,69.44 -19.3,106.11 -0.83,3.75 -1.39,7.5 -2.09,11.25 -3.19,17.22 -6.39,34.58 -9.44,52.36 -0.42,1.39 -0.7,2.78 -0.83,4.17 -1.53,8.33 -3.06,16.81 -4.58,25.28 -6.11,33.89 -12.36,68.61 -18.89,104.03 -1.67,8.75 -3.33,17.64 -4.86,26.67 -3.19,17.92 -6.53,35.97 -9.86,54.17 -4.17,22.64 -8.33,45.41 -12.5,68.61 -4.17,23.06 -8.33,46.39 -12.64,69.86 -2.22,11.81 -4.31,23.61 -6.53,35.42l-1.06 5.94 -9.29 1.33 -1.34 0.19 -2.76 0.39 -1.53 0.21 -9.03 1.23 -0.96 0.13 -7.82 1.03 -2.04 0.26 -2.81 0.36 -1.23 0.16 -3.26 0.41 -2.99 0.37c-3.98,0.5 -7.97,0.98 -11.96,1.45l-1.96 0.23 -3.07 0.36 -6.72 0.77 -1.16 0.13 -3.02 0.34 -8.16 0.89 -1.32 0.14 -3.96 0.42 -5.43 0.56 -2.16 0.22 -3.26 0.33 -3.63 0.36 -0.89 0.09c-5.74,0.56 -11.48,1.1 -17.23,1.61l-3.48 0.31c-7,0.61 -14.02,1.2 -21.03,1.75l-1.93 0.15 -8.81 0.67 -0.89 0.06 -9.52 0.68 0.02 -0.09c-5.57,0.38 -11.16,0.72 -16.74,1.06l-0.02 0.11c-7.51,0.46 -15.02,0.87 -22.55,1.26l-0.38 0.02c-28.9,1.45 -57.96,2.33 -87.15,2.62l-1.8 0.02 -3.34 0.03 -0.25 0 -1.24 0.01 -0.27 0 -6.7 0.04 -0.28 0 -0.72 0 -0.56 0 -0.43 0 -0.85 0 -0.14 0 -2.02 0 -2.96 0c-3.67,0 -7.34,-0.02 -11,-0.04l-5.8 -0.04 -6.55 -0.06c-27.19,-0.31 -54.26,-1.14 -81.2,-2.43l0 0.02c-65.3,-3.17 -129.82,-9.25 -193.49,-18.04l0.02 0.14c-192.35,-26.58 -376.6,-78.51 -549.29,-152.29l-4.75 19.59c129.69,-535.35 232.54,-943.67 232.54,-943.67l1127.91 0z"/>
       <path class="fil3" d="M3147.42 4678.56c-58.95,317.79 -118.44,635.58 -178.6,953.25l0.02 -0.09c-5.57,0.38 -11.16,0.72 -16.74,1.06l-0.02 0.11 -0 0c62.63,-318.83 127.12,-637.14 191.32,-955.58 0.56,-2.64 4.44,-1.39 4.03,1.25z"/>
      </g>
      <path class="fil5" d="M3328.67 4540.09c0,0 -0.14,0.69 -0.28,1.94 -0.14,0.42 -0.14,0.83 -0.28,1.39 -0.28,0.97 -0.41,2.22 -0.69,3.75 -0.14,0.83 -0.28,1.67 -0.42,2.5 -0.42,1.53 -0.69,3.33 -0.97,5.42 -0.28,1.25 -0.42,2.5 -0.69,3.89 -0.56,2.78 -1.11,5.83 -1.67,9.17 -0.97,5.28 -2.09,11.25 -3.2,17.92 -1.94,9.86 -3.89,21.11 -6.25,33.89 -0.7,3.61 -1.39,7.5 -2.09,11.53 -0.97,5.28 -1.94,10.83 -3.06,16.53 -1.11,6.25 -2.22,12.78 -3.47,19.58 -0.14,0.14 -0.14,0.28 -0.14,0.42 -0.83,4.72 -1.8,9.58 -2.64,14.58 -2.78,14.86 -5.56,30.69 -8.61,47.64 -0.14,0.42 -0.28,0.83 -0.28,1.25 -3.47,18.89 -7.08,38.89 -10.97,60.14 -1.11,5.56 -2.08,11.25 -3.06,16.94 -1.11,5.83 -2.22,11.67 -3.19,17.5 0,0.14 -0.14,0.28 0,0.42 -0.83,3.61 -1.39,7.36 -2.09,11.11 0,0.14 0,0.14 0,0.28 -5.41,29.44 -11.11,60.83 -17.08,93.89 -2.08,11.11 -4.03,22.36 -6.11,33.75 -4.17,22.22 -8.33,45 -12.5,68.47 -1.11,5.41 -2.08,10.83 -2.92,16.39 -6.39,34.17 -12.78,69.59 -19.3,106.11 -0.83,3.75 -1.39,7.5 -2.09,11.25 -3.19,17.22 -6.39,34.58 -9.44,52.36 -0.42,1.39 -0.7,2.78 -0.83,4.17 -1.53,8.33 -3.06,16.81 -4.58,25.28 -6.25,33.89 -12.5,68.61 -18.89,104.03 -1.67,8.75 -3.33,17.64 -4.86,26.67 -3.33,17.92 -6.53,35.97 -9.86,54.17 -4.17,22.64 -8.33,45.41 -12.5,68.61 -4.17,23.06 -8.47,46.39 -12.64,69.86 -2.22,11.81 -4.31,23.61 -6.53,35.42l-1.06 5.94 -9.29 1.33 -1.34 0.19 -2.76 0.39 -1.53 0.21 -9.03 1.23 -0.96 0.13 -7.82 1.03 -2.04 0.26 -2.81 0.36 -1.23 0.16 -3.26 0.41 -2.99 0.37c-3.98,0.5 -7.97,0.98 -11.96,1.45l-1.96 0.23 -3.07 0.36 -6.72 0.77 -1.16 0.13 -3.02 0.34 -8.16 0.89 -1.32 0.14 -3.96 0.42 -5.43 0.56 -2.16 0.22 -3.26 0.33 -3.63 0.36 -0.89 0.09c-5.74,0.56 -11.48,1.1 -17.23,1.61l-3.48 0.31c-7,0.61 -14.02,1.2 -21.03,1.75l-1.93 0.15 -8.81 0.67 -0.89 0.06 -9.52 0.68 0.02 -0.09c-5.57,0.38 -11.16,0.72 -16.74,1.06l-0.02 0.11c-7.51,0.46 -15.02,0.87 -22.55,1.26l-0.38 0.02c-28.9,1.45 -57.96,2.33 -87.15,2.62l-1.8 0.02 -3.34 0.03 -0.25 0 -1.24 0.01 -0.27 0 -6.7 0.04 -0.28 0 -0.72 0 -0.56 0 -0.43 0 -0.85 0 -0.14 0 -2.02 0 -2.96 0c-3.67,0 -7.34,-0.02 -11,-0.04l-5.8 -0.04 -6.55 -0.06c-27.19,-0.31 -54.26,-1.14 -81.2,-2.43l0 0.02c-65.3,-3.17 -129.82,-9.25 -193.49,-18.04l-44.81 -458.72 -1.67 -17.5 -1.94 -18.89 0 -0.14 -9.44 -96.53c0,0 0,0 0,-0.14l-8.2 -83.61 -39.17 -400.69 911.52 0z"/>
     </g>
     <g>
      <path class="fil3" d="M3830.81 5386.29l0.01 -0.15c-7.3,3.87 -14.58,7.78 -21.93,11.57l0 0.07c-207.78,107.22 -435.21,181.68 -675.47,216.58l0.02 -0.14 -9.29 1.33 -1.34 0.19 -2.76 0.39 -1.53 0.21 -9.03 1.23 -0.96 0.13 -7.82 1.03 -2.37 0.31 -2.12 0.27 -1.69 0.22 -2.91 0.37 -3.59 0.44 -11.51 1.4 -11.84 1.37 -0.84 0.09 -3.49 0.39 -7.71 0.84 -1.83 0.2 -3.57 0.38 -5.64 0.58 -2.14 0.22 -3.26 0.33 -3.63 0.36 -0.89 0.09 -4.21 0.41 -0.27 0.03 -4.82 0.46 -0.06 0 -7.52 0.69 -3.83 0.34 -2.17 0.19 -1.55 0.13c-4,0.35 -8,0.68 -12,1l-12.08 0.94 -3.93 0.3 -2.19 0.16 -2.33 0.17 -5.93 0.41 0.02 -0.09c-5.57,0.38 -11.16,0.72 -16.74,1.06l-0.02 0.11 -0.3 0.02 -1.31 0.08 -1.39 0.08 -1.74 0.1 -4.17 0.24 -1.8 0.1 -2.29 0.13 -2.71 0.15 -2.46 0.13 -0.85 0.04 -2.71 0.14 -0.06 0 -3.69 0.19 -1.24 0.06 -2.06 0.1 -3.19 0.15 -1.78 0.08 -1.79 0.08 -1.01 0.05 -2.24 0.09 -2.08 0.09 -3.99 0.16 -1.7 0.07 -1.32 0.05 -9.85 0.36 -0.08 0 -3.61 0.12 -1.3 0.04 -2.59 0.08 -0.39 0.01 -1.34 0.04 -1.04 0.03 -1.75 0.05 -0.09 0 -8.11 0.21 -6.57 0.15 -5.65 0.11 -1.82 0.04 -0.37 0.01 -6.97 0.11 -0.37 0 -0.68 0.01c-4.39,0.06 -8.78,0.11 -13.18,0.15l-0.06 0 -0.37 0 -0.13 0 -0.16 0 -1.07 0.01 -3.23 0.02 -0.17 0 -0.62 0 -0.09 0 -0.7 0 -0.01 0 -2.22 0.01 -0.2 0 -0.82 0 -0.17 0 -0.84 0 -0.15 0 -0.87 0 -0.13 0 -3.31 0 -2.67 0c-3.67,0 -7.34,-0.02 -11,-0.04l-5.8 -0.04 -6.55 -0.06c-27.19,-0.31 -54.26,-1.14 -81.2,-2.43l0 0.02c-2.13,-113.29 -4.41,-222.93 -7.19,-326.63l0 -0.14c-0.14,-2.64 -0.14,-5.28 -0.28,-7.92 0,0 -151.11,-89.44 -232.5,-159.58 -15.83,-13.47 -29.03,-26.39 -38.06,-37.78 0,-0.14 0,-0.14 -0.14,-0.28l-0.14 -0.14c-52.08,-66.39 -104.31,-321.67 -212.36,-561.8l1583.33 0c143.76,279.16 201.71,527.23 218.37,728.44 -63.07,42.58 -128.52,81.91 -196.08,117.76zm196.1 -117.51c0.36,4.38 0.7,8.73 1.02,13.07 -0.32,-4.33 -0.66,-8.69 -1.02,-13.07zm1.2 15.49c0.31,4.24 0.6,8.46 0.87,12.65 -0.27,-4.2 -0.56,-8.41 -0.87,-12.65zm1.04 15.28c0.72,11.34 1.31,22.53 1.78,33.55 -0.47,-11.02 -1.06,-22.21 -1.78,-33.55zm1.83 34.69c0.17,4.17 0.33,8.32 0.47,12.45 -0.14,-4.13 -0.3,-8.28 -0.47,-12.45zm0.54 14.75c0.14,4.23 0.26,8.43 0.36,12.6 -0.1,-4.17 -0.22,-8.38 -0.36,-12.6zm0.4 14.05c0.24,9.99 0.37,19.84 0.41,29.54 -0.04,-9.7 -0.18,-19.55 -0.41,-29.54zm0.43 33.18c0.01,3.68 0,7.33 -0.02,10.97 0.02,-3.64 0.02,-7.29 0.02,-10.97z"/>
      <g>
       <g>
        <path class="fil5" d="M2400.39 5085.2c77.04,31.5 146.28,80.02 214.67,126.77 71.03,48.56 136.15,104.66 204.5,156.74 2.63,2.01 0.15,6.33 -2.77,4.47 -72.03,-45.98 -147.46,-86.43 -218.69,-133.77 -69.18,-45.99 -141.12,-90.74 -201.18,-148.58 -2.37,-2.28 0.27,-6.93 3.46,-5.63z"/>
        <path class="fil5" d="M2390.67 4639.88c9.16,49.3 21.13,98.09 31.77,147.1 9.98,45.97 17.33,92.89 29.49,138.33 11.79,44.08 30.56,84.48 64.43,115.95 18.04,16.76 37.91,31.6 57.14,46.96 10.36,8.27 21.57,16.23 32.35,24.61 -1.41,-6.5 -2.54,-13.13 -3.71,-19.84 -3.28,-18.68 -6.44,-37.4 -9.59,-56.11 -6.97,-41.52 -13.61,-83.11 -19.98,-124.73 -12.5,-81.8 -24.02,-164.46 -41.09,-245.44 -0.7,-3.3 4.26,-4.56 5.1,-1.27 20.38,80.24 42.88,159.64 60.63,240.57 8.7,39.7 39.76,235.67 41.14,249.53 1.43,14.33 2.61,28.69 3.12,43.07 0.5,14.2 3.33,30.07 0.05,44 -0.84,3.58 -5.15,3 -6.67,0.58 -0.07,0.05 -0.13,0.1 -0.2,0.15 -7.13,-12.48 -8.91,-28.78 -12.46,-42.59 -3.59,-13.98 -6.76,-28.17 -9.27,-42.39 -0.91,-5.13 -1.63,-10.39 -2.35,-15.63 -19.3,-11.74 -37.27,-27.24 -55.31,-40.31 -19.45,-14.08 -39.26,-27.8 -57.65,-43.28 -35.23,-29.67 -57.26,-66.02 -70.38,-109.97 -13.62,-45.61 -17.82,-93.74 -23.09,-140.84 -6.22,-55.69 -10.78,-111.67 -18.55,-167.16 -0.46,-3.28 4.47,-4.64 5.1,-1.27z"/>
       </g>
       <path class="fil5" d="M3722.13 5039.74c-20.63,-10.8 -100.68,8.34 -246.41,-16.59 -28.12,-4.81 -56.12,-13.5 -78.65,-31.91 -37.98,-31.03 -66.72,-80.81 -89.69,-123.47 -25.23,-46.87 -50.82,-100.34 -62.76,-152.43 -0.73,-3.2 -5.38,-1.67 -4.82,1.46 5.41,30.17 8.43,60.27 16.39,90.11 7.48,28.06 18.31,55.35 30.11,81.83 22.02,49.46 47.75,102.54 92.09,135.95 46.52,35.05 111.41,41.59 167.77,45.52 32.61,2.27 160.48,-1.17 177.66,-19.43 3.05,-3.24 2.36,-8.91 -1.7,-11.03z"/>
      </g>
      <path class="fil5" d="M3666.03 4612.59c14.69,41.81 29,83.57 40.89,126.11 12.74,42.23 23.88,84.88 34.72,127.54 20.86,85.53 37.71,171.91 49.36,258.93 12.96,86.91 17.37,174.74 18.06,262.5l-0.17 10.05c7.35,-3.79 14.63,-7.69 21.93,-11.57 3.63,-88.3 0.25,-177.15 -12.3,-264.69 -12.37,-88.23 -30.65,-175.61 -56.03,-260.87 -25.23,-85.23 -56.61,-168.78 -96.46,-248z"/>
     </g>
    </g>
    <path class="fil6" d="M2289.91 2603.49c-542.16,466.54 -929.49,870.61 -929.24,1058.8 0.54,421.66 220.41,518.26 260.29,505.84 421.53,-131.2 707.39,-920.1 895.3,-1396.28 186.54,-472.73 -71.07,-301.97 -226.34,-168.35z"/>
    <path class="fil2" d="M1520.27 3268.26l658.69 373.48c0,0 287.02,-586.56 388.63,-938.97 101.61,-352.41 -40.9,-344.7 -358.83,-74.9 -317.94,269.8 -688.48,640.39 -688.48,640.39z"/>
    <path class="fil7" d="M2262.41 2672.96c-8.2,-16.94 -17.09,-33.47 -29.44,-48.33 -1.11,-1.25 -2.22,-2.5 -3.33,-3.75 0.28,1.94 0.56,3.89 0.97,5.7 3.19,18.89 9.72,36.11 17.22,53.06 8.75,18.33 18.61,36.25 32.78,52.08 -2.92,-20.97 -10,-40.14 -18.19,-58.75zm-310.96 228.94l0 0c-18.33,8.75 -36.25,18.47 -52.08,32.64 20.97,-2.78 40.14,-10 58.75,-18.2 18.33,-8.75 36.25,-18.47 52.09,-32.64 -21.11,2.78 -40.14,10 -58.75,18.19zm627.64 -321.94l0 0c5.7,-0.7 11.39,-1.81 16.81,-3.33 0.56,-3.61 0.97,-7.08 1.39,-10.56 -6.25,4.17 -12.36,8.75 -18.2,13.89zm-548.06 746.38l0 0c-6.8,19.17 -12.5,38.75 -13.75,60 12.92,-16.8 21.39,-35.41 28.61,-54.44 6.81,-19.17 12.5,-38.75 13.89,-59.86 -12.92,16.8 -21.39,35.42 -28.75,54.3zm452.92 -479.72l0 0c-6.8,19.17 -12.5,38.75 -13.75,60 12.91,-16.81 21.39,-35.42 28.61,-54.44 6.8,-19.17 12.5,-38.75 13.89,-59.86 -12.92,16.81 -21.39,35.42 -28.75,54.31zm-776.25 415.28l0 0c-19.17,-6.81 -38.75,-12.5 -60,-13.75 16.94,12.92 35.41,21.25 54.44,28.61 19.17,6.81 38.75,12.5 60,13.75 -16.94,-12.78 -35.56,-21.25 -54.44,-28.61zm545.69 -202.36l0 0c-19.17,-6.81 -38.75,-12.5 -60,-13.75 16.94,12.92 35.42,21.25 54.44,28.61 19.17,6.8 38.75,12.5 60,13.75 -16.94,-12.78 -35.56,-21.25 -54.44,-28.61zm29.86 71.11l0 0c0,0.42 -0.14,0.97 -0.14,1.39 0.83,0.14 1.67,0.28 2.5,0.28 -0.83,-0.56 -1.53,-1.25 -2.36,-1.67z"/>
    <path class="fil5" d="M1658.99 3168.77c253.39,178.07 499.94,295.33 549.23,324.9 2.33,1.4 4.32,-2.51 1.89,-3.8 -49.87,-26.48 -319.82,-201.29 -549.04,-325.28 -2.65,-1.43 -4.52,2.47 -2.08,4.18z"/>
    <path class="fil8" d="M1999.04 3539.81l179.86 101.94c0,0 287.08,-586.53 388.75,-939.02 37.36,-129.86 41.67,-210.83 16.25,-247.78l-584.86 1084.85z"/>
    <path class="fil2" d="M2081.75 4806.3l1873.61 0c0,0 -286.23,-1787.8 -976.82,-2399.11 -85.34,-75.55 -277.87,-58.39 -403.48,4.04 -44.87,22.3 -205.86,247.54 -251.81,460.51 -45.61,212.74 -246.53,1928.21 -241.49,1934.57z"/>
    <path class="fil7" d="M3134.96 2909.12c16.94,12.92 35.55,21.25 54.44,28.61 19.17,6.81 38.75,12.5 60,13.75 -16.94,-12.92 -35.42,-21.25 -54.44,-28.61 -19.17,-6.8 -38.75,-12.5 -60,-13.75zm-851.8 222.91l0 0c0.83,0.14 1.67,0.28 2.5,0.28 -0.83,-0.56 -1.53,-1.25 -2.36,-1.67 0,0.42 -0.14,0.97 -0.14,1.39zm427.08 266.8l0 0c16.94,12.92 35.42,21.25 54.44,28.61 19.17,6.8 38.75,12.5 60,13.75 -16.94,-12.78 -35.56,-21.25 -54.44,-28.61 -19.17,-6.81 -38.75,-12.5 -60,-13.75zm254.58 776.39l0 0c16.94,12.92 35.56,21.39 54.44,28.75 19.17,6.8 38.75,12.5 60,13.75 -16.94,-12.92 -35.42,-21.39 -54.44,-28.75 -19.17,-6.81 -38.75,-12.5 -60,-13.75zm428.75 -541.25l0 0c16.94,12.92 35.56,21.25 54.44,28.61 19.17,6.81 38.75,12.5 60,13.75 -16.94,-12.78 -35.56,-21.25 -54.44,-28.61 -19.17,-6.8 -38.75,-12.5 -60,-13.75zm384.44 1079.58l0 0c16.94,12.92 35.42,21.39 54.44,28.75 19.17,6.81 38.75,12.5 60,13.75 -16.94,-12.92 -35.56,-21.25 -54.44,-28.61 -19.17,-6.81 -38.75,-12.64 -60,-13.89zm-827.64 -67.64l0 0c16.94,12.91 35.42,21.39 54.44,28.75 19.17,6.81 38.75,12.5 60,13.75 -16.94,-12.92 -35.56,-21.25 -54.44,-28.61 -19.17,-6.94 -38.75,-12.64 -60,-13.89zm-863.33 100.14l0 0c11.25,6.25 22.92,11.25 34.72,15.83 19.31,6.8 38.75,12.5 60,13.75 -16.94,-12.78 -35.42,-21.25 -54.44,-28.61 -12.78,-4.58 -25.56,-8.61 -39.03,-11.11 -0.56,3.47 -0.83,6.94 -1.25,10.14zm328.61 -591.94l0 0c16.94,12.92 35.42,21.25 54.44,28.61 19.17,6.81 38.75,12.5 60,13.75 -16.94,-12.92 -35.56,-21.25 -54.44,-28.61 -19.17,-6.8 -38.75,-12.64 -60,-13.75zm572.5 -1460.55l0 0c12.92,-16.94 21.25,-35.42 28.61,-54.44 6.81,-19.17 12.5,-38.75 13.75,-60 -12.92,16.94 -21.25,35.56 -28.61,54.44 -6.8,19.17 -12.64,38.75 -13.75,60zm412.36 2096.94l0 0c12.92,-16.94 21.25,-35.56 28.61,-54.44 6.8,-19.17 12.5,-38.75 13.75,-60 -12.92,16.94 -21.25,35.42 -28.61,54.44 -6.81,19.17 -12.64,38.75 -13.75,60zm82.22 -522.08l0 0c12.92,-16.81 21.39,-35.42 28.75,-54.44 6.81,-19.17 12.5,-38.75 13.75,-59.86 -12.92,16.81 -21.39,35.42 -28.75,54.31 -6.8,19.17 -12.5,38.75 -13.75,60zm-712.91 -310.28l0 0c12.92,-16.94 21.25,-35.56 28.61,-54.44 6.8,-19.17 12.5,-38.75 13.75,-60 -12.78,16.94 -21.25,35.42 -28.61,54.44 -6.81,19.17 -12.5,38.75 -13.75,60zm252.22 -669.31l0 0c12.92,-16.94 21.39,-35.41 28.75,-54.44 6.81,-19.17 12.5,-38.75 13.75,-60 -12.92,16.94 -21.39,35.56 -28.75,54.44 -6.8,19.17 -12.5,38.75 -13.75,60zm-358.61 1517.5l0 0 16.67 0c5.28,-16.11 9.3,-32.64 10.42,-50.41 -11.81,15.69 -20,32.78 -27.08,50.41zm-517.64 -379.3l0 0c12.92,-16.81 21.39,-35.42 28.75,-54.44 6.67,-19.17 12.5,-38.75 13.75,-59.86 -12.92,16.81 -21.39,35.42 -28.75,54.44 -6.81,19.17 -12.5,38.61 -13.75,59.86zm324.44 -1520.41l0 0c12.92,-16.81 21.39,-35.42 28.61,-54.44 6.81,-19.17 12.5,-38.75 13.89,-59.86 -12.92,16.81 -21.39,35.42 -28.75,54.31 -6.81,19.17 -12.5,38.75 -13.75,60zm108.89 -326.67l0 0c20.97,-2.78 40.14,-10 58.75,-18.2 18.33,-8.75 36.25,-18.47 52.09,-32.64 -21.11,2.78 -40.14,10 -58.75,18.19 -18.33,8.75 -36.25,18.61 -52.08,32.64zm613.05 1403.61l0 0c21.11,-2.92 40.14,-10 58.75,-18.2 18.47,-8.75 36.25,-18.61 52.22,-32.78 -21.11,2.92 -40.28,10 -58.75,18.33 -18.47,8.75 -36.25,18.47 -52.22,32.64zm484.72 488.19l0 0c20.97,-2.78 40.14,-10 58.75,-18.19 18.33,-8.75 36.25,-18.47 52.08,-32.64 -21.11,2.78 -40.14,10 -58.75,18.19 -18.33,8.75 -36.25,18.47 -52.08,32.64zm-1266.94 121.67l0 0c20.97,-2.78 40.14,-10 58.75,-18.2 18.33,-8.75 36.25,-18.47 52.08,-32.64 -21.11,2.78 -40.14,10 -58.75,18.19 -18.33,8.75 -36.25,18.61 -52.08,32.64zm40.28 -774.17l0 0c21.11,-2.92 40.14,-10.14 58.75,-18.33 18.33,-8.61 36.25,-18.47 52.08,-32.64 -20.97,2.78 -40.14,10 -58.75,18.2 -18.33,8.75 -36.25,18.61 -52.08,32.78zm128.89 -657.36l0 0c20.97,-2.78 40.14,-10 58.75,-18.2 18.33,-8.75 36.25,-18.47 52.09,-32.64 -21.11,2.78 -40.14,10 -58.75,18.19 -18.33,8.75 -36.25,18.47 -52.08,32.64zm791.66 97.22l0 0c2.78,21.11 10,40.14 18.19,58.75 8.75,18.47 18.47,36.25 32.64,52.22 -2.78,-21.11 -10,-40.28 -18.2,-58.75 -8.75,-18.47 -18.47,-36.25 -32.64,-52.22zm-622.35 1079.03l0 0c2.91,21.11 10,40.14 18.19,58.75 8.75,18.33 18.61,36.25 32.78,52.08 -2.91,-20.97 -10,-40.14 -18.33,-58.75 -8.75,-18.33 -18.47,-36.11 -32.64,-52.08zm-380.97 -952.36l0 0c2.78,21.11 10,40.14 18.19,58.75 8.75,18.33 18.47,36.25 32.64,52.22 -2.78,-21.11 -10,-40.28 -18.19,-58.89 -8.75,-18.33 -18.47,-36.11 -32.64,-52.08zm851.66 1007.78l0 0c2.78,21.11 10,40.14 18.19,58.75 8.75,18.47 18.47,36.25 32.64,52.22 -2.78,-21.11 -10,-40.14 -18.19,-58.75 -8.75,-18.47 -18.61,-36.25 -32.64,-52.22zm487.78 -521.53l0 0c2.78,21.11 10,40.14 18.2,58.75 8.75,18.33 18.47,36.25 32.64,52.22 -2.78,-21.11 -10,-40.28 -18.2,-58.89 -8.75,-18.33 -18.61,-36.11 -32.64,-52.08zm-663.61 -291.25l0 0c2.92,21.11 10,40.14 18.2,58.75 8.75,18.33 18.61,36.25 32.64,52.22 -2.78,-21.11 -9.86,-40.28 -18.19,-58.89 -8.75,-18.33 -18.47,-36.11 -32.64,-52.08zm-244.16 -761.39l0 0c2.92,21.11 10,40.14 18.19,58.75 8.75,18.33 18.61,36.25 32.78,52.08 -2.92,-20.97 -10,-40.14 -18.2,-58.75 -8.89,-18.33 -18.61,-36.25 -32.78,-52.09z"/>
    <path class="fil6" d="M3219.65 2555.4c575.85,424.26 992.58,797.93 1006.55,985.59 31.3,420.5 -180.64,533.43 -221.35,524.06 -430.24,-98.99 -774.86,-864.05 -998.19,-1324.68 -221.7,-457.29 48.06,-306.48 212.98,-184.97z"/>
    <path class="fil2" d="M4037.3 3160.15l-628.61 422.16c0,0 -330.49,-563.2 -458.43,-906.94 -127.93,-343.73 14.76,-346.8 352.16,-101.78 337.41,245.02 734.88,586.56 734.88,586.56z"/>
    <path class="fil7" d="M3194.93 2922.87c-19.17,-6.8 -38.75,-12.5 -60,-13.75 16.94,12.92 35.56,21.25 54.44,28.61 19.17,6.81 38.75,12.5 60,13.75 -16.94,-12.92 -35.42,-21.25 -54.44,-28.61zm-193.06 -289.3l0 0c-6.81,19.17 -12.64,38.75 -13.75,60 12.91,-16.94 21.25,-35.42 28.61,-54.44 6.8,-19.17 12.5,-38.75 13.75,-60 -12.92,16.94 -21.25,35.56 -28.61,54.44zm883.19 538.05l0 0c-6.8,19.17 -12.64,38.75 -13.75,60 12.92,-16.94 21.25,-35.42 28.61,-54.44 6.81,-19.17 12.5,-38.75 13.75,-60 -12.92,16.94 -21.25,35.56 -28.61,54.44zm-489.03 -528.89l0 0c-2.64,5.83 -5.14,11.67 -7.36,17.5 -6.81,19.17 -12.5,38.75 -13.75,60 12.92,-16.94 21.39,-35.42 28.75,-54.44 1.67,-4.58 3.19,-9.17 4.58,-13.75 -4.03,-3.2 -8.2,-6.25 -12.22,-9.31zm186.39 362.5l0 0c-18.33,8.75 -36.25,18.47 -52.08,32.63 20.97,-2.78 40.14,-10 58.75,-18.19 18.33,-8.74 36.25,-18.47 52.09,-32.63 -21.11,2.78 -40.14,10 -58.75,18.19zm-179.03 306.11l0 0c-8.75,-18.47 -18.47,-36.25 -32.64,-52.22 2.78,21.11 10,40.14 18.19,58.75 8.75,18.47 18.47,36.25 32.64,52.22 -2.78,-21.11 -10,-40.28 -18.19,-58.75z"/>
    <path class="fil5" d="M3891.46 3071.41c-239.22,196.7 -476.21,332.25 -523.12,365.45 -2.22,1.57 -4.5,-2.17 -2.17,-3.65 47.72,-30.17 303.7,-224.87 522.9,-365.81 2.54,-1.63 4.69,2.12 2.39,4.01z"/>
    <path class="fil5" d="M3448.97 3553.46c-4.27,0.72 -32.44,17.13 -38.26,20.67 -72.63,-120.74 -58.97,-92.83 -132.71,-212.89 -36.14,-58.84 -72.37,-117.63 -108.41,-176.54 -37.46,-61.26 -71.74,-125.41 -112.52,-184.51 -1.2,-1.74 -3.58,-0.22 -2.77,1.65 25.52,58.8 58.26,115.09 89.5,171.24 -6.64,-8.57 -12.96,-17.37 -20.1,-25.58 -15.96,-18.41 -31.63,-36.83 -46.1,-56.44 -2.22,-3 -7.28,-0.04 -5.04,3 13.81,18.72 26.2,38.11 38.54,57.83 12.35,19.74 25.76,38.45 39.45,57.29 13.2,18.15 27.58,35.28 42.03,52.43 1.76,2.09 3.51,4.23 5.26,6.34 19.94,35.11 39.43,70.48 60.18,105.17 72.66,121.45 145.29,215.74 147.46,215 8.57,-2.94 42.16,-28.4 45.5,-31.26 1.73,-1.48 -0.24,-3.72 -2.02,-3.41z"/>
    <g>
     <path class="fil6" d="M3938.61 4024.82c-74.74,-174.95 -139.6,-414.69 128.56,-1119.64 37.11,-97.55 795.98,-20.88 761.71,85.33 -43.17,133.78 -239.68,643.57 -258.76,679.04 -160.91,299.13 -580.81,473.96 -631.52,355.28z"/>
     <path class="fil5" d="M3890.92 3881.78c-5.25,-57.1 -6.43,-114.1 -6.12,-170.95 0.07,-28.43 1.11,-56.83 2.33,-85.21 1.3,-27.97 5.06,-56.09 8.94,-84.22 8.26,-56.22 18.63,-112.32 29.78,-168.27 11.39,-55.91 23.29,-111.75 37.92,-167.16 -21.61,53.13 -38.4,108.21 -52.81,163.74 -14.38,55.57 -26.38,111.77 -35.13,168.69 -4.44,28.44 -8.06,57.15 -9.02,86.37 -1.19,28.78 -0.72,57.61 0.28,86.38 2.63,57.47 9.31,115.01 23.82,170.63z"/>
     <g>
      <path class="fil6" d="M4228.46 2615.75c-112.09,95.82 -196.07,376.37 -196.07,376.37l726.28 194.3c0,0 99.64,-216.65 198.81,-295.51 28.8,-22.9 174.71,-149.01 324.06,-262.28 169.52,-128.58 330.84,-285.04 335.42,-310.3 8.8,-48.59 -64,-87.32 -198.56,-27.71 -134.61,59.46 -376.82,221.12 -393.91,227 -2.14,0.73 -8.35,1.5 -17.93,2.41 0,0 0,0 -0.21,-0.1 -7.87,-1.56 -163.12,-141.41 -255.53,-121.64 -94.21,20.16 -508.88,194.23 -522.37,217.46z"/>
      <g>
       <path class="fil6" d="M4825.78 2723.72c0,0 351.16,-71.87 402.51,-125.97 51.35,-54.1 409.21,-331.85 419.02,-380.27 9.81,-48.43 -64.08,-87.29 -198.64,-27.74 -134.56,59.55 -376.7,221.16 -393.9,227.08 -17.19,5.92 -332.6,18.02 -361.34,27.91 -28.74,9.89 132.35,278.99 132.35,278.99z"/>
       <path class="fil5" d="M5029.27 2711.27c35.81,-16.17 70.88,-33.8 106.09,-51.28 17.47,-8.99 34.81,-18.23 52.05,-27.79 8.61,-4.81 17.21,-9.63 25.73,-14.81 4.28,-2.46 8.52,-5.35 12.78,-8.1 4.4,-3.12 8.85,-6.73 12.17,-9.7 59.85,-50.19 119.87,-101 179.42,-151.96 59.37,-51.45 118.68,-102.18 177.04,-155.5 14.37,-14 27.85,-29.15 38.65,-46.55 5.35,-8.7 10.04,-18.02 12.92,-28.23 2.78,-10.08 4.04,-21.63 -0.26,-32.35 -4.19,-10.7 -13.58,-18.39 -23.19,-22.21 -9.71,-4.04 -19.86,-5.6 -29.84,-6.18 -20.04,-1.2 -39.68,2.02 -58.83,6.21 19.49,-1.97 39.21,-3.22 58.3,-0.69 9.49,1.3 18.87,3.61 27,7.8 8.17,4.07 14.56,10.67 16.92,18.58 5,16.19 -3.78,34.78 -14.09,49.89 -10.68,15.48 -24.14,29.25 -38.48,41.91 -59.95,49.7 -120.25,100.54 -179.71,151.51 -59.3,51.46 -118.69,102.42 -176.5,156.02 -12.85,12.87 -30.35,22.55 -46.61,33.11 -16.57,10.33 -33.5,20.19 -50.32,30.22l-101.22 60.1z"/>
      </g>
      <g>
       <path class="fil6" d="M4756.59 2681.68c0,0 384.6,-80.3 435.94,-134.39 51.35,-54.11 409.21,-331.86 419.02,-380.28 9.81,-48.42 -64.07,-87.29 -198.64,-27.74 -134.57,59.55 -376.7,221.16 -393.9,227.07 -17.19,5.92 -320.49,49.26 -349.23,59.15 -28.74,9.89 86.8,256.19 86.8,256.19z"/>
       <path class="fil5" d="M4957.97 2693.67c42.98,-21.8 85.06,-45.21 127.17,-68.69 20.85,-12.1 41.61,-24.35 62.18,-37.06 10.28,-6.36 20.49,-12.88 30.61,-19.72 9.98,-6.67 20.5,-15.06 29.07,-22.79 72.92,-62.6 145.76,-125.61 218.07,-189.09l107.95 -95.92 26.76 -24.31c8.77,-7.98 18.2,-16.54 26.41,-26.12 8.22,-9.55 15.72,-19.96 21.43,-31.69 5.43,-11.69 9.99,-25.19 7.2,-40.06 -1.4,-7.31 -5.23,-14.44 -10.56,-19.63 -5.28,-5.35 -11.73,-8.45 -17.99,-10.86 -12.72,-4.5 -25.51,-5.48 -37.96,-5.45 -24.93,0.35 -49.07,4.59 -72.65,10.3 -47.44,11.49 -92.02,32.26 -132.12,58.84 42.43,-22.56 87.26,-41.09 134.24,-49.01 23.38,-4.43 47.11,-7.77 70.34,-7.11 11.53,0.38 23.06,1.92 32.93,5.89 9.99,3.91 16.98,10.87 18.18,19.93 1.49,9.12 -1.96,19.76 -7.04,29.41 -5.32,9.66 -11.93,18.97 -19.63,27.43 -15.26,16.57 -34.8,31.8 -52.55,47.76l-108.68 94.94c-72.21,63.65 -144.46,127.13 -215.43,192.37 -9.02,8.7 -17.06,15.66 -26.78,22.84 -9.53,7.04 -19.33,13.89 -29.24,20.61 -19.84,13.43 -40,26.5 -60.26,39.41l-121.66 77.75z"/>
      </g>
      <g>
       <path class="fil6" d="M4761.87 2693.04c0,0 317.65,-147.8 365.45,-198.17 47.8,-50.36 304.01,-224.72 313.14,-269.8 9.13,-45.07 -59.65,-81.25 -184.91,-25.82 -125.27,55.43 -273.76,121.68 -289.76,127.19 -16.01,5.51 -269.25,89.83 -296,99.04 -26.76,9.21 92.07,267.56 92.07,267.56z"/>
       <path class="fil5" d="M4858.71 2679.85c54.46,-29.65 108.39,-60.19 162.46,-90.52 27.06,-15.13 53.96,-30.52 80.74,-46.18l20.08 -11.82c6.72,-3.84 13.69,-8.75 19.77,-13.4 12.55,-9.44 24.59,-19.26 36.59,-29.17 47.71,-39.87 94.47,-80.7 139.78,-123.2 22.67,-21.23 45.17,-42.65 67.21,-64.63 11.03,-10.99 21.96,-22.1 32.65,-33.57 10.67,-11.71 21.22,-22.64 30.85,-37.32 4.54,-7.71 8.63,-18.31 5.71,-29.56 -2.75,-11.19 -10.95,-18.78 -18.5,-23.55 -15.67,-9.64 -32.2,-12.87 -48.46,-14.81 -32.43,-3.15 -65.74,0.59 -96,13.08 -57.77,23.57 -114.39,48.35 -171.35,72.99 -56.55,24.65 -114.3,49.82 -169.56,74.96 -28.5,11.25 -57.84,21.74 -86.9,32.4 -28.98,11.06 -58.01,22 -86.7,33.97 60.47,-14.72 119.91,-31.34 179.59,-49.87l171.19 -73.74c56.98,-24.12 114.13,-48.56 171.31,-71.36 27.11,-11.16 57.18,-14.94 86.33,-12.31 14.35,1.46 29.04,4.74 39.89,11.45 11.25,7.13 13.32,14.96 6.73,26.35 -7.27,11.34 -18.01,23.17 -28.16,34.35 -10.35,11.29 -21.06,22.37 -31.89,33.33 -21.66,21.95 -43.87,43.46 -66.26,64.77 -45.02,42.36 -89.95,84.99 -136.57,125.53 -11.64,10.12 -23.38,20.17 -35.36,29.66 -11.64,9.67 -24.78,16.99 -38.02,25.39l-79.1 48.79 -158.05 97.98z"/>
      </g>
     </g>
    </g>
    <g>
     <path class="fil6" d="M1649.48 4135.54c83.86,-170.76 161.28,-406.75 -69.3,-1124.87 -31.91,-99.37 -793.77,-62.85 -765.15,45.01 36.05,135.87 205.38,655.32 222.56,691.74 144.9,307.21 555,503.95 611.89,388.11z"/>
     <path class="fil5" d="M1704.66 3995.22c17.43,-54.78 27.13,-111.89 32.8,-169.14 2.52,-28.67 4.51,-57.44 4.84,-86.24 0.58,-29.23 -1.52,-58.09 -4.45,-86.73 -5.73,-57.31 -14.75,-114.06 -26.18,-170.31 -11.45,-56.21 -25.31,-112.09 -44.09,-166.3 11.68,56.11 20.62,112.49 29.04,168.93 8.18,56.46 15.59,113.02 20.86,169.61 2.4,28.3 4.67,56.58 4.49,84.58 -0.28,28.4 -0.74,56.81 -2.17,85.21 -2.7,56.79 -6.88,113.65 -15.14,170.39z"/>
     <g>
      <path class="fil6" d="M1475.19 2701.99c91.69,115.49 123.4,366.16 123.4,366.16l-752.98 92.55c0,0 -56.36,-231.71 -138.61,-328.08 -23.89,-27.99 -142.98,-179.68 -267.91,-319.43 -141.8,-158.63 -270.21,-343.06 -269.87,-368.73 0.66,-49.38 79.52,-73.47 200.19,10.78 120.75,84.11 327.57,289.12 343.22,298.15 1.96,1.13 7.91,3.08 17.14,5.8 0,0 0,0 0.22,-0.06 8.02,-0.02 187.15,-107.61 274.08,-70.52 88.62,37.81 462.33,287.98 471.13,313.36z"/>
      <g>
       <path class="fil6" d="M868.24 2693.71c0,0 -330.93,-137.71 -370.98,-200.64 -40.05,-62.92 -338.19,-404 -338.55,-453.4 -0.36,-49.41 79.59,-73.43 200.28,10.76 120.69,84.19 327.44,289.13 343.19,298.23 15.74,9.09 323.01,81.31 349.33,96.52 26.32,15.2 -183.28,248.52 -183.28,248.52z"/>
       <path class="fil5" d="M670.89 2642.56c-32.06,-22.72 -63.11,-46.73 -94.32,-70.63 -15.43,-12.17 -30.68,-24.55 -45.77,-37.24 -7.54,-6.37 -15.05,-12.74 -22.43,-19.46 -3.72,-3.24 -7.33,-6.89 -10.99,-10.39 -3.72,-3.91 -7.4,-8.3 -10.09,-11.85 -49.14,-60.71 -98.34,-122.07 -147.04,-183.47 -48.44,-61.86 -96.94,-122.99 -144.03,-186.49 -11.43,-16.49 -21.77,-33.93 -29.04,-53.08 -3.59,-9.57 -6.41,-19.61 -7.28,-30.19 -0.8,-10.43 0.18,-22 6.45,-31.7 6.15,-9.7 16.84,-15.46 27.01,-17.36 10.31,-2.11 20.56,-1.7 30.47,-0.35 19.9,2.65 38.56,9.57 56.56,17.34 -18.76,-5.66 -37.87,-10.66 -57.09,-11.83 -9.56,-0.54 -19.21,-0.06 -27.99,2.5 -8.8,2.43 -16.33,7.69 -20.16,15 -8,14.94 -2.94,34.85 4.3,51.66 7.52,17.24 18.1,33.33 29.75,48.5 49.34,60.25 98.8,121.68 147.42,183.08 48.36,61.85 96.91,123.24 143.4,186.9 10.15,15.09 25.48,27.94 39.42,41.42 14.28,13.3 29.02,26.22 43.61,39.28l87.85 78.35z"/>
      </g>
      <g>
       <path class="fil6" d="M944.19 2665.68c0,0 -362.14,-152.38 -402.19,-215.3 -40.05,-62.93 -338.18,-404 -338.55,-453.41 -0.37,-49.4 79.59,-73.42 200.28,10.77 120.69,84.19 327.44,289.13 343.19,298.23 15.74,9.1 305.15,109.65 331.47,124.85 26.32,15.21 -134.2,234.86 -134.2,234.86z"/>
       <path class="fil5" d="M744.24 2638.92c-38.01,-29.61 -74.83,-60.65 -111.68,-91.74 -18.15,-15.86 -36.19,-31.86 -53.94,-48.26 -8.87,-8.22 -17.65,-16.57 -26.27,-25.22 -8.52,-8.46 -17.23,-18.7 -24.17,-27.93 -59.61,-75.39 -119.05,-151.17 -177.88,-227.31l-87.61 -114.8 -21.61 -28.98c-7.08,-9.52 -14.7,-19.72 -20.93,-30.7 -6.24,-10.94 -11.61,-22.59 -14.98,-35.2 -3.09,-12.51 -4.99,-26.63 0.59,-40.7 2.77,-6.91 7.89,-13.17 14.11,-17.24 6.2,-4.24 13.13,-6.06 19.73,-7.22 13.34,-1.98 26.09,-0.5 38.3,1.91 24.41,5.11 47.28,13.89 69.34,24 44.36,20.35 84.15,49.27 118.43,83.03 -37.33,-30.26 -77.8,-57.02 -122.39,-73.78 -22.1,-8.82 -44.75,-16.63 -67.69,-20.43 -11.39,-1.83 -23,-2.52 -33.45,-0.52 -10.56,1.93 -18.74,7.43 -21.65,16.09 -3.2,8.67 -1.85,19.78 1.28,30.22 3.37,10.5 8.09,20.9 14.02,30.69 11.8,19.18 28.07,37.87 42.44,56.93l88.51 113.98c58.7,76.28 117.48,152.41 174.66,230.02 7.19,10.26 13.75,18.63 21.91,27.54 8.01,8.74 16.31,17.33 24.76,25.83 16.9,16.98 34.19,33.66 51.61,50.22l104.54 99.58z"/>
      </g>
      <g>
       <path class="fil6" d="M936.84 2675.82c0,0 -283.52,-205.83 -320.8,-264.41 -37.28,-58.57 -255.42,-278.72 -255.76,-324.71 -0.34,-45.99 74.09,-68.34 186.44,10.02 112.35,78.37 245.42,171.8 260.07,180.26 14.66,8.47 247.1,139.67 271.59,153.83 24.5,14.16 -141.55,245 -141.55,245z"/>
       <path class="fil5" d="M844.31 2644.35c-47.78,-39.52 -94.88,-79.81 -142.15,-119.92 -23.67,-20.02 -47.12,-40.28 -70.42,-60.77l-17.45 -15.45c-5.87,-5.06 -11.76,-11.21 -16.85,-16.93 -10.51,-11.67 -20.46,-23.61 -30.33,-35.63 -39.2,-48.26 -77.29,-97.28 -113.63,-147.66 -18.19,-25.18 -36.18,-50.5 -53.61,-76.3 -8.72,-12.9 -17.32,-25.89 -25.62,-39.19 -8.24,-13.54 -16.5,-26.28 -23.14,-42.54 -2.98,-8.44 -4.97,-19.63 0.05,-30.11 4.83,-10.45 14.33,-16.33 22.66,-19.57 17.22,-6.46 34.07,-6.47 50.4,-5.27 32.43,3.12 64.41,13.15 91.73,31.2 52.2,34.19 103.03,69.34 154.22,104.42 50.8,35.01 102.65,70.76 152.1,106.01 25.82,16.5 52.61,32.4 79.09,48.42 26.33,16.4 52.74,32.69 78.61,49.93 -56.54,-26.01 -111.7,-53.69 -166.74,-83.3l-153.92 -105.13c-51.32,-34.57 -102.73,-69.49 -154.5,-102.8 -24.47,-16.14 -53.26,-25.61 -82.39,-28.59 -14.36,-1.32 -29.41,-0.91 -41.35,3.61 -12.41,4.84 -15.94,12.14 -11.64,24.57 4.96,12.53 13.24,26.19 21.06,39.11 8,13.06 16.39,25.98 24.93,38.82 17.06,25.69 34.74,51.05 52.65,76.25 36.09,50.19 72.03,100.63 110.04,149.33 9.49,12.16 19.09,24.28 29.04,35.88 9.58,11.72 21.07,21.41 32.46,32.2l68.31 63.02 136.39 126.41z"/>
      </g>
     </g>
    </g>
    <path class="fil5" d="M3026.54 2507.66c-54.27,98.3 -132.76,184.19 -225.17,240.11 -46.72,28.28 -97.8,50.22 -151.18,52.77 -27.22,1.3 -57.42,-1.63 -80.8,-17.09 -22.75,-15.04 -39.87,-39.05 -52.45,-64.21 -14.15,-28.32 -23.39,-59.86 -28.76,-91.7 -6.01,-35.68 -9.89,-72.39 -10.94,-108.8 -0.04,-1.39 -2.02,-1.09 -1.98,0.3 0.99,34.54 -0.71,69.18 2.79,103.55 3.11,30.5 8.62,60.72 19.24,89.02 10.22,27.26 25.24,52.92 45.22,72.78 21.82,21.69 48.78,31.53 78.28,34.17 56.47,5.05 113.2,-13.07 163.95,-40.83 49.04,-26.82 95.43,-63.41 134.8,-105.18 44.6,-47.32 82.15,-103.1 109.98,-163.5 0.98,-2.13 -1.92,-3.33 -2.99,-1.39z"/>
    <g>
     <g>
      <path class="fil6" d="M2602.68 2723.85c106.95,29.86 298.91,-127.69 377.48,-258.46 5.33,-9 -4.84,-106.19 -11.61,-224.87 -3.83,-72.04 -6.39,-152.35 -3.44,-225.79 0.68,-15.08 -465.15,93.4 -465.15,93.4 0,0 39.1,155.78 33.17,283.8 -0.61,10.69 -2.07,20.6 -4.37,30.01 -0.21,1.37 -0.69,3.04 -0.87,4.96 -11.63,56.88 -28.55,268.01 74.8,296.95z"/>
      <path class="fil5" d="M2575.08 2431.26c-17.26,-0.29 -32.85,-1.67 -47.16,-4.4 0.21,-1.94 0.63,-3.52 0.86,-4.98 2.33,-9.35 3.74,-19.26 4.29,-30 5.91,-127.91 -33.09,-283.71 -33.09,-283.71 0,0 378.1,-88.09 452.53,-94.55 -17.64,84.3 -105.51,422.54 -377.44,417.64z"/>
     </g>
     <g>
      <path class="fil6" d="M3069.93 1495.46c31.03,168.07 -108.28,627.48 -235.74,718.9 -184.78,132.55 -460.62,115.76 -566.49,-100.26 -102.64,-209.39 89.51,-804.88 229.39,-885.22 206.04,-118.33 527,18.3 572.83,266.57z"/>
      <g>
       <g>
        <path class="fil5" d="M2646.61 1705.56c0.63,-1.09 1.92,2.25 1.46,3.5 -11.13,30.37 -18.76,67.04 5.64,86.42 0.75,0.59 0.15,2.11 -0.83,1.63 -32.31,-15.98 -21.69,-64.55 -6.27,-91.54z"/>
        <path class="fil5" d="M2684.63 1682.57c50.61,12.59 21.71,112.89 -25.18,101.23 -46.15,-11.48 -17.25,-111.78 25.18,-101.23z"/>
       </g>
       <g>
        <path class="fil5" d="M2458.59 1644.85c0.11,-1.26 -2.85,0.77 -3.18,2.05 -7.97,31.35 -22.37,65.92 -53.44,68.14 -0.97,0.07 -1.33,1.66 -0.24,1.81 35.69,5.06 54.35,-41.02 56.87,-72z"/>
        <path class="fil5" d="M2440.2 1604.4c-48.88,-18.19 -81.67,80.91 -36.38,97.76 44.56,16.59 77.35,-82.51 36.38,-97.76z"/>
       </g>
       <path class="fil5" d="M2729.23 1690.96c-13.97,-4.44 -26.12,-10.88 -39.48,-16.7 -15.08,-6.57 -27.76,-10.25 -37.02,-24.7 -4.96,-7.75 -1.89,-20.92 5.19,-26.45 16.48,-12.88 36.94,-9.42 55.41,-2.24 20.04,7.78 33.5,18.9 44.11,37.56 10.29,18.09 -9.79,38.39 -28.21,32.54z"/>
       <path class="fil5" d="M2435.82 1497.39c14.54,1.89 28.26,1.22 42.83,1.6 16.44,0.43 29.49,2.46 43.99,-6.7 7.78,-4.92 10.58,-18.15 6.51,-26.16 -9.46,-18.64 -29.47,-24.17 -49.24,-25.5 -21.45,-1.44 -38.35,2.93 -55.87,15.34 -16.97,12.02 -7.39,38.92 11.78,41.42z"/>
       <path class="fil5" d="M2522.19 2023.33c-9.5,4.96 -19.81,12.64 -31.22,10.22 -10.94,-2.31 -22,-10.91 -30.64,-17.64 -0.85,-0.67 -2.15,0.06 -1.8,1.17 4.41,14.17 18.94,26.59 33.91,28.37 14.61,1.76 25.1,-8.17 32.29,-19.85 1,-1.63 -1.14,-2.99 -2.54,-2.27z"/>
       <path class="fil5" d="M2547.38 1969.36c-35.31,-27.6 -88.19,-37.58 -121.89,-43.1 -3.48,-1.61 -4.67,-9.74 -4.26,-13.35l0.07 -0.23c0.35,-1.14 21.62,-66 21.62,-66 -10.05,1.8 -60.63,8.76 -56.24,-3.57 36.72,-101.87 77.56,-215.17 135.61,-308.8 1.76,-3.19 6.76,-0.86 5.46,2.47 -31.42,99.31 -80.09,192.43 -113.24,291.69 15.85,-1.22 42.04,-4.41 54.52,-0.46 3.12,1.98 -26.46,68.7 -28.48,79.78 0,0 69.2,-0.33 111.38,47.99 10.94,12.54 12.29,26.74 -4.55,13.58z"/>
      </g>
      <g>
       <path class="fil5" d="M2389.21 1325.78c133.13,161.27 409.34,54.5 409.34,54.5 16.19,145 150.15,166.65 150.15,166.65 0,0 -47.98,290.02 26.08,310.71 112.96,31.67 257.69,-341.02 243.74,-426.43 -13.93,-85.41 -104.05,-132.13 -104.05,-132.13 0,0 9.73,-60.34 -44.64,-133.6 -60.05,-81.04 -348.54,-77.98 -348.54,-77.98 0,0 -4.04,-54.72 -41.66,-111.41 -23.94,-35.8 -67.47,-42.48 -102.98,-19.6 7.62,22.17 10.6,48.32 7.17,76.97 -10.3,85.97 -77.4,66.61 -55.39,-7.73 9.81,-33.07 27.74,-56.08 48.22,-69.24 -19.13,-58.21 -68.65,-89.6 -108.99,-72.94 -73.17,30.24 -189.22,308.2 -78.45,442.23z"/>
       <path class="fil5" d="M2990.06 1462.69c2.61,-4.5 8.79,-0.96 6.47,3.79 -26.04,53.37 -52.63,107.26 -65.59,165.98 -12.72,57.7 -23.56,208.7 62.6,215.35 3.86,0.3 4.01,5.94 0.07,6.61 -60.98,10.36 -78.26,-69.09 -82.11,-121.91 -6.99,-95.69 31.7,-188.98 78.57,-269.82z"/>
       <path class="fil5" d="M2473.07 881.13c0.61,-0.39 1.15,0.53 0.58,0.94 -117.32,84.57 -182.72,234.01 -138.19,376.84 56.03,179.72 285.07,140.06 423.53,110.07 6.77,-1.46 10,8.74 3.15,10.39 -135.72,32.95 -366.67,67.24 -431.08,-99.93 -57.47,-149.12 13.28,-314.56 142.01,-398.32z"/>
       <path class="fil5" d="M3090.73 1291.96c107.39,43.61 171.54,118.71 148.76,239.15 -22.67,119.89 -104.69,230.16 -209.11,291.57 -5.1,3 -9.45,-4.35 -4.75,-7.75 76.95,-55.65 141.71,-122.59 178.85,-211.48 27.44,-65.69 41.13,-143.91 8.61,-210.61 -23.41,-48.02 -79.6,-74.05 -124.5,-97 -2.59,-1.33 -0.43,-4.93 2.14,-3.88z"/>
       <path class="fil5" d="M2681.36 1101.74c162.44,-45.05 459.14,-46.66 432.33,195.46 -0.22,1.97 -3.6,1.64 -3.49,-0.35 13.68,-246.29 -266.64,-214.43 -427.72,-188.38 -3.87,0.63 -4.8,-5.7 -1.11,-6.72z"/>
      </g>
      <g>
       <path class="fil6" d="M2947.83 1864.01c0,0 126.18,-137.11 189.78,-90.13 63.6,46.97 -45.5,255.66 -130.15,274.83 -84.66,19.17 -103.93,-58.86 -103.93,-58.86l44.3 -125.84z"/>
       <path class="fil5" d="M3104.85 1832.92c1.31,0.06 1.32,1.91 0.14,2.22 -59.61,15.29 -96.43,63.72 -124.57,115.26 19.63,-18.66 44.06,-27.04 69.39,-3.26 1.33,1.25 -0.39,3.37 -1.94,2.81 -22.49,-8.07 -39.74,-6.31 -57.88,10.14 -12.84,11.64 -22.65,27.23 -32.62,41.32 -3.33,4.7 -12.09,0.76 -9.38,-4.8 0.2,-0.41 0.43,-0.83 0.64,-1.25 8.27,-72.26 77.86,-165.6 156.22,-162.44z"/>
      </g>
     </g>
    </g>
    <path class="fil0" d="M3097.84 5810.68c-0.97,5.69 -2.08,11.39 -3.19,17.22 0.97,-5.7 2.08,-11.53 3.06,-17.22l0.14 0z"/>
    <g>
     <path class="fil7" d="M3522.79 1031.11c0,55.94 -45.35,101.29 -101.28,101.29 -55.94,0 -101.29,-45.35 -101.29,-101.29 0,-55.94 45.35,-101.28 101.28,-101.29 55.94,0 101.29,45.35 101.29,101.29z"/>
     <path class="fil5" d="M3522.79 1031.11c0.2,26.56 -10.44,52.98 -28.98,72.3 -18.36,19.5 -44.8,31.7 -72.3,32.44 -27.42,0.94 -55.5,-9.44 -75.83,-28.91 -20.43,-19.35 -32.39,-47.46 -32.39,-75.83 -0.02,-28.36 11.93,-56.5 32.37,-75.85 20.32,-19.49 48.44,-29.86 75.86,-28.92 27.5,0.75 53.95,12.95 72.31,32.47 18.55,19.33 29.17,45.75 28.98,72.31zm0 0c-0.02,-26.56 -11.2,-52.83 -30.35,-70.93 -19.07,-18.19 -45.31,-27.8 -70.93,-26.87 -25.7,0.76 -50.28,12.2 -67.38,30.41 -17.26,18.07 -27.13,42.62 -26.96,67.38 -0.17,24.76 9.67,49.33 26.94,67.41 17.09,18.24 41.7,29.67 67.4,30.43 25.63,0.92 51.88,-8.69 70.94,-26.89 19.15,-18.1 30.33,-44.37 30.35,-70.94z"/>
    </g>
    <g>
     <path class="fil7" d="M4289.17 485.65c0,266.28 -215.86,482.13 -482.13,482.13 -266.28,0 -482.13,-215.86 -482.13,-482.13 -0,-266.27 215.86,-482.13 482.13,-482.13 266.28,0 482.14,215.86 482.13,482.13z"/>
     <path class="fil5" d="M4289.17 485.65c0.06,63.12 -12.19,126.27 -36.26,184.69 -23.99,58.44 -59.66,112.07 -104.24,156.94 -44.61,44.81 -97.85,81.19 -156.3,105.78 -58.39,24.71 -121.76,37.64 -185.33,38.18 -127.28,1.26 -254.46,-50.09 -345.11,-140.48 -45.27,-45.08 -81.63,-99.12 -106.23,-158.15 -24.69,-59.01 -37.44,-122.94 -37.72,-186.96 0.22,-64.02 13.02,-127.96 37.7,-186.97 24.6,-59.04 60.97,-113.07 106.24,-158.15 90.62,-90.44 217.84,-141.76 345.12,-140.5 63.57,0.54 126.95,13.48 185.33,38.19 58.45,24.59 111.7,60.96 156.3,105.8 44.58,44.87 80.25,98.5 104.24,156.94 24.07,58.42 36.31,121.57 36.26,184.69zm0 0c-0.28,-63.12 -12.85,-126.14 -37.19,-184.3 -24.25,-58.19 -60.1,-111.46 -104.73,-155.9 -89.38,-89.13 -214.73,-139.69 -340.2,-138.44 -62.68,0.55 -125.12,13.3 -182.66,37.66 -57.61,24.24 -110.07,60.11 -154.05,104.27 -43.94,44.23 -79.09,97.1 -102.73,154.69 -23.73,57.57 -35.76,119.8 -35.75,182.03 -0.06,62.23 12.01,124.46 35.73,182.03 23.64,57.59 58.8,110.46 102.74,154.7 43.94,44.21 96.44,80.05 154.05,104.3 57.55,24.36 120,37.11 182.68,37.65 125.48,1.24 250.84,-49.33 340.21,-138.47 44.63,-44.45 80.48,-97.72 104.73,-155.91 24.34,-58.17 36.91,-121.18 37.19,-184.3z"/>
    </g>
    <g>
     <path class="fil7" d="M3288.22 1198.17c0,31.13 -25.24,56.37 -56.37,56.37 -31.13,0 -56.37,-25.24 -56.37,-56.37 0,-31.13 25.24,-56.37 56.37,-56.37 31.13,0 56.37,25.24 56.37,56.37z"/>
     <path class="fil5" d="M3288.22 1198.17c0.69,29.67 -24.27,58.49 -56.37,59.83 -15.64,0.9 -32.04,-4.65 -44.07,-15.75 -12.07,-11.06 -19.2,-27.49 -19.24,-44.08 0.03,-16.58 7.13,-33.04 19.21,-44.1 12.02,-11.13 28.46,-16.67 44.1,-15.76 32.13,1.35 57.06,30.2 56.37,59.86zm0 0c-0.06,-14.79 -6.4,-29.38 -17.2,-39.17 -10.78,-9.83 -25.33,-14.6 -39.17,-13.71 -28.39,1.45 -50,26.93 -49.44,52.89 -0.58,25.94 21.02,51.49 49.44,52.92 13.85,0.88 28.42,-3.89 39.18,-13.74 10.8,-9.8 17.13,-24.39 17.19,-39.18z"/>
    </g>
    <path class="fil2" d="M3715.11 582.17c0,-24.91 4.06,-47.3 12.22,-67.14 8.12,-19.83 24.91,-37.13 50.33,-51.89 7.65,-4.57 17.04,-9.79 28.25,-15.65 11.17,-5.84 22.12,-12.83 32.81,-20.98 10.66,-8.12 19.69,-17.66 27.09,-28.61 7.36,-10.93 11.06,-23.52 11.06,-37.77 0,-10.68 -2.06,-20.09 -6.13,-28.23 -4.06,-8.12 -9.39,-15 -16.03,-20.6 -6.6,-5.6 -14.36,-9.79 -23.24,-12.6 -8.92,-2.77 -17.95,-4.19 -27.09,-4.19 -11.21,0 -21.36,1.91 -30.53,5.73 -9.14,3.81 -17.44,8.65 -24.81,14.48 -7.36,5.86 -14,12.48 -19.83,19.84 -5.84,7.38 -10.81,14.37 -14.87,20.99l-66.4 -45.78c6.64,-15.78 15.37,-29.77 26.33,-41.97 10.95,-12.2 23.39,-22.5 37.39,-30.9 14,-8.39 29.12,-14.74 45.4,-19.07 16.28,-4.31 33.07,-6.49 50.37,-6.49 19.33,0 38.4,2.81 57.22,8.39 18.82,5.6 35.72,14.5 50.73,26.71 15.01,12.2 27.2,27.85 36.63,46.92 9.43,19.07 14.11,41.85 14.11,68.28 0,16.28 -1.89,30.66 -5.7,43.11 -3.84,12.48 -9.28,23.79 -16.43,33.96 -7.11,10.17 -15.52,19.33 -25.17,27.45 -9.68,8.16 -20.6,16.03 -32.81,23.66 -10.19,6.11 -20.34,11.97 -30.5,17.55 -10.19,5.6 -19.47,11.82 -27.85,18.69 -8.41,6.87 -15.27,14.76 -20.63,23.64 -5.33,8.92 -8.01,19.73 -8.01,32.44l-83.91 0zm1.52 177.78l0 0 0 -105.29 84.71 0 0 105.29 -84.71 0z"/>
   </g>
   <path class="fil0" d="M3097.84 5810.68c-0.97,5.69 -2.08,11.39 -3.19,17.22 0.97,-5.7 2.08,-11.53 3.06,-17.22l0.14 0z"/>
  </g>
 </g>
</svg>
