<?xml version="1.0" encoding="UTF-8"?>
<!DOCTYPE svg PUBLIC "-//W3C//DTD SVG 1.0//EN" "http://www.w3.org/TR/2001/REC-SVG-20010904/DTD/svg10.dtd">
<!-- Creator: CorelDRAW 2019 (64-Bit) -->
<svg xmlns="http://www.w3.org/2000/svg" xml:space="preserve" width="4in" height="4in" version="1.0" style="shape-rendering:geometricPrecision; text-rendering:geometricPrecision; image-rendering:optimizeQuality; fill-rule:evenodd; clip-rule:evenodd"
viewBox="0 0 4000.01 4000.01"
 xmlns:xlink="http://www.w3.org/1999/xlink"
 xmlns:xodm="http://www.corel.com/coreldraw/odm/2003">
 <defs>
  <style type="text/css">
   <![CDATA[
    .fil48 {fill:none}
    .fil23 {fill:black}
    .fil0 {fill:#00AC45}
    .fil47 {fill:#030000}
    .fil3 {fill:#056A2D}
    .fil2 {fill:#09AB49}
    .fil15 {fill:#0AF769}
    .fil1 {fill:#0EBC54}
    .fil6 {fill:#23AA59}
    .fil36 {fill:#2BCE6C}
    .fil26 {fill:#2CC268}
    .fil33 {fill:#32B566}
    .fil25 {fill:#33DC76}
    .fil29 {fill:#33E57A}
    .fil31 {fill:#33E67A}
    .fil32 {fill:#35D775}
    .fil35 {fill:#36AB65}
    .fil38 {fill:#36BD6C}
    .fil34 {fill:#37975D}
    .fil37 {fill:#3A9960}
    .fil28 {fill:#53F19C}
    .fil16 {fill:#62C88A}
    .fil17 {fill:#7BE0A3}
    .fil27 {fill:#7CFFB0}
    .fil8 {fill:#9CFFC4}
    .fil30 {fill:#FBFFD3}
    .fil5 {fill:#88D4EA;fill-rule:nonzero}
    .fil11 {fill:#82D2EA;fill-rule:nonzero}
    .fil14 {fill:#49C7EC;fill-rule:nonzero}
    .fil13 {fill:#36C0EB;fill-rule:nonzero}
    .fil12 {fill:#4B7FC0;fill-rule:nonzero}
    .fil24 {fill:#056A2D;fill-rule:nonzero}
    .fil20 {fill:#1D8A48;fill-rule:nonzero}
    .fil9 {fill:#23AA59;fill-rule:nonzero}
    .fil44 {fill:#2CC268;fill-rule:nonzero}
    .fil40 {fill:#32B566;fill-rule:nonzero}
    .fil39 {fill:#33DC76;fill-rule:nonzero}
    .fil43 {fill:#37975D;fill-rule:nonzero}
    .fil42 {fill:#3A9960;fill-rule:nonzero}
    .fil41 {fill:#53F19C;fill-rule:nonzero}
    .fil4 {fill:#9CFFC4;fill-rule:nonzero}
    .fil21 {fill:url(#id5)}
    .fil18 {fill:url(#id6)}
    .fil45 {fill:url(#id7)}
    .fil10 {fill:url(#id8)}
    .fil22 {fill:url(#id9)}
    .fil7 {fill:url(#id10)}
    .fil19 {fill:url(#id11)}
    .fil46 {fill:url(#id12)}
   ]]>
  </style>
   <clipPath id="id0">
    <path d="M-0 0l4000.01 0 0 4000.01 -4000.01 0 0 -4000.01z"/>
   </clipPath>
      <mask id="id1">
  <linearGradient id="id2" gradientUnits="userSpaceOnUse" x1="1423.96" y1="2528.99" x2="1672.17" y2="1436.52">
   <stop offset="0" style="stop-opacity:1; stop-color:white"/>
   <stop offset="1" style="stop-opacity:0; stop-color:white"/>
  </linearGradient>
       <rect style="fill:url(#id2)" x="1000.41" y="731.17" width="1986.06" height="1815.72"/>
      </mask>
      <mask id="id3">
  <linearGradient id="id4" gradientUnits="userSpaceOnUse" x1="2574.37" y1="1035.32" x2="2149.38" y2="632.06">
   <stop offset="0" style="stop-opacity:1; stop-color:white"/>
   <stop offset="1" style="stop-opacity:0; stop-color:white"/>
  </linearGradient>
       <rect style="fill:url(#id4)" x="1580.04" y="-24.61" width="1116.65" height="1183.17"/>
      </mask>
  <linearGradient id="id5" gradientUnits="userSpaceOnUse" x1="835.23" y1="1750.83" x2="2920.66" y2="1382.5">
   <stop offset="0" style="stop-opacity:1; stop-color:#326F4B"/>
   <stop offset="0.380392" style="stop-opacity:1; stop-color:#00712D"/>
   <stop offset="0.741176" style="stop-opacity:1; stop-color:#1A8F49"/>
   <stop offset="1" style="stop-opacity:1; stop-color:#21904D"/>
  </linearGradient>
  <linearGradient id="id6" gradientUnits="userSpaceOnUse" x1="2349.51" y1="3187.16" x2="875.41" y2="2051.27">
   <stop offset="0" style="stop-opacity:1; stop-color:#4DA971"/>
   <stop offset="0.380392" style="stop-opacity:1; stop-color:#00AB44"/>
   <stop offset="0.741176" style="stop-opacity:1; stop-color:#28DB6F"/>
   <stop offset="1" style="stop-opacity:1; stop-color:#33DC76"/>
  </linearGradient>
  <linearGradient id="id7" gradientUnits="userSpaceOnUse" xlink:href="#id6" x1="1710.05" y1="407.76" x2="2568.68" y2="892.44">
  </linearGradient>
  <linearGradient id="id8" gradientUnits="userSpaceOnUse" xlink:href="#id6" x1="1376.45" y1="357.94" x2="3440.92" y2="1246">
  </linearGradient>
  <linearGradient id="id9" gradientUnits="userSpaceOnUse" xlink:href="#id6" x1="2187.99" y1="1113.43" x2="1427.51" y2="2015.25">
  </linearGradient>
  <linearGradient id="id10" gradientUnits="userSpaceOnUse" xlink:href="#id6" x1="3093.15" y1="1179.93" x2="2041.26" y2="671.38">
  </linearGradient>
  <linearGradient id="id11" gradientUnits="userSpaceOnUse" xlink:href="#id6" x1="128.58" y1="1140.69" x2="3109.72" y2="3260.4">
  </linearGradient>
  <linearGradient id="id12" gradientUnits="userSpaceOnUse" xlink:href="#id6" x1="2608.33" y1="601.38" x2="1595.29" y2="701.71">
  </linearGradient>
 </defs>
 <g id="Layer_x0020_1">
  <metadata id="CorelCorpID_0Corel-Layer"/>
  <g>
  </g>
  <g style="clip-path:url(#id0)">
   <g>
    <g id="_1920967198128">
     <path class="fil0" d="M2079.69 1154.1l0 0 8.84 -2.4 42.7 -11.56 377.38 -101c8.2,-2.18 16.61,-6.32 24.59,-12 -7.98,5.67 -16.39,9.81 -24.59,12l-428.91 114.96 0 0zm-31.92 -6.11l-89.06 -88.78 111.7 -416.63c12.94,-48.65 57.8,-97.29 99.85,-108.41l428.27 -114.96 86.26 86.38c-4.74,-4.8 -11.43,-7.42 -19.62,-7.42 -3.67,0 -7.76,0.44 -12.07,1.74l-428.92 114.95c-30.41,8.07 -62.75,43.19 -72.24,78.53l-110.2 411.61c-1.94,6.54 -2.8,12.87 -2.59,18.32 0,9.38 2.37,17.01 6.69,22.46l0 0c0.65,0.87 1.3,1.53 1.94,2.18zm533.08 -187.37l0 0 98.98 -368.86 11.43 -42.75 0 -0.22 0 0 0 0 -110.41 411.83 0 0zm110.41 -412.26c0,0 0,0 0,0 0,0 0,0 0,0zm0.21 -0.44c0,0 0,0 0,0 0,0 0,0 0,0zm0 -0.44c0,0 0,0 0,0 0,0 0,0 0,0zm-5.17 -40.35c-0.43,-0.43 -0.65,-0.87 -1.08,-1.31l1.08 1.31 0 0 0 0z"/>
     <g>
      <path class="fil1" d="M2129.3 440.76c-0.22,48.56 15.53,73.72 31.48,96.69l9.49 -3.28 428.27 -114.85 -81.94 -82.03 -387.3 103.47zm0.65 -14.44l375.22 -100.62 -375.22 100.62z"/>
      <path class="fil2" d="M2160.79 537.45c-15.96,-22.97 -31.7,-48.13 -31.48,-96.69l-46.15 12.47c-17.68,4.81 -35.58,14.44 -52.4,27.35 -18.11,23.19 -32.13,49.44 -39.24,76.13l-113.21 421.96 80.43 80.5 111.7 -416.72c11.86,-44.84 51.11,-89.47 90.35,-105zm-295.43 428.09l0 0 103.51 -386.32c0,-0.22 0,-0.22 0,-0.44 0,0.22 0,0.22 0,0.44l-103.51 386.32zm103.72 -386.97c0,0 0,-0.22 0,-0.22 0,0 0,0.22 0,0.22zm0 -0.44c0,0 0,-0.22 0.22,-0.22 -0.22,0 -0.22,0.22 -0.22,0.22zm0.22 -0.44c0,-0.22 0,-0.44 0.22,-0.88 -0.22,0.44 -0.22,0.66 -0.22,0.88zm0.22 -0.88c0,-0.22 0,-0.22 0,-0.44 0,0.22 0,0.22 0,0.44zm0.22 -0.65c0,0 0,0 0,-0.22 0,0.22 0,0.22 0,0.22zm0 -0.44c0.21,-0.22 0.21,-0.44 0.21,-0.87 0,0.44 0,0.66 -0.21,0.87zm0.43 -0.87c0,-0.22 0,-0.22 0,-0.44 0,0.22 0,0.22 0,0.44zm0 -0.44c0,-0.22 0.22,-0.22 0.22,-0.44 0,0.22 -0.22,0.22 -0.22,0.44zm0.22 -0.44c0,-0.22 0,-0.44 0,-0.44 0,0 0,0.22 0,0.44zm0.22 -0.66c0,0 0,-0.22 0,-0.22 0,0 0,0.22 0,0.22zm0 -0.44c0,-0.22 0.21,-0.22 0.21,-0.22 0,0 -0.21,0 -0.21,0.22zm0.21 -0.44c0,-0.22 0,-0.22 0,-0.22 0,0 0,0 0,0.22zm0.22 -0.44c0,-0.22 0,-0.22 0,-0.44 0,0.22 0,0.22 0,0.44zm0 -0.44c0,-0.22 0.22,-0.22 0.22,-0.44 0,0.22 -0.22,0.22 -0.22,0.44zm0.22 -0.66c0,0 0,-0.22 0.22,-0.22 -0.22,0 -0.22,0.22 -0.22,0.22zm0.22 -0.44c0,0 0,-0.22 0,-0.22 0,0 0,0.22 0,0.22zm0.22 -0.44c0,0 0,-0.22 0,-0.22 0,0 0,0.22 0,0.22zm0 -0.44c0,-0.22 0.21,-0.22 0.21,-0.44 0,0.22 -0.21,0.22 -0.21,0.44zm0.21 -0.66c0,0 0,0 0,-0.22 0,0.22 0,0.22 0,0.22zm0.22 -0.44c0,0 0,0 0,-0.22 0,0.22 0,0.22 0,0.22zm0 -0.44c0.22,0 0.22,-0.22 0.22,-0.22 0,0 0,0.22 -0.22,0.22zm0.22 -0.44c0,0 0.22,-0.22 0.22,-0.22 0,0 -0.22,0 -0.22,0.22zm0.22 -0.44c0,-0.22 0,-0.22 0,-0.22 0,0 0,0 0,0.22zm0.21 -0.44c0,-0.22 0,-0.22 0,-0.22 0,0 0,0 0,0.22zm0.22 -0.44c0,-0.22 0,-0.22 0,-0.44 0,0.22 0,0.22 0,0.44zm0 -0.65c0.22,0 0.22,-0.22 0.22,-0.22 0,0 0,0.22 -0.22,0.22zm0.22 -0.44c0,0 0,-0.22 0.22,-0.22 -0.22,0 -0.22,0.22 -0.22,0.22zm0.22 -0.44c0,0 0,-0.22 0,-0.22 0,0 0,0.22 0,0.22zm0.21 -0.44c0,0 0,-0.22 0,-0.44 0,0.22 0,0.44 0,0.44zm0.22 -0.44c0,-0.22 0,-0.22 0,-0.44 0,0.22 0,0.22 0,0.44zm0 -0.66c0.22,0 0.22,0 0.22,-0.22 0,0.22 0,0.22 -0.22,0.22zm0.22 -0.44c0,0 0,0 0.22,-0.22 -0.22,0.22 -0.22,0.22 -0.22,0.22zm0.22 -0.44c0,0 0,-0.22 0,-0.22 0,0 0,0.22 0,0.22zm0.22 -0.44c0,-0.22 0,-0.22 0,-0.44 0,0.22 0,0.22 0,0.44zm0.21 -0.44c0,-0.22 0,-0.22 0,-0.22 0,0 0,0 0,0.22zm0.22 -0.66c0,0 0,0 0,0 0,0 0,0 0,0zm0 -0.22c0,-0.22 0.22,-0.22 0.22,-0.44 0,0.22 -0.22,0.22 -0.22,0.44zm0.22 -0.66c0,0 0.22,-0.22 0.22,-0.22 0,0 -0.22,0.22 -0.22,0.22zm0.22 -0.44c0,-0.22 0,-0.22 0.21,-0.22 -0.21,0 -0.21,0 -0.21,0.22zm0.21 -0.44c0,0 0,-0.22 0,-0.22 0,0 0,0.22 0,0.22zm0.22 -0.44c0,0 0,-0.22 0,-0.22 0,0 0,0.22 0,0.22zm0.22 -0.66c0,0 0,-0.22 0,-0.22 0,0 0,0.22 0,0.22zm0.22 -0.44c0,0 0,0 0,-0.22 0,0.22 0,0.22 0,0.22zm0.22 -0.44c0,0 0,0 0,-0.22 0,0.22 0,0.22 0,0.22zm0 -0.44c0,0 0.21,0 0.21,-0.22 0,0.22 -0.21,0.22 -0.21,0.22zm0.43 -0.44c0,-0.22 0,-0.22 0,-0.22 0,0 0,0 0,0.22zm0 -0.65c0.22,0 0.22,0 0.22,0 0,0 0,0 -0.22,0zm0.22 -0.22c0,-0.22 0,-0.22 0.22,-0.22 -0.22,0 -0.22,0 -0.22,0.22zm0.22 -0.44c0,-0.22 0,-0.22 0,-0.22 0,0 0,0 0,0.22zm0.21 -0.66c0,-0.22 0.22,-0.22 0.22,-0.22 0,0 -0.22,0 -0.22,0.22zm0.22 -0.44c0,0 0,-0.22 0,-0.22 0,0 0,0.22 0,0.22zm0.22 -0.44c0,0 0,-0.22 0,-0.22 0,0 0,0.22 0,0.22zm0.22 -0.44c0,0 0,-0.22 0.21,-0.22 -0.21,0 -0.21,0 -0.21,0.22zm0.21 -0.44c0,-0.22 0,-0.22 0.22,-0.44 -0.22,0.22 -0.22,0.22 -0.22,0.44zm0.22 -0.66c0,0 0,0 0,-0.22 0,0.22 0,0.22 0,0.22zm0.22 -0.44c0,0 0,0 0,-0.22 0,0.22 0,0.22 0,0.22zm0.22 -0.44c0,0 0,-0.22 0,-0.22 0,0 0,0.22 0,0.22zm0.22 -0.44c0,0 0,-0.22 0,-0.22 0,0 0,0.22 0,0.22zm0.21 -0.44c0,-0.22 0,-0.22 0,-0.22 0,0 0,0 0,0.22zm0.22 -0.44c0,-0.22 0,-0.22 0,-0.22 0,0 0,0 0,0.22zm0.22 -0.44c0,-0.22 0,-0.22 0,-0.44 0,0.22 0,0.22 0,0.44zm0.22 -0.65c0,0 0,-0.22 0,-0.22 0,0 0,0.22 0,0.22zm0.21 -0.44c0,0 0,-0.22 0,-0.22 0,0 0,0.22 0,0.22zm0.22 -0.44c0,0 0,-0.22 0,-0.22 0,0 0,0.22 0,0.22zm0.22 -0.44c0,0 0,-0.22 0.22,-0.44 -0.22,0.22 -0.22,0.44 -0.22,0.44zm0.22 -0.44c0,0 0,-0.22 0.22,-0.44 -0.22,0.22 -0.22,0.44 -0.22,0.44zm0.22 -0.44c0,-0.22 0,-0.22 0.21,-0.44 -0.21,0.22 -0.21,0.22 -0.21,0.44zm0.21 -0.44c0,-0.22 0,-0.22 0,-0.44 0,0.22 0,0.22 0,0.44zm0.22 -0.44c0,-0.44 0.22,-0.66 0.43,-0.87 -0.22,0.22 -0.43,0.44 -0.43,0.87zm0.43 -1.09c0,0 0,-0.22 0.21,-0.22 -0.21,0 -0.21,0.22 -0.21,0.22zm0.21 -0.44c0,0 0.22,-0.22 0.22,-0.22 0,0 -0.22,0.22 -0.22,0.22zm0.22 -0.44c0,0 0.22,-0.22 0.22,-0.44 0,0.22 -0.22,0.44 -0.22,0.44zm0.22 -0.44c0,0 0.22,-0.22 0.22,-0.44 0,0.22 -0.22,0.44 -0.22,0.44zm0.22 -0.44c0.22,-0.22 0.22,-0.22 0.22,-0.44 0,0.22 0,0.22 -0.22,0.44zm0.22 -0.44c0.21,-0.22 0.21,-0.22 0.21,-0.44 0,0.22 0,0.22 -0.21,0.44zm0.21 -0.44c0.22,-0.22 0.22,-0.44 0.22,-0.44 0,0 0,0.22 -0.22,0.44zm0.22 -0.44c0.22,-0.22 0.22,-0.22 0.22,-0.44 0,0.22 0,0.22 -0.22,0.44zm0.43 -0.66c0,0 0,-0.22 0,-0.22 0,0 0,0.22 0,0.22zm0.21 -0.44c0,0 0,-0.22 0,-0.22 0,0 0,0.22 0,0.22zm0.22 -0.44c0,-0.22 0.22,-0.44 0.43,-0.87 -0.22,0.44 -0.43,0.66 -0.43,0.87zm0.43 -0.87c0,-0.22 0.21,-0.22 0.21,-0.44 0,0.22 -0.21,0.22 -0.21,0.44zm0.21 -0.44c0.22,-0.22 0.22,-0.22 0.22,-0.44 0,0.22 0,0.22 -0.22,0.44zm0.22 -0.44c0.22,-0.22 0.43,-0.66 0.43,-0.88 0,0.22 -0.22,0.66 -0.43,0.88zm0.65 -1.09c0,0 0,-0.22 0,-0.22 0,0 0,0.22 0,0.22zm0.21 -0.44c0,0 0,-0.22 0.22,-0.22 -0.22,0 -0.22,0.22 -0.22,0.22zm0.22 -0.44c0.22,-0.22 0.22,-0.44 0.43,-0.66 -0.22,0.22 -0.22,0.44 -0.43,0.66zm0.43 -0.88c0.21,0 0.21,-0.22 0.21,-0.44 0,0.22 0,0.44 -0.21,0.44zm0.21 -0.44c0.22,-0.44 0.65,-0.87 0.87,-1.31 -0.22,0.44 -0.65,0.87 -0.87,1.31zm0.87 -1.31c0,-0.22 0.21,-0.22 0.21,-0.44 0,0.22 -0.21,0.22 -0.21,0.44zm0.21 -0.44c0.43,-0.66 0.65,-1.31 1.08,-1.75 -0.43,0.44 -0.65,1.09 -1.08,1.75zm1.08 -1.97c26.96,-46.59 71.38,-86.19 113.65,-97.56l27.17 -7.22 -27.17 7.22c-21.13,5.69 -43.13,18.59 -62.75,35.87 0,0 0.22,-0.22 0.22,-0.22 -19.84,17.06 -37.74,38.72 -51.11,61.91l0 0z"/>
     </g>
     <path class="fil3" d="M1151.92 3850.77c-117.21,0 -260.91,-64.97 -343.03,-160.09l-650.95 -753.47c-94.7,-109.59 -71.52,-217.24 51.65,-241.11l1013.85 -193.75c15.89,-3.13 33.11,-4.7 50.99,-4.7 117.21,0 260.91,64.98 343.69,160.09l650.29 753.47c94.7,109.59 71.52,217.63 -51.65,241.11l-1013.85 193.75c-15.89,3.13 -33.11,4.7 -50.99,4.7l0 0z"/>
     <path class="fil4" d="M664.52 1428.07c-161.34,-29.42 -268.27,-184.06 -238.84,-345.37 29.43,-161.34 184.06,-268.28 345.38,-238.85 161.34,29.43 268.27,184.06 238.84,345.38 -29.43,161.34 -184.06,268.27 -345.38,238.84z"/>
     <path class="fil5" d="M1634.92 2614.14c-81.05,-14.77 -134.79,-92.47 -119.99,-173.53 14.77,-81.03 92.47,-134.76 173.52,-119.99 81.05,14.8 134.78,92.48 119.99,173.53 -14.79,81.05 -92.47,134.78 -173.52,119.99z"/>
     <path class="fil4" d="M3630.98 1155.51c-167.59,-30.56 -278.69,-191.2 -248.11,-358.78 30.57,-167.59 191.2,-278.66 358.79,-248.09 167.59,30.57 278.66,191.19 248.09,358.77 -30.56,167.59 -191.19,278.66 -358.76,248.11z"/>
     <path class="fil5" d="M2842.79 579.89c-71.26,-12.99 -118.5,-81.31 -105.51,-152.59 13,-71.28 81.32,-118.5 152.6,-105.51 71.28,13 118.5,81.32 105.5,152.57 -12.99,71.28 -81.32,118.53 -152.59,105.53z"/>
     <path class="fil5" d="M2660.46 1353.97c-126.21,-23.01 -209.87,-144 -186.84,-270.22 23.01,-126.24 143.98,-209.9 270.22,-186.87 126.21,23.01 209.87,144.01 186.87,270.22 -23.03,126.23 -144.01,209.89 -270.24,186.86z"/>
     <path class="fil3" d="M2107.77 1731.67c-42.09,0 -63.31,-37.89 -48.28,-93.94l14.94 -55.81 723.39 -193.84c56.51,-15.14 116.53,-80.33 134.01,-145.61l189.56 -707.5 71.68 -19.19c7.99,-2.15 15.49,-3.18 22.41,-3.18 42.07,0 63.29,37.89 48.28,93.92l-204.56 763.34c-17.48,65.27 -77.48,130.46 -134.02,145.63l-795.01 213c-8,2.15 -15.49,3.18 -22.42,3.18z"/>
     <path class="fil6" d="M2009.18 1848.55c-19.81,0 -36.81,-6.42 -49.37,-18.97 -21.56,-21.56 -27.28,-58.82 -15.62,-102.25l33 -123.15c1.09,0.04 2.19,0.07 3.33,0.07 4.58,0 9.4,-0.44 14.44,-1.36l-34.52 128.8c-10.03,37.43 -5.94,68.78 11.27,85.98 9.29,9.27 22.22,13.98 37.6,13.98 7.5,0 15.56,-1.12 24.08,-3.37l936.53 -250.94c63.9,-17.09 132.04,-91.37 151.94,-165.57l240.95 -899.19c10.03,-37.43 5.9,-68.79 -11.31,-85.98 -9.27,-9.27 -22.19,-14.03 -37.58,-14.03 -7.47,0 -15.57,1.15 -24.06,3.4l-149.2 39.99c0.57,-6.16 0.63,-12.01 0.24,-17.51l144.57 -38.74c10.01,-2.67 19.59,-4.01 28.57,-4.01 19.81,0 36.81,6.44 49.37,19 21.56,21.57 27.28,58.83 15.64,102.24l-240.95 899.19c-21.28,79.36 -94.75,158.99 -163.83,177.46l-936.54 250.96c-9.99,2.67 -19.54,3.99 -28.57,3.99z"/>
     <path class="fil7" d="M2007.26 1599.91c-16.32,-0.15 -29.54,-5.96 -38.59,-16.46l-0.09 0.09 -147.56 -147.56c4.47,-0.5 9.12,-1.38 13.96,-2.67l795.02 -213.04 0 0c0.13,-0.02 0.24,-0.06 0.35,-0.09 0.04,-0.02 0.09,-0.02 0.13,-0.04 0.06,-0.02 0.13,-0.04 0.2,-0.04 0.04,-0.02 0.09,-0.04 0.13,-0.04 0.06,-0.02 0.15,-0.04 0.22,-0.06 0.04,0 0.07,-0.02 0.09,-0.02 0.09,-0.02 0.18,-0.04 0.27,-0.06 0.02,-0.02 0.06,-0.02 0.09,-0.02 0.09,-0.04 0.18,-0.07 0.26,-0.09 0.02,0 0.04,0 0.04,0 0.11,-0.04 0.22,-0.07 0.33,-0.11l0 0c55.5,-16.04 113.79,-79.61 131.54,-143.59 0,-0.02 0,-0.04 0,-0.04 0.04,-0.13 0.09,-0.27 0.11,-0.4 0.02,-0.02 0.02,-0.06 0.04,-0.11 0.02,-0.11 0.06,-0.22 0.09,-0.33 0,-0.04 0.03,-0.09 0.03,-0.11 0.04,-0.15 0.09,-0.3 0.13,-0.44l0 0 204.53 -763.33 0 0c0.13,-0.53 0.26,-1.06 0.41,-1.56 0,-0.04 0,-0.09 0.03,-0.1 0.04,-0.2 0.09,-0.4 0.15,-0.6 0,-0.02 0,-0.04 0,-0.04 6.16,-24.32 5.39,-45.09 -0.99,-60.7l2.94 -2.93 -11.57 -11.57 -0.09 0.09 0 0 0.09 -0.09 167.8 167.81 -0.17 0.19c7.82,9.05 12.6,21.5 13.74,36.61 0.39,5.5 0.33,11.35 -0.24,17.51 -0.7,7.3 -2.11,15.06 -4.3,23.18l-14.97 55.83 -189.56 707.5c-17.48,65.28 -77.5,130.47 -134.01,145.61l-723.39 193.84 -67.18 17.99z"/>
     <path class="fil8" d="M3124.8 467.58l-204.53 763.33c-17.48,65.28 -77.5,130.47 -134.02,145.61l-795.04 213.03c-27.15,7.28 -48.49,1.58 -61.46,-13.45l-0.09 0.09 11.57 11.57 0.09 -0.09c12.97,15.03 34.31,20.72 61.46,13.45l795.04 -213.03c56.51,-15.14 116.53,-80.33 134.01,-145.61l204.53 -763.34c9.09,-33.92 4.82,-61.06 -9.23,-77.3l0.2 -0.19 -11.56 -11.57 -0.2 0.2c14.04,16.24 18.32,43.39 9.22,77.31z"/>
     <path class="fil9" d="M1968.67 1583.45l-0.09 0.09 -167.8 -167.81 249.84 -249.84 113.35 -423.09c17.51,-65.28 77.5,-130.46 134.04,-145.61l438.9 -117.6 234.2 -234.2 -11.57 -11.57 -249.97 249.98 -438.91 117.6c-56.53,15.15 -116.52,80.33 -134.02,145.61l-113.37 423.08 -249.85 249.85 167.81 167.8 0.09 -0.09c12.97,15.03 34.31,20.72 61.46,13.45l4.47 -1.2c-16.32,-0.15 -29.54,-5.96 -38.59,-16.46z"/>
     <path class="fil4" d="M2958.8 261.49l166.97 166.97 -0.2 0.17c7.98,9.22 12.65,22.05 13.68,37.51 4.91,-27.85 0.11,-50.2 -12.1,-64.31l0.2 -0.19 -166.09 -166.1c-1.8,8.5 -2.81,17.14 -2.45,25.94z"/>
     <path class="fil10" d="M1812.56 1436.47l0 0zm146.22 -377.35l88.94 88.94c3.59,3.61 8.19,6.05 13.67,7.07l0 0c1.99,0.4 4.07,0.57 6.28,0.57 3.73,0 7.78,-0.55 12.08,-1.71l0 0 428.84 -114.88c8.22,-2.21 16.57,-6.38 24.57,-11.96 21.69,-15.19 40.82,-40.87 47.73,-66.59l0 0 110.3 -411.73 0 0c0.04,-0.13 0.09,-0.26 0.11,-0.39 0.03,-0.02 0.03,-0.06 0.03,-0.09 0.04,-0.11 0.06,-0.22 0.09,-0.33 0.02,-0.02 0.02,-0.05 0.02,-0.06 0.04,-0.13 0.06,-0.27 0.08,-0.4 0.03,0 0.03,0 0.03,0 1.54,-6.13 2.28,-11.83 2.25,-17.04 -0.02,-9.82 -2.67,-17.83 -7.52,-23.43l0.02 -0.06 -1.1 -1.1c-0.1,-0.13 -0.22,-0.23 -0.35,-0.35l-86.25 -86.27 -82.1 -82.1 361.64 -96.9c7.98,-2.15 15.48,-3.17 22.42,-3.17 42.08,0 63.28,37.89 48.28,93.94l-204.55 763.33c-7.1,26.54 -21.28,53.04 -39.36,76.17 -16.87,12.86 -34.75,22.39 -52.33,27.1l-795.02 213.03c-8,2.15 -15.49,3.16 -22.42,3.16 -42.1,0 -63.28,-37.87 -48.28,-93.92l91.44 -341.26 80.44 80.44zm-146.31 377.35c-13.76,0 -25.27,-4.08 -34.03,-11.51 -17.96,-15.27 -24.24,-44.75 -14.15,-82.41l100.98 -376.93 -100.98 376.93c-15.01,56.01 6.15,93.88 48.18,93.92zm817.52 -216.19c0.11,-0.02 0.24,-0.06 0.35,-0.09 -0.11,0.03 -0.22,0.07 -0.35,0.09zm0.48 -0.13c0.06,-0.02 0.13,-0.04 0.2,-0.04 -0.07,0 -0.13,0.02 -0.2,0.04zm0.33 -0.08c0.06,-0.02 0.15,-0.04 0.22,-0.06 -0.07,0.02 -0.16,0.04 -0.22,0.06zm0.3 -0.09c0.09,-0.02 0.17,-0.04 0.27,-0.06 -0.1,0.02 -0.18,0.04 -0.27,0.06zm0.35 -0.09c0.09,-0.05 0.17,-0.07 0.26,-0.09 -0.09,0.02 -0.17,0.04 -0.26,0.09zm0.3 -0.09c0.11,-0.04 0.22,-0.07 0.33,-0.11 -0.11,0.04 -0.21,0.07 -0.33,0.11zm0.33 -0.11c21.23,-6.14 42.86,-19.28 62.47,-36.72 -0.04,0.04 -0.06,0.09 -0.08,0.11 31.7,-28.11 58.18,-67.44 69.15,-106.97 -17.75,63.98 -76.03,127.55 -131.54,143.59zm131.54 -143.63c0.04,-0.14 0.09,-0.27 0.11,-0.4 -0.02,0.13 -0.07,0.26 -0.11,0.4zm0.15 -0.5c0.02,-0.11 0.06,-0.22 0.09,-0.33 -0.03,0.11 -0.07,0.22 -0.09,0.33zm0.11 -0.44c0.04,-0.16 0.09,-0.31 0.13,-0.44 -0.04,0.13 -0.09,0.28 -0.13,0.44zm204.66 -763.77c0.13,-0.53 0.25,-1.06 0.41,-1.56 -0.16,0.5 -0.28,1.03 -0.41,1.56zm0.44 -1.67c0.04,-0.2 0.09,-0.39 0.15,-0.59 -0.06,0.2 -0.11,0.39 -0.15,0.59zm0.15 -0.64c13.82,-54.76 -7.35,-91.59 -48.78,-91.64 16.59,0.02 29.91,5.94 39.06,16.52l0 0c3.56,4.12 6.5,8.94 8.72,14.42 6.38,15.6 7.15,36.37 0.99,60.7zm-69.59 -88.9c0.13,-0.04 0.26,-0.06 0.37,-0.08 -0.11,0.02 -0.24,0.04 -0.37,0.08zm20.73 -2.74l0 0z"/>
     <path class="fil6" d="M2897.88 220.58l-795.02 213.03c-29.3,7.85 -59.45,29.16 -84.21,56.9 20.25,-17.92 42.62,-31.33 64.47,-37.18l795.04 -213.03c56.54,-15.14 88.18,25.48 70.69,90.76l-204.56 763.33c-8.41,31.46 -26.78,62.85 -49.8,88.68 32.07,-28.44 58.81,-68.39 69.55,-108.4l204.53 -763.33c17.48,-65.28 -14.16,-105.9 -70.69,-90.76z"/>
     <path class="fil11" d="M2508.6 1039.11l-428.84 114.89c-30.48,8.17 -47.55,-13.74 -38.11,-48.95l110.31 -411.73c9.45,-35.2 41.81,-70.36 72.29,-78.54l428.85 -114.9c30.48,-8.17 47.55,13.76 38.1,48.95l-110.3 411.73c-9.45,35.21 -41.81,70.38 -72.3,78.56z"/>
     <path class="fil9" d="M2652.62 1197.67l-795.02 213.03c-56.54,15.15 -88.17,-25.48 -70.69,-90.76l204.53 -763.34c8.31,-30.98 26.25,-61.9 48.8,-87.49 -32.92,28.53 -60.48,69.3 -71.41,110.11l-204.53 763.33c-17.48,65.28 14.16,105.91 70.69,90.77l795.02 -213.04c29.69,-7.95 60.28,-29.78 85.24,-58.11 -19.74,17.11 -41.44,29.82 -62.62,35.5z"/>
     <path class="fil12" d="M2062.76 1126.41l110.37 -411.91c9.44,-35.21 41.81,-70.38 72.31,-78.56l429 -114.95c6.77,-1.82 12.72,-1.93 18.03,-0.97 -2,-8.31 -6.38,-14.65 -12.75,-18.32l-0.48 -0.27 -0.13 -0.07c-6.76,-3.56 -15.6,-4.28 -26.01,-1.48l-428.85 114.9c-30.48,8.18 -62.84,43.34 -72.29,78.54l-110.31 411.73c-4.72,17.61 -2.81,31.89 4.08,40.75l0.43 0.52 0.08 0.09c3.82,4.53 9.03,7.52 15.38,8.69 -1.91,-7.95 -1.84,-17.55 1.14,-28.69z"/>
     <path class="fil13" d="M2088.47 1151.67l110.28 -411.55c9.45,-35.21 41.81,-70.4 72.31,-78.57l420.09 -112.54 0.05 -0.18c3,-11.18 3.32,-21.02 1.39,-28.99 -5.29,-0.97 -11.39,-0.65 -18.15,1.16l-429 114.95c-30.5,8.17 -62.87,43.34 -72.31,78.56l-110.37 411.91c-2.98,11.11 -3.29,20.85 -1.37,28.73 5.34,1.01 11.52,0.7 18.37,-1.14l8.71 -2.33z"/>
     <path class="fil14" d="M2131.18 1140.22l98.83 -368.84c9.42,-35.23 41.81,-70.4 72.31,-78.57l377.4 -101.13 11.43 -42.68 -420.09 112.54c-30.5,8.17 -62.86,43.36 -72.31,78.57l-110.28 411.55 42.71 -11.44z"/>
     <path class="fil8" d="M2030.72 480.57c2.98,-3.81 6.05,-7.52 9.22,-11.13 19.81,-17.27 41.59,-30.13 62.91,-35.83l402.26 -107.81 11.4 11.4 -433.4 116.13c-17.6,4.71 -35.5,14.31 -52.39,27.24z"/>
     <path class="fil8" d="M2061.4 1155.12c-3.76,-0.72 -7.12,-2.11 -10,-4.08l0 -0 -0.14 -0.09 0 -0.01 -0.14 -0.09 0.14 0.09 0 0.01 0.14 0.09 0 0c2.9,1.93 6.22,3.3 9.98,4.02 0,0.02 0,0.04 0.02,0.07zm-13.52 -6.9l-0.15 -0.15c-0.43,-0.43 -0.85,-0.89 -1.26,-1.38l-0.02 -0.02 -0.06 -0.07 -0.04 -0.04 -0.02 -0.03 -0.04 -0.04 -0.15 -0.19 -0.03 -0.02 -0.04 -0.05 -0.02 -0.02 -0.04 -0.06 -0.01 -0.01 -0.05 -0.07 -0 -0.01 -0.05 -0.07 -0.01 0 -0.06 -0.07 0.06 0.07 0.01 0 0.05 0.07 0 0.01 0.05 0.07 0.01 0.01 0.04 0.06 0.02 0.02 0.04 0.05 0.03 0.02 0.15 0.19 0.04 0.04 0.02 0.03 0.04 0.04 0.06 0.07 0.02 0.02c0.45,0.54 0.94,1.04 1.45,1.54l-0.04 0zm83.29 -7.98l98.85 -368.85c9.42,-35.23 41.81,-70.4 72.31,-78.57l377.4 -101.13 -98.82 368.87c-6.91,25.72 -26.03,51.41 -47.73,66.59 -8,5.58 -16.35,9.75 -24.57,11.96l-377.44 101.13zm449.73 -179.68l0 0zm-518.21 166.14c0.03,-0.11 0.05,-0.19 0.07,-0.29 -0.02,0.09 -0.04,0.18 -0.07,0.29zm0.07 -0.29l110.37 -411.91 -110.37 411.91zm110.37 -411.91c9.44,-35.21 41.81,-70.38 72.31,-78.56 -30.5,8.17 -62.87,43.34 -72.31,78.56zm72.31 -78.56l429 -114.95 -429 114.95zm429 -114.95l0 0zm-635.39 602.37c-0.02,-5.57 0.83,-11.7 2.6,-18.32 -1.77,6.62 -2.63,12.75 -2.6,18.32zm2.6 -18.32l110.31 -411.73 -110.31 411.73zm110.31 -411.73c9.45,-35.2 41.81,-70.36 72.29,-78.54 -30.48,8.18 -62.84,43.34 -72.29,78.54zm72.29 -78.54l428.85 -114.9 -428.85 114.9zm428.85 -114.9c4.29,-1.16 8.35,-1.71 12.07,-1.71 -3.72,0 -7.78,0.55 -12.07,1.71zm12.07 -1.71l0.26 0 0.13 0 0.13 0 0.24 0 0.01 0 0.26 0.01 0.11 0.01 0.14 0 0.23 0.01 0.02 0 0.26 0.01 0.1 0.01 0.15 0 0.22 0.01 0.02 0 0.25 0.02 0.09 0.01 0.16 0.01 0.21 0.02 0.04 0 0.24 0.03 0.09 0 0.16 0.02 0.2 0.02 0.04 0 0.24 0.03 0.07 0 0.17 0.03 0.19 0.02 0.05 0.01 0.24 0.04 0.06 0.01 0.17 0.02 0.18 0.03 0.06 0.01 0.24 0.04 0.06 0.01 0.18 0.03 0.17 0.02 0.07 0.01 0.23 0.04 0.05 0.01 0.19 0.04 0.16 0.03 0.07 0.01 0.23 0.05 0.04 0 0.19 0.04 0.15 0.03 0.07 0.02 0.23 0.05 0.03 0 0.19 0.05 0.14 0.03 0.08 0.02 0.22 0.06 0.02 0 0.2 0.06 0.13 0.03 0.09 0.03 0.22 0.06 0.02 0 0.2 0.06 0.12 0.03 0.31 0.1 0.01 0 0.21 0.07 0.11 0.03 0.1 0.04 0.22 0.07 0 0.01 0.21 0.07 0.1 0.03 0.11 0.05 0.2 0.07 0 0 0.21 0.07 0.09 0.04 0.12 0.04 0.19 0.07 0.02 0 0.21 0.08 0.09 0.04 0.12 0.05 0.18 0.07 0.03 0.01 0.2 0.09 0.07 0.03 0.13 0.06 0.17 0.07 0.03 0.01 0.2 0.09 0.06 0.03 0.13 0.06 0.16 0.08 0.04 0.01 0.2 0.1 0.05 0.03 1.14 0.61 0.07 0.04 0.2 0.12 0.09 0.05 0.18 0.11 0.11 0.07 0.16 0.1c1.54,0.96 2.96,2.07 4.26,3.34l0.35 0.35c0.37,0.37 0.73,0.77 1.07,1.16l-0.02 0.09c2.91,3.37 5.04,7.65 6.29,12.66 -0.04,-0.02 -0.09,-0.02 -0.13,-0.05 -1.92,-7.8 -5.99,-13.85 -11.81,-17.56l-0.16 -0.1 -0.11 -0.07 -0.18 -0.11 -0.09 -0.05 -0.2 -0.12 -0.07 -0.04 -0.22 -0.14 -0.92 -0.47 -0.05 -0.03 -0.2 -0.1 -0.04 -0.01 -0.16 -0.08 -0.13 -0.06 -0.06 -0.03 -0.2 -0.09 -0.03 -0.01 -0.17 -0.07 -0.13 -0.06 -0.07 -0.03 -0.2 -0.09 -0.03 -0.01 -0.18 -0.07 -0.12 -0.05 -0.09 -0.04 -0.21 -0.08 -0.02 -0 -0.19 -0.07 -0.12 -0.04 -0.09 -0.04 -0.21 -0.07 -0 -0 -0.2 -0.07 -0.11 -0.05 -0.1 -0.03 -0.21 -0.07 0 -0.01 -0.22 -0.07 -0.1 -0.04 -0.11 -0.03 -0.21 -0.07 -0.01 0 -0.31 -0.1 -0.12 -0.03 -0.2 -0.06 -0.02 0 -0.22 -0.06 -0.09 -0.03 -0.13 -0.03 -0.2 -0.06 -0.02 0 -0.22 -0.06 -0.08 -0.02 -0.14 -0.03 -0.19 -0.05 -0.03 -0 -0.23 -0.05 -0.07 -0.02 -0.15 -0.03 -0.19 -0.04 -0.04 -0 -0.23 -0.05 -0.07 -0.01 -0.16 -0.03 -0.19 -0.04 -0.05 -0.01 -0.23 -0.04 -0.07 -0.01 -0.17 -0.02 -0.18 -0.03 -0.06 -0.01 -0.24 -0.04 -0.06 -0.01 -0.18 -0.03 -0.17 -0.02 -0.06 -0.01 -0.24 -0.04 -0.05 -0.01 -0.19 -0.02 -0.17 -0.03 -0.07 -0 -0.24 -0.03 -0.04 -0 -0.2 -0.02 -0.16 -0.02 -0.09 -0 -0.24 -0.03 -0.04 0 -0.21 -0.02 -0.16 -0.01 -0.09 -0.01 -0.25 -0.02 -0.02 0 -0.22 -0.01 -0.15 -0 -0.1 -0.01 -0.26 -0.01 -0.02 0 -0.23 -0.01 -0.14 -0 -0.11 -0.01 -0.26 -0.01 -0.01 0 -0.24 0 -0.13 -0 -0.13 0 -0.26 0z"/>
     <path class="fil6" d="M1878.34 978.67l-13.06 -13.06 103.54 -386.4c0.04,-0.15 0.09,-0.28 0.13,-0.44 0,-0.04 0.02,-0.09 0.04,-0.15 0.02,-0.09 0.04,-0.2 0.07,-0.28 0.02,-0.07 0.04,-0.11 0.04,-0.16 0.02,-0.11 0.07,-0.2 0.09,-0.3 0.02,-0.04 0.02,-0.09 0.04,-0.16 0.09,-0.28 0.15,-0.57 0.24,-0.85 0.02,-0.06 0.02,-0.11 0.04,-0.15 0.03,-0.09 0.04,-0.2 0.09,-0.29 0,-0.07 0.03,-0.13 0.04,-0.17 0.03,-0.09 0.04,-0.2 0.09,-0.28 0,-0.05 0.03,-0.09 0.05,-0.16 0.07,-0.28 0.15,-0.57 0.24,-0.87 0.02,-0.04 0.04,-0.09 0.04,-0.13 0.04,-0.11 0.07,-0.2 0.09,-0.31 0.02,-0.04 0.04,-0.09 0.04,-0.15 0.04,-0.09 0.07,-0.2 0.09,-0.29 0.03,-0.04 0.05,-0.11 0.07,-0.17 0.02,-0.11 0.07,-0.24 0.11,-0.35 0,-0.04 0.02,-0.11 0.04,-0.15 0.02,-0.11 0.06,-0.22 0.09,-0.32 0.02,-0.07 0.04,-0.14 0.06,-0.2 0.02,-0.09 0.04,-0.15 0.09,-0.24 0.02,-0.07 0.02,-0.13 0.04,-0.2 0.04,-0.09 0.06,-0.17 0.09,-0.26 0.02,-0.04 0.04,-0.11 0.04,-0.16 0.04,-0.15 0.09,-0.28 0.13,-0.41 0.02,-0.02 0.02,-0.04 0.02,-0.06 0.05,-0.14 0.09,-0.27 0.13,-0.37 0.02,-0.07 0.04,-0.13 0.06,-0.2 0.02,-0.09 0.04,-0.17 0.07,-0.24 0.02,-0.07 0.04,-0.13 0.06,-0.2 0.03,-0.09 0.04,-0.15 0.09,-0.24 0.03,-0.06 0.05,-0.13 0.07,-0.22 0.02,-0.09 0.07,-0.2 0.09,-0.3 0.02,-0.07 0.04,-0.13 0.07,-0.2 0.04,-0.11 0.09,-0.2 0.11,-0.3 0.02,-0.07 0.04,-0.13 0.07,-0.2 0.03,-0.09 0.07,-0.17 0.09,-0.24 0.03,-0.06 0.04,-0.13 0.07,-0.22 0.02,-0.07 0.06,-0.16 0.09,-0.22 0.02,-0.07 0.04,-0.13 0.06,-0.2 0.02,-0.11 0.07,-0.22 0.11,-0.33 0.02,-0.07 0.04,-0.15 0.07,-0.22 0.04,-0.11 0.06,-0.2 0.11,-0.28 0.03,-0.09 0.04,-0.16 0.07,-0.22 0.02,-0.06 0.04,-0.13 0.06,-0.19 0.04,-0.09 0.07,-0.16 0.09,-0.24 0.02,-0.07 0.04,-0.13 0.09,-0.22 0.02,-0.07 0.04,-0.13 0.06,-0.22 0.04,-0.09 0.07,-0.19 0.11,-0.3 0.02,-0.07 0.04,-0.13 0.06,-0.2 0.04,-0.11 0.09,-0.22 0.11,-0.31 0.03,-0.07 0.07,-0.13 0.09,-0.2 0.02,-0.09 0.04,-0.17 0.09,-0.26 0.02,-0.07 0.04,-0.11 0.07,-0.17 0.02,-0.09 0.06,-0.18 0.09,-0.27 0.02,-0.04 0.04,-0.1 0.07,-0.17 0.04,-0.11 0.09,-0.22 0.13,-0.35 0.02,-0.05 0.04,-0.11 0.06,-0.18 0.04,-0.11 0.07,-0.19 0.11,-0.3 0.02,-0.07 0.04,-0.13 0.07,-0.22 0.04,-0.07 0.06,-0.16 0.09,-0.22 0.04,-0.06 0.06,-0.13 0.09,-0.19 0.02,-0.09 0.04,-0.16 0.09,-0.24 0.02,-0.07 0.04,-0.13 0.06,-0.2 0.05,-0.11 0.09,-0.2 0.11,-0.3 0.04,-0.07 0.07,-0.16 0.11,-0.24 0.02,-0.09 0.06,-0.2 0.11,-0.28 0.02,-0.07 0.04,-0.13 0.07,-0.22 0.04,-0.07 0.07,-0.13 0.09,-0.2 0.03,-0.09 0.07,-0.16 0.09,-0.24 0.03,-0.06 0.04,-0.11 0.07,-0.17 0.04,-0.09 0.06,-0.17 0.1,-0.24 0.03,-0.09 0.07,-0.18 0.09,-0.26 0.04,-0.09 0.06,-0.17 0.11,-0.28 0.04,-0.09 0.09,-0.17 0.11,-0.29 0.04,-0.06 0.06,-0.13 0.09,-0.22 0.02,-0.07 0.06,-0.13 0.09,-0.2 0.02,-0.07 0.07,-0.15 0.09,-0.22 0.02,-0.07 0.04,-0.13 0.07,-0.2 0.04,-0.09 0.06,-0.16 0.11,-0.24 0.02,-0.06 0.04,-0.13 0.07,-0.2 0.07,-0.15 0.13,-0.28 0.2,-0.44 0.02,-0.07 0.04,-0.11 0.04,-0.15 0.04,-0.09 0.09,-0.17 0.1,-0.26 0.03,-0.07 0.05,-0.11 0.09,-0.18 0.02,-0.09 0.07,-0.15 0.09,-0.24 0.02,-0.07 0.04,-0.13 0.06,-0.17 0.04,-0.09 0.07,-0.18 0.11,-0.24 0.02,-0.07 0.06,-0.13 0.09,-0.2 0.04,-0.13 0.11,-0.26 0.15,-0.39 0.04,-0.09 0.06,-0.15 0.09,-0.22 0.04,-0.09 0.06,-0.15 0.11,-0.24 0.02,-0.07 0.04,-0.11 0.07,-0.18 0.04,-0.09 0.07,-0.17 0.11,-0.24 0.02,-0.07 0.04,-0.11 0.06,-0.18 0.04,-0.09 0.09,-0.17 0.11,-0.26 0.02,-0.02 0.02,-0.04 0.02,-0.04 0.09,-0.2 0.18,-0.4 0.26,-0.59 0.02,-0.04 0.04,-0.11 0.06,-0.16 0.02,-0.09 0.07,-0.15 0.09,-0.24 0.04,-0.06 0.07,-0.13 0.09,-0.2 0.05,-0.09 0.07,-0.15 0.11,-0.22 0.02,-0.06 0.04,-0.13 0.09,-0.2 0.02,-0.06 0.07,-0.15 0.09,-0.24 0.04,-0.11 0.09,-0.2 0.15,-0.31 0.03,-0.06 0.04,-0.13 0.07,-0.2 0.04,-0.09 0.11,-0.19 0.15,-0.3 0.02,-0.07 0.04,-0.13 0.09,-0.22 0.02,-0.07 0.07,-0.13 0.09,-0.2 0.04,-0.07 0.06,-0.13 0.09,-0.2 0.04,-0.09 0.06,-0.17 0.11,-0.24 0.03,-0.06 0.07,-0.13 0.09,-0.19 0.07,-0.13 0.11,-0.26 0.18,-0.39 0.02,-0.02 0.02,-0.06 0.04,-0.11 0.04,-0.11 0.11,-0.22 0.15,-0.33 0.02,-0.07 0.07,-0.11 0.09,-0.18 0.05,-0.09 0.07,-0.17 0.11,-0.26 0.03,-0.07 0.07,-0.11 0.09,-0.17 0.04,-0.09 0.09,-0.17 0.11,-0.26 0.04,-0.05 0.06,-0.11 0.09,-0.18 0.04,-0.11 0.11,-0.24 0.17,-0.35 0.03,-0.05 0.04,-0.09 0.07,-0.16 0.04,-0.11 0.09,-0.22 0.15,-0.33 0.03,-0.04 0.05,-0.1 0.07,-0.15 0.04,-0.09 0.09,-0.2 0.13,-0.29 0.02,-0.04 0.04,-0.11 0.07,-0.15 0.04,-0.09 0.09,-0.18 0.13,-0.29 0.03,-0.04 0.07,-0.11 0.09,-0.15 0.07,-0.15 0.13,-0.28 0.2,-0.42 0,-0.02 0,-0.02 0,-0.02 0.06,-0.15 0.13,-0.26 0.2,-0.42 0.02,-0.04 0.04,-0.09 0.06,-0.13 0.04,-0.09 0.09,-0.2 0.16,-0.28 0.02,-0.07 0.04,-0.11 0.06,-0.17 0.05,-0.09 0.09,-0.18 0.14,-0.27 0.02,-0.04 0.04,-0.11 0.09,-0.15 0.13,-0.29 0.26,-0.57 0.39,-0.86 0.02,-0.04 0.07,-0.09 0.09,-0.15 0.04,-0.09 0.09,-0.17 0.13,-0.26 0.02,-0.07 0.04,-0.11 0.06,-0.17 0.07,-0.09 0.11,-0.17 0.16,-0.28 0.02,-0.04 0.04,-0.09 0.06,-0.16 0.09,-0.13 0.16,-0.26 0.22,-0.41 0,0 0,-0.02 0.02,-0.02 0.04,-0.14 0.11,-0.24 0.17,-0.37 0.02,-0.07 0.07,-0.14 0.09,-0.2 0.04,-0.09 0.09,-0.16 0.13,-0.24 0.02,-0.06 0.06,-0.11 0.09,-0.17 0.04,-0.09 0.09,-0.2 0.15,-0.29 0.02,-0.04 0.05,-0.09 0.07,-0.13 0.07,-0.13 0.13,-0.28 0.22,-0.44l0 0c0.07,-0.13 0.14,-0.26 0.2,-0.41 0.04,-0.05 0.07,-0.09 0.09,-0.13 0.04,-0.11 0.09,-0.2 0.15,-0.3 0.02,-0.04 0.05,-0.09 0.06,-0.13 0.05,-0.09 0.09,-0.2 0.16,-0.29 0.02,-0.04 0.04,-0.11 0.07,-0.15 0.15,-0.29 0.3,-0.57 0.46,-0.86 0,-0.02 0.02,-0.06 0.04,-0.09 0.06,-0.11 0.11,-0.24 0.17,-0.35 0.02,-0.04 0.04,-0.07 0.07,-0.11 0.06,-0.1 0.11,-0.22 0.18,-0.33 0.02,-0.04 0.04,-0.06 0.04,-0.11 0.15,-0.29 0.3,-0.57 0.46,-0.86 0.03,-0.04 0.04,-0.07 0.07,-0.11 0.06,-0.11 0.1,-0.22 0.17,-0.3 0.02,-0.05 0.04,-0.09 0.06,-0.13 0.07,-0.11 0.11,-0.22 0.18,-0.33 0.02,-0.04 0.04,-0.07 0.06,-0.11 0.16,-0.28 0.31,-0.56 0.46,-0.85 0.02,-0.02 0.02,-0.04 0.04,-0.09 0.07,-0.11 0.15,-0.24 0.22,-0.37 0,-0.02 0,-0.04 0.02,-0.04 0.24,-0.46 0.5,-0.9 0.75,-1.36l0 0c0.09,-0.16 0.17,-0.31 0.26,-0.44 0,-0.02 0,-0.02 0,-0.02 0.35,-0.61 0.69,-1.2 1.03,-1.82 0,0 0.02,0 0.02,-0.02 13.46,-23.35 31.31,-44.94 51.12,-62.09 -0.09,0.1 -0.2,0.22 -0.29,0.33 -3.17,3.61 -6.24,7.32 -9.22,11.13 -18.03,23.12 -32.19,49.54 -39.29,76.04l-113.09 422.07z"/>
     <path class="fil15" d="M2061.38 1155.05c-3.87,-0.75 -7.29,-2.17 -10.26,-4.2 -1.13,-0.79 -2.19,-1.67 -3.17,-2.63l-0.02 0c-0.75,-0.72 -1.44,-1.49 -2.08,-2.3l0 0c-4.38,-5.52 -6.77,-13.21 -6.79,-22.55 -0.02,-5.57 0.83,-11.7 2.6,-18.32l110.31 -411.73c9.45,-35.2 41.81,-70.36 72.29,-78.54l428.85 -114.9c4.29,-1.16 8.35,-1.71 12.07,-1.71 5.5,0 10.32,1.2 14.4,3.43 6.4,3.64 10.83,9.93 12.87,18.19 -1.88,-0.32 -3.88,-0.5 -5.96,-0.5 -3.72,0 -7.73,0.55 -12.02,1.71l0 0 -429 114.95c-30.5,8.17 -62.87,43.34 -72.31,78.56l-110.37 411.91c-0.02,0.09 -0.04,0.18 -0.07,0.29 -0.02,0.07 -0.04,0.13 -0.06,0.2 0,0.02 0,0.02 0,0.04 -2.85,10.85 -3.11,20.38 -1.26,28.11z"/>
     <path class="fil16" d="M2067.75 1155.71c-2.24,0 -4.36,-0.2 -6.35,-0.59 -0.02,-0.02 -0.02,-0.04 -0.02,-0.07 -1.86,-7.74 -1.59,-17.27 1.26,-28.11 0,-0.02 0,-0.02 0,-0.04 0.02,-0.06 0.04,-0.13 0.06,-0.2 0.03,-0.11 0.05,-0.19 0.07,-0.29l110.37 -411.91c9.44,-35.21 41.81,-70.38 72.31,-78.56l429 -114.95 0 0c4.29,-1.16 8.3,-1.71 12.02,-1.71 2.08,0 4.08,0.18 5.96,0.5 0.04,0.02 0.09,0.02 0.13,0.05 1.88,7.65 1.67,17.03 -1.01,27.72 0,0 0,0 -0.02,0 -0.02,0.13 -0.04,0.27 -0.09,0.4 0,0.02 0,0.04 -0.02,0.06 -0.02,0.11 -0.04,0.22 -0.09,0.33 0,0.03 0,0.07 -0.02,0.09 -0.03,0.13 -0.07,0.26 -0.11,0.39l0 0 -0.02 0.15 -420.13 112.57c-30.5,8.17 -62.86,43.36 -72.31,78.57l-110.28 411.56 -8.7 2.32 0 0c-4.27,1.16 -8.3,1.71 -12.01,1.71z"/>
     <path class="fil17" d="M2088.46 1151.67l0 0 110.28 -411.56c9.45,-35.21 41.81,-70.4 72.31,-78.57l420.13 -112.57 -11.46 42.71 -377.4 101.13c-30.5,8.17 -62.89,43.34 -72.31,78.57l-98.85 368.85 -42.7 11.44z"/>
     <path class="fil4" d="M1105.67 4019.78l0 -0.74 -8.48 0c-5.91,-0.57 -11.85,-1.26 -17.81,-2.06l0 -0.13 -0.9 0c-4.07,-0.55 -8.15,-1.15 -12.25,-1.8l0 -0.39 -2.38 0c-2.85,-0.46 -5.71,-0.96 -8.57,-1.48l0 -0.72 -3.86 0c-3.09,-0.58 -6.19,-1.2 -9.29,-1.84l0 -0.35 -1.71 0c-3.07,-0.65 -6.17,-1.31 -9.25,-2l0 -0.18 -0.81 0c-5.57,-1.27 -11.15,-2.63 -16.72,-4.08l0 -0.3 -1.16 0c-2.53,-0.66 -5.07,-1.34 -7.61,-2.04l0 -0.16 -0.57 0 -6.01 -1.69 0 -0.5 -1.75 0 -4.82 -1.41 0 -0.77 -2.54 0 -6.22 -1.93 0 -0.27 -0.86 0 -5.72 -1.83 0 -0.36 -1.09 0c-6.22,-2.04 -12.43,-4.18 -18.63,-6.42l0 -0.15 -0.42 0c-3.52,-1.28 -7.02,-2.6 -10.54,-3.94l0 -0.45 -1.17 0 -5.41 -2.11 0 -0.09 -0.22 0 -4.16 -1.65 0 -0.54 -1.34 0 -5.24 -2.15 0 -0.04 -0.1 0 -4.28 -1.8 0 -0.4 -0.94 0c-3.35,-1.42 -6.69,-2.87 -10.02,-4.35l0 -0.03 -0.07 0c-11.8,-5.24 -23.48,-10.83 -34.99,-16.75l0 -0.79 -1.55 0 -2.84 -1.48 0 -0.7 -1.33 0 -3.05 -1.6 0 -0.59 -1.09 0 -3.28 -1.78 0 -0.41 -0.76 0 -3.62 -1.98 0 -0.21 -0.38 0c-8.76,-4.84 -17.41,-9.87 -25.91,-15.08l0 -0.26 -0.41 0 -6.16 -3.83 0 -0.55 -0.87 0 -5.7 -3.65 0 -0.74 -1.13 0 -3.25 -2.13 0 -0.06 -0.09 0 -2.1 -1.38 0 -0.81 -1.22 0 -3.17 -2.14 0 -0.06 -0.08 0c-8.17,-5.53 -16.19,-11.23 -24.02,-17.09l0 -0.44 -0.58 0c-2.75,-2.06 -5.48,-4.14 -8.18,-6.25l0 -0.32 -0.42 0 -1.78 -1.39 0 -0.81 -1.01 0c-2.61,-2.06 -5.19,-4.13 -7.75,-6.24l0 -0.33 -0.42 0 -1.78 -1.45 0 -0.74 -0.89 0c-3.4,-2.81 -6.75,-5.67 -10.06,-8.55l0 -0.21 -0.24 0c-17.9,-15.59 -34.5,-32.11 -49.48,-49.42l-487.13 -564.11 0 -0.01 -0.01 0 -41.63 -48.21 -169.21 -195.95 0 -66.52 730.86 846.37c110.79,128.1 317.36,210.12 460.57,182.57l1236.86 -236.54c57.43,-11.02 96.7,-39.01 110.53,-78.86 17.33,-49.94 -4.56,-115.38 -60.08,-179.58l-67.91 -78.64 0 -0.02 -0.02 0 -41.61 -48.19 0 -0.02 -0.02 0 -41.62 -48.2 0 -0.01 -0 0 -41.63 -48.2 -600.79 -695.73c-96.35,-111.41 -265.14,-187.88 -401.67,-187.88 -20.49,0 -40.23,1.71 -58.92,5.33l-525.03 100.4 -0.04 0 0 0.01 -549.97 105.17 -0.02 0 0 0.01 -149.49 28.58 0 -44.27 1216.38 -232.63c2.81,-0.53 5.65,-1.02 8.5,-1.48l0.51 0 0 -0.08c30.86,-4.94 64.15,-5.49 98.61,-2.16l0 0.05 0.55 0c10.68,1.04 21.45,2.47 32.31,4.24l0 0.13 0.85 0c4.09,0.68 8.2,1.39 12.3,2.17l0 0.03 0.17 0c3.59,0.68 7.19,1.41 10.79,2.16l0 0.03 0.14 0c14.51,3.04 29.1,6.7 43.69,10.93l0 0.02 0.09 0c15.35,4.46 30.69,9.54 45.93,15.23l0 0.11 0.29 0c32.1,12 63.73,26.65 93.93,43.59l0 0.24 0.42 0c8.76,4.92 17.39,10.04 25.88,15.33l0 0.01 0 0 6.57 4.15 0 0.24 0.37 0c11.88,7.61 23.46,15.58 34.68,23.89l0 0.21 0.3 0c6.61,4.9 13.08,9.93 19.43,15.06l0 0.28 0.35 0c12.11,9.81 23.71,20.01 34.71,30.59l0 0.09 0.1 0 2.09 2.04 0 0.15 0.15 0c2.92,2.84 5.8,5.71 8.62,8.6l0 0.17 0.16 0 2.03 2.07 0 0.11 0.11 0 2.08 2.19c5.15,5.4 10.15,10.88 14.97,16.45l793.6 919.02c3.79,4.38 7.44,8.78 10.96,13.19l0 0.13 0.11 0c2.21,2.77 4.37,5.55 6.46,8.32l0 0.44 0.33 0c3.71,4.93 7.26,9.87 10.62,14.81l0 0.53 0.35 0c1.37,2.02 2.72,4.04 4.03,6.06l0 0.52 0.33 0c1.38,2.14 2.73,4.27 4.05,6.41l0 0.17 0.11 0c2.25,3.65 4.41,7.3 6.47,10.95l0 0.01 2.19 3.96 0 0.42 0.23 0 1.96 3.66 0 0.72 0.38 0 1.81 3.53 0 0.86 0.43 0c2.19,4.35 4.24,8.69 6.15,13.03l0 0.11 0.05 0c1.54,3.48 2.98,6.96 4.33,10.43l0 0.53 0.2 0c4.68,12.07 8.27,24.04 10.75,35.84l0 1.41 0.29 0c0.74,3.65 1.38,7.28 1.9,10.89l0 2.26 0.31 0c2.63,19.76 2,38.88 -1.99,56.97l-0.52 0 0 2.24c-0.52,2.19 -1.09,4.37 -1.71,6.53l-0.48 0 0 1.67c-0.57,1.91 -1.19,3.81 -1.84,5.69 -3.4,9.78 -7.8,19.03 -13.15,27.7l-0.35 0 0 0.56c-3.2,5.13 -6.73,10.06 -10.59,14.78l-0.37 0 0 0.45c-6.37,7.74 -13.62,14.9 -21.69,21.46l-0.23 0 0 0.19c-2.72,2.2 -5.52,4.33 -8.42,6.38l-0.35 0 0 0.25c-2,1.41 -4.04,2.8 -6.12,4.13l-0.45 0 0 0.29c-5.97,3.84 -12.29,7.4 -18.95,10.67l-0.77 0 0 0.39 -3.83 1.81 -0.56 0 0 0.26c-1.43,0.65 -2.87,1.3 -4.32,1.93l-0.06 0 0 0.02c-3.55,1.54 -7.19,2.98 -10.9,4.36l-0.06 0 0 0.03c-2.01,0.74 -4.04,1.46 -6.1,2.17l-0.48 0 0 0.17c-2.07,0.7 -4.16,1.37 -6.27,2.02l-0.3 0 0 0.09c-9.27,2.85 -18.99,5.26 -29.14,7.2l-317.06 60.64 -0.02 0 0 0 -400.99 76.69 -0 0 -518.8 99.22c-2.96,0.57 -5.94,1.09 -8.94,1.58l-0.35 0 0 0.06c-5.24,0.84 -10.55,1.55 -15.93,2.13l-1.59 0 0 0.18c-12.48,1.3 -25.31,1.93 -38.39,1.93 -11.13,0 -22.45,-0.47 -33.92,-1.37z"/>
     <path class="fil18" d="M431.46 1833.41l715.43 248.4 238.21 -45.18c123.15,-23.6 299.72,46.04 394.42,155.53l156.91 182.55 715.09 248.27 -166.76 480.32 -0.22 -0.09c-11,41.09 -46.78,72.01 -105.95,83.35l-1013.92 193.9c-123.15,23.63 -299.72,-46.01 -394.42,-155.51l-650.58 -753.39c-49.19,-56.88 -66.33,-113.22 -54.45,-157.66l-0.52 -0.19 166.75 -480.3z"/>
     <path class="fil8" d="M331.19 2438.45l650.55 753.39c94.7,109.5 271.3,179.13 394.42,155.51l1013.95 -193.9c59.17,-11.35 94.95,-42.27 105.95,-83.35l0.22 0.09 -11.5 33.11 -0.22 -0.09c-11,41.09 -46.78,72.01 -105.95,83.35l-1013.92 193.9c-123.15,23.63 -299.72,-46.01 -394.42,-155.51l-650.58 -753.39c-49.19,-56.88 -66.35,-113.24 -54.45,-157.66l-0.52 -0.19 11.48 -33.11 0.53 0.2c-11.88,44.43 5.28,100.77 54.47,157.65z"/>
     <path class="fil9" d="M2427.91 3120.65l0.22 0.06 166.75 -480.29 -715.08 -248.27 -156.92 -182.55c-94.7,-109.52 -271.28,-179.13 -394.42,-155.53l-238.2 45.18 -670.3 -232.72 11.5 -33.11 715.43 248.4 238.21 -45.18c123.12,-23.6 299.72,46.04 394.42,155.53l156.91 182.55 715.09 248.27 -166.76 480.32 -0.22 -0.09c-11,41.09 -46.78,72.01 -105.95,83.35l-9.75 1.87c31.36,-15.56 51.39,-39.09 59.06,-67.77z"/>
     <path class="fil19" d="M1531.43 2900.16l1013.92 -193.9c123.15,-23.62 146.18,-131.52 51.5,-241.01l-650.58 -753.39c-94.7,-109.5 -271.29,-179.13 -394.42,-155.54l-1013.92 193.93c-123.15,23.6 -146.2,131.52 -51.5,241.01l650.58 753.39c94.69,109.5 271.28,179.14 394.42,155.52z"/>
     <path class="fil20" d="M1585.66 1745.21c-12.56,0 -24.65,1.05 -36.09,3.27l-728.65 139.36c-37.38,7.15 -63.11,25.9 -72.44,52.75 -11.37,32.78 2.19,74.8 37.21,115.3l467.54 541.41c67.28,77.81 193.18,127.51 280.46,110.72l728.67 -139.34c37.39,-7.19 63.11,-25.93 72.44,-52.81 11.35,-32.76 -2.21,-74.77 -37.21,-115.24l-467.54 -541.43c-58.48,-67.6 -161.17,-113.99 -244.39,-113.99zm-87.82 972.34c-85.04,0 -189.81,-47.22 -249.36,-116.14l-467.54 -541.41c-36.53,-42.25 -50.53,-86.53 -38.39,-121.48 10.1,-29.07 37.52,-49.28 77.18,-56.88l728.65 -139.37c89.47,-17.15 217.85,33.49 286.44,112.8l467.54 541.43c36.53,42.22 50.53,86.48 38.39,121.44 -10.1,29.1 -37.51,49.31 -77.18,56.93l-728.67 139.34c-11.74,2.26 -24.19,3.33 -37.06,3.33z"/>
     <path class="fil4" d="M537.91 1750.25l1013.95 -193.93c63.77,-12.22 141.84,0.73 215.48,31.09 -55.79,-15.67 -111.4,-20.61 -159.04,-11.48l-1013.93 193.9c-123.15,23.6 -146.18,131.52 -51.49,241.01l650.58 753.39c45.64,52.79 110.37,96.15 178.91,124.42 -88.44,-24.85 -177.29,-76.87 -235.36,-144.01l-650.58 -753.39c-94.7,-109.49 -71.65,-217.41 51.47,-241.01z"/>
     <path class="fil9" d="M1466.7 2877.7l1013.95 -193.9c123.13,-23.62 146.18,-131.52 51.47,-241.04l-650.56 -753.39c-44.96,-51.98 -108.44,-94.79 -175.82,-123.1 90.12,24.25 181.32,77.13 240.53,145.59l650.58 753.39c94.68,109.49 71.66,217.39 -51.5,241.01l-1013.92 193.9c-64.69,12.4 -144.05,-1.09 -218.6,-32.41 54.04,14.56 107.72,18.8 153.87,9.95z"/>
     <path class="fil8" d="M1536.68 2554.46l492.25 -94.14c59.79,-11.47 70.97,-63.85 25,-117.01l-315.85 -365.76c-45.98,-53.16 -131.71,-86.97 -191.49,-75.52l-492.25 94.15c-59.78,11.46 -70.98,63.85 -25,117.01l315.85 365.76c45.97,53.16 131.7,86.97 191.49,75.5z"/>
     <g>
      <path class="fil21" d="M1544.27 1139.24c297.67,16.99 677.22,229.3 847.76,474.21 170.54,244.91 67.5,429.67 -230.16,412.68 -297.66,-16.98 -677.21,-229.31 -847.76,-474.21 -170.54,-244.91 -67.49,-429.67 230.17,-412.69z"/>
      <path class="fil22" d="M1574.07 1182.03c-268.94,-15.35 -362.04,151.58 -207.95,372.86 154.08,221.28 497.01,413.1 765.95,428.45 268.93,15.35 362.04,-151.57 207.95,-372.85 -154.09,-221.28 -497.01,-413.1 -765.95,-428.45z"/>
      <circle class="fil23" transform="matrix(0.423022 0.0241465 0.242371 0.348054 1853.07 1582.69)" r="1072.92"/>
      <path class="fil24" d="M1565.67 1152.41c-4.3,-0.32 -8.56,-0.6 -12.81,-0.85l7.22 10.37c4.17,0.25 8.35,0.52 12.57,0.83l-6.98 -10.35 -13.17 -0.87 7.31 10.38 0.27 0.02 5.59 -9.52zm-74.59 -1.32c-3.87,0.19 -7.97,0.33 -11.68,0.68l9.05 10.36c3.65,-0.33 7.61,-0.48 11.39,-0.66l-8.76 -10.38zm-66.58 7.88c-3.46,0.69 -6.87,1.43 -10.24,2.2l10.57 10.13c3.3,-0.76 6.62,-1.48 10,-2.15l-10.33 -10.19zm-57.41 16.97c-2.91,1.19 -5.77,2.42 -8.59,3.69l11.93 9.69c2.74,-1.24 5.54,-2.44 8.37,-3.6l-11.72 -9.77zm-46.98 25.68c-2.31,1.65 -4.55,3.35 -6.75,5.09l13 9.03c2.15,-1.69 4.34,-3.35 6.59,-4.96l-12.85 -9.15zm-35.63 33.78c-1.65,2.09 -3.22,4.22 -4.78,6.37l13.8 8.2c1.51,-2.1 3.06,-4.18 4.67,-6.22l-13.69 -8.35zm-23.57 41.17c-0.96,2.48 -1.88,4.98 -2.72,7.52l14.32 7.16c0.83,-2.47 1.72,-4.92 2.65,-7.33l-14.26 -7.34zm-11.01 47.64c-0.26,2.81 -0.45,5.65 -0.59,8.5l14.53 6c0.14,-2.79 0.33,-5.56 0.58,-8.3l-14.52 -6.21zm1.83 53.16c0.45,3.08 0.98,6.19 1.56,9.32l14.43 4.7c-0.56,-3.05 -1.08,-6.08 -1.52,-9.09l-14.46 -4.93zm14.71 57.57c1.17,3.3 2.41,6.61 3.69,9.94l14.01 3.28c-1.26,-3.24 -2.45,-6.47 -3.6,-9.69l-14.1 -3.53zm27.3 60.75c1.87,3.44 3.77,6.87 5.72,10.31l13.31 1.83c-1.91,-3.38 -3.78,-6.74 -5.61,-10.11l-13.42 -2.02zm39.17 62.54c2.43,3.48 5.06,7.03 7.63,10.52l12.32 0.33c-2.5,-3.4 -5.07,-6.86 -7.43,-10.26l-12.52 -0.59zm50.15 63.09c3.05,3.49 6.21,6.99 9.37,10.47l11.08 -1.18c-3.08,-3.4 -6.16,-6.81 -9.13,-10.22l-11.31 0.92zm60.2 62.29c3.6,3.41 7.24,6.81 10.93,10.2l9.56 -2.7c-3.59,-3.31 -7.15,-6.63 -10.66,-9.96l-9.83 2.46zm68.98 60.11c4.05,3.25 8.13,6.49 12.25,9.71l7.85 -4.15c-4.02,-3.14 -8,-6.3 -11.95,-9.48l-8.15 3.91zm76.26 56.65c4.41,3.03 8.84,6.04 13.3,9.02l6.01 -5.48c-4.35,-2.91 -8.69,-5.85 -12.99,-8.81l-6.32 5.27zm81.87 52.01c4.7,2.75 9.39,5.44 14.11,8.16l3.98 -6.73c-4.56,-2.55 -9.19,-5.29 -13.7,-7.93l-4.39 6.5zm85.78 46.31c4.84,2.39 9.69,4.76 14.54,7.09l1.94 -7.8c-4.74,-2.28 -9.47,-4.59 -14.19,-6.92l-2.28 7.63zm87.8 39.59c4.9,2 9.81,3.96 14.71,5.89l-0.16 -8.7c-4.78,-1.88 -9.57,-3.79 -14.35,-5.74l-0.2 8.56zm88.02 32.02c4.86,1.56 9.71,3.07 14.56,4.55l-2.27 -9.44c-4.73,-1.44 -9.46,-2.92 -14.21,-4.44l1.92 9.33zm86.35 23.72c4.72,1.08 9.41,2.11 14.1,3.11l-4.37 -9.98c-4.57,-0.97 -9.15,-1.98 -13.75,-3.03l4.03 9.91zm82.77 14.89c4.47,0.58 8.91,1.11 13.33,1.6l-6.33 -10.3c-4.31,-0.49 -8.64,-1 -13,-1.57l6 10.26zm77.52 5.85c4.13,0.08 8.24,0.11 12.3,0.09l-8.16 -10.4c-3.96,0.02 -7.96,-0.02 -12,-0.09l7.85 10.4zm70.65 -3.26c3.71,-0.43 7.37,-0.92 11,-1.44l-9.81 -10.28c-3.54,0.51 -7.1,0.99 -10.72,1.4l9.54 10.31zm62.2 -12.44c3.19,-0.94 6.35,-1.92 9.44,-2.95l-11.29 -9.93c-3.03,1 -6.1,1.96 -9.21,2.88l11.06 10zm52.35 -21.37c2.61,-1.43 5.18,-2.89 7.69,-4.4l-12.51 -9.38c-2.45,1.47 -4.95,2.9 -7.5,4.29l12.32 9.48zm41.43 -29.8c1.99,-1.87 3.91,-3.8 5.78,-5.74l-13.44 -8.64c-1.83,1.9 -3.7,3.78 -5.65,5.61l13.3 8.77zm29.71 -37.57c1.3,-2.3 2.56,-4.61 3.76,-6.96l-14.11 -7.68c-1.15,2.3 -2.41,4.55 -3.67,6.79l14.02 7.85zm17.35 -44.5c0.61,-2.65 1.17,-5.32 1.67,-8.02l-14.46 -6.6c-0.48,2.64 -1.03,5.25 -1.63,7.84l14.42 6.78zm4.64 -50.52c-0.09,-2.95 -0.26,-5.93 -0.48,-8.93l-14.52 -5.37c0.21,2.93 0.37,5.84 0.47,8.72l14.52 5.58zm-8.25 -55.5c-0.81,-3.2 -1.7,-6.42 -2.63,-9.65l-14.26 -4.01c0.91,3.16 1.77,6.3 2.57,9.42l14.32 4.24zm-21.04 -59.31c-1.52,-3.38 -3.09,-6.77 -4.72,-10.17l-13.68 -2.53c1.59,3.32 3.12,6.62 4.6,9.92l13.8 2.78zm-33.33 -61.81c-2.18,-3.48 -4.41,-6.97 -6.7,-10.46l-12.83 -1.05c2.23,3.4 4.4,6.8 6.53,10.19l13 1.31zm-44.76 -62.99c-2.79,-3.5 -5.61,-7.02 -8.51,-10.52l-11.7 0.46c2.81,3.42 5.57,6.84 8.3,10.26l11.92 -0.2zm-55.27 -62.84c-3.34,-3.46 -6.74,-6.93 -10.17,-10.37l-10.35 1.95c3.35,3.37 6.66,6.74 9.92,10.11l10.6 -1.69zm-64.75 -61.37c-3.84,-3.34 -7.7,-6.67 -11.61,-9.98l-8.73 3.43c3.82,3.24 7.59,6.49 11.34,9.75l9.01 -3.2zm-72.81 -58.54c-4.24,-3.15 -8.51,-6.28 -12.81,-9.39l-6.95 4.83c4.2,3.04 8.37,6.09 12.5,9.17l7.25 -4.6zm-79.26 -54.48c-4.55,-2.9 -9.13,-5.76 -13.72,-8.61l-5.05 6.1c4.48,2.78 8.95,5.57 13.39,8.4l5.37 -5.89zm-84.06 -49.32c-4.76,-2.56 -9.55,-5.14 -14.34,-7.63l-2.96 7.28c4.68,2.46 9.34,4.95 14,7.46l3.3 -7.1zm-87 -43.07c-4.88,-2.2 -9.76,-4.37 -14.66,-6.51l-0.9 8.27c4.78,2.08 9.55,4.2 14.31,6.35l1.24 -8.11zm-88.15 -35.93c-4.9,-1.78 -9.79,-3.53 -14.68,-5.24l1.22 9.1c4.77,1.67 9.54,3.37 14.32,5.11l-0.86 -8.97zm-87.43 -27.97c-4.8,-1.32 -9.59,-2.59 -14.37,-3.84l3.33 9.74c4.66,1.2 9.33,2.46 14.02,3.74l-2.98 -9.64zm-84.82 -19.37c-4.6,-0.82 -9.2,-1.63 -13.75,-2.36l5.41 10.17c4.44,0.72 8.93,1.51 13.41,2.31l-5.07 -10.12z"/>
      <g>
       <polygon id="Vector_102" class="fil25" points="1447.39,1362.73 1572,1445.37 1599.31,1517.77 1746.7,1625.61 1877.77,1710.06 1989.26,1712.86 1852.36,1610.4 1821.41,1554.58 1908.27,1607.25 1893.7,1542.46 1992.32,1550.88 1911.82,1516.59 2072.5,1560.9 2093.67,1495.6 2118.96,1489.04 2103.44,1465.69 1995.38,1373.1 1895.69,1342.83 1897.06,1369.93 1974.42,1397.03 2041.05,1456.35 2010.83,1486.76 1847.39,1387.56 1692.55,1344.02 1656.9,1349.55 1550.02,1316.43 "/>
       <polygon id="Vector_103" class="fil26" points="2010.75,1486.65 1912.34,1425.31 1924.08,1459.01 1877.08,1467.78 1792.44,1471.4 1893.62,1542.35 1992.25,1550.75 1911.73,1516.47 2072.42,1560.79 "/>
       <polygon id="Vector_104" class="fil27" points="1895.68,1342.83 1896.97,1369.82 1974.41,1397.03 1995.37,1373.1 "/>
       <polygon id="Vector_105" class="fil28" points="2041.2,1456.46 1974.57,1397.16 1994.83,1374.07 2103.58,1465.8 "/>
       <polygon id="Vector_106" class="fil29" points="2010.86,1486.76 2072.55,1560.9 2103.49,1465.69 2041.1,1456.35 "/>
       <polygon id="Vector_107" class="fil30" points="2118.99,1489.04 1994.03,1497.92 1963.46,1485.05 1947.82,1508.08 2004.77,1519.23 "/>
       <polygon id="Vector_108" class="fil28" points="1924.13,1459.12 1963.42,1485.04 1947.11,1510.04 1895.39,1499.97 1877.23,1468.01 "/>
       <polygon id="Vector_109" class="fil31" points="1848.4,1386.96 1811.17,1419.64 1877.26,1468.01 1924.18,1459.13 1912.43,1425.42 "/>
       <polygon id="Vector_110" class="fil32" points="1761.64,1363.43 1732.74,1380.24 1715.45,1399.83 1811.14,1419.53 1847.45,1387.57 "/>
       <polygon id="Vector_111" class="fil26" points="1724.45,1440.61 1792.56,1471.53 1877.11,1467.78 1811.1,1419.53 1715.42,1399.82 "/>
       <polygon id="Vector_112" class="fil29" points="1732.67,1380.24 1590.08,1354.19 1715.47,1399.95 "/>
       <polygon id="Vector_113" class="fil33" points="1761.51,1363.42 1692.49,1344.02 1656.85,1349.55 1685.38,1371.64 1733.68,1379.51 "/>
       <polygon id="Vector_114" class="fil33" points="1590.06,1354.19 1619.88,1432.31 1724.47,1440.73 1715.43,1399.94 "/>
       <polygon id="Vector_115" class="fil34" points="1893.84,1542.59 1779.32,1483 1792.64,1471.64 "/>
       <polygon id="Vector_116" class="fil35" points="1724.54,1440.73 1779.3,1482.99 1792.63,1471.64 "/>
       <polygon id="Vector_117" class="fil36" points="1893.66,1542.46 1908.23,1607.25 1619.88,1432.31 1724.47,1440.73 1779.15,1482.88 "/>
       <polygon id="Vector_118" class="fil37" points="1550.03,1316.43 1615.87,1358.89 1590.1,1354.19 1601.7,1384.55 1447.39,1362.73 "/>
       <polygon id="Vector_119" class="fil35" points="1656.99,1349.56 1550.1,1316.43 1615.93,1358.89 1685.52,1371.65 "/>
       <polygon id="Vector_120" class="fil33" points="1684.6,1471.59 1572,1445.37 1447.48,1362.85 1601.7,1384.55 1619.92,1432.31 "/>
       <polygon id="Vector_121" class="fil35" points="1821.37,1554.47 1599.36,1517.77 1571.96,1445.25 1684.56,1471.47 "/>
       <polygon id="Vector_122" class="fil34" points="1746.74,1625.61 1599.36,1517.77 1821.45,1554.58 "/>
       <polygon id="Vector_123" class="fil38" points="1852.47,1610.51 1746.74,1625.61 1821.45,1554.58 "/>
       <polygon id="Vector_124" class="fil29" points="1877.82,1710.06 1746.74,1625.61 1852.4,1610.4 "/>
       <polygon id="Vector_125" class="fil33" points="1989.23,1712.75 1877.84,1710.06 1852.4,1610.4 "/>
       <polygon id="Vector_126" class="fil23" points="1870.58,1429.04 1840.38,1420.98 1851.53,1432.19 1864.56,1435.38 "/>
       <polygon id="Vector_127" class="fil39" points="1541.28,1433.6 1505.21,1431.54 1525.62,1460.84 1561.68,1462.9 "/>
       <polygon id="Vector_128" class="fil40" points="1457.23,1415.12 1434.53,1413.82 1447.43,1432.35 1470.14,1433.65 "/>
       <polygon id="Vector_129" class="fil39" points="1464.09,1387.04 1446.24,1386.02 1456.4,1400.61 1474.25,1401.63 "/>
       <polygon id="Vector_130" class="fil40" points="1462.35,1450.34 1439.66,1449.04 1452.48,1467.46 1475.17,1468.75 "/>
       <polygon id="Vector_131" class="fil40" points="1534.18,1479.35 1516.36,1478.33 1526.52,1492.92 1544.34,1493.94 "/>
       <polygon id="Vector_132" class="fil39" points="1501.6,1454.03 1492.87,1453.53 1497.78,1460.58 1506.51,1461.08 "/>
       <polygon id="Vector_133" class="fil39" points="1565.53,1486.81 1556.79,1486.31 1561.72,1493.38 1570.45,1493.88 "/>
       <polygon id="Vector_134" class="fil41" points="1510.19,1491.66 1474.11,1489.6 1494.52,1518.91 1530.61,1520.97 "/>
       <polygon id="Vector_135" class="fil42" points="1485.56,1519.51 1476.83,1519.01 1481.83,1526.19 1490.56,1526.69 "/>
       <polygon id="Vector_136" class="fil40" points="1591.06,1524.75 1573.21,1523.73 1583.29,1538.21 1601.14,1539.23 "/>
       <polygon id="Vector_137" class="fil39" points="1569.85,1544.56 1552,1543.54 1562.16,1558.13 1580.01,1559.15 "/>
       <polygon id="Vector_138" class="fil40" points="1599.16,1575.93 1581.33,1574.91 1591.49,1589.5 1609.32,1590.52 "/>
       <polygon id="Vector_139" class="fil40" points="1655.46,1567.69 1619.38,1565.63 1639.79,1594.93 1675.86,1596.99 "/>
       <polygon id="Vector_140" class="fil39" points="1531.77,1558.73 1523.05,1558.24 1527.97,1565.3 1536.69,1565.8 "/>
       <polygon id="Vector_141" class="fil43" points="1617.68,1614.36 1599.83,1613.34 1609.99,1627.93 1627.84,1628.95 "/>
       <polygon id="Vector_142" class="fil40" points="1675.4,1611.08 1657.55,1610.06 1667.64,1624.55 1685.49,1625.57 "/>
       <polygon id="Vector_143" class="fil42" points="1729.45,1628.62 1720.72,1628.13 1725.65,1635.2 1734.38,1635.7 "/>
       <polygon id="Vector_144" class="fil42" points="1703.03,1647.14 1694.3,1646.64 1699.23,1653.71 1707.95,1654.21 "/>
       <polygon id="Vector_145" class="fil42" points="1664.99,1652.97 1656.28,1652.48 1661.2,1659.55 1669.92,1660.04 "/>
       <polygon id="Vector_146" class="fil43" points="1714.11,1665.01 1696.26,1663.99 1706.42,1678.58 1724.27,1679.6 "/>
       <polygon id="Vector_147" class="fil43" points="1763.71,1663.95 1745.85,1662.93 1756.02,1677.53 1773.87,1678.55 "/>
       <polygon id="Vector_148" class="fil43" points="1764.25,1688.79 1746.4,1687.77 1756.47,1702.24 1774.32,1703.26 "/>
       <polygon id="Vector_149" class="fil39" points="1717.82,1688.58 1699.97,1687.56 1710.04,1702.04 1727.9,1703.06 "/>
       <polygon id="Vector_150" class="fil39" points="1805.2,1721.38 1796.48,1720.88 1801.49,1728.06 1810.2,1728.56 "/>
       <polygon id="Vector_151" class="fil39" points="1792.91,1728.13 1775.06,1727.11 1785.22,1741.7 1803.07,1742.72 "/>
       <polygon id="Vector_152" class="fil39" points="1854.75,1764.13 1846.01,1763.63 1850.94,1770.7 1859.67,1771.2 "/>
       <polygon id="Vector_153" class="fil43" points="1816.83,1689.67 1794.13,1688.37 1807.04,1706.91 1829.74,1708.2 "/>
       <polygon id="Vector_154" class="fil43" points="1895.28,1725.41 1859.19,1723.35 1879.6,1752.65 1915.68,1754.71 "/>
       <polygon id="Vector_155" class="fil39" points="1854.54,1736.86 1836.69,1735.85 1846.77,1750.33 1864.62,1751.35 "/>
       <polygon id="Vector_156" class="fil39" points="1880.9,1755.06 1872.18,1754.56 1877.1,1761.62 1885.81,1762.12 "/>
       <polygon id="Vector_157" class="fil39" points="1895.11,1774.89 1877.26,1773.87 1887.34,1788.34 1905.19,1789.36 "/>
       <polygon id="Vector_158" class="fil39" points="1958.36,1796.18 1940.51,1795.16 1950.59,1809.64 1968.44,1810.66 "/>
       <polygon id="Vector_159" class="fil39" points="1980.08,1779.51 1957.37,1778.22 1970.2,1796.64 1992.92,1797.94 "/>
       <polygon id="Vector_160" class="fil43" points="1933.63,1728.59 1915.8,1727.58 1925.88,1742.05 1943.71,1743.07 "/>
       <polygon id="Vector_161" class="fil44" points="2032.93,1737.71 1996.85,1735.65 2017.34,1765.07 2053.42,1767.13 "/>
       <polygon id="Vector_162" class="fil39" points="1966.77,1763.07 1958.03,1762.57 1962.96,1769.64 1971.69,1770.14 "/>
       <polygon id="Vector_163" class="fil39" points="1981.34,1742.67 1972.62,1742.17 1977.53,1749.23 1986.25,1749.72 "/>
       <polygon id="Vector_164" class="fil39" points="2022.91,1791.42 2005.05,1790.4 2015.13,1804.88 2032.99,1805.89 "/>
       <polygon id="Vector_165" class="fil39" points="1926.55,1783.25 1917.8,1782.75 1922.72,1789.81 1931.46,1790.31 "/>
       <polygon id="Vector_166" class="fil42" points="2023.14,1816.01 2014.42,1815.51 2019.33,1822.57 2028.06,1823.07 "/>
       <polygon id="Vector_167" class="fil39" points="2067.86,1760.39 2059.13,1759.9 2064.05,1766.95 2072.77,1767.45 "/>
       <polygon id="Vector_168" class="fil39" points="2182.82,1843.69 2174.09,1843.19 2179.01,1850.25 2187.73,1850.75 "/>
       <polygon id="Vector_169" class="fil39" points="2178.47,1807.96 2169.74,1807.47 2174.66,1814.54 2183.4,1815.03 "/>
       <polygon id="Vector_170" class="fil41" points="2211.35,1815.63 2202.63,1815.13 2207.55,1822.19 2216.27,1822.69 "/>
       <polygon id="Vector_171" class="fil43" points="2255.36,1835.49 2246.63,1834.99 2251.56,1842.06 2260.29,1842.56 "/>
       <polygon id="Vector_172" class="fil41" points="2315.44,1791.76 2306.7,1791.26 2311.71,1798.44 2320.44,1798.94 "/>
       <polygon id="Vector_173" class="fil43" points="2279.29,1827.06 2270.56,1826.57 2275.56,1833.75 2284.29,1834.25 "/>
       <polygon id="Vector_174" class="fil39" points="2084.23,1796.14 2061.52,1794.84 2074.42,1813.38 2097.13,1814.67 "/>
       <polygon id="Vector_175" class="fil39" points="2151.66,1817.56 2128.96,1816.27 2141.78,1834.68 2164.48,1835.97 "/>
       <polygon id="Vector_176" class="fil39" points="2125.07,1785.9 2107.23,1784.88 2117.31,1799.36 2135.15,1800.38 "/>
       <polygon id="Vector_177" class="fil39" points="2129.92,1832.56 2112.08,1831.54 2122.24,1846.13 2140.08,1847.14 "/>
       <polygon id="Vector_178" class="fil39" points="2088.68,1821.97 2070.84,1820.95 2081,1835.54 2098.84,1836.56 "/>
       <polygon id="Vector_179" class="fil39" points="2217.03,1835.08 2199.18,1834.06 2209.26,1848.54 2227.11,1849.56 "/>
       <polygon id="Vector_180" class="fil41" points="2246.79,1810.98 2228.94,1809.96 2239.1,1824.55 2256.95,1825.57 "/>
       <polygon id="Vector_181" class="fil41" points="2296.59,1804.37 2278.74,1803.35 2288.82,1817.83 2306.67,1818.84 "/>
      </g>
     </g>
     <polygon class="fil8" style="mask:url(#id1)" points="1003.89,2069.26 1004.16,2032.25 1128.49,734.64 2983,1821.27 2059.74,2448.29 1607.75,2540.86 1462.16,2543.42 1385.77,2514.56 "/>
     <g>
      <path class="fil45" d="M2201.44 299.32c155.14,0 242.8,163.76 195.78,365.77 -47.01,202 -210.89,365.76 -366.02,365.76 -155.14,0 -242.8,-163.76 -195.78,-365.76 47,-202.01 210.88,-365.77 366.02,-365.77z"/>
      <path class="fil46" d="M2193.23 334.61c-140.17,0 -288.23,147.96 -330.7,330.47 -42.48,182.52 36.72,330.47 176.89,330.47 140.17,0 288.23,-147.95 330.7,-330.47 42.48,-182.52 -36.72,-330.47 -176.89,-330.47z"/>
      <circle class="fil23" transform="matrix(0.220476 -0 -0.0668106 0.287085 2116.33 665.083)" r="1072.92"/>
      <g>
       <polygon class="fil25" points="1926.59,685.52 1926.29,688.33 1926.27,690.8 1926.53,692.95 1927.04,694.8 1927.79,696.38 1928.74,697.69 1929.91,698.74 1931.27,699.56 1932.81,700.15 1934.49,700.52 1936.32,700.71 1938.28,700.71 1940.34,700.53 1942.49,700.23 1944.73,699.78 1947.03,699.2 1949.37,698.53 1951.73,697.76 1954.12,696.91 1956.49,696.01 1958.87,695.05 1961.19,694.06 1963.47,693.06 1965.69,692.04 1967.81,691.06 1969.84,690.1 1971.75,689.17 1973.55,688.3 1975.18,687.51 1976.65,686.81 1977.94,686.21 1979.05,685.73 1978.72,687.24 1978.32,688.98 1977.87,690.95 1977.34,693.11 1976.77,695.46 1976.13,697.98 1975.46,700.63 1974.73,703.43 1973.97,706.36 1973.16,709.39 1972.33,712.52 1971.47,715.7 1970.58,718.96 1969.68,722.26 1968.75,725.59 1967.82,728.93 1966.88,732.27 1965.93,735.6 1964.99,738.87 1964.05,742.1 1963.12,745.28 1962.21,748.37 1961.32,751.37 1960.44,754.24 1959.6,757 1958.77,759.62 1958,762.08 1957.25,764.35 1956.55,766.44 1955.89,768.34 1955.29,770.02 1954.75,771.44 1954.24,772.73 1953.72,773.97 1953.19,775.18 1952.67,776.37 1952.14,777.53 1951.61,778.66 1951.06,779.78 1950.53,780.86 1949.98,781.92 1949.42,782.97 1948.87,783.99 1948.3,785.02 1947.74,785.99 1947.16,786.97 1946.58,787.94 1946,788.89 1945.42,789.83 1944.82,790.76 1944.22,791.68 1943.62,792.6 1943.01,793.5 1942.38,794.42 1941.76,795.32 1941.14,796.21 1940.52,797.11 1939.87,798.01 1939.22,798.93 1938.56,799.84 1937.92,800.75 1937.25,801.67 1936.58,802.6 1935.9,803.54 1935.32,804.36 1934.72,805.22 1934.12,806.13 1933.51,807.08 1932.88,808.07 1932.23,809.11 1931.59,810.19 1930.94,811.3 1930.3,812.43 1929.66,813.58 1929.01,814.77 1928.36,815.97 1927.74,817.21 1927.12,818.45 1926.51,819.71 1925.93,820.97 1925.36,822.25 1924.81,823.54 1924.28,824.8 1923.77,826.08 1923.29,827.36 1922.83,828.63 1922.42,829.89 1922.03,831.14 1921.69,832.37 1921.36,833.59 1921.1,834.78 1920.86,835.97 1920.68,837.1 1920.55,838.21 1920.46,839.3 1920.43,840.35 1920.78,841.09 1921.2,841.82 1921.64,842.56 1922.12,843.28 1922.63,843.98 1923.19,844.69 1923.77,845.37 1924.38,846.06 1925.03,846.72 1925.7,847.37 1926.4,848 1927.12,848.62 1927.88,849.21 1928.68,849.79 1929.48,850.34 1930.32,850.87 1931.17,851.37 1932.05,851.84 1932.94,852.3 1933.85,852.73 1934.78,853.13 1935.74,853.49 1936.7,853.82 1937.68,854.12 1938.69,854.37 1939.69,854.6 1940.72,854.78 1941.76,854.92 1942.81,855.04 1943.85,855.1 1944.92,855.13 1945.98,855.1 1948.39,854.9 1950.5,854.51 1952.33,853.94 1953.91,853.19 1955.27,852.28 1956.42,851.19 1957.38,849.95 1958.16,848.55 1958.79,847 1959.31,845.3 1959.7,843.47 1960.01,841.5 1960.25,839.4 1960.45,837.19 1960.61,834.84 1960.77,832.37 1960.95,829.8 1961.15,827.13 1961.4,824.37 1961.73,821.5 1962.16,818.56 1962.69,815.52 1963.37,812.41 1964.2,809.23 1965.2,805.98 1966.4,802.67 1967.81,799.28 1969.47,795.86 1971.37,792.38 1973.55,788.87 1976.02,785.31 1978.82,781.73 1979.57,780.82 1980.31,779.94 1981.06,779.08 1981.79,778.23 1982.55,777.37 1983.29,776.54 1984.03,775.72 1984.78,774.91 1985.55,774.09 1986.29,773.29 1987.05,772.48 1987.81,771.69 1988.58,770.88 1989.34,770.08 1990.12,769.27 1990.9,768.46 1991.69,767.65 1992.48,766.82 1993.27,765.99 1994.08,765.16 1994.9,764.3 1995.72,763.44 1996.55,762.55 1997.38,761.67 1998.23,760.76 1999.09,759.82 1999.94,758.87 2000.82,757.89 2001.71,756.89 2002.61,755.87 2003.52,754.82 2004.44,753.76 2005.25,753.77 2006.12,753.8 2007.05,753.86 2008.01,753.91 2009.01,753.97 2010.05,754.04 2011.12,754.1 2012.23,754.18 2013.35,754.27 2014.49,754.36 2015.66,754.44 2016.84,754.54 2018.04,754.61 2019.24,754.71 2020.44,754.8 2021.64,754.87 2022.84,754.95 2024.03,755.01 2025.21,755.09 2026.39,755.13 2027.53,755.19 2028.66,755.23 2029.77,755.26 2030.84,755.27 2031.88,755.27 2032.89,755.26 2033.84,755.23 2034.77,755.18 2035.64,755.13 2036.47,755.05 2037.24,754.95 2037.96,754.84 2038.86,754.65 2039.77,754.45 2040.69,754.24 2041.62,754.04 2042.55,753.8 2043.49,753.55 2044.43,753.31 2045.37,753.05 2046.31,752.78 2047.27,752.51 2048.22,752.23 2049.17,751.96 2050.11,751.67 2051.07,751.39 2052.02,751.11 2052.97,750.82 2053.92,750.53 2054.87,750.26 2055.81,749.98 2056.77,749.71 2057.7,749.45 2058.64,749.18 2059.57,748.94 2060.5,748.7 2061.42,748.47 2062.35,748.24 2063.26,748.02 2064.16,747.85 2065.05,747.67 2065.95,747.5 2066.83,747.36 2067.71,747.22 2067.72,747.59 2067.7,748.19 2067.67,749.03 2067.59,750.06 2067.51,751.29 2067.4,752.71 2067.27,754.27 2067.11,755.98 2066.95,757.83 2066.77,759.79 2066.57,761.86 2066.37,764 2066.16,766.2 2065.93,768.47 2065.69,770.79 2065.45,773.11 2065.21,775.45 2064.97,777.78 2064.73,780.1 2064.49,782.36 2064.24,784.57 2064.01,786.71 2063.78,788.76 2063.57,790.72 2063.36,792.56 2063.14,794.28 2062.96,795.83 2062.78,797.23 2062.62,798.45 2062.48,799.49 2062.35,800.3 2062.24,800.91 2061.83,802.89 2061.34,804.89 2060.82,806.82 2060.26,808.75 2059.66,810.65 2059.02,812.53 2058.34,814.39 2057.64,816.24 2056.91,818.06 2056.15,819.87 2055.36,821.67 2054.57,823.47 2053.73,825.26 2052.9,827.04 2052.05,828.82 2051.18,830.61 2050.31,832.38 2049.43,834.18 2048.56,835.97 2047.68,837.76 2046.8,839.58 2045.94,841.4 2045.07,843.24 2044.22,845.09 2043.38,846.96 2042.56,848.85 2041.76,850.76 2040.97,852.71 2040.21,854.68 2039.48,856.67 2038.79,858.7 2038.11,860.77 2039.49,861.69 2040.76,862.6 2041.96,863.48 2043.09,864.34 2044.17,865.19 2045.19,865.99 2046.15,866.75 2047.08,867.47 2047.99,868.16 2048.88,868.81 2049.75,869.41 2050.63,869.95 2051.49,870.45 2052.38,870.87 2053.3,871.23 2054.24,871.54 2055.21,871.78 2056.24,871.93 2057.32,872.01 2058.48,872.01 2059.69,871.93 2060.99,871.76 2062.37,871.5 2063.85,871.15 2065.45,870.7 2067.16,870.14 2068.97,869.49 2070.94,868.72 2073.04,867.83 2075.28,866.84 2077.68,865.74 2080.25,864.49 2080.43,863.9 2080.62,863.16 2080.83,862.26 2081.05,861.22 2081.27,860.05 2081.51,858.76 2081.75,857.37 2082.01,855.85 2082.26,854.24 2082.53,852.55 2082.79,850.78 2083.07,848.94 2083.35,847.04 2083.63,845.09 2083.92,843.11 2084.22,841.08 2084.51,839.02 2084.8,836.95 2085.11,834.89 2085.4,832.82 2085.7,830.76 2086,828.72 2086.29,826.72 2086.59,824.76 2086.88,822.83 2087.18,820.97 2087.46,819.15 2087.75,817.42 2088.03,815.78 2088.31,814.22 2088.57,812.78 2088.83,811.43 2089.21,809.59 2089.6,807.73 2089.99,805.86 2090.39,804 2090.81,802.13 2091.23,800.27 2091.67,798.4 2092.12,796.52 2092.57,794.65 2093.03,792.77 2093.5,790.9 2093.98,789.01 2094.47,787.12 2094.97,785.25 2095.48,783.36 2095.99,781.47 2096.51,779.6 2097.04,777.71 2097.58,775.82 2098.12,773.93 2098.68,772.04 2099.23,770.16 2099.82,768.27 2100.4,766.39 2100.97,764.51 2101.57,762.63 2102.17,760.76 2102.78,758.87 2103.39,756.99 2104.02,755.11 2104.65,753.25 2105.28,751.38 2106.09,751.78 2106.91,752.25 2107.76,752.78 2108.62,753.4 2109.46,754.06 2110.32,754.81 2111.16,755.62 2112,756.47 2112.83,757.36 2113.64,758.33 2114.44,759.33 2115.21,760.37 2115.95,761.47 2116.67,762.61 2117.36,763.76 2117.99,764.95 2118.59,766.18 2119.15,767.42 2119.66,768.71 2120.1,769.99 2120.5,771.3 2120.83,772.62 2121.1,773.96 2121.31,775.29 2121.43,776.64 2121.49,777.98 2121.45,779.33 2121.34,780.66 2121.15,781.99 2120.85,783.31 2120.47,784.61 2119.99,785.9 2119.58,785.89 2118.9,785.89 2118.03,785.88 2116.95,785.88 2115.73,785.89 2114.41,785.9 2113.01,785.93 2111.57,785.98 2110.14,786.04 2108.75,786.12 2107.42,786.23 2106.2,786.38 2105.14,786.54 2104.25,786.74 2103.58,786.99 2103.17,787.26 2102.98,787.56 2102.71,788.09 2102.36,788.84 2101.96,789.83 2101.51,790.99 2101.01,792.34 2100.49,793.84 2099.93,795.49 2099.38,797.26 2098.81,799.12 2098.25,801.1 2097.71,803.13 2097.21,805.22 2096.73,807.34 2096.31,809.5 2095.94,811.65 2095.66,813.79 2095.45,815.89 2095.33,817.95 2095.3,819.94 2095.39,821.84 2095.58,823.65 2095.92,825.33 2096.4,826.87 2097.03,828.27 2097.81,829.5 2098.77,830.52 2099.89,831.36 2101.22,831.96 2102.75,832.33 2104.47,832.44 2106.45,832.25 2108.38,831.86 2110.35,831.23 2112.35,830.38 2114.39,829.34 2116.45,828.11 2118.53,826.69 2120.6,825.14 2122.69,823.43 2124.76,821.58 2126.84,819.61 2128.88,817.54 2130.9,815.37 2132.89,813.12 2134.85,810.81 2136.75,808.42 2138.62,806 2140.43,803.55 2142.17,801.08 2143.83,798.6 2145.44,796.14 2146.94,793.7 2148.37,791.3 2149.7,788.93 2150.92,786.63 2152.03,784.41 2153.04,782.28 2153.91,780.24 2154.67,778.31 2155.29,776.51 2155.76,774.86 2156.08,773.36 2156.25,772.02 2156.28,770.95 2156.2,769.91 2156,768.86 2155.72,767.82 2155.36,766.78 2154.93,765.74 2154.43,764.7 2153.88,763.63 2153.29,762.58 2152.64,761.5 2151.97,760.41 2151.29,759.3 2150.58,758.17 2149.88,757.03 2149.17,755.86 2148.49,754.67 2147.82,753.45 2147.18,752.19 2146.58,750.91 2146.03,749.6 2145.56,748.22 2145.12,746.83 2144.77,745.39 2144.52,743.9 2144.34,742.37 2144.27,740.8 2144.31,739.16 2144.46,737.47 2144.74,735.73 2145.16,733.94 2145.71,732.08 2146.44,730.15 2146.77,729.32 2147.14,728.5 2147.5,727.68 2147.88,726.87 2148.29,726.06 2148.7,725.26 2149.11,724.45 2149.53,723.64 2149.97,722.84 2150.43,722.02 2150.87,721.22 2151.33,720.43 2151.79,719.62 2152.25,718.81 2152.71,717.98 2153.18,717.17 2153.64,716.36 2154.12,715.53 2154.58,714.7 2155.05,713.87 2155.51,713.04 2155.96,712.21 2156.41,711.36 2156.84,710.5 2157.28,709.64 2157.71,708.78 2158.12,707.91 2158.53,707.02 2158.93,706.12 2159.3,705.22 2159.68,704.31 2160.02,703.39 2158.51,703.08 2156.99,702.79 2155.46,702.56 2153.9,702.38 2152.34,702.21 2150.77,702.08 2149.18,701.98 2147.6,701.89 2146.01,701.82 2144.42,701.74 2142.85,701.67 2141.26,701.6 2139.69,701.52 2138.13,701.43 2136.57,701.33 2135.03,701.2 2133.5,701.04 2131.99,700.86 2130.51,700.63 2129.04,700.38 2127.59,700.07 2126.17,699.71 2124.79,699.29 2123.42,698.81 2122.1,698.26 2120.81,697.64 2119.55,696.96 2118.34,696.18 2117.16,695.32 2116.03,694.37 2114.95,693.31 2113.9,692.17 2113.19,691.26 2112.52,690.3 2111.9,689.28 2111.31,688.23 2110.78,687.14 2110.28,685.98 2109.83,684.8 2109.4,683.58 2109.02,682.32 2108.66,681.02 2108.34,679.7 2108.03,678.35 2107.74,676.98 2107.5,675.56 2107.26,674.14 2107.05,672.7 2106.85,671.22 2106.66,669.74 2106.48,668.26 2106.32,666.75 2106.16,665.24 2106.01,663.71 2105.85,662.19 2105.7,660.65 2105.55,659.13 2105.4,657.6 2105.23,656.08 2105.05,654.55 2104.87,653.05 2104.68,651.56 2104.46,650.07 2104.25,648.59 2104.04,647.44 2103.79,646.15 2103.53,644.8 2103.25,643.36 2102.96,641.87 2102.69,640.32 2102.45,638.73 2102.23,637.11 2102.08,635.45 2101.97,633.8 2101.95,632.14 2102.01,630.5 2102.18,628.87 2102.45,627.26 2102.84,625.69 2103.36,624.19 2104.81,620.76 2106.21,617.55 2107.55,614.58 2108.84,611.82 2110.08,609.28 2111.25,606.93 2112.36,604.78 2113.38,602.79 2114.34,601 2115.21,599.34 2115.97,597.86 2116.66,596.5 2117.25,595.26 2117.72,594.16 2118.08,593.16 2118.35,592.26 2118.46,591.45 2118.48,590.73 2118.35,590.06 2118.08,589.47 2117.68,588.92 2117.12,588.41 2116.41,587.92 2115.55,587.46 2114.52,587.01 2113.32,586.56 2111.95,586.1 2110.4,585.62 2108.67,585.09 2106.74,584.54 2104.63,583.94 2102.31,583.27 2100,582.63 2097.73,582.04 2095.49,581.51 2093.27,581.02 2091.07,580.61 2088.9,580.25 2086.73,579.96 2084.58,579.71 2082.47,579.54 2080.34,579.44 2078.23,579.41 2076.15,579.42 2074.05,579.51 2071.96,579.69 2069.89,579.92 2067.8,580.23 2065.73,580.61 2063.63,581.07 2061.55,581.6 2059.45,582.22 2057.35,582.91 2055.22,583.69 2053.1,584.54 2050.95,585.49 2048.79,586.5 2046.61,587.62 2044.4,588.83 2042.19,590.11 2039.94,591.49 2037.67,592.95 2035.36,594.52 2033.03,596.18 2031.97,596.99 2030.9,597.85 2029.81,598.78 2028.71,599.79 2027.6,600.84 2026.47,601.96 2025.34,603.14 2024.19,604.36 2023.04,605.63 2021.88,606.93 2020.73,608.29 2019.58,609.66 2018.44,611.09 2017.28,612.54 2016.15,613.99 2015.01,615.48 2013.9,616.98 2012.79,618.5 2011.69,620.03 2010.61,621.56 2009.56,623.1 2008.52,624.63 2007.49,626.15 2006.51,627.67 2005.53,629.17 2004.6,630.65 2003.68,632.13 2002.81,633.55 2001.96,634.95 2001.15,636.34 2000.37,637.69 1999.63,639 1998.55,640.97 1997.52,642.91 1996.51,644.84 1995.56,646.74 1994.62,648.61 1993.73,650.43 1992.86,652.24 1992.01,654 1991.18,655.73 1990.36,657.44 1989.55,659.13 1988.74,660.76 1987.95,662.36 1987.15,663.93 1986.34,665.47 1985.52,666.97 1984.69,668.43 1983.84,669.86 1982.97,671.25 1982.08,672.61 1981.14,673.93 1980.2,675.21 1979.19,676.44 1978.15,677.64 1977.07,678.8 1975.94,679.91 1974.75,680.98 1973.51,682.02 1972.19,683.01 1970.83,683.98 1969.38,684.87 1967.88,685.74 1965.42,687.06 1963.14,688.23 1961.03,689.27 1959.11,690.18 1957.33,690.96 1955.72,691.63 1954.23,692.18 1952.88,692.65 1951.66,693 1950.55,693.26 1949.56,693.43 1948.66,693.53 1947.86,693.53 1947.14,693.47 1946.5,693.35 1945.93,693.16 1945.42,692.93 1944.95,692.65 1944.54,692.31 1944.16,691.94 1943.8,691.55 1943.45,691.13 1943.13,690.68 1942.8,690.23 1942.47,689.77 1942.12,689.3 1941.75,688.86 1941.36,688.39 1940.92,687.96 1940.43,687.55 1939.89,687.16 1939.3,686.8 1938.58,686.47 1937.85,686.19 1937.1,685.96 1936.34,685.77 1935.55,685.63 1934.74,685.53 1933.93,685.45 1933.11,685.41 1932.29,685.4 1931.46,685.4 1930.64,685.4 1929.8,685.43 1929,685.45 1928.18,685.48 1927.37,685.52 "/>
       <polygon class="fil25" points="2234.42,506.4 2233.55,505.86 2232.69,505.3 2231.86,504.71 2231.05,504.1 2230.28,503.5 2229.51,502.87 2228.76,502.22 2228.02,501.58 2227.29,500.93 2226.57,500.26 2225.84,499.62 2225.13,498.95 2224.41,498.31 2223.7,497.65 2222.98,497.01 2222.23,496.38 2221.48,495.76 2220.72,495.16 2219.95,494.57 2219.13,494 2218.31,493.47 2217.46,492.93 2216.57,492.44 2215.68,491.97 2214.73,491.53 2213.74,491.11 2212.72,490.74 2211.66,490.41 2210.55,490.1 2209.4,489.84 2208.2,489.63 2206.94,489.46 2207.47,489.92 2208.12,490.35 2208.85,490.76 2209.68,491.15 2210.57,491.56 2211.53,491.98 2212.55,492.41 2213.6,492.89 2214.7,493.39 2215.83,493.95 2216.97,494.57 2218.12,495.25 2219.26,496.02 2220.4,496.87 2221.51,497.82 2222.61,498.86 2222.51,499.54 2222.6,499.67 2222.78,499.47 2222.96,499.08 2223.06,498.72 2222.99,498.56 2222.65,498.81 2221.97,499.62 2221.41,500.26 2221.07,500.45 2220.9,500.35 2220.86,500.09 2220.94,499.84 2221.07,499.73 2221.21,499.95 2221.34,500.62 2221.92,500.76 2222.49,500.93 2223.09,501.13 2223.7,501.36 2224.33,501.63 2224.95,501.94 2225.58,502.26 2226.21,502.62 2226.85,503.01 2227.49,503.41 2228.13,503.83 2228.77,504.27 2229.4,504.73 2230.03,505.19 2230.64,505.68 2231.25,506.18 2231.84,506.68 2232.42,507.2 2233,507.71 2233.55,508.22 2234.09,508.75 2234.6,509.26 2235.09,509.78 2235.55,510.29 2235.99,510.8 2236.42,511.29 2236.8,511.79 2237.16,512.26 2237.49,512.73 2237.77,513.17 2238.04,513.59 2238.25,514 2248.98,522.79 2248.18,526.23 2247.62,529.35 2247.32,532.14 2247.25,534.62 2247.39,536.82 2247.76,538.75 2248.32,540.44 2249.05,541.89 2249.97,543.12 2251.04,544.16 2252.26,545.03 2253.62,545.72 2255.1,546.28 2256.7,546.7 2258.4,547.01 2260.18,547.24 2262.05,547.4 2263.97,547.5 2265.95,547.55 2267.96,547.59 2270.01,547.63 2272.07,547.68 2274.13,547.77 2276.2,547.9 2278.23,548.1 2280.24,548.4 2282.2,548.78 2284.12,549.3 2285.94,549.95 2287.71,550.75 2289.36,551.74 2290.92,552.92 2291.46,553.39 2291.97,553.93 2292.48,554.5 2292.96,555.1 2293.41,555.74 2293.83,556.42 2294.24,557.13 2294.62,557.89 2294.97,558.67 2295.31,559.49 2295.6,560.34 2295.86,561.22 2296.1,562.13 2296.31,563.05 2296.46,564.03 2296.6,565.03 2296.69,566.04 2296.75,567.08 2296.79,568.15 2296.77,569.24 2296.71,570.37 2296.61,571.5 2296.47,572.67 2296.29,573.84 2296.08,575.04 2295.8,576.25 2295.49,577.49 2295.12,578.73 2294.72,579.99 2294.25,581.28 2293.74,582.56 2293.19,583.86 2292.15,586.02 2291.01,588.08 2289.79,590.08 2288.46,592 2287.08,593.83 2285.62,595.56 2284.12,597.2 2282.57,598.74 2280.98,600.18 2279.37,601.52 2277.74,602.73 2276.11,603.83 2274.47,604.81 2272.86,605.65 2271.27,606.37 2269.7,606.97 2268.46,607.36 2267.26,607.68 2266.11,607.94 2265.01,608.13 2263.94,608.26 2262.94,608.34 2261.97,608.35 2261.03,608.31 2260.15,608.21 2259.28,608.07 2258.48,607.88 2257.69,607.63 2256.94,607.35 2256.22,607.02 2255.52,606.64 2254.86,606.23 2254.23,605.79 2253.61,605.3 2253.03,604.78 2252.45,604.24 2251.91,603.67 2251.38,603.06 2250.86,602.45 2250.36,601.79 2249.88,601.12 2249.4,600.44 2248.95,599.73 2248.49,599.03 2248.03,598.31 2247.61,597.55 2247.16,596.82 2246.73,596.06 2246.39,595.47 2246.03,594.88 2245.67,594.26 2245.29,593.62 2244.89,592.97 2244.49,592.3 2244.07,591.61 2243.63,590.95 2243.19,590.26 2242.74,589.55 2242.29,588.84 2241.83,588.13 2241.35,587.42 2240.88,586.71 2240.38,585.99 2239.89,585.28 2239.39,584.56 2238.9,583.87 2238.39,583.18 2237.88,582.5 2237.38,581.82 2236.87,581.15 2236.35,580.5 2235.85,579.85 2235.33,579.23 2234.83,578.63 2234.31,578.05 2233.81,577.47 2233.3,576.94 2232.81,576.42 2232.3,575.93 2231.82,575.46 2230.3,574.1 2228.77,572.83 2227.23,571.67 2225.68,570.59 2224.12,569.63 2222.55,568.74 2220.98,567.95 2219.39,567.25 2217.79,566.65 2216.16,566.12 2214.54,565.69 2212.91,565.34 2211.25,565.07 2209.57,564.89 2207.89,564.79 2206.19,564.75 2204.47,564.8 2202.74,564.91 2200.99,565.11 2199.21,565.38 2197.42,565.71 2195.61,566.11 2193.78,566.58 2191.93,567.14 2190.05,567.73 2188.16,568.39 2186.25,569.11 2184.3,569.9 2182.34,570.73 2180.36,571.63 2178.34,572.58 2176.3,573.6 2174.46,574.54 2172.75,575.45 2171.18,576.32 2169.73,577.15 2168.39,577.97 2167.16,578.72 2166.03,579.45 2165.01,580.15 2164.06,580.8 2163.19,581.42 2162.4,582 2161.66,582.54 2161,583.04 2160.38,583.5 2159.81,583.92 2159.28,584.29 2158.77,584.64 2158.28,584.94 2157.81,585.21 2157.35,585.41 2156.9,585.58 2156.44,585.71 2155.95,585.8 2155.46,585.84 2154.94,585.84 2154.38,585.79 2153.79,585.69 2153.14,585.54 2152.45,585.36 2151.68,585.13 2150.86,584.85 2149.96,584.51 2147.51,583.72 2145.15,583.17 2142.83,582.86 2140.59,582.76 2138.4,582.89 2136.3,583.22 2134.26,583.74 2132.27,584.46 2130.36,585.35 2128.52,586.39 2126.74,587.58 2125.03,588.93 2123.39,590.41 2121.81,592.01 2120.31,593.72 2118.87,595.54 2117.51,597.46 2116.21,599.45 2114.98,601.5 2113.83,603.64 2112.75,605.81 2111.74,608.03 2110.8,610.28 2109.93,612.55 2109.13,614.82 2108.4,617.12 2107.75,619.39 2107.17,621.66 2106.66,623.88 2106.23,626.06 2105.88,628.19 2105.59,630.26 2105.48,631.34 2105.39,632.41 2105.32,633.46 2105.27,634.5 2105.26,635.53 2105.25,636.56 2105.27,637.56 2105.31,638.56 2105.34,639.56 2105.42,640.54 2105.5,641.51 2105.58,642.49 2105.69,643.45 2105.79,644.4 2105.92,645.37 2106.06,646.3 2106.19,647.24 2106.33,648.18 2106.48,649.12 2106.63,650.06 2106.78,650.99 2106.94,651.92 2107.08,652.85 2107.23,653.78 2107.38,654.72 2107.53,655.64 2107.67,656.58 2107.79,657.52 2107.92,658.45 2108.03,659.39 2108.13,660.34 2108.21,661.29 2108.42,663.62 2108.64,665.79 2108.84,667.83 2109.07,669.76 2109.32,671.57 2109.62,673.27 2109.94,674.91 2110.32,676.45 2110.77,677.94 2111.28,679.37 2111.88,680.76 2112.55,682.13 2113.33,683.5 2114.21,684.85 2115.21,686.21 2116.34,687.58 2116.9,688.2 2117.45,688.83 2118.02,689.43 2118.6,690.04 2119.19,690.63 2119.81,691.19 2120.43,691.76 2121.05,692.28 2121.69,692.82 2122.36,693.34 2123.02,693.84 2123.69,694.33 2124.39,694.79 2125.09,695.25 2125.8,695.7 2126.53,696.13 2127.26,696.54 2128.01,696.93 2128.77,697.31 2129.55,697.68 2130.34,698.02 2131.14,698.36 2131.95,698.67 2132.79,698.97 2133.62,699.24 2134.49,699.5 2135.35,699.76 2136.23,699.98 2137.12,700.19 2138.03,700.39 2138.95,700.57 2139.89,700.71 2141.73,700.94 2143.58,701.07 2145.44,701.08 2147.29,700.99 2149.16,700.82 2151.02,700.54 2152.89,700.18 2154.75,699.72 2156.6,699.17 2158.45,698.52 2160.29,697.82 2162.1,697.02 2163.91,696.15 2165.71,695.19 2167.47,694.16 2169.21,693.08 2170.92,691.91 2172.61,690.69 2174.27,689.41 2175.9,688.06 2177.48,686.65 2179.04,685.18 2180.55,683.68 2182.01,682.12 2183.43,680.5 2184.81,678.86 2186.12,677.17 2187.4,675.43 2188.62,673.66 2189.78,671.86 2190.88,670.03 2191.92,668.16 2191.01,667.25 2190.14,666.47 2189.34,665.79 2188.57,665.17 2187.86,664.61 2187.2,664.06 2186.57,663.54 2186.01,662.99 2185.5,662.37 2185.04,661.7 2184.63,660.93 2184.28,660.03 2183.98,658.98 2183.73,657.77 2183.54,656.37 2183.4,654.76 2183.99,655.14 2184.57,655.55 2185.11,655.96 2185.64,656.4 2186.18,656.82 2186.7,657.27 2187.2,657.71 2187.69,658.17 2188.19,658.62 2188.68,659.07 2189.16,659.53 2189.64,660.01 2190.13,660.46 2190.61,660.93 2191.09,661.39 2191.58,661.84 2192.08,662.31 2192.59,662.76 2193.1,663.19 2193.63,663.64 2194.15,664.08 2194.71,664.5 2195.27,664.93 2195.86,665.34 2196.46,665.74 2197.08,666.12 2197.72,666.5 2198.38,666.87 2199.08,667.21 2199.79,667.56 2200.52,667.88 2201.3,668.17 2201.9,668.38 2202.53,668.58 2203.22,668.74 2203.94,668.88 2204.71,669.02 2205.5,669.14 2206.33,669.24 2207.18,669.32 2208.06,669.38 2208.96,669.42 2209.88,669.45 2210.82,669.46 2211.76,669.45 2212.72,669.42 2213.68,669.37 2214.63,669.31 2215.59,669.22 2216.54,669.13 2217.5,669 2218.44,668.86 2219.36,668.69 2220.28,668.51 2221.16,668.3 2222.03,668.09 2222.87,667.85 2223.68,667.6 2224.46,667.33 2225.2,667.02 2225.9,666.71 2226.57,666.37 2227.18,666.01 2227.75,665.65 2227.47,665.12 2227.21,664.61 2226.92,664.13 2226.65,663.66 2226.38,663.19 2226.14,662.71 2225.91,662.23 2225.71,661.72 2225.53,661.19 2225.41,660.61 2225.33,660 2225.29,659.31 2225.32,658.58 2225.41,657.77 2225.57,656.87 2225.79,655.9 2226.07,654.93 2226.4,653.98 2226.76,653.07 2227.16,652.19 2227.6,651.34 2228.06,650.53 2228.55,649.78 2229.07,649.06 2229.6,648.41 2230.14,647.83 2230.71,647.29 2231.27,646.84 2231.85,646.45 2232.42,646.14 2232.99,645.92 2233.56,645.78 2234.41,645.75 2235.31,645.92 2236.24,646.25 2237.2,646.73 2238.18,647.35 2239.18,648.05 2240.2,648.84 2241.2,649.67 2242.19,650.54 2243.17,651.43 2244.13,652.28 2245.06,653.1 2245.95,653.87 2246.79,654.54 2247.58,655.09 2248.31,655.52 2249.39,656.02 2250.52,656.47 2251.7,656.86 2252.94,657.21 2254.21,657.49 2255.54,657.72 2256.88,657.91 2258.27,658.03 2259.69,658.12 2261.12,658.17 2262.59,658.16 2264.06,658.11 2265.55,658 2267.04,657.86 2268.55,657.69 2270.06,657.48 2271.56,657.22 2273.07,656.93 2274.55,656.59 2276.03,656.23 2277.48,655.85 2278.92,655.41 2280.34,654.95 2281.71,654.46 2283.07,653.93 2284.38,653.38 2285.65,652.82 2286.88,652.21 2288.05,651.6 2289.19,650.94 2290.25,650.28 2291.26,649.59 2289.95,649.68 2288.66,649.81 2287.43,649.98 2286.21,650.16 2285.02,650.35 2283.83,650.56 2282.65,650.76 2281.46,650.97 2280.24,651.15 2279.02,651.29 2277.76,651.4 2276.47,651.48 2275.13,651.49 2273.73,651.47 2272.29,651.35 2270.74,651.17 2271.98,649.27 2273.08,647.6 2274.04,646.14 2274.91,644.87 2275.7,643.75 2276.43,642.77 2277.15,641.9 2277.85,641.1 2278.57,640.37 2279.34,639.67 2280.17,638.96 2281.09,638.24 2282.13,637.45 2283.31,636.62 2284.64,635.68 2286.16,634.61 2287.16,633.9 2288.2,633.15 2289.26,632.38 2290.33,631.58 2291.43,630.75 2292.51,629.9 2293.61,629.03 2294.71,628.13 2295.8,627.23 2296.88,626.31 2297.94,625.38 2298.99,624.43 2299.99,623.48 2300.99,622.52 2301.94,621.56 2302.85,620.59 2305.3,617.79 2307.55,614.93 2309.57,612.02 2311.4,609.08 2313.05,606.09 2314.5,603.08 2315.76,600.07 2316.86,597.02 2317.79,593.98 2318.56,590.93 2319.18,587.91 2319.63,584.9 2319.95,581.91 2320.14,578.95 2320.18,576.04 2320.11,573.17 2319.92,570.35 2319.62,567.6 2319.23,564.91 2318.72,562.31 2318.12,559.79 2317.45,557.34 2316.69,555 2315.86,552.78 2314.95,550.66 2314,548.65 2312.99,546.76 2311.94,545.03 2310.83,543.44 2309.7,541.99 2308.53,540.69 2307.35,539.56 2306.17,538.57 2304.99,537.67 2303.81,536.86 2302.62,536.13 2301.42,535.48 2300.23,534.9 2299.01,534.39 2297.81,533.95 2296.6,533.55 2295.36,533.23 2294.14,532.95 2292.9,532.7 2291.65,532.52 2290.39,532.37 2289.12,532.24 2287.85,532.15 2286.57,532.1 2285.27,532.05 2283.97,532.04 2282.65,532.01 2281.32,532.01 2279.97,532 2278.62,532 2277.25,532 2275.87,531.97 2274.47,531.96 2273.06,531.91 2271.64,531.83 2270.2,531.75 2268.75,531.61 2267.27,531.45 2265.78,531.25 2265.18,530.78 2264.74,530.19 2264.46,529.5 2264.28,528.76 2264.19,527.94 2264.13,527.04 2264.07,526.11 2264,525.14 2263.86,524.14 2263.64,523.12 2263.29,522.11 2262.77,521.09 2262.06,520.09 2261.12,519.13 2259.92,518.19 2258.42,517.32 2257.95,517.06 2257.6,516.88 2257.32,516.75 2257.07,516.66 2256.8,516.61 2256.49,516.57 2256.1,516.56 2255.55,516.57 2255.05,516.58 2254.75,516.58 2254.59,516.61 2254.5,516.63 2254.41,516.66 2254.28,516.72 2254.02,516.79 2253.57,516.88 2253.27,516.95 2253.2,517.02 2253.23,517.1 2253.28,517.17 2253.25,517.21 2253.03,517.25 2252.51,517.28 2251.6,517.25 2252.03,515.87 2252.51,514.61 2253.05,513.48 2253.62,512.42 2254.22,511.43 2254.81,510.46 2255.41,509.51 2255.97,508.53 2256.49,507.5 2256.96,506.4 2257.36,505.18 2257.68,503.83 2257.88,502.34 2257.98,500.65 2257.95,498.74 2257.77,496.61 2257.65,495.69 2257.49,494.76 2257.3,493.84 2257.06,492.93 2256.77,492.04 2256.45,491.15 2256.07,490.32 2255.65,489.51 2255.15,488.75 2254.61,488.03 2254,487.38 2253.33,486.79 2252.59,486.27 2251.78,485.82 2250.9,485.48 2249.94,485.21 2249.64,486.98 2249.33,488.66 2249.03,490.29 2248.72,491.86 2248.42,493.36 2248.12,494.8 2247.8,496.2 2247.54,497.52 2247.26,498.78 2247,499.99 2246.78,501.15 2246.57,502.25 2246.39,503.29 2246.24,504.29 2246.12,505.23 2246.03,506.13 2245.99,506.99 2245.99,507.78 2246.02,508.54 2246.12,509.26 2246.25,509.93 2246.44,510.56 2246.69,511.15 2247,511.71 2247.36,512.22 2247.81,512.68 2248.31,513.13 2248.88,513.53 2249.54,513.91 2250.27,514.24 2251.07,514.56 2251.98,514.84 2250.71,520.19 2250.03,519.92 2249.32,519.59 2248.6,519.19 2247.89,518.73 2247.16,518.24 2246.41,517.7 2245.69,517.14 2244.95,516.55 2244.24,515.94 2243.52,515.34 2242.84,514.72 2242.17,514.13 2241.54,513.57 2240.92,513.02 2240.34,512.48 2239.81,512.01 2238.83,511.13 2238,510.22 2237.28,509.33 2236.7,508.42 2236.21,507.52 2235.83,506.61 2235.55,505.68 2235.36,504.76 2235.26,503.82 2235.23,502.88 2235.27,501.92 2235.37,500.95 2235.52,499.99 2235.71,498.99 2235.97,498 2236.24,496.97 2236.55,495.93 2236.86,494.88 2237.2,493.81 2237.53,492.72 2237.87,491.61 2238.18,490.48 2238.5,489.33 2238.77,488.16 2239.03,486.95 2239.25,485.74 2239.42,484.49 2239.54,483.21 2239.6,481.89 2239.58,480.57 2239.51,479.21 2239.35,477.81 2239.19,476.82 2238.99,475.87 2238.75,474.95 2238.47,474.05 2238.14,473.19 2237.76,472.37 2237.31,471.59 2236.83,470.85 2236.27,470.17 2235.65,469.54 2234.96,468.96 2234.19,468.43 2233.36,467.98 2232.45,467.57 2231.45,467.25 2230.37,466.99 2229.78,470.69 2229.31,474.07 2228.96,477.14 2228.71,479.9 2228.58,482.39 2228.54,484.61 2228.59,486.59 2228.72,488.35 2228.91,489.91 2229.17,491.26 2229.48,492.45 2229.84,493.47 2230.24,494.33 2230.66,495.09 2231.12,495.72 2231.58,496.28 2232.05,496.75 2232.51,497.18 2232.98,497.55 2233.43,497.9 2233.84,498.24 2234.23,498.59 2234.57,498.98 2234.86,499.4 2235.09,499.89 2235.26,500.45 2235.34,501.11 2235.36,501.88 2235.27,502.78 2235.1,503.82 2234.82,505.02 "/>
       <polygon class="fil25" points="2017.38,756.94 2017.13,757.95 2016.88,758.97 2016.64,759.97 2016.4,760.99 2016.18,761.97 2015.96,762.96 2015.75,763.95 2015.54,764.93 2015.34,765.9 2015.13,766.89 2014.92,767.86 2014.72,768.83 2014.5,769.81 2014.29,770.77 2014.06,771.75 2013.83,772.72 2013.61,773.69 2013.36,774.66 2013.1,775.64 2012.84,776.61 2012.56,777.59 2012.27,778.57 2011.95,779.57 2011.63,780.56 2011.28,781.55 2010.92,782.55 2010.53,783.56 2010.12,784.56 2009.68,785.59 2009.23,786.62 2008.75,787.66 2008.22,788.71 2007.47,790.13 2006.63,791.54 2005.71,792.95 2004.73,794.36 2003.68,795.79 2002.58,797.2 2001.47,798.61 2000.33,800.01 1999.16,801.43 1998,802.84 1996.84,804.24 1995.71,805.65 1994.6,807.04 1993.53,808.44 1992.52,809.84 1991.56,811.24 1990.68,812.61 1989.88,814 1989.17,815.36 1988.57,816.74 1988.08,818.1 1987.71,819.46 1987.49,820.81 1987.4,822.16 1987.49,823.49 1987.73,824.83 1988.14,826.14 1988.76,827.46 1989.56,828.76 1990.59,830.06 1991.83,831.35 1993.31,832.64 1993.74,832.96 1994.23,833.28 1994.76,833.6 1995.32,833.92 1995.94,834.23 1996.58,834.54 1997.27,834.84 1997.97,835.11 1998.69,835.4 1999.46,835.66 2000.24,835.9 2001.05,836.13 2001.87,836.36 2002.7,836.56 2003.54,836.74 2004.4,836.9 2005.24,837.04 2006.09,837.16 2006.95,837.25 2007.8,837.33 2008.64,837.37 2009.47,837.4 2010.29,837.37 2011.09,837.35 2011.88,837.27 2012.64,837.17 2013.38,837.04 2014.09,836.86 2014.76,836.66 2015.41,836.41 2016.02,836.13 2016.58,835.81 2017.02,835.14 2017.44,834.37 2017.83,833.52 2018.19,832.6 2018.55,831.58 2018.9,830.52 2019.22,829.37 2019.55,828.17 2019.86,826.88 2020.17,825.58 2020.48,824.2 2020.8,822.76 2021.12,821.3 2021.45,819.81 2021.78,818.26 2022.12,816.69 2022.49,815.08 2022.87,813.46 2023.28,811.82 2023.7,810.16 2024.16,808.49 2024.63,806.82 2025.15,805.14 2025.69,803.47 2026.28,801.8 2026.9,800.14 2027.56,798.51 2028.27,796.88 2029.04,795.28 2029.84,793.7 2030.7,792.14 2031.62,790.64 2032.4,789.43 2033.16,788.26 2033.93,787.13 2034.7,786.03 2035.47,784.95 2036.21,783.91 2036.98,782.87 2037.74,781.87 2038.49,780.86 2039.24,779.88 2039.99,778.9 2040.74,777.91 2041.47,776.95 2042.22,775.97 2042.96,775 2043.69,774.01 2044.42,773.02 2045.15,771.98 2045.88,770.96 2046.6,769.89 2047.32,768.82 2048.05,767.71 2048.77,766.57 2049.48,765.4 2050.19,764.19 2050.89,762.93 2051.6,761.64 2052.3,760.3 2052.99,758.9 2053.68,757.47 2054.38,755.95 2055.06,754.39 2053.93,754.38 2052.78,754.41 2051.64,754.47 2050.5,754.56 2049.36,754.68 2048.23,754.82 2047.08,754.98 2045.95,755.17 2044.82,755.36 2043.69,755.56 2042.55,755.78 2041.44,756 2040.33,756.22 2039.21,756.45 2038.1,756.67 2037.01,756.89 2035.68,757.12 2034.37,757.32 2033.11,757.47 2031.86,757.59 2030.64,757.69 2029.44,757.73 2028.23,757.76 2027.05,757.74 2025.87,757.72 2024.68,757.67 2023.5,757.59 2022.31,757.49 2021.11,757.37 2019.9,757.23 2018.66,757.08 "/>
       <polygon class="fil25" points="2291.88,661.1 2290.09,661.21 2288.33,661.34 2286.6,661.51 2284.89,661.69 2283.2,661.87 2281.55,662.06 2279.89,662.25 2278.27,662.43 2276.66,662.61 2275.07,662.76 2273.48,662.89 2271.92,663 2270.36,663.08 2268.81,663.1 2267.26,663.1 2265.73,663.04 2264.2,662.93 2262.67,662.75 2261.14,662.51 2259.61,662.21 2258.08,661.83 2256.56,661.37 2255.02,660.8 2253.47,660.16 2251.93,659.43 2250.37,658.58 2248.8,657.61 2247.22,656.56 2245.63,655.37 2244.01,654.07 2242.39,652.63 2240.73,651.05 2239.91,650.3 2239.05,649.63 2238.14,649.05 2237.21,648.58 2236.26,648.23 2235.31,648.02 2234.35,647.97 2233.4,648.09 2232.47,648.39 2231.57,648.89 2230.71,649.64 2229.88,650.59 2229.12,651.78 2228.43,653.26 2227.81,655.01 2227.25,657.05 2227.05,658.24 2226.99,659.39 2227.05,660.47 2227.23,661.48 2227.54,662.45 2227.97,663.34 2228.51,664.17 2229.14,664.95 2229.87,665.67 2230.68,666.35 2231.58,666.97 2232.55,667.56 2233.58,668.07 2234.67,668.56 2235.82,669.01 2237.01,669.39 2238.24,669.75 2239.5,670.08 2240.81,670.34 2242.12,670.6 2243.44,670.8 2244.77,670.98 2246.09,671.14 2247.42,671.27 2248.72,671.36 2250.02,671.42 2251.28,671.47 2252.49,671.5 2253.68,671.5 2254.82,671.5 2255.9,671.47 2256.92,671.42 2257.93,671.36 2258.97,671.29 2260.05,671.19 2261.15,671.09 2262.27,670.97 2263.4,670.83 2264.55,670.67 2265.71,670.5 2266.9,670.31 2268.09,670.1 2269.29,669.87 2270.49,669.63 2271.7,669.38 2272.9,669.1 2274.1,668.8 2275.3,668.51 2276.49,668.17 2277.67,667.83 2278.85,667.47 2279.99,667.08 2281.13,666.68 2282.25,666.26 2283.35,665.84 2284.42,665.39 2285.47,664.91 2286.49,664.42 2287.48,663.91 2288.44,663.39 2289.36,662.84 2290.24,662.28 2291.08,661.7 "/>
       <polygon class="fil25" points="2203.39,523.74 2204.69,523.98 2205.96,524.21 2207.22,524.42 2208.43,524.63 2209.64,524.82 2210.8,524.98 2211.95,525.14 2213.07,525.27 2214.17,525.37 2215.27,525.45 2216.33,525.5 2217.36,525.5 2218.4,525.48 2219.42,525.42 2220.43,525.33 2221.41,525.19 2222.4,525.01 2223.37,524.78 2224.33,524.51 2225.29,524.17 2226.23,523.8 2227.19,523.37 2228.12,522.88 2229.07,522.32 2230,521.71 2230.94,521.03 2231.88,520.28 2232.83,519.47 2233.78,518.59 2234.74,517.63 2235.7,516.58 2236.67,515.48 2235.57,514.84 2234.55,514.22 2233.57,513.62 2232.63,513.05 2231.7,512.54 2230.79,512.06 2229.86,511.65 2228.9,511.32 2227.93,511.06 2226.9,510.88 2225.8,510.83 2224.63,510.85 2223.37,511.02 2222,511.32 2220.53,511.74 2218.91,512.32 2217.82,512.77 2216.71,513.26 2215.61,513.78 2214.51,514.36 2213.42,514.97 2212.34,515.61 2211.28,516.29 2210.25,517.01 2209.24,517.74 2208.26,518.54 2207.33,519.33 2206.43,520.17 2205.59,521.03 2204.8,521.9 2204.06,522.82 "/>
       <polygon class="fil25" points="2186.51,507.94 2186.83,508.77 2187.2,509.53 2187.62,510.22 2188.09,510.84 2188.62,511.39 2189.18,511.87 2189.78,512.28 2190.42,512.64 2191.1,512.93 2191.81,513.17 2192.55,513.33 2193.32,513.45 2194.11,513.51 2194.94,513.52 2195.79,513.48 2196.64,513.39 2197.52,513.27 2198.41,513.09 2199.31,512.87 2200.22,512.61 2201.14,512.32 2202.05,511.98 2202.97,511.61 2203.9,511.21 2204.81,510.78 2205.71,510.31 2206.63,509.82 2207.51,509.31 2208.38,508.77 2209.25,508.22 2210.08,507.64 2210.9,507.05 2218.49,500.49 2218.56,500.43 2218.62,500.36 2218.7,500.28 2218.78,500.22 2218.86,500.14 2218.94,500.06 2219.03,499.98 2219.11,499.91 2217.81,499.46 2216.66,499.05 2215.6,498.69 2214.63,498.37 2213.72,498.11 2212.86,497.91 2212.01,497.76 2211.18,497.69 2210.32,497.68 2209.44,497.75 2208.49,497.88 2207.45,498.11 2206.32,498.42 2205.07,498.82 2203.68,499.32 2202.12,499.91 2201.43,500.19 2200.59,500.54 2199.64,500.95 2198.59,501.43 2197.48,501.93 2196.32,502.47 2195.11,503.04 2193.9,503.63 2192.72,504.22 2191.56,504.82 2190.46,505.41 2189.43,505.98 2188.49,506.54 2187.69,507.05 2187.02,507.51 "/>
       <polygon class="fil25" points="2215.42,487.82 2215.58,486.53 2215.71,485.22 2215.84,483.9 2215.96,482.56 2216.07,481.23 2216.17,479.89 2216.24,478.54 2216.28,477.21 2216.31,475.88 2216.31,474.57 2216.28,473.28 2216.23,472 2216.12,470.77 2215.99,469.56 2215.83,468.38 2215.62,467.25 2215.37,466.16 2215.07,465.13 2214.72,464.14 2214.32,463.22 2213.87,462.36 2213.36,461.56 2212.79,460.84 2212.17,460.2 2211.47,459.64 2210.72,459.15 2209.9,458.76 2209,458.47 2208.03,458.26 2206.99,458.16 2205.87,458.17 2204.67,458.3 2204.59,459.3 2204.53,460.39 2204.51,461.54 2204.49,462.76 2204.51,464 2204.54,465.28 2204.6,466.56 2204.66,467.84 2204.74,469.13 2204.84,470.37 2204.97,471.58 2205.1,472.72 2205.24,473.82 2205.41,474.82 2205.58,475.74 2205.77,476.54 2206.07,477.72 2206.4,478.8 2206.74,479.79 2207.11,480.67 2207.51,481.5 2207.94,482.25 2208.4,482.95 2208.92,483.59 2209.48,484.19 2210.11,484.74 2210.8,485.27 2211.56,485.78 2212.39,486.29 2213.33,486.79 2214.33,487.3 "/>
       <polygon class="fil25" points="2173.9,491.48 2174.12,492.21 2174.42,492.91 2174.76,493.52 2175.16,494.11 2175.6,494.63 2176.11,495.1 2176.66,495.52 2177.25,495.88 2177.89,496.21 2178.58,496.46 2179.29,496.68 2180.05,496.84 2180.84,496.95 2181.68,497.01 2182.54,497.04 2183.43,497 2184.35,496.93 2185.3,496.78 2186.27,496.6 2187.26,496.37 2188.27,496.1 2189.3,495.78 2190.35,495.41 2191.42,495 2192.5,494.54 2193.58,494.02 2194.66,493.48 2195.77,492.89 2196.87,492.24 2197.97,491.57 2199.07,490.84 2200.18,490.07 2200.25,490.01 2200.34,489.97 2200.42,489.9 2200.49,489.85 2200.56,489.78 2200.65,489.73 2200.71,489.68 2200.78,489.63 2202.03,488.67 2201.15,488.21 2200.35,487.7 2199.61,487.19 2198.92,486.67 2198.23,486.16 2197.57,485.66 2196.9,485.19 2196.2,484.75 2195.47,484.36 2194.68,484.03 2193.81,483.77 2192.86,483.59 2191.79,483.53 2190.6,483.54 2189.28,483.68 2187.79,483.97 2186.94,484.17 2186.05,484.43 2185.13,484.75 2184.19,485.11 2183.23,485.5 2182.27,485.96 2181.3,486.43 2180.34,486.93 2179.4,487.46 2178.47,488.01 2177.59,488.59 2176.75,489.15 2175.95,489.74 2175.19,490.32 2174.51,490.9 "/>
       <polygon class="fil47" points="2205.36,615.4 2204.7,617.02 2204.3,618.48 2204.15,619.8 2204.21,620.94 2204.47,621.91 2204.89,622.75 2205.45,623.43 2206.11,623.96 2206.86,624.35 2207.69,624.6 2208.54,624.7 2209.4,624.67 2210.24,624.5 2211.06,624.19 2211.79,623.75 2212.43,623.2 2213.21,622.22 2213.74,621.25 2214.04,620.28 2214.12,619.35 2214.02,618.43 2213.74,617.59 2213.31,616.82 2212.74,616.11 2212.05,615.5 2211.26,615.02 2210.38,614.66 2209.44,614.45 2208.44,614.41 2207.42,614.54 2206.38,614.86 "/>
      </g>
      <path class="fil24" d="M2205.69 309.58c-2.2,-0.06 -4.4,-0.09 -6.61,-0.1l-1.99 8.56c2.17,0.01 4.33,0.04 6.48,0.1l2.11 -8.56 -6.79 -0.1 -1.95 8.56 0.14 0 8.6 -8.45zm-40.57 2.52c-2.25,0.35 -4.6,0.67 -6.86,1.15l-0.97 8.46c2.21,-0.46 4.49,-0.78 6.69,-1.12l1.15 -8.49zm-41.44 10.03c-2.32,0.76 -4.63,1.56 -6.95,2.39l0 8.19c2.26,-0.81 4.52,-1.59 6.78,-2.33l0.16 -8.24zm-41.62 17.39c-2.3,1.17 -4.59,2.36 -6.89,3.59l1.02 7.73c2.24,-1.2 4.48,-2.37 6.72,-3.5l-0.85 -7.82zm-40.88 24.36c-2.23,1.54 -4.46,3.11 -6.68,4.7l1.99 7.12c2.17,-1.56 4.34,-3.09 6.52,-4.59l-1.83 -7.23zm-39.26 30.77c-2.12,1.88 -4.23,3.78 -6.33,5.7l2.91 6.37c2.05,-1.88 4.11,-3.74 6.18,-5.57l-2.76 -6.5zm-36.85 36.52c-1.96,2.18 -3.92,4.37 -5.85,6.59l3.8 5.44c1.89,-2.17 3.79,-4.31 5.71,-6.43l-3.66 -5.6zm-33.63 41.46c-1.76,2.43 -3.51,4.87 -5.24,7.33l4.58 4.44c1.69,-2.4 3.39,-4.79 5.11,-7.16l-4.46 -4.62zm-29.7 45.57c-1.53,2.63 -3.04,5.27 -4.52,7.93l5.28 3.34c1.45,-2.59 2.91,-5.18 4.41,-7.74l-5.17 -3.52zm-25.12 48.73c-1.26,2.78 -2.48,5.56 -3.7,8.35l5.87 2.13c1.18,-2.73 2.38,-5.44 3.61,-8.15l-5.78 -2.33zm-19.97 50.84c-0.95,2.86 -1.88,5.71 -2.79,8.57l6.32 0.92c0.89,-2.81 1.81,-5.61 2.74,-8.41l-6.27 -1.08zm-14.43 51.79c-0.67,2.87 -1.26,5.79 -1.85,8.67l6.64 -0.33c0.58,-2.8 1.16,-5.65 1.81,-8.44l-6.59 0.11zm-8.67 51.73c-0.33,2.85 -0.6,5.7 -0.86,8.54l6.82 -1.56c0.26,-2.76 0.52,-5.55 0.84,-8.33l-6.8 1.35zm-2.63 50.55c0.02,2.76 0.07,5.5 0.16,8.23l6.86 -2.79c-0.08,-2.67 -0.13,-5.34 -0.15,-8.03l-6.87 2.59zm3.5 48.25c0.36,2.6 0.75,5.18 1.17,7.74l6.75 -3.94c-0.41,-2.5 -0.79,-5.02 -1.15,-7.56l-6.78 3.76zm9.52 44.93c0.69,2.39 1.41,4.75 2.16,7.09l6.5 -5c-0.73,-2.29 -1.43,-4.59 -2.11,-6.93l-6.55 4.83zm15.31 40.67c1.02,2.13 2.06,4.22 3.1,6.32l6.09 -5.98c-1.05,-1.96 -2.04,-4.09 -3.01,-6.13l-6.18 5.8zm20.77 35.57c1.3,1.81 2.62,3.61 3.96,5.37l5.58 -6.79c-1.31,-1.72 -2.6,-3.48 -3.87,-5.25l-5.67 6.67zm25.78 29.7c1.56,1.48 3.15,2.92 4.75,4.33l4.94 -7.47c-1.56,-1.39 -3.11,-2.79 -4.63,-4.23l-5.06 7.37zm30.28 23.19c1.8,1.09 3.61,2.15 5.44,3.19l4.2 -8c-1.79,-1.01 -3.56,-2.05 -5.31,-3.11l-4.33 7.92zm34.15 16.14c1.99,0.69 4,1.35 6.02,1.98l3.35 -8.36c-1.97,-0.61 -3.93,-1.25 -5.87,-1.93l-3.49 8.31zm37.26 8.73c2.14,0.28 4.3,0.51 6.46,0.72l2.44 -8.54c-2.11,-0.21 -4.21,-0.44 -6.3,-0.71l-2.61 8.52zm39.57 1.23c2.24,-0.13 4.5,-0.31 6.76,-0.52l1.49 -8.53c-2.2,0.21 -4.41,0.38 -6.59,0.51l-1.65 8.55zm41.04 -6.26c2.3,-0.55 4.61,-1.15 6.92,-1.78l0.51 -8.35c-2.26,0.61 -4.51,1.19 -6.76,1.73l-0.67 8.39zm41.65 -13.73c2.31,-0.97 4.63,-1.96 6.94,-3l-0.52 -7.98c-2.26,1.01 -4.51,1.98 -6.77,2.93l0.35 8.05zm41.36 -20.93c2.28,-1.35 4.54,-2.74 6.8,-4.15l-1.51 -7.44c-2.2,1.39 -4.42,2.73 -6.64,4.06l1.35 7.54zm40.18 -27.63c2.19,-1.71 4.35,-3.45 6.52,-5.22l-2.46 -6.76c-2.11,1.72 -4.23,3.43 -6.37,5.09l2.3 6.88zm38.17 -33.73c2.05,-2.04 4.08,-4.09 6.11,-6.16l-3.38 -5.91c-1.97,2.04 -3.97,4.03 -5.96,6.02l3.24 6.05zm35.33 -39.08c1.87,-2.31 3.72,-4.63 5.56,-6.98l-4.2 -4.96c-1.8,2.3 -3.6,4.56 -5.43,6.81l4.07 5.12zm31.76 -43.62c1.65,-2.54 3.28,-5.09 4.89,-7.65l-4.94 -3.9c-1.57,2.5 -3.17,5 -4.78,7.46l4.83 4.09zm27.5 -47.27c1.4,-2.71 2.77,-5.43 4.12,-8.17l-5.59 -2.74c-1.32,2.67 -2.66,5.32 -4.02,7.96l5.49 2.94zm22.61 -49.92c1.11,-2.83 2.2,-5.66 3.26,-8.5l-6.12 -1.5c-1.03,2.77 -2.1,5.53 -3.18,8.29l6.04 1.72zm17.24 -51.46c0.8,-2.88 1.58,-5.77 2.33,-8.65l-6.5 -0.27c-0.73,2.81 -1.49,5.63 -2.28,8.44l6.45 0.49zm11.59 -51.91c0.48,-2.87 0.95,-5.76 1.37,-8.62l-6.76 0.97c-0.41,2.8 -0.87,5.6 -1.33,8.41l6.72 -0.76zm5.69 -51.27c0.15,-2.81 0.27,-5.61 0.35,-8.41l-6.86 2.19c-0.09,2.72 -0.2,5.46 -0.35,8.2l6.85 -1.98zm-0.42 -49.54c-0.19,-2.68 -0.41,-5.35 -0.67,-8.01l-6.82 3.38c0.24,2.59 0.46,5.2 0.65,7.82l6.84 -3.19zm-6.52 -46.72c-0.53,-2.5 -1.08,-4.98 -1.67,-7.44l-6.64 4.49c0.57,2.4 1.11,4.82 1.63,7.26l6.68 -4.31zm-12.44 -42.91c-0.85,-2.26 -1.73,-4.5 -2.63,-6.72l-6.32 5.48c0.88,2.17 1.74,4.35 2.57,6.56l6.38 -5.32zm-18.08 -38.24c-1.16,-1.97 -2.32,-3.95 -3.54,-5.86l-5.85 6.4c1.17,1.88 2.31,3.79 3.45,5.72l5.94 -6.26zm-23.32 -32.73c-1.43,-1.65 -2.89,-3.28 -4.36,-4.87l-5.28 7.15c1.44,1.56 2.86,3.14 4.26,4.76l5.38 -7.03zm-28.09 -26.54c-1.69,-1.29 -3.39,-2.55 -5.11,-3.78l-4.58 7.75c1.68,1.2 3.34,2.43 4.98,3.69l4.71 -7.66zm-32.29 -19.74c-1.9,-0.9 -3.81,-1.76 -5.74,-2.59l-3.78 8.2c1.89,0.81 3.75,1.65 5.61,2.53l3.92 -8.14zm-35.81 -12.48c-2.07,-0.48 -4.16,-0.95 -6.26,-1.35l-2.89 8.47c2.05,0.4 4.08,0.85 6.1,1.32l3.04 -8.44z"/>
     </g>
     <path class="fil4" d="M2444.18 542.01c-34.95,-42.22 -29.07,-104.79 13.15,-139.76 42.22,-34.97 104.79,-29.07 139.76,13.15 34.97,42.22 29.07,104.79 -13.13,139.76 -42.22,34.98 -104.8,29.08 -139.78,-13.14z"/>
     <path class="fil4" d="M1704.78 204.24c-14.86,-17.96 -12.36,-44.57 5.58,-59.44 17.97,-14.88 44.57,-12.39 59.45,5.58 14.88,17.94 12.38,44.57 -5.58,59.45 -17.95,14.86 -44.57,12.36 -59.45,-5.59z"/>
     <polygon class="fil8" style="mask:url(#id3)" points="2552.19,1010.46 2562.57,997.81 2612.25,843.48 2693.21,539.1 2688.23,509.84 2182.57,-21.14 1583.51,1001.26 2042.71,1140.93 2061.62,1155.09 2508.6,1039.14 "/>
    </g>
   </g>
  </g>
  <polygon class="fil48" points="-0,0 4000.01,0 4000.01,4000.01 -0,4000.01 "/>
 </g>
</svg>
