<?xml version="1.0" encoding="UTF-8"?>
<!DOCTYPE svg PUBLIC "-//W3C//DTD SVG 1.1//EN" "http://www.w3.org/Graphics/SVG/1.1/DTD/svg11.dtd">
<!-- Creator: CorelDRAW 2019 (64-Bit) -->
<svg xmlns="http://www.w3.org/2000/svg" xml:space="preserve" width="5.02778in" height="2.83333in" version="1.1" style="shape-rendering:geometricPrecision; text-rendering:geometricPrecision; image-rendering:optimizeQuality; fill-rule:evenodd; clip-rule:evenodd"
viewBox="0 0 5027.78 2833.33"
 xmlns:xlink="http://www.w3.org/1999/xlink"
 xmlns:xodm="http://www.corel.com/coreldraw/odm/2003">
 <defs>
  <style type="text/css">
   <![CDATA[
    .fil2 {fill:none}
    .fil0 {fill:#F0FAF4}
    .fil1 {fill:#C0F3D4;fill-opacity:0.239216}
   ]]>
  </style>
   <clipPath id="id0">
    <path d="M218.52 0l4590.73 0c120.19,0 218.52,98.33 218.52,218.52l0 2396.29c0,120.19 -98.33,218.52 -218.52,218.52l-4590.73 0c-120.19,0 -218.52,-98.33 -218.52,-218.52l0 -2396.29c0,-120.19 98.33,-218.52 218.52,-218.52z"/>
   </clipPath>
 </defs>
 <g id="Layer_x0020_1">
  <metadata id="CorelCorpID_0Corel-Layer"/>
  <path class="fil0" d="M218.52 0l4590.73 0c120.19,0 218.52,98.33 218.52,218.52l0 2396.29c0,120.19 -98.33,218.52 -218.52,218.52l-4590.73 0c-120.19,0 -218.52,-98.33 -218.52,-218.52l0 -2396.29c0,-120.19 98.33,-218.52 218.52,-218.52z"/>
  <g style="clip-path:url(#id0)">
   <g id="_2162487727920">
    <g>
     <path id="1" class="fil1" d="M-1002.36 2035.98c187.41,-505.11 1325.31,-418.96 2541.58,192.44 1216.27,611.4 2050.33,1516.51 1862.93,2021.63 -187.41,505.11 -1325.31,418.96 -2541.58,-192.44 -1216.26,-611.4 -2050.32,-1516.51 -1862.93,-2021.62z"/>
     <g>
      <path class="fil1" d="M-3078.23 1160.7c187.41,-505.11 1325.31,-418.96 2541.58,192.44 1216.27,611.4 2050.33,1516.51 1862.93,2021.62 -187.41,505.12 -1325.3,418.96 -2541.57,-192.44 -1216.27,-611.39 -2050.33,-1516.51 -1862.93,-2021.63z"/>
      <path class="fil1" d="M1764.62 -600.28c-894.02,-557.44 -2118.42,-231.01 -2734.76,729.09 -616.35,960.1 -391.25,2190.32 502.76,2747.76 894.02,557.44 2118.41,231.02 2734.76,-729.09 616.35,-960.1 391.26,-2190.31 -502.76,-2747.76z"/>
     </g>
    </g>
   </g>
  </g>
  <path class="fil2" d="M218.52 0l4590.73 0c120.19,0 218.52,98.33 218.52,218.52l0 2396.29c0,120.19 -98.33,218.52 -218.52,218.52l-4590.73 0c-120.19,0 -218.52,-98.33 -218.52,-218.52l0 -2396.29c0,-120.19 98.33,-218.52 218.52,-218.52z"/>
 </g>
</svg>
