<?xml version="1.0" encoding="UTF-8"?>
<!DOCTYPE svg PUBLIC "-//W3C//DTD SVG 1.1//EN" "http://www.w3.org/Graphics/SVG/1.1/DTD/svg11.dtd">
<!-- Creator: CorelDRAW 2019 (64-Bit) -->
<svg xmlns="http://www.w3.org/2000/svg" xml:space="preserve" width="3.32202in" height="2.16007in" version="1.1" style="shape-rendering:geometricPrecision; text-rendering:geometricPrecision; image-rendering:optimizeQuality; fill-rule:evenodd; clip-rule:evenodd"
viewBox="0 0 3322.02 2160.07"
 xmlns:xlink="http://www.w3.org/1999/xlink"
 xmlns:xodm="http://www.corel.com/coreldraw/odm/2003">
 <defs>
  <style type="text/css">
   <![CDATA[
    .fil3 {fill:#3A9960}
    .fil1 {fill:#C1E4CD}
    .fil2 {fill:#EB9380}
    .fil0 {fill:white;fill-opacity:0.501961}
    .fil4 {fill:url(#id0)}
   ]]>
  </style>
  <linearGradient id="id0" gradientUnits="userSpaceOnUse" x1="1039.01" y1="1267.01" x2="197.03" y2="637.93">
   <stop offset="0" style="stop-opacity:1; stop-color:#E6E6E6"/>
   <stop offset="0.129412" style="stop-opacity:1; stop-color:#F2F2F2"/>
   <stop offset="1" style="stop-opacity:1; stop-color:#FEFEFE"/>
  </linearGradient>
 </defs>
 <g id="Layer_x0020_1">
  <metadata id="CorelCorpID_0Corel-Layer"/>
  <g id="_2126168565488">
   <path class="fil0" d="M1602.26 2002.04c-35.76,69.5 -217.91,113.03 -283.98,128.81l5.82 29.22c90.49,-33.55 1744.44,-109.48 1997.93,-128.76l-332.26 -390.17c-60.68,-66.76 -103.64,-123.02 -165.35,-190.59l-482.74 -556.83c-33.07,-38.87 -285.15,-341.5 -332,-374.63 77.14,176.36 129.72,258.97 148.52,476.69 23.56,272.99 -74.29,579.5 -243.3,768.37 -51.97,58.09 -201.67,243.48 -312.63,237.89z"/>
   <g>
    <path class="fil1" d="M1265 2142.57c-26.52,-54.25 -55.92,-119.39 -87.41,-167.27 -34.89,-53.05 -188.96,-159.13 -253.37,-220.25 -290.54,-275.74 -331.54,-435.04 -467.32,-825.61 -69.74,-244.63 -142.86,-227.14 151.52,-346.56 73.45,-29.8 180.26,-96.35 243.94,-40.44 37.5,32.92 192,419.17 213.79,489.97 216.19,105.96 227.47,134.31 309.82,429.81 29.05,104.22 57.8,218.81 77.49,325.79 22.86,124.2 83.43,155.16 148.79,214.03 110.96,5.59 260.65,-179.8 312.63,-237.89 169.01,-188.87 266.86,-495.38 243.3,-768.37 -18.8,-217.71 -71.38,-300.33 -148.52,-476.69l-70.96 -106.54c-80.02,-54.71 -356.65,-471.2 -968.79,-405.56 -462.04,49.54 -752.04,350.06 -876.97,641.59 -355.16,828.78 366.13,1633.98 1172.06,1493.98z"/>
    <g>
     <path class="fil2" d="M1265 2142.57l53.28 -11.72c66.07,-15.78 248.22,-59.31 283.98,-128.81 -65.37,-58.87 -125.93,-89.82 -148.79,-214.03 -19.69,-106.98 -48.44,-221.57 -77.49,-325.79 -82.35,-295.51 -93.63,-323.85 -309.82,-429.81l-113.95 -24.52c47.85,105.47 146.31,184.46 145.12,350.05 -16.62,-27.35 -539.3,-351.46 -640.43,-428.5 135.78,390.57 176.78,549.87 467.32,825.61 64.41,61.12 218.48,167.2 253.37,220.25 31.49,47.87 60.89,113.02 87.41,167.27z"/>
     <path class="fil3" d="M456.9 929.44c101.13,77.04 623.81,401.15 640.43,428.5 1.19,-165.59 -97.27,-244.58 -145.12,-350.05l113.95 24.52c-21.79,-70.8 -176.29,-457.05 -213.79,-489.97 -63.69,-55.91 -170.5,10.65 -243.94,40.44 -294.37,119.42 -221.26,101.93 -151.52,346.56z"/>
     <path class="fil4" d="M443.53 730.39l380.63 -167.93 205.48 462.09 -77.43 -16.66c47.85,105.47 146.31,184.46 145.12,350.05 -13.83,-22.75 -377.97,-250.94 -558.16,-371.33l-95.64 -256.22z"/>
    </g>
   </g>
  </g>
 </g>
</svg>
