<?xml version="1.0" encoding="UTF-8"?>
<!DOCTYPE svg PUBLIC "-//W3C//DTD SVG 1.1//EN" "http://www.w3.org/Graphics/SVG/1.1/DTD/svg11.dtd">
<!-- Creator: CorelDRAW 2019 (64-Bit) -->
<svg xmlns="http://www.w3.org/2000/svg" xml:space="preserve" width="0.827087in" height="0.728835in" version="1.1" style="shape-rendering:geometricPrecision; text-rendering:geometricPrecision; image-rendering:optimizeQuality; fill-rule:evenodd; clip-rule:evenodd"
viewBox="0 0 827.09 728.83"
 xmlns:xlink="http://www.w3.org/1999/xlink"
 xmlns:xodm="http://www.corel.com/coreldraw/odm/2003">
 <defs>
  <style type="text/css">
   <![CDATA[
    .fil1 {fill:#E4A788}
    .fil0 {fill:#FFECE2;fill-rule:nonzero;fill-opacity:0.701961}
   ]]>
  </style>
 </defs>
 <g id="Layer_x0020_1">
  <metadata id="CorelCorpID_0Corel-Layer"/>
  <g id="_1614173859328">
   <path id="Ellipse_x0020_10" class="fil0" d="M604.17 302.08c0,-166.83 -135.25,-302.08 -302.08,-302.08 -166.83,0 -302.08,135.25 -302.08,302.08 0,166.83 135.25,302.08 302.08,302.08 166.83,0 302.08,-135.25 302.08,-302.08z"/>
   <g>
    <path class="fil1" d="M276.78 260.97l-0.52 325.93c4.48,86.64 150.34,30.24 283.05,49.15l-1.39 -45.5 -238.64 0.07 -0.44 -246.2 407.35 -0.02 0.6 117.27 41.86 12.73c2.87,-53.24 0.49,-112.55 0.51,-166.33 0.03,-77.19 -0.7,-89.75 -80.17,-89.75 -3.35,32.41 7.5,73.29 -29.55,74.69 -41.89,1.58 -30.85,-43.31 -33.09,-74.45l-73.99 -0.15c-2.09,29.61 9.26,75.52 -29.48,74.53 -39.79,-1.01 -26.6,-42.07 -30.27,-74.55l-73.78 0.13c-1.97,31.23 6.53,74.19 -30.58,74.51 -39.85,0.35 -28.05,-42.32 -32.14,-74.76l-51.15 1.88c-13.76,12.28 -22.85,15.61 -27.33,36.33zm-0.51 2.54l-0.35 1.96z"/>
    <path class="fil1" d="M612.03 606.2c5.45,-50.99 37.96,-84.31 88.81,-89.85 -0.01,19.11 -4.97,22.43 10.74,25.83l1.6 -25.85c50.82,5.39 84.2,38.81 88.68,89.87 -16.67,-0.07 -19.16,-3.86 -25.2,5.94 5.57,10.4 8.33,6.48 25.13,6.36 -6.52,51.15 -36.65,81.53 -88.24,87.46 -0.67,-16.28 3.81,-18.55 -6.78,-25.89 -9.94,7.71 -5.63,10.34 -6.39,25.87 -51.3,-5.97 -81.31,-36.41 -88.27,-87.23 15.93,-0.23 19.39,3.99 26.66,-6.57 -7.7,-9.98 -11.61,-6.02 -26.76,-5.94zm-25.96 -9.49c6.26,30.86 0.81,43.53 16.73,72.26 66.4,119.83 262.65,44.98 217.65,-94.36 -14.76,-45.7 -62.61,-82.89 -93.51,-79.89 -39.85,-8.02 -73.69,6.65 -97.42,25.63 -10.65,8.52 -19.58,20.2 -27.32,34.41 -6.61,12.13 -8.96,31.24 -16.14,41.95z"/>
    <path class="fil1" d="M506.81 279.56c14.39,1.31 18.09,3 31.55,-2.32 2.31,-21.52 0.64,-45.14 0.92,-67.02 0.4,-31.3 5.36,-37.8 -29.28,-33.82 -9.91,18.54 -5.47,79.65 -3.18,103.16z"/>
    <path class="fil1" d="M373 279.52c14.25,1.35 18.11,2.91 31.46,-2.28 2.04,-21.88 0.51,-44.92 0.81,-67.02 0.42,-30.95 5.77,-38.43 -29.06,-33.63 -9.99,18.42 -5.34,79.45 -3.21,102.94z"/>
    <path class="fil1" d="M641.9 177.73c-5.21,22.44 -3.51,77.24 -1.22,101.84 14.34,1.28 18.2,2.96 31.6,-2.37 1.96,-21 0.53,-45.48 0.79,-67 0.31,-26.37 4.17,-44.07 -31.16,-32.48z"/>
    <path class="fil1" d="M449.11 375.92c-4.04,37.43 -5.55,46.64 8.33,50.42 7.24,1.97 48.06,8.31 52.62,-13.73 9.7,-46.89 -21.19,-42.07 -60.94,-36.69z"/>
    <path class="fil1" d="M622.87 375.92c-6.01,55.76 -5.43,52.02 37.15,50.72 16.7,-0.51 25.25,2.53 24.56,-28.16 -0.5,-22.93 -4.05,-30.35 -61.72,-22.56z"/>
    <path class="fil1" d="M536.49 376.43c-3.73,32.19 -5.98,45.69 8.03,49.76 11.69,3.39 41.81,1.75 48.44,-3.48 7.18,-6.63 6.19,-28.15 3.56,-37.5 -3.38,-12.03 3.24,0.01 -3.86,-6.91 -9.37,-7.69 -43.64,-4.3 -56.17,-1.86z"/>
    <path class="fil1" d="M362.89 514.19l-0.28 0.22c-2.8,36.68 -1.42,35.24 1.43,45.97 0.21,0.8 0.61,2.07 1.06,3.04 8.52,1.75 48.79,5.02 55.61,-2.22 4.81,-8.9 4.06,-32.89 1.59,-43.96l-26.51 -4.35c-11.22,0 -21.73,0.43 -32.9,1.29z"/>
    <path class="fil1" d="M451.38 563.51c9.79,1.54 17.46,1.46 27.4,1.56 16.35,0.17 22.83,1.53 28.3,-4.52 0.01,-0.01 13.94,-41.34 -7.11,-46.29l-49.85 0.61c-3.3,15.29 -4.4,34.3 1.25,48.64z"/>
    <path class="fil1" d="M535.78 443.03l0.09 49.2 51.2 1.05c9.73,-2.15 5.13,-1 9.23,-3.35l0.79 -42.4c-12.42,-9.61 -45.46,-5.04 -61.31,-4.5z"/>
    <path class="fil1" d="M362.89 493.17l59.7 -3.2 0.87 -44.59c-10.23,-3.8 -45.12,-4.35 -57.89,-1.39 -4.11,7.43 -4.65,7.19 -4.29,27.07 0.14,7.44 0.84,15.21 1.61,22.11z"/>
    <path class="fil1" d="M510.07 452.84c-6.17,-14.11 -5.94,-11.08 -27.57,-10.66 -10.57,0.2 -23.52,1.25 -32.63,-0.16l-1.48 50.72 60.52 -3.56 1.15 -36.34z"/>
    <path class="fil1" d="M696.81 564.22c-5.59,-15.9 -3.81,-19.39 -18.95,-20.26 -9.41,17.23 18.37,52.77 18.01,71.76 -0.26,14.04 -10.88,16.66 1.78,23.55 2.04,1.11 12.84,1.44 15.21,0.64 17.85,-6.09 0.18,-8.03 10.21,-29.43 6,-12.8 22.15,-26.82 18.17,-43.65 -16.54,-3.49 -15.37,6.76 -25.63,21.82 -0.42,0.61 -1.31,1.73 -1.66,2.22 -0.35,0.5 -1.48,2.78 -1.75,2.19 -0.27,-0.58 -1.18,1.48 -1.79,2.19 -5.45,-8.26 -9.5,-19.43 -13.59,-31.03z"/>
    <path class="fil1" d="M538.78 563.49l26.51 1.42c3.5,-10.53 5.68,-17.1 10.63,-25.72l16.36 -26.26 -54.91 0.91c-5.67,28.66 -2.25,41.66 1.41,49.65z"/>
    <path class="fil1" d="M683.59 447.01c-13.91,-9.22 -41.33,-2.1 -59.94,-5l-2.28 44.59c24.24,-10.58 34.32,-14.9 62.44,-23.88l-0.22 -15.72z"/>
   </g>
  </g>
 </g>
</svg>
