<?xml version="1.0" encoding="UTF-8"?>
<!DOCTYPE svg PUBLIC "-//W3C//DTD SVG 1.0//EN" "http://www.w3.org/TR/2001/REC-SVG-20010904/DTD/svg10.dtd">
<!-- Creator: CorelDRAW 2019 (64-Bit) -->
<svg xmlns="http://www.w3.org/2000/svg" xml:space="preserve" width="1.55365in" height="3.92121in" version="1.0" style="shape-rendering:geometricPrecision; text-rendering:geometricPrecision; image-rendering:optimizeQuality; fill-rule:evenodd; clip-rule:evenodd"
viewBox="0 0 1553.65 3921.2"
 xmlns:xlink="http://www.w3.org/1999/xlink"
 xmlns:xodm="http://www.corel.com/coreldraw/odm/2003">
 <defs>
  <style type="text/css">
   <![CDATA[
    .fil2 {fill:none}
    .fil0 {fill:#55BC7E;fill-rule:nonzero}
    .fil1 {fill:#55BC7E}
   ]]>
  </style>
    <clipPath id="id0">
     <path d="M156.53 1126.97c771.61,0 1397.12,625.51 1397.12,1397.12 0,771.61 -625.51,1397.12 -1397.12,1397.12 -52.93,0 -105.13,-3.04 -156.53,-8.78l0 -2776.69c51.39,-5.73 103.6,-8.78 156.53,-8.78z"/>
    </clipPath>
 </defs>
 <g id="Layer_x0020_1">
  <metadata id="CorelCorpID_0Corel-Layer"/>
  <g id="_1640509645888">
   <path id="Vector_118" class="fil0" d="M-0 0.92c397.2,-13.61 652.62,127.28 800.88,218.61 538.15,331.25 773.91,921.04 387.81,1450.31 -348.86,478.12 -596.38,137.39 -1079.21,443.96 -14.38,9.17 -28.11,18.75 -41.45,28.65 -24.25,17.79 -46.83,36.61 -68.03,56.26l0 -2197.78z"/>
   <g>
   </g>
   <g style="clip-path:url(#id0)">
    <g id="_1640509645440">
     <path id="Union" class="fil1" d="M-1029.6 1654.73l-22.48 0 0 22.5c12.37,0 22.48,-10.1 22.48,-22.5zm202.35 22.5c12.37,0 22.48,-10.1 22.48,-22.5l-44.96 0c0,12.4 10.12,22.5 22.48,22.5zm247.31 -22.5c0,12.4 -10.12,22.5 -22.48,22.5 -12.37,0 -22.48,-10.1 -22.48,-22.5l44.96 0zm202.35 22.5c12.36,0 22.48,-10.1 22.48,-22.5l-44.96 0c0,12.4 10.12,22.5 22.48,22.5zm247.31 -22.5c0,12.4 -10.12,22.5 -22.48,22.5 -12.37,0 -22.48,-10.1 -22.48,-22.5l44.96 0zm202.34 22.5c12.37,0 22.48,-10.1 22.48,-22.5l-44.96 0c0,12.4 10.11,22.5 22.48,22.5zm247.31 -22.5c0,12.4 -10.12,22.5 -22.48,22.5 -12.37,0 -22.48,-10.1 -22.48,-22.5l44.96 0zm202.34 22.5c12.37,0 22.48,-10.1 22.48,-22.5l-44.96 0c0,12.4 10.11,22.5 22.48,22.5zm247.31 -22.5c0,12.4 -10.12,22.5 -22.48,22.5 -12.37,0 -22.48,-10.1 -22.48,-22.5l44.97 0zm202.34 22.5c12.37,0 22.48,-10.1 22.48,-22.5l-44.96 0c0,12.4 10.12,22.5 22.48,22.5zm247.31 -22.5c0,12.4 -10.12,22.5 -22.49,22.5 -12.37,0 -22.48,-10.1 -22.48,-22.5l44.97 0zm202.35 22.5c12.36,0 22.48,-10.1 22.48,-22.5l-44.97 0c0,12.4 10.13,22.5 22.49,22.5zm224.82 -22.5l0 22.5c-12.37,0 -22.48,-10.1 -22.48,-22.5l22.48 0zm-2675.43 224.79c0,-12.29 -10.11,-22.5 -22.48,-22.5l0 45c12.37,0 22.48,-10.1 22.48,-22.5zm224.83 0c0,12.5 -10.07,22.5 -22.48,22.5 -12.42,0 -22.48,-10 -22.48,-22.5 0,-12.39 10.07,-22.5 22.48,-22.5 12.41,0 22.48,10.11 22.48,22.5zm202.35 22.5c12.42,0 22.48,-10 22.48,-22.5 0,-12.39 -10.06,-22.5 -22.48,-22.5 -12.42,0 -22.48,10.11 -22.48,22.5 0,12.5 10.07,22.5 22.48,22.5zm247.31 -22.5c0,12.5 -10.07,22.5 -22.48,22.5 -12.42,0 -22.48,-10 -22.48,-22.5 0,-12.39 10.07,-22.5 22.48,-22.5 12.41,0 22.48,10.11 22.48,22.5zm202.34 22.5c12.42,0 22.48,-10 22.48,-22.5 0,-12.39 -10.07,-22.5 -22.48,-22.5 -12.41,0 -22.48,10.11 -22.48,22.5 0,12.5 10.07,22.5 22.48,22.5zm247.31 -22.5c0,12.5 -10.07,22.5 -22.48,22.5 -12.42,0 -22.48,-10 -22.48,-22.5 0,-12.39 10.06,-22.5 22.48,-22.5 12.42,0 22.48,10.11 22.48,22.5zm202.34 22.5c12.42,0 22.48,-10 22.48,-22.5 0,-12.39 -10.07,-22.5 -22.48,-22.5 -12.42,0 -22.48,10.11 -22.48,22.5 0,12.5 10.06,22.5 22.48,22.5zm247.31 -22.5c0,12.5 -10.07,22.5 -22.48,22.5 -12.42,0 -22.48,-10 -22.48,-22.5 0,-12.39 10.06,-22.5 22.48,-22.5 12.42,0 22.48,10.11 22.48,22.5zm202.34 22.5c12.42,0 22.48,-10 22.48,-22.5 0,-12.39 -10.07,-22.5 -22.48,-22.5 -12.42,0 -22.48,10.11 -22.48,22.5 0,12.5 10.07,22.5 22.48,22.5zm247.31 -22.5c0,12.5 -10.06,22.5 -22.48,22.5 -12.42,0 -22.48,-10 -22.48,-22.5 0,-12.39 10.07,-22.5 22.48,-22.5 12.42,0 22.48,10.11 22.48,22.5zm202.34 22.5c12.42,0 22.49,-10 22.49,-22.5 0,-12.39 -10.07,-22.5 -22.49,-22.5 -12.42,0 -22.48,10.11 -22.48,22.5 0,12.5 10.06,22.5 22.48,22.5zm247.31 -22.5c0,12.5 -10.06,22.5 -22.48,22.5 -12.42,0 -22.49,-10 -22.49,-22.5 0,-12.39 10.07,-22.5 22.49,-22.5 12.41,0 22.48,10.11 22.48,22.5zm179.87 0c0,12.4 10.11,22.5 22.48,22.5l0 -45c-12.37,0 -22.48,10.21 -22.48,22.5zm-2675.43 202.4c12.37,0 22.48,10.1 22.48,22.5 0,12.29 -10.11,22.39 -22.48,22.39l0 -44.89zm224.83 44.89c12.41,0 22.48,-10 22.48,-22.39 0,-12.5 -10.07,-22.5 -22.48,-22.5 -12.42,0 -22.48,10 -22.48,22.5 0,12.39 10.07,22.39 22.48,22.39zm247.31 -22.39c0,12.39 -10.06,22.39 -22.48,22.39 -12.42,0 -22.48,-10 -22.48,-22.39 0,-12.5 10.07,-22.5 22.48,-22.5 12.42,0 22.48,10 22.48,22.5zm202.35 22.39c12.41,0 22.48,-10 22.48,-22.39 0,-12.5 -10.07,-22.5 -22.48,-22.5 -12.42,0 -22.48,10 -22.48,22.5 0,12.39 10.07,22.39 22.48,22.39zm247.31 -22.39c0,12.39 -10.07,22.39 -22.48,22.39 -12.41,0 -22.48,-10 -22.48,-22.39 0,-12.5 10.07,-22.5 22.48,-22.5 12.42,0 22.48,10 22.48,22.5zm202.34 22.39c12.42,0 22.48,-10 22.48,-22.39 0,-12.5 -10.07,-22.5 -22.48,-22.5 -12.42,0 -22.48,10 -22.48,22.5 0,12.39 10.06,22.39 22.48,22.39zm247.31 -22.39c0,12.39 -10.07,22.39 -22.48,22.39 -12.42,0 -22.48,-10 -22.48,-22.39 0,-12.5 10.06,-22.5 22.48,-22.5 12.42,0 22.48,10 22.48,22.5zm202.34 22.39c12.42,0 22.48,-10 22.48,-22.39 0,-12.5 -10.07,-22.5 -22.48,-22.5 -12.42,0 -22.48,10 -22.48,22.5 0,12.39 10.06,22.39 22.48,22.39zm247.31 -22.39c0,12.39 -10.07,22.39 -22.48,22.39 -12.42,0 -22.48,-10 -22.48,-22.39 0,-12.5 10.07,-22.5 22.48,-22.5 12.42,0 22.48,10 22.48,22.5zm202.34 22.39c12.42,0 22.48,-10 22.48,-22.39 0,-12.5 -10.06,-22.5 -22.48,-22.5 -12.42,0 -22.48,10 -22.48,22.5 0,12.39 10.07,22.39 22.48,22.39zm247.31 -22.39c0,12.39 -10.07,22.39 -22.49,22.39 -12.42,0 -22.48,-10 -22.48,-22.39 0,-12.5 10.06,-22.5 22.48,-22.5 12.42,0 22.49,10 22.49,22.5zm202.35 22.39c12.41,0 22.48,-10 22.48,-22.39 0,-12.5 -10.06,-22.5 -22.48,-22.5 -12.42,0 -22.49,10 -22.49,22.5 0,12.39 10.07,22.39 22.49,22.39zm224.82 0c-12.37,0 -22.48,-10.1 -22.48,-22.39 0,-12.4 10.11,-22.5 22.48,-22.5l0 44.89zm-2675.43 202.4c0,-12.4 -10.11,-22.5 -22.48,-22.5l0 45c12.37,0 22.48,-10.1 22.48,-22.5zm224.83 0c0,12.4 -10.07,22.5 -22.48,22.5 -12.42,0 -22.48,-10.1 -22.48,-22.5 0,-12.4 10.07,-22.5 22.48,-22.5 12.41,0 22.48,10.1 22.48,22.5zm202.35 22.5c12.42,0 22.48,-10.1 22.48,-22.5 0,-12.4 -10.06,-22.5 -22.48,-22.5 -12.42,0 -22.48,10.1 -22.48,22.5 0,12.4 10.07,22.5 22.48,22.5zm247.31 -22.5c0,12.4 -10.07,22.5 -22.48,22.5 -12.42,0 -22.48,-10.1 -22.48,-22.5 0,-12.4 10.07,-22.5 22.48,-22.5 12.41,0 22.48,10.1 22.48,22.5zm202.34 22.5c12.42,0 22.48,-10.1 22.48,-22.5 0,-12.4 -10.07,-22.5 -22.48,-22.5 -12.41,0 -22.48,10.1 -22.48,22.5 0,12.4 10.07,22.5 22.48,22.5zm247.31 -22.5c0,12.4 -10.07,22.5 -22.48,22.5 -12.42,0 -22.48,-10.1 -22.48,-22.5 0,-12.4 10.06,-22.5 22.48,-22.5 12.42,0 22.48,10.1 22.48,22.5zm202.34 22.5c12.42,0 22.48,-10.1 22.48,-22.5 0,-12.4 -10.07,-22.5 -22.48,-22.5 -12.42,0 -22.48,10.1 -22.48,22.5 0,12.4 10.06,22.5 22.48,22.5zm247.31 -22.5c0,12.4 -10.07,22.5 -22.48,22.5 -12.42,0 -22.48,-10.1 -22.48,-22.5 0,-12.4 10.06,-22.5 22.48,-22.5 12.42,0 22.48,10.1 22.48,22.5zm202.34 22.5c12.42,0 22.48,-10.1 22.48,-22.5 0,-12.4 -10.07,-22.5 -22.48,-22.5 -12.42,0 -22.48,10.1 -22.48,22.5 0,12.4 10.07,22.5 22.48,22.5zm247.31 -22.5c0,12.4 -10.06,22.5 -22.48,22.5 -12.42,0 -22.48,-10.1 -22.48,-22.5 0,-12.4 10.07,-22.5 22.48,-22.5 12.42,0 22.48,10.1 22.48,22.5zm202.34 22.5c12.42,0 22.49,-10.1 22.49,-22.5 0,-12.4 -10.07,-22.5 -22.49,-22.5 -12.42,0 -22.48,10.1 -22.48,22.5 0,12.4 10.06,22.5 22.48,22.5zm247.31 -22.5c0,12.4 -10.06,22.5 -22.48,22.5 -12.42,0 -22.49,-10.1 -22.49,-22.5 0,-12.4 10.07,-22.5 22.49,-22.5 12.41,0 22.48,10.1 22.48,22.5zm179.87 0c0,12.4 10.11,22.5 22.48,22.5l0 -45c-12.37,0 -22.48,10.1 -22.48,22.5zm-2675.43 202.29c12.37,0 22.48,10.21 22.48,22.5 0,12.4 -10.11,22.5 -22.48,22.5l0 -45zm224.83 45c12.41,0 22.48,-10 22.48,-22.5 0,-12.4 -10.07,-22.5 -22.48,-22.5 -12.42,0 -22.48,10.1 -22.48,22.5 0,12.5 10.07,22.5 22.48,22.5zm247.31 -22.5c0,12.5 -10.06,22.5 -22.48,22.5 -12.42,0 -22.48,-10 -22.48,-22.5 0,-12.4 10.07,-22.5 22.48,-22.5 12.42,0 22.48,10.1 22.48,22.5zm202.35 22.5c12.41,0 22.48,-10 22.48,-22.5 0,-12.4 -10.07,-22.5 -22.48,-22.5 -12.42,0 -22.48,10.1 -22.48,22.5 0,12.5 10.07,22.5 22.48,22.5zm247.31 -22.5c0,12.5 -10.07,22.5 -22.48,22.5 -12.41,0 -22.48,-10 -22.48,-22.5 0,-12.4 10.07,-22.5 22.48,-22.5 12.42,0 22.48,10.1 22.48,22.5zm202.34 22.5c12.42,0 22.48,-10 22.48,-22.5 0,-12.4 -10.07,-22.5 -22.48,-22.5 -12.42,0 -22.48,10.1 -22.48,22.5 0,12.5 10.06,22.5 22.48,22.5zm247.31 -22.5c0,12.5 -10.07,22.5 -22.48,22.5 -12.42,0 -22.48,-10 -22.48,-22.5 0,-12.4 10.06,-22.5 22.48,-22.5 12.42,0 22.48,10.1 22.48,22.5zm202.34 22.5c12.42,0 22.48,-10 22.48,-22.5 0,-12.4 -10.07,-22.5 -22.48,-22.5 -12.42,0 -22.48,10.1 -22.48,22.5 0,12.5 10.06,22.5 22.48,22.5zm247.31 -22.5c0,12.5 -10.07,22.5 -22.48,22.5 -12.42,0 -22.48,-10 -22.48,-22.5 0,-12.4 10.07,-22.5 22.48,-22.5 12.42,0 22.48,10.1 22.48,22.5zm202.34 22.5c12.42,0 22.48,-10 22.48,-22.5 0,-12.4 -10.06,-22.5 -22.48,-22.5 -12.42,0 -22.48,10.1 -22.48,22.5 0,12.5 10.07,22.5 22.48,22.5zm247.31 -22.5c0,12.5 -10.07,22.5 -22.49,22.5 -12.42,0 -22.48,-10 -22.48,-22.5 0,-12.4 10.06,-22.5 22.48,-22.5 12.42,0 22.49,10.1 22.49,22.5zm202.35 22.5c12.41,0 22.48,-10 22.48,-22.5 0,-12.4 -10.06,-22.5 -22.48,-22.5 -12.42,0 -22.49,10.1 -22.49,22.5 0,12.5 10.07,22.5 22.49,22.5zm224.82 0c-12.37,0 -22.48,-10.1 -22.48,-22.5 0,-12.29 10.11,-22.5 22.48,-22.5l0 45zm-2675.43 202.4c0,-12.4 -10.11,-22.5 -22.48,-22.5l0 44.89c12.37,0 22.48,-10.1 22.48,-22.39zm224.83 0c0,12.39 -10.07,22.39 -22.48,22.39 -12.42,0 -22.48,-10 -22.48,-22.39 0,-12.5 10.07,-22.5 22.48,-22.5 12.41,0 22.48,10 22.48,22.5zm202.35 22.39c12.42,0 22.48,-10 22.48,-22.39 0,-12.5 -10.06,-22.5 -22.48,-22.5 -12.42,0 -22.48,10 -22.48,22.5 0,12.39 10.07,22.39 22.48,22.39zm247.31 -22.39c0,12.39 -10.07,22.39 -22.48,22.39 -12.42,0 -22.48,-10 -22.48,-22.39 0,-12.5 10.07,-22.5 22.48,-22.5 12.41,0 22.48,10 22.48,22.5zm202.34 22.39c12.42,0 22.48,-10 22.48,-22.39 0,-12.5 -10.07,-22.5 -22.48,-22.5 -12.41,0 -22.48,10 -22.48,22.5 0,12.39 10.07,22.39 22.48,22.39zm247.31 -22.39c0,12.39 -10.07,22.39 -22.48,22.39 -12.42,0 -22.48,-10 -22.48,-22.39 0,-12.5 10.06,-22.5 22.48,-22.5 12.42,0 22.48,10 22.48,22.5zm202.34 22.39c12.42,0 22.48,-10 22.48,-22.39 0,-12.5 -10.07,-22.5 -22.48,-22.5 -12.42,0 -22.48,10 -22.48,22.5 0,12.39 10.06,22.39 22.48,22.39zm247.31 -22.39c0,12.39 -10.07,22.39 -22.48,22.39 -12.42,0 -22.48,-10 -22.48,-22.39 0,-12.5 10.06,-22.5 22.48,-22.5 12.42,0 22.48,10 22.48,22.5zm202.34 22.39c12.42,0 22.48,-10 22.48,-22.39 0,-12.5 -10.07,-22.5 -22.48,-22.5 -12.42,0 -22.48,10 -22.48,22.5 0,12.39 10.07,22.39 22.48,22.39zm247.31 -22.39c0,12.39 -10.06,22.39 -22.48,22.39 -12.42,0 -22.48,-10 -22.48,-22.39 0,-12.5 10.07,-22.5 22.48,-22.5 12.42,0 22.48,10 22.48,22.5zm202.34 22.39c12.42,0 22.49,-10 22.49,-22.39 0,-12.5 -10.07,-22.5 -22.49,-22.5 -12.42,0 -22.48,10 -22.48,22.5 0,12.39 10.06,22.39 22.48,22.39zm247.31 -22.39c0,12.39 -10.06,22.39 -22.48,22.39 -12.42,0 -22.49,-10 -22.49,-22.39 0,-12.5 10.07,-22.5 22.49,-22.5 12.41,0 22.48,10 22.48,22.5zm179.87 0c0,12.29 10.11,22.39 22.48,22.39l0 -44.89c-12.37,0 -22.48,10.1 -22.48,22.5zm-2675.43 202.29c12.37,0 22.48,10.1 22.48,22.5 0,12.39 -10.11,22.5 -22.48,22.5l0 -45zm224.83 45c12.41,0 22.48,-10.11 22.48,-22.5 0,-12.4 -10.07,-22.5 -22.48,-22.5 -12.42,0 -22.48,10.1 -22.48,22.5 0,12.39 10.07,22.5 22.48,22.5zm247.31 -22.5c0,12.39 -10.06,22.5 -22.48,22.5 -12.42,0 -22.48,-10.11 -22.48,-22.5 0,-12.4 10.07,-22.5 22.48,-22.5 12.42,0 22.48,10.1 22.48,22.5zm202.35 22.5c12.41,0 22.48,-10.11 22.48,-22.5 0,-12.4 -10.07,-22.5 -22.48,-22.5 -12.42,0 -22.48,10.1 -22.48,22.5 0,12.39 10.07,22.5 22.48,22.5zm247.31 -22.5c0,12.39 -10.07,22.5 -22.48,22.5 -12.41,0 -22.48,-10.11 -22.48,-22.5 0,-12.4 10.07,-22.5 22.48,-22.5 12.42,0 22.48,10.1 22.48,22.5zm202.34 22.5c12.42,0 22.48,-10.11 22.48,-22.5 0,-12.4 -10.07,-22.5 -22.48,-22.5 -12.42,0 -22.48,10.1 -22.48,22.5 0,12.39 10.06,22.5 22.48,22.5zm247.31 -22.5c0,12.39 -10.07,22.5 -22.48,22.5 -12.42,0 -22.48,-10.11 -22.48,-22.5 0,-12.4 10.06,-22.5 22.48,-22.5 12.42,0 22.48,10.1 22.48,22.5zm202.34 22.5c12.42,0 22.48,-10.11 22.48,-22.5 0,-12.4 -10.07,-22.5 -22.48,-22.5 -12.42,0 -22.48,10.1 -22.48,22.5 0,12.39 10.06,22.5 22.48,22.5zm247.31 -22.5c0,12.39 -10.07,22.5 -22.48,22.5 -12.42,0 -22.48,-10.11 -22.48,-22.5 0,-12.4 10.07,-22.5 22.48,-22.5 12.42,0 22.48,10.1 22.48,22.5zm202.34 22.5c12.42,0 22.48,-10.11 22.48,-22.5 0,-12.4 -10.06,-22.5 -22.48,-22.5 -12.42,0 -22.48,10.1 -22.48,22.5 0,12.39 10.07,22.5 22.48,22.5zm247.31 -22.5c0,12.39 -10.07,22.5 -22.49,22.5 -12.42,0 -22.48,-10.11 -22.48,-22.5 0,-12.4 10.06,-22.5 22.48,-22.5 12.42,0 22.49,10.1 22.49,22.5zm202.35 22.5c12.41,0 22.48,-10.11 22.48,-22.5 0,-12.4 -10.06,-22.5 -22.48,-22.5 -12.42,0 -22.49,10.1 -22.49,22.5 0,12.39 10.07,22.5 22.49,22.5zm224.82 0c-12.37,0 -22.48,-10.11 -22.48,-22.5 0,-12.4 10.11,-22.5 22.48,-22.5l0 45zm-2675.43 202.29c0,-12.29 -10.11,-22.5 -22.48,-22.5l0 45c12.37,0 22.48,-10.11 22.48,-22.5zm224.83 0c0,12.5 -10.07,22.5 -22.48,22.5 -12.42,0 -22.48,-10 -22.48,-22.5 0,-12.4 10.07,-22.5 22.48,-22.5 12.41,0 22.48,10.1 22.48,22.5zm202.35 22.5c12.42,0 22.48,-10 22.48,-22.5 0,-12.4 -10.06,-22.5 -22.48,-22.5 -12.42,0 -22.48,10.1 -22.48,22.5 0,12.5 10.07,22.5 22.48,22.5zm247.31 -22.5c0,12.5 -10.07,22.5 -22.48,22.5 -12.42,0 -22.48,-10 -22.48,-22.5 0,-12.4 10.07,-22.5 22.48,-22.5 12.41,0 22.48,10.1 22.48,22.5zm202.34 22.5c12.42,0 22.48,-10 22.48,-22.5 0,-12.4 -10.07,-22.5 -22.48,-22.5 -12.41,0 -22.48,10.1 -22.48,22.5 0,12.5 10.07,22.5 22.48,22.5zm247.31 -22.5c0,12.5 -10.07,22.5 -22.48,22.5 -12.42,0 -22.48,-10 -22.48,-22.5 0,-12.4 10.06,-22.5 22.48,-22.5 12.42,0 22.48,10.1 22.48,22.5zm202.34 22.5c12.42,0 22.48,-10 22.48,-22.5 0,-12.4 -10.07,-22.5 -22.48,-22.5 -12.42,0 -22.48,10.1 -22.48,22.5 0,12.5 10.06,22.5 22.48,22.5zm247.31 -22.5c0,12.5 -10.07,22.5 -22.48,22.5 -12.42,0 -22.48,-10 -22.48,-22.5 0,-12.4 10.06,-22.5 22.48,-22.5 12.42,0 22.48,10.1 22.48,22.5zm202.34 22.5c12.42,0 22.48,-10 22.48,-22.5 0,-12.4 -10.07,-22.5 -22.48,-22.5 -12.42,0 -22.48,10.1 -22.48,22.5 0,12.5 10.07,22.5 22.48,22.5zm247.31 -22.5c0,12.5 -10.06,22.5 -22.48,22.5 -12.42,0 -22.48,-10 -22.48,-22.5 0,-12.4 10.07,-22.5 22.48,-22.5 12.42,0 22.48,10.1 22.48,22.5zm202.34 22.5c12.42,0 22.49,-10 22.49,-22.5 0,-12.4 -10.07,-22.5 -22.49,-22.5 -12.42,0 -22.48,10.1 -22.48,22.5 0,12.5 10.06,22.5 22.48,22.5zm247.31 -22.5c0,12.5 -10.06,22.5 -22.48,22.5 -12.42,0 -22.49,-10 -22.49,-22.5 0,-12.4 10.07,-22.5 22.49,-22.5 12.41,0 22.48,10.1 22.48,22.5zm179.87 0c0,12.39 10.11,22.5 22.48,22.5l0 -45c-12.37,0 -22.48,10.21 -22.48,22.5zm-2675.43 202.39c12.37,0 22.48,10.11 22.48,22.5 0,12.29 -10.11,22.4 -22.48,22.4l0 -44.9zm224.83 44.9c12.41,0 22.48,-10 22.48,-22.4 0,-12.5 -10.07,-22.5 -22.48,-22.5 -12.42,0 -22.48,10 -22.48,22.5 0,12.4 10.07,22.4 22.48,22.4zm247.31 -22.4c0,12.4 -10.06,22.4 -22.48,22.4 -12.42,0 -22.48,-10 -22.48,-22.4 0,-12.5 10.07,-22.5 22.48,-22.5 12.42,0 22.48,10 22.48,22.5zm202.35 22.4c12.41,0 22.48,-10 22.48,-22.4 0,-12.5 -10.07,-22.5 -22.48,-22.5 -12.42,0 -22.48,10 -22.48,22.5 0,12.4 10.07,22.4 22.48,22.4zm247.31 -22.4c0,12.4 -10.07,22.4 -22.48,22.4 -12.41,0 -22.48,-10 -22.48,-22.4 0,-12.5 10.07,-22.5 22.48,-22.5 12.42,0 22.48,10 22.48,22.5zm202.34 22.4c12.42,0 22.48,-10 22.48,-22.4 0,-12.5 -10.07,-22.5 -22.48,-22.5 -12.42,0 -22.48,10 -22.48,22.5 0,12.4 10.06,22.4 22.48,22.4zm247.31 -22.4c0,12.4 -10.07,22.4 -22.48,22.4 -12.42,0 -22.48,-10 -22.48,-22.4 0,-12.5 10.06,-22.5 22.48,-22.5 12.42,0 22.48,10 22.48,22.5zm202.34 22.4c12.42,0 22.48,-10 22.48,-22.4 0,-12.5 -10.07,-22.5 -22.48,-22.5 -12.42,0 -22.48,10 -22.48,22.5 0,12.4 10.06,22.4 22.48,22.4zm247.31 -22.4c0,12.4 -10.07,22.4 -22.48,22.4 -12.42,0 -22.48,-10 -22.48,-22.4 0,-12.5 10.07,-22.5 22.48,-22.5 12.42,0 22.48,10 22.48,22.5zm202.34 22.4c12.42,0 22.48,-10 22.48,-22.4 0,-12.5 -10.06,-22.5 -22.48,-22.5 -12.42,0 -22.48,10 -22.48,22.5 0,12.4 10.07,22.4 22.48,22.4zm247.31 -22.4c0,12.4 -10.07,22.4 -22.49,22.4 -12.42,0 -22.48,-10 -22.48,-22.4 0,-12.5 10.06,-22.5 22.48,-22.5 12.42,0 22.49,10 22.49,22.5zm202.35 22.4c12.41,0 22.48,-10 22.48,-22.4 0,-12.5 -10.06,-22.5 -22.48,-22.5 -12.42,0 -22.49,10 -22.49,22.5 0,12.4 10.07,22.4 22.49,22.4zm224.82 0c-12.37,0 -22.48,-10.11 -22.48,-22.4 0,-12.39 10.11,-22.5 22.48,-22.5l0 44.9zm-2675.43 202.39c0,-12.39 -10.11,-22.5 -22.48,-22.5l0 45c12.37,0 22.48,-10.1 22.48,-22.5zm224.83 0c0,12.4 -10.07,22.5 -22.48,22.5 -12.42,0 -22.48,-10.1 -22.48,-22.5 0,-12.39 10.07,-22.5 22.48,-22.5 12.41,0 22.48,10.11 22.48,22.5zm202.35 22.5c12.42,0 22.48,-10.1 22.48,-22.5 0,-12.39 -10.06,-22.5 -22.48,-22.5 -12.42,0 -22.48,10.11 -22.48,22.5 0,12.4 10.07,22.5 22.48,22.5zm247.31 -22.5c0,12.4 -10.07,22.5 -22.48,22.5 -12.42,0 -22.48,-10.1 -22.48,-22.5 0,-12.39 10.07,-22.5 22.48,-22.5 12.41,0 22.48,10.11 22.48,22.5zm202.34 22.5c12.42,0 22.48,-10.1 22.48,-22.5 0,-12.39 -10.07,-22.5 -22.48,-22.5 -12.41,0 -22.48,10.11 -22.48,22.5 0,12.4 10.07,22.5 22.48,22.5zm247.31 -22.5c0,12.4 -10.07,22.5 -22.48,22.5 -12.42,0 -22.48,-10.1 -22.48,-22.5 0,-12.39 10.06,-22.5 22.48,-22.5 12.42,0 22.48,10.11 22.48,22.5zm202.34 22.5c12.42,0 22.48,-10.1 22.48,-22.5 0,-12.39 -10.07,-22.5 -22.48,-22.5 -12.42,0 -22.48,10.11 -22.48,22.5 0,12.4 10.06,22.5 22.48,22.5zm247.31 -22.5c0,12.4 -10.07,22.5 -22.48,22.5 -12.42,0 -22.48,-10.1 -22.48,-22.5 0,-12.39 10.06,-22.5 22.48,-22.5 12.42,0 22.48,10.11 22.48,22.5zm202.34 22.5c12.42,0 22.48,-10.1 22.48,-22.5 0,-12.39 -10.07,-22.5 -22.48,-22.5 -12.42,0 -22.48,10.11 -22.48,22.5 0,12.4 10.07,22.5 22.48,22.5zm247.31 -22.5c0,12.4 -10.06,22.5 -22.48,22.5 -12.42,0 -22.48,-10.1 -22.48,-22.5 0,-12.39 10.07,-22.5 22.48,-22.5 12.42,0 22.48,10.11 22.48,22.5zm202.34 22.5c12.42,0 22.49,-10.1 22.49,-22.5 0,-12.39 -10.07,-22.5 -22.49,-22.5 -12.42,0 -22.48,10.11 -22.48,22.5 0,12.4 10.06,22.5 22.48,22.5zm247.31 -22.5c0,12.4 -10.06,22.5 -22.48,22.5 -12.42,0 -22.49,-10.1 -22.49,-22.5 0,-12.39 10.07,-22.5 22.49,-22.5 12.41,0 22.48,10.11 22.48,22.5zm179.87 0c0,12.4 10.11,22.5 22.48,22.5l0 -45c-12.37,0 -22.48,10.11 -22.48,22.5zm-2675.43 202.29c12.37,0 22.48,10.21 22.48,22.5 0,12.4 -10.11,22.5 -22.48,22.5l0 -45zm224.83 45c12.41,0 22.48,-10 22.48,-22.5 0,-12.39 -10.07,-22.5 -22.48,-22.5 -12.42,0 -22.48,10.11 -22.48,22.5 0,12.5 10.07,22.5 22.48,22.5zm247.31 -22.5c0,12.5 -10.06,22.5 -22.48,22.5 -12.42,0 -22.48,-10 -22.48,-22.5 0,-12.39 10.07,-22.5 22.48,-22.5 12.42,0 22.48,10.11 22.48,22.5zm202.35 22.5c12.41,0 22.48,-10 22.48,-22.5 0,-12.39 -10.07,-22.5 -22.48,-22.5 -12.42,0 -22.48,10.11 -22.48,22.5 0,12.5 10.07,22.5 22.48,22.5zm247.31 -22.5c0,12.5 -10.07,22.5 -22.48,22.5 -12.41,0 -22.48,-10 -22.48,-22.5 0,-12.39 10.07,-22.5 22.48,-22.5 12.42,0 22.48,10.11 22.48,22.5zm202.34 22.5c12.42,0 22.48,-10 22.48,-22.5 0,-12.39 -10.07,-22.5 -22.48,-22.5 -12.42,0 -22.48,10.11 -22.48,22.5 0,12.5 10.06,22.5 22.48,22.5zm247.31 -22.5c0,12.5 -10.07,22.5 -22.48,22.5 -12.42,0 -22.48,-10 -22.48,-22.5 0,-12.39 10.06,-22.5 22.48,-22.5 12.42,0 22.48,10.11 22.48,22.5zm202.34 22.5c12.42,0 22.48,-10 22.48,-22.5 0,-12.39 -10.07,-22.5 -22.48,-22.5 -12.42,0 -22.48,10.11 -22.48,22.5 0,12.5 10.06,22.5 22.48,22.5zm247.31 -22.5c0,12.5 -10.07,22.5 -22.48,22.5 -12.42,0 -22.48,-10 -22.48,-22.5 0,-12.39 10.07,-22.5 22.48,-22.5 12.42,0 22.48,10.11 22.48,22.5zm202.34 22.5c12.42,0 22.48,-10 22.48,-22.5 0,-12.39 -10.06,-22.5 -22.48,-22.5 -12.42,0 -22.48,10.11 -22.48,22.5 0,12.5 10.07,22.5 22.48,22.5zm247.31 -22.5c0,12.5 -10.07,22.5 -22.49,22.5 -12.42,0 -22.48,-10 -22.48,-22.5 0,-12.39 10.06,-22.5 22.48,-22.5 12.42,0 22.49,10.11 22.49,22.5zm202.35 22.5c12.41,0 22.48,-10 22.48,-22.5 0,-12.39 -10.06,-22.5 -22.48,-22.5 -12.42,0 -22.49,10.11 -22.49,22.5 0,12.5 10.07,22.5 22.49,22.5zm224.82 0c-12.37,0 -22.48,-10.1 -22.48,-22.5 0,-12.29 10.11,-22.5 22.48,-22.5l0 45zm-2675.43 202.4c0,-12.4 -10.11,-22.5 -22.48,-22.5l0 44.9c12.37,0 22.48,-10.11 22.48,-22.4zm224.83 0c0,12.4 -10.07,22.4 -22.48,22.4 -12.42,0 -22.48,-10 -22.48,-22.4 0,-12.5 10.07,-22.5 22.48,-22.5 12.41,0 22.48,10 22.48,22.5zm202.35 22.4c12.42,0 22.48,-10 22.48,-22.4 0,-12.5 -10.06,-22.5 -22.48,-22.5 -12.42,0 -22.48,10 -22.48,22.5 0,12.4 10.07,22.4 22.48,22.4zm247.31 -22.4c0,12.4 -10.07,22.4 -22.48,22.4 -12.42,0 -22.48,-10 -22.48,-22.4 0,-12.5 10.07,-22.5 22.48,-22.5 12.41,0 22.48,10 22.48,22.5zm202.34 22.4c12.42,0 22.48,-10 22.48,-22.4 0,-12.5 -10.07,-22.5 -22.48,-22.5 -12.41,0 -22.48,10 -22.48,22.5 0,12.4 10.07,22.4 22.48,22.4zm247.31 -22.4c0,12.4 -10.07,22.4 -22.48,22.4 -12.42,0 -22.48,-10 -22.48,-22.4 0,-12.5 10.06,-22.5 22.48,-22.5 12.42,0 22.48,10 22.48,22.5zm202.34 22.4c12.42,0 22.48,-10 22.48,-22.4 0,-12.5 -10.07,-22.5 -22.48,-22.5 -12.42,0 -22.48,10 -22.48,22.5 0,12.4 10.06,22.4 22.48,22.4zm247.31 -22.4c0,12.4 -10.07,22.4 -22.48,22.4 -12.42,0 -22.48,-10 -22.48,-22.4 0,-12.5 10.06,-22.5 22.48,-22.5 12.42,0 22.48,10 22.48,22.5zm202.34 22.4c12.42,0 22.48,-10 22.48,-22.4 0,-12.5 -10.07,-22.5 -22.48,-22.5 -12.42,0 -22.48,10 -22.48,22.5 0,12.4 10.07,22.4 22.48,22.4zm247.31 -22.4c0,12.4 -10.06,22.4 -22.48,22.4 -12.42,0 -22.48,-10 -22.48,-22.4 0,-12.5 10.07,-22.5 22.48,-22.5 12.42,0 22.48,10 22.48,22.5zm202.34 22.4c12.42,0 22.49,-10 22.49,-22.4 0,-12.5 -10.07,-22.5 -22.49,-22.5 -12.42,0 -22.48,10 -22.48,22.5 0,12.4 10.06,22.4 22.48,22.4zm247.31 -22.4c0,12.4 -10.06,22.4 -22.48,22.4 -12.42,0 -22.49,-10 -22.49,-22.4 0,-12.5 10.07,-22.5 22.49,-22.5 12.41,0 22.48,10 22.48,22.5zm179.87 0c0,12.29 10.11,22.4 22.48,22.4l0 -44.9c-12.37,0 -22.48,10.1 -22.48,22.5zm-2675.43 224.79l0 -22.5c12.37,0 22.48,10.11 22.48,22.5l-22.48 0zm224.83 -22.5c-12.37,0 -22.48,10.11 -22.48,22.5l44.96 0c0,-12.39 -10.11,-22.5 -22.48,-22.5zm202.34 22.5c0,-12.39 10.12,-22.5 22.48,-22.5 12.36,0 22.48,10.11 22.48,22.5l-44.96 0zm247.31 -22.5c-12.37,0 -22.48,10.11 -22.48,22.5l44.96 0c0,-12.39 -10.12,-22.5 -22.48,-22.5zm202.34 22.5c0,-12.39 10.11,-22.5 22.48,-22.5 12.37,0 22.48,10.11 22.48,22.5l-44.96 0zm247.31 -22.5c-12.37,0 -22.48,10.11 -22.48,22.5l44.96 0c0,-12.39 -10.12,-22.5 -22.48,-22.5zm202.35 22.5c0,-12.39 10.11,-22.5 22.48,-22.5 12.37,0 22.48,10.11 22.48,22.5l-44.96 0zm247.31 -22.5c-12.37,0 -22.48,10.11 -22.48,22.5l44.96 0c0,-12.39 -10.12,-22.5 -22.48,-22.5zm202.34 22.5c0,-12.39 10.12,-22.5 22.48,-22.5 12.37,0 22.48,10.11 22.48,22.5l-44.97 0zm247.31 -22.5c-12.37,0 -22.48,10.11 -22.48,22.5l44.96 0c0,-12.39 -10.11,-22.5 -22.48,-22.5zm202.34 22.5c0,-12.39 10.11,-22.5 22.48,-22.5 12.37,0 22.49,10.11 22.49,22.5l-44.97 0zm247.31 -22.5c-12.37,0 -22.49,10.11 -22.49,22.5l44.97 0c0,-12.39 -10.11,-22.5 -22.48,-22.5zm202.34 22.5c0,-12.39 10.11,-22.5 22.48,-22.5l0 22.5 -22.48 0z"/>
    </g>
   </g>
   <path class="fil2" d="M156.53 1126.97c771.61,0 1397.12,625.51 1397.12,1397.12 0,771.61 -625.51,1397.12 -1397.12,1397.12 -52.93,0 -105.13,-3.04 -156.53,-8.78l0 -2776.69c51.39,-5.73 103.6,-8.78 156.53,-8.78z"/>
  </g>
 </g>
</svg>
