<?xml version="1.0" encoding="UTF-8"?>
<!DOCTYPE svg PUBLIC "-//W3C//DTD SVG 1.1//EN" "http://www.w3.org/Graphics/SVG/1.1/DTD/svg11.dtd">
<!-- Creator: CorelDRAW 2019 (64-Bit) -->
<svg xmlns="http://www.w3.org/2000/svg" xml:space="preserve" width="5.655in" height="4.70142in" version="1.1" style="shape-rendering:geometricPrecision; text-rendering:geometricPrecision; image-rendering:optimizeQuality; fill-rule:evenodd; clip-rule:evenodd"
viewBox="0 0 5655 4701.42"
 xmlns:xlink="http://www.w3.org/1999/xlink"
 xmlns:xodm="http://www.corel.com/coreldraw/odm/2003">
 <defs>
  <style type="text/css">
   <![CDATA[
    .fil0 {fill:#55BC7E}
   ]]>
  </style>
 </defs>
 <g id="Layer_x0020_1">
  <metadata id="CorelCorpID_0Corel-Layer"/>
  <path class="fil0" d="M1921.99 1503.24c-345.33,0 -517.27,-95.85 -761.73,-95.85 -159.09,0 -284.53,46.43 -412.11,117.57l-139.93 92.13c-198.11,149.37 -311.27,271.38 -437.69,480.41 -10.27,16.98 -16.48,30.78 -27.17,48.5 -12.21,20.24 -15.33,33.87 -25.61,55.11 -69.96,144.56 -110.41,321.12 -117.76,498.06l0 116.37c3.14,74.77 12.41,148.35 28.13,218.3 67.91,302.28 151.32,464.61 328.01,721.24 18.64,27.07 37.07,49.46 56.86,74.3 19.64,24.66 38.25,47.92 59.93,71.23l263.59 266.09c121,92.65 195.43,167.32 346.38,243.83 116.41,59 176.17,95.06 316.3,142.75 130.3,44.35 271.3,83.83 418.27,106.37 266.04,40.8 396.29,41.74 649.66,41.76l12.36 0 12.56 0c202.06,0 496.69,-37.89 681.49,-75.19 405.54,-81.87 742.77,-222.88 1078.07,-445.39 76.89,-51.02 144.59,-105.22 214.44,-163.91 72.35,-60.78 130.21,-120.72 196.44,-186.94l132.81 -149.68c67.14,-85.93 146.85,-176.91 211.87,-267.35 79.86,-111.07 159.29,-222.69 229.43,-340.6l102.22 -180.27c53.11,-106.61 73.31,-143.39 124.36,-259.02 9.97,-22.57 17.58,-43.62 27.53,-68.31 19.35,-48.02 33.33,-91.04 50.17,-141.52 32.82,-98.38 56.15,-194.87 77.57,-300.77 21.28,-105.19 32.97,-214.41 36.56,-324.8l0 -150.56c-5.3,-168.55 -27.87,-336.83 -62.68,-494.83 -29.7,-134.83 -81.95,-293.76 -145.19,-409.71 -22.52,-41.3 -41.91,-80.06 -67.5,-119.14 -26.3,-40.15 -49.24,-72.44 -77.02,-109.63 -152.58,-204.26 -400.93,-389.09 -653.61,-461.23 -102.35,-29.22 -202.3,-47 -299.85,-52.57l-130.52 0c-208.92,12.32 -406.2,85.11 -591.62,226.94 -51.98,39.76 -147.93,128.58 -185.11,173.06 -11.11,13.3 -12.35,17.22 -25.42,30.07 -13.96,13.73 -15.97,18.26 -28.02,32.51 -94.06,111.21 -177.12,218.2 -265.91,334.39 -29.11,38.1 -150.47,188.98 -187.81,225.84 -35.34,34.89 -54.22,63.94 -86.03,90.53 -47.62,39.81 -73.2,69.37 -129.61,112.52 -48.77,37.31 -123.74,89.75 -180.02,117.61 -76.81,38.01 -116.97,62.05 -207.83,89.8 -113.04,34.54 -262,69.98 -409.26,69.98z"/>
 </g>
</svg>
