<?xml version="1.0" encoding="UTF-8"?>
<!DOCTYPE svg PUBLIC "-//W3C//DTD SVG 1.0//EN" "http://www.w3.org/TR/2001/REC-SVG-20010904/DTD/svg10.dtd">
<!-- Creator: CorelDRAW 2019 (64-Bit) -->
<svg xmlns="http://www.w3.org/2000/svg" xml:space="preserve" width="4.22222in" height="4.22222in" version="1.0" style="shape-rendering:geometricPrecision; text-rendering:geometricPrecision; image-rendering:optimizeQuality; fill-rule:evenodd; clip-rule:evenodd"
viewBox="0 0 4222.22 4222.22"
 xmlns:xlink="http://www.w3.org/1999/xlink"
 xmlns:xodm="http://www.corel.com/coreldraw/odm/2003">
 <defs>
  <style type="text/css">
   <![CDATA[
    .fil14 {fill:none}
    .fil13 {fill:black}
    .fil0 {fill:#F0FAF4}
    .fil2 {fill:#263138;fill-rule:nonzero}
    .fil10 {fill:#36464F;fill-rule:nonzero}
    .fil9 {fill:#445964;fill-rule:nonzero}
    .fil8 {fill:#55BC7E;fill-rule:nonzero}
    .fil7 {fill:#A5A5A5;fill-rule:nonzero}
    .fil11 {fill:#AC6259;fill-rule:nonzero}
    .fil6 {fill:#C6C6C6;fill-rule:nonzero}
    .fil3 {fill:#DBDBDB;fill-rule:nonzero}
    .fil1 {fill:#EBEBEB;fill-rule:nonzero}
    .fil4 {fill:white;fill-rule:nonzero}
    .fil12 {fill:#263138;fill-rule:nonzero;fill-opacity:0.200000}
    .fil5 {fill:#EBEBEB;fill-rule:nonzero;fill-opacity:0.501961}
   ]]>
  </style>
   <clipPath id="id0">
    <path d="M-0 0l4222.22 0 0 4222.22 -4222.22 0 0 -4222.22z"/>
   </clipPath>
 </defs>
 <g id="Layer_x0020_1">
  <metadata id="CorelCorpID_0Corel-Layer"/>
  <g>
  </g>
  <g style="clip-path:url(#id0)">
   <g>
    <g id="_1920588680096">
     <circle class="fil0" cx="2066.48" cy="2585.71" r="1454.99"/>
     <polygon class="fil1" points="151.35,3249.19 422.66,3249.19 422.66,3134.53 151.35,3134.53 "/>
     <polygon class="fil1" points="151.35,155.39 422.66,155.39 422.66,40.74 151.35,40.74 "/>
     <polygon class="fil1" points="-0,299.96 271.31,299.96 271.31,185.31 -0,185.31 "/>
     <polygon class="fil1" points="3950.91,155.52 4222.22,155.52 4222.22,40.87 3950.91,40.87 "/>
     <polygon class="fil1" points="3474.63,1405.01 3203.32,1405.01 3203.32,1519.66 3474.63,1519.66 "/>
     <polygon class="fil1" points="3323.28,1260.44 3051.97,1260.44 3051.97,1375.09 3323.28,1375.09 "/>
     <g>
      <path class="fil1" d="M251.75 338.65l1800.5 0 0 2514.32 -1800.5 0 0 -2514.32zm1747.08 53.42l0 0 -1693.66 0 0 2407.47 1693.66 0 0 -2407.47z"/>
      <polygon class="fil1" points="1125.29,2826.25 1178.71,2826.25 1178.71,406.02 1125.29,406.02 "/>
      <g>
       <g>
        <polygon class="fil1" points="203.31,521.03 2100.68,521.03 2100.68,446.65 203.31,446.65 "/>
        <polygon class="fil1" points="203.31,604.73 2100.68,604.73 2100.68,530.33 203.31,530.33 "/>
        <polygon class="fil1" points="203.31,688.42 2100.68,688.42 2100.68,614.03 203.31,614.03 "/>
        <polygon class="fil1" points="203.31,772.11 2100.68,772.11 2100.68,697.72 203.31,697.72 "/>
        <polygon class="fil1" points="203.31,855.8 2100.68,855.8 2100.68,781.41 203.31,781.41 "/>
        <polygon class="fil1" points="203.31,939.5 2100.68,939.5 2100.68,865.1 203.31,865.1 "/>
        <polygon class="fil1" points="203.31,1023.19 2100.68,1023.19 2100.68,948.79 203.31,948.79 "/>
        <polygon class="fil1" points="203.31,1106.88 2100.68,1106.88 2100.68,1032.49 203.31,1032.49 "/>
        <polygon class="fil1" points="203.31,1190.57 2100.68,1190.57 2100.68,1116.18 203.31,1116.18 "/>
       </g>
       <g>
        <g>
         <polygon class="fil2" points="361.98,1879.15 375.34,1879.15 375.34,431.55 361.98,431.55 "/>
         <polygon class="fil2" points="344.92,1941.36 392.34,1941.36 380.45,1873.25 356.81,1873.25 "/>
        </g>
        <g>
         <polygon class="fil2" points="313.84,2244.36 327.2,2244.36 327.2,431.55 313.84,431.55 "/>
         <polygon class="fil2" points="296.82,2294.43 344.23,2294.43 332.35,2226.32 308.71,2226.32 "/>
        </g>
       </g>
       <polygon class="fil3" points="120.41,483.84 2183.58,483.84 2183.58,328.21 120.41,328.21 "/>
      </g>
     </g>
     <g>
      <path class="fil1" d="M4101.82 713.44c0,212.76 -172.48,385.24 -385.24,385.24 -212.76,0 -385.24,-172.48 -385.24,-385.24 0,-212.76 172.48,-385.24 385.24,-385.24 212.76,0 385.24,172.48 385.24,385.24z"/>
      <path class="fil3" d="M4101.82 722.03c0,203.01 -164.58,367.59 -367.59,367.59 -203.02,0 -367.59,-164.57 -367.59,-367.59 0,-203.02 164.58,-367.59 367.59,-367.59 203.01,0 367.59,164.58 367.59,367.59z"/>
      <path class="fil4" d="M4078.61 722.03c0,190.19 -154.19,344.38 -344.38,344.38 -190.19,0 -344.38,-154.19 -344.38,-344.38 0,-190.2 154.18,-344.38 344.38,-344.38 190.19,0 344.38,154.18 344.38,344.38z"/>
      <path class="fil5" d="M4070.8 648.94c-156.81,95.02 -414.56,250.89 -558.61,336.33 -40.41,-34.11 -72.84,-77.33 -94.1,-126.53l476.44 -441.57c88.72,46.71 154.52,131.05 176.27,231.77z"/>
      <path class="fil5" d="M4078.36 734.04c-1.32,39.34 -9.28,77.01 -22.77,111.91l-429.52 203.13c-18.84,-6.24 -36.99,-14.04 -54.24,-23.31 129.74,-74.97 366.83,-211.39 506.52,-291.72z"/>
      <g>
       <polygon class="fil6" points="3737.55,454.84 3730.9,454.84 3730.9,402.64 3737.55,402.64 "/>
       <polygon class="fil6" points="3597.76,492.3 3571.66,447.09 3577.43,443.77 3603.52,488.98 "/>
       <polygon class="fil6" points="3501.18,591.31 3455.97,565.21 3459.3,559.45 3504.5,585.55 "/>
       <polygon class="fil6" points="3467.04,725.35 3414.85,725.35 3414.85,718.69 3467.04,718.69 "/>
       <polygon class="fil6" points="3459.3,884.6 3455.97,878.83 3501.18,852.73 3504.5,858.49 "/>
       <polygon class="fil6" points="3577.43,1000.28 3571.66,996.95 3597.76,951.75 3603.52,955.08 "/>
       <polygon class="fil6" points="3737.55,1041.4 3730.9,1041.4 3730.9,989.2 3737.55,989.2 "/>
       <polygon class="fil6" points="3891.03,1000.28 3864.93,955.08 3870.71,951.75 3896.8,996.95 "/>
       <polygon class="fil6" points="4009.16,884.6 3963.95,858.49 3967.28,852.73 4012.48,878.83 "/>
       <polygon class="fil6" points="4053.61,725.35 4001.41,725.35 4001.41,718.69 4053.61,718.69 "/>
       <polygon class="fil6" points="3967.28,591.31 3963.95,585.55 4009.16,559.45 4012.48,565.21 "/>
       <polygon class="fil6" points="3870.71,492.3 3864.93,488.98 3891.03,443.77 3896.8,447.09 "/>
      </g>
      <g>
       <polygon class="fil6" points="3739.24,426.28 3750.56,745.26 3717.89,744.86 3730.37,426.17 "/>
       <polygon class="fil7" points="3937.93,610.78 3723.32,747.76 3707.71,719.06 3933.69,602.99 "/>
       <path class="fil6" d="M3745.37 722.03c0,6.15 -4.99,11.15 -11.15,11.15 -6.16,0 -11.15,-5 -11.15,-11.15 0,-6.16 5,-11.15 11.15,-11.15 6.16,0 11.15,4.99 11.15,11.15z"/>
      </g>
     </g>
     <g>
      <g>
       <g>
        <path class="fil2" d="M3460.21 2773.52c-44.3,-43.41 -101.56,-95.85 -169.27,-77.14 -63.72,17.61 -88.11,87.16 -99.52,145.11 -14.71,74.68 -26.15,150.1 -38,225.28 -11.98,75.94 -23.22,151.97 -34.15,228.07 -6.17,42.93 -12.28,85.87 -18.28,128.83 -3,21.48 -5.98,42.96 -8.95,64.44 -2.92,21.07 -6.44,42.12 -7.6,63.37 -0.37,6.76 10.26,7.75 11.74,1.3 8.21,-35.83 11.6,-73.08 16.86,-109.44 5.29,-36.57 10.58,-73.14 15.93,-109.7 10.63,-72.64 21.61,-145.23 32.55,-217.82 10.95,-72.62 22.28,-145.18 33.86,-217.71 9.82,-61.49 14.46,-137.91 68.99,-178.47 29.91,-22.25 68.07,-22.5 101.96,-9.56 35.88,13.69 64.54,39.38 92.6,64.79 0.89,0.81 2.14,-0.51 1.28,-1.35z"/>
        <g>
         <path class="fil8" d="M3399.58 2729.16c0,0 -90.56,-32.59 -135.23,33.5 -34.5,51.02 -10.47,162.83 191.98,254.8 6.48,-20.87 12.5,-41.94 18.04,-63.21l-0.04 0c0.31,-1.2 0.65,-2.4 0.97,-3.6l0.02 -0.09 0.02 -0.08 0.02 -0.09 0.02 -0.08c6.33,-24.53 12.03,-49.31 17.09,-74.32l0.02 -0.11 0.02 -0.1 0.02 -0.1c0.28,-1.48 0.55,-2.97 0.84,-4.45l0.05 0c1.22,-6.15 2.41,-12.32 3.56,-18.5l-0.05 -0.06c0.33,-1.81 0.7,-3.61 1.05,-5.42l0.02 -0.14 0 -0c0.94,-5.2 1.86,-10.41 2.74,-15.62l0 -0.41c3.09,-18.21 5.88,-36.53 8.31,-54.95l0.19 -1.5 0.2 -1.49 0.15 -1.17 0.04 -0.32c6.01,-47.18 9.76,-95.08 11.15,-143.56 -81.85,-66.97 -167.46,-0.27 -121.23,101.07zm59.56 289.57c2.83,1.27 5.68,2.54 8.57,3.8 -2.89,-1.26 -5.75,-2.53 -8.57,-3.8zm12.29 5.41c3.15,1.36 6.35,2.71 9.58,4.06 -3.23,-1.35 -6.43,-2.7 -9.58,-4.06zm14.46 6.07c2.54,1.04 5.11,2.08 7.71,3.12 -2.59,-1.04 -5.17,-2.07 -7.71,-3.12zm13.53 5.42c2.44,0.96 4.9,1.91 7.38,2.86 -2.48,-0.95 -4.94,-1.91 -7.38,-2.86z"/>
         <g>
          <path class="fil2" d="M3513.76 2735.93c-6.85,31.11 -12.97,63.23 -13,95.15 3.09,-18.21 5.88,-36.52 8.31,-54.95l0.19 -1.5 0.2 -1.49 0.15 -1.17 0.04 -0.32c1.51,-11.86 2.88,-23.77 4.1,-35.72zm-15.09 107.59c-7.76,-8.64 -15.6,-17.22 -23.52,-25.74 -20.08,-21.59 -40.53,-42.85 -61.43,-63.65 -0.85,-0.84 -2.18,0.39 -1.36,1.27 29.26,31.49 57.27,64.09 84.59,97.28 0.33,-1.81 0.7,-3.61 1.05,-5.42l0.02 -0.14 0 -0 0.65 -3.6zm-5.28 27.72c-18.86,0.26 -37.84,1.56 -56.52,2.96 -27.96,2.07 -55.74,5.65 -83.5,9.48 -1.19,0.16 -0.83,2 0.36,1.83 27.6,-4.13 55.48,-6.31 83.36,-7.47 18.38,-0.76 36.68,-0.44 55.01,-0.19l0.38 -1.85 0.02 -0.11 0.02 -0.1 0.02 -0.1c0.28,-1.48 0.54,-2.97 0.84,-4.45zm-17.6 77.54c-14.48,2 -28.91,4.53 -43.18,7.74 -1.18,0.26 -0.82,1.96 0.36,1.83 13.77,-1.56 27.56,-2.96 41.36,-4.07 0.31,-1.2 0.65,-2.4 0.97,-3.6l0.02 -0.09 0.02 -0.08 0.02 -0.09 0.02 -0.08 0.4 -1.54z"/>
          <path class="fil2" d="M3439.02 2822.82c-14.46,-2.37 -29.47,-2.13 -44.09,-2.14 -14.71,-0.02 -29.44,0.43 -44.14,0.94 -1.34,0.05 -1.25,1.94 0.11,1.84 14.92,-1.07 29.81,-1.33 44.77,-1.11 14.42,0.21 28.89,1.59 43.3,1.2 0.48,-0.01 0.54,-0.66 0.06,-0.74z"/>
         </g>
        </g>
       </g>
       <g>
        <path class="fil2" d="M3004.42 3536.25c-2.27,-25.96 -4.8,-51.9 -7.53,-77.81 -5.42,-51.37 -11.69,-102.62 -18.58,-153.81 -6.87,-51.03 -13.43,-102.17 -21.63,-153.01 -3.76,-23.31 -7.65,-47.19 -15.72,-69.47 -6.95,-19.17 -18.42,-36.5 -38.48,-43.42 -48.51,-16.75 -81.24,33.55 -100.82,69.14 -0.59,1.07 0.96,1.87 1.63,0.9 11.72,-16.85 44.14,-64.18 80.93,-61.97 24.77,1.48 44.57,19.01 56.46,80.76 29.61,153.84 56.31,466.02 59.43,486.45 1.65,10.82 9.3,10.35 9.37,-1.25 0.14,-25.52 -2.82,-51.09 -5.05,-76.5z"/>
        <path class="fil8" d="M2814.73 3088.73c0,0 42.39,-149.71 -51.33,-74.85 -156.02,124.62 -161.57,395.67 -161.57,395.67 0,0 277.35,-161.09 311.85,-267.35 51.37,-158.27 -98.95,-53.47 -98.95,-53.47z"/>
        <g>
         <path class="fil2" d="M2867.23 3162.23c-21.76,4.41 -43.83,7.3 -65.81,10.46 -10.4,1.5 -20.81,2.96 -31.22,4.39 -7.02,0.97 -14.14,1.64 -21.22,2.51 20.67,-28.46 41.49,-56.81 61.3,-85.85 0.76,-1.12 -0.96,-2.28 -1.86,-1.36 -16.46,16.77 -31.71,34.87 -46.34,53.49 -4.07,-11.59 -8.22,-23.16 -12.3,-34.75 -4.72,-13.41 -9.78,-26.74 -13.19,-40.56 -0.29,-1.16 -2.1,-0.62 -1.78,0.54 3.79,13.72 6.47,27.72 10.14,41.48 3.54,13.29 7.57,26.42 12.29,39.33 -10.16,13.19 -19.9,26.7 -29.37,40.35 -4.77,-13.53 -10.7,-26.62 -14.88,-40.36 -0.35,-1.15 -2.15,-0.6 -1.78,0.54 4.97,15.19 7.65,31 12.31,46.28 -6.36,9.3 -12.73,18.59 -18.81,27.99 -11.2,17.31 -21.76,34.93 -32.09,52.68 -1.61,0.92 -2.65,2.22 -2.43,4.19 -17.52,30.3 -34.19,61.07 -50.64,92.1 -0.56,1.06 1.06,1.96 1.63,0.9 16.46,-30.66 34.78,-60.5 53.82,-89.81 0.06,-0.02 0.14,-0 0.2,-0.03 2.02,-1.11 6.58,-1.24 9.07,-1.75 3.2,-0.65 6.39,-1.39 9.57,-2.08 7.17,-1.56 14.28,-3.41 21.4,-5.19 14.06,-3.49 27.99,-6.8 42.27,-9.27 1.17,-0.2 0.64,-2 -0.54,-1.78 -16.79,3.19 -33.63,5.1 -50.6,7.07 -8.01,0.93 -16,1.95 -23.96,3.22 -0.33,0.05 -0.76,0.11 -1.15,0.17 9.98,-15.15 20.07,-30.2 30.32,-45.06 10.08,-14.62 20.43,-29.06 30.83,-43.45 9.62,-1.35 19.16,-3.88 28.69,-5.7 10.74,-2.05 21.47,-4.14 32.2,-6.26 21.47,-4.25 42.85,-9.06 64.44,-12.64 1.17,-0.19 0.65,-2.02 -0.54,-1.78z"/>
         <path class="fil2" d="M2700.54 3176.99c-1.3,-3.96 -2.48,-7.94 -3.75,-11.91 -2.63,-8.27 -4.64,-16.6 -6.36,-25.11 -0.23,-1.17 -2.03,-0.63 -1.78,0.54 1.81,8.45 3.79,16.88 5.72,25.3 1.9,8.28 4.01,17.03 7.23,24.9 0.8,1.96 3.79,1.15 3.21,-0.97 -1.19,-4.31 -2.89,-8.5 -4.27,-12.75z"/>
         <path class="fil2" d="M2895.6 3127.56c-12.65,1.9 -25.41,2.79 -38.14,3.9 -12.8,1.12 -25.42,2.9 -38.12,4.8 -0.69,0.1 -0.71,1.17 0.03,1.12 12.78,-0.88 25.44,-1.87 38.15,-3.53 12.69,-1.66 25.35,-3.55 38.13,-4.43 1.21,-0.08 1.11,-2.03 -0.05,-1.86z"/>
        </g>
       </g>
       <g>
        <path class="fil2" d="M3208.53 3346.71c-4.92,-110.24 -11.91,-220.27 -23,-330.07 -5.52,-54.67 -11.69,-109.32 -19.39,-163.73 -7.54,-53.32 -16.75,-106.63 -31.58,-158.47 -11.35,-39.67 -26.25,-79.51 -52.76,-111.74 -26.15,-31.8 -64.71,-51.7 -106.58,-46.52 -48.25,5.96 -87.09,36.36 -120.69,69.38 -37.69,37.05 -72.21,77.5 -107.13,117.13 -8.83,10.02 -17.59,20.11 -26.28,30.26 -0.78,0.91 0.56,2.19 1.35,1.28 34.14,-39.22 69.61,-77.32 106.71,-113.75 34.29,-33.67 69.61,-70.46 117.12,-84.37 22,-6.44 45.87,-8.23 68.05,-1.61 17.93,5.36 33.6,16.04 46.49,29.44 26.74,27.81 41.76,65.48 52.43,101.94 29.65,101.32 40.26,207.57 51.27,312.2 11.19,106.31 18.74,212.9 24.08,319.65 3.05,60.86 5.72,121.77 9.34,182.61l4.76 -5.89 0.26 -0.33 0.52 -0.64 0.01 -0.02 0.1 -0.11 0.17 -0.21 0.14 -0.18 0.1 -0.13 0.02 -0.02 0.09 -0.11 0.1 -0.13 0.07 -0.09 0.04 -0.04 0.1 -0.13 0.1 -0.13 0.02 -0.03 0.08 -0.1c3.4,-4.24 6.77,-8.49 10.1,-12.77 -2.25,-44.18 -4.24,-88.37 -6.22,-132.58z"/>
        <g>
         <path class="fil8" d="M2848.48 2617.49c0,0 62.94,-116.5 -11.44,-153.86 -74.38,-37.36 -323.31,240.5 -396.04,646.82 0,0 402.05,-177.89 538.59,-355.15 136.53,-177.26 -18.25,-216.28 -131.11,-137.81z"/>
         <g>
          <path class="fil2" d="M2907.59 2712.24c-45.18,0.1 -90.26,-3.42 -135.46,-3.1 8.46,-9.72 16.91,-19.44 25.46,-29.09 11.82,-13.33 25.31,-26.28 35.32,-41.04 0.64,-0.94 -0.72,-2.26 -1.63,-1.55 -12.55,9.84 -23.28,22.7 -34.19,34.3 -11.32,12.02 -22.58,24.09 -33.79,36.22 -17.28,18.69 -34.2,37.68 -51.08,56.71 -0.04,-1.85 -0.07,-3.69 -0.06,-5.48 0.04,-7.91 -0.02,-15.83 0.04,-23.74 0.11,-15.33 0.33,-30.65 0.48,-45.98 0.3,-31.06 0.22,-62.3 2.38,-93.3 0.08,-1.2 -1.78,-1.14 -1.86,0.04 -2.17,31.17 -5.38,62.2 -6.91,93.41 -0.76,15.33 -1.13,30.65 -1.31,46 -0.1,7.91 -0.22,15.83 -0.17,23.74 0.04,4.31 -0.13,8.86 0.2,13.31 -2.63,2.98 -5.37,5.87 -7.99,8.87 -36.06,41.21 -70.35,83.83 -103.73,127.2 -0.04,-2.39 -0.37,-4.85 -0.59,-7.2 -0.46,-4.78 -1.03,-9.56 -1.57,-14.33 -1.17,-10.37 -2.59,-20.69 -4.15,-31.02 -1.46,-9.69 -2.98,-19.37 -4.61,-29.04 -1.83,-10.85 -4.48,-21.87 -5.31,-32.85 -0.1,-1.33 -2.11,-1.05 -1.82,0.3 2.31,10.76 2.74,22.15 3.78,33.09 0.94,9.94 1.87,19.87 2.76,29.82 0.89,9.96 1.8,19.91 2.82,29.85 0.49,4.78 0.92,9.57 1.44,14.34 0.26,2.4 0.55,4.78 0.87,7.17 0.43,3.16 0.92,3.56 1.94,5.69 -5.74,7.48 -11.5,14.93 -17.19,22.45 -22.8,30.17 -45.17,60.68 -67.57,91.16 -0.69,0.94 0.61,2.24 1.35,1.28 21.2,-27.65 43.01,-54.79 65.12,-81.69 16.54,0.71 33.42,-0.51 49.96,-0.79 17.44,-0.29 34.87,-0.37 52.31,-0.43 1.2,-0.01 1.15,-1.88 -0.04,-1.86 -17.44,0.3 -34.87,0.57 -52.31,0.63 -15.89,0.06 -32.11,-0.72 -48.01,0.14 19.44,-23.63 39.08,-47.09 58.78,-70.52 7.18,-8.55 14.41,-17.06 21.6,-25.6 6.53,1.36 13.56,0.69 20.19,0.68 7.92,-0.01 15.85,-0 23.77,-0.04 14.85,-0.05 29.71,-0.39 44.56,-0.62 30.69,-0.47 61.39,-1.5 92.08,-1.57 1.2,0 1.15,-1.84 -0.04,-1.86 -30.73,-0.38 -61.46,-1.71 -92.18,-2.48 -14.87,-0.38 -29.73,-0.87 -44.6,-1.07 -7.93,-0.11 -15.85,-0.18 -23.78,-0.27 -4.51,-0.05 -9.16,-0.37 -13.74,-0.2 16.87,-20.02 33.72,-40.06 50.65,-60.03 0.41,-0.24 0.73,-0.61 0.94,-1.09 16.48,-19.43 32.96,-38.87 49.62,-58.15 2.28,-2.64 4.6,-5.24 6.89,-7.87 46.85,1.46 93.63,-1.62 140.46,-0.71 1.2,0.03 1.16,-1.86 -0.04,-1.86z"/>
          <path class="fil2" d="M2884.47 2792.13c-3.65,0.04 -7.3,0.06 -10.94,0.09 -1.08,0.01 -1.04,1.67 0.04,1.68 3.65,0.03 7.3,0.06 10.95,0.09 1.2,0.01 1.16,-1.87 -0.05,-1.86z"/>
          <path class="fil2" d="M2860.14 2792.26c-14.48,-0.2 -28.96,-0.5 -43.43,-0.91 -7.24,-0.2 -14.48,-0.44 -21.72,-0.69 -6.46,-0.22 -13.86,-1.22 -20.2,0.24 -0.71,0.17 -0.58,1.16 0.04,1.35 6.26,1.89 13.74,1.31 20.24,1.43 7.23,0.13 14.46,0.23 21.7,0.31 14.46,0.15 28.94,0.2 43.41,0.14 1.2,-0 1.15,-1.85 -0.04,-1.86z"/>
          <path class="fil2" d="M2733.74 2927.95c-29.42,-4.13 -59.15,-8.29 -88.91,-8.02 -0.43,0 -0.39,0.61 0.01,0.65 29.54,2.81 59.13,4.41 88.45,9.18 1.19,0.19 1.63,-1.64 0.45,-1.81z"/>
          <path class="fil2" d="M2612.88 2798.6c-0.3,-2.59 -0.58,-5.17 -0.92,-7.75 -0.76,-5.82 -1.68,-11.62 -2.59,-17.41 -1.74,-11.04 -3.67,-22.05 -5.76,-33.04 -0.19,-1.02 -1.95,-0.75 -1.82,0.3 1.39,11.35 2.61,22.74 3.67,34.13 0.52,5.59 0.93,11.2 1.44,16.79 0.46,5.06 0.01,11.32 2.26,15.93 0.85,1.74 3.45,1.04 3.9,-0.61 0.76,-2.76 0.15,-5.54 -0.17,-8.34z"/>
         </g>
        </g>
       </g>
       <g>
        <path class="fil2" d="M3204.56 2467.88c-14.4,-26.79 -32.7,-62.18 -68.63,-59.93 -29.65,1.85 -43.02,32.11 -49.36,57.14 -19.59,77.37 -20.96,158.99 -24.78,238.28 -8.06,167.58 -15.31,335.35 -16.37,503.15 -0.3,46.52 -0.13,93.02 0.3,139.54 0.44,47.43 0.31,95.15 3.32,142.49 0.29,4.48 6.95,4.34 6.98,-0.17 0.27,-40.57 -1.17,-81.18 -1.33,-121.76 -0.16,-39.6 0.15,-79.19 0.78,-118.79 1.29,-80.2 3.45,-160.38 6.42,-240.53 2.95,-79.67 6.46,-159.31 9.83,-238.96 1.69,-39.81 3.37,-79.61 5.17,-119.41 1.74,-38.56 3.41,-77.15 7.82,-115.52 2.47,-21.48 5.64,-42.97 10.12,-64.13 3.2,-15.09 7.8,-31.4 18.55,-42.99 14.18,-15.28 35.61,-14.19 52.43,-3.8 17.41,10.76 28,28.65 37.17,46.37 0.55,1.06 2.15,0.08 1.58,-0.98z"/>
        <g>
         <path class="fil8" d="M3194.84 2455.09c0,0 -29.53,-104.29 35.76,-52.15 108.68,86.81 112.55,275.63 112.55,275.63 0,0 -193.2,-112.22 -217.22,-186.23 -35.79,-110.25 68.92,-37.25 68.92,-37.25z"/>
         <g>
          <path class="fil2" d="M3302.5 2601.16c-1.78,-2.88 -3.67,-5.69 -5.49,-8.55 0.46,-2.88 0,-6.11 -0.02,-8.9 -0.02,-4.48 -0.07,-8.98 0.04,-13.46 0.21,-8.81 0.54,-17.62 0.96,-26.42 0.06,-1.2 -1.8,-1.15 -1.86,0.05 -0.45,8.63 -0.8,17.28 -1.04,25.92 -0.12,4.32 -0.32,8.65 -0.45,12.97 -0.06,1.69 -0.28,3.63 -0.37,5.57 -7.58,-11.78 -15.37,-23.44 -23.43,-34.89 -2.34,-3.32 -4.78,-6.56 -7.17,-9.85 -1.77,-11.15 -0.72,-22.85 -0.58,-34.06 0.15,-12.13 0.32,-24.24 0.74,-36.35 0.05,-1.19 -1.83,-1.15 -1.86,0.05 -0.35,12.61 -0.98,25.2 -1.62,37.8 -0.45,8.92 -1.28,18.02 -0.74,26.98 -18.67,-25.37 -38.45,-49.83 -58.5,-74.17 -0.67,-0.81 -2.09,0.33 -1.43,1.17 12.41,15.69 24.31,31.81 35.96,48.11 -22.73,-5.3 -45.85,-8.35 -68.95,-11.69 -1.17,-0.17 -1.64,1.62 -0.45,1.8 24.46,3.7 48.46,9.83 72.6,15.17 0.19,0.04 0.3,-0.09 0.48,-0.09 9.26,13.03 18.41,26.15 27.5,39.27 3.71,5.35 7.31,10.76 10.96,16.15 -0.35,-0.04 -0.7,-0.08 -1.04,-0.13 -2.5,-0.35 -5,-0.72 -7.52,-1.03 -5.34,-0.64 -10.71,-1.07 -16.07,-1.49 -11.13,-0.88 -22.3,-1.46 -33.45,-2.06 -1.19,-0.07 -1.16,1.83 0.04,1.86 10.99,0.26 21.9,1.08 32.83,2.26 5.77,0.63 11.52,1.41 17.28,2.09 2.52,0.3 5.04,0.59 7.55,0.9 0.74,0.09 1.48,0.2 2.21,0.31 6.19,9.13 12.4,18.24 18.57,27.38 10.91,16.13 20.65,33.41 32.3,48.99 0.69,0.93 1.98,0.1 1.5,-0.93 -8.13,-17.57 -19.36,-34.24 -29.5,-50.72z"/>
          <path class="fil2" d="M3254.38 2483.36c-0.01,-4.06 0.09,-8.12 0.08,-12.18 -0.02,-8.48 -0.12,-17.13 1.03,-25.55 0.19,-1.35 -1.83,-1.55 -1.83,-0.2 -0.02,8.44 -0.93,16.88 -1.33,25.31 -0.2,4.22 -0.21,8.44 -0.22,12.67 -0,1.95 0.01,3.9 0.02,5.85 0.02,1.98 -0.26,4.19 0.44,6.06 0.3,0.79 1.35,0.76 1.61,-0.04 0.58,-1.76 0.28,-3.75 0.26,-5.59 -0.04,-2.11 -0.05,-4.22 -0.06,-6.33z"/>
          <path class="fil2" d="M3230.5 2526.56c-7.18,-1.22 -14.55,-1.6 -21.8,-2.22 -7.98,-0.67 -15.92,-1.38 -23.87,-2.4 -1.33,-0.17 -1.56,1.74 -0.2,1.83 15.26,0.98 30.43,3.7 45.7,4.24 0.83,0.04 1,-1.32 0.16,-1.46z"/>
         </g>
        </g>
        <path class="fil2" d="M3291.19 2527.2c0.57,0.79 0.19,3.07 0.19,4.01l0 3.37c0,2.44 -0.02,4.86 -0.04,7.3 -0.02,2.43 -0.04,4.86 -0.06,7.29 -0.02,1.93 -0.52,4.61 0.35,6.37 0.14,0.29 0.59,0.25 0.73,-0.02 0.47,-0.94 0.37,-1.98 0.37,-3.03 -0.01,-1.12 -0.02,-2.24 -0.03,-3.36 -0.02,-2.43 -0.04,-4.86 -0.06,-7.29 -0.02,-2.43 -0.05,-4.86 -0.05,-7.29l0 -3.37c0,-1.03 -0.39,-3.17 0.21,-4.02 1.19,-1.68 -2.85,-1.71 -1.61,0.04z"/>
       </g>
       <g>
        <path class="fil2" d="M3209.06 3024.35c-40.63,-30.5 -77.13,-74.33 -131.79,-76.48 -45.11,-1.77 -76.72,32.18 -94.79,69.99 -9.53,19.94 -16.06,41.11 -22.11,62.31 -8.15,28.54 -15.83,57.22 -23.02,86.02 -14.15,56.66 -26.33,113.85 -36.18,171.41 -5.5,32.09 -10.61,64.29 -14.67,96.59 -4.09,32.57 -9.43,66.04 -9.49,98.9 -0.01,5.71 8.93,6.82 10.09,1.11 5.5,-27.02 7.81,-54.92 11.79,-82.21 4,-27.46 8.16,-54.9 12.81,-82.26 9.29,-54.73 20.01,-109.28 32.36,-163.4 11.66,-51.11 23.11,-103.01 39.6,-152.81 11.81,-35.67 30.79,-77.33 69.32,-90.16 58.64,-19.52 111.89,30.12 154.8,62.33 0.95,0.71 2.24,-0.63 1.28,-1.35z"/>
        <g>
         <path class="fil8" d="M3167 2995.17c0,0 -37.44,-106.95 16.73,-127.92 55.83,-21.61 173.75,84.81 228.44,272.63l-0.03 -0.1c-17.25,41.85 -36.4,82.71 -57.33,122.49l-0.07 0.15 -0.07 0.14 -0.07 0.15 -0.15 0.29 -0.07 0.14 -0.08 0.15 -0.07 0.15 -0.07 0.15 -0.07 0.14 -0.07 0.15 -0.08 0.15 -0.07 0.15 -0.08 0.14 -0.07 0.15 -0.07 0.14 -0.07 0.15 -0.07 0.14 -0.23 0.44 -0.07 0.14 -0.07 0.13c-16.82,31.74 -34.77,62.81 -53.8,93.09 -47.99,-31.51 -101.69,-69.4 -148.87,-109 -121.23,-101.75 -152.26,-234.65 -98.86,-269 53.39,-34.36 115.46,14.5 115.46,14.5z"/>
         <g>
          <path class="fil2" d="M3354.81 3262.28c-8.93,-15.28 -17.93,-30.55 -27.06,-45.69 -2.34,-3.87 -4.77,-7.71 -7.12,-11.58 0.32,-1.42 0.57,-2.88 0.89,-4.3 0.81,-3.54 1.61,-7.07 2.41,-10.61 1.8,-7.95 3.19,-15.99 4.69,-24 2.94,-15.7 5.67,-31.6 9.9,-47 0.31,-1.14 -1.58,-1.51 -1.83,-0.32 -3.36,15.69 -8.3,31.12 -12.94,46.46 -2.29,7.56 -4.72,15.09 -6.71,22.73 -0.69,2.62 -1.37,5.24 -2.05,7.85 -17.46,-28.61 -35.21,-57.09 -54.35,-84.61 1.61,-3.59 1.46,-7.64 1.9,-11.76 0.57,-5.36 1.22,-10.72 1.85,-16.07 1.43,-12.07 2.82,-24.12 4.59,-36.15 3.48,-23.63 6.99,-47.08 12.86,-70.26 0.3,-1.16 -1.54,-1.48 -1.83,-0.32 -5.84,23.09 -12.2,46.18 -16.59,69.6 -2.15,11.48 -4.19,23.01 -5.72,34.58 -0.77,5.8 -1.38,11.61 -1.98,17.43 -0.18,1.71 -0.45,3.48 -0.67,5.25 -5.89,-8.31 -11.78,-16.63 -17.94,-24.74 -18.76,-24.67 -38.18,-48.76 -57.8,-72.74 -0.75,-0.93 -2.28,0.14 -1.52,1.07 34.43,42.12 63.54,88.77 92.33,134.84 5.37,8.61 10.63,17.28 15.96,25.92 -1.79,-0.23 -3.56,-0.44 -5.28,-0.66 -6.86,-0.87 -13.81,-1.31 -20.7,-1.95 -13.81,-1.28 -27.63,-2.49 -41.46,-3.59 -27.66,-2.2 -55.39,-3.9 -82.98,-6.85 -1.19,-0.13 -1.52,1.7 -0.33,1.83 27.96,3.2 55.78,7.69 83.64,11.65 13.69,1.95 27.4,3.78 41.12,5.53 9.47,1.22 21.34,4.04 31.66,3.25 10.87,17.65 21.77,35.27 32.61,52.94 -2.41,-0.33 -4.93,-0.24 -7.33,-0.28 -4.61,-0.08 -9.22,-0.04 -13.83,-0.04 -8.57,-0 -17.13,-0.02 -25.7,-0 -17.81,0.01 -35.62,0.37 -53.43,0.34 -1.2,0 -1.01,1.84 0.18,1.85 18.05,0.22 36.05,1.13 54.07,2.07 8.55,0.44 17.09,0.96 25.63,1.55 4.27,0.3 8.54,0.65 12.81,0.92 3.74,0.23 7.74,0.96 11.28,-0.44 7.27,11.86 14.6,23.68 21.89,35.52l3.15 -5.91 0.07 -0.13 0.07 -0.14 0.23 -0.44 0.07 -0.14 0.07 -0.15 0.07 -0.14 0.07 -0.15 0.08 -0.14 0.07 -0.15 0.08 -0.15 0.07 -0.15 0.07 -0.14 0.07 -0.15 0.07 -0.15 0.08 -0.15 0.07 -0.14 0.15 -0.29 0.07 -0.15 0.07 -0.14 0.07 -0.15z"/>
          <path class="fil2" d="M3333.04 3066.87c-1.31,11.73 -4.43,23.44 -7.34,34.87 -3.02,11.88 -6.48,23.65 -10.33,35.29 -0.53,1.59 1.68,2.32 2.19,0.7 3.64,-11.55 6.91,-23.21 9.76,-34.98 2.85,-11.78 4.68,-23.79 7.56,-35.55 0.28,-1.17 -1.7,-1.52 -1.84,-0.33z"/>
          <path class="fil2" d="M3212.43 3138.5c-2.56,-2.58 -5.44,-2.84 -8.95,-3.33 -5.17,-0.73 -10.34,-1.42 -15.5,-2.12 -9.6,-1.31 -19.24,-2.37 -28.87,-3.5 -20.01,-2.35 -40.04,-4.29 -60.03,-6.81 -1.19,-0.15 -1.52,1.69 -0.32,1.83 18.87,2.3 37.64,5.16 56.48,7.63 9.24,1.21 18.46,2.52 27.72,3.6 4.44,0.52 8.89,0.99 13.34,1.48 4.92,0.56 10.72,0.41 15.22,2.61 0.9,0.44 1.54,-0.75 0.91,-1.4z"/>
          <path class="fil2" d="M3332.76 3299.77c-9.43,-0.81 -18.96,-1.11 -28.43,-1.4 -4.78,-0.15 -9.56,-0.3 -14.33,-0.44 -2.3,-0.07 -4.59,-0.15 -6.89,-0.21 -2.89,-0.09 -6.14,0.19 -8.95,-0.52 -1.32,-0.33 -1.45,2.06 -0.07,1.84 2.67,-0.43 5.7,0.1 8.39,0.26 2.48,0.15 4.96,0.3 7.44,0.44 4.78,0.29 9.55,0.57 14.32,0.86 9.45,0.57 18.97,1.13 28.43,1.19 1.15,0.01 1.24,-1.93 0.09,-2.03z"/>
         </g>
        </g>
       </g>
      </g>
      <g>
       <g>
        <path class="fil9" d="M2834.74 3492.06l11.44 130 16.09 181.8c117.84,-77.15 223.8,-170.91 314.56,-277.98l0.12 -0.14c4.68,-5.52 9.31,-11.07 13.91,-16.66l0.06 -0.07 4.6 -5.62 0.54 -0.66 1.9 -2.35 0 -0.02 4.23 -5.24 0.27 -0.33 0.26 -0.33 0.26 -0.33 0.26 -0.33 0.26 -0.33 0.27 -0.33 0.26 -0.33 0.26 -0.33 0.26 -0.33 0.08 -0.1 -369.91 0z"/>
        <path class="fil2" d="M2834.74 3492.06l11.44 130 241.41 0c31.16,-30.7 60.94,-62.8 89.25,-96.19l0.12 -0.14c4.68,-5.52 9.31,-11.07 13.91,-16.66l0.06 -0.07 4.6 -5.62 0.54 -0.66 1.9 -2.35 0 -0.02 4.23 -5.24 0.27 -0.33 0.26 -0.33 0.26 -0.33 0.26 -0.33 0.26 -0.33 0.27 -0.33 0.26 -0.33 0.26 -0.33 0.26 -0.33 0.08 -0.1 -369.91 0z"/>
       </g>
       <path class="fil9" d="M2800.71 3562.07l344.41 0c7.56,-8.35 15.03,-16.79 22.4,-25.31l0.44 -0.5c4.6,-5.33 9.16,-10.69 13.69,-16.08l0.27 -0.32 3.68 -4.41 0.71 -0.85 0.21 -0.26 3.66 -4.43 0.75 -0.92 0.16 -0.19 4.44 -5.43 0.11 -0.13 2.33 -2.87 0 -0.02 4.23 -5.24 0.27 -0.33 0.26 -0.33 0.26 -0.33 0.26 -0.33 0.26 -0.33 0.27 -0.33 0.26 -0.33 0.26 -0.33 0.26 -0.33 0.08 -0.1c3.39,-4.24 6.76,-8.49 10.1,-12.77l0 0.07c5.87,-7.52 11.67,-15.11 17.38,-22.75l-431.43 0 0 105.46z"/>
      </g>
     </g>
     <g>
      <g>
       <g>
        <path class="fil9" d="M1610.59 3231.46c0,0 0.1,0.51 0.31,1.44 0.1,0.31 0.1,0.61 0.2,1.02 0.1,0.82 0.3,1.64 0.51,2.77 0.1,0.61 0.2,1.23 0.31,1.84 0.31,1.13 0.51,2.46 0.72,4 0.2,0.92 0.31,1.85 0.51,2.87 0.31,2.05 0.72,4.3 1.23,6.76 0.72,3.9 1.54,8.3 2.36,13.22 1.33,7.28 2.87,15.57 4.61,25 0.51,2.66 1.02,5.53 1.54,8.5 0.71,3.89 1.43,7.99 2.25,12.19 0.82,4.61 1.64,9.43 2.56,14.44 0.1,0.1 0.1,0.2 0.1,0.31 0.61,3.48 1.33,7.07 1.94,10.76 1.94,10.96 4,22.64 6.35,35.14 0.11,0.31 0.21,0.61 0.21,0.93 2.46,13.93 5.12,28.89 7.99,44.57 0.72,4.1 1.54,8.2 2.35,12.3 0.82,4.3 1.64,8.61 2.35,12.91 0,0.1 0.11,0.2 0,0.31 0.41,2.67 0.93,5.43 1.54,8.2 0,0.1 0,0.1 0,0.2 3.89,21.83 8.09,44.88 12.6,69.26 1.54,8.19 2.97,16.5 4.51,24.9 2.97,16.39 6.04,33.2 9.22,50.51 0.82,3.99 1.54,7.99 2.15,12.09 4.61,25.11 9.32,51.23 14.24,78.28 0.62,2.76 1.03,5.53 1.54,8.3 2.35,12.71 4.71,25.51 6.96,38.63 0.31,1.02 0.52,2.05 0.62,3.07 1.13,6.15 2.25,12.4 3.38,18.65 4.51,25 9.12,50.61 13.94,76.74 1.23,6.45 2.46,13.01 3.59,19.67 2.35,13.22 4.81,26.54 7.27,39.96 3.07,16.7 6.15,33.5 9.22,50.61 3.07,17.01 6.15,34.22 9.33,51.54 0.82,4.37 1.62,8.73 2.41,13.09l0 0 -0.01 -0.03 1.89 0.41 1.9 0.42 0.97 0.21 0.93 0.2 1.9 0.41 1.9 0.41 0.04 0.01 1.86 0.39 1.9 0.4 1.02 0.22 0.89 0.19 1.9 0.4 1.9 0.39 0.09 0.02 1.81 0.37 1.91 0.39 1.06 0.21 0.85 0.17 1.91 0.39 1.91 0.38 0.13 0.03 1.78 0.35 1.91 0.38 1.1 0.22 0.81 0.16 1.91 0.37 1.91 0.37 0.17 0.03 1.74 0.33 1.92 0.37 1.14 0.22 0.77 0.15 1.92 0.36 1.91 0.35 0.21 0.04 1.7 0.31 1.92 0.35 1.19 0.22 0.73 0.13 1.92 0.35 1.92 0.35 0.26 0.04 3.59 0.64 1.24 0.22 0.68 0.12 3.69 0.64 0.16 0.03 0.3 0.05 1.63 0.28 7.7 1.3 0.34 0.06 1.59 0.26 1.93 0.32 1.33 0.21 0.6 0.1 1.93 0.31 1.93 0.31 0.39 0.06 1.55 0.24 1.93 0.3 1.38 0.21 0.56 0.09 3.87 0.59 0.43 0.07 4.71 0.7 0.15 0.02 0.52 0.07 1.94 0.28 1.94 0.29 0.48 0.07 3.41 0.48 1.47 0.21 4.36 0.61 0.52 0.07 4.89 0.67 0.43 0.06 1.95 0.26 0.2 0.02 0.19 0.03 0.2 0.02 0.19 0.03 0.19 0.02 0.19 0.03 0.19 0.03 0.2 0.02 0.06 0.01 0.14 0.02 0.2 0.03 0.19 0.02 0.2 0.02 0.18 0.03 0.02 0 0.19 0.03 0.19 0.02 0.2 0.03 0.19 0.03 0.19 0.02 0.2 0.02 0.13 0.02 0.06 0.01 0.2 0.03 0.19 0.02 0.2 0.03 0.19 0.03 0.19 0.02 0.19 0.02 0.2 0.03 0.19 0.02 0.19 0.02 0.2 0.02 0.19 0.03 0.02 0 0.18 0.02 0.19 0.02 0.2 0.02 0.19 0.02 0.19 0.03 0.2 0.02 0.19 0.02 0.03 0 0.17 0.02 0.19 0.03 0.39 0.05 0.39 0.05 0.19 0.02 0.2 0.02 0.19 0.02 0.39 0.05 0.2 0.02 0.19 0.02 0.19 0.02 0.39 0.05 0.39 0.05 0.19 0.02 0.39 0.05 0.2 0.02 0.19 0.02 0.39 0.05 0.06 0.01 0.13 0.02 0 0 4.7 0.57 0.07 0.01 0.12 0.02 0.14 0.02 0.14 0.02 0.14 0.02 0.14 0.02 0.14 0.02 0.14 0.02 0.14 0.02 0.14 0.02 0.14 0.02 0.14 0.02 0.14 0.02 0.14 0.02 0.28 0.03 0.14 0.02 0.28 0.04 0.14 0.02 0.14 0.02 0.14 0.02 0.14 0.02 0.14 0.02 0.14 0.02 0.15 0.02 0.14 0.02 0.14 0.01 0.14 0.02 0.14 0.02 0.14 0.02 0.14 0.02 0.14 0.02 0.14 0.01 0.14 0.02 0.14 0.01 0.04 0.01 0.11 0.01 0.14 0.02 0.14 0.02 0.15 0.02 0.14 0.02 0.14 0.02 0.14 0.02 0.14 0.02 0.14 0.02 0.14 0.02 0.14 0.02 0.14 0.02 0.14 0.01 0.14 0.02 0.14 0.01 0.14 0.02 0.14 0.02 0.14 0.02 0.14 0.02 0.14 0.02 0.14 0.02 0.14 0.02 0.14 0.02 0.14 0.01 0.14 0.02 0.14 0.01 0.14 0.02 0.14 0.02 0.14 0.02 0.14 0.02 0.75 0.09 3.1 0.35 0.03 0 2.44 0.27 2.43 0.26c50.33,5.41 101.43,8.25 153.17,8.37l0 0.04 3.76 0.01c2.92,0 5.82,-0.01 8.74,-0.03l0.37 0 7.14 -0.07 3.39 -0.04 2.18 -0.03 2.17 -0.04c38.44,-0.65 76.51,-2.82 114.18,-6.37l-0.01 0.07c144.14,-13.6 282.15,-48.27 410.97,-100.81 -96.35,-397.76 -172.95,-701.93 -172.95,-701.93l-832.07 0z"/>
        <path class="fil10" d="M1744.4 3333.61c42.95,231.52 86.29,463.04 130.09,694.46l0.59 0.08 0.19 0.03 0.07 0.01 3.96 0.52 0.62 0.08 0.19 0.02 0.2 0.02 0.19 0.03 0.2 0.03 0.19 0.02 0.2 0.02 0.19 0.02 0.19 0.03 0 0 0.39 0.05 0 0 0.03 0 0.17 0.02 0.19 0.03 0 0 0.19 0.02 0 0 0.19 0.02 0 0 0.19 0.02 0 0 0.19 0.02 0 0 0.19 0.02 0.2 0.02 0 0 0.19 0.02 0 0 0.2 0.02 0.15 0.02 0.04 0 0 0 0.2 0.02 0 0 0.39 0.05 0 0 0.2 0.02 2.14 0.27c-45.72,-232.54 -92.74,-464.7 -139.57,-696.97 -0.41,-1.94 -3.28,-1.02 -2.97,0.93z"/>
       </g>
       <path class="fil2" d="M1610.69 3231.46c0,0 0.11,0.51 0.21,1.44 0.1,0.31 0.1,0.61 0.2,1.02 0.2,0.72 0.3,1.64 0.51,2.77 0.1,0.61 0.2,1.23 0.31,1.84 0.31,1.13 0.51,2.46 0.72,4 0.2,0.92 0.31,1.85 0.51,2.87 0.41,2.05 0.82,4.3 1.23,6.76 0.72,3.9 1.54,8.3 2.36,13.22 1.44,7.28 2.87,15.57 4.61,25 0.51,2.66 1.02,5.53 1.54,8.5 0.71,3.89 1.43,7.99 2.25,12.19 0.82,4.61 1.64,9.43 2.56,14.44 0.1,0.1 0.1,0.2 0.1,0.31 0.61,3.48 1.33,7.07 1.94,10.76 2.05,10.96 4.1,22.64 6.35,35.14 0.11,0.31 0.21,0.61 0.21,0.93 2.56,13.93 5.22,28.69 8.09,44.36 0.82,4.1 1.54,8.3 2.25,12.5 0.82,4.3 1.64,8.61 2.35,12.91 0,0.1 0.11,0.2 0,0.31 0.62,2.67 1.03,5.43 1.54,8.2 0,0.1 0,0.1 0,0.2 4,21.72 8.2,44.88 12.6,69.26 1.54,8.19 2.97,16.5 4.51,24.9 3.07,16.39 6.15,33.2 9.22,50.51 0.82,3.99 1.54,7.99 2.15,12.09 4.71,25.21 9.43,51.33 14.24,78.28 0.62,2.76 1.03,5.53 1.54,8.3 2.35,12.71 4.71,25.51 6.96,38.63 0.31,1.02 0.52,2.05 0.62,3.07 1.13,6.15 2.25,12.4 3.38,18.65 4.61,25 9.22,50.61 13.94,76.74 1.23,6.45 2.46,13.01 3.59,19.67 2.46,13.22 4.81,26.54 7.27,39.96 3.07,16.7 6.15,33.5 9.22,50.61 3.07,17.01 6.25,34.22 9.33,51.54 0.82,4.37 1.62,8.73 2.41,13.09l0 0 -0.01 -0.03 1.89 0.41 1.9 0.42 0.97 0.21 0.93 0.2 1.9 0.41 1.9 0.41 0.04 0.01 1.86 0.39 1.9 0.4 1.02 0.22 0.89 0.19 1.9 0.4 1.9 0.39 0.09 0.02 1.81 0.37 1.91 0.39 1.06 0.21 0.85 0.17 1.91 0.39 1.91 0.38 0.13 0.03 1.78 0.35 1.91 0.38 1.1 0.22 0.81 0.16 1.91 0.37 1.91 0.37 0.17 0.03 1.74 0.33 1.92 0.37 1.14 0.22 0.77 0.15 1.92 0.36 1.91 0.35 0.21 0.04 1.7 0.31 1.92 0.35 1.19 0.22 0.73 0.13 1.92 0.35 1.92 0.35 0.26 0.04 3.59 0.64 1.24 0.22 0.68 0.12 3.69 0.64 0.16 0.03 0.3 0.05 1.63 0.28 7.7 1.3 0.34 0.06 1.59 0.26 1.93 0.32 1.33 0.21 0.6 0.1 1.93 0.31 1.93 0.31 0.39 0.06 1.55 0.24 1.93 0.3 1.38 0.21 0.56 0.09 3.87 0.59 0.43 0.07 4.71 0.7 0.15 0.02 0.52 0.07 1.94 0.28 1.94 0.29 0.48 0.07 3.41 0.48 1.47 0.21 4.36 0.61 0.52 0.07 4.89 0.67 0.43 0.06 1.95 0.26 0.2 0.02 0.19 0.03 0.2 0.02 0.19 0.03 0.19 0.02 0.19 0.03 0.19 0.03 0.2 0.02 0.06 0.01 0.14 0.02 0.2 0.03 0.19 0.02 0.2 0.02 0.18 0.03 0.02 0 0.19 0.03 0.19 0.02 0.2 0.03 0.19 0.03 0.19 0.02 0.2 0.02 0.13 0.02 0.06 0.01 0.2 0.03 0.19 0.02 0.2 0.03 0.19 0.03 0.19 0.02 0.19 0.02 0.2 0.03 0.19 0.02 0.19 0.02 0.2 0.02 0.19 0.03 0.02 0 0.18 0.02 0.19 0.02 0.2 0.02 0.19 0.02 0.19 0.03 0.2 0.02 0.19 0.02 0.03 0 0.17 0.02 0.19 0.03 0.39 0.05 0.39 0.05 0.19 0.02 0.2 0.02 0.19 0.02 0.39 0.05 0.2 0.02 0.19 0.02 0.19 0.02 0.39 0.05 0.39 0.05 0.19 0.02 0.39 0.05 0.2 0.02 0.19 0.02 0.39 0.05 0.06 0.01 0.13 0.02 0 0 4.7 0.57 0.07 0.01 0.12 0.02 0.14 0.02 0.14 0.02 0.14 0.02 0.14 0.02 0.14 0.02 0.14 0.02 0.14 0.02 0.14 0.02 0.14 0.02 0.14 0.02 0.14 0.02 0.14 0.02 0.28 0.03 0.14 0.02 0.28 0.04 0.14 0.02 0.14 0.02 0.14 0.02 0.14 0.02 0.14 0.02 0.14 0.02 0.15 0.02 0.14 0.02 0.14 0.01 0.14 0.02 0.14 0.02 0.14 0.02 0.14 0.02 0.14 0.02 0.14 0.01 0.14 0.02 0.14 0.01 0.04 0.01 0.11 0.01 0.14 0.02 0.14 0.02 0.15 0.02 0.14 0.02 0.14 0.02 0.14 0.02 0.14 0.02 0.14 0.02 0.14 0.02 0.14 0.02 0.14 0.02 0.14 0.01 0.14 0.02 0.14 0.01 0.14 0.02 0.14 0.02 0.14 0.02 0.14 0.02 0.14 0.02 0.14 0.02 0.14 0.02 0.14 0.02 0.14 0.01 0.14 0.02 0.14 0.01 0.14 0.02 0.14 0.02 0.14 0.02 0.14 0.02 0.75 0.09 3.1 0.35 0.03 0 2.44 0.27 2.43 0.26c50.33,5.41 101.43,8.25 153.17,8.37l0 0.04 3.76 0.01c2.92,0 5.82,-0.01 8.74,-0.03l0.37 0 7.14 -0.07 3.39 -0.04 2.18 -0.03 2.17 -0.04c38.44,-0.65 76.51,-2.82 114.18,-6.37l-0.01 0.07 33.92 -347.2 1.23 -12.91 1.43 -13.94 0 -0.1 6.97 -71.21c0,0 0,0 0,-0.1l6.04 -61.68 28.9 -295.59 -672.44 0z"/>
      </g>
      <g>
       <path class="fil9" d="M2062.73 4040.65c1.58,-84.26 3.28,-165.8 5.34,-242.9l0 -0.1c0.11,-1.94 0.11,-3.89 0.2,-5.84 0,0 111.47,-65.98 171.52,-117.72 11.68,-9.94 21.41,-19.47 28.07,-27.87 0,-0.1 0,-0.1 0.1,-0.2l0.11 -0.1c38.42,-48.98 76.94,-237.3 156.66,-414.45l-1168.03 0c-87.03,168.99 -131.42,322.54 -151.34,454.22l1.05 -6.8c180.89,158.98 401.55,273.79 645.13,327.56l-0.01 -0.03 1.89 0.41 1.89 0.41 1.89 0.41 1.9 0.41 3.79 0.81 1.9 0.4c18.36,3.87 36.85,7.41 55.46,10.58l1.93 0.33 1.29 0.22 0.64 0.1 1.93 0.32 3.85 0.64 1.93 0.31 1.93 0.31 1.93 0.31 1.93 0.31 0.39 0.06 1.55 0.24 1.93 0.3 1.38 0.22 0.56 0.08 1.94 0.3 1.94 0.3 0.43 0.07 1.5 0.22 1.94 0.29 1.42 0.21 0.52 0.07 1.94 0.28 1.94 0.28 0.47 0.07 0.34 0.04 3.07 0.44 1.47 0.21 4.36 0.61 0.52 0.07 4.89 0.67 0.43 0.06 1.95 0.26 0.2 0.02 0.19 0.03 0.2 0.02 0.19 0.03 0.19 0.02 0.19 0.03 0.01 0 0.19 0.03 0.2 0.02 0.19 0.03 0.2 0.03 0.19 0.02 0.2 0.02 0.18 0.03 0.02 0 0.19 0.03 0.19 0.02 0.2 0.03 0.12 0.02 0.07 0.01 0.19 0.02 0.2 0.02 0.19 0.03 0.2 0.03 0.19 0.02 0.2 0.03 0.19 0.03 0.19 0.02 0.19 0.02 0.2 0.03 0.06 0 0.14 0.02 0.19 0.02 0.2 0.02 0.19 0.03 0.2 0.02 0.19 0.03 0.2 0.02 0.19 0.02 0.19 0.03 0.2 0.02 0.17 0.02 0.02 0 0.03 0 0.17 0.02 0.19 0.03 0.19 0.02 0.2 0.02 0.19 0.02 0.14 0.02 5.69 0.71 1.12 0.13 6.19 0.74 0.51 0.06 0.13 0.02 0.06 0 0.18 0.02 0.19 0.02 0.19 0.02 0.19 0.02 0.19 0.02 0.19 0.02 0.19 0.02 0.19 0.02 0.19 0.02 0.18 0.02 0.19 0.02 0.19 0.02 0.18 0.02 0.19 0.02 0.19 0.02 0.19 0.02 0.19 0.02 0.19 0.02 0.19 0.02 0.18 0.02 0.19 0.02 0.19 0.02 0.18 0.02 0.19 0.02 0.19 0.02 0.18 0.02 0.06 0.01 0.13 0.01 0.19 0.02 0.19 0.02 0.19 0.02 0.19 0.02 0.19 0.02 0.19 0.02 0.19 0.02 0.19 0.02 0.19 0.02 0.56 0.06 0.18 0.02 0.19 0.02 0.19 0.02 0.18 0.02 0.19 0.02 0.19 0.02 0.18 0.02 0.19 0.02 0.37 0.04 0.19 0.02 0.19 0.02 0.18 0.02 0.17 0.02 0.01 0 0.19 0.02 0.18 0.02 0.19 0.02 0.19 0.02 0.19 0.02 0.18 0.02 0.19 0.02 0.19 0.02 0.18 0.02 0.19 0.02 2.84 0.31 0.22 0.02 2.11 0.22 2.33 0.24 0.49 0.05 1.85 0.19 2.34 0.24 2.34 0.23 2.34 0.23 1.01 0.1 1.33 0.12 2.35 0.22c43.74,4.07 88.05,6.21 132.83,6.33zm-957.77 -352.28c-0.58,3.89 -1.14,7.76 -1.68,11.62 0.54,-3.85 1.1,-7.73 1.68,-11.62zm-2.08 14.5c-0.52,3.83 -1.03,7.65 -1.52,11.45 0.49,-3.8 0.99,-7.61 1.52,-11.45zm-1.81 13.78c-0.52,4.14 -1.02,8.26 -1.49,12.35 0.47,-4.09 0.97,-8.21 1.49,-12.35zm-5.26 49.86c-0.31,3.7 -0.61,7.38 -0.89,11.04 0.28,-3.66 0.57,-7.33 0.89,-11.04zm-1.06 13.42c-0.26,3.59 -0.51,7.15 -0.74,10.7 0.23,-3.54 0.48,-7.11 0.74,-10.7zm-0.89 13.07c-0.4,6.43 -0.75,12.79 -1.04,19.07 0.29,-6.29 0.64,-12.64 1.04,-19.07zm-1.63 33.77c-0.11,3.33 -0.22,6.65 -0.3,9.95 0.08,-3.3 0.18,-6.61 0.3,-9.95zm-0.36 12.65c-0.07,3.24 -0.13,6.46 -0.18,9.65 0.04,-3.2 0.1,-6.42 0.18,-9.65zm-0.21 12.24c-0.03,2.7 -0.06,5.38 -0.07,8.06l0.07 -8.06z"/>
       <g>
        <g>
         <path class="fil2" d="M2295.49 3633.59c-56.83,23.23 -107.91,59.03 -158.36,93.52 -52.4,35.83 -100.44,77.21 -150.85,115.63 -1.94,1.48 -0.11,4.67 2.04,3.3 53.13,-33.92 108.78,-63.76 161.32,-98.68 51.04,-33.93 104.1,-66.94 148.41,-109.61 1.74,-1.68 -0.2,-5.11 -2.56,-4.15z"/>
         <path class="fil2" d="M2302.66 3305.08c-6.76,36.37 -15.58,72.37 -23.43,108.52 -7.37,33.91 -12.79,68.52 -21.75,102.04 -8.7,32.52 -22.54,62.33 -47.53,85.54 -13.31,12.37 -27.96,23.31 -42.15,34.64 -7.64,6.1 -15.91,11.97 -23.86,18.15 1.04,-4.8 1.87,-9.69 2.74,-14.64 2.42,-13.78 4.75,-27.59 7.07,-41.39 5.15,-30.63 10.04,-61.31 14.74,-92.01 9.22,-60.34 17.72,-121.33 30.31,-181.07 0.51,-2.44 -3.15,-3.37 -3.77,-0.94 -15.03,59.2 -31.63,117.77 -44.72,177.47 -6.42,29.29 -29.34,173.85 -30.35,184.08 -1.05,10.57 -1.93,21.17 -2.3,31.78 -0.37,10.47 -2.45,22.18 -0.04,32.46 0.62,2.64 3.8,2.21 4.92,0.43 0.05,0.04 0.1,0.07 0.15,0.11 5.26,-9.21 6.57,-21.24 9.19,-31.43 2.65,-10.31 4.98,-20.78 6.84,-31.27 0.67,-3.78 1.19,-7.66 1.73,-11.53 14.24,-8.66 27.5,-20.09 40.81,-29.74 14.35,-10.39 28.97,-20.51 42.53,-31.93 25.99,-21.89 42.24,-48.7 51.92,-81.13 10.05,-33.65 13.15,-69.16 17.03,-103.9 4.59,-41.08 7.96,-82.38 13.69,-123.31 0.34,-2.42 -3.3,-3.42 -3.76,-0.94z"/>
        </g>
        <path class="fil2" d="M1330.87 3558.33c15.22,-7.96 74.27,6.15 181.78,-12.24 20.74,-3.55 41.4,-9.96 58.02,-23.55 28.02,-22.89 49.22,-59.61 66.16,-91.08 18.61,-34.58 37.49,-74.02 46.3,-112.45 0.54,-2.36 3.97,-1.23 3.56,1.07 -3.99,22.26 -6.22,44.46 -12.09,66.47 -5.52,20.7 -13.51,40.83 -22.21,60.37 -16.24,36.49 -35.22,75.65 -67.94,100.29 -34.32,25.86 -82.18,30.69 -123.77,33.58 -24.05,1.68 -118.39,-0.86 -131.06,-14.33 -2.25,-2.39 -1.74,-6.57 1.26,-8.14z"/>
       </g>
      </g>
     </g>
     <path class="fil11" d="M2072.84 1844.08c232.53,129.31 1094.83,460.03 1288.71,342.04 144.12,-87.71 123.52,-275.97 0.93,-397.37 -106.66,-105.62 -905.86,-135.31 -1129.53,-141.48 -212.97,-5.87 -388.57,69.76 -160.11,196.82z"/>
     <path class="fil8" d="M2645.83 2135.75l347.33 -476.57c0,0 -600.98,-58.47 -854.81,-36.54 -264.54,22.85 -318.7,126.38 0.63,273.54 314.59,144.97 506.86,239.57 506.86,239.57z"/>
     <path class="fil2" d="M2587.21 2043.83c6.94,-12.26 15.67,-23.65 23.71,-35.21 8.28,-11.89 16.49,-23.83 24.72,-35.75 16.68,-24.17 33.79,-48.05 51.01,-71.84 34.4,-47.53 68.62,-95.19 103.82,-142.13 9.68,-12.91 19.41,-25.79 29.41,-38.44 10.53,-13.3 22.03,-25.85 32.5,-39.15 0.65,-0.83 1.78,0.2 1.22,1.04 -8.15,12.02 -15.34,24.74 -23.46,36.83 -8.31,12.37 -16.79,24.66 -25.43,36.81 -17,23.92 -34.17,47.72 -51.56,71.37 -34.22,46.55 -68.28,93.27 -103.48,139.08 -9.83,12.79 -19.77,25.49 -29.6,38.28 -10.28,13.37 -20.06,27.61 -31.53,39.97 -0.59,0.64 -1.8,-0.04 -1.33,-0.86z"/>
     <path class="fil4" d="M2354.96 1697.45c-6.05,13.73 -11.27,27.87 -13.43,43.34 10.45,-11.68 17.72,-24.9 24.18,-38.42 6.04,-13.73 11.27,-27.77 13.42,-43.34 -10.45,11.68 -17.62,24.9 -24.18,38.43zm130.84 226.23l0 0c-13.73,-6.04 -27.77,-11.37 -43.34,-13.42 11.68,10.45 24.89,17.62 38.42,24.07 13.73,6.05 27.87,11.37 43.34,13.43 -11.68,-10.45 -24.9,-17.62 -38.42,-24.08zm-360.55 -162.3l0 0c-13.72,-6.04 -27.76,-11.37 -43.34,-13.42 11.68,10.45 24.9,17.62 38.42,24.07 13.73,6.05 27.87,11.37 43.34,13.43 -11.68,-10.35 -24.89,-17.62 -38.42,-24.08zm524.18 -23.98l0 0c-5.43,-13.93 -11.57,-27.67 -21.11,-40.17 0.92,15.68 5.13,30.13 10.14,44.26 5.43,14.04 11.58,27.66 21.11,40.17 -0.82,-15.68 -5.12,-30.12 -10.15,-44.26zm105.33 174.18l0 0c-13.94,5.43 -27.67,11.68 -40.17,21.11 15.67,-0.92 30.12,-5.12 44.26,-10.15 14.04,-5.43 27.66,-11.57 40.16,-21.1 -15.68,0.92 -30.12,5.12 -44.26,10.14z"/>
     <path class="fil2" d="M2138.99 1896.15c314.55,144.99 506.85,239.57 506.85,239.57l110.99 -152.37 -832.56 -284.86c-24.08,48.35 38.35,116.34 214.73,197.67z"/>
     <path class="fil11" d="M2873.36 793.86c-64.51,-89.88 -228.99,-214.7 -393.21,-311.98 -79.68,-47.19 -322.84,-158.44 -363.75,-100.06 -40.91,58.39 27.3,97.2 27.3,97.2 0,0 -109.76,-31.63 -145.59,30.89 -35.81,62.52 72.27,119.42 72.27,119.42 0,0 -115.09,-24.26 -146.37,40.65 -31.27,64.91 86.99,103.92 86.99,103.92 0,0 -104.19,-27.09 -107.45,37.23 -3.92,77.37 193.83,105.62 279.31,162.22 19.41,12.86 374.92,288.54 374.92,288.54l315.57 -468.02z"/>
     <path class="fil2" d="M2012.19 775.66c145.36,21.12 205.31,55.5 315.22,149.47 2.15,1.83 5.37,-0.95 3.3,-3.07 -99.26,-101.81 -168.24,-155.79 -317.87,-153.5 -7.31,0.12 -7.57,6.09 -0.65,7.09z"/>
     <path class="fil2" d="M2064.86 626.57c149.07,35.12 214.42,71.84 336.78,161.79 1.73,1.27 4.07,-1.52 2.43,-2.96 -112.65,-98.28 -182.7,-150.55 -336.25,-166.08 -6.94,-0.7 -9.77,5.64 -2.95,7.24z"/>
     <path class="fil2" d="M2155.83 482.52c141.87,44.42 215.26,81.59 322.83,184.16 2.54,2.42 6.31,-1.05 4,-3.72 -99.52,-115.26 -190.76,-162.33 -325.03,-184.61 -9.15,-1.52 -10.73,1.37 -1.81,4.17z"/>
     <path class="fil11" d="M2613.64 1350.5c0,0 -179.75,-39.59 -254.88,-74.41 -75.13,-34.81 -307.35,-267.6 -259.93,-320.61 61.24,-68.45 221.77,39.53 293.48,102.69 0,0 141.51,-158.46 273.5,-105.9 131.98,52.56 -52.18,398.23 -52.18,398.23z"/>
     <path class="fil2" d="M2121.87 942.2c100.87,-22.13 189.66,66.85 263.81,122.92 5.64,4.26 11.05,1.23 13.46,-3.72 63.75,-62.45 171.86,-131.99 264.41,-114.45 2.71,0.52 3.81,-3.26 1.15,-4.15 -96.7,-32.3 -208.49,27.36 -273.94,100.24 -75.14,-58.69 -168.11,-144.02 -269.16,-101.79 -0.57,0.24 -0.38,1.1 0.26,0.96z"/>
     <path class="fil11" d="M3461.92 2019.28c-6.48,199.1 -242.48,185.31 -344.5,90.68 -239.42,-222.09 -592.39,-675.07 -688.07,-954.41 -30.79,-89.9 330.73,-484.72 401.06,-411.39 124.82,130.15 644.66,871.16 631.51,1275.12z"/>
     <path class="fil2" d="M2855.57 1827.92c17.65,17.84 34.57,36.27 51.45,54.72 16.98,18.37 33.46,37.15 50.07,55.81l49.31 56.4c8.13,9.48 16.41,18.82 24.76,28.11 8.14,9.5 16.7,18.55 25.17,27.83 -19.99,-15.24 -38.06,-32.81 -55.7,-50.57 -17.71,-17.76 -34.58,-36.28 -51.22,-55 -16.46,-18.87 -32.78,-37.86 -48.35,-57.47 -15.66,-19.54 -31.09,-39.27 -45.5,-59.83z"/>
     <path class="fil2" d="M2305.8 1953.33c8.44,12.06 15.7,23.8 22.94,35.89 3.48,6.09 7.09,12.12 10.35,18.43 3.33,6.28 6.57,12.64 9.13,19.64 -11.85,-8.94 -20.8,-20.49 -28.31,-32.87 -3.58,-6.3 -6.9,-12.77 -9.37,-19.65 -2.48,-6.83 -4.5,-13.97 -4.75,-21.45z"/>
     <path class="fil8" d="M2530.55 3427.84l-1382.17 0c0,0 211.15,-1318.86 720.6,-1769.84 62.96,-55.73 204.99,-43.07 297.66,2.98 33.1,16.45 151.86,182.61 185.76,339.72 33.65,156.94 181.86,1422.45 178.15,1427.14z"/>
     <path class="fil4" d="M1709.34 2038.43c-14.04,5.43 -27.67,11.58 -40.17,21.11 15.67,-0.93 30.12,-5.12 44.26,-10.15 13.93,-5.43 27.66,-11.57 40.16,-21.11 -15.68,0.92 -30.12,5.12 -44.26,10.14zm672.53 153.28l0 0c-0.61,0.31 -1.13,0.82 -1.74,1.23 0.61,0 1.23,-0.1 1.84,-0.2 0,-0.31 -0.1,-0.72 -0.1,-1.02zm-359.22 207.99l0 0c-13.94,5.43 -27.67,11.68 -40.17,21.11 15.68,-0.92 30.12,-5.13 44.26,-10.15 14.04,-5.43 27.67,-11.58 40.17,-21.11 -15.67,0.92 -30.12,5.12 -44.26,10.15zm-187.81 572.74l0 0c-14.04,5.43 -27.67,11.68 -40.17,21.21 15.68,-0.92 30.12,-5.12 44.26,-10.14 13.94,-5.43 27.67,-11.68 40.17,-21.21 -15.67,0.92 -30.12,5.12 -44.26,10.14zm-316.29 -399.28l0 0c-13.94,5.43 -27.67,11.68 -40.17,21.11 15.68,-0.92 30.12,-5.12 44.26,-10.14 13.93,-5.43 27.67,-11.58 40.17,-21.11 -15.68,0.92 -30.13,5.12 -44.26,10.14zm-283.61 796.52l0 0c-13.93,5.43 -27.66,11.57 -40.16,21.11 15.67,-0.93 30.12,-5.13 44.26,-10.15 14.04,-5.43 27.67,-11.68 40.17,-21.21 -15.68,0.92 -30.12,5.22 -44.26,10.25zm610.55 -49.9l0 0c-13.93,5.43 -27.66,11.58 -40.16,21.11 15.68,-0.93 30.12,-5.12 44.26,-10.15 14.04,-5.43 27.67,-11.68 40.17,-21.21 -15.68,0.92 -30.13,5.12 -44.26,10.24zm680.22 56.15l0 0c-9.94,1.85 -19.36,4.82 -28.79,8.2 -14.04,5.43 -27.67,11.68 -40.17,21.11 15.68,-0.92 30.02,-5.12 44.26,-10.14 8.71,-3.38 17.31,-7.07 25.61,-11.68 -0.31,-2.36 -0.51,-4.92 -0.92,-7.48zm-285.76 -419.06l0 0c-13.93,5.43 -27.67,11.58 -40.16,21.11 15.67,-0.93 30.12,-5.13 44.26,-10.15 14.04,-5.43 27.66,-11.58 40.16,-21.11 -15.68,0.82 -30.12,5.12 -44.26,10.14zm-388.21 -1131.86l0 0c-5.43,-13.93 -11.58,-27.66 -21.11,-40.16 0.92,15.67 5.12,30.12 10.14,44.26 5.43,14.04 11.58,27.67 21.11,40.17 -0.82,-15.68 -5.12,-30.12 -10.14,-44.26zm-304.2 1546.92l0 0c-5.43,-14.04 -11.57,-27.66 -21.1,-40.16 0.92,15.67 5.12,30.12 10.14,44.26 5.43,13.94 11.58,27.67 21.11,40.17 -0.82,-15.68 -5.12,-30.13 -10.15,-44.26zm-60.65 -385.14l0 0c-5.43,-13.94 -11.68,-27.67 -21.21,-40.06 0.92,15.57 5.12,30.02 10.15,44.16 5.43,14.04 11.68,27.76 21.2,40.17 -0.92,-15.68 -5.12,-30.13 -10.14,-44.26zm525.92 -228.89l0 0c-5.43,-14.04 -11.68,-27.67 -21.11,-40.17 0.93,15.68 5.12,30.12 10.15,44.26 5.43,13.93 11.57,27.66 21.11,40.16 -0.92,-15.67 -5.13,-30.12 -10.14,-44.26zm-186.07 -493.75l0 0c-5.43,-13.93 -11.68,-27.67 -21.21,-40.16 0.92,15.67 5.12,30.12 10.14,44.26 5.43,14.04 11.68,27.67 21.21,40.16 -0.92,-15.67 -5.12,-30.12 -10.14,-44.26zm254.71 1126.54l0 0c0.82,13.11 3.79,25.31 7.69,37.19l12.3 0c-5.22,-13.01 -11.27,-25.61 -19.98,-37.19zm391.7 -286.78l0 0c-5.43,-14.04 -11.69,-27.77 -21.21,-40.17 0.93,15.57 5.22,30.02 10.15,44.16 5.43,14.04 11.68,27.76 21.21,40.17 -0.92,-15.68 -5.13,-30.02 -10.14,-44.16zm-239.35 -1121.72l0 0c-5.43,-13.93 -11.68,-27.67 -21.21,-40.06 1.03,15.57 5.23,30.02 10.25,44.16 5.33,14.04 11.58,27.76 21.11,40.17 -0.92,-15.68 -5.12,-30.13 -10.14,-44.26zm-108.61 -220.8l0 0c-13.72,-6.04 -27.76,-11.37 -43.33,-13.42 11.68,10.45 24.9,17.62 38.42,24.07 13.73,6.05 27.87,11.37 43.34,13.43 -11.68,-10.35 -24.9,-17.62 -38.43,-24.08zm-452.35 1035.45l0 0c-13.63,-6.15 -27.77,-11.37 -43.34,-13.52 11.78,10.45 24.9,17.72 38.53,24.18 13.73,6.05 27.76,11.27 43.34,13.43 -11.78,-10.45 -24.9,-17.63 -38.52,-24.08zm-357.48 360.15l0 0c-13.73,-6.05 -27.77,-11.37 -43.34,-13.42 11.68,10.45 24.9,17.62 38.42,24.07 13.73,6.04 27.87,11.37 43.34,13.42 -11.68,-10.45 -24.9,-17.62 -38.42,-24.07zm934.63 89.75l0 0c-13.73,-6.04 -27.77,-11.37 -43.34,-13.42 11.68,10.45 24.9,17.62 38.42,24.07 13.73,6.05 27.87,11.37 43.34,13.43 -11.68,-10.35 -24.9,-17.62 -38.42,-24.08zm-29.72 -571.21l0 0c-13.73,-6.05 -27.87,-11.37 -43.34,-13.43 11.68,10.45 24.9,17.73 38.43,24.08 13.73,6.04 27.76,11.37 43.34,13.52 -11.68,-10.45 -24.9,-17.72 -38.43,-24.18zm-95.08 -484.84l0 0c-13.72,-6.04 -27.76,-11.37 -43.33,-13.42 11.68,10.45 24.9,17.63 38.42,24.08 13.73,6.05 27.87,11.37 43.34,13.42 -11.68,-10.45 -24.9,-17.62 -38.43,-24.08zm-569.66 134.32l0 0c-6.05,13.63 -11.37,27.77 -13.43,43.34 10.45,-11.78 17.62,-24.9 24.08,-38.53 6.04,-13.73 11.37,-27.76 13.42,-43.34 -10.45,11.78 -17.62,24.9 -24.07,38.52zm459.12 795.9l0 0c-6.15,13.73 -11.37,27.87 -13.52,43.34 10.45,-11.68 17.72,-24.9 24.18,-38.42 6.05,-13.73 11.27,-27.77 13.43,-43.34 -10.45,11.78 -17.63,24.9 -24.08,38.42zm281.04 -702.56l0 0c-6.05,13.73 -11.37,27.87 -13.43,43.44 10.45,-11.78 17.63,-25 24.08,-38.52 6.05,-13.73 11.37,-27.77 13.43,-43.34 -10.45,11.78 -17.63,24.9 -24.08,38.42zm-628.28 743.54l0 0c-6.04,13.73 -11.37,27.77 -13.42,43.34 10.45,-11.78 17.63,-24.9 24.08,-38.52 6.04,-13.73 11.37,-27.77 13.42,-43.34 -10.35,11.78 -17.62,24.89 -24.08,38.52zm-359.83 -384.83l0 0c-6.05,13.73 -11.37,27.87 -13.43,43.44 10.45,-11.78 17.63,-25 24.08,-38.53 6.04,-13.73 11.37,-27.76 13.42,-43.34 -10.35,11.78 -17.63,24.9 -24.08,38.42zm489.55 -214.86l0 0c-6.15,13.73 -11.37,27.87 -13.43,43.44 10.35,-11.78 17.62,-25 24.08,-38.52 6.05,-13.73 11.27,-27.77 13.42,-43.34 -10.45,11.78 -17.62,24.9 -24.07,38.42zm180.02 -561.67l0 0c-6.04,13.73 -11.27,27.87 -13.42,43.34 10.45,-11.68 17.72,-24.9 24.18,-38.42 6.05,-13.73 11.27,-27.77 13.42,-43.34 -10.45,11.68 -17.62,24.9 -24.18,38.43z"/>
     <path class="fil11" d="M1631.99 3475.33c0.26,-77.42 22.43,-544.8 9.11,-698.07 -4.45,-51.28 172.93,-624.28 218.78,-816.65 43.05,-180.61 -48.88,-260.34 -183.86,-90.3 -112.17,141.33 -405.41,693.54 -464.58,840.98 -59.17,147.45 -120.96,644.11 -120.48,749.15 0.38,83.06 540.77,91.28 541.02,14.88z"/>
     <path class="fil11" d="M1690.64 4140.86c-53.18,26.8 -96.18,-17.39 -96.18,-17.39 0,0 -23.49,41.35 -67.36,54.06 -50.25,14.57 -95.13,-57.83 -95.13,-57.83 0,0 -32.44,36.93 -80.14,45.7 -49.5,9.1 -105.2,-57.49 -105.2,-57.49 0,0 -49.11,17.8 -95.78,-4.2 -79.79,-37.59 -95.69,-171.36 -106.65,-256.28 -10.98,-84.93 43.52,-360.55 47.91,-409.34l538.41 -50.66c0,0 157.54,366.85 156.26,468.53 -1.08,85.66 -36.43,254.81 -96.13,284.89z"/>
     <path class="fil2" d="M1596.75 4121.38c23,-90.8 17.9,-183.46 18.06,-276.24 0,-2.06 -3.23,-2.04 -3.21,0.03 0.91,92.28 -16.5,183.53 -19.27,275.65 -0.08,2.55 3.8,3.01 4.42,0.56z"/>
     <path class="fil2" d="M1438.85 4116.98c4.58,-20.7 2.32,-42.85 1.32,-63.85 -1.09,-22.61 -2.59,-45.18 -4.41,-67.74 -3.67,-45.16 -8.37,-90.24 -14.39,-135.15 -0.27,-1.99 -3.37,-2.07 -3.21,0.03 3.58,45.01 6.48,90.07 8.16,135.2 0.85,22.57 1.49,45.17 1.99,67.76 0.46,21.01 -0.8,43.22 4.34,63.76 0.77,3.04 5.51,3.09 6.2,-0.02z"/>
     <path class="fil2" d="M1246.52 4106c4.71,-17.83 -0.03,-39.44 -1.88,-57.54 -2.1,-20.54 -4.09,-41.09 -5.96,-61.65 -3.74,-41.12 -7.46,-82.23 -9.77,-123.46 -0.12,-2.06 -3.32,-2.05 -3.21,0.02 2.13,41.9 3.69,83.82 6.2,125.7 1.22,20.57 2.57,41.12 4.02,61.67 1.24,17.47 0.8,39.45 8.55,55.53 0.44,0.9 1.82,0.62 2.06,-0.28z"/>
     <path class="fil8" d="M1749.55 2552.51l-558.33 1.82c0,0 305.02,-521.11 471.61,-713.87 173.62,-200.89 289.25,-184.07 221.22,160.89 -67.02,339.84 -134.5,551.15 -134.5,551.15z"/>
     <path class="fil4" d="M1555.58 2325c-6.04,13.63 -11.37,27.77 -13.42,43.34 10.45,-11.78 17.62,-24.9 24.07,-38.53 6.05,-13.73 11.37,-27.76 13.43,-43.34 -10.45,11.78 -17.62,24.9 -24.08,38.52zm83.2 -455.53l0 0c-1.94,2.36 -3.79,4.61 -5.74,7.07 7.18,2.35 14.55,4.2 22.24,5.22 -5.22,-4.71 -10.76,-8.71 -16.5,-12.3zm-178.48 286.47l0 0c-2.76,-7.17 -5.74,-14.24 -9.32,-21.11 -2.15,3.38 -4.3,6.66 -6.56,10.04l0 0.1c1.44,5.12 3.07,10.15 4.81,15.06 5.43,14.04 11.69,27.67 21.21,40.17 -0.93,-15.68 -5.12,-30.13 -10.15,-44.26zm366.5 108.2l0 0c-5.43,-13.93 -11.68,-27.67 -21.21,-40.16 0.93,15.67 5.12,30.12 10.15,44.26 2.05,5.22 4.2,10.45 6.45,15.47 1.54,-6.35 3.07,-12.7 4.71,-19.26 0,-0.1 -0.1,-0.2 -0.1,-0.31zm25 -439.14l0 0c-5.43,-13.93 -11.58,-27.66 -21.11,-40.16 0.93,15.67 5.12,30.12 10.15,44.26 5.43,14.04 11.57,27.67 21.11,40.17 -0.82,-15.68 -5.13,-30.12 -10.14,-44.26zm-559.63 605.94l0 0c-13.83,5.33 -27.35,11.58 -39.75,20.8 -0.1,0.1 -0.31,0.2 -0.41,0.31 0.1,0 0.1,0 0.2,0 15.57,-0.92 30.02,-5.12 44.06,-10.15 14.04,-5.43 27.67,-11.57 40.17,-21.1 -15.67,0.92 -30.12,5.12 -44.26,10.14zm417.21 -392.52l0 0c-14.04,5.43 -27.67,11.58 -40.16,21.11 15.67,-0.93 30.12,-5.12 44.26,-10.15 13.93,-5.43 27.67,-11.57 40.16,-21.11 -15.67,0.92 -30.12,5.12 -44.26,10.14z"/>
     <path class="fil2" d="M1282.76 2464.33c14,-1.53 28.35,-1.11 42.43,-1.33 14.48,-0.24 28.97,-0.55 43.46,-0.84 29.36,-0.59 58.73,-0.66 88.1,-0.59 58.67,0.13 117.35,0.06 176.01,1.18 16.13,0.31 32.26,0.67 48.38,1.4 16.94,0.77 33.85,2.77 50.76,3.5 1.05,0.04 0.87,1.56 -0.13,1.59 -14.52,0.41 -29.04,2.02 -43.59,2.49 -14.91,0.48 -29.83,0.79 -44.74,0.88 -29.35,0.19 -58.7,0.15 -88.04,-0.13 -57.77,-0.56 -115.59,-0.9 -173.33,-2.69 -16.12,-0.5 -32.24,-1.15 -48.36,-1.65 -16.85,-0.52 -34.12,-0.15 -50.86,-2.22 -0.86,-0.11 -1.02,-1.48 -0.07,-1.58z"/>
     <path class="fil2" d="M1824.1 2293.53c11.72,-18.19 20.74,-38.35 24.67,-59.67 0.07,-0.39 -0.56,-0.58 -0.69,-0.19 -6.17,18.37 -13.4,36.23 -22.51,53.27 1.73,-7.71 3.46,-15.42 5.17,-23.13 6.19,-27.89 12.46,-55.74 17.3,-83.9 0.07,-0.44 -0.64,-0.65 -0.76,-0.21 -14.03,47.82 -25.93,96.32 -38.88,144.45 -13.13,48.81 -25.96,97.7 -38.8,146.59 -7,26.66 -14.11,53.32 -20.5,80.13 -9.07,0.78 -16.2,0.48 -24.2,1.22 -2.21,0.2 -2.41,3.9 -0.01,4.05 10.17,0.62 30.02,0.56 30.36,-0.5 27.83,-85.89 49.07,-174.01 68.86,-262.11z"/>
     <path class="fil2" d="M1833.58 1732.13c40.04,72.51 97.94,135.87 166.11,177.13 34.47,20.86 72.15,37.04 111.52,38.93 20.08,0.96 42.35,-1.2 59.6,-12.6 16.79,-11.1 29.42,-28.81 38.69,-47.37 10.44,-20.89 17.26,-44.16 21.22,-67.65 4.43,-26.32 7.29,-53.41 8.06,-80.27 0.03,-1.02 1.49,-0.8 1.46,0.22 -0.73,25.48 0.52,51.03 -2.06,76.39 -2.3,22.5 -6.36,44.8 -14.19,65.67 -7.54,20.11 -18.62,39.04 -33.36,53.69 -16.1,16 -35.99,23.26 -57.74,25.21 -41.65,3.72 -83.5,-9.65 -120.95,-30.12 -36.17,-19.78 -70.4,-46.78 -99.44,-77.59 -32.91,-34.91 -60.6,-76.06 -81.13,-120.61 -0.72,-1.57 1.42,-2.46 2.21,-1.02z"/>
     <path class="fil11" d="M2146.26 1891.61c-78.89,22.03 -220.5,-94.2 -278.47,-190.67 -3.93,-6.64 3.57,-78.34 8.57,-165.89 2.82,-53.15 4.71,-112.39 2.54,-166.57 -0.5,-11.12 343.15,68.9 343.15,68.9 0,0 -28.85,114.92 -24.47,209.36 0.45,7.89 1.53,15.2 3.23,22.14 0.16,1.02 0.5,2.24 0.64,3.67 8.58,41.96 21.06,197.71 -55.18,219.06z"/>
     <path class="fil2" d="M2166.62 1675.77c12.73,-0.22 24.23,-1.23 34.79,-3.24 -0.15,-1.43 -0.46,-2.59 -0.64,-3.68 -1.72,-6.9 -2.76,-14.21 -3.16,-22.13 -4.36,-94.36 24.41,-209.29 24.41,-209.29 0,0 -278.92,-64.98 -333.83,-69.75 13.01,62.18 77.84,311.71 278.44,308.09z"/>
     <path class="fil11" d="M1903.62 896.94c-61.63,109.99 -73.59,463.94 -6.32,558.09 97.52,136.5 294.13,190.37 419.43,64.7 121.46,-121.82 128.88,-583.36 50.3,-672.73 -115.74,-131.63 -372.37,-112.54 -463.42,49.94z"/>
     <path class="fil2" d="M2310.49 935.08c-29.6,35.5 -75.41,54.29 -121.48,47.7 -44.88,-6.41 -89.87,-36.5 -106.73,-79.56 -0.5,-1.28 -2.5,-0.5 -1.99,0.78 18.04,46.06 56.33,83.54 107.05,89.54 47.6,5.63 98.21,-17.17 125.73,-56.37 1.22,-1.74 -1.19,-3.75 -2.57,-2.09z"/>
     <path class="fil2" d="M2177.36 648.39c-55.7,-15 -116.8,11.87 -149.74,57.7 -20.02,27.84 -29.7,59.31 -33.98,93.01 -0.17,1.36 1.87,1.69 2.11,0.33 9.47,-52.56 42.37,-105.77 91.31,-129.69 47.02,-22.98 100.78,-18.28 139.42,18.22 20.16,19.05 33.93,44.93 37.5,72.46 0.4,3.09 4.98,2.54 4.78,-0.55 -3.33,-52.09 -40.99,-97.9 -91.41,-111.48z"/>
     <path class="fil2" d="M2596.39 776.96c-12.26,-35.93 -38.09,-66.45 -70.62,-85.75 -45.57,-27.04 -96.43,-21.98 -146.86,-15.89 -1.36,0.17 -1.13,2.29 0.24,2.13 42.95,-5.03 86.8,-7.62 126.75,11.88 32.56,15.89 60.07,42.92 75.06,76.07 31.11,68.82 4.56,155.37 -60.65,193.86 -36.92,21.79 -83.02,27.38 -124.04,14.98 -1.61,-0.49 -2.75,1.89 -1.1,2.44 75.01,24.85 162.09,-10.76 194.59,-83.71 16.04,-36.01 19.43,-78.49 6.62,-116.01z"/>
     <path class="fil2" d="M1883.73 944.43c0,0 6.13,-108.02 34.11,-141.13 27.98,-33.12 89.92,-40.81 89.92,-40.81 0,0 36.06,-91.5 123.26,-97.63 78.27,-5.5 131.3,63.49 131.3,63.49 0,0 108.2,-107.69 232.14,-46.69 117.59,57.87 102.91,236.91 -10.83,294.24 -79.86,40.25 -190.05,-29.38 -190.05,-29.38 -10.48,1.57 -117.09,67.9 -199.71,-26.89 0,0 -73.18,57.33 -115.52,17.27 0,0 -56.37,26.82 -94.62,7.54z"/>
     <path class="fil12" d="M1972.29 819.16c-3.8,53.48 -16.11,205.78 -35.6,239.2 -20.09,34.71 -65.88,120.74 -84.69,126.85 1.99,-115.02 20.41,-232.78 51.61,-288.26 17.51,-31.2 41.13,-57.16 68.68,-77.79z"/>
     <path class="fil11" d="M1901.25 1183.35c0,0 -55.51,-125.76 -111.09,-108.07 -55.59,17.68 -29.03,189.35 25.54,222.87 54.57,33.52 86.58,-16.39 86.58,-16.39l-1.02 -98.41z"/>
     <path class="fil2" d="M1798.99 1124.3c-0.93,-0.27 -1.38,1.02 -0.62,1.51 37.99,24.86 52.18,67.43 59.59,110.11 -9.27,-17.7 -24.34,-29.36 -47.68,-18.78 -1.22,0.56 -0.53,2.44 0.69,2.43 17.63,-0.29 29.25,5.04 38.01,20.84 6.2,11.18 9.34,24.4 12.95,36.61 1.2,4.07 8.26,3.41 7.69,-1.12 -0.04,-0.33 -0.1,-0.68 -0.15,-1.02 11.41,-52.43 -15,-134.16 -70.47,-150.59z"/>
     <path class="fil2" d="M2147.95 1177.26c-0.15,-0.91 -1.91,1.06 -1.91,2.04 -0.15,23.86 -4.34,51.17 -26.21,58.26 -0.67,0.22 -0.65,1.42 0.15,1.34 26.46,-2.7 31.65,-39.01 27.97,-61.64z"/>
     <path class="fil2" d="M2127.61 1151.56c-38.22,-4.37 -44.14,72.41 -8.73,76.46 34.85,3.98 40.78,-72.8 8.73,-76.46z"/>
     <path class="fil2" d="M2297.51 1187.37c0.26,-0.9 1.77,1.26 1.67,2.24 -2.59,23.72 -1.56,51.33 19.34,60.89 0.66,0.3 0.5,1.49 -0.3,1.31 -25.97,-5.72 -26.97,-42.38 -20.72,-64.43z"/>
     <path class="fil2" d="M2320.66 1164.16c38.48,0.05 35.56,77 -0.09,76.95 -35.08,-0.04 -32.16,-76.99 0.09,-76.95z"/>
     <path class="fil2" d="M2089.43 1103.93c9.02,-5.97 18.33,-9.97 27.86,-14.95 10.75,-5.62 18.73,-11.21 31.32,-9.84 6.74,0.74 12.89,8.6 12.8,15.22 -0.23,15.43 -11.69,25.58 -24.35,32.87 -13.74,7.92 -26.35,10.5 -41.98,7.96 -15.15,-2.46 -17.52,-23.39 -5.63,-31.27z"/>
     <path class="fil2" d="M2368.36 1134.41c-7.8,-7.49 -16.25,-13.1 -24.73,-19.71 -9.57,-7.46 -16.42,-14.38 -29.05,-15.28 -6.78,-0.49 -14.22,6.14 -15.32,12.68 -2.54,15.21 6.92,27.26 18.07,36.7 12.1,10.25 24.06,15.06 39.89,15.36 15.34,0.3 21.43,-19.87 11.14,-29.75z"/>
     <path class="fil2" d="M2156.5 1363.17c31.01,-9.83 69.51,-3.22 93.82,1.56 2.77,-0.21 5.65,-5.44 6.29,-8l0 -0.18c0.05,-0.86 2.01,-50.37 2.01,-50.37 6.38,3.77 39.03,21.31 39.16,11.81 0.82,-78.6 1.75,-166 -14.03,-244.39 -0.39,-2.61 -4.38,-2.3 -4.34,0.3 -3.79,75.51 5.74,151.18 3.14,227.09 -10.48,-4.85 -27.48,-13.65 -36.96,-14.12 -2.63,0.56 0.6,53.43 -0.84,61.48 0,0 -46.98,-17.76 -87.91,4.43 -10.62,5.76 -15.13,15.07 -0.35,10.39z"/>
     <path class="fil2" d="M2105.9 1394.91c5.29,5.88 10.43,13.85 18.93,15.13 8.16,1.22 18.02,-1.85 25.73,-4.28 0.76,-0.24 1.46,0.6 0.94,1.28 -6.71,8.65 -19.95,13.48 -30.76,10.85 -10.55,-2.56 -15.23,-12.12 -17.19,-22.06 -0.27,-1.39 1.56,-1.78 2.34,-0.92z"/>
     <path class="fil4" d="M1999.32 1122.51c-32.49,0 -15.03,-61.33 -8.24,-82.66 6.55,-21.58 8.24,-68.85 8.24,-68.85 0,0 1.69,47.27 8.48,68.85 6.79,21.33 24.24,82.66 -8.48,82.66z"/>
     <path class="fil2" d="M2405.84 1288.54c2.58,-28.19 4.53,-56.3 5.8,-84.44 1.15,-28.13 2.1,-56.25 1.92,-84.37 0.16,-28.13 -0.61,-56.24 -1.9,-84.35 -0.44,-14.08 -1.5,-28.12 -2.58,-42.18 -0.57,-14.12 -2.5,-28.09 -3.23,-42.27 6.25,27.6 10.98,55.62 13.67,83.85 3.16,28.2 4.21,56.59 4.28,84.96 -0.07,28.37 -1.3,56.74 -4.33,84.94 -1.5,14.1 -3.27,28.17 -5.32,42.18 -2.49,13.96 -4.78,27.94 -8.3,41.68z"/>
     <path class="fil1" d="M1780.98 4168.78c0.72,4.2 1.54,8.41 2.36,12.7 -0.72,-4.2 -1.54,-8.5 -2.26,-12.7l-0.1 0z"/>
     <g>
      <path class="fil4" d="M1739.51 844.61c27.87,-42.44 43.54,-90.17 43.54,-140.63 0,-178.15 -195.63,-322.6 -436.8,-322.6 -241.17,0 -436.63,144.45 -436.63,322.6 0,178.15 195.45,322.59 436.63,322.59 116.94,0 222.95,-33.88 301.28,-89.26l150.46 38.26 -58.47 -130.97z"/>
      <path class="fil2" d="M1739.51 844.61c25.22,-39.92 40.22,-86.27 40.96,-133.11 0.69,-46.82 -12.52,-93.32 -36.9,-132.94 -24.23,-39.76 -57.6,-73.49 -95.55,-100.37 -37.97,-26.99 -80.52,-47.29 -124.84,-61.55 -44.32,-14.44 -90.56,-22.61 -137.03,-25.41 -46.46,-2.58 -93.31,-0.61 -139.07,7.73 -45.77,8.06 -90.55,21.89 -132.32,41.93 -41.73,19.95 -80.66,46.06 -113.07,78.67 -32.35,32.49 -57.97,71.85 -71.21,115.28 -13.46,43.22 -14.5,90.33 -1.72,133.94 12.48,43.72 37.51,83.51 69.42,116.47 31.96,33.08 70.59,59.67 112.13,80.11 41.56,20.58 86.35,34.48 132,43.22 45.69,8.67 92.55,12 139.14,9.51 93,-4.52 186.01,-31.87 263.36,-84.61l1.85 -1.26 2.02 0.55 149.91 40.42 -2.87 3.4 -56.22 -131.97zm60.73 129.96l0 0 2.15 4.6 -5.02 -1.2 -151.01 -36.09 3.87 -0.72c-38.65,28.19 -82.24,49.16 -127.52,64.31 -45.34,15.17 -92.69,24.1 -140.41,27.31 -47.7,3.39 -95.86,0.84 -143.12,-7.27 -47.15,-8.63 -93.5,-22.79 -136.81,-43.89 -43.27,-20.98 -83.81,-48.46 -117.78,-83.19 -33.88,-34.59 -61.02,-76.92 -74.81,-124.18 -14.05,-47.1 -13.46,-98.51 1.17,-145.43 14.65,-47.05 42.47,-88.96 76.85,-123.11 34.46,-34.28 75.36,-61.28 118.89,-81.79 43.57,-20.59 89.99,-34.61 137.28,-42.66 94.54,-16.12 193.05,-9.39 283.74,21.73 45.29,15.46 88.67,37.07 127.27,65.54 38.51,28.37 72.64,63.63 96.27,105.52 23.98,41.58 36.16,89.9 34.07,137.6 -1.94,47.82 -19.06,94.09 -45.82,132.95l60.73 129.96z"/>
     </g>
     <path class="fil13" d="M1022.36 805.3l27.54 -173.36 31.72 0 -11.56 72.3 88.77 0 11.56 -72.3 31.72 0 -27.54 173.36 -31.72 0 11.8 -74.76 -88.77 0 -11.8 74.76 -31.72 0zm234.35 2.46c-15.08,0 -26.07,-4.35 -32.95,-13.04 -6.88,-8.69 -9.02,-21.64 -6.39,-38.85l11.81 -74.76 30.74 0 -11.8 74.26c-1.48,9.83 -0.57,16.97 2.7,21.39 3.28,4.43 8.93,6.64 16.97,6.64 9.18,0 16.64,-2.95 22.37,-8.85 5.74,-5.9 9.43,-13.77 11.07,-23.61l11.06 -69.84 30.74 0 -19.67 124.18 -30 0 3.94 -25.33 3.69 0c-4.76,8.85 -10.91,15.7 -18.44,20.53 -7.54,4.83 -16.15,7.26 -25.82,7.26zm100.09 -2.46l28.77 -180.98 30.74 0 -13.03 81.64 -3.69 0c4.92,-9.02 11.52,-15.82 19.8,-20.41 8.28,-4.59 17.58,-6.89 27.91,-6.89 15.08,0 25.66,4.39 31.72,13.16 6.07,8.77 7.71,21.93 4.92,39.47l-11.56 74.02 -30.74 0 11.56 -74.02c1.64,-10.17 0.82,-17.46 -2.46,-21.89 -3.28,-4.43 -8.85,-6.64 -16.72,-6.64 -9.51,0 -17.37,2.91 -23.61,8.73 -6.23,5.82 -10.08,13.56 -11.56,23.24l-11.31 70.57 -30.74 0zm161.06 -51.39l9.59 -121.97 37.87 0 -28.77 121.97 -18.69 0zm-16.23 51.39l5.41 -34.18 34.43 0 -5.41 34.18 -34.43 0zm77.21 -51.39l9.59 -121.97 37.87 0 -28.77 121.97 -18.69 0zm-16.23 51.39l5.41 -34.18 34.43 0 -5.41 34.18 -34.43 0zm77.21 -51.39l9.59 -121.97 37.87 0 -28.77 121.97 -18.69 0zm-16.23 51.39l5.41 -34.18 34.43 0 -5.41 34.18 -34.43 0z"/>
     <polygon class="fil1" points="151.35,3249.19 422.66,3249.19 422.66,3134.53 151.35,3134.53 "/>
     <polygon class="fil1" points="151.35,155.39 422.66,155.39 422.66,40.74 151.35,40.74 "/>
     <polygon class="fil1" points="-0,299.96 271.31,299.96 271.31,185.31 -0,185.31 "/>
     <polygon class="fil1" points="3950.91,155.52 4222.22,155.52 4222.22,40.87 3950.91,40.87 "/>
    </g>
   </g>
  </g>
  <polygon class="fil14" points="-0,0 4222.22,0 4222.22,4222.22 -0,4222.22 "/>
 </g>
</svg>
