<?xml version="1.0" encoding="UTF-8"?>
<!DOCTYPE svg PUBLIC "-//W3C//DTD SVG 1.1//EN" "http://www.w3.org/Graphics/SVG/1.1/DTD/svg11.dtd">
<!-- Creator: CorelDRAW 2019 (64-Bit) -->
<svg xmlns="http://www.w3.org/2000/svg" xml:space="preserve" width="0.376846in" height="0.348409in" version="1.1" style="shape-rendering:geometricPrecision; text-rendering:geometricPrecision; image-rendering:optimizeQuality; fill-rule:evenodd; clip-rule:evenodd"
viewBox="0 0 376.85 348.41"
 xmlns:xlink="http://www.w3.org/1999/xlink"
 xmlns:xodm="http://www.corel.com/coreldraw/odm/2003">
 <defs>
  <style type="text/css">
   <![CDATA[
    .fil0 {fill:#229E54}
   ]]>
  </style>
 </defs>
 <g id="Layer_x0020_1">
  <metadata id="CorelCorpID_0Corel-Layer"/>
  <g id="_2580233963728">
   <g>
    <ellipse class="fil0" cx="287.85" cy="33.45" rx="89" ry="33.45"/>
    <path class="fil0" d="M372.71 56.69c2.69,3.19 4.14,6.58 4.14,10.11 0,18.47 -39.84,33.45 -89,33.45 -49.15,0 -88.99,-14.98 -88.99,-33.45 0,-3.52 1.46,-6.92 4.14,-10.11 11.4,13.53 45.07,23.34 84.85,23.34 39.78,0 73.46,-9.82 84.86,-23.34z"/>
    <path class="fil0" d="M372.71 87.71c2.69,3.19 4.14,6.59 4.14,10.11 0,18.47 -39.84,33.45 -89,33.45 -49.15,0 -88.99,-14.98 -88.99,-33.45 0,-3.52 1.46,-6.92 4.14,-10.11 11.4,13.53 45.07,23.34 84.85,23.34 39.78,0 73.46,-9.81 84.86,-23.34z"/>
    <path class="fil0" d="M372.71 118.73c2.69,3.19 4.14,6.58 4.14,10.11 0,18.47 -39.84,33.45 -89,33.45 -49.15,0 -88.99,-14.98 -88.99,-33.45 0,-3.52 1.46,-6.92 4.14,-10.11 11.4,13.53 45.07,23.34 84.85,23.34 39.78,0 73.46,-9.81 84.86,-23.34z"/>
    <path class="fil0" d="M372.71 149.75c2.69,3.19 4.14,6.58 4.14,10.11 0,18.47 -39.84,33.45 -89,33.45 -49.15,0 -88.99,-14.98 -88.99,-33.45 0,-3.52 1.46,-6.92 4.14,-10.11 11.4,13.53 45.07,23.34 84.85,23.34 39.78,0 73.46,-9.81 84.86,-23.34z"/>
    <path class="fil0" d="M372.71 180.77c2.69,3.19 4.14,6.59 4.14,10.11 0,18.47 -39.84,33.45 -89,33.45 -49.15,0 -88.99,-14.98 -88.99,-33.45 0,-3.52 1.46,-6.92 4.14,-10.11 11.4,13.53 45.07,23.34 84.85,23.34 39.78,0 73.46,-9.81 84.86,-23.34z"/>
    <path class="fil0" d="M372.71 211.79c2.69,3.19 4.14,6.58 4.14,10.11 0,18.47 -39.84,33.45 -89,33.45 -49.15,0 -88.99,-14.98 -88.99,-33.45 0,-3.52 1.46,-6.92 4.14,-10.11 11.4,13.53 45.07,23.34 84.85,23.34 39.78,0 73.46,-9.82 84.86,-23.34z"/>
    <path class="fil0" d="M372.71 242.81c2.69,3.19 4.14,6.58 4.14,10.11 0,18.47 -39.84,33.45 -89,33.45 -49.15,0 -88.99,-14.98 -88.99,-33.45 0,-3.52 1.46,-6.92 4.14,-10.11 11.4,13.53 45.07,23.34 84.85,23.34 39.78,0 73.46,-9.81 84.86,-23.34z"/>
    <path class="fil0" d="M372.71 273.83c2.69,3.19 4.14,6.59 4.14,10.11 0,18.47 -39.84,33.45 -89,33.45 -49.15,0 -88.99,-14.98 -88.99,-33.45 0,-3.52 1.46,-6.92 4.14,-10.11 11.4,13.53 45.07,23.34 84.85,23.34 39.78,0 73.46,-9.81 84.86,-23.34z"/>
    <path class="fil0" d="M372.71 304.86c2.69,3.19 4.14,6.58 4.14,10.11 0,18.47 -39.84,33.45 -89,33.45 -49.15,0 -88.99,-14.98 -88.99,-33.45 0,-3.52 1.46,-6.92 4.14,-10.11 11.4,13.53 45.07,23.34 84.85,23.34 39.78,0 73.46,-9.82 84.86,-23.34z"/>
   </g>
   <g>
    <ellipse class="fil0" cx="89" cy="190.98" rx="89" ry="32.79"/>
    <path class="fil0" d="M173.85 214.49c2.69,3.13 4.14,6.45 4.14,9.91 0,18.1 -39.84,32.79 -88.99,32.79 -49.15,0 -89,-14.69 -89,-32.79 0,-3.46 1.46,-6.78 4.14,-9.91 11.4,13.26 45.08,22.88 84.86,22.88 39.78,0 73.45,-9.62 84.85,-22.88z"/>
    <path class="fil0" d="M173.85 244.9c2.69,3.12 4.14,6.45 4.14,9.91 0,18.11 -39.84,32.79 -88.99,32.79 -49.15,0 -89,-14.68 -89,-32.79 0,-3.45 1.46,-6.78 4.14,-9.91 11.4,13.26 45.08,22.88 84.86,22.88 39.78,0 73.45,-9.62 84.85,-22.88z"/>
    <path class="fil0" d="M173.85 275.31c2.69,3.13 4.14,6.45 4.14,9.91 0,18.1 -39.84,32.79 -88.99,32.79 -49.15,0 -89,-14.69 -89,-32.79 0,-3.46 1.46,-6.78 4.14,-9.91 11.4,13.26 45.08,22.88 84.86,22.88 39.78,0 73.45,-9.62 84.85,-22.88z"/>
    <path class="fil0" d="M173.85 305.72c2.69,3.12 4.14,6.45 4.14,9.91 0,18.1 -39.84,32.79 -88.99,32.79 -49.15,0 -89,-14.69 -89,-32.79 0,-3.45 1.46,-6.78 4.14,-9.91 11.4,13.26 45.08,22.88 84.86,22.88 39.78,0 73.45,-9.62 84.85,-22.88z"/>
   </g>
  </g>
 </g>
</svg>
