<?xml version="1.0" encoding="UTF-8"?>
<!DOCTYPE svg PUBLIC "-//W3C//DTD SVG 1.1//EN" "http://www.w3.org/Graphics/SVG/1.1/DTD/svg11.dtd">
<!-- Creator: CorelDRAW 2019 (64-Bit) -->
<svg xmlns="http://www.w3.org/2000/svg" xml:space="preserve" width="4.89583in" height="4.89583in" version="1.1" style="shape-rendering:geometricPrecision; text-rendering:geometricPrecision; image-rendering:optimizeQuality; fill-rule:evenodd; clip-rule:evenodd"
viewBox="0 0 4895.83 4895.83"
 xmlns:xlink="http://www.w3.org/1999/xlink"
 xmlns:xodm="http://www.corel.com/coreldraw/odm/2003">
 <defs>
  <style type="text/css">
   <![CDATA[
    .str1 {stroke:#4C8060;stroke-width:3;stroke-miterlimit:10}
    .str0 {stroke:#E4A788;stroke-width:3;stroke-miterlimit:10}
    .fil52 {fill:none}
    .fil29 {fill:black}
    .fil41 {fill:#2BCE6C}
    .fil31 {fill:#2CC268}
    .fil38 {fill:#32B566}
    .fil30 {fill:#33DC76}
    .fil34 {fill:#33E57A}
    .fil36 {fill:#33E67A}
    .fil37 {fill:#35D775}
    .fil40 {fill:#36AB65}
    .fil43 {fill:#36BD6C}
    .fil39 {fill:#37975D}
    .fil42 {fill:#3A9960}
    .fil33 {fill:#53F19C}
    .fil32 {fill:#7CFFB0}
    .fil35 {fill:#FBFFD3}
    .fil2 {fill:#FEFEFE;fill-rule:nonzero}
    .fil11 {fill:#D5E9F8;fill-rule:nonzero}
    .fil18 {fill:#8699B3;fill-rule:nonzero}
    .fil17 {fill:#4F6B99;fill-rule:nonzero}
    .fil26 {fill:#4C6EA6;fill-rule:nonzero}
    .fil5 {fill:#35497D;fill-rule:nonzero}
    .fil15 {fill:#00AC45;fill-rule:nonzero}
    .fil24 {fill:#018D3A;fill-rule:nonzero}
    .fil16 {fill:#053818;fill-rule:nonzero}
    .fil8 {fill:#054D21;fill-rule:nonzero}
    .fil14 {fill:#056A2D;fill-rule:nonzero}
    .fil6 {fill:#056A2D;fill-rule:nonzero}
    .fil4 {fill:#09AB49;fill-rule:nonzero}
    .fil19 {fill:#1A1A1A;fill-rule:nonzero}
    .fil20 {fill:#23AA59;fill-rule:nonzero}
    .fil25 {fill:#29DB6F;fill-rule:nonzero}
    .fil49 {fill:#2CC268;fill-rule:nonzero}
    .fil45 {fill:#32B566;fill-rule:nonzero}
    .fil44 {fill:#33DC76;fill-rule:nonzero}
    .fil48 {fill:#37975D;fill-rule:nonzero}
    .fil47 {fill:#3A9960;fill-rule:nonzero}
    .fil7 {fill:#49E688;fill-rule:nonzero}
    .fil3 {fill:#4C8060;fill-rule:nonzero}
    .fil46 {fill:#53F19C;fill-rule:nonzero}
    .fil9 {fill:#9CFFC4;fill-rule:nonzero}
    .fil13 {fill:#B9876E;fill-rule:nonzero}
    .fil0 {fill:#DCC3B6;fill-rule:nonzero}
    .fil1 {fill:#E4A788;fill-rule:nonzero}
    .fil10 {fill:white;fill-rule:nonzero}
    .fil12 {fill:#B9876E;fill-rule:nonzero;fill-opacity:0.501961}
    .fil21 {fill:#054D21;fill-rule:nonzero;fill-opacity:0.709804}
    .fil22 {fill:url(#id1)}
    .fil51 {fill:url(#id2)}
    .fil27 {fill:url(#id3)}
    .fil28 {fill:url(#id4)}
    .fil50 {fill:url(#id5)}
    .fil23 {fill:url(#id6)}
   ]]>
  </style>
   <clipPath id="id0">
    <path d="M-0 0l4895.83 0 0 4895.83 -4895.83 0 0 -4895.83z"/>
   </clipPath>
  <linearGradient id="id1" gradientUnits="userSpaceOnUse" x1="4497.52" y1="3453.1" x2="4497.52" y2="1778.69">
   <stop offset="0" style="stop-opacity:1; stop-color:#423A78"/>
   <stop offset="1" style="stop-opacity:1; stop-color:#605AA5"/>
  </linearGradient>
  <linearGradient id="id2" gradientUnits="userSpaceOnUse" x1="2975.83" y1="2542.94" x2="1881.36" y2="1404.7">
   <stop offset="0" style="stop-opacity:1; stop-color:#4DA971"/>
   <stop offset="0.380392" style="stop-opacity:1; stop-color:#00AB44"/>
   <stop offset="0.741176" style="stop-opacity:1; stop-color:#28DB6F"/>
   <stop offset="1" style="stop-opacity:1; stop-color:#33DC76"/>
  </linearGradient>
  <linearGradient id="id3" gradientUnits="userSpaceOnUse" xlink:href="#id2" x1="2379.16" y1="1599.5" x2="2515.89" y2="2724.81">
  </linearGradient>
  <linearGradient id="id4" gradientUnits="userSpaceOnUse" xlink:href="#id2" x1="2942.77" y1="2700.54" x2="1848.3" y2="1562.3">
  </linearGradient>
  <linearGradient id="id5" gradientUnits="userSpaceOnUse" xlink:href="#id2" x1="2412.22" y1="1441.9" x2="2548.95" y2="2567.21">
  </linearGradient>
  <linearGradient id="id6" gradientUnits="objectBoundingBox" x1="0%" y1="44.9554%" x2="93.6624%" y2="54.0896%">
   <stop offset="0" style="stop-opacity:1; stop-color:#514C9D"/>
   <stop offset="1" style="stop-opacity:1; stop-color:#645AA5"/>
  </linearGradient>
 </defs>
 <g id="Layer_x0020_1">
  <metadata id="CorelCorpID_0Corel-Layer"/>
  <g>
  </g>
  <g style="clip-path:url(#id0)">
   <g>
    <path class="fil0" d="M1430.01 1830.1c-72.3,0 -144.61,-13.61 -199.78,-40.84 -110.33,-54.48 -110.34,-142.78 0,-197.24 55.17,-27.23 127.46,-40.86 199.76,-40.86 72.3,0 144.61,13.63 199.78,40.86 110.32,54.46 110.32,142.76 0,197.24 -55.17,27.22 -127.47,40.84 -199.77,40.84z"/>
    <path class="fil1" d="M1751.41 1571.35l0 -77.17 -17.03 0c-15.29,-22.53 -40.77,-43.73 -77.09,-61.66 -125.53,-61.96 -329.04,-61.96 -454.55,0 -36.33,17.93 -61.82,39.13 -77.11,61.66l-17.02 0 0 76.76 0.02 0c-0.21,40.74 31.12,81.52 94.11,112.61 125.51,61.96 329.03,61.96 454.55,0 62.76,-30.98 94.13,-71.59 94.12,-112.2z"/>
    <path class="fil1" d="M1657.28 1606.39c-125.52,61.96 -329.04,61.96 -454.55,0 -125.52,-61.98 -125.52,-162.43 0,-224.41 125.51,-61.96 329.02,-61.96 454.55,0.01 125.52,61.96 125.52,162.43 0,224.39z"/>
    <path class="fil2" d="M1657.28 1606.39c-125.52,61.96 -329.04,61.96 -454.55,0 -60.16,-29.71 -91.15,-68.24 -93.66,-107.15 -2.7,42.27 28.3,84.97 93.66,117.24 125.51,61.96 329.03,61.96 454.55,0 65.37,-32.27 96.35,-74.96 93.65,-117.24 -2.51,38.91 -33.49,77.44 -93.65,107.15z"/>
    <path class="fil2" d="M1275.09 1546.73c-5.41,-2.67 -8.49,-6.3 -8.47,-10.12l0.32 -103.38c0.02,-7.88 13,-14.27 28.98,-14.26 15.97,0 28.87,6.41 28.87,14.29l-0.26 85.74 290.96 -30.48c15.64,-1.63 31,3.29 34.3,11.02 3.33,7.72 -6.67,15.29 -22.28,16.93l-325.95 34.13c-8.54,0.89 -17.45,-0.17 -24.23,-2.89l-2.23 -0.98z"/>
    <path class="fil3" d="M1639.68 3684.69c-37.54,0 -73.39,-7.13 -100.16,-21.65l-1083.28 -587.98c-58.85,-31.95 -51.37,-87.6 16.67,-124.32l62.22 -33.56 972.88 528.07c36,19.53 84.22,29.11 134.74,29.11 59.46,0 122.07,-13.28 171.57,-39.22 0.01,-0.01 0.03,-0.01 0.04,-0.03 0.17,-0.09 0.34,-0.17 0.52,-0.28 0.04,-0.01 0.08,-0.04 0.11,-0.05 0.16,-0.08 0.3,-0.16 0.45,-0.24 0.06,-0.04 0.13,-0.07 0.19,-0.09 0.12,-0.08 0.25,-0.15 0.38,-0.21 0.1,-0.06 0.19,-0.11 0.29,-0.16 0.1,-0.05 0.19,-0.09 0.28,-0.15 0.19,-0.1 0.38,-0.21 0.57,-0.31l1485.41 -801.25 0 194.97 -1533.24 827.07c-37.13,20.02 -84.59,30.27 -129.64,30.27z"/>
    <path class="fil4" d="M1508.01 3445.25l-1127.38 -611.93c-37.03,-20.1 -54.3,-47.22 -53.07,-75.4l-0.26 0.08 0.46 -153.33 62.69 68.84c4.06,-2.52 8.15,-5.03 12.61,-7.43l2306.3 -1244.05c91.56,-49.39 229.96,-54.59 309.12,-11.61l1111.56 603.33c22.5,-23.09 69.68,-71.83 69.68,-71.83l-0.53 149.98 -0.03 -0.03c1.67,33.83 -24.02,69.84 -75.71,97.72l-2306.3 1244.04c-91.56,49.4 -229.96,54.6 -309.14,11.62z"/>
    <path class="fil5" d="M898.39 3069.85l64.93 35.13c8.63,4.67 15.61,-0.28 15.61,-11.07 0,-10.77 -6.99,-23.29 -15.61,-27.95l-64.93 -35.14c-8.61,-4.67 -15.6,0.29 -15.6,11.07 0,10.78 6.99,23.3 15.6,27.96z"/>
    <path class="fil6" d="M2709.36 1422.03c91.56,-49.39 229.98,-54.59 309.14,-11.61l1111.54 603.33c22.5,-23.09 69.68,-71.83 69.68,-71.83l-0.53 149.98 -0.03 -0.03c1.67,33.83 -24.02,69.84 -75.71,97.72l-2306.3 1244.04c-47.77,25.77 -108.25,39.38 -166.45,40.54l2.19 -1482.26 1056.48 -569.88z"/>
    <path class="fil7" d="M4146.36 1868.19l-1127.4 -611.93c-79.16,-42.96 -217.57,-37.78 -309.12,11.61l-2306.3 1244.04c-91.56,49.4 -101.61,124.28 -22.45,167.26l1127.42 611.92c79.16,42.96 217.57,37.78 309.12,-11.6l2306.3 -1244.04c91.56,-49.4 101.61,-124.28 22.43,-167.26z"/>
    <path class="fil2" d="M1507.63 3307.45l-1127.39 -611.91c-40.83,-22.18 -57.75,-52.83 -52.19,-84.1 2.02,25.4 19.38,49.45 53.02,67.73l1127.42 611.92c79.16,42.98 217.57,37.78 309.12,-11.6l2306.3 -1244.04c44.34,-23.93 69.37,-53.82 74.61,-83.18 2.69,34.33 -22.84,71.14 -75.48,99.54l-2306.3 1244.04c-91.56,49.4 -229.96,54.6 -309.12,11.61z"/>
    <path class="fil8" d="M4059.52 1892.3l-1083.31 -587.99c-58.84,-31.94 -161.7,-28.07 -229.77,8.62l-2273.54 1226.38c-68.04,36.71 -75.52,92.37 -16.67,124.32l1083.28 587.98c58.85,31.96 161.73,28.09 229.8,-8.63l2273.52 -1226.38c68.06,-36.71 75.52,-92.37 16.68,-124.31z"/>
    <polygon class="fil9" points="1812.42,2946.22 1047.98,2532.57 1096.78,2506.15 1861.2,2919.84 "/>
    <polygon class="fil9" points="1280.54,2825.63 893.47,2616.18 942.27,2589.77 1329.33,2799.22 "/>
    <polygon class="fil1" points="1468.37,2927.28 1342.84,2859.35 1391.63,2832.94 1517.17,2900.87 "/>
    <polygon class="fil10" points="1657.92,3029.85 1532.38,2961.91 1581.17,2935.52 1706.7,3003.45 "/>
    <polygon class="fil10" points="1284.87,2744.37 970.72,2574.37 1019.52,2547.97 1333.66,2717.96 "/>
    <polygon class="fil9" points="1668.34,2951.87 1354.2,2781.88 1402.98,2755.46 1717.12,2925.47 "/>
    <path class="fil1" d="M1435.75 2588.49c-15.71,8.51 -41.19,8.51 -56.91,0 -15.73,-8.51 -15.73,-22.3 -0.02,-30.81 15.73,-8.51 41.21,-8.51 56.92,0 15.73,8.5 15.73,22.3 0,30.81z"/>
    <path class="fil10" d="M1520.81 2634.52c-15.72,8.51 -41.21,8.51 -56.92,0 -15.72,-8.51 -15.72,-22.3 0,-30.8 15.71,-8.52 41.2,-8.52 56.92,0 15.72,8.49 15.72,22.29 0,30.8z"/>
    <path class="fil9" d="M1605.88 2680.54c-15.72,8.51 -41.22,8.51 -56.93,0 -15.71,-8.5 -15.71,-22.29 0,-30.8 15.72,-8.51 41.21,-8.51 56.93,0 15.72,8.51 15.72,22.29 0,30.8z"/>
    <path class="fil1" d="M1690.93 2726.57c-15.71,8.51 -41.19,8.51 -56.92,0 -15.73,-8.49 -15.73,-22.29 -0.02,-30.81 15.74,-8.5 41.22,-8.5 56.94,0 15.73,8.52 15.73,22.32 0,30.81z"/>
    <path class="fil10" d="M1775.99 2772.61c-15.72,8.49 -41.21,8.49 -56.92,0 -15.72,-8.52 -15.72,-22.3 0,-30.81 15.71,-8.5 41.2,-8.5 56.92,0 15.71,8.51 15.71,22.29 0,30.81z"/>
    <polygon class="fil1" points="3485.67,1896.83 3356.96,1827.18 3406.97,1800.12 3535.69,1869.76 "/>
    <polygon class="fil2" points="3664.88,1993.82 3536.18,1924.16 3586.2,1897.09 3714.92,1966.75 "/>
    <polygon class="fil2" points="2910.78,1582.81 2782.06,1513.16 2832.09,1486.09 2960.8,1555.73 "/>
    <polygon class="fil10" points="3456.97,1967.04 3277.75,1870.05 3327.78,1842.97 3507,1939.96 "/>
    <polygon class="fil11" points="3585.67,2036.68 3507.04,1994.12 3557.06,1967.05 3635.7,2009.61 "/>
    <path class="fil12" d="M3984.83 1651.02l-103.46 -55.99 217.82 -117.88 217.85 117.88 -72.63 39.3 -96.04 -51.96c-6.92,-3.74 -13.5,-5.51 -19.46,-5.51 -4.5,0 -8.66,1 -12.36,2.93l-131.72 71.23z"/>
    <polygon class="fil13" points="4317.04,1445.35 4099.2,1563.26 4099.2,1327.49 4317.04,1209.61 "/>
    <polygon class="fil1 str0" points="4099.2,1327.49 3881.37,1209.61 4099.19,1091.73 4317.04,1209.61 "/>
    <polygon class="fil1" points="4099.2,1563.26 3881.37,1445.35 3881.37,1209.61 4099.2,1327.49 "/>
    <polygon class="fil2" points="4020.76,1435.89 3959.81,1402.91 3959.81,1336.97 4020.76,1369.93 "/>
    <polygon class="fil3 str1" points="226.79,2455.34 -0,2332.61 226.79,2209.89 453.57,2332.61 "/>
    <polygon class="fil14" points="453.57,2176.8 226.79,2299.52 226.79,2054.07 453.57,1931.35 "/>
    <polygon class="fil7" points="226.79,2054.07 -0,1931.35 226.79,1808.64 453.57,1931.37 "/>
    <polygon class="fil15" points="226.79,2299.52 -0,2176.8 -0,1931.35 226.79,2054.07 "/>
    <polygon class="fil2" points="145.11,2166.92 81.67,2132.61 81.67,2063.95 145.11,2098.29 "/>
    <path class="fil16" d="M2777.18 2513.96c-204.98,110.92 -537.3,110.92 -742.26,0 -204.96,-110.91 -204.96,-290.75 -0.01,-401.67 204.96,-110.92 537.28,-110.92 742.26,0 204.95,110.91 204.96,290.75 0.01,401.67z"/>
    <path class="fil17" d="M1977.43 1767.42c0.03,-0.01 0.06,-0.03 0.09,-0.04 -0.03,0.01 -0.06,0.03 -0.09,0.04zm0.48 -0.26c0.04,-0.02 0.09,-0.05 0.13,-0.07 -0.04,0.02 -0.09,0.04 -0.13,0.07zm1.32 -0.72c0.07,-0.04 0.15,-0.09 0.22,-0.12 -0.09,0.04 -0.16,0.08 -0.22,0.12zm0.5 -0.28c0.11,-0.07 0.21,-0.12 0.31,-0.17 -0.09,0.05 -0.2,0.1 -0.31,0.17zm0.67 -0.37c0.13,-0.08 0.26,-0.15 0.41,-0.22 -0.14,0.07 -0.28,0.15 -0.41,0.22zm0.61 -0.34c0.13,-0.07 0.24,-0.13 0.37,-0.2 -0.11,0.07 -0.26,0.13 -0.37,0.2zm0.57 -0.31c0.19,-0.09 0.38,-0.2 0.56,-0.3 -0.18,0.1 -0.37,0.21 -0.56,0.3zm0.56 -0.3c0.24,-0.12 0.46,-0.25 0.7,-0.37 -0.22,0.12 -0.48,0.25 -0.7,0.37z"/>
    <polygon class="fil18" points="3339.39,1430.18 3018.96,1256.26 "/>
    <path class="fil15" d="M2394.65 1502.71l-59.99 -32.46 375.18 -202.38c49.93,-26.94 113.8,-40.72 174.39,-40.72 50.5,0 98.76,9.58 134.74,29.11l0 0 320.43 173.92 -65.73 35.58 -297.45 -161.44c-26.73,-14.52 -62.59,-21.64 -100.13,-21.64 -45.04,0 -92.51,10.24 -129.64,30.26l-351.8 189.78z"/>
    <path class="fil16" d="M2799.99 1722.06l-405.35 -219.35 351.8 -189.78c37.13,-20.02 84.6,-30.26 129.64,-30.26 37.54,0 73.39,7.11 100.13,21.64l297.45 161.44 -473.67 256.3zm32.1 -235.97l-50.03 27.07 128.72 69.65 50.02 -27.08 -128.7 -69.64z"/>
    <polygon class="fil8" points="2910.78,1582.81 2782.06,1513.16 2832.09,1486.09 2960.8,1555.73 "/>
    <path class="fil6" d="M3431.1 1103.17l-92.19 -49.89 339.88 -183.93c16.05,-8.68 16.05,-22.81 0,-31.5l-347.2 -187.89c-16.07,-8.7 -42.19,-8.7 -58.24,0l-339.88 183.92 -92.19 -49.9 339.88 -183.91c66.88,-36.19 175.7,-36.2 242.6,0l347.22 187.89c66.88,36.2 66.88,95.08 0,131.28l-339.88 183.94z"/>
    <path class="fil7" d="M3579.85 1125.13c0,-46.19 -29.96,-99.85 -66.92,-119.85l-615.81 -333.23c-16.56,-8.95 -31.68,-9.59 -43.36,-3.48l-0.03 -0.02 -735.27 400.46 711.04 502.19 724.38 -394.06c2.24,-0.97 4.39,-2.07 6.4,-3.49l0.01 0c12.09,-8.59 19.57,-25.43 19.57,-48.52z"/>
    <path class="fil15" d="M2829.49 1571.2l724.38 -394.06c2.24,-0.97 4.39,-2.07 6.4,-3.49l0.01 0 0 -0.01c12.09,-8.57 19.57,-25.42 19.57,-48.51 0,-22.05 -6.87,-45.78 -18.04,-66.74l-825.74 446.85 93.42 65.96z"/>
    <path class="fil6" d="M2783.17 1569.43l-615.8 -333.25c-36.96,-20.01 -66.93,-73.67 -66.93,-119.86 0,-46.2 29.97,-67.42 66.93,-47.42l615.8 333.24c36.96,20 66.94,73.67 66.94,119.86 0,46.19 -29.97,67.42 -66.94,47.43z"/>
    <path class="fil10" d="M2790.59 1398.98l-615.81 -333.24c-16.99,-9.19 -32.47,-9.58 -44.26,-2.93 10.57,-3.02 23.22,-1.29 36.85,6.09l615.8 333.24c36.96,20.02 66.94,73.67 66.94,119.86 0,24.97 -8.8,42.53 -22.68,50.35 18.11,-5.16 30.09,-24.33 30.09,-53.51 0,-46.2 -29.97,-99.85 -66.92,-119.86z"/>
    <path class="fil19" d="M2690.93 1457.04l-74.02 -40.04c-7.37,-3.99 -13.35,-14.68 -13.35,-23.88 0,-9.2 5.98,-13.46 13.35,-9.47l74.02 40.04c7.38,3.99 13.36,14.68 13.36,23.88 0,9.21 -5.98,13.46 -13.36,9.46z"/>
    <path class="fil20" d="M2774.44 983.22c22.34,-12.38 22.1,-32.08 -0.49,-44.03 -22.61,-11.93 -59.05,-11.57 -81.36,0.8 -22.34,12.38 -22.13,32.1 0.49,44.03 22.59,11.95 59.04,11.59 81.36,-0.8z"/>
    <path class="fil2" d="M2898.44 1048.71c22.34,-12.38 22.11,-32.1 -0.49,-44.03 -22.61,-11.94 -59.03,-11.59 -81.37,0.8 -22.34,12.38 -22.1,32.09 0.49,44.03 22.62,11.93 59.05,11.58 81.38,-0.8z"/>
    <path class="fil2" d="M3022.44 1114.2c22.34,-12.39 22.12,-32.11 -0.49,-44.04 -22.61,-11.94 -59.04,-11.58 -81.36,0.8 -22.34,12.38 -22.12,32.09 0.49,44.03 22.61,11.94 59.04,11.58 81.36,-0.79z"/>
    <path class="fil3" d="M2568 4192.32c-16.53,0 -32.3,-3.12 -44.09,-9.5l-424.16 -229.53c-26.02,-14.09 -22.76,-38.69 7.3,-54.95l409.53 -221.62c16.44,-8.9 37.5,-13.46 57.45,-13.46 16.54,0 32.31,3.12 44.11,9.5l424.15 229.53c26.04,14.09 22.76,38.69 -7.28,54.95l-409.54 221.62c-16.44,8.9 -37.51,13.46 -57.47,13.46z"/>
    <path class="fil4" d="M3059.72 3791.32l0 -137.17 -328.15 -0.15 -113.44 -61.39c-26.02,-14.09 -71.48,-12.33 -101.56,3.95l-105.82 57.26 -328.44 -0.19 0 141.07c-0.72,9.54 4.94,18.73 17.44,25.51l424.16 229.52c26.02,14.07 71.49,12.33 101.56,-3.95l409.54 -221.62c17.32,-9.37 25.7,-21.53 24.72,-32.85z"/>
    <path class="fil4" d="M2571.02 3583.17c-19.05,0.42 -38.83,4.92 -54.44,13.39l-105.82 57.26 -328.44 -0.19 0 141.07c-0.72,9.54 4.94,18.73 17.44,25.51l424.16 229.52c12.49,6.78 29.5,9.83 47.12,9.44l0 -476.02z"/>
    <path class="fil9" d="M2119.5 3653.67l-37.19 -0.03 0 141.07c-0.72,9.54 4.94,18.73 17.44,25.51l19.75 10.67 0 -177.22z"/>
    <path class="fil9" d="M2530.42 4052.75c22.46,9 54.93,8.5 81.19,-0.88l0 -160.17 -81.19 0 0 161.06z"/>
    <path class="fil7" d="M2523.91 3909.19l-424.16 -229.53c-26.02,-14.1 -22.76,-38.7 7.3,-54.97l409.53 -221.62c30.07,-16.25 75.54,-18.03 101.56,-3.94l424.15 229.53c26.04,14.08 22.76,38.69 -7.28,54.95l-409.54 221.62c-30.07,16.26 -75.54,18.02 -101.56,3.95z"/>
    <path class="fil2" d="M3035 3656.62l-409.54 221.62c-30.07,16.27 -75.54,18.04 -101.56,3.94l-424.16 -229.51c-5.8,-3.14 -10.06,-6.84 -12.97,-10.81 -8.95,13.48 -4.9,28.12 12.97,37.8l424.16 229.53c26.02,14.07 71.49,12.31 101.56,-3.95l409.54 -221.62c23.35,-12.63 30.45,-30.29 20.26,-44.17 -4.07,6.15 -10.85,12.08 -20.26,17.17z"/>
    <path class="fil9" d="M2903.72 3827.51c0,10.26 -7.68,22.7 -17.13,27.81 -9.47,5.13 -17.14,0.98 -17.14,-9.27 0,-10.22 7.67,-22.68 17.14,-27.8 9.45,-5.11 17.13,-0.97 17.13,9.26z"/>
    <path class="fil9" d="M2958.83 3797.7c0,10.23 -7.68,22.67 -17.13,27.81 -9.45,5.12 -17.13,0.97 -17.13,-9.27 0,-10.24 7.67,-22.7 17.13,-27.81 9.45,-5.12 17.13,-0.96 17.13,9.28z"/>
    <path class="fil9" d="M3013.96 3767.87c0,10.25 -7.68,22.7 -17.15,27.81 -9.47,5.12 -17.11,0.97 -17.11,-9.28 0,-10.23 7.65,-22.68 17.11,-27.8 9.47,-5.1 17.15,-0.97 17.15,9.27z"/>
    <path class="fil6" d="M2548.98 3766.88l-198.48 -107.4c-12.17,-6.59 -10.66,-18.1 3.42,-25.72l191.64 -103.72c14.06,-7.6 35.34,-8.43 47.52,-1.84l198.48 107.4c12.17,6.59 10.65,18.12 -3.42,25.72l-191.64 103.72c-14.08,7.61 -35.34,8.43 -47.52,1.84z"/>
    <path class="fil9" d="M2567.97 3676.96l-27.45 -14.86c-1.69,-0.92 -1.47,-2.51 0.46,-3.57l26.52 -14.36c1.95,-1.04 4.89,-1.15 6.58,-0.24l27.46 14.86c1.68,0.92 1.47,2.51 -0.48,3.56l-26.52 14.35c-1.94,1.04 -4.89,1.16 -6.58,0.26z"/>
    <path class="fil8" d="M2350.5 3659.48l0.56 0.3 2.86 -1.85 191.64 -103.7c14.06,-7.61 35.34,-8.44 47.52,-1.85l197.92 107.11c11.22,-7.55 11.81,-17.8 0.56,-23.89l-198.48 -107.4c-12.19,-6.59 -33.46,-5.76 -47.52,1.84l-191.64 103.72c-14.08,7.61 -15.59,19.13 -3.42,25.72z"/>
    <path class="fil21" d="M4080.12 4322.92c-15.19,0 -29.7,-2.87 -40.56,-8.74l-653.07 -353.41c-23.94,-12.95 -20.93,-35.57 6.7,-50.53l171.2 -92.88 485.63 262.8c6.93,3.75 13.54,5.53 19.52,5.53 5.41,0 10.32,-1.46 14.51,-4.21l556.19 -300.69 191.57 103.68c23.94,12.96 20.94,35.56 -6.71,50.54l-692.19 375.52c-15.1,8.18 -34.46,12.38 -52.81,12.38z"/>
    <path class="fil22" d="M4846.66 3649.41l-698.28 -377.88c-27.16,-14.69 -49.18,-54.11 -49.18,-88.05l0 -1566.27c0,-33.94 22.02,-49.54 49.18,-34.84l698.28 377.88c27.17,14.7 49.17,54.13 49.17,88.06l0 1566.26c0,33.95 -22,49.54 -49.17,34.84z"/>
    <path class="fil4" d="M4846.66 1960.25l-698.28 -377.88c-12.14,-6.57 -23.24,-7.04 -31.82,-2.57l-797.2 431.07 37.55 130.3 726.93 1940.44 794.02 -429.25 0.38 -0.21 1.41 -0.78 -0.02 -0.05c9.93,-5.86 16.2,-18.67 16.2,-36.74l0 -1566.26c0,-33.93 -22,-73.36 -49.17,-88.06z"/>
    <path class="fil7" d="M4846.66 1960.25l-698.28 -377.88c-12.14,-6.57 -23.24,-7.04 -31.82,-2.57l-797.2 431.07 37.55 130.3 199.91 533.6 37.62 20.35 1287.67 -696.82c-8.95,-16.45 -21.5,-30.51 -35.43,-38.04z"/>
    <path class="fil4" d="M4050.03 4080.15l-698.3 -377.89c-27.15,-14.7 -49.18,-54.12 -49.18,-88.06l0 -1566.25c0,-33.95 22.03,-49.56 49.18,-34.85l698.3 377.9c27.16,14.69 49.17,54.11 49.17,88.05l0 1566.26c0,33.93 -22.02,49.54 -49.17,34.84z"/>
    <path class="fil23" d="M4006.1 3985.87l-610.44 -330.35c-23.75,-12.85 -43,-47.31 -43,-76.98l0 -1454.61c0,-29.67 19.24,-43.31 43,-30.47l610.44 330.36c23.74,12.84 42.99,47.3 42.99,76.97l0 1454.61c0,29.67 -19.24,43.31 -42.99,30.47z"/>
    <path class="fil23" d="M4006.1 3985.87l-610.44 -330.35c-23.75,-12.85 -43,-47.31 -43,-76.98l0 -1454.61c0,-29.67 19.24,-43.31 43,-30.47l610.44 330.36c23.74,12.84 42.99,47.3 42.99,76.97l0 1454.61c0,29.67 -19.24,43.31 -42.99,30.47z"/>
    <path class="fil6" d="M4006.1 3985.87l-610.44 -330.35c-23.75,-12.85 -43,-47.31 -43,-76.98l0 -1454.61c0,-29.67 19.24,-43.31 43,-30.47l610.44 330.36c23.74,12.84 42.99,47.3 42.99,76.97l0 1454.61c0,29.67 -19.24,43.31 -42.99,30.47z"/>
    <path class="fil24" d="M4026.05 3974.87l-610.44 -330.33c-23.75,-12.86 -43,-47.33 -43,-76.98l0 -1454.63c0,-10.12 2.28,-18.31 6.17,-24.28 -15.35,-0.1 -26.12,13.1 -26.12,35.28l0 1454.61c0,29.67 19.24,64.13 43,76.98l610.44 330.35c15.65,8.45 29.3,5.37 36.83,-6.19 -5.19,-0.04 -10.9,-1.57 -16.88,-4.81z"/>
    <path class="fil8" d="M4006.1 3318.03l-226.88 -122.8 -361.88 195.84 631.74 341.86 0 -337.92c0,-29.68 -19.24,-64.15 -42.99,-76.98z"/>
    <path class="fil8" d="M4006.1 3019.95l-226.88 -122.78 -361.88 195.83 631.74 341.87 0 -337.94c0,-29.67 -19.24,-64.14 -42.99,-76.98z"/>
    <path class="fil8" d="M4006.1 2721.89l-226.88 -122.78 -361.88 195.83 631.74 341.87 0 -337.93c0,-29.68 -19.24,-64.15 -42.99,-76.98z"/>
    <path class="fil8" d="M4006.1 2423.82l-226.88 -122.8 -361.88 195.83 631.74 341.87 0 -337.93c0,-29.67 -19.24,-64.14 -42.99,-76.97z"/>
    <path class="fil8" d="M4006.1 2423.82l-502.3 -271.82 -86.46 46.77 631.74 341.88 0 -39.86c0,-29.67 -19.24,-64.14 -42.99,-76.97z"/>
    <polygon class="fil25" points="4049.09,2540.65 3417.35,2198.77 3417.35,2387.18 4049.09,2729.05 "/>
    <polygon class="fil25" points="4049.09,2838.72 3417.35,2496.85 3417.35,2685.24 4049.09,3027.12 "/>
    <polygon class="fil25" points="4049.09,3136.79 3417.35,2794.91 3417.35,2983.32 4049.09,3325.2 "/>
    <polygon class="fil25" points="4049.09,3434.87 3417.35,3092.99 3417.35,3281.39 4049.09,3623.26 "/>
    <polygon class="fil25" points="4049.09,3732.93 3417.35,3391.06 3417.35,3579.46 4049.09,3921.33 "/>
    <path class="fil6" d="M3993.37 2661.91l-475.83 -257.5c-13.44,-7.27 -24.33,-26.77 -24.33,-43.56l0 -50.45c0,-16.79 10.89,-24.51 24.33,-17.25l475.83 257.52c13.43,7.26 24.33,26.77 24.33,43.56l0 50.45c0,16.79 -10.9,24.51 -24.33,17.24z"/>
    <path class="fil26" d="M3993.68 2662.07c-0.03,-0.01 -0.06,-0.02 -0.1,-0.06 0.04,0.03 0.07,0.04 0.1,0.06zm-0.15 -0.08c-0.06,-0.03 -0.11,-0.06 -0.16,-0.09l-475.83 -257.5c-13.44,-7.27 -24.33,-26.77 -24.33,-43.56 0,16.79 10.89,36.29 24.33,43.56l475.83 257.5c0.05,0.04 0.1,0.06 0.16,0.09zm-500.32 -351.75c0.04,-12.36 6.02,-19.77 14.57,-19.83 -8.54,0.06 -14.53,7.47 -14.57,19.83zm24.94 -16.76l-0.61 -0.34 0.61 0.34 0 0z"/>
    <path class="fil8" d="M4002.94 2664.62c-2.84,0 -5.97,-0.81 -9.26,-2.55 -0.03,-0.01 -0.06,-0.02 -0.1,-0.06 -0.01,-0.01 -0.04,-0.01 -0.06,-0.02 -0.06,-0.03 -0.11,-0.06 -0.16,-0.09l-475.83 -257.5c-13.44,-7.27 -24.33,-26.77 -24.33,-43.56l0 -50.45c0,-0.05 0,-0.09 0,-0.15 0.04,-12.36 6.02,-19.77 14.57,-19.83 0.04,0 0.07,0 0.11,0 0.01,0 0.05,0 0.06,0 2.95,0.01 6.19,0.89 9.59,2.72l0 0 0.61 0.34c-0.52,2.19 -0.9,4.56 -0.9,7.25l0 50.43c0,16.8 10.9,36.31 24.33,43.58l475.22 257.15c-1.92,8.06 -7.07,12.72 -13.86,12.72z"/>
    <path class="fil2" d="M3844.04 2523.61l-286.34 -154.96c-4.72,-2.54 -8.54,-9.4 -8.54,-15.32 0,-5.91 3.82,-8.61 8.54,-6.07l286.34 154.96c4.74,2.56 8.57,9.43 8.57,15.32 0,5.91 -3.84,8.63 -8.57,6.06z"/>
    <path class="fil6" d="M3993.37 2958.15l-475.83 -257.51c-13.44,-7.26 -24.33,-26.77 -24.33,-43.56l0 -50.46c0,-16.78 10.89,-24.5 24.33,-17.22l475.83 257.5c13.43,7.27 24.33,26.76 24.33,43.57l0 50.44c0,16.79 -10.9,24.51 -24.33,17.25z"/>
    <path class="fil26" d="M3994.63 2958.79l0 0zm-0.15 -0.08c-0.37,-0.17 -0.74,-0.37 -1.11,-0.56l-475.83 -257.51c-13.44,-7.26 -24.33,-26.77 -24.33,-43.56l0 0c0,16.79 10.89,36.3 24.33,43.56l475.83 257.51c0.37,0.19 0.74,0.39 1.11,0.56zm-501.28 -352.24c0.04,-12.35 6.02,-19.76 14.57,-19.81 -8.54,0.05 -14.53,7.45 -14.57,19.81zm24.94 -16.75l-0.61 -0.33 0.61 0.33 0 0zm-10.22 -3.07c-0.02,0 -0.04,0 -0.05,0l0 0c0.01,0 0.03,0 0.05,0z"/>
    <path class="fil8" d="M4002.94 2960.85c-2.57,0 -5.37,-0.65 -8.31,-2.06l0 0c-0.06,-0.03 -0.1,-0.05 -0.15,-0.08 -0.37,-0.17 -0.74,-0.37 -1.11,-0.56l-475.83 -257.51c-13.44,-7.26 -24.33,-26.77 -24.33,-43.56l0 -50.46c0,-0.04 0,-0.09 0,-0.15 0.04,-12.35 6.02,-19.76 14.57,-19.81 0.04,-0.02 0.07,-0.02 0.11,-0.02 0.01,0 0.03,0 0.05,0 2.94,0.02 6.19,0.89 9.61,2.74l0 0 0.61 0.33c-0.52,2.2 -0.9,4.56 -0.9,7.25l0 50.45c0,16.79 10.9,36.29 24.33,43.57l475.22 257.16c-1.92,8.06 -7.09,12.7 -13.86,12.7z"/>
    <path class="fil9" d="M3844.04 2819.86l-286.34 -154.96c-4.72,-2.56 -8.54,-9.41 -8.54,-15.32 0,-5.91 3.82,-8.61 8.54,-6.06l286.34 154.96c4.74,2.55 8.57,9.41 8.57,15.32 0,5.91 -3.84,8.63 -8.57,6.07z"/>
    <path class="fil6" d="M3993.37 3257.13l-475.83 -257.5c-13.44,-7.27 -24.33,-26.76 -24.33,-43.56l0 -50.45c0,-16.81 10.89,-24.51 24.33,-17.25l475.83 257.5c13.43,7.27 24.33,26.78 24.33,43.57l0 50.45c0,16.79 -10.9,24.51 -24.33,17.24z"/>
    <path class="fil26" d="M3994.48 3257.71c-0.03,-0.03 -0.06,-0.04 -0.08,-0.06 0.03,0.01 0.06,0.04 0.08,0.06zm-0.16 -0.08c-0.32,-0.16 -0.63,-0.33 -0.95,-0.5l-475.83 -257.5c-13.44,-7.27 -24.33,-26.76 -24.33,-43.56l0 0c0,16.79 10.89,36.28 24.33,43.56l475.83 257.5c0.32,0.17 0.63,0.34 0.95,0.5zm-501.12 -352.01c0,-12.48 6.02,-19.95 14.62,-19.98 -8.6,0.03 -14.62,7.5 -14.62,19.98zm24.94 -16.91l-0.61 -0.34 0.61 0.34 0 0zm-0.61 -0.34c-0.11,-0.05 -0.21,-0.12 -0.33,-0.17 0.11,0.05 0.21,0.12 0.33,0.17zm-9.61 -2.73c-0.02,0 -0.04,0 -0.05,0l0 0c0.01,0 0.03,0 0.05,0z"/>
    <path class="fil8" d="M4002.94 3259.85c-2.61,0 -5.46,-0.7 -8.46,-2.14 -0.03,-0.02 -0.06,-0.04 -0.08,-0.06 -0.03,0 -0.04,-0.01 -0.07,-0.02 -0.32,-0.16 -0.63,-0.33 -0.95,-0.5l-475.83 -257.5c-13.44,-7.27 -24.33,-26.76 -24.33,-43.56l0 -50.45c0,-12.48 6.02,-19.95 14.62,-19.98 0.01,0 0.03,0 0.06,0 0.01,0 0.03,0 0.05,0 2.85,0.01 5.99,0.83 9.28,2.56 0.11,0.05 0.21,0.12 0.33,0.17l0 0 0.61 0.34c-0.52,2.19 -0.9,4.56 -0.9,7.23l0 50.46c0,16.79 10.9,36.3 24.33,43.56l475.22 257.17c-1.92,8.05 -7.07,12.71 -13.86,12.71z"/>
    <path class="fil9" d="M3844.04 3118.84l-286.34 -154.94c-4.72,-2.56 -8.54,-9.43 -8.54,-15.34 0,-5.91 3.82,-8.61 8.54,-6.06l286.34 154.96c4.74,2.56 8.57,9.43 8.57,15.32 0,5.91 -3.84,8.63 -8.57,6.07z"/>
    <path class="fil6" d="M3993.37 3558.87l-475.83 -257.49c-13.44,-7.28 -24.33,-26.78 -24.33,-43.56l0 -50.46c0,-16.79 10.89,-24.51 24.33,-17.22l475.83 257.49c13.43,7.28 24.33,26.78 24.33,43.56l0 50.46c0,16.79 -10.9,24.5 -24.33,17.23z"/>
    <path class="fil26" d="M3998.05 3560.85c-1.51,-0.44 -3.08,-1.1 -4.68,-1.98l-475.83 -257.49c-13.44,-7.28 -24.33,-26.78 -24.33,-43.56l0 0c0,16.78 10.89,36.28 24.33,43.56l475.83 257.49c1.6,0.87 3.17,1.52 4.68,1.98zm-504.85 -353.49c0,-12.47 6.01,-19.94 14.61,-19.97 -8.6,0.03 -14.61,7.5 -14.61,19.97zm24.94 -16.89l-0.61 -0.33 0.61 0.31 0 0.02zm-10.28 -3.07l0 0z"/>
    <path class="fil8" d="M4002.95 3561.6c-1.56,0 -3.19,-0.25 -4.9,-0.75 -1.51,-0.46 -3.08,-1.11 -4.68,-1.98l-475.83 -257.49c-13.44,-7.28 -24.33,-26.78 -24.33,-43.56l0 -50.46c0,-12.47 6.01,-19.94 14.61,-19.97 0.02,0 0.04,0 0.06,0l0 0c2.96,0 6.24,0.88 9.67,2.74l0 0 0.61 0.33c-0.52,2.2 -0.9,4.56 -0.9,7.24l0 50.45c0,16.79 10.9,36.29 24.33,43.56l475.22 257.18c-1.92,8.04 -7.07,12.7 -13.85,12.7z"/>
    <path class="fil9" d="M3844.04 3420.6l-286.34 -154.95c-4.72,-2.56 -8.54,-9.43 -8.54,-15.32 0,-5.92 3.82,-8.63 8.54,-6.06l286.34 154.93c4.74,2.57 8.57,9.43 8.57,15.33 0,5.92 -3.84,8.63 -8.57,6.07z"/>
    <path class="fil6" d="M3993.37 3854.65l-475.83 -257.5c-13.44,-7.26 -24.33,-26.78 -24.33,-43.56l0 -50.46c0,-16.79 10.89,-24.51 24.33,-17.22l475.83 257.49c13.43,7.27 24.33,26.78 24.33,43.56l0 50.46c0,16.79 -10.9,24.51 -24.33,17.24z"/>
    <path class="fil26" d="M3994.63 3855.29c-0.02,-0.01 -0.04,-0.02 -0.07,-0.03 0.03,0.01 0.06,0.02 0.07,0.03zm-0.15 -0.07c-0.37,-0.17 -0.74,-0.37 -1.11,-0.56l-475.83 -257.5c-13.44,-7.26 -24.33,-26.78 -24.33,-43.56l0 0c0,16.78 10.89,36.3 24.33,43.56l475.83 257.5c0.37,0.2 0.74,0.39 1.11,0.56zm-501.28 -352.09c0,-12.47 6.01,-19.94 14.61,-19.96 -8.6,0.02 -14.61,7.49 -14.61,19.96zm24.94 -16.9l-0.61 -0.33 0.61 0.31c0,0.01 0,0.01 0,0.01zm-10.28 -3.07l0 0z"/>
    <path class="fil8" d="M4002.95 3857.37c-2.58,0 -5.37,-0.67 -8.32,-2.08 -0.02,-0.01 -0.04,-0.02 -0.07,-0.03 -0.03,-0.02 -0.06,-0.03 -0.08,-0.04 -0.37,-0.17 -0.74,-0.37 -1.11,-0.56l-475.83 -257.5c-13.44,-7.26 -24.33,-26.78 -24.33,-43.56l0 -50.46c0,-12.47 6.01,-19.94 14.61,-19.96 0.02,0 0.04,0 0.06,0l0 0c2.96,0 6.24,0.88 9.67,2.74l0 0 0.61 0.33c-0.52,2.21 -0.9,4.56 -0.9,7.25l0 50.45c0,16.79 10.9,36.28 24.33,43.56l475.22 257.18c-1.92,8.04 -7.07,12.7 -13.85,12.7z"/>
    <path class="fil9" d="M3844.04 3716.37l-286.34 -154.96c-4.72,-2.56 -8.54,-9.43 -8.54,-15.31 0,-5.91 3.82,-8.63 8.54,-6.07l286.34 154.95c4.74,2.56 8.57,9.41 8.57,15.33 0,5.91 -3.84,8.61 -8.57,6.06z"/>
    <polygon class="fil5" points="3467.09,2414.09 3417.35,2387.18 3467.09,2414.09 "/>
    <polygon class="fil15" points="3467.09,2414.09 3417.35,2387.18 3417.35,2198.77 3467.09,2225.7 "/>
    <polygon class="fil5" points="3467.09,2712.16 3417.35,2685.24 3467.09,2712.16 "/>
    <polygon class="fil15" points="3467.09,2712.16 3417.35,2685.24 3417.35,2496.85 3467.09,2523.77 "/>
    <polygon class="fil5" points="3467.09,3010.24 3417.35,2983.32 3467.09,3010.24 "/>
    <polygon class="fil15" points="3467.09,3010.24 3417.35,2983.32 3417.35,2794.91 3467.09,2821.84 "/>
    <polygon class="fil5" points="3467.09,3308.3 3417.35,3281.39 3467.09,3308.3 "/>
    <polygon class="fil15" points="3467.09,3308.3 3417.35,3281.39 3417.35,3092.99 3467.09,3119.92 "/>
    <polygon class="fil5" points="3467.09,3606.4 3417.35,3579.46 3467.09,3606.38 "/>
    <polygon class="fil15" points="3467.09,3606.38 3417.35,3579.46 3417.35,3391.06 3467.09,3417.98 3467.09,3606.4 "/>
    <path class="fil11" d="M3900.47 2542.22c0,6.03 -4.51,8.47 -10.08,5.46 -5.55,-3.01 -10.07,-10.33 -10.07,-16.36 0,-6.02 4.53,-8.46 10.07,-5.45 5.57,3.01 10.08,10.33 10.08,16.34z"/>
    <path class="fil25" d="M3943.18 2565.33c0,6.03 -4.53,8.45 -10.09,5.45 -5.56,-3.02 -10.07,-10.33 -10.07,-16.35 0,-6.02 4.51,-8.46 10.07,-5.46 5.56,3.01 10.09,10.33 10.09,16.35z"/>
    <path class="fil11" d="M3985.87 2588.44c0,6.03 -4.51,8.45 -10.06,5.46 -5.57,-3.02 -10.08,-10.33 -10.08,-16.36 0,-6.01 4.51,-8.46 10.08,-5.46 5.55,3.02 10.06,10.34 10.06,16.35z"/>
    <path class="fil25" d="M3900.47 2840.14c0,6.03 -4.51,8.47 -10.08,5.45 -5.55,-3 -10.07,-10.33 -10.07,-16.34 0,-6.03 4.53,-8.46 10.07,-5.45 5.57,3 10.08,10.32 10.08,16.34z"/>
    <path class="fil9" d="M3943.18 2863.26c0,6.01 -4.53,8.45 -10.09,5.44 -5.56,-3 -10.07,-10.33 -10.07,-16.36 0,-6.01 4.51,-8.45 10.07,-5.44 5.56,3.02 10.09,10.33 10.09,16.36z"/>
    <path class="fil9" d="M3985.87 2886.36c0,6.03 -4.51,8.46 -10.06,5.45 -5.57,-3.02 -10.08,-10.33 -10.08,-16.34 0,-6.03 4.51,-8.47 10.08,-5.45 5.55,2.99 10.06,10.31 10.06,16.34z"/>
    <path class="fil9" d="M3900.47 3140.32c0,6.03 -4.51,8.45 -10.08,5.45 -5.55,-3.01 -10.07,-10.32 -10.07,-16.35 0,-6.02 4.53,-8.46 10.07,-5.45 5.57,3.01 10.08,10.33 10.08,16.35z"/>
    <path class="fil25" d="M3943.18 3163.42c0,6.02 -4.53,8.47 -10.09,5.45 -5.56,-3 -10.07,-10.33 -10.07,-16.35 0,-6.02 4.51,-8.46 10.07,-5.45 5.56,3.02 10.09,10.33 10.09,16.35z"/>
    <path class="fil9" d="M3985.87 3186.53c0,6.03 -4.51,8.47 -10.06,5.45 -5.57,-2.99 -10.08,-10.31 -10.08,-16.35 0,-6.02 4.51,-8.45 10.08,-5.44 5.55,3.02 10.06,10.33 10.06,16.34z"/>
    <path class="fil9" d="M3900.47 3436.11c0,6.03 -4.51,8.46 -10.08,5.45 -5.55,-3 -10.07,-10.31 -10.07,-16.34 0,-6.02 4.53,-8.46 10.07,-5.45 5.57,3.01 10.08,10.33 10.08,16.34z"/>
    <path class="fil25" d="M3943.18 3459.23c0,6.01 -4.53,8.45 -10.09,5.45 -5.56,-3.02 -10.07,-10.33 -10.07,-16.35 0,-6.02 4.51,-8.47 10.07,-5.46 5.56,3.01 10.09,10.33 10.09,16.36z"/>
    <path class="fil9" d="M3985.87 3482.32c0,6.02 -4.51,8.47 -10.06,5.46 -5.57,-3 -10.08,-10.33 -10.08,-16.36 0,-6.02 4.51,-8.45 10.08,-5.44 5.55,3.02 10.06,10.33 10.06,16.34z"/>
    <path class="fil9" d="M3900.47 3735.95c0,6.02 -4.51,8.46 -10.08,5.45 -5.55,-3 -10.07,-10.32 -10.07,-16.35 0,-6.02 4.53,-8.47 10.07,-5.45 5.57,3 10.08,10.33 10.08,16.34z"/>
    <path class="fil25" d="M3943.18 3759.06c0,6.01 -4.53,8.46 -10.09,5.46 -5.56,-3.02 -10.07,-10.34 -10.07,-16.37 0,-6.02 4.51,-8.46 10.07,-5.45 5.56,3.02 10.09,10.33 10.09,16.36z"/>
    <path class="fil9" d="M3985.87 3782.16c0,6.03 -4.51,8.47 -10.06,5.45 -5.57,-3 -10.08,-10.32 -10.08,-16.34 0,-6.02 4.51,-8.46 10.08,-5.45 5.55,3.02 10.06,10.33 10.06,16.35z"/>
    <path class="fil6" d="M4216.15 2541.13l0 1308.18 574.06 -310.65 0 -1308.18 -574.06 310.65zm-11.78 1327.31l0 -1333.69 2.96 -1.59 594.67 -321.81 0 1333.7 -2.94 1.57 -594.68 321.81z"/>
    <path class="fil8" d="M4647.52 2811.42l-266.65 144.3c-17.91,9.69 -32.44,-0.6 -32.44,-22.98l0 -138.58c0,-22.38 14.52,-48.37 32.44,-58.07l266.65 -144.31c17.91,-9.69 32.42,0.61 32.42,22.98l0 138.58c0,22.39 -14.51,48.39 -32.42,58.08z"/>
    <path class="fil25" d="M4653.99 2589.1c1.52,3.87 2.39,8.52 2.39,13.9l0 138.58c0,22.38 -14.52,48.37 -32.42,58.06l-266.65 144.31c-2.21,1.19 -4.39,2.07 -6.47,2.68 4.81,12.24 16.43,16.45 30.02,9.08l266.65 -144.3c17.91,-9.69 32.42,-35.69 32.42,-58.08l0 -138.58c0,-19.61 -11.15,-29.93 -25.95,-25.66z"/>
    <path class="fil9" d="M4598.81 2727.98c4.94,-2.68 8.93,-0.52 8.93,4.82l0 31.57c0,5.33 -3.99,11.81 -8.93,14.48 -4.92,2.68 -8.93,0.51 -8.93,-4.83l0 -31.56c0,-5.33 4.01,-11.81 8.93,-14.48z"/>
    <path class="fil9" d="M4560.57 2752.6c4.91,-2.67 8.91,-0.5 8.91,4.85l0 27.61c0,5.35 -3.99,11.83 -8.91,14.51 -4.95,2.66 -8.94,0.5 -8.94,-4.85l0 -27.62c0,-5.33 3.99,-11.81 8.94,-14.5z"/>
    <path class="fil25" d="M4522.31 2742.5c4.93,-2.67 8.94,-0.51 8.94,4.83l0 58.43c0,5.35 -4.01,11.83 -8.94,14.5 -4.93,2.67 -8.92,0.51 -8.92,-4.83l0 -58.44c0,-5.33 3.99,-11.81 8.92,-14.48z"/>
    <path class="fil9" d="M4484.06 2729.52c4.93,-2.67 8.93,-0.5 8.93,4.83l0 92.1c0,5.34 -3.99,11.83 -8.93,14.49 -4.93,2.67 -8.92,0.5 -8.92,-4.83l0 -92.12c0,-5.33 3.99,-11.81 8.92,-14.48z"/>
    <path class="fil9" d="M4445.81 2759.88c4.93,-2.67 8.92,-0.5 8.92,4.83l0 82.46c0,5.33 -3.99,11.81 -8.92,14.48 -4.93,2.67 -8.92,0.51 -8.92,-4.82l0 -82.45c0,-5.35 3.99,-11.83 8.92,-14.49z"/>
    <path class="fil9" d="M4407.56 2818.24c4.93,-2.67 8.93,-0.5 8.93,4.84l0 44.78c0,5.33 -4,11.81 -8.93,14.48 -4.93,2.66 -8.92,0.5 -8.92,-4.83l0 -44.78c0,-5.33 3.99,-11.81 8.92,-14.49z"/>
    <path class="fil25" d="M4590.03 2712.03c0,5.24 3.93,7.36 8.78,4.74 4.86,-2.61 8.78,-9 8.78,-14.24 0,-5.24 -3.92,-7.37 -8.78,-4.75 -4.85,2.62 -8.78,9 -8.78,14.26z"/>
    <path class="fil2" d="M4590.03 2682.36c0,5.24 3.93,7.36 8.78,4.74 4.86,-2.61 8.78,-9 8.78,-14.24 0,-5.25 -3.92,-7.37 -8.78,-4.75 -4.85,2.62 -8.78,9 -8.78,14.26z"/>
    <g id="_1921053441520">
     <path class="fil27" d="M2857.54 1975.24c209.21,131.05 175.09,316.82 -76.21,414.95 -251.3,98.13 -624.62,71.44 -833.84,-59.6 -209.21,-131.05 -175.1,-316.83 76.21,-414.95 251.3,-98.13 624.62,-71.44 833.84,59.6z"/>
     <path class="fil28" d="M2813.63 1992.39c-189.03,-118.4 -526.33,-142.51 -753.38,-53.85 -227.05,88.66 -257.88,256.51 -68.85,374.92 189.02,118.39 526.33,142.51 753.38,53.85 227.05,-88.66 257.88,-256.51 68.85,-374.91z"/>
     <circle class="fil29" transform="matrix(0.297328 0.186236 -0.357141 0.139454 2402.52 2152.92)" r="1072.92"/>
     <path class="fil6" d="M2853.72 1985.83c-2.91,-1.9 -5.84,-3.78 -8.81,-5.65l-10.65 4.16c2.92,1.84 5.8,3.68 8.65,5.55l10.81 -4.05 -9.07 -5.81 -10.59 4.19 0.19 0.12 19.46 1.5zm-57.06 -32.55c-3.36,-1.66 -6.84,-3.43 -10.33,-5.01l-9.19 4.94c3.41,1.56 6.78,3.26 10.07,4.89l9.44 -4.83zm-65.22 -28.17c-3.83,-1.44 -7.7,-2.85 -11.6,-4.24l-7.61 5.59c3.8,1.36 7.58,2.73 11.32,4.13l7.89 -5.49zm-72.31 -23.29c-4.19,-1.15 -8.39,-2.27 -12.63,-3.37l-5.82 6.13c4.13,1.07 8.24,2.17 12.32,3.29l6.12 -6.06zm-77.79 -17.91c-4.44,-0.84 -8.9,-1.65 -13.38,-2.43l-3.94 6.54c4.37,0.77 8.72,1.56 13.06,2.37l4.25 -6.48zm-81.57 -12.17c-4.61,-0.51 -9.22,-0.99 -13.84,-1.45l-2 6.8c4.52,0.45 9.02,0.92 13.52,1.42l2.33 -6.77zm-83.67 -6.21c-4.67,-0.18 -9.34,-0.33 -14.02,-0.44l0.06 6.93c4.56,0.12 9.12,0.26 13.69,0.43l0.27 -6.91zm-83.92 -0.12c-4.64,0.16 -9.27,0.36 -13.89,0.57l2.04 6.9c4.52,-0.21 9.03,-0.4 13.56,-0.56l-1.71 -6.92zm-82.45 6c-4.51,0.5 -9,1.04 -13.47,1.59l4.01 6.73c4.37,-0.54 8.75,-1.07 13.15,-1.56l-3.69 -6.77zm-79.2 12.03c-4.28,0.83 -8.52,1.7 -12.76,2.58l5.93 6.41c4.13,-0.87 8.28,-1.7 12.45,-2.52l-5.62 -6.48zm-74.23 17.82c-3.94,1.15 -7.84,2.31 -11.74,3.5l7.67 5.96c3.82,-1.17 7.65,-2.3 11.52,-3.43l-7.45 -6.03zm-67.63 23.15c-3.57,1.4 -7.09,2.89 -10.56,4.35l9.26 5.39c3.39,-1.43 6.81,-2.88 10.3,-4.24l-9 -5.5zm-59.8 27.98c-3.09,1.67 -6.11,3.38 -9.11,5.09l10.65 4.7c2.92,-1.67 5.87,-3.34 8.88,-4.97l-10.43 -4.83zm-50.57 32.27c-2.53,1.9 -5.01,3.81 -7.44,5.75l11.85 3.89c2.37,-1.89 4.79,-3.76 7.26,-5.61l-11.67 -4.03zm-40.17 35.88c-1.93,2.08 -3.81,4.17 -5.62,6.28l12.77 3.01c1.77,-2.06 3.61,-4.09 5.48,-6.13l-12.63 -3.16zm-28.94 38.7c-1.29,2.21 -2.52,4.44 -3.69,6.67l13.41 2.07c1.15,-2.18 2.34,-4.35 3.6,-6.51l-13.33 -2.23zm-17.17 40.69c-0.61,2.31 -1.14,4.61 -1.7,6.93l13.78 1.07c0.41,-2.23 1.06,-4.51 1.65,-6.73l-13.73 -1.27zm-5.07 41.82c0.06,2.34 0.17,4.68 0.34,7.02l13.84 0.08c-0.17,-2.28 -0.27,-4.57 -0.33,-6.85l-13.85 -0.24zm7.13 42.05c0.73,2.32 1.53,4.65 2.37,6.97l13.61 -0.92c-0.82,-2.26 -1.6,-4.53 -2.31,-6.8l-13.67 0.75zm19.25 41.4c1.41,2.26 2.87,4.52 4.37,6.77l13.1 -1.91c-1.47,-2.2 -2.89,-4.4 -4.27,-6.61l-13.2 1.75zm31.04 39.85c2.04,2.16 4.13,4.3 6.28,6.43l12.29 -2.88c-2.09,-2.08 -4.13,-4.17 -6.13,-6.28l-12.44 2.72zm42.13 37.44c2.63,2 5.32,3.98 8.04,5.95l11.23 -3.76c-2.65,-1.92 -5.28,-3.85 -7.84,-5.8l-11.44 3.61zm52.23 34.27c3.15,1.8 6.36,3.59 9.6,5.35l9.94 -4.56c-3.17,-1.72 -6.3,-3.46 -9.37,-5.22l-10.18 4.43zm61.16 30.39c3.61,1.57 7.3,3.11 10.99,4.64l8.45 -5.27c-3.61,-1.49 -7.19,-2.99 -10.72,-4.52l-8.72 5.16zm68.95 25.81c4.02,1.3 8.06,2.57 12.15,3.81l6.72 -5.88c-3.98,-1.22 -7.93,-2.46 -11.85,-3.72l-7.02 5.79zm75.24 20.66c4.32,1 8.67,1.97 13.04,2.91l4.89 -6.36c-4.26,-0.92 -8.5,-1.87 -12.72,-2.84l-5.2 6.28zm79.88 15.09c4.54,0.68 9.09,1.33 13.65,1.95l2.97 -6.69c-4.45,-0.61 -8.89,-1.24 -13.32,-1.91l-3.3 6.64zm82.86 9.23c4.66,0.33 9.3,0.66 13.96,0.95l0.93 -6.88c-4.55,-0.28 -9.1,-0.6 -13.64,-0.93l-1.26 6.87zm84 3.18c4.67,0.01 9.33,-0.01 13.99,-0.06l-1.05 -6.93c-4.56,0.05 -9.11,0.07 -13.67,0.06l0.73 6.93zm83.41 -2.93c4.59,-0.33 9.16,-0.7 13.72,-1.08l-3.04 -6.83c-4.46,0.38 -8.92,0.73 -13.39,1.06l2.7 6.86zm81.05 -9.03c4.41,-0.67 8.79,-1.37 13.15,-2.09l-4.98 -6.59c-4.26,0.7 -8.53,1.39 -12.83,2.04l4.66 6.64zm76.93 -14.96c4.13,-0.99 8.23,-2 12.3,-3.05l-6.85 -6.19c-3.97,1.02 -7.98,2 -12,2.97l6.55 6.27zm71.12 -20.54c3.76,-1.29 7.5,-2.6 11.2,-3.94l-8.52 -5.68c-3.6,1.3 -7.24,2.58 -10.91,3.83l8.24 5.78zm63.93 -25.63c3.32,-1.56 6.63,-3.13 9.87,-4.73l-10.02 -5.04c-3.17,1.56 -6.38,3.09 -9.62,4.61l9.77 5.16zm55.35 -30.18c2.82,-1.79 5.59,-3.61 8.3,-5.44l-11.28 -4.3c-2.65,1.78 -5.35,3.55 -8.1,5.3l11.08 4.44zm45.52 -34.16c2.23,-2 4.42,-4 6.55,-6.03l-12.35 -3.46c-2.08,1.98 -4.22,3.93 -6.39,5.88l12.19 3.6zm34.66 -37.38c1.61,-2.15 3.17,-4.32 4.67,-6.49l-13.13 -2.55c-1.46,2.12 -2.98,4.23 -4.56,6.33l13.02 2.7zm23.13 -39.8c0.96,-2.26 1.85,-4.53 2.7,-6.81l-13.63 -1.59c-0.83,2.22 -1.69,4.44 -2.63,6.65l13.56 1.76zm11.18 -41.37c0.27,-2.32 0.54,-4.66 0.68,-6.98l-13.84 -0.57c-0.17,2.28 -0.4,4.54 -0.67,6.82l13.83 0.74zm-1 -42.04c-0.39,-2.34 -0.85,-4.67 -1.35,-7.01l-13.76 0.42c0.5,2.28 0.94,4.56 1.32,6.84l13.8 -0.25zm-13.19 -41.83c-1.07,-2.3 -2.2,-4.6 -3.37,-6.89l-13.39 1.42c1.15,2.24 2.25,4.48 3.29,6.72l13.48 -1.25zm-25.19 -40.74c-1.73,-2.22 -3.51,-4.43 -5.33,-6.62l-12.73 2.4c1.79,2.14 3.52,4.3 5.2,6.46l12.86 -2.24zm-36.68 -38.77c-2.35,-2.08 -4.73,-4.16 -7.18,-6.21l-11.77 3.35c2.39,2 4.7,4.03 7,6.06l11.95 -3.2z"/>
     <g>
      <polygon id="Vector_102" class="fil30" points="2427.99,1955.03 2396.37,2017.29 2303.76,2036.26 2250.43,2110.89 2221.07,2176.14 2305.06,2224.87 2358.2,2155.32 2421.78,2136.4 2407.52,2179.32 2498.22,2166.63 2563.14,2210.33 2553.42,2171.98 2610.9,2246.16 2730.74,2248.96 2761.16,2259.31 2785.7,2250.28 2846.16,2194.24 2814.88,2147.94 2773.19,2151.19 2791.76,2187.47 2750.98,2222.25 2679.01,2212.09 2705.97,2131.33 2651.91,2059.76 2614.92,2044.81 2582.44,1995.1 "/>
      <polygon id="Vector_103" class="fil31" points="2679.12,2212.04 2697.9,2163.26 2654.03,2171.66 2602.92,2152.09 2530.08,2115.66 2498.33,2166.59 2563.28,2210.28 2553.54,2171.93 2611.02,2246.11 "/>
      <polygon id="Vector_104" class="fil32" points="2814.87,2147.93 2773.29,2151.14 2791.75,2187.46 2846.15,2194.23 "/>
      <polygon id="Vector_105" class="fil33" points="2750.91,2222.32 2791.68,2187.55 2844.18,2194.09 2785.64,2250.35 "/>
      <polygon id="Vector_106" class="fil34" points="2679.03,2212.1 2610.93,2246.18 2785.74,2250.3 2751,2222.26 "/>
      <polygon id="Vector_107" class="fil35" points="2761.18,2259.32 2648.07,2205.88 2644.15,2191.33 2595.41,2186.79 2622.96,2212.64 "/>
      <polygon id="Vector_108" class="fil33" points="2653.88,2171.7 2644.12,2191.31 2591.74,2186.67 2566.63,2163.2 2602.67,2152.18 "/>
      <polygon id="Vector_109" class="fil36" points="2707.72,2131.7 2626.63,2118.73 2602.68,2152.19 2653.91,2171.72 2697.8,2163.31 "/>
      <polygon id="Vector_110" class="fil37" points="2676.07,2091.69 2626.61,2080.78 2582,2075.18 2626.77,2118.7 2706.02,2131.35 "/>
      <polygon id="Vector_111" class="fil31" points="2524.77,2083.09 2529.97,2115.72 2602.94,2152.11 2626.74,2118.69 2581.98,2075.17 "/>
      <polygon id="Vector_112" class="fil34" points="2626.57,2080.74 2554.61,2016.22 2581.82,2075.2 "/>
      <polygon id="Vector_113" class="fil38" points="2675.98,2091.63 2651.87,2059.73 2614.88,2044.78 2602.63,2059.35 2628.51,2081.11 "/>
      <polygon id="Vector_114" class="fil38" points="2554.59,2016.2 2454.94,2036.82 2524.59,2083.11 2581.8,2075.19 "/>
      <polygon id="Vector_115" class="fil39" points="2498.14,2166.71 2501.38,2111.09 2529.87,2115.77 "/>
      <polygon id="Vector_116" class="fil40" points="2524.64,2083.14 2501.36,2111.08 2529.86,2115.76 "/>
      <polygon id="Vector_117" class="fil41" points="2498.2,2166.62 2407.49,2179.3 2454.94,2036.82 2524.59,2083.11 2501.43,2111.01 "/>
      <polygon id="Vector_118" class="fil42" points="2582.45,1995.11 2567.65,2027.89 2554.62,2016.22 2515.91,2024.24 2427.99,1955.03 "/>
      <polygon id="Vector_119" class="fil40" points="2614.98,2044.84 2582.5,1995.14 2567.69,2027.91 2602.73,2059.41 "/>
      <polygon id="Vector_120" class="fil38" points="2444.26,2068.8 2396.37,2017.29 2427.87,1955.08 2515.91,2024.24 2454.98,2036.84 "/>
      <polygon id="Vector_121" class="fil40" points="2421.92,2136.37 2303.8,2036.28 2396.52,2017.26 2444.43,2068.78 "/>
      <polygon id="Vector_122" class="fil39" points="2250.46,2110.91 2303.8,2036.28 2421.81,2136.42 "/>
      <polygon id="Vector_123" class="fil43" points="2358.12,2155.39 2250.46,2110.91 2421.81,2136.42 "/>
      <polygon id="Vector_124" class="fil34" points="2221.1,2176.15 2250.46,2110.91 2358.24,2155.34 "/>
      <polygon id="Vector_125" class="fil38" points="2305.21,2224.85 2221.12,2176.17 2358.24,2155.34 "/>
      <polygon id="Vector_126" class="fil29" points="2658.91,2145.47 2647.68,2131.56 2638.83,2137.5 2644.13,2143.48 "/>
      <polygon id="Vector_127" class="fil44" points="2390.59,2002.79 2365.23,1986.91 2335.17,1998.65 2360.52,2014.52 "/>
      <polygon id="Vector_128" class="fil45" points="2353.1,1964.44 2337.15,1954.45 2318.13,1961.87 2334.09,1971.87 "/>
      <polygon id="Vector_129" class="fil44" points="2402.86,1964.67 2390.31,1956.81 2375.34,1962.66 2387.89,1970.52 "/>
      <polygon id="Vector_130" class="fil45" points="2301.57,1970.12 2285.62,1960.13 2266.73,1967.51 2282.67,1977.5 "/>
      <polygon id="Vector_131" class="fil45" points="2312.75,2004.19 2300.22,1996.34 2285.25,2002.18 2297.78,2010.03 "/>
      <polygon id="Vector_132" class="fil44" points="2326.88,1987.54 2320.74,1983.7 2313.5,1986.52 2319.64,1990.37 "/>
      <polygon id="Vector_133" class="fil44" points="2325.83,2018.54 2319.69,2014.69 2312.43,2017.53 2318.57,2021.37 "/>
      <polygon id="Vector_134" class="fil46" points="2274.3,1994.96 2248.94,1979.08 2218.86,1990.82 2244.22,2006.71 "/>
      <polygon id="Vector_135" class="fil47" points="2210.81,1986.98 2204.67,1983.14 2197.3,1986.02 2203.44,1989.86 "/>
      <polygon id="Vector_136" class="fil45" points="2286.2,2033.35 2273.65,2025.5 2258.8,2031.3 2271.34,2039.16 "/>
      <polygon id="Vector_137" class="fil44" points="2238.1,2026.07 2225.56,2018.22 2210.59,2024.06 2223.13,2031.92 "/>
      <polygon id="Vector_138" class="fil45" points="2211.85,2041.89 2199.31,2034.04 2184.34,2039.89 2196.87,2047.74 "/>
      <polygon id="Vector_139" class="fil45" points="2269.49,2065.56 2244.14,2049.67 2214.07,2061.41 2239.43,2077.29 "/>
      <polygon id="Vector_140" class="fil44" points="2185.54,2010.91 2179.41,2007.07 2172.17,2009.91 2178.3,2013.74 "/>
      <polygon id="Vector_141" class="fil48" points="2165.88,2053.7 2153.33,2045.85 2138.36,2051.69 2150.91,2059.55 "/>
      <polygon id="Vector_142" class="fil45" points="2216.81,2078.47 2204.26,2070.61 2189.4,2076.42 2201.94,2084.28 "/>
      <polygon id="Vector_143" class="fil47" points="2231.99,2103.69 2225.85,2099.84 2218.59,2102.68 2224.73,2106.52 "/>
      <polygon id="Vector_144" class="fil47" points="2181.81,2094.01 2175.69,2090.17 2168.43,2093.01 2174.56,2096.85 "/>
      <polygon id="Vector_145" class="fil47" points="2142.44,2078.06 2136.31,2074.22 2129.06,2077.05 2135.19,2080.89 "/>
      <polygon id="Vector_146" class="fil48" points="2162.39,2100.58 2149.84,2092.72 2134.87,2098.57 2147.42,2106.43 "/>
      <polygon id="Vector_147" class="fil48" points="2203.4,2122.04 2190.85,2114.18 2175.87,2120.02 2188.42,2127.89 "/>
      <polygon id="Vector_148" class="fil48" points="2164.62,2124.71 2152.07,2116.85 2137.23,2122.64 2149.78,2130.5 "/>
      <polygon id="Vector_149" class="fil44" points="2128.13,2104.5 2115.58,2096.65 2100.72,2102.44 2113.27,2110.3 "/>
      <polygon id="Vector_150" class="fil44" points="2145.66,2145.7 2139.54,2141.86 2132.17,2144.74 2138.29,2148.58 "/>
      <polygon id="Vector_151" class="fil44" points="2125.26,2141.02 2112.72,2133.16 2097.75,2139.01 2110.3,2146.87 "/>
      <polygon id="Vector_152" class="fil44" points="2117.48,2171.43 2111.34,2167.58 2104.08,2170.41 2110.22,2174.26 "/>
      <polygon id="Vector_153" class="fil48" points="2204.93,2147.65 2188.98,2137.65 2169.96,2145.08 2185.91,2155.07 "/>
      <polygon id="Vector_154" class="fil48" points="2210.73,2185.25 2185.37,2169.36 2155.3,2181.1 2180.67,2196.99 "/>
      <polygon id="Vector_155" class="fil44" points="2160.34,2168.66 2147.79,2160.8 2132.93,2166.61 2145.48,2174.46 "/>
      <polygon id="Vector_156" class="fil44" points="2152.53,2181.9 2146.4,2178.07 2139.16,2180.89 2145.28,2184.73 "/>
      <polygon id="Vector_157" class="fil44" points="2132.5,2190.02 2119.96,2182.17 2105.1,2187.96 2117.65,2195.82 "/>
      <polygon id="Vector_158" class="fil44" points="2149.06,2219.6 2136.51,2211.74 2121.66,2217.54 2134.2,2225.41 "/>
      <polygon id="Vector_159" class="fil44" points="2192.58,2227.41 2176.61,2217.41 2157.71,2224.79 2173.68,2234.8 "/>
      <polygon id="Vector_160" class="fil48" points="2236.11,2202.23 2223.58,2194.38 2208.72,2200.18 2221.26,2208.03 "/>
      <polygon id="Vector_161" class="fil49" points="2300.47,2246.29 2275.11,2230.4 2244.92,2242.19 2270.28,2258.07 "/>
      <polygon id="Vector_162" class="fil44" points="2207.97,2220.01 2201.83,2216.17 2194.58,2219 2200.72,2222.84 "/>
      <polygon id="Vector_163" class="fil44" points="2251.74,2224.35 2245.61,2220.51 2238.36,2223.33 2244.49,2227.17 "/>
      <polygon id="Vector_164" class="fil44" points="2207.75,2247.19 2195.2,2239.33 2180.35,2245.13 2192.9,2252.99 "/>
      <polygon id="Vector_165" class="fil44" points="2144.24,2204.51 2138.09,2200.66 2130.84,2203.48 2136.99,2207.33 "/>
      <polygon id="Vector_166" class="fil47" points="2169.13,2249.7 2162.99,2245.86 2155.74,2248.69 2161.88,2252.54 "/>
      <polygon id="Vector_167" class="fil44" points="2292.36,2263.69 2286.23,2259.85 2278.98,2262.68 2285.11,2266.52 "/>
      <polygon id="Vector_168" class="fil44" points="2252.05,2321.82 2245.92,2317.98 2238.67,2320.81 2244.81,2324.65 "/>
      <polygon id="Vector_169" class="fil44" points="2304.99,2316.43 2298.85,2312.59 2291.6,2315.42 2297.74,2319.26 "/>
      <polygon id="Vector_170" class="fil46" points="2318.96,2331.47 2312.83,2327.63 2305.59,2330.46 2311.72,2334.3 "/>
      <polygon id="Vector_171" class="fil48" points="2322.52,2352.55 2316.38,2348.7 2309.12,2351.54 2315.26,2355.38 "/>
      <polygon id="Vector_172" class="fil46" points="2439.18,2374.37 2433.04,2370.53 2425.67,2373.41 2431.8,2377.25 "/>
      <polygon id="Vector_173" class="fil48" points="2354.79,2362.12 2348.65,2358.28 2341.28,2361.16 2347.41,2365 "/>
      <polygon id="Vector_174" class="fil44" points="2248.93,2274.31 2232.96,2264.31 2213.95,2271.74 2229.91,2281.73 "/>
      <polygon id="Vector_175" class="fil44" points="2268.59,2305.72 2252.63,2295.72 2233.74,2303.1 2249.69,2313.09 "/>
      <polygon id="Vector_176" class="fil44" points="2297.47,2291.06 2284.93,2283.2 2270.08,2289 2282.62,2296.86 "/>
      <polygon id="Vector_177" class="fil44" points="2227.68,2297.74 2215.14,2289.89 2200.17,2295.73 2212.71,2303.58 "/>
      <polygon id="Vector_178" class="fil44" points="2211.68,2278.78 2199.15,2270.92 2184.18,2276.77 2196.71,2284.62 "/>
      <polygon id="Vector_179" class="fil44" points="2292.76,2335.85 2280.22,2327.99 2265.36,2333.79 2277.91,2341.65 "/>
      <polygon id="Vector_180" class="fil46" points="2354.41,2346.42 2341.86,2338.56 2326.89,2344.41 2339.44,2352.27 "/>
      <polygon id="Vector_181" class="fil46" points="2404.33,2367.42 2391.78,2359.56 2376.93,2365.36 2389.47,2373.22 "/>
     </g>
    </g>
    <g id="_1921053463888">
     <path class="fil50" d="M2890.6 1817.64c209.22,131.04 175.09,316.83 -76.2,414.95 -251.3,98.13 -624.63,71.44 -833.84,-59.6 -209.22,-131.05 -175.1,-316.82 76.2,-414.95 251.3,-98.13 624.63,-71.44 833.84,59.6z"/>
     <path class="fil51" d="M2846.7 1834.78c-189.03,-118.39 -526.33,-142.51 -753.38,-53.85 -227.05,88.66 -257.88,256.52 -68.85,374.92 189.02,118.4 526.33,142.51 753.38,53.85 227.06,-88.66 257.88,-256.51 68.85,-374.91z"/>
     <circle class="fil29" transform="matrix(0.297328 0.186236 -0.357141 0.139454 2435.58 1995.32)" r="1072.92"/>
     <path class="fil6" d="M2886.78 1828.23c-2.91,-1.9 -5.84,-3.78 -8.81,-5.65l-10.65 4.16c2.92,1.84 5.8,3.68 8.65,5.55l10.81 -4.05 -9.06 -5.81 -10.59 4.19 0.19 0.12 19.46 1.5zm-57.06 -32.55c-3.36,-1.67 -6.83,-3.43 -10.33,-5.01l-9.18 4.94c3.41,1.56 6.78,3.26 10.07,4.89l9.44 -4.82zm-65.22 -28.17c-3.83,-1.44 -7.7,-2.85 -11.6,-4.24l-7.61 5.59c3.8,1.36 7.58,2.73 11.32,4.13l7.89 -5.49zm-72.31 -23.29c-4.19,-1.15 -8.39,-2.27 -12.63,-3.37l-5.82 6.13c4.13,1.07 8.24,2.17 12.33,3.29l6.12 -6.06zm-77.79 -17.91c-4.44,-0.84 -8.9,-1.65 -13.38,-2.43l-3.94 6.54c4.37,0.77 8.73,1.56 13.06,2.38l4.26 -6.48zm-81.57 -12.17c-4.61,-0.51 -9.22,-0.99 -13.84,-1.45l-2 6.8c4.52,0.45 9.02,0.92 13.52,1.42l2.32 -6.77zm-83.67 -6.21c-4.67,-0.18 -9.34,-0.33 -14.02,-0.44l0.06 6.93c4.56,0.12 9.12,0.26 13.68,0.43l0.27 -6.91zm-83.92 -0.12c-4.64,0.16 -9.27,0.36 -13.89,0.57l2.05 6.9c4.52,-0.21 9.03,-0.4 13.56,-0.56l-1.71 -6.92zm-82.45 6c-4.51,0.5 -8.99,1.04 -13.47,1.59l4.01 6.73c4.37,-0.54 8.75,-1.07 13.15,-1.56l-3.69 -6.77zm-79.19 12.03c-4.28,0.83 -8.53,1.7 -12.76,2.58l5.93 6.41c4.13,-0.87 8.27,-1.7 12.44,-2.52l-5.61 -6.48zm-74.23 17.82c-3.94,1.15 -7.85,2.31 -11.74,3.5l7.67 5.96c3.82,-1.17 7.65,-2.3 11.52,-3.43l-7.45 -6.03zm-67.63 23.15c-3.57,1.4 -7.09,2.89 -10.56,4.35l9.26 5.39c3.38,-1.43 6.81,-2.88 10.29,-4.24l-8.99 -5.5zm-59.81 27.98c-3.09,1.67 -6.11,3.38 -9.11,5.09l10.65 4.7c2.92,-1.67 5.87,-3.35 8.88,-4.97l-10.43 -4.83zm-50.57 32.27c-2.53,1.9 -5.01,3.81 -7.44,5.75l11.85 3.89c2.37,-1.89 4.79,-3.76 7.26,-5.61l-11.67 -4.03zm-40.17 35.88c-1.93,2.08 -3.8,4.17 -5.62,6.28l12.77 3.01c1.78,-2.06 3.61,-4.09 5.49,-6.13l-12.64 -3.16zm-28.94 38.7c-1.29,2.21 -2.52,4.44 -3.69,6.67l13.41 2.07c1.15,-2.18 2.34,-4.35 3.6,-6.51l-13.32 -2.23zm-17.17 40.69c-0.61,2.31 -1.15,4.61 -1.7,6.93l13.78 1.07c0.41,-2.23 1.06,-4.51 1.65,-6.73l-13.73 -1.27zm-5.08 41.82c0.06,2.34 0.17,4.68 0.34,7.02l13.84 0.08c-0.17,-2.28 -0.28,-4.57 -0.33,-6.85l-13.85 -0.24zm7.13 42.05c0.73,2.33 1.53,4.65 2.37,6.97l13.61 -0.92c-0.82,-2.26 -1.6,-4.53 -2.31,-6.8l-13.67 0.75zm19.26 41.4c1.4,2.26 2.86,4.52 4.37,6.77l13.1 -1.91c-1.47,-2.2 -2.89,-4.4 -4.26,-6.61l-13.2 1.75zm31.04 39.85c2.04,2.16 4.13,4.3 6.28,6.43l12.29 -2.88c-2.09,-2.08 -4.13,-4.17 -6.12,-6.28l-12.44 2.72zm42.13 37.44c2.63,2 5.32,3.98 8.04,5.95l11.23 -3.76c-2.65,-1.92 -5.28,-3.85 -7.84,-5.8l-11.43 3.61zm52.22 34.27c3.15,1.81 6.36,3.59 9.61,5.35l9.94 -4.56c-3.17,-1.72 -6.3,-3.46 -9.37,-5.22l-10.18 4.43zm61.16 30.39c3.61,1.57 7.3,3.11 10.99,4.64l8.44 -5.27c-3.6,-1.49 -7.19,-2.99 -10.72,-4.52l-8.72 5.16zm68.95 25.81c4.02,1.3 8.07,2.57 12.15,3.81l6.73 -5.88c-3.98,-1.22 -7.93,-2.46 -11.85,-3.72l-7.02 5.79zm75.24 20.66c4.32,1 8.67,1.97 13.04,2.91l4.89 -6.36c-4.26,-0.92 -8.5,-1.87 -12.72,-2.84l-5.2 6.28zm79.89 15.09c4.54,0.68 9.09,1.33 13.65,1.95l2.97 -6.69c-4.46,-0.61 -8.9,-1.24 -13.32,-1.91l-3.3 6.64zm82.86 9.23c4.65,0.33 9.3,0.66 13.96,0.95l0.94 -6.89c-4.55,-0.28 -9.1,-0.6 -13.64,-0.93l-1.26 6.87zm84 3.18c4.67,0.01 9.33,-0.01 13.99,-0.06l-1.05 -6.93c-4.56,0.05 -9.1,0.07 -13.66,0.06l0.72 6.93zm83.41 -2.93c4.59,-0.33 9.16,-0.7 13.72,-1.08l-3.04 -6.83c-4.45,0.38 -8.91,0.73 -13.39,1.06l2.7 6.86zm81.05 -9.03c4.4,-0.67 8.78,-1.37 13.15,-2.09l-4.98 -6.59c-4.26,0.7 -8.54,1.39 -12.83,2.04l4.67 6.64zm76.93 -14.96c4.13,-0.99 8.23,-2 12.3,-3.05l-6.85 -6.2c-3.96,1.02 -7.98,2.01 -12,2.97l6.55 6.27zm71.12 -20.54c3.77,-1.29 7.5,-2.6 11.2,-3.94l-8.52 -5.68c-3.6,1.3 -7.24,2.58 -10.91,3.83l8.24 5.78zm63.93 -25.63c3.32,-1.56 6.63,-3.13 9.87,-4.73l-10.02 -5.04c-3.16,1.56 -6.38,3.09 -9.62,4.61l9.77 5.16zm55.36 -30.18c2.81,-1.79 5.58,-3.61 8.3,-5.44l-11.28 -4.3c-2.65,1.78 -5.35,3.55 -8.1,5.3l11.08 4.44zm45.52 -34.16c2.23,-2 4.42,-4 6.55,-6.03l-12.34 -3.46c-2.08,1.98 -4.22,3.94 -6.4,5.88l12.19 3.6zm34.66 -37.38c1.61,-2.15 3.17,-4.31 4.67,-6.49l-13.13 -2.55c-1.47,2.12 -2.99,4.23 -4.56,6.33l13.02 2.7zm23.13 -39.8c0.96,-2.26 1.85,-4.53 2.7,-6.81l-13.63 -1.59c-0.83,2.22 -1.7,4.44 -2.64,6.65l13.56 1.76zm11.18 -41.37c0.27,-2.32 0.54,-4.66 0.68,-6.98l-13.84 -0.57c-0.17,2.28 -0.4,4.55 -0.67,6.82l13.83 0.74zm-1 -42.04c-0.4,-2.34 -0.85,-4.67 -1.35,-7.01l-13.77 0.42c0.5,2.28 0.94,4.56 1.33,6.84l13.8 -0.25zm-13.2 -41.83c-1.07,-2.3 -2.2,-4.6 -3.37,-6.89l-13.39 1.42c1.15,2.24 2.25,4.48 3.29,6.72l13.48 -1.25zm-25.19 -40.74c-1.73,-2.22 -3.5,-4.43 -5.33,-6.62l-12.73 2.4c1.79,2.14 3.52,4.3 5.2,6.46l12.86 -2.24zm-36.68 -38.77c-2.35,-2.08 -4.72,-4.16 -7.18,-6.21l-11.77 3.35c2.39,2 4.7,4.03 7,6.06l11.95 -3.2z"/>
     <g>
      <polygon id="Vector_102_0" class="fil30" points="2461.06,1797.43 2429.43,1859.69 2336.82,1878.65 2283.48,1953.28 2254.13,2018.54 2338.12,2067.26 2391.27,1997.72 2454.83,1978.8 2440.58,2021.72 2531.28,2009.03 2596.2,2052.72 2586.48,2014.37 2643.96,2088.56 2763.81,2091.36 2794.22,2101.71 2818.76,2092.67 2879.22,2036.63 2847.94,1990.34 2806.25,1993.59 2824.81,2029.87 2784.04,2064.65 2712.07,2054.49 2739.03,1973.72 2684.97,1902.16 2647.98,1887.2 2615.51,1837.5 "/>
      <polygon id="Vector_103_1" class="fil31" points="2712.19,2054.44 2730.96,2005.66 2687.09,2014.06 2635.98,1994.49 2563.14,1958.06 2531.39,2008.99 2596.34,2052.68 2586.6,2014.32 2644.07,2088.51 "/>
      <polygon id="Vector_104_2" class="fil32" points="2847.93,1990.33 2806.35,1993.54 2824.81,2029.86 2879.21,2036.63 "/>
      <polygon id="Vector_105_3" class="fil33" points="2783.97,2064.72 2824.74,2029.95 2877.24,2036.49 2818.7,2092.75 "/>
      <polygon id="Vector_106_4" class="fil34" points="2712.09,2054.5 2643.99,2088.58 2818.81,2092.7 2784.07,2064.66 "/>
      <polygon id="Vector_107_5" class="fil35" points="2794.24,2101.72 2681.13,2048.28 2677.21,2033.73 2628.47,2029.19 2656.02,2055.04 "/>
      <polygon id="Vector_108_6" class="fil33" points="2686.94,2014.09 2677.18,2033.71 2624.8,2029.07 2599.69,2005.6 2635.72,1994.58 "/>
      <polygon id="Vector_109_7" class="fil36" points="2740.78,1974.1 2659.69,1961.13 2635.74,1994.59 2686.97,2014.11 2730.86,2005.71 "/>
      <polygon id="Vector_110_8" class="fil37" points="2709.13,1934.09 2659.68,1923.17 2615.06,1917.58 2659.83,1961.1 2739.08,1973.75 "/>
      <polygon id="Vector_111_9" class="fil31" points="2557.83,1925.49 2563.03,1958.12 2636,1994.5 2659.8,1961.08 2615.04,1917.57 "/>
      <polygon id="Vector_112_10" class="fil34" points="2659.63,1923.14 2587.67,1858.62 2614.88,1917.6 "/>
      <polygon id="Vector_113_11" class="fil38" points="2709.04,1934.04 2684.93,1902.13 2647.94,1887.18 2635.69,1901.75 2661.57,1923.51 "/>
      <polygon id="Vector_114_12" class="fil38" points="2587.65,1858.61 2488,1879.22 2557.65,1925.5 2614.85,1917.58 "/>
      <polygon id="Vector_115_13" class="fil39" points="2531.2,2009.11 2534.44,1953.49 2562.93,1958.17 "/>
      <polygon id="Vector_116_14" class="fil40" points="2557.7,1925.54 2534.42,1953.48 2562.92,1958.16 "/>
      <polygon id="Vector_117_15" class="fil41" points="2531.26,2009.02 2440.55,2021.7 2488,1879.22 2557.65,1925.5 2534.48,1953.41 "/>
      <polygon id="Vector_118_16" class="fil42" points="2615.52,1837.5 2600.71,1870.28 2587.68,1858.62 2548.97,1866.64 2461.06,1797.43 "/>
      <polygon id="Vector_119_17" class="fil40" points="2648.04,1887.24 2615.56,1837.54 2600.75,1870.31 2635.79,1901.81 "/>
      <polygon id="Vector_120_18" class="fil38" points="2477.33,1911.2 2429.43,1859.69 2460.93,1797.48 2548.97,1866.64 2488.04,1879.24 "/>
      <polygon id="Vector_121_19" class="fil40" points="2454.98,1978.77 2336.85,1878.68 2429.59,1859.66 2477.49,1911.17 "/>
      <polygon id="Vector_122_20" class="fil39" points="2283.52,1953.3 2336.85,1878.68 2454.87,1978.82 "/>
      <polygon id="Vector_123_21" class="fil43" points="2391.19,1997.78 2283.52,1953.3 2454.87,1978.82 "/>
      <polygon id="Vector_124_22" class="fil34" points="2254.16,2018.56 2283.52,1953.3 2391.3,1997.74 "/>
      <polygon id="Vector_125_23" class="fil38" points="2338.27,2067.24 2254.18,2018.57 2391.3,1997.74 "/>
      <polygon id="Vector_126_24" class="fil29" points="2691.97,1987.87 2680.74,1973.95 2671.89,1979.9 2677.19,1985.88 "/>
      <polygon id="Vector_127_25" class="fil44" points="2423.65,1845.19 2398.3,1829.3 2368.23,1841.04 2393.58,1856.92 "/>
      <polygon id="Vector_128_26" class="fil45" points="2386.16,1806.84 2370.2,1796.85 2351.2,1804.27 2367.15,1814.26 "/>
      <polygon id="Vector_129_27" class="fil44" points="2435.92,1807.07 2423.37,1799.21 2408.4,1805.06 2420.95,1812.91 "/>
      <polygon id="Vector_130_28" class="fil45" points="2334.63,1812.52 2318.68,1802.53 2299.79,1809.91 2315.74,1819.89 "/>
      <polygon id="Vector_131_29" class="fil45" points="2345.81,1846.58 2333.28,1838.74 2318.31,1844.58 2330.84,1852.43 "/>
      <polygon id="Vector_132_30" class="fil44" points="2359.94,1829.94 2353.8,1826.09 2346.56,1828.92 2352.7,1832.76 "/>
      <polygon id="Vector_133_31" class="fil44" points="2358.89,1860.94 2352.75,1857.09 2345.5,1859.93 2351.63,1863.77 "/>
      <polygon id="Vector_134_32" class="fil46" points="2307.36,1837.36 2282,1821.48 2251.92,1833.22 2277.28,1849.11 "/>
      <polygon id="Vector_135_33" class="fil47" points="2243.87,1829.38 2237.73,1825.54 2230.36,1828.42 2236.5,1832.26 "/>
      <polygon id="Vector_136_34" class="fil45" points="2319.26,1875.75 2306.71,1867.89 2291.86,1873.7 2304.4,1881.56 "/>
      <polygon id="Vector_137_35" class="fil44" points="2271.16,1868.48 2258.61,1860.61 2243.65,1866.46 2256.19,1874.32 "/>
      <polygon id="Vector_138_36" class="fil45" points="2244.91,1884.29 2232.37,1876.44 2217.4,1882.28 2229.93,1890.13 "/>
      <polygon id="Vector_139_37" class="fil45" points="2302.55,1907.95 2277.2,1892.07 2247.13,1903.81 2272.49,1919.69 "/>
      <polygon id="Vector_140_38" class="fil44" points="2218.6,1853.31 2212.48,1849.47 2205.23,1852.3 2211.35,1856.14 "/>
      <polygon id="Vector_141_39" class="fil48" points="2198.94,1896.1 2186.39,1888.24 2171.43,1894.09 2183.97,1901.95 "/>
      <polygon id="Vector_142_40" class="fil45" points="2249.87,1920.87 2237.33,1913.01 2222.46,1918.82 2235,1926.68 "/>
      <polygon id="Vector_143_41" class="fil47" points="2265.05,1946.08 2258.91,1942.24 2251.65,1945.07 2257.79,1948.92 "/>
      <polygon id="Vector_144_42" class="fil47" points="2214.87,1936.41 2208.74,1932.57 2201.49,1935.41 2207.62,1939.24 "/>
      <polygon id="Vector_145_43" class="fil47" points="2175.5,1920.45 2169.38,1916.61 2162.12,1919.45 2168.25,1923.28 "/>
      <polygon id="Vector_146_44" class="fil48" points="2195.45,1942.98 2182.9,1935.12 2167.94,1940.97 2180.48,1948.83 "/>
      <polygon id="Vector_147_45" class="fil48" points="2236.46,1964.43 2223.91,1956.57 2208.93,1962.42 2221.48,1970.28 "/>
      <polygon id="Vector_148_46" class="fil48" points="2197.68,1967.11 2185.13,1959.25 2170.29,1965.04 2182.83,1972.9 "/>
      <polygon id="Vector_149_47" class="fil44" points="2161.19,1946.9 2148.64,1939.04 2133.79,1944.84 2146.33,1952.7 "/>
      <polygon id="Vector_150_48" class="fil44" points="2178.72,1988.1 2172.6,1984.26 2165.23,1987.14 2171.35,1990.98 "/>
      <polygon id="Vector_151_49" class="fil44" points="2158.33,1983.42 2145.78,1975.56 2130.81,1981.41 2143.35,1989.26 "/>
      <polygon id="Vector_152_50" class="fil44" points="2150.54,2013.82 2144.4,2009.98 2137.15,2012.81 2143.28,2016.66 "/>
      <polygon id="Vector_153_51" class="fil48" points="2237.99,1990.05 2222.04,1980.05 2203.02,1987.48 2218.98,1997.47 "/>
      <polygon id="Vector_154_52" class="fil48" points="2243.79,2027.65 2218.43,2011.76 2188.36,2023.5 2213.72,2039.39 "/>
      <polygon id="Vector_155_53" class="fil44" points="2193.4,2011.06 2180.85,2003.2 2166,2009 2178.54,2016.86 "/>
      <polygon id="Vector_156_54" class="fil44" points="2185.59,2024.3 2179.46,2020.46 2172.22,2023.29 2178.34,2027.13 "/>
      <polygon id="Vector_157_55" class="fil44" points="2165.56,2032.42 2153.02,2024.56 2138.16,2030.36 2150.71,2038.22 "/>
      <polygon id="Vector_158_56" class="fil44" points="2182.12,2062 2169.57,2054.14 2154.72,2059.94 2167.26,2067.8 "/>
      <polygon id="Vector_159_57" class="fil44" points="2225.64,2069.81 2209.67,2059.81 2190.77,2067.19 2206.74,2077.19 "/>
      <polygon id="Vector_160_58" class="fil48" points="2269.18,2044.63 2256.64,2036.78 2241.79,2042.58 2254.32,2050.43 "/>
      <polygon id="Vector_161_59" class="fil49" points="2333.53,2088.69 2308.17,2072.8 2277.98,2084.59 2303.34,2100.47 "/>
      <polygon id="Vector_162_60" class="fil44" points="2241.03,2062.41 2234.9,2058.57 2227.64,2061.4 2233.78,2065.24 "/>
      <polygon id="Vector_163_61" class="fil44" points="2284.8,2066.74 2278.67,2062.91 2271.43,2065.73 2277.56,2069.57 "/>
      <polygon id="Vector_164_62" class="fil44" points="2240.81,2089.59 2228.26,2081.73 2213.41,2087.53 2225.96,2095.39 "/>
      <polygon id="Vector_165_63" class="fil44" points="2177.3,2046.91 2171.15,2043.06 2163.91,2045.88 2170.05,2049.74 "/>
      <polygon id="Vector_166_64" class="fil47" points="2202.19,2092.1 2196.05,2088.26 2188.81,2091.09 2194.94,2094.93 "/>
      <polygon id="Vector_167_65" class="fil44" points="2325.42,2106.09 2319.29,2102.24 2312.04,2105.07 2318.18,2108.92 "/>
      <polygon id="Vector_168_66" class="fil44" points="2285.11,2164.22 2278.98,2160.38 2271.73,2163.2 2277.87,2167.05 "/>
      <polygon id="Vector_169_67" class="fil44" points="2338.05,2158.83 2331.92,2154.98 2324.66,2157.82 2330.8,2161.66 "/>
      <polygon id="Vector_170_68" class="fil46" points="2352.02,2173.87 2345.89,2170.03 2338.65,2172.86 2344.78,2176.7 "/>
      <polygon id="Vector_171_69" class="fil48" points="2355.58,2194.94 2349.44,2191.1 2342.19,2193.94 2348.32,2197.78 "/>
      <polygon id="Vector_172_70" class="fil46" points="2472.24,2216.77 2466.1,2212.93 2458.73,2215.81 2464.87,2219.65 "/>
      <polygon id="Vector_173_71" class="fil48" points="2387.85,2204.52 2381.71,2200.68 2374.34,2203.56 2380.48,2207.4 "/>
      <polygon id="Vector_174_72" class="fil44" points="2281.99,2116.7 2266.03,2106.71 2247.01,2114.13 2262.97,2124.13 "/>
      <polygon id="Vector_175_73" class="fil44" points="2301.65,2148.11 2285.69,2138.12 2266.8,2145.5 2282.75,2155.49 "/>
      <polygon id="Vector_176_74" class="fil44" points="2330.53,2133.46 2317.99,2125.6 2303.14,2131.4 2315.68,2139.26 "/>
      <polygon id="Vector_177_75" class="fil44" points="2260.74,2140.13 2248.2,2132.28 2233.23,2138.13 2245.77,2145.98 "/>
      <polygon id="Vector_178_76" class="fil44" points="2244.74,2121.17 2232.2,2113.32 2217.24,2119.17 2229.77,2127.02 "/>
      <polygon id="Vector_179_77" class="fil44" points="2325.82,2178.24 2313.28,2170.39 2298.42,2176.19 2310.97,2184.04 "/>
      <polygon id="Vector_180_78" class="fil46" points="2387.47,2188.82 2374.93,2180.96 2359.95,2186.81 2372.5,2194.67 "/>
      <polygon id="Vector_181_79" class="fil46" points="2437.39,2209.81 2424.84,2201.96 2409.98,2207.76 2422.53,2215.62 "/>
     </g>
    </g>
   </g>
  </g>
  <polygon class="fil52" points="-0,0 4895.83,0 4895.83,4895.83 -0,4895.83 "/>
 </g>
</svg>
