<?xml version="1.0" encoding="UTF-8"?>
<!DOCTYPE svg PUBLIC "-//W3C//DTD SVG 1.1//EN" "http://www.w3.org/Graphics/SVG/1.1/DTD/svg11.dtd">
<!-- Creator: CorelDRAW 2019 (64-Bit) -->
<svg xmlns="http://www.w3.org/2000/svg" xml:space="preserve" width="4.11946in" height="3.79064in" version="1.1" style="shape-rendering:geometricPrecision; text-rendering:geometricPrecision; image-rendering:optimizeQuality; fill-rule:evenodd; clip-rule:evenodd"
viewBox="0 0 4119.46 3790.64"
 xmlns:xlink="http://www.w3.org/1999/xlink"
 xmlns:xodm="http://www.corel.com/coreldraw/odm/2003">
 <defs>
  <style type="text/css">
   <![CDATA[
    .fil7 {fill:#FEFEFE;fill-rule:nonzero}
    .fil11 {fill:#FBCC50;fill-rule:nonzero}
    .fil12 {fill:#F2AB32;fill-rule:nonzero}
    .fil13 {fill:#E79737;fill-rule:nonzero}
    .fil9 {fill:#606979;fill-rule:nonzero}
    .fil3 {fill:#51585F;fill-rule:nonzero}
    .fil10 {fill:#4A5057;fill-rule:nonzero}
    .fil2 {fill:#056A2D;fill-rule:nonzero}
    .fil19 {fill:#09AB49;fill-rule:nonzero}
    .fil5 {fill:#0AF769;fill-rule:nonzero}
    .fil24 {fill:#1E3125;fill-rule:nonzero}
    .fil14 {fill:#2FD772;fill-rule:nonzero}
    .fil6 {fill:#333333;fill-rule:nonzero}
    .fil25 {fill:#33DC76;fill-rule:nonzero}
    .fil30 {fill:#49E688;fill-rule:nonzero}
    .fil0 {fill:#51585F;fill-rule:nonzero;fill-opacity:0.501961}
    .fil1 {fill:black;fill-rule:nonzero;fill-opacity:0.501961}
    .fil26 {fill:url(#id0)}
    .fil15 {fill:url(#id1)}
    .fil20 {fill:url(#id2)}
    .fil17 {fill:url(#id3)}
    .fil22 {fill:url(#id4)}
    .fil16 {fill:url(#id5)}
    .fil18 {fill:url(#id6)}
    .fil21 {fill:url(#id7)}
    .fil23 {fill:url(#id8)}
    .fil8 {fill:url(#id9)}
    .fil4 {fill:url(#id10)}
    .fil29 {fill:url(#id11)}
    .fil27 {fill:url(#id12)}
    .fil28 {fill:url(#id13)}
   ]]>
  </style>
  <linearGradient id="id0" gradientUnits="userSpaceOnUse" x1="3374.12" y1="2455.67" x2="3202.98" y2="2202.54">
   <stop offset="0" style="stop-opacity:1; stop-color:#4DA971"/>
   <stop offset="0.380392" style="stop-opacity:1; stop-color:#00AB44"/>
   <stop offset="0.741176" style="stop-opacity:1; stop-color:#28DB6F"/>
   <stop offset="1" style="stop-opacity:1; stop-color:#33DC76"/>
  </linearGradient>
  <linearGradient id="id1" gradientUnits="userSpaceOnUse" xlink:href="#id0" x1="3833.33" y1="2457.14" x2="3662.19" y2="2204.01">
  </linearGradient>
  <linearGradient id="id2" gradientUnits="userSpaceOnUse" xlink:href="#id0" x1="3833.35" y1="2105.49" x2="3662.18" y2="1852.35">
  </linearGradient>
  <linearGradient id="id3" gradientUnits="userSpaceOnUse" xlink:href="#id0" x1="3832.37" y1="2719.56" x2="3663.41" y2="2467.31">
  </linearGradient>
  <linearGradient id="id4" gradientUnits="userSpaceOnUse" xlink:href="#id0" x1="3832.37" y1="2367.9" x2="3663.41" y2="2115.65">
  </linearGradient>
  <linearGradient id="id5" gradientUnits="userSpaceOnUse" xlink:href="#id0" x1="3833.57" y1="2544.72" x2="3661.97" y2="2291.41">
  </linearGradient>
  <linearGradient id="id6" gradientUnits="userSpaceOnUse" xlink:href="#id0" x1="3832.76" y1="2632.72" x2="3662.79" y2="2380.06">
  </linearGradient>
  <linearGradient id="id7" gradientUnits="userSpaceOnUse" xlink:href="#id0" x1="3833.58" y1="2193.07" x2="3661.96" y2="1939.75">
  </linearGradient>
  <linearGradient id="id8" gradientUnits="userSpaceOnUse" xlink:href="#id0" x1="3832.74" y1="2281.07" x2="3662.8" y2="2028.41">
  </linearGradient>
  <linearGradient id="id9" gradientUnits="userSpaceOnUse" xlink:href="#id0" x1="2179.65" y1="3350.93" x2="1969.51" y2="3144.42">
  </linearGradient>
  <linearGradient id="id10" gradientUnits="userSpaceOnUse" xlink:href="#id0" x1="2296.43" y1="3754.46" x2="2005.06" y2="3231.55">
  </linearGradient>
  <linearGradient id="id11" gradientUnits="userSpaceOnUse" xlink:href="#id0" x1="3373.53" y1="2631.23" x2="3203.59" y2="2378.58">
  </linearGradient>
  <linearGradient id="id12" gradientUnits="userSpaceOnUse" xlink:href="#id0" x1="3374.37" y1="2543.25" x2="3202.75" y2="2289.92">
  </linearGradient>
  <linearGradient id="id13" gradientUnits="userSpaceOnUse" xlink:href="#id0" x1="3373.15" y1="2718.07" x2="3204.19" y2="2465.83">
  </linearGradient>
 </defs>
 <g id="Layer_x0020_1">
  <metadata id="CorelCorpID_0Corel-Layer"/>
  <g id="_1921121996800">
   <g>
    <g>
     <path class="fil0" d="M2058.46 152.7l-11.2 -152.71 -11.52 152.71c-109.5,1393.72 -18.81,2691.16 -18.81,2691.16l29.49 37.09 0.06 2.89 1.11 -1.43 1.11 1.43 0 -2.89 29.55 -37.09c0,0 89.77,-1297.44 -19.79,-2691.16z"/>
     <path class="fil0" d="M2020.07 152.7l-5.6 -152.71 -5.76 152.71c-54.75,1393.72 -9.41,2691.16 -9.41,2691.16l14.74 37.09 0.04 2.89 0.55 -1.43 0.56 1.43 0 -2.89 14.78 -37.09c0,0 44.89,-1297.44 -9.89,-2691.16z"/>
    </g>
    <g>
     <path class="fil1" d="M2058.46 152.7l-11.2 -152.71 -11.52 152.71c-109.5,1393.72 -18.81,2691.16 -18.81,2691.16l29.49 37.09 0.06 2.89 1.11 -1.43 1.11 1.43 0 -2.89 29.55 -37.09c0,0 89.77,-1297.44 -19.79,-2691.16z"/>
     <path class="fil1" d="M2020.07 152.7l-5.6 -152.71 -5.76 152.71c-54.75,1393.72 -9.41,2691.16 -9.41,2691.16l14.74 37.09 0.04 2.89 0.55 -1.43 0.56 1.43 0 -2.89 14.78 -37.09c0,0 44.89,-1297.44 -9.89,-2691.16z"/>
    </g>
   </g>
   <path class="fil2" d="M2069.14 3790.64c-608.47,0 -1101.72,-97.87 -1101.72,-218.58 0,-120.73 493.25,-218.59 1101.72,-218.59 608.47,0 1101.72,97.87 1101.72,218.59 0,120.71 -493.25,218.58 -1101.72,218.58z"/>
   <path class="fil3" d="M3960.62 2472.3c-5.6,-1.93 -11.33,-3.82 -17.19,-5.67l-465.45 -1647.66 11.52 -2.71 18.16 52.54 452.95 1603.5z"/>
   <path class="fil4" d="M2070.7 3438.26c0,0 -313.85,30.02 -627.09,-121.87l0 222.57c0,0 109.48,126.17 626.18,126.17 534.19,0 624.87,-126.17 624.87,-126.17l0 -222.57c-313.25,151.9 -623.96,121.87 -623.96,121.87z"/>
   <path class="fil5" d="M2694.53 3311.31c0,83.54 -280.37,151.25 -626.3,151.25 -345.87,0 -626.25,-67.71 -626.25,-151.25 0,-83.52 280.38,-151.25 626.25,-151.25 345.93,0 626.3,67.73 626.3,151.25z"/>
   <path class="fil5" d="M2257.27 2894.06l0 392.88c0,36.6 -30.59,66.32 -67.24,66.32l-287.34 0c-36.52,0 -65.62,-29.72 -65.62,-66.32l0 -392.88c0,-36.59 29.1,-66.05 65.62,-66.05l287.34 0c36.65,0 67.24,29.45 67.24,66.05z"/>
   <polygon class="fil6" points="715.38,998.59 3404.76,781.14 3404.76,717.56 715.38,935.01 "/>
   <path class="fil6" d="M729.52 980.85c-0.79,2.52 -11.2,89.08 -118.23,77.7 -4.6,-0.48 -9.09,-1.54 -13.35,-3.24 -17.24,-6.99 -56.95,-30.72 -57.57,-101.15 -0.06,-6.36 3.36,-12.65 9.17,-15.52 7.4,-3.66 18.28,-2.09 28.89,25.17 0,0 14.8,55.34 58.96,48.83 0,0 40.47,-0.53 55.52,-57.8 3.27,-12.39 15.28,-21.43 27.75,-19.69 11.06,1.56 19.46,11.65 8.87,45.7z"/>
   <path class="fil6" d="M3390.56 770c0.78,2.48 11.26,88.55 118.22,72.08 4.62,-0.7 9.11,-1.97 13.41,-3.87 17.19,-7.81 56.9,-33.43 57.55,-103.88 0.07,-6.36 -3.39,-12.49 -9.18,-15.09 -7.36,-3.31 -18.23,-1.22 -28.84,26.55 0,0 -14.84,56.04 -58.98,51.63 0,0 -40.49,1.39 -55.53,-55.16 -3.26,-12.24 -15.3,-20.7 -27.73,-18.37 -11.07,2.08 -19.53,12.57 -8.92,46.13z"/>
   <path class="fil3" d="M2845.89 2599.22c0,106.09 285.06,192.1 636.79,192.1 351.66,0 636.78,-86.01 636.78,-192.1 0,-15.74 -6.25,-31.06 -18.16,-45.69 -67.9,-84.04 -319.11,-146.43 -618.62,-146.43 -326.07,0 -594.93,73.94 -632.3,169.27 -3,7.52 -4.49,15.1 -4.49,22.84z"/>
   <path class="fil6" d="M2173.56 838.96c0,69.75 -56.5,126.3 -126.29,126.3 -69.79,0 -126.29,-56.56 -126.29,-126.3 0,-69.76 56.5,-126.29 126.29,-126.29 69.78,0 126.29,56.53 126.29,126.29z"/>
   <path class="fil7" d="M2113.34 838.96c0,36.52 -29.56,66.1 -66.07,66.1 -36.52,0 -66.07,-29.59 -66.07,-66.1 0,-36.5 29.56,-66.09 66.07,-66.09 36.52,0 66.07,29.59 66.07,66.09z"/>
   <path class="fil8" d="M2257.27 3139.33l0 147.6c0,36.6 -30.59,66.32 -67.24,66.32l-287.34 0c-36.52,0 -65.62,-29.72 -65.62,-66.32l0 -147.6 420.2 0z"/>
   <polygon class="fil3" points="3492.57,815.55 3507.67,868.8 3489.51,816.26 "/>
   <polygon class="fil3" points="3507.67,868.8 3489.51,816.26 3492.57,815.55 "/>
   <path class="fil9" d="M4101.3 2553.53c-1.17,2.99 -2.6,5.95 -4.23,8.9 -50.12,90.95 -312.21,160.3 -628.06,160.3 -299.38,0 -550.66,-62.36 -618.62,-146.36 2.21,-5.7 5.27,-11.31 9.11,-16.83 6.12,-8.85 14.26,-17.44 24.28,-25.78 88.67,-73.86 323.34,-126.65 598.9,-126.65 181.3,0 344.82,22.84 460.76,59.52 5.86,1.85 11.59,3.74 17.19,5.67 51.89,17.74 93.03,38.43 120.43,61.1 7.87,6.55 14.71,13.28 20.24,20.14z"/>
   <path class="fil10" d="M1506.39 870.75l-24.37 0c-1.35,-6.8 -2.23,-12.43 -2.58,-15.68 1.8,1.24 3.74,2.22 5.85,2.91 -3.92,-6.23 -5.89,-13.03 -5.89,-20.4 12.93,7.26 25.6,15.01 37.95,23.24 -1.81,5.56 -5.71,8.48 -11.63,8.76 0.24,0.41 0.44,0.79 0.67,1.17z"/>
   <path class="fil3" d="M4097.06 2562.43c1.63,-2.94 3.06,-5.91 4.23,-8.9 -5.53,-6.86 -12.37,-13.59 -20.24,-20.14l-573.38 -1664.59 -15.1 -53.25 -3.06 0.71 -2.54 -7.37 14.26 -4.89 604.69 1755.39 -8.85 3.04z"/>
   <path class="fil3" d="M3477.98 808.89l-594.21 1724.87c-10.02,8.35 -18.16,16.94 -24.28,25.78l-0.39 -0.15 604.69 -1755.39 14.19 4.89z"/>
   <path class="fil3" d="M1114.78 2695.44c-5.6,-1.93 -11.33,-3.82 -17.17,-5.67l-465.48 -1647.66 11.56 -2.71 18.11 52.54 452.98 1603.49z"/>
   <path class="fil3" d="M-0 2822.37c0,106.1 285.1,192.1 636.83,192.1 351.67,0 636.76,-86 636.76,-192.1 0,-15.74 -6.24,-31.06 -18.16,-45.69 -67.9,-84.04 -319.08,-146.43 -618.6,-146.43 -326.11,0 -594.95,73.94 -632.31,169.27 -2.96,7.52 -4.51,15.1 -4.51,22.84z"/>
   <path class="fil9" d="M1255.43 2776.68c-1.17,3 -2.58,5.96 -4.2,8.9 -50.14,90.95 -312.25,160.3 -628.07,160.3 -299.41,0 -550.64,-62.36 -618.64,-146.36 2.23,-5.7 5.3,-11.31 9.15,-16.83 6.11,-8.85 14.27,-17.44 24.28,-25.79 88.67,-73.86 323.34,-126.65 598.89,-126.65 181.27,0 344.82,22.84 460.78,59.52 5.84,1.85 11.57,3.74 17.17,5.67 51.87,17.75 93.04,38.43 120.42,61.1 7.91,6.55 14.69,13.27 20.23,20.13z"/>
   <polygon class="fil11" points="1121.04,2725.99 981.38,2840.68 741.61,2854.91 566.18,2725.99 566.18,2381.12 1121.04,2381.12 "/>
   <path class="fil12" d="M1121.13 2458.07l0 4.7c-0.78,43.84 -23.68,77.11 -62.25,103.27 -2.63,1.8 -5.32,3.54 -8.07,5.24 -111.48,69.08 -312.87,68.03 -420.29,-3.48 -45.24,-30.12 -72.67,-68.93 -62.05,-131.63 75.19,138.85 347.19,157.31 482.34,70.75 30.96,-19.83 57.64,-41.7 70.24,-72.35 -0.01,10.1 -0.07,14.91 0.08,23.51z"/>
   <path class="fil12" d="M1121.08 2552.5l0 0.02c-1.48,42.82 -24.24,75.45 -62.2,101.19 -2.63,1.8 -5.32,3.54 -8.07,5.23 -111.48,69.1 -312.87,68.04 -420.29,-3.48 -45.24,-30.1 -72.67,-68.93 -62.05,-131.63 75.19,138.87 347.19,157.3 482.34,70.73 30.96,-19.83 57.64,-42.04 70.23,-72.69 -0.04,9.38 -0.23,13.85 0.04,21.83l0 0.11c0.09,2.96 0.09,5.84 0,8.69z"/>
   <path class="fil12" d="M1120.96 2730.12l0 0.03c-2.62,38.31 -22.25,69.26 -57.09,94.2 -4.2,3 -8.56,5.9 -13.06,8.69 -114.22,70.65 -319.88,68.4 -426.86,-7.72 -38.25,-27.24 -57.64,-58.94 -57.64,-91.81 0,-10.03 1.81,-20.17 5.43,-30.32 18.52,28.43 40.19,50.3 64.19,66.97 59.11,41.14 132.41,50.94 207.89,50.56 75.05,-0.37 148.28,-9.49 206.99,-50.59 25.88,-18.12 51.02,-39.27 70.17,-71.81 0.1,5.77 0,8.37 0,13.98l0 0.08c0.38,6.09 0.37,11.99 -0.02,17.75z"/>
   <path class="fil12" d="M1121.02 2641.57l0 0.09c-1.93,42.09 -24.62,74.26 -62.14,99.72 -2.63,1.8 -5.32,3.54 -8.07,5.24 -111.48,69.11 -312.87,68.05 -420.29,-3.46 -45.24,-30.12 -72.67,-68.94 -62.05,-131.65 75.19,138.87 347.19,157.31 482.34,70.75 30.96,-19.85 57.62,-40.73 70.21,-71.39 -0.14,7.9 -0.33,11.52 0,19.02 0.17,3.97 0.17,7.87 0,11.69z"/>
   <path class="fil11" d="M636.29 2503.57l0 329.7 -12.16 -7.95c-38.5,-26.85 -58.28,-58.94 -58.28,-91.81l0.56 -312.4 69.88 82.45z"/>
   <path class="fil13" d="M1120.98 2698.31c0,0 0.02,8.29 0.04,13.85l0 0.25 -0.06 17.71 0 3.4c0,32.87 -19.67,64.95 -58.2,91.81l-11.96 7.97 0 -63.17c52.77,-35.94 70.17,-71.81 70.17,-71.81z"/>
   <path class="fil13" d="M1121.02 2629.88l0 11.78c-1.93,42.09 -24.62,74.26 -62.14,99.72 -2.63,1.8 -5.32,3.54 -8.07,5.24l0 -64.36c61.71,-37.93 70.21,-71.39 70.21,-71.39 0,0 -0.33,11.52 0,19.02z"/>
   <path class="fil13" d="M1121.08 2543.7l0 8.8 -0.04 6.32c-0.06,35.96 -24.2,69.15 -62.16,94.89 -2.63,1.8 -5.32,3.54 -8.07,5.23l0 -64.38c30.96,-19.83 57.64,-42.04 70.23,-72.69 0,8.84 0,13.83 0.04,21.83z"/>
   <path class="fil13" d="M1121.13 2458.07l0 4.7c-0.78,43.84 -23.68,77.11 -62.25,103.27 -2.63,1.8 -5.32,3.54 -8.07,5.24l0 -64.36c61.79,-39.01 70.24,-72.35 70.24,-72.35 0,0 -0.07,14.91 0.08,23.51z"/>
   <polygon class="fil11" points="1121.04,2380.69 981.38,2489.72 741.61,2503.26 566.18,2380.69 566.18,2052.82 1121.04,2052.82 "/>
   <path class="fil12" d="M1121.13 2106.41l0 4.72c-0.78,43.83 -23.68,77.09 -62.25,103.25 -2.63,1.8 -5.32,3.54 -8.07,5.24 -111.48,69.1 -312.87,68.05 -420.29,-3.46 -45.24,-30.12 -72.67,-68.94 -62.05,-131.63 75.19,138.85 347.19,157.29 482.34,70.73 30.96,-19.83 57.64,-41.68 70.24,-72.35 -0.01,10.1 -0.07,14.93 0.08,23.51z"/>
   <path class="fil12" d="M1121.08 2200.84l0 0.04c-1.48,42.8 -24.24,75.42 -62.2,101.18 -2.63,1.79 -5.32,3.53 -8.07,5.22 -111.48,69.11 -312.87,68.06 -420.29,-3.45 -45.24,-30.12 -72.67,-68.95 -62.05,-131.64 75.19,138.86 347.19,157.29 482.34,70.73 30.96,-19.85 57.64,-42.06 70.23,-72.71 -0.04,9.38 -0.23,13.87 0.04,21.85l0 0.11c0.09,2.94 0.09,5.85 0,8.67z"/>
   <path class="fil12" d="M1120.96 2378.44l0 0.04c-2.62,38.31 -22.25,69.28 -57.09,94.2 -4.2,3.02 -8.56,5.92 -13.06,8.69 -114.22,70.65 -319.88,68.39 -426.86,-7.71 -38.25,-27.22 -57.64,-58.95 -57.64,-91.81 0,-10.03 1.81,-20.15 5.43,-30.31 18.52,28.44 40.19,50.29 64.19,66.98 59.11,41.14 132.41,50.94 207.89,50.56 75.05,-0.38 148.28,-9.51 206.99,-50.61 25.88,-18.12 51.02,-39.27 70.17,-71.81 0.1,5.78 0,8.37 0,14l0 0.06c0.38,6.09 0.37,12.01 -0.02,17.74z"/>
   <path class="fil12" d="M1121.02 2289.9l0 0.1c-1.93,42.1 -24.62,74.28 -62.14,99.72 -2.63,1.79 -5.32,3.53 -8.07,5.23 -111.48,69.1 -312.87,68.06 -420.29,-3.46 -45.24,-30.12 -72.67,-68.93 -62.05,-131.63 75.19,138.86 347.19,157.29 482.34,70.73 30.96,-19.83 57.62,-40.72 70.21,-71.37 -0.14,7.9 -0.33,11.5 0,19.02 0.17,3.97 0.17,7.85 0,11.67z"/>
   <path class="fil12" d="M1124.11 2031.41c0,84.74 -125.5,153.44 -280.33,153.44 -154.81,0 -280.39,-68.7 -280.39,-153.44 0,-84.76 125.58,-153.47 280.39,-153.47 154.83,0 280.33,68.7 280.33,153.47z"/>
   <path class="fil7" d="M843.78 1921.37c-60.42,0 -117.15,11.37 -159.72,32.03 -41.22,19.98 -63.93,46.09 -63.93,73.46 0,27.39 22.71,53.48 63.93,73.48 42.57,20.64 99.3,32.03 159.72,32.03 60.44,0 117.17,-11.39 159.74,-32.03 41.21,-20 63.93,-46.09 63.93,-73.48 0,-27.37 -22.71,-53.48 -63.93,-73.46 -42.57,-20.66 -99.3,-32.03 -159.74,-32.03zm0 222.74c-62.2,0 -120.8,-11.78 -164.96,-33.21 -45.5,-22.08 -70.58,-51.91 -70.58,-84.04 0,-32.11 25.08,-61.93 70.58,-84.02 44.16,-21.43 102.76,-33.22 164.96,-33.22 62.22,0 120.79,11.79 164.96,33.22 45.5,22.08 70.56,51.91 70.56,84.02 0,32.13 -25.06,61.96 -70.56,84.04 -44.17,21.43 -102.75,33.21 -164.96,33.21z"/>
   <path class="fil7" d="M954.95 2025.22c3.45,19.22 2.73,39.44 -2.76,60.74l-57.64 0c5.66,-12.4 9.85,-25.17 12.68,-38.2 2.66,-12.3 3.37,-22.57 2.28,-31.03 -0.89,-6.74 -2.51,-11.54 -4.84,-14.54 -2.31,-2.94 -5.73,-4.39 -10.27,-4.39 -3.12,0 -5.68,1.06 -7.7,3.17 -2.04,2.13 -4.3,5.75 -6.8,10.9 -2.56,5.31 -5.71,12.68 -9.51,22.35 -4.6,11.41 -10.1,21.06 -16.46,28.7 -6.59,7.89 -14.13,13.81 -22.56,17.59 -8.56,3.84 -19.13,5.77 -31.64,5.77 -19.1,0 -32.98,-5.75 -41.31,-16.85 -7.95,-10.62 -10.57,-25.65 -8.28,-44.21l-33.67 0 8.06 -24.54 31.46 0c4.56,-14.29 12.22,-27.67 22.65,-40.24l35.39 11.06c-10.17,13.87 -16.44,27.3 -18.31,40.09 -0.94,6.38 -0.63,11 0.96,13.69 1.6,2.75 4.35,4.15 8.23,4.15 3.38,0 6.26,-1.02 8.67,-3 2.37,-1.96 5.07,-5.35 8.11,-10.06 2.98,-4.62 6.42,-10.85 10.26,-18.57 7.62,-14.76 15.51,-24.7 23.89,-30.46 8.12,-5.6 18.45,-8.35 31.17,-8.35 14.35,0 26.51,3.21 36.78,9.8 10.64,6.84 18.81,17.27 24.52,31.9l38.26 0 8.08 24.54 -39.7 0z"/>
   <path class="fil11" d="M636.29 2151.91l0 329.72 -12.16 -7.96c-38.5,-26.86 -58.28,-58.95 -58.28,-91.81l0.56 -312.4 69.88 82.45z"/>
   <path class="fil13" d="M1120.98 2346.65c0,0 0.02,8.31 0.04,13.85l0 0.26 -0.06 17.68 0 3.41c0,32.87 -19.67,64.95 -58.2,91.81l-11.96 7.96 0 -63.17c52.77,-35.94 70.17,-71.81 70.17,-71.81z"/>
   <path class="fil13" d="M1121.02 2278.23l0 11.76c-1.93,42.1 -24.62,74.28 -62.14,99.72 -2.63,1.79 -5.32,3.53 -8.07,5.23l0 -64.37c61.71,-37.93 70.21,-71.37 70.21,-71.37 0,0 -0.33,11.5 0,19.02z"/>
   <path class="fil13" d="M1121.08 2192.06l0 8.78 -0.04 6.34c-0.06,35.96 -24.2,69.12 -62.16,94.87 -2.63,1.79 -5.32,3.53 -8.07,5.22l0 -64.36c30.96,-19.85 57.64,-42.06 70.23,-72.71 0,8.85 0,13.83 0.04,21.85z"/>
   <path class="fil13" d="M1121.13 2106.41l0 4.72c-0.78,43.83 -23.68,77.09 -62.25,103.25 -2.63,1.8 -5.32,3.54 -8.07,5.24l0 -64.37c61.79,-39 70.24,-72.35 70.24,-72.35 0,0 -0.07,14.93 0.08,23.51z"/>
   <polygon class="fil11" points="661.82,2730.86 522.17,2839.9 282.37,2853.44 106.96,2730.86 106.96,2402.99 661.82,2402.99 "/>
   <path class="fil12" d="M661.92 2456.59l-0.02 4.71c-0.76,43.83 -23.66,77.09 -62.22,103.26 -2.64,1.79 -5.33,3.53 -8.08,5.23 -111.48,69.11 -312.87,68.06 -420.29,-3.46 -45.24,-30.11 -72.67,-68.94 -62.05,-131.63 75.19,138.86 347.17,157.29 482.34,70.73 30.96,-19.83 57.65,-41.68 70.25,-72.33 -0.02,10.1 -0.08,14.91 0.08,23.5z"/>
   <path class="fil12" d="M661.86 2551.01l0 0.04c-1.47,42.8 -24.24,75.43 -62.19,101.18 -2.64,1.79 -5.33,3.53 -8.08,5.23 -111.48,69.1 -312.87,68.06 -420.29,-3.46 -45.24,-30.12 -72.67,-68.93 -62.05,-131.63 75.19,138.85 347.17,157.29 482.34,70.73 30.96,-19.84 57.65,-42.04 70.23,-72.71 -0.03,9.38 -0.23,13.87 0.04,21.85l0 0.11c0.1,2.94 0.1,5.85 0,8.67z"/>
   <path class="fil12" d="M661.75 2728.64l0 0.02c-2.62,38.32 -22.26,69.28 -57.11,94.22 -4.2,2.99 -8.56,5.9 -13.05,8.67 -114.21,70.65 -319.87,68.4 -426.86,-7.72 -38.28,-27.21 -57.64,-58.94 -57.64,-91.81 0,-10.03 1.81,-20.15 5.42,-30.31 18.54,28.44 40.19,50.29 64.2,66.98 59.11,41.14 132.39,50.94 207.89,50.56 75.05,-0.39 148.26,-9.5 206.98,-50.62 25.89,-18.1 51.02,-39.27 70.17,-71.81 0.1,5.77 0,8.37 0,14l0 0.06c0.39,6.09 0.37,12.01 -0.01,17.76z"/>
   <path class="fil12" d="M661.8 2640.08l0 0.11c-1.94,42.1 -24.62,74.26 -62.13,99.72 -2.64,1.77 -5.33,3.53 -8.08,5.21 -111.48,69.11 -312.87,68.05 -420.29,-3.45 -45.24,-30.12 -72.67,-68.94 -62.05,-131.64 75.19,138.86 347.17,157.29 482.34,70.73 30.96,-19.82 57.63,-40.72 70.21,-71.38 -0.13,7.91 -0.32,11.5 0,19.03 0.18,3.97 0.18,7.87 0,11.67z"/>
   <path class="fil12" d="M664.9 2381.58c0,84.74 -125.51,153.45 -280.33,153.45 -154.82,0 -280.41,-68.7 -280.41,-153.45 0,-84.76 125.58,-153.47 280.41,-153.47 154.82,0 280.33,68.7 280.33,153.47z"/>
   <path class="fil7" d="M384.57 2271.55c-60.45,0 -117.18,11.39 -159.72,32.03 -41.22,20 -63.93,46.09 -63.93,73.48 0,27.37 22.71,53.48 63.93,73.46 42.55,20.66 99.27,32.03 159.72,32.03 60.43,0 117.16,-11.37 159.73,-32.03 41.22,-19.98 63.91,-46.09 63.91,-73.46 0,-27.39 -22.69,-53.48 -63.91,-73.48 -42.57,-20.64 -99.3,-32.03 -159.73,-32.03zm0 222.74c-62.23,0 -120.8,-11.78 -164.96,-33.21 -45.51,-22.08 -70.57,-51.92 -70.57,-84.02 0,-32.12 25.06,-61.96 70.57,-84.04 44.16,-21.43 102.74,-33.21 164.96,-33.21 62.2,0 120.79,11.78 164.95,33.21 45.51,22.07 70.57,51.92 70.57,84.04 0,32.11 -25.06,61.94 -70.57,84.02 -44.16,21.43 -102.74,33.21 -164.95,33.21z"/>
   <path class="fil7" d="M495.73 2375.39c3.46,19.22 2.74,39.44 -2.74,60.74l-57.65 0c5.65,-12.4 9.85,-25.17 12.66,-38.2 2.68,-12.3 3.39,-22.57 2.29,-31.04 -0.88,-6.74 -2.5,-11.53 -4.83,-14.51 -2.31,-2.94 -5.73,-4.41 -10.27,-4.41 -3.12,0 -5.68,1.05 -7.7,3.17 -2.04,2.14 -4.3,5.75 -6.8,10.9 -2.57,5.31 -5.72,12.69 -9.52,22.35 -4.6,11.43 -10.1,21.06 -16.46,28.71 -6.59,7.89 -14.13,13.81 -22.56,17.59 -8.55,3.84 -19.14,5.77 -31.65,5.77 -19.09,0 -32.98,-5.75 -41.31,-16.85 -7.96,-10.6 -10.56,-25.65 -8.27,-44.21l-33.69 0 8.08 -24.54 31.44 0c4.58,-14.27 12.24,-27.68 22.67,-40.24l35.39 11.06c-10.18,13.87 -16.44,27.29 -18.31,40.09 -0.93,6.38 -0.63,11 0.96,13.72 1.61,2.73 4.35,4.13 8.23,4.13 3.38,0 6.26,-1.02 8.65,-3 2.37,-1.97 5.09,-5.35 8.14,-10.07 2.98,-4.62 6.42,-10.85 10.25,-18.56 7.62,-14.75 15.51,-24.7 23.9,-30.47 8.12,-5.59 18.45,-8.35 31.17,-8.35 14.35,0 26.51,3.21 36.76,9.8 10.66,6.83 18.83,17.26 24.54,31.9l38.26 0 8.08 24.54 -39.71 0z"/>
   <path class="fil11" d="M176.04 2502.08l0 329.72 -11.65 -7.97c-38.51,-26.85 -58,-58.94 -58,-91.81l0.15 -312.38 69.5 82.43z"/>
   <path class="fil13" d="M661.76 2696.82c0,0 0.03,8.31 0.04,13.85l0 0.27 -0.05 17.7 0 3.39c0,32.87 -19.69,64.96 -58.2,91.81l-11.96 7.97 0 -63.17c52.78,-35.94 70.17,-71.81 70.17,-71.81z"/>
   <path class="fil13" d="M661.8 2628.41l0 11.78c-1.94,42.1 -24.62,74.26 -62.13,99.72 -2.64,1.77 -5.33,3.53 -8.08,5.21l0 -64.36c61.72,-37.93 70.21,-71.38 70.21,-71.38 0,0 -0.32,11.5 0,19.03z"/>
   <path class="fil13" d="M661.86 2542.23l0 8.78 -0.04 6.34c-0.06,35.96 -24.2,69.13 -62.15,94.87 -2.64,1.79 -5.33,3.53 -8.08,5.23l0 -64.37c30.96,-19.84 57.65,-42.04 70.23,-72.71 0,8.87 0,13.83 0.04,21.85z"/>
   <path class="fil13" d="M661.92 2456.59l-0.02 4.71c-0.76,43.83 -23.66,77.09 -62.22,103.26 -2.64,1.79 -5.33,3.53 -8.08,5.23l0 -64.36c61.77,-39 70.25,-72.33 70.25,-72.33 0,0 -0.08,14.91 0.08,23.5z"/>
   <path class="fil7" d="M776 2249.38c-74.93,0.55 -91.68,17.49 -91.34,92.4 -0.34,-74.91 -17.24,-91.6 -92.15,-91.06 74.91,-0.54 91.66,-17.5 91.33,-92.41 0.33,74.91 17.23,91.63 92.16,91.07z"/>
   <path class="fil7" d="M273.8 2680.07c-63.6,0.48 -77.81,14.86 -77.52,78.44 -0.29,-63.58 -14.65,-77.75 -78.24,-77.3 63.59,-0.46 77.82,-14.84 77.53,-78.44 0.29,63.6 14.63,77.77 78.23,77.29z"/>
   <path class="fil3" d="M1251.22 2785.58c1.62,-2.94 3.04,-5.9 4.2,-8.9 -5.54,-6.86 -12.32,-13.59 -20.23,-20.13l-573.41 -1664.59 -15.05 -53.25 -3.06 0.71 -2.54 -7.37 14.21 -4.89 604.69 1755.39 -8.82 3.04z"/>
   <path class="fil3" d="M632.13 1032.04l-594.19 1724.87c-10,8.35 -18.16,16.94 -24.28,25.79l-0.42 -0.16 604.7 -1755.39 14.19 4.89z"/>
   <polygon class="fil14" points="3988.95,2526.94 3849.29,2641.63 3609.51,2655.86 3434.08,2526.94 3434.08,2182.07 3988.95,2182.07 "/>
   <path class="fil15" d="M3989.04 2259.02l0 4.7c-0.78,43.84 -23.69,77.11 -62.25,103.27 -2.63,1.8 -5.32,3.54 -8.08,5.24 -111.48,69.08 -312.87,68.03 -420.29,-3.48 -45.24,-30.12 -72.67,-68.93 -62.05,-131.63 75.19,138.85 347.19,157.31 482.34,70.75 30.96,-19.83 57.65,-41.7 70.25,-72.35 -0.01,10.1 -0.07,14.91 0.08,23.51z"/>
   <path class="fil16" d="M3988.99 2353.45l0 0.02c-1.48,42.82 -24.24,75.45 -62.2,101.19 -2.63,1.8 -5.32,3.53 -8.08,5.23 -111.48,69.1 -312.87,68.04 -420.29,-3.48 -45.24,-30.1 -72.67,-68.93 -62.05,-131.63 75.19,138.87 347.19,157.3 482.34,70.73 30.96,-19.83 57.65,-42.04 70.24,-72.69 -0.04,9.38 -0.23,13.85 0.04,21.83l0 0.11c0.09,2.96 0.09,5.85 0,8.69z"/>
   <path class="fil17" d="M3988.87 2531.06l0 0.04c-2.62,38.31 -22.25,69.26 -57.09,94.2 -4.2,3 -8.56,5.9 -13.07,8.69 -114.21,70.65 -319.87,68.4 -426.86,-7.72 -38.25,-27.24 -57.64,-58.94 -57.64,-91.81 0,-10.03 1.81,-20.17 5.43,-30.32 18.52,28.43 40.19,50.3 64.19,66.97 59.11,41.14 132.42,50.94 207.9,50.56 75.05,-0.37 148.27,-9.49 206.98,-50.59 25.88,-18.12 51.02,-39.27 70.18,-71.81 0.1,5.77 0,8.37 0,13.98l0 0.08c0.38,6.09 0.36,11.99 -0.02,17.74z"/>
   <path class="fil18" d="M3988.93 2442.52l0 0.09c-1.93,42.09 -24.62,74.26 -62.14,99.72 -2.63,1.8 -5.32,3.54 -8.08,5.24 -111.48,69.11 -312.87,68.05 -420.29,-3.46 -45.24,-30.12 -72.67,-68.94 -62.05,-131.65 75.19,138.87 347.19,157.31 482.34,70.75 30.96,-19.85 57.63,-40.72 70.22,-71.39 -0.14,7.9 -0.33,11.52 0,19.02 0.17,3.97 0.17,7.87 0,11.69z"/>
   <path class="fil14" d="M3504.19 2304.52l0 329.7 -12.16 -7.95c-38.51,-26.85 -58.28,-58.94 -58.28,-91.81l0.55 -312.4 69.89 82.45z"/>
   <path class="fil19" d="M3988.89 2499.26c0,0 0.02,8.28 0.04,13.85l0 0.25 -0.06 17.7 0 3.4c0,32.87 -19.67,64.95 -58.2,91.81l-11.96 7.97 0 -63.17c52.78,-35.94 70.18,-71.81 70.18,-71.81z"/>
   <path class="fil19" d="M3988.93 2430.83l0 11.78c-1.93,42.09 -24.62,74.26 -62.14,99.72 -2.63,1.8 -5.32,3.54 -8.08,5.24l0 -64.37c61.71,-37.93 70.22,-71.39 70.22,-71.39 0,0 -0.33,11.52 0,19.02z"/>
   <path class="fil19" d="M3988.99 2344.65l0 8.8 -0.04 6.32c-0.06,35.97 -24.2,69.15 -62.16,94.89 -2.63,1.8 -5.32,3.53 -8.08,5.23l0 -64.38c30.96,-19.83 57.65,-42.04 70.24,-72.69 0,8.84 0,13.83 0.04,21.83z"/>
   <path class="fil19" d="M3989.04 2259.02l0 4.7c-0.78,43.84 -23.69,77.11 -62.25,103.27 -2.63,1.8 -5.32,3.54 -8.08,5.24l0 -64.36c61.79,-39.01 70.25,-72.35 70.25,-72.35 0,0 -0.07,14.91 0.08,23.51z"/>
   <polygon class="fil14" points="3988.95,2181.63 3849.29,2290.67 3609.51,2304.21 3434.08,2181.63 3434.08,1853.77 3988.95,1853.77 "/>
   <path class="fil20" d="M3989.04 1907.36l0 4.72c-0.78,43.83 -23.69,77.09 -62.25,103.25 -2.63,1.8 -5.32,3.54 -8.08,5.24 -111.48,69.1 -312.87,68.05 -420.29,-3.46 -45.24,-30.12 -72.67,-68.94 -62.05,-131.63 75.19,138.85 347.19,157.29 482.34,70.73 30.96,-19.83 57.65,-41.68 70.25,-72.35 -0.01,10.1 -0.07,14.93 0.08,23.51z"/>
   <path class="fil21" d="M3988.99 2001.79l0 0.04c-1.48,42.8 -24.24,75.42 -62.2,101.18 -2.63,1.79 -5.32,3.53 -8.08,5.22 -111.48,69.11 -312.87,68.06 -420.29,-3.45 -45.24,-30.12 -72.67,-68.95 -62.05,-131.64 75.19,138.86 347.19,157.29 482.34,70.73 30.96,-19.85 57.65,-42.06 70.24,-72.71 -0.04,9.38 -0.23,13.87 0.04,21.85l0 0.11c0.09,2.94 0.09,5.84 0,8.67z"/>
   <path class="fil22" d="M3988.87 2179.39l0 0.04c-2.62,38.31 -22.25,69.28 -57.09,94.2 -4.2,3.02 -8.56,5.92 -13.07,8.69 -114.21,70.65 -319.87,68.39 -426.86,-7.71 -38.25,-27.22 -57.64,-58.95 -57.64,-91.81 0,-10.03 1.81,-20.15 5.43,-30.31 18.52,28.44 40.19,50.29 64.19,66.98 59.11,41.14 132.42,50.94 207.9,50.56 75.05,-0.38 148.27,-9.51 206.98,-50.61 25.88,-18.12 51.02,-39.27 70.18,-71.81 0.1,5.78 0,8.37 0,14l0 0.06c0.38,6.09 0.36,12.01 -0.02,17.74z"/>
   <path class="fil23" d="M3988.93 2090.85l0 0.1c-1.93,42.1 -24.62,74.28 -62.14,99.72 -2.63,1.79 -5.32,3.53 -8.08,5.23 -111.48,69.1 -312.87,68.06 -420.29,-3.46 -45.24,-30.12 -72.67,-68.93 -62.05,-131.63 75.19,138.86 347.19,157.29 482.34,70.73 30.96,-19.83 57.63,-40.72 70.22,-71.37 -0.14,7.9 -0.33,11.5 0,19.02 0.17,3.97 0.17,7.85 0,11.67z"/>
   <path class="fil24" d="M3992.02 1832.36c0,84.74 -125.5,153.44 -280.33,153.44 -154.81,0 -280.39,-68.7 -280.39,-153.44 0,-84.76 125.58,-153.47 280.39,-153.47 154.83,0 280.33,68.7 280.33,153.47z"/>
   <path class="fil25" d="M3711.69 1722.32c-60.42,0 -117.15,11.37 -159.72,32.03 -41.22,19.98 -63.93,46.09 -63.93,73.46 0,27.39 22.71,53.48 63.93,73.48 42.57,20.64 99.3,32.03 159.72,32.03 60.44,0 117.17,-11.39 159.74,-32.03 41.22,-20 63.93,-46.09 63.93,-73.48 0,-27.37 -22.71,-53.48 -63.93,-73.46 -42.57,-20.66 -99.3,-32.03 -159.74,-32.03zm0 222.74c-62.2,0 -120.8,-11.78 -164.96,-33.21 -45.5,-22.08 -70.58,-51.91 -70.58,-84.04 0,-32.11 25.08,-61.93 70.58,-84.02 44.16,-21.43 102.76,-33.22 164.96,-33.22 62.22,0 120.79,11.79 164.96,33.22 45.5,22.08 70.56,51.91 70.56,84.02 0,32.13 -25.06,61.96 -70.56,84.04 -44.17,21.43 -102.75,33.21 -164.96,33.21z"/>
   <path class="fil25" d="M3822.86 1826.17c3.45,19.22 2.72,39.44 -2.76,60.74l-57.64 0c5.66,-12.4 9.85,-25.18 12.68,-38.2 2.65,-12.3 3.37,-22.58 2.28,-31.03 -0.88,-6.74 -2.5,-11.54 -4.83,-14.54 -2.31,-2.94 -5.73,-4.39 -10.27,-4.39 -3.12,0 -5.68,1.06 -7.7,3.17 -2.04,2.13 -4.3,5.75 -6.8,10.9 -2.56,5.31 -5.71,12.68 -9.51,22.35 -4.6,11.4 -10.11,21.06 -16.46,28.7 -6.59,7.89 -14.13,13.81 -22.56,17.59 -8.56,3.84 -19.13,5.77 -31.65,5.77 -19.1,0 -32.98,-5.75 -41.31,-16.85 -7.94,-10.62 -10.56,-25.65 -8.27,-44.21l-33.67 0 8.06 -24.54 31.46 0c4.56,-14.29 12.22,-27.67 22.65,-40.24l35.39 11.06c-10.17,13.87 -16.44,27.3 -18.31,40.09 -0.94,6.38 -0.63,11 0.96,13.7 1.6,2.75 4.35,4.15 8.23,4.15 3.38,0 6.26,-1.02 8.67,-3 2.37,-1.96 5.08,-5.35 8.12,-10.06 2.98,-4.62 6.42,-10.85 10.26,-18.57 7.62,-14.76 15.51,-24.7 23.89,-30.46 8.12,-5.6 18.45,-8.35 31.17,-8.35 14.35,0 26.52,3.21 36.79,9.8 10.64,6.84 18.81,17.27 24.52,31.9l38.26 0 8.08 24.54 -39.7 0z"/>
   <path class="fil14" d="M3504.19 1952.85l0 329.72 -12.16 -7.96c-38.51,-26.86 -58.28,-58.95 -58.28,-91.81l0.55 -312.4 69.89 82.45z"/>
   <path class="fil19" d="M3988.89 2147.59c0,0 0.02,8.31 0.04,13.85l0 0.27 -0.06 17.68 0 3.41c0,32.87 -19.67,64.95 -58.2,91.81l-11.96 7.96 0 -63.17c52.78,-35.94 70.18,-71.81 70.18,-71.81z"/>
   <path class="fil19" d="M3988.93 2079.18l0 11.76c-1.93,42.1 -24.62,74.28 -62.14,99.72 -2.63,1.79 -5.32,3.53 -8.08,5.23l0 -64.37c61.71,-37.93 70.22,-71.37 70.22,-71.37 0,0 -0.33,11.5 0,19.02z"/>
   <path class="fil19" d="M3988.99 1993.01l0 8.78 -0.04 6.34c-0.06,35.96 -24.2,69.12 -62.16,94.87 -2.63,1.79 -5.32,3.53 -8.08,5.22l0 -64.36c30.96,-19.85 57.65,-42.06 70.24,-72.71 0,8.85 0,13.83 0.04,21.85z"/>
   <path class="fil19" d="M3989.04 1907.36l0 4.72c-0.78,43.83 -23.69,77.09 -62.25,103.25 -2.63,1.8 -5.32,3.54 -8.08,5.24l0 -64.37c61.79,-39 70.25,-72.35 70.25,-72.35 0,0 -0.07,14.93 0.08,23.51z"/>
   <polygon class="fil14" points="3529.73,2531.81 3390.07,2640.85 3150.28,2654.39 2974.87,2531.81 2974.87,2203.94 3529.73,2203.94 "/>
   <path class="fil26" d="M3529.83 2257.54l-0.02 4.72c-0.76,43.83 -23.66,77.09 -62.23,103.26 -2.63,1.79 -5.33,3.53 -8.08,5.23 -111.48,69.11 -312.87,68.05 -420.29,-3.46 -45.24,-30.11 -72.67,-68.94 -62.06,-131.63 75.2,138.86 347.17,157.29 482.34,70.73 30.96,-19.83 57.65,-41.68 70.25,-72.33 -0.02,10.1 -0.08,14.91 0.08,23.49z"/>
   <path class="fil27" d="M3529.77 2351.96l0 0.04c-1.47,42.8 -24.24,75.43 -62.19,101.18 -2.63,1.79 -5.33,3.53 -8.08,5.23 -111.48,69.1 -312.87,68.05 -420.29,-3.46 -45.24,-30.12 -72.67,-68.93 -62.06,-131.63 75.2,138.85 347.17,157.29 482.34,70.73 30.96,-19.84 57.65,-42.04 70.23,-72.71 -0.03,9.38 -0.23,13.87 0.04,21.85l0 0.11c0.1,2.94 0.1,5.85 0,8.67z"/>
   <path class="fil28" d="M3529.66 2529.59l0 0.02c-2.62,38.32 -22.26,69.28 -57.11,94.22 -4.2,2.99 -8.56,5.9 -13.05,8.67 -114.21,70.65 -319.88,68.4 -426.86,-7.72 -38.28,-27.21 -57.64,-58.94 -57.64,-91.81 0,-10.03 1.81,-20.15 5.42,-30.31 18.53,28.44 40.19,50.29 64.2,66.98 59.11,41.14 132.39,50.94 207.89,50.56 75.05,-0.39 148.26,-9.5 206.98,-50.62 25.89,-18.1 51.02,-39.27 70.17,-71.81 0.1,5.77 0,8.37 0,14l0 0.06c0.39,6.09 0.37,12.01 -0.01,17.76z"/>
   <path class="fil29" d="M3529.71 2441.03l0 0.11c-1.94,42.1 -24.62,74.26 -62.13,99.72 -2.63,1.77 -5.33,3.53 -8.08,5.21 -111.48,69.11 -312.87,68.05 -420.29,-3.45 -45.24,-30.12 -72.67,-68.94 -62.06,-131.64 75.2,138.86 347.17,157.29 482.34,70.73 30.96,-19.82 57.63,-40.72 70.21,-71.38 -0.13,7.91 -0.33,11.5 0,19.03 0.18,3.97 0.18,7.87 0,11.67z"/>
   <path class="fil24" d="M3532.81 2182.53c0,84.74 -125.51,153.45 -280.33,153.45 -154.82,0 -280.4,-68.7 -280.4,-153.45 0,-84.76 125.58,-153.47 280.4,-153.47 154.82,0 280.33,68.7 280.33,153.47z"/>
   <path class="fil25" d="M3252.48 2072.5c-60.45,0 -117.17,11.39 -159.72,32.03 -41.22,20 -63.93,46.09 -63.93,73.48 0,27.37 22.71,53.48 63.93,73.46 42.55,20.66 99.28,32.03 159.72,32.03 60.43,0 117.17,-11.37 159.73,-32.03 41.22,-19.98 63.91,-46.09 63.91,-73.46 0,-27.39 -22.69,-53.48 -63.91,-73.48 -42.57,-20.64 -99.3,-32.03 -159.73,-32.03zm0 222.74c-62.22,0 -120.8,-11.78 -164.96,-33.21 -45.51,-22.08 -70.57,-51.92 -70.57,-84.02 0,-32.12 25.06,-61.96 70.57,-84.04 44.17,-21.43 102.74,-33.21 164.96,-33.21 62.21,0 120.79,11.78 164.95,33.21 45.51,22.07 70.57,51.92 70.57,84.04 0,32.11 -25.06,61.94 -70.57,84.02 -44.16,21.43 -102.74,33.21 -164.95,33.21z"/>
   <path class="fil25" d="M3363.64 2176.34c3.46,19.22 2.74,39.44 -2.75,60.74l-57.64 0c5.65,-12.4 9.85,-25.17 12.66,-38.2 2.67,-12.3 3.39,-22.57 2.29,-31.04 -0.88,-6.74 -2.5,-11.53 -4.83,-14.51 -2.31,-2.94 -5.73,-4.41 -10.27,-4.41 -3.12,0 -5.68,1.05 -7.7,3.17 -2.05,2.14 -4.3,5.75 -6.8,10.9 -2.56,5.31 -5.71,12.69 -9.52,22.35 -4.6,11.43 -10.1,21.06 -16.46,28.71 -6.59,7.89 -14.13,13.81 -22.56,17.59 -8.56,3.84 -19.14,5.77 -31.65,5.77 -19.09,0 -32.98,-5.75 -41.31,-16.85 -7.96,-10.6 -10.56,-25.65 -8.27,-44.21l-33.7 0 8.09 -24.54 31.44 0c4.58,-14.27 12.24,-27.68 22.67,-40.24l35.39 11.06c-10.18,13.87 -16.44,27.29 -18.32,40.09 -0.93,6.38 -0.62,11 0.96,13.71 1.61,2.74 4.35,4.13 8.24,4.13 3.38,0 6.26,-1.02 8.65,-3 2.37,-1.96 5.1,-5.34 8.14,-10.06 2.98,-4.62 6.42,-10.85 10.26,-18.57 7.62,-14.74 15.51,-24.7 23.9,-30.46 8.11,-5.59 18.44,-8.35 31.17,-8.35 14.35,0 26.51,3.21 36.77,9.8 10.66,6.83 18.83,17.26 24.54,31.9l38.26 0 8.08 24.54 -39.71 0z"/>
   <path class="fil14" d="M3043.95 2303.03l0 329.72 -11.65 -7.97c-38.51,-26.85 -58,-58.94 -58,-91.81l0.15 -312.38 69.5 82.43z"/>
   <path class="fil30" d="M3529.67 2497.77c0,0 0.03,8.31 0.04,13.85l0 0.27 -0.05 17.7 0 3.39c0,32.87 -19.69,64.95 -58.2,91.81l-11.96 7.97 0 -63.17c52.78,-35.94 70.17,-71.81 70.17,-71.81z"/>
   <path class="fil19" d="M3529.71 2429.35l0 11.78c-1.94,42.1 -24.62,74.26 -62.13,99.72 -2.63,1.77 -5.33,3.53 -8.08,5.21l0 -64.36c61.71,-37.93 70.21,-71.38 70.21,-71.38 0,0 -0.33,11.5 0,19.03z"/>
   <path class="fil19" d="M3529.77 2343.18l0 8.78 -0.04 6.34c-0.06,35.96 -24.2,69.13 -62.15,94.87 -2.63,1.79 -5.33,3.53 -8.08,5.23l0 -64.37c30.96,-19.84 57.65,-42.04 70.23,-72.71 0,8.87 0,13.83 0.04,21.85z"/>
   <path class="fil19" d="M3529.83 2257.54l-0.02 4.72c-0.76,43.83 -23.66,77.09 -62.23,103.26 -2.63,1.79 -5.33,3.53 -8.08,5.23l0 -64.36c61.77,-39 70.25,-72.33 70.25,-72.33 0,0 -0.08,14.91 0.08,23.49z"/>
   <path class="fil7" d="M3643.91 2050.32c-74.93,0.56 -91.68,17.49 -91.34,92.4 -0.34,-74.91 -17.24,-91.6 -92.15,-91.07 74.91,-0.53 91.66,-17.5 91.33,-92.41 0.33,74.91 17.23,91.63 92.16,91.07z"/>
   <path class="fil7" d="M3141.7 2481.02c-63.6,0.48 -77.81,14.86 -77.52,78.44 -0.29,-63.58 -14.65,-77.75 -78.24,-77.3 63.59,-0.45 77.82,-14.83 77.52,-78.43 0.3,63.6 14.63,77.77 78.24,77.29z"/>
  </g>
 </g>
</svg>
