<?xml version="1.0" encoding="UTF-8"?>
<!DOCTYPE svg PUBLIC "-//W3C//DTD SVG 1.1//EN" "http://www.w3.org/Graphics/SVG/1.1/DTD/svg11.dtd">
<!-- Creator: CorelDRAW 2019 (64-Bit) -->
<svg xmlns="http://www.w3.org/2000/svg" xml:space="preserve" width="6.78903in" height="1.12044in" version="1.1" style="shape-rendering:geometricPrecision; text-rendering:geometricPrecision; image-rendering:optimizeQuality; fill-rule:evenodd; clip-rule:evenodd"
viewBox="0 0 1173.55 193.68"
 xmlns:xlink="http://www.w3.org/1999/xlink">
 <defs>
  <style type="text/css">
   <![CDATA[
    .fil3 {fill:none}
    .fil0 {fill:#029CB3}
    .fil1 {fill:white}
    .fil2 {fill:white}
   ]]>
  </style>
   <clipPath id="id0">
    <path d="M-0 0l1173.55 0 0 193.68 -1173.55 0 0 -193.68z"/>
   </clipPath>
 </defs>
 <g id="Layer_x0020_1">
  <metadata id="CorelCorpID_0Corel-Layer"/>
  <g>
  </g>
  <g style="clip-path:url(#id0)">
   <g>
    <path class="fil0" d="M122.24 124.25c6.02,-1.62 3.23,-1.76 8.3,-4.84 -0.44,-10.57 -13.63,-25.64 3.63,-46.45 9.12,-11 28.03,-18.18 45.4,-8.1 33.41,19.39 17.68,71.5 -18.68,67.29 -0.02,-16.71 1.57,-7.69 13.21,-14.5 4.91,-2.87 8.06,-7 9.78,-11.14 5.29,-12.71 -0.86,-23.98 -8.35,-29.43 -20.86,-15.2 -46.58,7.34 -35.57,30.21 15,-4.46 3.8,-20.5 19.54,-21.97 12.6,-1.18 18.85,14.85 8.62,21.59 -6.86,4.52 -7.29,-0.45 -14.77,6.21 -3.48,3.1 -7.22,6.88 -10.61,10.35 -5.49,5.63 -14.66,17.24 -22.12,19.73 -19.17,-17.53 -26.33,-53.3 -10.65,-78.34 35.63,-56.88 124.95,-23.21 110.73,44.84 -5.49,26.27 -29.12,49.84 -59.67,47.84l-0.19 -11.07c7.54,-2.96 36.8,-3.38 46.93,-33.65 9.19,-27.46 -6.6,-48.92 -21.37,-57.83 -44.41,-26.79 -95.04,27.86 -64.18,69.28l0 0zm-1.8 -113.62c-13.18,3.14 -16.15,11.77 -22.51,22.82 -41.59,72.25 -44.35,51.56 -3.9,120.25 5.1,8.66 11.1,22.24 19.59,27.12 7.29,4.19 76.79,4.35 89.09,2.5 14.75,-2.22 29.09,-34.84 39.26,-52.37 18.7,-32.25 22.99,-28.7 2.72,-63.42 -6.61,-11.33 -26.14,-50.24 -36.48,-55.32 -6.96,-3.42 -78.29,-3.83 -87.77,-1.58l0 0z"/>
    <path class="fil1" d="M122.24 124.25c-30.87,-41.42 19.76,-96.07 64.18,-69.28 14.77,8.91 30.55,30.37 21.37,57.83 -10.13,30.28 -39.39,30.69 -46.93,33.65l0.19 11.07c30.54,2.01 54.18,-21.56 59.67,-47.84 14.22,-68.05 -75.1,-101.72 -110.73,-44.84 -15.69,25.04 -8.52,60.81 10.65,78.34 7.46,-2.49 16.62,-14.1 22.12,-19.73 3.39,-3.47 7.12,-7.25 10.61,-10.35 7.48,-6.66 7.91,-1.68 14.77,-6.21 10.23,-6.74 3.98,-22.77 -8.62,-21.59 -15.73,1.47 -4.53,17.51 -19.54,21.97 -11.01,-22.87 14.71,-45.41 35.57,-30.21 7.48,5.45 13.64,16.73 8.35,29.44 -1.72,4.14 -4.88,8.27 -9.78,11.14 -11.64,6.81 -13.22,-2.21 -13.21,14.5 36.36,4.21 52.09,-47.9 18.68,-67.29 -17.37,-10.08 -36.28,-2.91 -45.4,8.1 -17.26,20.81 -4.07,35.88 -3.63,46.45 -5.07,3.08 -2.28,3.22 -8.3,4.84l-0 0z"/>
    <path class="fil2" d="M687.6 70.69c14.14,-0.31 47.62,-3.42 57.39,3.57l-0.23 16.5c-8.98,7.7 -42.5,4.45 -57.61,4.15l0.45 -24.22 0 -0zm43.78 38.22c22.91,0.2 32.2,-4.77 32.18,-26.89 -0.02,-24.22 -10.89,-26.79 -33.77,-26.86 -12.41,-0.04 -51.31,-2.67 -59.43,1.09 -2.82,2.45 -1.6,34.34 -1.6,38.66 0,13.36 -0.21,26.89 0.01,40.63l17.86 0.05 0.09 -27.45c5.69,0.73 26.35,14.81 32.21,18.47 19.53,12.18 15.95,8.9 42.21,9.31l-39.07 -26.01c-0.16,-0.62 -0.61,-0.69 -0.89,-1.08l10.19 0.09 0 0z"/>
    <path class="fil2" d="M290.34 71.26c11.61,-1.31 29.29,-0.56 41.49,-0.46 19.93,0.15 16.63,7.28 16.66,25.71 0.03,18.9 2.34,24.19 -18.3,24.17 -11.85,-0.01 -28.68,0.89 -40.29,-0.53l0.45 -48.89 0 0zm-17.38 64.66c18.61,1.37 47.88,1.02 66.8,0.2 28.58,-1.24 26.23,-15.88 26.23,-41.22 0.01,-26.89 0.77,-38.9 -27.74,-39.71 -19.15,-0.55 -46.69,-1.21 -66.02,0.24l0.72 80.49 0 0z"/>
    <path class="fil2" d="M494.11 120.83c-1.03,-10.75 -3.85,-30.88 7.11,-33.42 7.06,-1.64 33.15,-1.81 37.44,2.21 4.35,4.08 7.03,27.93 -4.24,30.75 -5.88,1.48 -32.51,0.56 -40.31,0.46l0 0zm-0.29 15.34c19.23,-0.07 54.81,4.88 62.95,-11.03 0.05,-0.09 15.03,-48.15 -17.28,-52.64 -18.79,-2.61 -54.9,-4.25 -61.54,12.13 -3.46,8.54 -3.71,59.52 -1.77,70.74l17.38 -0.42 0.26 -18.79 0 0z"/>
    <path class="fil2" d="M589.82 120.36c-2.24,-29.13 -0.65,-33.43 15.86,-33.42 12.66,0.01 26.61,-2.15 30.9,4.64 2.89,5.48 2.74,18.86 0.23,24.57 -4.8,8.29 -36.78,4.77 -46.99,4.21l0 0zm0.5 15.84c20.28,-0.16 54.9,5.25 63.15,-11.29 1.84,-3.68 13.44,-48.37 -17.22,-52.42 -20.3,-2.68 -54.46,-4.09 -61.8,12.23 -3.3,7.33 -3.13,60.16 -1.55,70.7l17.11 -0.61 0.31 -18.61 0 0z"/>
    <path class="fil2" d="M889.97 116.9c-7.55,-33.29 7.31,-33.37 47.22,-29.54 1.39,10.53 3.98,30.99 -7.73,33.28 -12,2.35 -32.17,1.42 -39.48,-3.74l-0 0zm47.46 -45.25c-36.72,3.18 -73.95,-13.93 -65.41,45.83 1.44,10.06 7.49,16.2 18.85,17.76 20.87,2.86 55.2,3.85 62.36,-11.62 3.53,-7.63 2.6,-60.45 1.84,-71.83l-17.17 -0.46 -0.46 20.31 0 0z"/>
    <path class="fil2" d="M800.67 123.8c-7.45,0 -12.14,-0.41 -11.34,-9.44 0.69,-7.84 5.35,-7.29 12.84,-7.3 11.68,-0.03 27.72,-0.69 39.28,0.7l-1.82 13.24c-8.76,4.34 -26.87,2.8 -38.97,2.81l0 0zm14.5 11.98c34.27,0.02 43.69,3.09 43.75,-32.82 0.04,-29.34 -9.68,-33.4 -45.84,-30.62l1.07 12.14c12.24,0.52 28.47,-4.2 26.27,11.36 -16.47,1.09 -60.18,-5.18 -66.89,8.78 -4.9,10.19 -1.67,24.73 6.69,28.77 8.98,4.34 23.86,2.39 34.95,2.4l0 -0z"/>
    <path class="fil2" d="M410.67 107.13c11.41,0.14 22.89,-0.37 34.57,0.33l-1.25 12.84c-9.45,5.73 -43.28,4.25 -49.16,1.72 -5.3,-14.14 2.51,-15.05 15.84,-14.89l0 0zm52.29 -5.79c-0.01,-13.12 -0.9,-21.79 -11.2,-26.52 -8.62,-3.96 -24.45,-3.59 -34.58,-2.26l0.79 11.79c12.78,1.02 28.24,-3.98 27.08,11.09 -17.7,3.29 -60.06,-5.35 -67.1,8.59 -5.07,10.05 -2.08,25.83 7,29.71 8.69,3.71 25.07,2.03 35.4,2.04 35.4,0.02 42.61,2.42 42.6,-34.44l0 -0z"/>
    <path class="fil2" d="M997.27 123.79c-8.07,-0 -12.95,1.28 -13.16,-7.95 -0.19,-8.53 3.55,-8.68 11.4,-8.8 12.43,-0.2 28.58,-0.46 41.17,0.54l-1.9 13.54c-9.32,4.83 -26.09,2.69 -37.51,2.67l0 0zm12.89 11.99c33.39,0.01 43.56,2.87 43.59,-32.82 0.03,-33.12 -14.4,-32.37 -45.58,-30.77l0.06 11.85c11.57,0.55 29.09,-4.04 28.23,11.37 -17.86,3.4 -61.13,-6.21 -68.19,9.23 -4.61,10.09 -1.62,24.87 6.41,28.81 7.95,3.9 26.1,2.31 35.49,2.31l0 0z"/>
    <path class="fil2" d="M1084.14 135.19c0.81,-51.84 -5.92,-48.26 24.12,-48.99l0.13 -14.07c-50.41,-2.12 -42.78,17.84 -42,63.66l17.75 -0.6z"/>
   </g>
  </g>
  <polygon class="fil3" points="-0,0 1173.55,0 1173.55,193.68 -0,193.68 "/>
 </g>
</svg>
