<?xml version="1.0" encoding="UTF-8"?>
<!DOCTYPE svg PUBLIC "-//W3C//DTD SVG 1.1//EN" "http://www.w3.org/Graphics/SVG/1.1/DTD/svg11.dtd">
<!-- Creator: CorelDRAW 2019 (64-Bit) -->
<svg xmlns="http://www.w3.org/2000/svg" xml:space="preserve" width="6.29065in" height="1.12044in" version="1.1" style="shape-rendering:geometricPrecision; text-rendering:geometricPrecision; image-rendering:optimizeQuality; fill-rule:evenodd; clip-rule:evenodd"
viewBox="0 0 994.95 177.21"
 xmlns:xlink="http://www.w3.org/1999/xlink">
 <defs>
  <style type="text/css">
   <![CDATA[
    .fil0 {fill:none}
    .fil1 {fill:white}
   ]]>
  </style>
 </defs>
 <g id="Layer_x0020_1">
  <metadata id="CorelCorpID_0Corel-Layer"/>
  <g id="_2441582872752">
   <polygon class="fil0" points="-0,0 994.95,0 994.95,177.21 -0,177.21 "/>
   <g>
    <path class="fil1" d="M28.89 75.07l15.04 18.9c25.81,34.67 25.25,45.13 46.06,45.6l0 -105.24 -23.76 0 0 64.5c-9.4,-6.29 -20.24,-24.74 -28.61,-35.89 -22.14,-29.49 -15.03,-28.61 -35.89,-28.61l0 105.24 27.16 0 0 -64.5 0 0z"/>
    <path class="fil1" d="M426.09 78.47c42.39,-1.02 37.34,-14.99 37.34,61.11l23.76 0 0 -61.11c42.34,-0.94 37.34,-15.18 37.34,61.11l23.76 0 0 -50.92c0,-38.69 -66.36,-19.04 -70.79,-19.11 -12.21,-0.19 -12.73,-4.65 -27.67,-4.65 -19.48,0 -25.77,3.39 -47.53,3.39l0 71.29 23.76 0 0 -61.11 -0 0z"/>
    <path class="fil1" d="M585.65 98.84c0.28,-12.49 3.46,-24.02 23.36,-23.01 14.37,0.73 20.39,5.79 20.77,23.01l-44.13 0 0 0zm20.37 30.55c-15.08,0 -17.51,-4.68 -20.37,-16.97l67.9 0 0 -20.37c0,-26.64 -39.21,-36.15 -74.45,-23.52 -21.93,7.86 -17.22,13.54 -17.22,50.68 0,25.71 79.97,34.48 88.27,3.39 -21.34,-10.24 -5.58,6.79 -44.13,6.79l0 0z"/>
    <path class="fil1" d="M324.25 92.05c0,-15.32 25.34,-20.46 35.69,-12.19 9.86,7.88 8.44,29.64 8.44,46.14 -21.05,4.9 -19.69,4.9 -40.74,0l-3.4 -33.95 0 0zm-23.76 27.16c0,30.28 67.73,20.37 91.66,20.37l0 -44.13c0,-30.32 -38.47,-39.8 -74.44,-26.92 -21.93,7.86 -17.22,13.54 -17.22,50.68l-0 0z"/>
    <path class="fil1" d="M127.34 92.05c0,-15.29 22.7,-20.32 34.85,-11.34 13.59,10.04 9.28,23.8 9.28,45.29 -48.45,11.29 -44.13,-3.45 -44.13,-33.95l0 0zm67.9 3.39c0,-41.93 -103.13,-51.95 -93.47,15.14 5.99,41.57 33.52,28.99 93.47,28.99l0 -44.13z"/>
    <path class="fil1" d="M914.96 122.6c-21.12,-10.13 -5.32,6.79 -40.74,6.79 -34.44,0 -22.27,-54.32 -3.39,-54.32 28.51,0 22.01,11.94 44.13,6.79 -5.75,-21.53 -43.83,-19.79 -51.67,-18.01 -25.07,5.68 -35.39,10.9 -36.12,38.69 -0.71,27.05 10.93,34.57 35.88,38.31 8.12,1.22 34.89,0.71 44.44,-5.36 8.41,-5.35 6.19,-1.07 7.48,-12.89l0 -0z"/>
    <path class="fil1" d="M948.9 81.86c4.51,-5.09 26.83,-3.39 37.34,-3.39l0 -10.18c-15.35,-0.34 -13.49,-3.39 -30.55,-3.39 -41.62,0 -42.84,46.51 10.18,50.92 -2.1,25.24 -14.57,7.48 -40.74,13.58l0 6.79c12.15,2.83 15.95,6.79 30.55,6.79 26.36,0 51.4,-16.1 28.61,-38.79 -17.87,-17.8 -29.85,-1.52 -35.4,-22.31l0 -0z"/>
    <path class="fil1" d="M660.34 78.47l13.58 0 0 61.11 23.76 0 0 -61.11 20.37 0 0 -10.18 -20.37 0c0,-37.5 3.7,-33.95 -23.76,-33.95l0 33.95 -13.58 0 0 10.18z"/>
    <path class="fil1" d="M266.53 92.05c0,-14.11 15.49,-16.97 30.55,-16.97 -2.49,-29.87 -16.62,-0.35 -57.71,-10.19l0 74.69 27.16 0 0 -47.53 0 -0z"/>
    <path class="fil1" d="M752 92.05c0,-13.59 16.72,-16.67 30.55,-16.97 -2.47,-29.71 -18.37,-0.65 -54.32,-10.19l0 74.69 23.76 0 0 -47.53 0 -0z"/>
    <path class="fil1" d="M792.74 139.57l23.76 0 0 -71.29c-14.92,-0.33 -10.58,-2.3 -23.76,-3.4l0 74.69 0 0z"/>
    <path class="fil1" d="M205.43 139.57l23.76 0 0 -71.29c-13.4,0 -13.78,-1.07 -23.76,-3.4l0 74.69 0 0z"/>
    <path class="fil1" d="M202.03 47.91c0,23.92 47.06,10.47 25.88,-8.9 -10.13,-9.26 -25.88,-2.67 -25.88,8.9z"/>
    <path class="fil1" d="M792.74 37.73l0 20.37c19.06,5.05 27.16,5.73 27.16,-20.37 -12.87,-1.07 -15.57,-4.5 -27.16,0z"/>
   </g>
  </g>
 </g>
</svg>
