<?xml version="1.0" encoding="UTF-8"?>
<!DOCTYPE svg PUBLIC "-//W3C//DTD SVG 1.1//EN" "http://www.w3.org/Graphics/SVG/1.1/DTD/svg11.dtd">
<!-- Creator: CorelDRAW 2018 (64-Bit) -->
<svg xmlns="http://www.w3.org/2000/svg" xml:space="preserve" width="0.785083in" height="0.785004in" version="1.1" style="shape-rendering:geometricPrecision; text-rendering:geometricPrecision; image-rendering:optimizeQuality; fill-rule:evenodd; clip-rule:evenodd"
viewBox="0 0 785.08 785"
 xmlns:xlink="http://www.w3.org/1999/xlink">
 <defs>
  <style type="text/css">
   <![CDATA[
    .fil0 {fill:black}
    .fil1 {fill:#F5BD05}
   ]]>
  </style>
 </defs>
 <g id="Layer_x0020_1">
  <metadata id="CorelCorpID_0Corel-Layer"/>
  <g id="_372815730704">
   <path class="fil0" d="M224.74 494.79c3.3,-8.08 60.02,-62.7 65.61,-66.89 8.25,4.27 42.45,40.75 52.01,50.25 9.13,9.06 43.6,46.6 52.4,49.99l99.94 -99.96c7,4.57 63.61,60.8 65.97,66.61 -10.63,13.74 -28.57,29.09 -40.46,41.25l-84.46 84.5c-9.29,9.29 -34.13,36.61 -43.22,41.55 -6.33,-3.78 -161.51,-158.24 -167.78,-167.3zm305.31 -102.18c3.51,-7.02 60.2,-63.6 66.83,-66.54l65.33 66.54c-2.98,5.81 -56.91,60.08 -65.33,66.02 -5.52,-3.02 -62.68,-59.7 -66.83,-66.02zm-203.77 0c3.59,-6.63 60.35,-63.24 66.25,-65.93 9.54,8.07 61.5,58.23 65.22,66.37l-65.22 64.51c-6.29,-2.95 -61.04,-57.76 -66.25,-64.94zm-203.46 0c3.54,-6.26 59.42,-62.03 65.35,-66.08 6.19,4.48 62.02,60.27 65.27,66.08 -3.65,6.83 -58.36,61.35 -65.27,65.09 -7.98,-3.74 -25.97,-24.19 -33.38,-31.72 -7.29,-7.41 -28.14,-26.05 -31.97,-33.37zm185.23 -186.66c14.57,-14.63 27.54,-27.65 42.31,-42.2 10.2,-10.06 32.56,-35.15 42.17,-41.51 12.68,9.6 29.81,29.28 42.18,41.51l126.47 126.93 -66.48 66.24c-9.02,-5.7 -85.98,-86.87 -102.84,-101.06l-102.13 100.66 -65.63 -66.09 83.94 -84.49zm-248.87 222.03c18.92,172.35 173.34,318.99 369.45,297.64 171.67,-18.68 318.3,-173.09 297.27,-369.41 -18.35,-171.29 -173.31,-318.2 -368.67,-297.32 -171.54,18.33 -319.59,172.93 -298.05,369.09z"/>
   <path class="fil0" d="M367.14 36.23c204.18,-16.44 367.79,143.5 381.51,330.54 15.02,204.8 -142.78,367.29 -328.56,381.51 -206.6,15.81 -370.34,-142.28 -383.76,-331.18 -13.9,-195.55 131.92,-364.85 330.81,-380.86zm-0.19 -35.65c-206.28,10.41 -380.18,194.5 -366.16,416.1 13.13,207.52 192.66,384.51 419.31,367.14 80.51,-6.17 152.87,-34.42 212.14,-80.74 22.46,-17.56 44.72,-39 61.82,-60.01 4.09,-5.02 7.55,-8.5 11.64,-13.94 196.24,-261.15 7.93,-646.05 -338.76,-628.56z"/>
   <path class="fil1" d="M224.74 494.79c6.28,9.07 161.45,163.52 167.78,167.3 9.09,-4.94 33.94,-32.26 43.22,-41.55l84.46 -84.5c11.88,-12.16 29.83,-27.51 40.46,-41.25 -2.35,-5.81 -58.97,-62.04 -65.97,-66.61l-99.94 99.96c-8.8,-3.39 -43.27,-40.93 -52.4,-49.99 -9.56,-9.5 -43.76,-45.98 -52.01,-50.25 -5.59,4.19 -62.3,58.81 -65.61,66.89z"/>
   <path class="fil1" d="M224.11 290.44l65.63 66.09 102.13 -100.66c16.86,14.19 93.81,95.36 102.84,101.06l66.48 -66.24 -126.47 -126.93c-12.38,-12.23 -29.5,-31.91 -42.18,-41.51 -9.61,6.36 -31.98,31.45 -42.17,41.51 -14.77,14.56 -27.73,27.57 -42.31,42.2l-83.94 84.49z"/>
   <path class="fil1" d="M530.05 392.61c4.14,6.31 61.31,63 66.83,66.02 8.43,-5.93 62.36,-60.2 65.33,-66.02l-65.33 -66.54c-6.63,2.93 -63.32,59.51 -66.83,66.54z"/>
   <path class="fil1" d="M122.81 392.61c3.83,7.33 24.68,25.96 31.97,33.37 7.41,7.53 25.4,27.98 33.38,31.72 6.91,-3.74 61.62,-58.27 65.27,-65.09 -3.25,-5.81 -59.08,-61.6 -65.27,-66.08 -5.93,4.06 -61.81,59.82 -65.35,66.08z"/>
   <path class="fil1" d="M326.27 392.61c5.21,7.19 59.96,61.99 66.25,64.94l65.22 -64.51c-3.72,-8.14 -55.68,-58.29 -65.22,-66.37 -5.9,2.69 -62.66,59.29 -66.25,65.93z"/>
  </g>
 </g>
</svg>
