<svg id="SvgjsSvg1001" width="288" height="288" xmlns="http://www.w3.org/2000/svg" version="1.1" xmlns:xlink="http://www.w3.org/1999/xlink" xmlns:svgjs="http://svgjs.com/svgjs"><defs id="SvgjsDefs1002"></defs><g id="SvgjsG1008" transform="matrix(0.9167,0,0,0.9167,11.995200000000011,11.9952003177643)"><svg xmlns="http://www.w3.org/2000/svg" width="288" height="288" fill-rule="evenodd" clip-rule="evenodd" image-rendering="optimizeQuality" shape-rendering="geometricPrecision" text-rendering="geometricPrecision" viewBox="0 0 92.72 24.02"><rect width="92.72" height="24.02" fill="none"></rect><path fill="#000000" d="M8.89 21.27l0 0zm1.39.3c-.36-.27-.88-1.61-1.16-2.12-.42-.77-.76-1.43-1.16-2.22-.39-.78-.79-1.52-1.14-2.24-.29-.61-.97-1.67-1.11-2.27l9.24 0-4.12 7.72c-.23.38-.45.69-.55 1.14l0 0zm1.19-.2l7.85-15.32c0 1.65.01 2.55-.21 4.06-.13.88-.65 2.63-.96 3.41-.31.77-.55 1.25-.94 1.94-.73 1.32-1.46 2.27-2.48 3.29-1.27 1.27-1.77 1.62-3.25 2.61l0 0zm-2.58-.1c-1.16-.27-3.66-2.87-4.59-4.06-.43-.54-.77-1.12-1.14-1.75-1.71-2.88-2.13-6-2.13-9.51.06.07.03.02.14.16.1.14.09.12.16.24l5.6 11c.11.21.16.28.24.45.4.84 1.56 2.82 1.71 3.46l0 0zm-8.75-15.32l0 2.29c0 2.91 1.07 5.62 2.32 7.92 1.53 2.82 4.31 5.2 7.12 6.7.78.42 1.18.08 2.41-.68 1.43-.89 2.64-1.89 3.78-3.08.19-.2.2-.24.36-.44.16-.19.26-.29.41-.48 1.33-1.7 2.33-3.51 2.95-5.61.71-2.41 1.05-5.08.69-7.68-.1-.71.01-.98-.65-1.14-.49.33-.86 1.27-1.11 1.88-.26.64-.66 1.37-.98 2-.17.35-.28.65-.46 1.03-.29.61-1.31 2.54-1.43 3.05l-10.44 0-3.97-7.78c-.42-.41-.5-.08-.51-.08-.29.1-.13-.09-.29.31-.15.4-.21 1.29-.21 1.78l0 0zM53.12 11.72l0-2.49c0-.23.07-.3.3-.3l5.57 0c.23 0 .3.07.3.3 0 1.43.25 2.88-.4 2.88l-5.37 0c-.23 0-.4-.16-.4-.4l0 0zm-1.09 4.18c0 .45 1.09.45 1.09 0l0-2.79 3.18 0c.27 0 .28.14.4.29l.63.76c.52.66 1.12 1.24 1.65 2.03l1.29 0c-.08-.29-1.58-1.99-1.86-2.32l-.63-.77c.64 0 1.39.09 1.83-.16 1.02-.57.75-2.06.75-3.52 0-.4-.13-.74-.32-.97-.12-.15-.56-.52-.77-.52l-7.26 0 0 7.96 0 0zM39.31 8.14l0 8.06 7.55 0 0-.99-6.56 0 0-2.69 5.27 0 0-.99-5.27 0 0-2.59 6.26 0c.45 0 .45-1.09 0-1.09l-6.96 0c-.23 0-.3.07-.3.3l0 0zM25.89 9.23l0 5.57c0 .85.65 1.39 1.49 1.39l6.46 0c.4 0 .3-.28.3-.99l-6.46 0c-.35 0-.8-.05-.8-.4 0-1.25-.13-4.89.1-5.87l6.06 0c1.22.01 1.09.19 1.09-1-.98-.23-5.06-.1-6.36-.1-1.06 0-1.89.34-1.89 1.39l0 0zM84.93 8.14l0 8.06c1.33 0 .99.54.99-3.68 3.22 0 2.17-.43 4.01 1.76.56.66 1.08 1.21 1.56 1.92l1.19 0c-.03-.38-.26-.55-.72-1.07-.31-.35-.56-.67-.85-1.04l-1.7-2.07 1.66-2.02c.27-.34 1.53-1.7 1.62-2.06-.28-.16-.42-.1-.89-.1-.62 0-2.92 3.68-3.48 3.68l-2.39 0 0-3.38c0-.44-.99-.44-.99 0l0 0zM65.15 8.14c0 1.08-.45.8 3.68.8l0 7.26c.71 0 .99.1.99-.3l0-6.96 3.28 0c.45 0 .45-1.09 0-1.09l-7.65 0c-.23 0-.3.07-.3.3l0 0z" class="colorfff svgShape"></path><path fill="#000000" d="M3.03 3.46c0 .97 1.68.15 2.1.01.57-.18 1.13-.36 1.68-.51 4.95-1.36 2.02-1.3 6.76 0 .82.23 2.98.99 3.58.99.37 0 .49-.49.27-.75-.2-.23-7.06-2.23-7.13-2.23-.48 0-4.86 1.38-5.63 1.63-.49.16-1.63.31-1.63.86l0 0zM78.27 8.14l0 7.76c0 .4.28.3.99.3l0-8.36c-.71 0-.99-.1-.99.3l0 0zM.15 8.24l0-2.29c-.07.1-.06 0-.09.21l-.01 1.79c.06.51-.02.1.1.29l0 0z" class="colorfff svgShape"></path></svg></g></svg>