<?xml version="1.0" encoding="UTF-8"?>
<!DOCTYPE svg PUBLIC "-//W3C//DTD SVG 1.1//EN" "http://www.w3.org/Graphics/SVG/1.1/DTD/svg11.dtd">
<!-- Creator: CorelDRAW 2018 (64-Bit) -->
<svg xmlns="http://www.w3.org/2000/svg" xml:space="preserve" width="7.10835in" height="5.72743in" version="1.1" style="shape-rendering:geometricPrecision; text-rendering:geometricPrecision; image-rendering:optimizeQuality; fill-rule:evenodd; clip-rule:evenodd"
viewBox="0 0 7108.35 5727.43"
 xmlns:xlink="http://www.w3.org/1999/xlink">
 <defs>
  <style type="text/css">
   <![CDATA[
    .fil0 {fill:#4D4D4D}
   ]]>
  </style>
 </defs>
 <g id="Layer_x0020_1">
  <metadata id="CorelCorpID_0Corel-Layer"/>
  <g id="_813697213728">
   <path class="fil0" d="M7080.61 5727.43c-736.66,-2448.39 -2632.79,-4505.94 -5258.81,-5343.05 -604.76,-192.78 -1215.4,-310.22 -1821.79,-357.75l0 -26.63c609.06,47.59 1222.41,165.49 1829.84,359.13 2637.43,840.74 4541.03,2908.49 5278.51,5368.31l-27.75 0z"/>
   <path class="fil0" d="M6774.2 5727.43c-827.2,-2240.2 -2644.96,-4091.52 -5101.72,-4874.66 -555.15,-176.97 -1115.26,-290.5 -1672.48,-344.72l0 -26.66c559.89,54.33 1122.7,168.3 1680.53,346.13 2468.19,786.79 4293.32,2648.24 5121.69,4899.92l-28.03 0z"/>
   <path class="fil0" d="M6435.03 5727.43c-897.28,-2027.84 -2628.57,-3678.42 -4911.86,-4406.27 -505.58,-161.17 -1015.28,-269.7 -1523.17,-328.8l0 -26.75c510.57,59.24 1022.97,168.28 1531.22,330.29 2294.86,731.54 4034.05,2392.09 4932.98,4431.53l-29.17 0z"/>
   <path class="fil0" d="M6059.75 5727.43c-945.64,-1811.84 -2581.11,-3266.94 -4685.89,-3937.88 -456.06,-145.38 -915.46,-247.96 -1373.86,-310.03l0 -26.81c461.08,62.26 923.19,165.35 1381.91,311.58 2116.48,674.68 3760.06,2139.61 4707.87,3963.14l-30.03 0z"/>
   <path class="fil0" d="M5646.06 5727.43c-971.72,-1592.75 -2501.4,-2857.41 -4421.51,-3469.49 -406.55,-129.6 -815.76,-225.14 -1224.55,-288.34l0 -26.85c411.48,63.41 823.38,159.48 1232.6,289.93 1932.01,615.87 3470.19,1890.26 4444.8,3494.75l-31.34 0z"/>
   <path class="fil0" d="M5188.17 5727.43c-973.42,-1371.16 -2385.12,-2450.32 -4112.93,-3001.1 -357.06,-113.82 -716.17,-201.37 -1075.24,-263.8l0 -26.93c361.76,62.69 723.56,150.8 1083.29,265.47 1739.93,554.65 3160.29,1643.43 4137.35,3026.36l-32.47 0z"/>
   <path class="fil0" d="M4679.62 5727.43c-948.69,-1147.73 -2227.86,-2046.32 -3753.69,-2532.71 -307.57,-98.04 -616.65,-176.62 -925.93,-236.44l0 -26.98c311.96,60.15 623.74,139.27 933.98,238.17 1538.4,490.4 2827,1398.31 3780.16,2557.97l-34.52 0z"/>
   <path class="fil0" d="M4111.44 5727.43c-893.87,-923.62 -2023.25,-1646.23 -3334.82,-2064.32 -258.07,-82.26 -517.2,-150.78 -776.62,-206.05l0 -27.11c262.11,55.65 523.94,124.78 784.67,207.9 1324.64,422.26 2464.13,1154.06 3363.77,2089.58l-37 0z"/>
   <path class="fil0" d="M3468.37 5727.43c-803.49,-700.07 -1760.37,-1251.44 -2841.06,-1595.94 -208.54,-66.48 -417.78,-124 -627.31,-172.8l0 -27.21c212.22,49.26 424.15,107.43 635.36,174.76 1094.54,348.91 2062.53,909.3 2873.38,1621.19l-40.37 0z"/>
   <path class="fil0" d="M2727.5 5727.43c-668.57,-479.53 -1422.85,-864.03 -2249.5,-1127.55 -158.99,-50.68 -318.39,-96.11 -478,-136.49l0 -27.33c162.31,40.91 324.39,87.04 486.05,138.57 841.67,268.3 1608.46,661.7 2286.57,1152.8l-45.13 0z"/>
   <path class="fil0" d="M1843.56 5727.43c-472.05,-265.94 -978.19,-488.08 -1514.87,-659.16 -109.39,-34.87 -218.98,-67.24 -328.69,-97.22l0 -27.49c112.41,30.61 224.68,63.73 336.74,99.46 553.9,176.57 1075.38,407.34 1560.56,684.41l-53.75 0z"/>
   <path class="fil0" d="M713.18 5727.43c-174.35,-69.23 -352.33,-132.92 -533.8,-190.77 -59.74,-19.04 -119.54,-37.33 -179.38,-54.91l0 -27.6c62.53,18.3 125.02,37.36 187.43,57.26 203.31,64.81 402.19,137.01 596.57,216.02l-70.83 0z"/>
  </g>
 </g>
</svg>
