<?xml version="1.0" encoding="UTF-8"?>
<!DOCTYPE svg PUBLIC "-//W3C//DTD SVG 1.1//EN" "http://www.w3.org/Graphics/SVG/1.1/DTD/svg11.dtd">
<!-- Creator: CorelDRAW 2018 (64-Bit) -->
<svg xmlns="http://www.w3.org/2000/svg" xml:space="preserve" width="2.13765in" height="10.94in" version="1.1" style="shape-rendering:geometricPrecision; text-rendering:geometricPrecision; image-rendering:optimizeQuality; fill-rule:evenodd; clip-rule:evenodd"
viewBox="0 0 2137.65 10940.02"
 xmlns:xlink="http://www.w3.org/1999/xlink">
 <defs>
  <style type="text/css">
   <![CDATA[
    .fil0 {fill:#CCCCCC}
   ]]>
  </style>
 </defs>
 <g id="Layer_x0020_1">
  <metadata id="CorelCorpID_0Corel-Layer"/>
  <g id="_813696174672">
   <path class="fil0" d="M-0 10900.41c1841.66,-2010.58 2611,-4915.72 1773.71,-7725.75 -359.61,-1206.89 -977.19,-2265.96 -1773.71,-3135.44l0 -39.22c808.59,876.33 1435.38,1946.35 1799.11,3167.09 843.04,2829.33 62.85,5754.94 -1799.11,7772.94l0 -39.61z"/>
   <path class="fil0" d="M-0 10476.39c1496.15,-1968.71 2064.44,-4604.4 1302.56,-7161.35 -285.15,-957 -732.44,-1821.1 -1302.56,-2571.37l0 -43.83c582.07,759.18 1038.36,1635.66 1327.97,2607.62 767.92,2577.22 188.66,5233.97 -1327.97,7212.08l0 -43.16z"/>
   <path class="fil0" d="M-0 9924.59c1136.32,-1871.53 1507.17,-4201.29 831.42,-6469.16 -201.11,-674.94 -482.84,-1303.7 -831.42,-1878.94l0 -51.13c360.2,587.24 650.7,1230.71 856.83,1922.49 682.48,2290.46 301.02,4643.9 -856.83,6527.94l0 -51.2z"/>
   <path class="fil0" d="M-0 9165.78c754.87,-1691.35 931.54,-3652.76 360.28,-5569.97 -100.52,-337.34 -221.21,-663.11 -360.28,-976.46l0 -64.9c149.78,330.94 279.05,675.89 385.69,1033.79 579.17,1943.75 391.91,3932.7 -385.69,5641.69l0 -64.15z"/>
   <path class="fil0" d="M-0 7927.68c293.62,-1207.84 310.38,-2499.17 0,-3780.76l0 -108.76c347.04,1356.08 327.39,2725.84 0,3999.4l0 -109.87z"/>
  </g>
 </g>
</svg>
