<?xml version="1.0" encoding="UTF-8"?>
<!DOCTYPE svg PUBLIC "-//W3C//DTD SVG 1.1//EN" "http://www.w3.org/Graphics/SVG/1.1/DTD/svg11.dtd">
<!-- Creator: CorelDRAW 2018 (64-Bit) -->
<svg xmlns="http://www.w3.org/2000/svg" xml:space="preserve" width="1.97561in" height="10.5778in" version="1.1" style="shape-rendering:geometricPrecision; text-rendering:geometricPrecision; image-rendering:optimizeQuality; fill-rule:evenodd; clip-rule:evenodd"
viewBox="0 0 1975.61 10577.82"
 xmlns:xlink="http://www.w3.org/1999/xlink">
 <defs>
  <style type="text/css">
   <![CDATA[
    .fil0 {fill:#CCCCCC}
   ]]>
  </style>
 </defs>
 <g id="Layer_x0020_1">
  <metadata id="CorelCorpID_0Corel-Layer"/>
  <g id="_813693544336">
   <path class="fil0" d="M1975.61 40.75c-1724.13,2001.54 -2423.98,4817.25 -1611.68,7543.42 334.83,1123.74 893.34,2119.31 1611.68,2953.03l0 40.62c-730.39,-841.2 -1298.02,-1848.16 -1637.08,-2986.08 -818.15,-2745.78 -107.43,-5582.17 1637.08,-7591.74l0 40.75z"/>
   <path class="fil0" d="M1975.61 503.47c-1374.26,1942.44 -1874.25,4477.87 -1140.53,6940.31 257.56,864.4 647.38,1653.01 1140.53,2350.41l0 45.88c-505.02,-707.2 -903.76,-1508.84 -1165.94,-2388.72 -739.94,-2483.31 -229.06,-5040.44 1165.94,-6993.17l0 45.28z"/>
   <path class="fil0" d="M1975.61 1113.48c-1008.24,1821.18 -1311.92,4033.54 -669.39,6189.92 168.94,567 394.82,1101.39 669.39,1598.86l0 54.7c-285.97,-510.96 -520.55,-1061.2 -694.8,-1645.99 -649.59,-2180.08 -335.38,-4417.27 694.8,-6252.41l0 54.92z"/>
   <path class="fil0" d="M1975.61 1983.72c-615.24,1598.95 -726.05,3407.96 -198.25,5179.3 59.2,198.69 125.43,393.34 198.25,583.83l0 73.46c-82.87,-211.45 -157.62,-428.09 -223.66,-649.72 -536.53,-1800.65 -415.26,-3640.07 223.66,-5259.81l0 72.94z"/>
   <path class="fil0" d="M1975.61 3709.23c-84.42,661.43 -86.84,1340.19 0,2022.24l0 193.4c-123.44,-813.66 -119.16,-1624.5 0,-2408.89l0 193.25z"/>
  </g>
 </g>
</svg>
