<?xml version="1.0" encoding="UTF-8"?>
<!DOCTYPE svg PUBLIC "-//W3C//DTD SVG 1.1//EN" "http://www.w3.org/Graphics/SVG/1.1/DTD/svg11.dtd">
<!-- Creator: CorelDRAW 2019 (64-Bit) -->
<svg xmlns="http://www.w3.org/2000/svg" xml:space="preserve" width="4.3934in" height="1.12044in" version="1.1" style="shape-rendering:geometricPrecision; text-rendering:geometricPrecision; image-rendering:optimizeQuality; fill-rule:evenodd; clip-rule:evenodd"
viewBox="0 0 463.21 118.13"
 xmlns:xlink="http://www.w3.org/1999/xlink">
 <defs>
  <style type="text/css">
   <![CDATA[
    .fil0 {fill:none}
    .fil2 {fill:#217CB6}
    .fil1 {fill:white}
   ]]>
  </style>
    <clipPath id="id0">
     <path d="M-0 0l463.21 0 0 118.13 -463.21 0 0 -118.13z"/>
    </clipPath>
 </defs>
 <g id="Layer_x0020_1">
  <metadata id="CorelCorpID_0Corel-Layer"/>
  <g id="_2441592390064">
   <polygon class="fil0" points="-0,0 463.21,0 463.21,118.13 -0,118.13 "/>
   <g>
   </g>
   <g style="clip-path:url(#id0)">
    <g id="_2441592414288">
     <path class="fil1" d="M209.19 60.18c0,-25.03 26.76,-32.7 40.99,-19.75 9.99,9.1 9.99,28.04 0,37.14 -15.68,14.28 -40.99,2.2 -40.99,-17.39zm-23.6 -1.18c0,45.03 54.64,64.06 82.32,33.94 17.77,-19.34 17.77,-48.55 0,-67.89 -18.4,-20.03 -53.14,-18.54 -69.02,0.05 -7.08,8.29 -13.3,18.99 -13.3,33.89z"/>
     <path class="fil1" d="M298.85 73.16l23.6 0 0 -36.57c12.22,0 24.11,-1.82 32.21,5.55 9.18,8.35 9.18,25.39 0,33.74 -8.2,7.46 -20.75,5.55 -33.39,5.55l0 23.59c22.13,0 34.62,2.58 50.46,-13.25 29.33,-29.33 6.93,-78.77 -29.22,-78.77l-43.65 0 0 60.17 0 0z"/>
     <polygon class="fil1" points="86.49,105.01 110.09,105.01 110.09,70.8 137.22,70.8 137.22,47.2 110.09,47.2 110.09,12.99 86.49,12.99 "/>
     <polygon class="fil1" points="36.94,105.01 60.54,105.01 60.54,12.99 36.94,12.99 "/>
     <polygon class="fil1" points="402.67,105.01 426.26,105.01 426.26,12.99 402.67,12.99 "/>
     <polygon class="fil1" points="145.48,105.01 167.9,105.01 167.9,12.99 145.48,12.99 "/>
     <polygon class="fil1" points="434.52,105.01 461.66,105.01 461.66,81.42 434.52,81.42 "/>
     <path class="fil2" d="M1.55 24.79c0,22.15 27.13,22 27.13,0 0,-15.72 -27.13,-15.72 -27.13,0z"/>
    </g>
   </g>
   <polygon class="fil0" points="-0,0 463.21,0 463.21,118.13 -0,118.13 "/>
  </g>
 </g>
</svg>
