<?xml version="1.0" encoding="UTF-8"?>
<!DOCTYPE svg PUBLIC "-//W3C//DTD SVG 1.1//EN" "http://www.w3.org/Graphics/SVG/1.1/DTD/svg11.dtd">
<!-- Creator: CorelDRAW 2019 (64-Bit) -->
<svg xmlns="http://www.w3.org/2000/svg" xml:space="preserve" width="5.94703in" height="1.12044in" version="1.1" style="shape-rendering:geometricPrecision; text-rendering:geometricPrecision; image-rendering:optimizeQuality; fill-rule:evenodd; clip-rule:evenodd"
viewBox="0 0 910.95 171.63"
 xmlns:xlink="http://www.w3.org/1999/xlink">
 <defs>
  <style type="text/css">
   <![CDATA[
    .fil3 {fill:none}
    .fil0 {fill:#0AA9E2}
    .fil1 {fill:#FE0000}
    .fil2 {fill:white}
   ]]>
  </style>
 </defs>
 <g id="Layer_x0020_1">
  <metadata id="CorelCorpID_0Corel-Layer"/>
  <g id="_2441618886816">
   <path class="fil0" d="M254.92 56.93c7.93,-1.72 16.86,1.04 21.79,4.72 4.94,3.68 8.66,8.72 10.72,16.66 6.18,23.8 -4.83,51.6 -29.81,48.69 -9.47,-1.1 -7.58,-11.01 -7.58,-19.88l-0.01 -41.07c0.01,-5.69 -0.39,-7.98 4.88,-9.12l-0 0zm-31.61 -1.16c10.24,0.99 9.9,3.21 9.93,13.44l-0.01 47.41c-0.1,6.49 -0.32,9.96 -6.36,10.98 -0.78,0.13 -2.22,0.21 -2.77,0.34 -2.23,0.52 -2.04,-0.91 -2.04,4.64 17.51,0.51 43.88,1.41 58.87,-4.21 14.3,-5.36 25.75,-17.17 26.97,-36.1 1.28,-19.9 -9.63,-33.12 -24.42,-37.91 -13.38,-4.34 -44.55,-3.54 -60.23,-2.99l0.06 4.4 -0 0z"/>
   <path class="fil0" d="M629.49 57.04c7.5,-1.94 16.95,0.81 21.9,4.36 17.72,12.7 15.7,46.06 2.2,58.88 -4.56,4.33 -11.73,7.66 -20.48,6.76 -9.84,-1.01 -8.04,-10.16 -8.04,-19.4l-0 -41.07c0.01,-5.5 -0.61,-8.23 4.42,-9.53l-0 0zm39.81 2.79c-8.39,-6.24 -20.54,-8.52 -33.64,-8.52 -9.93,-0 -28.47,-0.38 -37.4,0.11 -0.12,3.49 -0.92,4.07 2.05,4.59 6.61,1.16 7.96,1.18 7.96,12.14l0 47.92c0,10.75 -1.4,10.84 -11.11,12.17l-0.03 4.24c9.37,0.86 22.98,0.22 32.74,0.11 9.78,-0.1 19.59,-1.46 27.57,-4.8 31.7,-13.29 32.07,-52.95 11.87,-67.96l-0 0z"/>
   <path class="fil0" d="M210.87 133.71c1.14,-9.13 -0.77,-48.77 0.89,-66.57 0.84,-8.97 1.38,-10.37 10.42,-11.51l-0.05 -4.31 -30.61 0.03 0.35 4.39c13.75,1.24 12.2,5.48 12.9,18.73 0.55,10.34 0.1,21.01 0.24,31.39 -2.94,-1.37 -4.71,-4.63 -6.83,-6.89 -1.6,-1.7 -4.11,-4.77 -5.83,-6.82l-35.49 -40.85 -23.39 0.03 0.2 4.18c3.58,1.42 5.97,0.33 9.16,3.41 1.96,1.89 3.29,4.77 3.55,8.68 0.54,8.26 0.28,39.98 -0.6,48.08 -1.42,13.13 -3.64,10.42 -9.13,12.31 -2.04,0.7 -1.76,0.16 -1.79,4.6l30.69 0.01c0.01,-4.46 0.3,-3.92 -1.83,-4.53 -1.71,-0.49 -7.92,0.16 -9.65,-5.5 -2.16,-7.08 -1.88,-43.41 -1.45,-50.73 1.9,1.01 24.31,28.54 27.87,32.69 4.71,5.48 8.85,10.83 13.69,16.34 9.91,11.29 7.99,13.32 16.71,12.84l0 -0z"/>
   <path class="fil0" d="M535.79 55.71c-4.51,-5.28 -2.33,-4.41 -11.41,-4.4 -4.41,0 -11.56,-0.42 -15.63,0.18 0.12,4.84 -0.83,3.9 3.8,4.79 8.85,1.69 9.22,9.19 9.24,16.62 0.04,13.37 0.51,33.58 -1.09,46.32 -0.91,7.28 -3.33,8.06 -10.52,9.05l-0.04 4.33 30.74 -0.05 -0.12 -4.33c-8,-0.58 -11.17,-1.39 -12.05,-9.57 -1.19,-11.01 -0.99,-34.65 -0.83,-46.61 2.93,1.61 51.7,60.93 52.02,61.74l6.43 -0c-0.1,-15.97 -0.72,-54.66 1.06,-69.67 0.45,-3.76 1.2,-5.97 4.18,-7.29 5.33,-2.38 6.12,1.68 5.99,-5.48l-30.66 -0.02 0.21 4.21c4.72,1.57 9.38,0.52 11.4,4.95 2.38,5.19 2,39.3 1.72,45.57 -1.93,-0.88 -19.09,-21.41 -22.35,-24.98l-22.08 -25.34 0 0z"/>
   <path class="fil0" d="M749.31 55.69c12.59,2.22 12.94,6.18 12.94,19.31 0,11.83 0.38,30.95 -0.83,42.02 -0.96,8.74 -1.97,9.97 -10.76,11.24l-0.06 4.18 30.69 0.1 -0.02 -4.29c-12.72,-1.23 -12.4,-3.94 -12.91,-21.72 -0.33,-11.24 -0.31,-23.29 -0.07,-34.54 1.76,0.41 5.67,6.03 6.86,7.47l41.09 49.01c3.91,4.59 2.52,5.49 10.48,5.27 0.14,-19.21 -0.88,-49.61 1.01,-68.75 0.72,-7.26 2.79,-8.79 10.18,-9.26l-0.04 -4.41 -30.48 -0.01 -0.04 4.42c13.77,0.78 12.5,5.6 13.14,18.33 0.5,9.87 0.62,22.14 0.17,31.99 -1.96,-0.89 -40.8,-46.23 -44.42,-50.31 -4.68,-5.28 -2.02,-4.43 -11.39,-4.43 -4.42,0 -11.55,-0.42 -15.64,0.19l0.09 4.19 0 0z"/>
   <path class="fil0" d="M403.66 93.87c-0.81,-8.64 -0.1,-20.4 -0.14,-29.41 -0.03,-6.09 0.04,-8.6 6.95,-8.2 15.53,0.9 16.51,19.94 12.64,29.31 -3.19,7.7 -9.23,10.91 -19.45,8.3l0 -0zm-26.34 -38.12c10.38,1.4 9.62,3.63 9.63,13.98l-0 46.34c-0.06,11.93 -2.35,10.64 -8.29,11.94 -2.3,0.51 -2.21,-0.73 -2.25,4.6l39.03 0.01c0.05,-4.45 0.31,-3.79 -1.36,-4.38 -3.68,-1.31 -9.66,1.13 -10.41,-7.96 -0.53,-6.47 -0.16,-14.64 -0.11,-21.26 7.47,0.81 8.04,2.74 16.78,1.08 17.65,-3.36 27.18,-19.23 20.83,-34.71 -3.72,-9.06 -12.27,-13.4 -24.89,-14 -11.92,-0.56 -27.04,-0.48 -39.01,-0.04l0.06 4.4 0 0z"/>
   <path class="fil0" d="M310.43 55.71c10.44,1.35 10.05,2.7 10.04,13.5l0 46.86c-0.04,10.92 -1.54,11.14 -11.84,12.13l-0.07 4.38 63.93 0.05c1.18,-2.73 4.43,-17.78 4.19,-20.77l-4.16 -0.82c-6.75,13.28 -7.51,17.2 -26.39,15.97 -8.87,-0.58 -8.81,-3.47 -8.85,-11.99 -0.03,-6.74 -0.29,-14.2 0.07,-20.86 3.34,-0.37 12.1,-0.36 15.35,0.16 5.5,0.89 5.83,4.17 6.94,9.19l4.5 0.03 0.03 -25.26 -4.36 -0.03c-1.86,4.49 -1.16,7.88 -6.61,8.97 -2.99,0.6 -12.75,0.63 -15.87,0.25 -0.2,-4.94 -0.06,-10.15 -0.06,-15.12 0,-3.78 -1.24,-12.52 1.04,-14.63 2.25,-1.93 15.92,-1.01 19.21,0.1 5.92,2 5.96,6.65 8.63,12.45l4.34 -0.09 -0.98 -18.57c-3.26,-0.86 -53.34,-0.7 -59.11,-0.18l0.02 4.27 0 -0z"/>
   <path class="fil0" d="M445.35 55.76c10.82,1.01 9.98,3.49 9.98,13.98l-0.02 47.39c-0.1,6.82 -0.56,9.55 -6.89,10.5 -5.75,0.86 -4.96,-1 -5,5.03l64.16 -0.03c0.8,-4.41 4.64,-17.46 3.86,-21l-3.94 -0.58c-6.6,10.57 -4.46,17.41 -26.37,15.98 -8.93,-0.58 -8.96,-3.18 -8.98,-12 -0.02,-6.48 -0.42,-14.66 0.1,-20.95 4.15,-0.16 11.84,-0.38 15.69,0.36 4.32,0.82 4.85,2.57 5.88,6.29 0.85,3.05 -0.21,2.86 5.22,2.8l0.02 -25.2 -4.53 -0.01c-2.37,10.54 -5.88,9.85 -22.31,9.28l-0.08 -26.85c0.1,-2.19 -0.11,-2.01 1.05,-3.17 2.9,-1.73 15.87,-0.93 19.29,0.28 5.76,2.05 5.88,7.11 8.68,12.54l4.22 -0.24 -1.02 -18.78 -59.11 -0.05 0.08 4.44 0 -0z"/>
   <path class="fil0" d="M685.81 55.76c10.74,1.03 9.96,3.31 9.97,13.98l-0.02 47.41c-0.06,3.69 -0.12,7.29 -2.53,9.04 -2.33,1.68 -5.39,1.38 -7.1,1.75 -2.4,0.51 -2.23,-0.98 -2.21,4.69l64.14 0.01c0.75,-4.46 4.61,-17.35 3.87,-21l-3.93 -0.59c-6.57,10.07 -3.92,17.41 -26.39,15.98 -8.96,-0.57 -8.95,-3.19 -8.99,-12 -0.03,-6.72 -0.31,-14.35 0.1,-20.98 14.67,-0.13 19.36,-1.68 21.57,6.68 0.81,3.04 -0.15,2.85 5.23,2.8l-0.02 -25.24 -4.49 0.02c-2.7,10.69 -4.55,9.53 -22.34,9.31 -0.22,-5.56 -0.64,-25.88 0.41,-30.05 3.38,-1.27 16.29,-1.05 19.89,0.29 5.99,2.24 5.58,7.13 8.67,12.55l4.19 -0.27 -1.04 -18.73 -59.04 -0.09 0.05 4.44 0 0z"/>
   <path class="fil1" d="M2.82 139.68c13.82,-2.88 46.65,-23.13 56.39,-33.63 1.85,-2 3.95,-3.67 5.79,-5.8 1.65,-1.91 3.27,-3.86 4.99,-6.08 2.96,-3.82 6.1,-8.41 8.69,-13.45 4.95,-9.64 9.23,-23.06 8.37,-36.28 -3.08,4.31 -2.91,6.71 -7.76,11.1 -2.4,2.17 -8.2,5.87 -11.82,7.1 1.92,8.31 -0.43,10.83 -5.59,14.33 -2.34,-1 -5.28,-4.1 -8.7,-5.9 -10.58,-5.59 -24.84,-2.45 -33.32,4.87 5.21,0.37 9.2,-1.15 15.03,0.22 22.46,5.3 -11.11,40.9 -16.65,47.44l-15.4 16.11 -0 0z"/>
   <path class="fil0" d="M837.38 72.85l4.49 -0.03c5.31,-15.41 4.48,-16.32 23.88,-15.92 0.39,13.57 0.05,27.65 0.05,41.27 0,28.35 2.32,28.34 -11.76,30.09l-0.07 4.18 40.86 0.15c0.06,-7.73 -1.31,-2.81 -8.4,-5.78 -2.69,-1.13 -3.45,-3.3 -3.72,-6.63l0.08 -63.28c5.04,-0.44 13.88,-0.35 17.27,2.09 4.61,3.32 4.14,8.92 6.65,13.5l4.23 -0.02 -1.34 -24.09c-6.53,-1.21 0.98,2.93 -15.55,2.92 -5.71,-0 -45.76,0.35 -48.32,-0.27 -3.97,-0.97 -1.78,-3.44 -6.84,-2.7l-1.53 24.5 0 -0z"/>
   <path class="fil0" d="M132.6 128.21c-10.37,-1.15 -10.29,-2.86 -10.32,-13.19l0 -46.34c0.05,-15.22 3.51,-10.72 10.32,-13.16l0.05 -4.22 -37.63 0.06 0.35 4.38c10.35,1.15 10.1,3.04 10.11,13.46l-0 46.34c-0.05,10.32 -0.36,11.48 -10.38,12.68l-0.03 4.36 37.65 -0 -0.11 -4.38 0 0z"/>
   <path class="fil1" d="M58.22 42.22c-12.52,3.9 -6.46,22.65 6.08,18.34 11.63,-3.99 6.13,-22.14 -6.08,-18.34z"/>
   <path class="fil2" d="M563.4 43.74c1.92,-1.68 1.6,-5.86 2.56,-8.14 0.64,1.84 0.68,7.31 2.71,8.15 1.53,-1.32 2.69,-8.61 2.87,-11.39 -1.36,0.57 -0.95,-1.07 -1.83,3.63 -0.3,1.63 -0.65,3.27 -1.04,4.81 -1.08,-1.98 -0.61,-7 -2.64,-8.43 -2.32,1.34 -0.74,4.09 -2.64,7.59 -0.08,-0.13 -0.2,-0.48 -0.23,-0.4 -0.52,1.36 -0.49,-6.07 -2.41,-7.14 -0.41,0.77 -0.46,0.65 -0.09,2.57l1.29 6.17c0.53,2.33 -0.07,1.54 1.43,2.59l0 0z"/>
   <path class="fil2" d="M637.2 43.57l0.09 -7.57c0.58,1.08 0.99,2.4 1.42,3.77 0.17,0.54 0.44,1.57 0.61,2 0.06,0.16 0.24,0.61 0.32,0.76 0.35,0.65 0.44,0.66 0.76,1.05 1.94,-1.68 1.11,-3.6 3.18,-7.06 0.14,1.84 -0.64,6.52 1.04,7.08 0.77,-1.51 0.67,-9.66 0,-11.14 -3.46,0.31 -1.29,4.73 -4.47,8.05 -0.37,-1.55 -0.81,-2.83 -1.33,-4.48 -0.66,-2.07 -0.3,-2.9 -2.1,-3.68 -1.13,1.42 -0.68,3.37 -0.69,5.78 -0.03,7.51 -0.34,4.79 1.18,5.43l-0 0z"/>
   <path class="fil2" d="M465.38 43.44c0.9,-0.28 1.25,0.73 1.22,-3.17 -0.01,-1.62 -0.07,-2.86 0.1,-4.5 0.26,1.63 2.04,6.96 3.36,7.75l2.89 -7.67c0.11,1.43 0.1,2.41 0.09,3.86 -0,0.36 -0.04,1.88 0,2.13 0.31,1.92 0.19,1.01 0.71,1.76 0.88,-1.55 1,-9.76 0,-11.23 -1.49,0.48 -0.71,-1.08 -2.22,3.6 -0.54,1.68 -0.97,3.16 -1.49,4.81 -0.81,-1.14 -1.27,-2.8 -1.8,-4.52 -1.53,-4.93 -0.57,-3.45 -2.41,-3.84 -1.34,2.4 -0.47,7.93 -0.45,11.01l0 0z"/>
   <path class="fil2" d="M543.89 43.6c1.24,-1.77 0.57,-4.3 0.77,-7.96 1.31,1.88 3.13,6.72 5.03,7.99 0.09,-0.13 0.25,-0.47 0.27,-0.4 0.03,0.07 0.2,-0.29 0.24,-0.42 0.27,-0.96 0.79,-8.93 -0.51,-10.47 -1.02,1.68 -0.5,5.82 -0.63,7.92 -1.44,-1.75 -2.93,-6.8 -5.18,-7.95 -0.78,1.44 -0.87,9.51 0,11.29l0 0z"/>
   <path class="fil2" d="M838.16 43.59c0.5,-0.7 0.42,0.58 0.73,-1.73l0.05 -6.2 3.83 6.82c0.93,1.38 0.15,0.44 1.19,1.14 1.15,-1.6 1.26,-9.8 0,-11.25 -0.34,0.56 -0.34,-0.34 -0.54,1.55l-0.07 6.35c-1.44,-1.71 -2.96,-6.84 -5.2,-7.93 -0.82,1.45 -0.51,3.23 -0.5,5.28 0,1.04 -0.05,2.16 -0.03,3.18l0.54 2.79 -0 0z"/>
   <path class="fil2" d="M657.8 43.6l0.42 -7.67 1.41 1.95c1.39,2.6 2.34,5.61 4.14,5.68 0.44,-2.52 0.7,-9.11 -0.17,-11.17 -1.39,0.74 -0.92,0.75 -0.9,3.07 0.01,1.52 0.02,2.98 -0.01,4.5 -1.43,-1.29 -1.72,-2.26 -2.66,-4.05 -2.31,-4.38 -0.92,-3.06 -2.76,-3.49 -0.17,0.47 -1.19,10.55 0.53,11.18l0 0z"/>
   <path class="fil2" d="M786.48 43.59c0.58,-0.94 0.69,1.52 0.62,-3.86 -0.02,-1.43 -0.01,-2.66 0.11,-4.09 1.01,1.76 3.23,6.75 5.07,7.98 0.08,-0.13 0.22,-0.47 0.25,-0.39l0.41 -5.08c-0,-1.03 0.06,-2.19 0.04,-3.19 -0.06,-2.36 -0.16,-1.89 -0.7,-2.6 -0.48,0.68 -0.66,-1.09 -0.62,3.68 0.01,1.44 0,2.8 -0.06,4.23 -0.93,-1.03 -1.72,-2.63 -2.53,-4.17 -1.03,-1.94 -0.85,-3.3 -3.12,-3.74 -0.1,2.15 -0.63,9.33 0.53,11.23l-0 0z"/>
   <path class="fil2" d="M809.08 38.62c2.18,-0.05 4.07,-0.47 3.95,2.1 -0.08,1.65 -0.46,1.8 -3.94,1.73l-0.01 -3.83 0 0zm0.2 -5.02c2.43,-0.04 2.04,-0.29 3.71,0.85l-0.15 2.11c-1.52,1.05 -1.17,0.8 -3.68,0.78l0.13 -3.74zm-1.46 9.94c8.04,0.91 7.26,-3.39 5.16,-5.46 1.78,-1.98 1.69,-2.69 0.58,-5.33l-5.73 -0.38 -0.02 11.17 0 0z"/>
   <path class="fil2" d="M796.79 33.57l3.54 0.3c1.15,2.85 1.83,5.91 -0.67,8.51l-3.03 -0.05 0.16 -8.77 0 0zm-1.46 10.04l5.35 -0.17c1.69,-2.09 2.4,-4.37 1.65,-7.9 -0.78,-3.63 -3.37,-3.24 -6.9,-3.15l-0.1 11.22 0 0z"/>
   <path class="fil2" d="M532.42 33.61c3.64,-0.06 4.52,0.56 4.44,4.54 -0.07,3.82 -0.75,4.41 -4.64,4.28l0.2 -8.81 0 0zm-1.5 10.07l5.26 -0.17c1.88,-2.42 2.45,-4.41 1.72,-7.86 -0.79,-3.69 -2.87,-3.29 -6.85,-3.3l-0.13 11.33z"/>
   <path class="fil2" d="M506.69 33.5l3.68 0.38 -0.28 3.82 -3.46 0.17 0.07 -4.36 0 0zm-1.4 10.07c1.87,-0.75 1.06,1.66 1.35,-4.23 2.02,-0.21 1.78,-0.4 2.65,1.2 0.32,0.6 0.29,0.85 0.61,1.48l1.28 1.63c0.31,-0.61 0.51,0.17 0.35,-1.12 -0.01,-0.07 -0.36,-0.98 -0.41,-1.08 -0.36,-0.81 -0.69,-1.33 -1.07,-2.25 2.05,-2.21 2.23,-3.34 0.87,-6.52l-5.53 -0.36 -0.1 11.26 0 0z"/>
   <path class="fil2" d="M616.18 33.42l3.12 0.5c1.89,3.43 0.02,4.05 -3.23,4.05l0.1 -4.55 0 0zm-0.57 10.2l0.51 -4.43c1.99,0.08 1.86,-0.15 2.69,1.53 1.15,2.35 0.11,1.93 2.46,2.95l-1.8 -4.48c2.02,-2.53 2.78,-4.18 0.23,-6.65l-4.91 -0.14c-0.08,2.34 -1.04,10.53 0.82,11.21l0 0z"/>
   <path class="fil2" d="M481.13 42.74c-4.9,-0.1 -3.61,-6.81 -2.12,-9.37l2.78 0.04c1.77,2.37 2.05,7.37 -0.65,9.33zm1.24 -10.38l-3.94 -0.08c-2.58,2.77 -3.23,11.85 2.16,11.63 2.61,-0.11 3.45,-2.02 3.66,-4.71 0.27,-3.36 -0.07,-4.62 -1.88,-6.84l0 0z"/>
   <path class="fil2" d="M720.48 42.7c-2.99,0.2 -3.39,-0.49 -3.65,-3.48 -0.19,-2.18 -0.13,-5.24 1.75,-5.81 4.36,-1.31 4.15,6.71 1.9,9.29l0 0zm-3.09 -10.26c-3.57,3.87 -2.04,13.98 3.82,11.08 2.34,-1.16 4.89,-12.7 -3.82,-11.08z"/>
   <path class="fil2" d="M649.99 42.68c-1.52,-1.74 -3.96,-10.16 2.49,-9.2 0.99,1.54 1.45,3.75 1.12,6.26 -0.36,2.68 -0.82,3.22 -3.61,2.94l0 0zm2.51 1.1c3.42,-2.71 3.23,-8.6 0.56,-11.32 -4.45,-0.88 -5.81,0.96 -5.87,5.14 -0.07,4.59 0.8,6.56 5.31,6.19z"/>
   <path class="fil2" d="M780.03 34.9c0.36,0.48 0.1,-0.21 0.69,1.1l0.81 3.58 -2.74 -0.15 1.24 -4.52 0 0zm-3.48 8.77c2.38,-1.31 0.68,-0.01 2.01,-2.78l3.16 -0.15c0.88,1.8 0.12,1.55 1.58,2.92 0.82,-1.7 0,-2.76 -0.78,-5.77 -0.95,-3.65 -0.74,-4.69 -2.39,-5.67 -1.76,1.37 -3.22,8.83 -3.6,11.46l0 0z"/>
   <path class="fil2" d="M687.33 43.59c0.94,-1.78 0.34,-2.93 0.74,-5.17l3.83 -0.03c0.47,2.28 -0.12,3.38 0.7,5.2 0.73,-0.86 0.85,1.36 0.84,-5.45 -0.01,-3.02 0.51,-4.43 -0.84,-5.73 -0.74,1.35 -0.45,2.86 -0.5,4.74l-4.21 -0.02c-0.04,-2.05 0.31,-3.37 -0.56,-4.72 -0.63,0.68 -0.56,-0.94 -0.8,2 -0.17,2.09 -0.39,7.63 0.8,9.18l0 0z"/>
   <path class="fil2" d="M630.14 34.61l1.58 4.95 -2.8 0.01 1.22 -4.96 0 0zm-2.92 9.02c2.38,-2.83 -0.44,-2.95 4.84,-2.88 0.37,1.69 0,2.33 1.49,2.88 0.57,-0.99 -1.6,-10.25 -3.16,-11.4 -1.52,0.87 -0.9,0.18 -1.5,2.32 -0.3,1.09 -0.49,1.83 -0.8,2.92l-1.26 4.55c-0.2,2.97 -0.21,0.43 0.39,1.6l0 0z"/>
   <path class="fil2" d="M592.53 34.72l1.22 4.85 -2.8 -0.1 1.57 -4.75 0 0zm-3.29 8.87c0.97,-0.77 0.18,0.41 1.03,-1.28 0.19,-0.39 0.2,-0.76 0.56,-1.43l3.36 -0.18c0.38,1.87 -0.04,1.77 1.39,2.94 0.42,-0.96 0.57,-0.69 -0.03,-2.79 -0.29,-1.01 -0.53,-1.85 -0.81,-2.91 -0.55,-2.02 -0.7,-4.66 -2.32,-5.71 -1.5,1.07 -1.66,3.49 -2.19,5.35 -0.74,2.6 -1.58,4.57 -0.97,6.01l0 -0z"/>
   <path class="fil2" d="M759.96 34.71l1.58 4.75 -2.81 0.11 1.22 -4.86 0 0zm-3.01 8.87c1.54,-1.26 0.59,-0.88 1.58,-2.72l3.35 -0.17c0.43,2.24 0.05,1.92 1.4,2.94 0.17,-0.4 0.36,-0.21 0.34,-1.11l-1.19 -4.57c-0.54,-2.01 -0.7,-4.65 -2.31,-5.72 -1.53,1.09 -1.64,3.44 -2.17,5.32 -0.26,0.91 -0.57,1.88 -0.87,2.91 -0.05,0.18 -0.41,1.33 -0.43,1.66 -0.17,2.33 -0.05,0.68 0.31,1.47l0 0z"/>
   <path class="fil2" d="M822.87 42.2c0.94,-1.43 0.69,-2.67 0.69,-4.58 0,-2.39 0.39,-3.9 -0.69,-5.23 -0.96,1.32 -0.63,2.81 -0.61,4.7 0.02,1.87 0.16,3.09 -0.41,4.74 -5.53,3.98 -2.87,-6.66 -4.25,-9.38 -1.65,0.85 -1.04,6.77 -0.7,8.66 0.57,3.17 3.42,2.98 4.61,2.51 1.91,-0.75 0.64,-0.16 1.37,-1.41l0 0z"/>
   <path class="fil2" d="M525.53 34.82l1.11 4.74 -2.72 0.02 0.84 -3.69c0.36,-0.73 0.45,-0.69 0.76,-1.07l0 0zm-3.26 8.78l0.51 -0.7c1.34,-2.61 0.48,-2.21 4.29,-2.16 0.36,1.7 0.03,2.36 1.53,2.89 0.64,-1.16 -1.84,-10.29 -3.16,-11.41 -1.9,1.04 -1.91,3.98 -3.13,8.09 -0.75,2.54 -0.69,2.16 -0.04,3.29l0 0z"/>
   <path class="fil2" d="M583.04 33.41l3.66 0.6 -0.36 3.53 -3.48 0.19 0.17 -4.32 0 0zm-0.17 10.07l0.03 -4.36c2.94,-0.2 3.19,0.19 4.81,-1.5 1.74,-5.55 -1.69,-5.3 -6.01,-5.24 -0.15,1.96 -0.11,3.81 -0.12,5.77 -0.03,7.65 -0.35,4.83 1.28,5.34l0 0z"/>
   <path class="fil2" d="M668.82 43.83l4.17 -0.41 0.4 -5.64 -3.13 -0.02 1.76 1.95c-0.03,5.28 -3.44,2.76 -3.94,1.39 -0.98,-2.67 -0.28,-5.91 0.92,-7.54 0.83,-0.53 2.68,0.38 4.08,-0.7 -6.64,-4.21 -9.1,7.04 -4.26,10.95l0 0z"/>
   <path class="fil2" d="M708.7 33.49l3.59 0.35 0.07 3.04c-1.37,1.08 -1.11,1.06 -3.7,0.88l0.04 -4.27zm-0.8 10.08c1.13,-1.64 0.45,-2.52 0.94,-4.5 4.37,-0.34 5.39,-0.36 4.78,-5.19 -2.08,-2.17 -2.86,-1.64 -6.23,-1.45 -0.12,1.92 -0.08,3.78 -0.08,5.71 -0.01,2.24 -0.36,3.86 0.6,5.44l0 0z"/>
   <path class="fil2" d="M454.44 43.66c1.66,0.01 4.71,0.63 5.38,-0.78l-4.46 -0.48 0.05 -4 3.86 -0.01 -0.22 -1.23 -3.7 -0.03 0.06 -3.54 4.39 -0.03c-0.76,-1.53 1.95,-1.26 -5.65,-1.21 -0.21,3.01 -0.6,8.6 0.29,11.3l0 0z"/>
   <path class="fil2" d="M599.55 33.51l3.52 0.33c0.85,3.38 -0,4.21 -3.54,3.92l0.02 -4.25 0 0zm-0.81 10.06c1.17,-1.62 0.5,-2.52 0.95,-4.49 4.48,-0.4 5.39,-0.23 4.8,-5.28 -2.21,-2.05 -2.86,-1.59 -6.23,-1.36l-0.04 9.9c0.18,0.91 0.26,0.77 0.52,1.23l0 0z"/>
   <path class="fil2" d="M514.1 43.41c1.57,0.39 5.17,0.9 5.77,-0.53l-4.46 -0.46 0.04 -4.04c0.42,0 1.97,0.06 2.1,0.03 2.71,-0.5 0.72,-0.01 1.65,-0.79 -1.5,-0.71 -1.88,-0.46 -3.81,-0.45l0.07 -3.59c2.26,-0 2.86,0.37 4.36,-0.7l-2.25 -0.56c-0.97,-0.05 -2.34,0.04 -3.37,0.04l-0.1 11.06 0 0z"/>
   <path class="fil2" d="M901.59 43.59c4.23,0.27 4.8,0.56 5.67,-0.71l-4.44 -0.59 0.04 -3.73c2.08,-0.34 2.5,0.26 3.8,-0.94l-3.85 -0.67 0.05 -3.16c2.27,-0.44 2.88,0.32 4.4,-0.91l-2.63 -0.56c-1.07,-0.01 -1.98,0.07 -3.03,0.2l-0.01 11.08 0 0z"/>
   <path class="fil2" d="M874.62 43.46c2.18,0.35 4.39,0.7 5.72,-0.58l-4.43 -0.59 0.04 -3.74c0.83,-0.12 1.28,-0.05 1.79,-0.12 0.46,-0.07 0.53,-0.01 0.96,-0.14 1.24,-0.39 0.39,-0.05 1.05,-0.68l-3.85 -0.66 0.05 -3.17c2.29,-0.44 2.9,0.31 4.4,-0.91l-2.61 -0.56c-1.04,-0.01 -2.03,0.07 -3.05,0.18l-0.07 10.96 -0 0z"/>
   <path class="fil2" d="M830.53 40.77l-1.05 1.81c-2.65,0.4 -1.87,-0.66 -3.87,1.08 3.73,0.41 7.37,0.35 5.87,-4.47 -1.25,-1.72 -0.7,-0.92 -2.89,-2.04 -1.83,-0.94 -3.31,-3.34 0.63,-3.76 2.03,-0.22 0.7,0.5 2.18,-0.52 -2.81,-1.79 -6.49,-0.55 -5.72,2.99 0.72,3.31 3.64,1.43 4.85,4.91l-0 0z"/>
   <path class="fil2" d="M867.68 39.61c0.07,1.74 0.34,2.59 -1.23,3.05 -1.35,0.39 -2.07,-0.46 -3.58,0.22 0.19,0.23 -0.05,0.9 2.2,1.08 4.68,0.36 4.65,-4.39 2.69,-5.91 -1.41,-1.09 -3.73,-0.79 -3.62,-3.05 0.11,-2.14 2.72,-1.57 3.02,-1.61 0.34,-0.04 -0.37,1 1.54,-0.51 -2.42,-1.58 -5.79,-1.05 -5.85,2.11 -0.07,3.49 2.73,3.03 4.83,4.63l-0 0z"/>
   <path class="fil2" d="M612.58 42.95l-4.73 -0.4 0.1 -4.17c2.47,-0.6 4.24,0.5 3.27,-1.29l-3.23 -0.05 0.04 -3.31c2.25,-0.29 2.98,0.3 4.37,-0.85 -1.38,-0.85 -3.63,-0.56 -5.64,-0.45l-0.07 11.14 4.19 0.13c2.86,-0.21 0.81,-0.08 1.71,-0.75l-0 0z"/>
   <path class="fil2" d="M491.01 40.77c-1.4,3.8 -2.09,0.25 -4.99,2.88 3.27,0.36 3.13,0.55 5.73,-0.6 1.15,-4.75 0.47,-4.24 -2.81,-5.87 -1.58,-0.78 -3.3,-3.39 0.62,-3.82 0.2,-0.02 0.86,0.02 1.04,-0.01 1.29,-0.2 0.63,-0.08 1.26,-0.47 -2.75,-1.67 -6.55,-0.62 -5.72,2.95 0.77,3.33 3.69,1.47 4.86,4.95l0 0z"/>
   <path class="fil2" d="M577.96 40.77c-1.42,3.72 -2.03,0.32 -4.97,2.88 3.28,0.36 3.17,0.59 5.71,-0.67 2.17,-7.64 -6.63,-4.82 -4.2,-8.9 0.54,-0.9 1.05,-0.64 2.07,-0.74 1.93,-0.2 0.66,0.57 2.24,-0.48 -2.84,-1.77 -6.48,-0.51 -5.72,2.97 0.72,3.28 3.65,1.46 4.86,4.92l0 0z"/>
   <path class="fil2" d="M855.4 32.7l-0.56 4.01c2.24,1.69 3.42,1.85 4.86,2.98 0.07,1.56 0.15,2.51 -1.17,2.92 -2.35,0.72 -1.56,-1.11 -3.71,0.97 2.95,0.45 3.68,0.85 6.01,-1.09 0.87,-5.41 -1.42,-3.68 -3.86,-5.75 -0.53,-0.45 -2.55,-3.01 1.77,-3.37 0.55,-0.05 0.49,0.07 0.98,-0.01 1.41,-0.24 0.22,0.16 1.01,-0.48 -1.43,-0.97 -4.14,-1.07 -5.33,-0.18l-0 -0z"/>
   <path class="fil2" d="M558.74 42.98l-4.44 -0.42c-0.78,-1.79 -0.64,-2.33 -0.21,-4.24 0.79,-0.15 1.7,-0.13 2.02,-0.19 1.66,-0.34 1.4,0.47 1.25,-1.02l-3.22 -0.06 0.04 -3.34 3.35 -0.22c1.19,-0.32 0.37,-0.05 1.03,-0.62 -1.36,-0.86 -3.65,-0.55 -5.64,-0.47l-0.09 11.2c1.82,0.08 4.46,0.56 5.9,-0.63l-0 0z"/>
   <path class="fil2" d="M701.58 43.11l-4.71 -0.61 -0.19 -4.28 3.3 -0.16c1.07,-0.8 0.43,0.51 0.19,-0.91l-3.19 -0.07 0.04 -3.43c2.12,-0.12 2.65,0.29 4.33,-0.78 -0.14,-0.07 -0.34,-0.34 -0.43,-0.2 -0.09,0.14 -0.32,-0.15 -0.45,-0.17l-4.72 -0.11 -0.1 11.25c2.13,0.06 4.37,0.4 5.91,-0.53l-0 0z"/>
   <path class="fil2" d="M445.49 43.45l0.2 -5.19 4.52 -0.03c0.22,1.48 0.09,1.44 0.15,2.55 0.17,2.9 0.18,1.9 0.95,2.62l-0.23 -11.12 -0.88 4.87 -4.23 -0.07c-0.03,-2.34 0.38,-3.37 -0.69,-4.67 -0.91,1.24 -0.86,7.69 -0.64,9.5 0.32,2.63 -0.36,0.96 0.85,1.55l0 0z"/>
   <path class="fil2" d="M754.56 42.51c-3.22,0.3 -4.76,0.77 -5.36,-2.32 -1.64,-8.44 3.19,-5.96 5.26,-7.31 -8.36,-4.95 -9.35,12.62 -1.78,11.09 3.27,-0.66 0.92,-0.14 1.88,-1.45l-0 0z"/>
   <path class="fil2" d="M847.18 43.19l5.61 0.24c-2.01,-1.35 -1.55,-0.54 -4.2,-0.9 -0.77,-1.78 -0.63,-2.29 -0.21,-4.22 3.64,-0.66 3.48,0.54 3.26,-1.22l-3.21 -0.05 0.04 -3.35c2.26,-0.25 3.04,0.31 4.39,-0.83 -1.37,-0.86 -3.66,-0.55 -5.66,-0.47l-0.02 10.79 0 0z"/>
   <path class="fil2" d="M725.36 43.52l5.68 0.19c-1.92,-1.9 -0.86,-0.99 -4.2,-1.29 -0.88,-4.27 0.82,-8.16 -1.01,-10.02 -1.34,2.37 -0.49,8.01 -0.47,11.12l0 0z"/>
   <path class="fil2" d="M882.69 43.3c1.85,0.57 4.2,0.9 5.62,-0.42 -1.44,-0.63 -2.48,-0.38 -4.33,-0.44 -0.08,-2.89 0.73,-7.74 -0.47,-9.99 -0.99,0.53 -0.86,-1.27 -0.83,4.64 0.01,2.07 0,4.14 0.01,6.21l0 0z"/>
   <path class="fil2" d="M678.6 32.88c3.39,2.81 1.8,-4.22 2.43,8.46 0.09,1.86 -0.1,0.97 0.5,2.22 0.53,-0.68 0.81,1.07 0.74,-4.36 -0.02,-1.75 -0.02,-3.51 0.03,-5.27l2.01 -0.84c0.08,-0.04 0.24,-0.13 0.35,-0.21 -1.31,-0.8 -4.71,-0.97 -6.07,0l0 0z"/>
   <path class="fil2" d="M436.7 33.49l2.26 -0c0.53,2.66 -0.9,9.42 1.04,10.11 1.25,-12.93 -1.33,-8.01 2.73,-10.73 -0.42,-0.24 -0.26,-0.34 -1.16,-0.48l-4.86 -0.04 0 1.14 -0 0z"/>
   <path class="fil2" d="M494.11 33.49c2.94,0.07 2.4,-1.52 2.4,9.98 1.46,-0.44 0.99,0.27 1.28,-1.55l-0.02 -7.98c0.49,-0.31 -0.01,0 0.89,-0.36l1.48 -0.7c-1.4,-0.87 -4.24,-0.52 -6.03,-0.52l0.01 1.13 0 0z"/>
   <path class="fil2" d="M765.88 43.54l5.68 0.16c-1.1,-1.15 -0.06,-0.8 -1.95,-1.24 -0.06,-0.01 -1.89,-0 -2.19,-0.02 -1.01,-3.78 0.7,-8.08 -0.97,-10.02 -1.08,1.53 -0.58,9.17 -0.56,11.12l0 -0z"/>
   <path class="fil2" d="M893.62 32.88l0.68 0.37c2.45,1.06 1.77,-0.7 1.77,10.34 1.63,-0.74 1.21,1.91 1.2,-7.56 -0,-3.89 0.6,-1.72 2.43,-3.16 -1.3,-0.87 -4.85,-0.78 -6.09,0l0 0z"/>
   <path class="fil2" d="M736.31 32.88l2.32 1.05 0.18 9.66c2.01,-0.56 0.86,-4.62 1.18,-9.66l2.34 -1.05c-0.18,-0.09 0.43,-0.51 -2.78,-0.58l-3.24 0.58 -0 0z"/>
   <path class="fil2" d="M890.9 43.59l0.53 -0.78c0.58,-1.96 0.76,-9 -0.53,-10.39 -0.83,1.3 -0.6,6.31 -0.56,8.39 0.01,0.31 0.02,1.28 0.07,1.54 0.4,2.15 -0.09,0.16 0.49,1.24l0 0z"/>
   <path class="fil2" d="M733.74 43.58c0.94,-1.64 0.58,-3.26 0.57,-5.44 -0,-2.24 0.38,-4.35 -0.57,-5.72 -0.55,0.63 -0.54,-0.69 -0.76,2 -0.16,2 -0.34,7.67 0.76,9.17z"/>
   <path class="fil2" d="M835 43.57c0.74,-1.6 0.46,-3.31 0.46,-5.43 -0,-1.94 0.3,-4.36 -0.46,-5.72 -0.8,0.77 -0.85,-1.93 -0.83,5.19 0.01,2.96 -0.51,4.42 0.83,5.96l0 0z"/>
   <path class="fil2" d="M744.82 43.6c0.1,-0.13 0.25,-0.46 0.28,-0.38 0.03,0.07 0.21,-0.29 0.24,-0.41l0.26 -7.87c-0.08,-2.61 -0.32,-2.03 -0.79,-2.54 -1.12,1.74 -0.61,6.13 -0.57,8.39 0.05,3.08 0.41,2.5 0.57,2.8z"/>
   <polygon class="fil3" points="-0,0 910.95,0 910.95,171.63 -0,171.63 "/>
  </g>
 </g>
</svg>
