<?xml version="1.0" encoding="UTF-8"?>
<!DOCTYPE svg PUBLIC "-//W3C//DTD SVG 1.1//EN" "http://www.w3.org/Graphics/SVG/1.1/DTD/svg11.dtd">
<!-- Creator: CorelDRAW 2019 (64-Bit) -->
<svg xmlns="http://www.w3.org/2000/svg" xml:space="preserve" width="6.78904in" height="1.12044in" version="1.1" style="shape-rendering:geometricPrecision; text-rendering:geometricPrecision; image-rendering:optimizeQuality; fill-rule:evenodd; clip-rule:evenodd"
viewBox="0 0 1186.62 195.84"
 xmlns:xlink="http://www.w3.org/1999/xlink">
 <defs>
  <style type="text/css">
   <![CDATA[
    .fil0 {fill:none}
    .fil2 {fill:#E6E6E6}
    .fil1 {fill:white}
   ]]>
  </style>
    <clipPath id="id0">
     <path d="M-0 0l1186.62 0 0 195.84 -1186.62 0 0 -195.84z"/>
    </clipPath>
 </defs>
 <g id="Layer_x0020_1">
  <metadata id="CorelCorpID_0Corel-Layer"/>
  <g id="_2405248027232">
   <polygon class="fil0" points="-0,0 1186.62,0 1186.62,195.84 -0,195.84 "/>
   <g>
   </g>
   <g style="clip-path:url(#id0)">
    <g id="_2405248027520">
     <path class="fil1" d="M510.87 139.55l12.51 0.03 0.12 -56.66c2.91,0.43 1,0.08 2.19,1l14.97 19.04c0.08,0.08 0.2,0.19 0.28,0.27l1.65 1.55c0.22,0.21 0.49,0.44 0.82,0.8 1.57,1.72 0.59,1.98 3.72,5.5l0.49 0.59c0.07,0.09 0.16,0.22 0.23,0.3 3.04,3.83 1.09,2.53 4.41,5.21l2.7 3.72c4.07,4.42 -0.32,1.12 5.98,7.52l0.77 0.84c1,1.41 0.26,0.66 0.99,2.25l2.92 3.62c1.26,1.59 -0.1,0.17 1.43,1.65 2.82,2.74 5.29,1.63 11.62,1.65l0.04 -82.05 -12.65 -0.02 -0.04 55.28c-1.37,-0.11 -1.43,0.13 -2.73,-0.54 -0.95,-0.49 -0.11,0.03 -0.95,-0.8l-1.98 -2.86c-0.06,-0.1 -0.14,-0.24 -0.2,-0.33l-1.84 -2.43c-0.07,-0.09 -0.17,-0.21 -0.25,-0.29l-3.92 -5.35c-0.09,-0.14 -0.34,-0.52 -0.44,-0.64l-9.9 -12.16c-5.17,-5.46 -1.02,-1.5 -3.56,-4.95l-6.21 -7.86c-0.08,-0.08 -0.19,-0.19 -0.27,-0.27 -0.08,-0.08 -0.19,-0.19 -0.26,-0.28 -0.08,-0.08 -0.18,-0.2 -0.25,-0.29 -0.07,-0.08 -0.17,-0.21 -0.25,-0.29 -0.07,-0.09 -0.17,-0.21 -0.24,-0.3l-1.16 -1.54c-0.07,-0.09 -0.18,-0.21 -0.25,-0.29l-6.49 -8.12c-0.85,-0.79 -0.69,-0.55 -1.66,-1.51l-1.35 -1.8c-0.49,-1.08 -0.22,-1.3 -0.83,-2.32l-10.13 -0.17 -0.05 83.3 0 0z"/>
     <path class="fil1" d="M599.97 139.45l68.89 0.19 0.14 -83.13 -12.59 -0.23 -0.09 70.7c-12.08,1.21 -29.24,0.45 -42.14,0.4l-0.17 -70.9 -13.99 -0.11 -0.04 83.07 0 0z"/>
     <path class="fil1" d="M831.01 104.45l-0.17 22.79 -57.13 0.14 -0.11 10.97 69.41 0.15 0.07 -46.81 -56.46 -0.1 -1.99 -0.28 0.32 -23.71c9.64,-2.46 44.26,0.91 56.79,-0.93l-0.14 -9.03 -67.63 -0.11 -0.02 44.94 56.7 -0.01 0.37 1.99 0 0z"/>
     <path class="fil1" d="M690.53 139.84l64.96 0.06c0.77,-2.52 0.66,-9.63 0.45,-12.49l-51.11 -0.06c-1.13,-12.28 0.97,-66.45 -0.52,-71.19l-13.65 -0.02 -0.14 83.7 0 0z"/>
     <path class="fil1" d="M831.01 104.45l-0.37 -1.99 -56.7 0.01 0.02 -44.94 67.63 0.11 0.14 9.03c-12.53,1.83 -47.15,-1.54 -56.79,0.92l-0.32 23.71 1.99 0.28 -0.25 -22.54c4.87,-1.4 45.96,0.53 56.69,-0.55l0.26 -12.22c-9.12,-1.27 -25.86,-0.29 -35.69,-0.29 -9.36,0 -26.96,-0.98 -35.25,0.56l-0.01 47.32 58.65 0.58 0 0z"/>
     <path class="fil2" d="M390.33 128.95c2.36,3.06 6.9,9.13 9.16,12.16 2.27,3.03 2.27,3.03 2.27,9.55 0,6.51 0,19.54 -0.1,26.18 -0.1,6.64 -0.29,6.9 -0.54,6.93 -0.26,0.03 -0.58,-0.16 -9.04,-3.89 -8.46,-3.74 -25.06,-11.01 -33.36,-14.65 -8.3,-3.64 -8.3,-3.64 -8.27,-21.26 0.03,-17.62 0.1,-52.87 0.19,-70.87 0.1,-18.01 0.22,-18.77 0.51,-19.67 0.29,-0.89 0.73,-1.92 1.53,-3 0.8,-1.09 1.95,-2.23 3.19,-2.97 1.24,-0.73 2.59,-1.05 3.89,-1.18 1.31,-0.13 2.59,-0.06 3.83,0.38 1.24,0.45 2.46,1.28 9.74,11.05 7.28,9.77 20.62,28.48 28.09,39.08 7.47,10.6 9.07,13.09 9.93,14.4 0.86,1.31 0.99,1.44 3.64,3.1 2.65,1.66 7.82,4.85 12.1,7.31 4.28,2.46 7.66,4.18 9.45,5.08 1.79,0.89 1.98,0.96 2.17,-13.15 0.19,-14.11 0.38,-42.4 0.51,-56.57 0.13,-14.17 0.19,-14.24 0.03,-14.43 -0.16,-0.19 -0.54,-0.51 -4.57,-2.3 -4.02,-1.79 -11.68,-5.04 -15.52,-6.67 -3.83,-1.63 -3.83,-1.63 -3.86,-0.1 -0.03,1.53 -0.1,4.6 -0.13,14.05 -0.03,9.45 -0.03,25.28 -0.03,33.2 0,7.92 0,7.92 -0.22,7.47 -0.22,-0.45 -0.67,-1.34 -2.81,-4.31 -2.14,-2.97 -5.97,-8.01 -7.92,-10.85 -1.95,-2.84 -2.01,-3.48 -2.11,-13.31 -0.1,-9.83 -0.22,-28.86 -0.29,-38.37 -0.06,-9.51 -0.06,-9.51 0.7,-9.1 0.77,0.41 2.3,1.24 10.6,4.88 8.3,3.64 23.37,10.09 31,13.44 7.63,3.35 7.82,3.61 7.85,5.2 0.03,1.6 -0.1,4.53 -0.06,19.41 0.03,14.88 0.22,41.69 0.26,56.83 0.03,15.13 -0.1,18.58 -0.13,20.85 -0.03,2.27 0.03,3.35 -0.22,4.34 -0.26,0.99 -0.83,1.88 -1.69,2.84 -0.86,0.96 -2.01,1.98 -3.77,2.59 -1.76,0.61 -4.12,0.8 -6.74,0.26 -2.62,-0.54 -5.49,-1.82 -11.01,-5.04 -5.52,-3.22 -13.7,-8.4 -18.8,-11.78 -5.11,-3.38 -7.15,-4.98 -10.98,-9.74 -3.83,-4.76 -9.45,-12.67 -14.91,-20.34 -5.46,-7.66 -10.76,-15.07 -13.79,-19.25 -3.03,-4.18 -3.8,-5.14 -4.18,-5.62 -0.38,-0.48 -0.38,-0.48 -0.45,-0.32 -0.06,0.16 -0.19,0.48 -0.32,0.73 -0.13,0.26 -0.26,0.45 -0.32,14.05 -0.06,13.6 -0.06,40.61 -0.06,54.11 0,13.5 0,13.5 0.13,13.6 0.13,0.1 0.38,0.29 4.25,2.04 3.86,1.76 11.33,5.08 15.07,6.74 3.74,1.66 3.74,1.66 3.7,1.47 -0.03,-0.19 -0.1,-0.57 -0.24,-6.86 -0.14,-6.29 -0.37,-18.48 -0.45,-24.61 -0.08,-6.13 -0.02,-6.19 0.06,-6.23 0.08,-0.03 0.18,-0.03 0.32,0 0.14,0.03 0.34,0.1 2.7,3.16l0 0z"/>
    </g>
   </g>
   <polygon class="fil0" points="-0,0 1186.62,0 1186.62,195.84 -0,195.84 "/>
  </g>
 </g>
</svg>
