<?xml version="1.0" encoding="UTF-8"?>
<!DOCTYPE svg PUBLIC "-//W3C//DTD SVG 1.1//EN" "http://www.w3.org/Graphics/SVG/1.1/DTD/svg11.dtd">
<!-- Creator: CorelDRAW 2019 (64-Bit) -->
<svg xmlns="http://www.w3.org/2000/svg" xml:space="preserve" width="6.41472in" height="1.12044in" version="1.1" style="shape-rendering:geometricPrecision; text-rendering:geometricPrecision; image-rendering:optimizeQuality; fill-rule:evenodd; clip-rule:evenodd"
viewBox="0 0 1056.04 184.46"
 xmlns:xlink="http://www.w3.org/1999/xlink">
 <defs>
  <style type="text/css">
   <![CDATA[
    .fil0 {fill:none}
    .fil1 {fill:#05ADED}
    .fil2 {fill:white}
   ]]>
  </style>
 </defs>
 <g id="Layer_x0020_1">
  <metadata id="CorelCorpID_0Corel-Layer"/>
  <g id="_2441616591648">
   <rect class="fil0" x="3.12" y="16.03" width="105.64" height="155.64"/>
   <polygon class="fil0" points="-0,0 1056.04,0 1056.04,184.46 -0,184.46 "/>
   <path class="fil1" d="M760.52 103.75c-1.63,-11.77 -0.68,-34.28 4.9,-42.84 3.03,-4.65 9.79,-7.99 17.7,-5.13 7.55,2.73 5.2,11.51 5.18,20.79 -0.02,7.15 1.73,43.39 -2.09,46.7 -4.84,4.19 -22.35,4.53 -25.68,-19.53l0 0zm16.64 -86.44c2.71,9.23 14.49,-3.03 10.52,30.13 -70.89,-8.03 -61.87,68.44 -41.08,83.59 12.52,9.13 29.27,7.45 40.14,-1.58l2.86 6.44c5.69,-0.02 12.61,-1.72 18.63,-2.26 17.67,-1.59 12.45,1.2 21.43,1.77 6.03,0.38 14.89,-0.48 21.44,-0.4l18.26 0.13c0.36,-0.09 0.77,-0.27 1.08,-0.37l1.95 -0.99c-4.45,-11.49 -11.1,9.66 -10.82,-37.19 0.1,-16.48 0.22,-32.98 -0.14,-49.45l-35.87 3.37c0.5,10.17 8.29,0.14 9.77,14.54l0.07 48.78c-0.15,10.07 -0.8,12.09 -7.22,16.63 -18.59,-4.64 -13.79,-20.68 -13.76,-51.03 0.02,-22.02 0.65,-44.77 0.29,-66.65l-37.55 4.52 0 0z"/>
   <path class="fil2" d="M211.84 19.37c2.71,8.4 5.28,0.24 9.72,7.51 3,4.91 1.68,74.88 1.59,85.51 -0.2,25.09 -9.79,14.48 -10.98,24.4 7.09,0.52 15.22,-0.13 22.51,-0.13 3.9,-0 7.58,0.04 11.48,0.2 0.95,0.04 5.09,0.25 5.74,0.2l6.09 -1.83c-5.31,-10.88 -8.7,5.86 -8.68,-31.47 0.01,-6.7 -0.9,-32.8 1.06,-38.91 1.38,-4.32 14.99,-6.49 20.83,-0.46 5.31,5.49 4.1,17.12 4.06,25.07 -0.05,9.01 0.19,18.28 -0.01,27.24 -0.42,19.18 -7.58,10.71 -8.59,19.88 0.22,0.03 41.35,1.94 45.37,-1.35 -4.83,-11.05 -10.5,7.54 -10.46,-30.03 0.01,-10.73 1.12,-28.94 -1,-38.59 -5.23,-23.83 -38.36,-23.29 -50.87,-9.26l0.01 -43.63c-5.77,1.01 -36.03,4.6 -37.86,5.67l0 -0z"/>
   <path class="fil1" d="M954.12 50.53c0.69,11.07 9.04,-0.59 9.99,15.92l-0.09 51.6c-1.15,14.24 -8.81,9.15 -10.88,15.74 3,2.33 41.38,2.69 45.59,0 -4.42,-11.38 -8.3,6.88 -8.31,-32.89 -0,-10.23 -0.86,-30.57 1.11,-39.64 29.8,-8.17 25.08,13.19 24.56,53.99 -0.26,19.84 -7.79,11.04 -8.43,19.49 6.84,1.41 15.09,0.3 22.23,0.35l19.78 0.1c3.38,-0.79 1.22,0.09 3.26,-1.4 -3.11,-7.37 -6.26,-1.53 -9.07,-9.42 -3.16,-8.88 0.91,-42.9 -2.01,-58.4 -4.52,-23.97 -36.48,-24.91 -50.57,-10.96l-2.19 -8.31 -34.96 3.83 0 0z"/>
   <path class="fil1" d="M478.89 132.18c0.15,-8.58 -1.61,-34.02 2.6,-39.13 4.14,-5.03 5.22,-0.64 7.71,-6.46 -5,-4.21 -26.49,-1.55 -34.3,-1.78 -5.34,-0.15 -8.09,-0.9 -11.69,1.78 5.49,11.11 11.33,-9.08 9.97,41.39 -36.14,6.43 -42.38,-39.42 -36.71,-69.85 5.08,-27.28 22.24,-39.33 46.09,-33.51 14.27,3.48 7.21,11.64 15.27,13.16 2.64,-4.17 1.84,-14.83 1.12,-20.89 -52.89,-6.51 -91.49,6.61 -92.62,59.63 -1.59,74.3 77.97,62.68 92.58,55.66l0 0z"/>
   <path class="fil1" d="M482.48 52.27c0.85,7.31 2.99,1.54 8.92,8.58 5.34,14.72 -3.37,46.28 4.59,63.32 7.42,15.88 35.61,17.05 47.45,3.88 0.26,0.3 0.52,0.45 0.6,1.03l2.49 7.1 35.14 -3.84c-0.68,-9.58 -7.15,-0.13 -9.81,-12.32 -1.48,-6.74 -0.34,-63.01 -0.42,-72.91l-27.95 2.98c-1.29,0.07 -2.84,0.09 -4.08,0.34l-3.57 1.26c-0.28,0.11 -0.75,0.34 -1.08,0.58 3.4,7.74 6.64,1.17 9.41,9.5 1.94,5.83 1.1,53.59 0.41,59.15 -5.35,3.1 -14.69,4.09 -19.85,0.29 -10.62,-7.81 -2.61,-49.66 -5.77,-74.11 -5.23,0.21 -33.63,3.16 -36.48,5.18l0 0z"/>
   <path class="fil1" d="M626.15 94.3c0.35,3.78 0.93,20.67 0.32,23.75 -1.42,7.19 -11.46,6.69 -15.57,2.85 -3.97,-3.7 -4.5,-14.23 -1.44,-19.94 2.82,-5.26 8.99,-6.9 16.69,-6.66l0 0zm-36.23 -29.73c12.49,6.44 5.1,-10.03 26.59,-5.36 11.25,2.45 10.26,16.25 9.89,27.48 -23.54,1.84 -47.84,0.39 -45.04,29.52 1.09,11.41 6.78,17.83 17.05,19.78 15.13,2.86 19.53,-2.56 28.16,-8.75 6.17,6.11 7.28,11.06 21.23,9.29 8.28,-1.05 17.14,-6.21 17.08,-13.89l-11.46 -0.87c-5.8,-20.13 7.22,-55.8 -9.76,-69.38 -15.03,-12.02 -52.83,-5.92 -53.72,12.18l0 0z"/>
   <path class="fil1" d="M916.5 94.28c0.37,3.64 0.78,20.67 0.15,23.69 -1.4,6.64 -10.73,7.35 -15.44,2.89 -3.22,-3.05 -10.9,-27.07 15.29,-26.58l-0 0zm-35.77 -28.78c9.43,3.12 10.31,-11.5 27.34,-5.98 8.54,2.77 10.5,17.24 7.75,27.49 -24.23,1.62 -46.54,-0.17 -44.11,29.32 2.07,25.12 31.86,24.89 45.19,10.83 5.88,6.37 8.67,11 21.25,9.36 8.72,-1.14 16.96,-6.51 17.17,-14.17 -9.03,-0.7 -12.44,2.76 -12.93,-8.44 -0.3,-6.7 0.09,-14.76 0.13,-21.6 0.06,-11.95 1.58,-28.75 -5.6,-37.11 -15.14,-17.63 -59.37,-7.13 -56.18,10.3l0 0z"/>
   <path class="fil2" d="M45.83 88.39c-3.34,1.85 -8,1.68 -7.07,7.99 0.97,6.56 5.87,3.98 11.36,5.48 1.42,13.55 -2.75,24.12 -5.16,36.57 -2.31,11.93 -0.84,27.29 15.26,21.18 14.54,-5.51 1.39,-31.17 -0.05,-48.83 -1.04,-12.7 1.17,-8.49 10.93,-10.46 3.5,-10.49 0.53,-8.43 -4.81,-11.88 13.71,-3.32 23.29,-12.74 27.12,-25.88 4.6,-15.77 3,-39.43 -17.48,-34.65 -4.66,3.55 -8.88,12.55 -1.2,17.07 3.59,2.11 7.77,2.09 9.09,-1.88 1.55,-4.69 -2.03,-4.39 -5.04,-8.04 14.43,-0.58 12.91,32.03 -8.56,44.29 -2.39,-3.45 0.07,-4.49 -5.97,-5.47l4.66 -4.44c-1.43,-2.44 -0.27,-0.86 -1.99,-2.41l-2.53 -1.88c6.85,-3.53 2.27,0.7 4.89,-4.29l-2.24 -4.86c2.27,-2.24 -0.75,1.45 2.23,-2.3 -2.24,-4.42 -7.01,-3.98 -4.71,-12.41 1.17,-4.31 5.54,-6.58 2.56,-11.35 -0.27,-0.28 -0.75,-1 -0.93,-0.7 -0.18,0.3 -0.72,-0.53 -0.98,-0.64 -5.13,-2.09 -14.79,-1.58 -17.59,-0.65 -8.81,2.93 -1.65,9.37 -0.26,13.39 2.83,8.23 -3.41,9.25 -5.09,12.35l4.9 4.29 -5.15 2.36c1.91,5.58 -0.12,1.88 4.95,4.79 -3.42,2.7 -3.66,1.91 -4.62,4.29l4.86 2.74c-4.05,4.19 -2.38,-0.69 -4.89,4.41 2.53,3.93 3.72,1.31 4.82,5.22 -25.92,-5.39 -30.41,-47.58 -14.73,-46.11 -3.19,2.95 -4.22,2.61 -3.11,8.97 12.4,5.21 16.43,-9.68 8.07,-15.35 -24.81,-16.84 -34.06,53 8.46,59.08l0 -0z"/>
   <path class="fil2" d="M118.83 38.73c9.78,-2.75 -6.56,-13.81 31.78,-13.58l0.1 90.13c-0.45,10.88 -2.19,12.23 -8.31,14.87 -2.52,1.09 -0.98,0.02 -3.05,1.35 -4.02,2.6 -0.23,-2.04 -2.42,2.29 0.34,0.24 0.91,0.06 1.13,0.54l48.04 1.25c6.11,-0.56 2.18,0.96 5.38,-1.79 -2.93,-7.76 -12.29,1.8 -13.9,-15.7l-0.01 -92.89c27.11,0.26 22.43,-0.04 28.38,10.17 1.96,3.36 -0.38,1.52 2.98,3.46 3.45,-4.71 2.15,-15.99 1.2,-21.92l-92.51 -0.02c-0.71,5.93 -2.39,18.1 1.21,21.83l0 -0z"/>
   <path class="fil2" d="M332.77 78.21c0.13,-10.25 -0.41,-24.2 10.64,-24.31 11.74,-0.11 10.44,14.81 10.42,24.18l-21.06 0.12 0 -0zm0.33 8.57l47.33 -0.04c-0.58,-40.04 -28.75,-46.97 -51.16,-37.19 -28.27,12.33 -38.11,79.2 8.61,86.74 13.93,2.25 30.41,-0.95 38.2,-8.7 18.46,-18.35 -46.79,23.73 -42.98,-40.81z"/>
   <path class="fil1" d="M663.92 50.55c0.58,10.89 8.89,-0.38 9.87,15.91 0.58,9.58 2.01,55.25 -3.49,60.99 -3.18,3.32 -5.14,2.05 -6.87,6.34l2.2 0.95c0.3,0.07 0.8,0.28 1.18,0.35l8.34 0.13c4.4,-0.18 8.51,-0.16 12.91,-0.12l22.59 0.09c3.38,-0.83 1.09,0.12 3.13,-1.39 -2.98,-7.18 -8.14,-1 -11.75,-8.14 -2.83,-5.59 -3.15,-55.63 -0.42,-62.7 17.23,-6.15 14.4,7.91 23.64,11.08 4.7,-4.57 9.88,-15.35 10.27,-23.52 -5.26,-2.55 -12.85,-5.35 -21.03,-3.35 -5.59,1.37 -12.73,6.4 -14.16,10l-1.21 -10.11 -35.2 3.51 -0 -0z"/>
   <path class="fil1" d="M839.82 20.69c-16.72,8.72 1.75,28.32 18.27,18.59 14.11,-8.31 0.19,-28.22 -18.27,-18.59z"/>
  </g>
 </g>
</svg>
