<?xml version="1.0" encoding="UTF-8"?>
<!DOCTYPE svg PUBLIC "-//W3C//DTD SVG 1.1//EN" "http://www.w3.org/Graphics/SVG/1.1/DTD/svg11.dtd">
<!-- Creator: CorelDRAW 2019 (64-Bit) -->
<svg xmlns="http://www.w3.org/2000/svg" xml:space="preserve" width="3.13142in" height="1.12044in" version="1.1" style="shape-rendering:geometricPrecision; text-rendering:geometricPrecision; image-rendering:optimizeQuality; fill-rule:evenodd; clip-rule:evenodd"
viewBox="0 0 229.82 82.23"
 xmlns:xlink="http://www.w3.org/1999/xlink">
 <defs>
  <style type="text/css">
   <![CDATA[
    .fil0 {fill:none}
    .fil1 {fill:white}
   ]]>
  </style>
    <clipPath id="id0">
     <path d="M-0 0l229.82 0 0 82.23 -229.82 0 0 -82.23z"/>
    </clipPath>
 </defs>
 <g id="Layer_x0020_1">
  <metadata id="CorelCorpID_0Corel-Layer"/>
  <g id="_2405246656736">
   <polygon class="fil0" points="-0,0 229.82,0 229.82,82.23 -0,82.23 "/>
   <g>
   </g>
   <g style="clip-path:url(#id0)">
    <g id="_2405246655392">
     <path class="fil1" d="M80.51 51.78c0,0.67 0.2,0.87 0.87,0.87 11.93,0 11.1,0.83 11.05,-2.31l0.04 -17.1c0.49,-3.06 2.31,-3.55 4.58,-3.55 2.94,0 3.48,3.38 3.48,6.39l0 16.56 10.74 0c0.67,0 0.87,-0.2 0.87,-0.87l0 -21.21c0,-9.31 -8.81,-14.43 -16.34,-10.84 -1.39,0.66 -2.3,1.68 -3.4,2.41l0 -17.14 -11.9 0 0 46.78 0 0 0 0z"/>
     <path class="fil1" d="M52.36 36.38c0,-9.3 13.35,-9.13 13.35,-0.29 0,5.73 -6.9,8.8 -11.19,4.81 -0.94,-0.87 -2.16,-2.89 -2.16,-4.52l0 0zm2.9 16.85c3.39,0 5.95,0.1 8.63,-2.11 0.67,-0.56 0.79,-0.88 1.53,-1.37 0,3.76 -1.68,2.91 11.32,2.91l0 -33.13 -11.32 0 0 2.62c-2.42,-1.63 -4.2,-3.49 -8.42,-3.49 -2.59,0 -4.88,0.65 -6.68,1.45 -1.39,0.62 -3.73,2.29 -4.72,3.41 -1.02,1.16 -2.57,3.4 -3.21,4.93 -0.39,0.93 -0.78,2.19 -1.02,3.05 -2.83,10.17 4.73,21.74 13.88,21.74l-0 0z"/>
     <path class="fil1" d="M12.6 64.57l12.48 0c0.2,-0.86 0.68,-1.87 1.06,-2.71l3.5 -8.41c1.52,-3.86 3.18,-7.59 4.69,-11.29l7 -16.82c0.41,-0.93 0.79,-1.95 1.17,-2.9 0.35,-0.89 0.96,-2.03 1.16,-2.91l-12.48 0c-0.66,1.38 -1.18,3.1 -1.78,4.61 -0.62,1.54 -1.24,3.1 -1.91,4.77l-3.57 9.51c-0.81,-0.59 -7.21,-17.43 -7.55,-18.89l-12.77 0c0.41,1.76 1.47,3.93 2.22,5.62l4.75 11.23c0.82,1.88 1.53,3.75 2.41,5.72 0.86,1.93 1.52,3.52 2.35,5.5 0.43,1.03 0.77,1.83 1.23,2.84 1.35,2.99 0.66,3.05 -1.65,8.32l-2.31 5.82 0 0 0 0z"/>
     <path class="fil1" d="M162.65 36.38c0,-9.37 12.77,-8.19 12.77,-0.87 0,9.72 -12.77,8.42 -12.77,0.87zm-11.32 -0.29c0,9.67 8.15,17.64 17.7,17.64 9.62,0 17.7,-7.84 17.7,-17.64 0,-13.6 -15.67,-23.91 -29.15,-13.49 -3.71,2.86 -6.26,8.61 -6.26,13.49z"/>
     <path class="fil1" d="M125.5 36.38c0,-6.29 7.07,-8.66 10.82,-5.03 6,5.81 -2.53,15.21 -8.73,9.32 -1.14,-1.08 -2.09,-3.03 -2.09,-4.3l0 -0zm-11.03 -1.74c0,4.31 -0.17,5.54 1.93,9.69 0.93,1.84 2.23,3.45 3.65,4.77 2.92,2.72 8.32,4.96 12.33,4.64 17.05,-1.35 22.36,-19.87 11.91,-30.36 -8.43,-8.47 -22.73,-5.72 -28.07,4.6 -0.82,1.58 -1.76,4.3 -1.76,6.67l0 0 0 0z"/>
     <path class="fil1" d="M218.37 5l-13.93 0c-0.54,1.13 -1.03,2.43 -1.53,3.69l-4.61 11.08c-0.7,1.74 -5.92,13.63 -6.05,15.15l13.93 0c0.1,-1.14 5.5,-13.51 6.05,-14.86l4.6 -11.08c0.58,-1.34 1.19,-2.54 1.53,-3.99l0 0 -0 0z"/>
     <path class="fil1" d="M155.68 76.65l6.68 0c0.35,-0.72 0.79,-2.59 1.05,-3.6 0.36,-1.46 0.67,-2.61 0.99,-3.95 0.44,0.69 0.43,1.45 1.06,3.59 0.35,1.19 0.87,2.74 0.97,3.97l6.97 0c0.04,-1.6 4.28,-14.63 4.93,-17.43 -8.5,0 -6.84,-1.82 -8.32,7.07 -0.25,1.51 0.26,0.96 -0.68,1.65 -0.03,-1.24 -1.88,-7.79 -2.32,-8.72l-4.93 0c-0.37,1.58 -0.79,2.93 -1.26,4.55l-1.35 4.46c-0.04,-1.66 -1.55,-6.73 -1.74,-9.01l-6.97 0c0.12,1.5 0.79,3 1.16,4.36l3.77 13.08 -0 0z"/>
     <path class="fil1" d="M119.4 60.67l0 -1.45c-4.01,0 -6.68,-0.6 -6.68,0.87l0 16.56 6.68 0 0 -8.43c0,-4.67 4.35,-3.28 4.35,-1.45l0 9.88 6.68 0 0 -10.75c0,-5.8 -4.73,-8.58 -9.01,-6.69 -1.1,0.49 -1.14,0.87 -2.02,1.46l0 0z"/>
     <path class="fil1" d="M141.17 64.16l0.58 0c1.31,0 2.04,0.69 2.32,1.74l-5.51 0c0.56,-0.84 1.21,-1.74 2.61,-1.74l-0 0 0 0zm1.44 13.08l-1.2 0c-4.67,-0.21 -9.52,-2.94 -9.52,-9.59 0,-7.76 10.16,-12.3 16.05,-6.19 2.63,2.73 2.72,5.52 2.24,8.8l-11.32 0c1.93,2.89 5.4,0.81 6.38,0.58l4.06 3.49c-1.13,1.69 -3.78,2.77 -6.69,2.91l0 0 0 0z"/>
     <path class="fil1" d="M188.48 65.32c-0.77,0 -1.19,0.08 -1.89,-0.14 -0.99,-0.31 -0.76,-0.07 -1.01,-1.02 1.68,-0.81 2.28,-0.01 2.9,1.16l0 -0 0 0zm-1.8 11.91l-1.03 0c-3.71,-0.14 -7.11,-1.79 -7.32,-4.36 1.11,-0.59 4.61,-2.22 5.8,-2.32 0.5,1.87 1.64,1.58 3.19,1.45l0 -0.87c-2.23,-0.52 -6.08,-1.4 -7.31,-2.85 -3.54,-4.2 1.32,-10.98 8.31,-9.49 2.49,0.53 5.17,2.19 5.38,4.78 -1.05,0.09 -4.36,1.33 -5.22,1.74l1.91 0.7c1.81,0.69 2.95,1.51 3.55,3.42 0.87,2.75 -0.41,5.51 -2.36,6.55 -1.47,0.78 -3.2,1.18 -4.91,1.25l-0 -0 0 0z"/>
     <path class="fil1" d="M187.9 45.39c0,10.5 15.67,9.84 15.67,0 0,-10.82 -15.67,-10.04 -15.67,0z"/>
    </g>
   </g>
   <polygon class="fil0" points="-0,0 229.82,0 229.82,82.23 -0,82.23 "/>
  </g>
 </g>
</svg>
