<?xml version="1.0" encoding="UTF-8"?>
<!DOCTYPE svg PUBLIC "-//W3C//DTD SVG 1.1//EN" "http://www.w3.org/Graphics/SVG/1.1/DTD/svg11.dtd">
<!-- Creator: CorelDRAW 2019 (64-Bit) -->
<svg xmlns="http://www.w3.org/2000/svg" xml:space="preserve" width="2.91325in" height="1.12044in" version="1.1" style="shape-rendering:geometricPrecision; text-rendering:geometricPrecision; image-rendering:optimizeQuality; fill-rule:evenodd; clip-rule:evenodd"
viewBox="0 0 196.87 75.72"
 xmlns:xlink="http://www.w3.org/1999/xlink">
 <defs>
  <style type="text/css">
   <![CDATA[
    .fil0 {fill:none}
    .fil1 {fill:white}
   ]]>
  </style>
    <clipPath id="id0">
     <path d="M-0 0l196.87 0 0 75.72 -196.87 0 0 -75.72z"/>
    </clipPath>
 </defs>
 <g id="Layer_x0020_1">
  <metadata id="CorelCorpID_0Corel-Layer"/>
  <g id="_2441594804192">
   <polygon class="fil0" points="-0,0 196.87,0 196.87,75.72 -0,75.72 "/>
   <g>
   </g>
   <g style="clip-path:url(#id0)">
    <g id="_2441594825504">
     <path class="fil1" d="M68.94 4.27l0 39.82c0,1.95 4.17,1.11 9.57,1.11 1.7,0 1.11,-2.94 1.11,-4.79 -0.01,-3.66 -1.07,-15.12 2.58,-15.12 4.44,0 4.05,0.67 4.05,8.48 -0,3.69 0,7.37 0,11.06 2.73,0.64 8.31,0.64 11.04,0 0,-4.64 0.57,-15.93 -0.14,-19.77 -0.73,-3.97 -2.07,-7.5 -5.74,-9 -6.66,-2.71 -8.97,0.36 -11.78,1.85l0 -14.75 -9.57 0c-0.85,0 -1.1,0.26 -1.1,1.11l0 0z"/>
     <path class="fil1" d="M50.54 35.98c-7.97,0 -6.89,-11.06 -0.37,-11.06 7.52,0 7.87,11.06 0.37,11.06zm-8.83 7.98c0.67,0 0.5,-0.17 0.5,0.5 4.29,2.62 9.28,1.71 13.48,-1.11 0.03,1.45 -0.1,0.86 0.37,1.84 2.09,0 4.18,-0.02 6.26,0 5.22,0.05 4.05,2.19 4.05,-14.75 0,-16.94 1.18,-14.8 -4.05,-14.75 -2.08,0.02 -4.18,0 -6.26,0 -0.2,0.84 -0.29,0.85 -0.37,1.84 -1.98,-0.53 -0.2,-0.91 -5.09,-2.28 -2.46,-0.68 -5.71,0.09 -7.87,1.09l-2.31 1.37c-7.2,5.79 -7.98,16.01 -2.91,22.81l0.67 0.8c1.06,1.19 2.07,2.14 3.52,2.61l0 0 0 0z"/>
     <path class="fil1" d="M25.15 44.83l0.36 -0.47c0.28,-1.06 0.89,-2.12 1.37,-3.33l7.4 -17.66c0.88,-2.06 2.61,-5.8 2.65,-7.67l-11.04 0 -4.68 11.91c-0.61,1.57 -1.2,2.68 -1.58,4.32l-6.63 -16.22c-2.67,0 -7.59,-0.3 -9.99,-0.03 -1.13,0.13 -1.09,-0.32 -1.32,0.78 -0.2,0.94 0.03,0.46 0.66,1.77 0.53,1.12 1.01,2.37 1.55,3.63l9.2 21.79c0.96,2.2 0.85,1.11 -1.4,6.14l-2.2 5.18c-0.17,1.57 2.84,0.91 6.07,0.91 1.31,0 3.02,0.18 4.26,-0.16 1.72,-0.46 1.99,-2.5 3.15,-5.33 0.71,-1.75 1.66,-3.52 2.17,-5.58l0 0 0 0z"/>
     <path class="fil1" d="M112.75 25.29l2.58 0c3.59,0 6.2,5.73 2.84,9.12 -4.31,4.34 -11.97,-1.06 -8.38,-6.92 0.42,-0.69 2.02,-2.2 2.96,-2.2l0 0zm1.47 20.65c17.43,0 21.73,-22.76 6.65,-29.52 -9.62,-4.32 -22.07,1.48 -22.22,14.09 -0.11,9.04 6.82,15.43 15.57,15.43l0 0z"/>
     <path class="fil1" d="M146.61 35.98c-4.9,0 -6.59,-6.15 -3.96,-9.13 2.83,-3.2 9.48,-1.68 9.48,3.6 0,3.26 -2.27,5.53 -5.52,5.53l0 -0 0 0zm-15.46 -7.01c0,4.51 0.02,6.98 2.99,11.02l1.24 1.34c10.57,9.84 27.06,3.07 27.06,-10.88 0,-6.46 -3.5,-11.45 -8.67,-13.81 -6.05,-2.75 -12.99,-2.14 -17.93,2.64 -2.58,2.5 -4.68,5.71 -4.68,9.69l0 -0z"/>
     <path class="fil1" d="M166.86 29.71l11.78 0c1.18,0 0.88,-0.46 1.8,-2.62l7.7 -18.47c0.3,-0.7 0.41,-1.16 0.69,-1.88 0.25,-0.63 0.39,-0.86 0.69,-1.53 0.55,-1.23 0.49,-0.11 0.53,-2.05l-11.78 0c-1.13,0 -1.42,1.58 -2.51,4.13l-6.38 15.37c-0.65,1.46 -2.49,5.37 -2.53,7.05l0 0 -0 0z"/>
     <path class="fil1" d="M118.64 66.58c-5.73,0 -2.18,-8.9 1.75,-5.07 2.94,2.87 -0.61,5.07 -1.75,5.07zm-9.57 -4.42c0,3.53 -0.35,5.42 2.28,8.04 4.34,4.33 8.66,1.33 9.51,1.35l0.95 0.3c1.3,0.41 6.02,1.09 6.02,-0.83 0,-17.57 1.16,-15.89 -3.32,-15.88 -3.79,0.01 -2.34,0.15 -3.68,1.13 -1.57,-2.14 -8.16,-2.76 -11,2.99 -0.49,0.99 -0.78,1.46 -0.78,2.91l0 -0 0 0z"/>
     <path class="fil1" d="M136.31 56.26c-0.31,-0.86 0.14,-0.38 -0.65,-0.83 -0.27,-0.15 -5.98,-1.26 -5.98,0.83l0 15.85c8.27,0 6.63,1.9 6.63,-10.32l1.42 -1.17c1.4,0.42 0.83,0.45 1.9,1.17 0,3.38 -0.28,7.54 0.37,10.32l6.26 0c0.74,-3.19 0.77,-12.2 -0.93,-14.93 -1.88,-3.02 -5.73,-3.13 -9.01,-0.93z"/>
     <path class="fil1" d="M97.66 56.26c-0.4,-1.52 -0.25,-1.11 -5.15,-1.11 -0.86,0 -1.47,0.61 -1.47,1.47 0,3.96 -0.43,12.07 0.37,15.49 8.98,0 5.63,0.96 6.26,-8.48 0.13,-1.96 0.48,-2.54 2.21,-2.95l1.42 1.17c0.37,11.62 -1.88,10.26 5.58,10.26 0.85,0 1.1,-0.26 1.1,-1.11 0,-8.45 1.61,-16.22 -6.63,-16.22 -1.76,0 -2.21,1.08 -3.68,1.47l-0 0 -0 0z"/>
     <path class="fil1" d="M169.81 59.95c1.55,0 1.08,-0.07 1.78,0.43 0.63,0.46 0.51,0.23 0.8,1.04l-4.42 0c0.28,-0.79 0.87,-1.47 1.84,-1.47zm7.73 -1.31c-0.71,0 -0.53,0.18 -0.53,-0.53 -1.87,-4.9 -16.36,-5.88 -15.68,7.02 0.2,3.88 3.73,6.92 7.42,7.32 2.53,0.27 4.8,0.04 6.38,-0.9 1.64,-0.98 3.1,-2.09 3.15,-4.22 -2.4,-0.2 -3.91,-1.9 -5.57,-1.2 -0.84,0.35 -1.31,1.14 -2.48,1.09 -1.37,-0.07 -1.99,-0.74 -2.26,-1.74 10.48,0 11.63,1.31 10.97,-3.22 -0.28,-1.94 -0.41,-2.23 -1.4,-3.62l-0 0z"/>
     <path class="fil1" d="M71.15 55.15c-2.62,0 -2.21,-0.36 -2.21,4.42 0,1.31 0.72,1.11 2.21,1.11l0 10.32c0,1.64 1.72,1.11 5.52,1.11 0.85,0 1.1,-0.26 1.1,-1.11l0 -10.32 3.68 0c0.55,-2.37 0.55,-3.17 0,-5.53l-3.68 0c0.63,-2.71 2.97,-1.56 4.05,-1.47 1.66,-7.15 -1.29,-5.9 -4.79,-5.9 -2.93,0 -5.89,2.9 -5.89,7.37l-0 0 0 -0z"/>
     <path class="fil1" d="M147.35 63.26c0,11.32 13.62,10.43 13.62,7.01 0,-7.01 -0.33,-3.69 -3.68,-3.69 -1.4,0 -4.98,-1.85 -2.29,-4.88 2.63,-2.97 5.98,1.65 5.98,-1.39 0,-5.1 0.32,-5.53 -5.52,-5.53 -4.31,0 -8.1,4.23 -8.1,8.48z"/>
     <path class="fil1" d="M163.18 37.09l0 2.95c0,2.35 3.18,5.53 5.52,5.53 2.3,0 3.15,0.26 4.79,-0.73 0.44,-0.27 0.39,-0.24 0.85,-0.62 8.64,-6.94 -3.96,-18.45 -10.11,-9.39 -0.2,0.3 -1.06,1.92 -1.06,2.26l0 0z"/>
     <path class="fil1" d="M83.3 55.89l-0 15.49 0 0.74c7.79,0 6.26,3.52 6.26,-16.59 -1.55,-0.36 -5.26,-1.09 -6.25,0.37l0 -0z"/>
     <path class="fil1" d="M83.3 71.38l0 -15.49c-0.05,0.08 -0.13,0.09 -0.14,0.23 -0.41,4.36 -0.32,9 -0.25,13.44l0.39 1.82 0 0 0 0z"/>
     <path class="fil1" d="M177.54 58.64c0,-0.71 0.18,-0.53 -0.53,-0.53 0,0.71 -0.18,0.53 0.53,0.53z"/>
     <path class="fil1" d="M42.21 44.46c0,-0.67 0.17,-0.5 -0.5,-0.5 0,0.67 -0.16,0.5 0.5,0.5z"/>
     <polygon class="fil1" points="25.51,44.36 25.15,44.83 "/>
    </g>
   </g>
   <polygon class="fil0" points="-0,0 196.87,0 196.87,75.72 -0,75.72 "/>
  </g>
 </g>
</svg>
