<?xml version="1.0" encoding="UTF-8"?>
<!DOCTYPE svg PUBLIC "-//W3C//DTD SVG 1.0//EN" "http://www.w3.org/TR/2001/REC-SVG-20010904/DTD/svg10.dtd">
<!-- Creator: CorelDRAW X7 -->
<svg xmlns="http://www.w3.org/2000/svg" xml:space="preserve" width="6.93846in" height="3.53569in" version="1.0" style="shape-rendering:geometricPrecision; text-rendering:geometricPrecision; image-rendering:optimizeQuality; fill-rule:evenodd; clip-rule:evenodd"
viewBox="0 0 6938 3536"
 xmlns:xlink="http://www.w3.org/1999/xlink">
 <defs>
  <style type="text/css">
   <![CDATA[
    .fil0 {fill:white}
   ]]>
  </style>
 </defs>
 <g id="Layer_x0020_1">
  <metadata id="CorelCorpID_0Corel-Layer"/>
  <g id="_302290032">
   <path class="fil0" d="M4185 296c-7,5 -11,8 -15,10 -32,22 -63,44 -95,66 -3,2 -6,2 -9,3 2,-2 4,-5 6,-6 34,-25 68,-49 102,-73 2,-1 5,0 11,0z"/>
   <path class="fil0" d="M3828 735c-2,0 -2,-1 -3,-1 0,-1 0,-3 1,-4 11,-14 22,-27 33,-40 1,-1 2,-1 3,-2 0,1 0,1 0,2 -11,15 -23,30 -34,45z"/>
   <path class="fil0" d="M3876 649c-2,0 -2,-1 -3,-1 1,-1 1,-3 2,-4 12,-12 24,-24 37,-37 0,0 14,-16 15,-16 5,-5 38,-39 3,0 -13,14 -41,45 -54,58z"/>
   <path class="fil0" d="M3897 537c9,-11 40,-44 85,-87 13,-12 35,-33 48,-44 1,-1 8,-6 9,-7 0,1 -6,7 -6,7 -14,14 -108,96 -136,131z"/>
   <path class="fil0" d="M3860 776c-9,13 -18,27 -27,40 0,1 -3,1 -4,2 -1,-2 -1,-3 -1,-4 11,-12 21,-25 32,-38z"/>
   <path class="fil0" d="M3677 872c-7,14 -14,28 -22,42 0,1 -3,1 -4,2 0,-1 -1,-3 -1,-3 9,-14 18,-28 27,-41z"/>
   <path class="fil0" d="M5410 3396c4,-1 8,-2 12,-3 7,-1 15,-1 22,-1 -7,1 -15,3 -22,4 -4,1 -8,0 -12,0l0 0z"/>
   <path class="fil0" d="M4214 279c-1,1 -2,2 -3,2 -4,2 -8,4 -12,6 0,-1 0,-2 0,-3 5,-2 9,-4 14,-6 0,0 1,1 1,1z"/>
   <path class="fil0" d="M4047 397c-2,-3 -3,-4 -3,-4 4,-4 8,-8 13,-12 0,0 1,1 1,1 -3,5 -7,9 -11,15z"/>
   <path class="fil0" d="M3890 746c-5,4 -9,7 -13,10 0,0 -1,-2 -1,-2 4,-3 8,-6 12,-10 0,0 1,1 2,2z"/>
   <path class="fil0" d="M3942 651c1,-2 3,-3 4,-4 3,-2 5,-4 7,-6 1,0 1,0 1,1 -4,3 -8,6 -12,9z"/>
   <path class="fil0" d="M3810 701c2,-1 3,-2 4,-4 1,1 1,2 1,2 -1,1 -2,2 -3,4 0,0 -1,-1 -2,-2z"/>
   <path class="fil0" d="M4065 534c1,0 3,0 4,0 -3,2 -6,5 -10,7 2,-2 4,-4 6,-7z"/>
   <path class="fil0" d="M3893 2946c3,3 6,6 8,9 -2,-3 -5,-6 -8,-9z"/>
   <path class="fil0" d="M3638 891c-1,1 -8,17 -9,18 0,0 -1,-1 -1,-2 1,-1 9,-15 10,-16z"/>
   <path class="fil0" d="M3857 747c3,-2 5,-3 7,-4 -2,1 -4,2 -7,4z"/>
   <path class="fil0" d="M4223 273c-3,2 -6,4 -9,6 0,0 -1,-1 -1,-1 3,-2 6,-4 10,-6 0,1 0,1 0,1z"/>
   <path class="fil0" d="M4021 606c2,0 3,-1 5,-1 -3,2 -5,3 -8,4 1,-1 2,-2 3,-3z"/>
   <path class="fil0" d="M3769 2776c-1,-1 -3,-3 -4,-5 0,0 1,-1 1,-1 1,2 3,4 4,6 0,0 -1,0 -1,0z"/>
   <path class="fil0" d="M3860 776c1,-1 2,-3 3,-5 0,1 1,1 1,1 -1,2 -3,3 -4,4 0,0 0,0 0,0z"/>
   <path class="fil0" d="M5410 3396c-4,1 -8,1 -11,2l0 0c3,0 7,-1 11,-2l0 0z"/>
   <path class="fil0" d="M4450 3398c7,3 13,5 19,8 2,1 3,2 4,4l0 0c-27,-12 -54,-23 -81,-34 19,7 39,15 58,22z"/>
   <path class="fil0" d="M3736 2820c1,2 2,5 3,8 -1,-3 -2,-6 -3,-8z"/>
   <path class="fil0" d="M5471 136c-1,0 -1,0 -2,0 -15,-2 -46,12 -164,-20 -14,-4 -27,-6 -38,-9 -23,-2 -47,-4 -69,-5 -30,2 -48,11 -88,6 -22,-2 -45,1 -63,5 -39,9 -57,24 0,0 1,0 2,-1 3,-1 28,-12 84,-14 148,-10 17,-2 38,-1 69,5 75,8 151,20 202,29 1,0 1,0 2,0z"/>
   <path class="fil0" d="M6594 2821c6,-8 11,-15 17,-22 3,-5 6,-10 10,-15l0 0c6,-9 12,-18 18,-27 4,-6 8,-12 12,-17l0 0c4,-6 9,-12 13,-18 13,-21 26,-42 37,-63 5,-9 10,-17 15,-26l0 0 0 0 0 0c18,-34 37,-67 53,-102 14,-31 26,-63 39,-94l0 0 0 0c4,-13 9,-25 14,-37 1,-4 3,-7 4,-11l0 0 0 0 0 0c8,-18 15,-36 21,-55 12,-39 23,-78 34,-118 0,-2 1,-4 1,-6l1 -3c11,-40 21,-80 29,-121 8,-39 13,-79 18,-118 4,-39 7,-79 7,-118 0,-17 1,-34 1,-52l0 0 0 0 0 0 0 0c0,-20 0,-40 0,-60l0 -8c0,-13 0,-26 0,-38 -1,-14 -2,-27 -3,-40l0 0c-2,-29 -3,-57 -8,-85 -11,-76 -25,-150 -40,-225 -43,-226 -154,-433 -293,-614 -118,-154 -248,-291 -410,-401 -233,-159 -477,-263 -759,-304 -48,-7 -95,-12 -143,-16 -11,-1 -22,-2 -34,-3 -14,-2 -29,-3 -43,-3 -7,0 -14,-1 -21,-1l-40 0c-3,1 -6,2 -9,3 -1,0 -1,0 -2,0 0,-1 0,-1 -1,-1 1,0 1,-1 2,-1 0,0 1,-1 1,-1l-9 0c-8,1 -15,1 -22,1 -11,1 -22,2 -33,3 -35,2 -70,5 -104,8 -8,1 -15,2 -22,2 -23,2 -46,4 -68,7 -35,6 -70,12 -105,20 -47,12 -93,24 -139,38 -11,3 -22,8 -33,13 -8,4 -16,7 -25,10 -12,4 -24,8 -36,12 -9,2 -18,5 -27,8 -2,1 -4,3 -6,4 -2,2 -4,4 -6,5 -10,4 -21,8 -31,12l0 0c-16,6 -32,12 -48,19 -28,13 -56,27 -83,41 -35,18 -69,37 -103,56 -3,2 -6,5 -9,9l0 0 0 0 0 0 0 0c-1,1 -2,3 -4,4 1,0 1,0 1,1l0 0c0,0 0,0 0,0 15,-8 31,-16 46,-24l0 0c29,-16 59,-31 89,-46 33,-16 66,-31 100,-46l0 0 0 0c14,-6 27,-12 41,-18 4,-2 9,-4 13,-6 13,-6 26,-12 39,-16 10,-3 20,-5 30,-7 14,-3 27,-6 39,-10l2 -1 2 -1c23,-9 46,-18 70,-22 22,-4 44,-9 66,-14l0 0c14,-4 27,-7 41,-10 4,-1 9,-1 14,-1 4,0 9,0 13,-1 9,-2 18,-4 28,-6 15,-4 30,-8 46,-10 31,-3 64,-5 96,-7 5,0 11,0 16,-1 19,-1 37,-1 56,-1 10,-1 19,-1 28,-1 4,0 9,0 13,-1 12,0 25,0 38,0 7,0 14,0 21,0 7,1 13,1 20,1 6,0 12,0 19,0 9,0 18,-1 27,0 41,3 81,6 122,10l0 0c3,0 7,2 10,3 1,0 3,1 4,1 -1,1 -3,1 -5,1 -3,0 -6,0 -9,0 -4,0 -8,0 -12,0 -12,-1 -24,-1 -36,-2 -23,-1 -47,-2 -70,-3 -12,0 -24,0 -36,0 0,0 1,0 2,0 0,-1 1,-1 2,-1 -1,0 -2,0 -2,-1 -2,-1 -3,-1 -5,-1 -9,-1 -17,-1 -26,-1l0 0c-23,-1 -46,-2 -69,-2 -46,2 -92,4 -139,8 -19,2 -38,6 -57,10 -8,1 -17,3 -25,4 -7,2 -13,3 -20,4l0 0c-14,2 -29,5 -43,8 -14,2 -28,5 -42,7l0 0c-36,6 -72,13 -107,20 -27,6 -52,16 -78,26 -32,13 -64,26 -95,39l0 0c-18,7 -36,14 -54,21 -8,4 -17,7 -26,10 -16,6 -32,12 -47,20 -41,20 -82,41 -121,64 -45,25 -90,52 -132,80 -15,10 -27,22 -39,35 -5,6 -11,11 -16,17 -2,1 -3,3 -5,4 -1,2 -3,4 -5,5 -4,4 -8,7 -12,11l0 0 0 0c-10,8 -20,17 -30,25 -8,6 -15,12 -23,18l0 0c-15,11 -29,23 -43,35 -8,7 -14,15 -20,23 -4,5 -8,10 -13,15 -11,13 -23,25 -35,38l0 0 0 0 0 0 0 0c-6,6 -11,11 -16,17 0,1 0,1 0,2l0 0c0,1 0,2 0,3 -1,1 -2,1 -2,1 -1,0 -1,0 -1,0 0,-1 0,-1 0,-2l0 0c1,-1 1,-2 1,-3 -5,6 -11,12 -16,19 1,-1 2,-2 3,-3 1,-1 1,-1 2,-1l0 1c-1,0 -2,1 -3,2 -1,0 -2,1 -2,1 -3,4 -6,7 -8,11 -6,8 -12,16 -19,24 -8,9 -17,19 -26,29 -15,15 -29,30 -42,47 -10,11 -17,23 -25,36l0 0c-4,7 -8,14 -13,20 -11,17 -23,34 -34,52l0 0c-12,17 -23,35 -35,52 8,-10 17,-21 25,-31 8,-9 16,-17 22,-26 19,-26 39,-52 60,-77 11,-14 23,-28 36,-42l0 0 0 0 0 0 0 0 0 0c3,-4 7,-8 11,-12 1,-2 2,-2 4,-3 0,0 1,0 2,-1 -1,1 -1,2 -1,3 0,1 0,3 -1,4 -2,2 -5,4 -7,6 -3,3 -7,6 -9,10 -18,23 -35,47 -52,71 -9,13 -17,26 -25,40l0 0c-7,11 -13,22 -21,33l0 1c0,0 0,0 -1,0l0 0 0 1c-1,1 -2,2 -4,6l0 0 0 0 0 0c1,-1 2,-2 2,-2 1,-1 2,-2 3,-3l0 0c2,-3 5,-6 7,-10 9,-12 18,-25 28,-38 8,-11 17,-22 26,-33l0 0 0 0 0 0 0 0c27,-35 54,-71 83,-104 41,-46 84,-89 127,-132 4,-3 7,-7 11,-10 28,-29 58,-56 89,-82 10,-9 22,-17 33,-24l0 0 0 0c7,-5 13,-9 19,-14 8,-5 16,-12 24,-18 14,-10 28,-20 42,-30 19,-12 39,-24 59,-36 13,-8 27,-17 40,-25 65,-40 133,-74 203,-102 9,-3 18,-7 26,-10l0 0 0 0c31,-13 61,-25 93,-36 36,-12 72,-23 109,-33l0 0 0 0c5,-2 11,-4 17,-5 20,-6 41,-12 62,-16 14,-2 27,-4 40,-5 12,-2 23,-3 34,-5 9,-1 17,-3 26,-5 10,-3 20,-5 30,-6 27,-4 54,-7 81,-10 11,-1 22,-2 34,-3 3,0 6,-1 9,-1 9,-1 18,-2 28,-3 16,0 32,1 48,1 10,0 19,0 29,0 10,0 21,1 31,1 26,0 53,0 79,0 4,0 8,2 12,3 1,1 3,1 4,2 -3,0 -7,0 -11,1 -9,0 -18,0 -27,0 -5,0 -10,-1 -15,-1 -6,-1 -12,-2 -18,-2 -37,2 -73,3 -110,5 -5,1 -11,1 -16,1 -6,0 -11,1 -17,1 -26,1 -51,2 -77,5 -15,1 -29,4 -44,6 -10,2 -20,4 -31,5 -8,1 -16,2 -24,2 -13,1 -26,2 -38,5 -12,2 -24,6 -35,9 -8,3 -16,5 -24,7 -10,3 -21,5 -31,7 -19,4 -38,8 -56,15 -7,2 -13,4 -20,7 -71,25 -142,50 -211,79 -44,19 -87,43 -130,66 -13,7 -25,15 -38,21 -27,15 -52,31 -77,47 -31,21 -61,42 -91,64 -25,20 -51,40 -75,61 -16,13 -31,28 -46,42l0 0c-6,6 -12,11 -17,16 -2,2 -4,4 -5,6 -1,1 -1,2 -2,3 1,-1 2,-1 3,-2 2,-1 5,-2 7,-4 15,-13 29,-26 44,-38l0 0c9,-8 18,-16 27,-24 1,-1 3,-2 5,-2 0,0 1,-1 2,-1 -1,1 -1,1 -2,2 0,1 -1,3 -3,4 -10,10 -21,19 -31,29l0 0 0 0 0 0 0 0c-21,18 -41,36 -61,56 -26,26 -52,52 -78,79l0 0 0 0 0 0 0 0c-9,9 -17,18 -26,27 -1,1 -2,2 -2,4 -1,1 -1,2 -2,2 1,0 2,-1 3,-1 1,-1 3,-2 4,-3 7,-7 15,-15 22,-22 12,-12 23,-24 35,-36l4 -4c31,-29 62,-59 93,-87 22,-19 44,-37 66,-55l0 0c10,-8 19,-15 29,-23 1,-1 3,-2 4,-2 1,0 1,0 2,-1 0,1 -1,2 -1,2 -1,2 -1,3 -2,4 -10,8 -20,16 -29,24l0 0 0 0 0 0 0 0c-20,16 -40,32 -59,49 -33,31 -66,62 -97,94 -27,27 -52,55 -77,84 -5,5 -10,11 -15,17 -3,4 -6,8 -8,12 -1,4 -3,7 -5,10 -3,4 -6,9 -9,13l0 0c-66,92 -133,184 -179,288 -8,17 -43,112 -35,94 35,-74 71,-149 115,-218 64,-101 131,-191 214,-270 1,-1 2,-1 2,-2l0 0c1,0 2,-1 2,-2l6 -8c1,0 1,1 2,2 0,0 0,0 0,1 0,0 0,0 0,0 5,-5 10,-10 15,-14l0 0c14,-15 28,-29 42,-43 12,-11 24,-21 35,-32l0 0 0 0 0 0c5,-4 9,-8 13,-12 1,-1 3,-3 4,-4l0 0c0,-1 1,-2 2,-3 1,-1 2,-1 3,-2 0,-1 1,-2 2,-3 0,2 0,3 0,4l0 0c2,-1 4,-2 5,-3 17,-12 34,-25 50,-38l0 0c41,-30 81,-61 123,-90 42,-29 88,-54 134,-79 41,-22 83,-43 127,-61 51,-21 104,-40 157,-56 58,-18 115,-33 174,-45 152,-31 306,-38 460,-24 130,11 256,36 379,77 43,14 84,30 125,47 -35,-14 -69,-27 -105,-37 -7,-2 -13,-5 -20,-7l0 0c-6,-2 -13,-5 -19,-7 -11,-3 -24,-8 -35,-11 -10,-3 -20,-5 -31,-8 -23,-7 -47,-14 -70,-19 -42,-9 -97,-20 -139,-25 -69,-7 -118,-11 -191,-13 -6,0 -13,0 -21,0 -16,0 -35,-1 -48,0 -28,0 -44,2 -71,5l-2 0c-51,5 -102,11 -153,19 -48,7 -95,16 -142,26 -8,1 -16,5 -24,8l0 0c-5,2 -11,5 -16,7 -12,3 -24,7 -37,10 -21,6 -43,13 -64,21 -49,18 -99,39 -147,60 -42,20 -84,40 -124,63 -27,15 -53,32 -79,49l0 0c-7,5 -14,9 -21,14 -10,6 -18,13 -27,19l0 0c-3,3 -6,5 -9,8 -13,9 -26,19 -39,29l0 0 0 0 0 0 0 0 0 0c-13,9 -25,19 -38,29 -5,4 -11,8 -16,11 -12,8 -23,16 -33,26 -33,30 -66,62 -98,94l0 0 0 0c-5,5 -10,10 -15,15 -17,16 -32,33 -48,50 -9,9 -17,19 -25,29l0 0 0 0c-2,2 -3,3 -4,5 -1,1 -1,3 -1,4 0,1 0,2 0,3 1,0 2,-1 3,-1 2,0 4,0 5,-2 2,-3 5,-6 7,-10 3,-4 6,-8 10,-12 6,-6 12,-13 19,-19 4,-4 9,-9 13,-13 15,-16 31,-33 46,-49l0 0 0 0 0 0 0 0c8,-8 15,-16 23,-24l3 -3c1,0 2,0 3,-1 1,0 2,0 4,-1 8,-7 16,-15 24,-23 18,-17 35,-34 54,-49 49,-38 100,-74 151,-110 24,-18 50,-33 77,-48 3,-2 6,-4 10,-6 14,-9 28,-16 42,-23 7,-4 14,-8 21,-12 1,0 2,-1 4,-2 1,-1 2,-1 3,-2 0,1 0,2 0,3l0 0c9,-4 17,-8 26,-12l0 0 0 0c18,-9 36,-18 54,-25 38,-17 76,-33 115,-47 37,-14 75,-25 113,-35 3,0 5,-1 8,-2 54,-13 108,-26 162,-34 72,-10 144,-18 216,-21 88,-5 175,0 263,12 99,13 196,35 291,65 110,35 216,80 314,139 68,42 134,87 197,137 59,45 113,96 166,148 72,70 134,151 189,235 105,161 182,335 225,522 39,165 51,332 38,501 -10,120 -31,238 -67,353 -46,149 -112,288 -198,418 -67,102 -145,195 -233,279 -91,88 -192,164 -304,226 -7,4 -15,8 -23,13l0 0c-39,21 -77,43 -118,61 -68,29 -139,56 -209,81 -35,13 -71,22 -107,31 -30,6 -61,12 -92,18l0 0 0 0 0 0 0 0c-13,2 -26,5 -39,7 -5,1 -9,2 -13,2l0 0 0 0c-1,1 -2,1 -3,1 -1,0 -3,0 -4,1 3,-1 6,-3 8,-4 3,-1 6,-2 9,-3 0,0 0,0 0,0l1 0 0 0c-1,0 -1,0 -1,0 -10,1 -20,2 -30,3 -28,3 -56,6 -84,10 -99,14 -198,11 -296,4 -105,-7 -209,-25 -310,-55 -238,-71 -453,-183 -643,-345 -85,-74 -165,-154 -238,-241 -2,-1 -4,-2 -6,-3 0,-1 -1,-1 -2,-2 0,1 1,2 1,3 0,2 1,5 2,6 5,8 10,15 15,23 12,19 24,38 39,55 36,42 74,83 113,122 21,20 43,40 65,59l0 0c9,8 19,17 28,25 -3,-2 -7,-5 -10,-7l0 0c-9,-6 -18,-13 -26,-20 -9,-9 -17,-17 -26,-25l0 0c-48,-46 -96,-92 -142,-140 -19,-20 -37,-43 -54,-65 -8,-10 -16,-20 -24,-29l0 0c2,3 3,7 5,10l0 0 0 0 0 0c5,7 9,15 14,22 13,18 26,35 39,52l4 5c1,2 3,3 4,5l1 2c10,12 19,24 29,37 9,12 19,24 28,37 3,3 5,6 8,8l0 0c11,14 23,27 34,40 1,0 1,1 2,3l0 0c0,0 0,0 1,1 -1,0 -1,-1 -2,-1 0,0 -1,-1 -2,-1 -3,-3 -6,-5 -9,-7l0 0c-6,-5 -13,-11 -19,-17 -35,-40 -71,-81 -106,-122 -5,-6 -10,-13 -15,-19l0 0 0 0c-26,-31 -52,-61 -74,-95 -31,-48 -60,-98 -89,-147l0 0 0 0c-10,-18 -20,-35 -30,-53 -7,-11 -13,-20 -19,-30 -7,-10 -14,-20 -21,-32 -1,-2 -2,-4 -3,-6l0 0 0 0 0 0 0 0c-2,-3 -4,-6 -8,-12 3,5 5,12 7,17l1 1c4,12 9,24 14,35 8,22 17,43 26,65 6,16 14,32 23,47 26,46 53,93 81,138 9,15 19,29 29,42l0 0c5,6 10,12 14,19 0,1 1,2 1,4 1,1 1,2 2,4 1,1 3,3 5,5l0 0 0 0c5,6 9,11 14,16 4,5 8,10 13,15l0 0 0 0 0 0c13,15 25,30 39,45 2,3 4,5 7,8l0 0c4,5 9,9 13,15 6,7 11,15 17,22 8,11 16,23 25,33 20,24 40,48 62,70 30,30 61,60 94,87 30,24 62,47 93,71 14,10 27,19 41,29 152,116 345,189 529,239 196,53 378,60 578,47 205,-14 407,-52 595,-134 33,-14 66,-29 98,-45 21,-9 41,-19 61,-29 14,-8 29,-16 43,-25 25,-15 50,-30 75,-46 14,-9 27,-19 40,-29 10,-8 21,-16 31,-24 7,-6 14,-11 22,-17 10,-8 20,-16 30,-23l0 0c20,-16 41,-31 60,-48 22,-18 43,-37 63,-58 35,-35 69,-70 103,-107 23,-24 45,-51 66,-77 13,-16 25,-32 37,-47zm-2532 248c0,0 0,1 0,1 0,1 1,2 2,3 7,6 15,11 23,17 7,6 72,50 72,50 0,0 -84,-62 -90,-67 -2,-1 -3,-2 -5,-3 -1,0 -2,0 -2,-1zm1209 -2997c-1,1 -1,1 -2,2 0,1 -1,1 -1,2 0,0 1,0 1,0l0 0c1,1 3,1 4,1 4,0 9,1 13,1 9,0 18,1 26,2 17,2 35,4 52,5 42,4 85,8 126,23 3,1 7,1 11,1 3,0 6,0 8,0 20,4 39,9 58,13l0 0c14,3 27,6 41,9 4,0 8,1 11,1 5,1 11,2 16,3 7,2 14,5 21,8 3,2 6,3 9,4 1,-1 30,0 47,1 7,0 12,1 11,0 -30,-8 -90,-20 -139,-30 -22,-4 -42,-8 -56,-11 -47,-11 -94,-20 -141,-26 -27,-4 -54,-5 -81,-7 -12,0 -23,-1 -35,-2l0 0zm396 76l3 1 0 0c7,2 13,4 20,6 1,0 2,0 3,0 0,0 0,0 1,0 -1,0 -1,0 -1,0 0,-1 -1,-2 -2,-2 -8,-2 -16,-3 -24,-5zm-474 -114c-8,0 -16,-1 -24,-1l0 0c-11,0 -22,-1 -33,-1 -1,0 -2,0 -3,1 -1,0 -1,0 -2,0 1,0 1,0 2,0 1,1 2,1 3,1 12,0 24,0 37,0l0 0 0 0c6,0 13,0 20,0zm-72 105c-3,0 -5,0 -8,0 -1,0 -1,0 -2,1 0,0 0,0 -1,0l0 0 0 0c4,0 7,0 11,-1zm2 0c2,0 5,0 7,0 0,0 0,-1 0,-1 -3,0 -5,1 -7,1zm1688 1516l0 -4c0,1 0,2 0,4zm0 0c0,1 0,3 0,4 0,-1 0,-3 0,-4zm0 -19l0 0c0,0 0,0 0,0zm4 40l0 0c0,0 0,0 0,0zm-2965 -1039c-1,1 -26,27 -26,27 1,-2 24,-31 24,-31 0,0 37,-39 55,-58 1,-2 2,-3 3,-4l0 0c1,0 1,-1 2,-2 4,-3 7,-7 10,-10 -1,1 -1,3 -2,4 -2,3 -3,6 -6,9 -13,14 -27,29 -40,43l0 0c-7,7 -14,15 -20,22zm411 -296c1,0 2,0 3,0 -1,1 -2,2 -3,3l0 0c-2,1 -2,2 -3,3 -11,7 -22,13 -33,20 -1,1 -2,2 -4,2 1,0 1,-1 1,-1 0,-1 1,-2 1,-3 12,-8 24,-16 36,-24 0,-1 1,0 2,0zm-126 12c-5,3 -9,6 -13,9 -2,-1 -2,-1 -3,-1 0,0 0,-1 0,-1 1,-1 1,-2 1,-2 9,-6 17,-11 26,-17 0,0 2,0 2,0 1,0 1,2 0,2 -4,3 -9,7 -13,10zm2664 1192c0,0 -1,1 0,1 0,0 0,-1 0,-1zm-2842 -1023c0,0 1,0 2,1 -5,4 -9,8 -13,11l0 0 0 0c-3,3 -6,6 -9,9 -1,0 -2,-1 -2,-1 3,-4 7,-7 10,-11 4,-3 7,-6 10,-10 0,0 1,0 2,1zm-35 2508l2 0c3,3 27,24 53,47l0 0 0 0 0 0 0 0c30,26 61,54 65,57 91,82 -6,-3 -6,-3l-94 -80c-6,-6 -13,-12 -20,-19 0,0 0,-1 0,-1 0,-1 0,-1 0,-1zm60 -2552c0,0 1,1 1,1 -3,3 -7,6 -10,9l0 0 0 0c-2,2 -5,4 -7,6l-1 -1c5,-5 11,-11 16,-16 0,0 0,1 1,1zm1072 -334l0 0 0 0c-5,1 -9,1 -14,1 -4,0 -9,0 -13,-1 2,0 3,0 5,-1 4,0 8,-1 11,-1 3,0 5,0 7,1 1,1 3,1 4,1l0 0zm-1098 2867c1,0 1,-1 2,-1 2,2 4,5 5,7l0 0c3,2 4,4 6,7l78 75c-4,-4 -88,-82 -92,-86 0,0 1,-1 1,-2zm218 -2610c-1,1 -3,3 -5,4 -1,-1 -1,-2 -1,-2l0 0c5,-4 11,-8 17,-12 0,0 0,0 0,1 0,0 1,0 1,0 -4,3 -8,6 -12,9l0 0 0 0zm2627 1154c0,0 0,0 0,0 0,0 0,0 0,0zm-2797 -1094c0,0 0,0 0,0l0 1 -1 0 0 0c-2,2 -3,4 -5,5 0,0 -1,0 -2,-1 0,0 0,0 0,0 0,0 0,0 0,0 1,-1 1,-2 2,-2l0 0 0 0c1,-1 3,-3 4,-4 0,0 1,1 2,1l0 0c0,0 0,0 0,0zm2931 1346c0,0 0,0 0,0l0 0zm-62 -508l0 0c0,0 0,0 0,0 0,0 0,0 0,0 0,0 0,0 0,0zm-3 -8l0 0c0,0 0,0 0,0zm-2766 -917c-2,1 -3,2 -5,4 0,-1 0,-1 0,-1 0,-1 0,-1 0,-1 2,-3 4,-5 7,-7 0,0 1,1 1,1 -1,1 -2,2 -3,4zm1702 -180c1,0 2,1 3,1 -1,1 -2,1 -3,1 -1,0 -2,0 -3,0 -1,0 -2,-1 -3,-2 0,0 -1,-1 -1,-1 0,0 0,0 1,0 0,0 0,0 0,0l0 0 0 0c1,-1 2,-1 3,-1 1,1 2,1 3,2zm-743 -160c1,1 2,1 2,2 -1,0 -2,0 -3,0 -2,0 -3,0 -4,0 0,-1 -1,-1 -2,-2 0,0 0,-1 0,-1 0,0 1,0 1,0 1,0 3,0 4,0 0,0 1,0 2,1zm-807 249c0,0 1,1 1,1 0,0 0,0 -1,1l0 0c-1,1 -2,2 -3,3 0,0 -1,-1 -2,-1 0,-1 0,-1 0,-1 0,0 0,-1 1,-1 1,-1 2,-2 3,-2 0,0 1,0 1,0zm2635 1095c0,0 0,0 0,0 0,1 0,2 0,3 0,-1 0,-2 0,-2 0,0 0,-1 0,-1zm-1579 2036c0,1 1,1 1,1 0,0 0,0 -1,0l0 0c-1,1 -2,1 -3,1 0,0 -1,0 -1,0 0,-1 0,-1 -1,-1 1,0 1,0 2,0 0,-1 1,-1 2,-1 0,0 0,0 1,0zm-1609 -650l0 1c1,0 1,0 1,1l0 0 0 0c-1,0 -1,0 -1,0 -1,-1 -2,-2 -3,-3 0,0 1,-1 1,-1 0,0 0,0 1,1 0,0 0,0 0,0l1 1 0 0 0 0 0 0 0 0zm1824 -2697c0,0 0,1 0,1 -1,0 -1,0 -2,0 -1,0 -1,0 -2,-1 -1,0 -1,0 -2,0 0,-1 0,-1 0,-1 0,0 0,0 0,0 0,0 0,0 -1,0 1,0 1,0 2,0 1,0 1,0 2,0 1,0 1,0 2,0 0,0 1,1 1,1 0,0 0,0 0,0zm-559 19c0,0 1,0 2,-1 0,1 1,1 2,1 -1,0 -1,0 -2,1 -1,0 -1,1 -2,1 -1,0 -1,0 -2,0 0,-1 0,-1 0,-1 1,0 1,0 2,-1l0 0zm717 21l0 0c0,0 1,0 2,0 -1,0 -1,1 -1,1 -1,1 -2,1 -2,1 -1,0 -2,-1 -2,-1l0 0c-1,0 -1,-1 -1,-1 0,0 0,0 0,0 0,0 0,0 0,0l0 0 0 0c0,-1 1,-1 1,-1 1,0 1,0 3,1zm-109 -27c1,-1 1,-1 2,-1 1,1 2,1 2,1 0,0 0,0 0,0 -1,0 -3,1 -4,1 0,0 -1,-1 -1,-1 0,0 -1,0 -1,0 1,0 2,0 2,0l0 0 0 0zm-1672 2930l0 0 0 1c1,0 1,0 1,0 0,1 6,7 9,11l0 0c1,2 3,3 2,3 -1,-1 -14,-14 -15,-15 0,0 1,-1 1,-1 1,0 1,1 2,1zm525 -2758c-1,1 -1,2 -1,2 -2,0 -3,0 -3,0 0,0 0,0 0,-1l1 0 0 0 0 0c0,0 1,-1 1,-1 0,0 1,0 1,0l1 0c0,0 0,0 0,0zm1384 -91l0 0 0 0c0,0 0,1 0,1 -1,-1 -2,-1 -3,-2l-1 0c0,0 0,0 -1,-1 1,0 1,0 1,0 0,0 1,0 1,0 1,0 2,1 3,1 0,0 0,0 0,1zm-2002 519c0,1 -1,1 -1,2 0,0 0,0 0,-1 -1,0 -1,0 -1,0 0,-1 1,-1 1,-2l1 1zm1615 -631l0 0 0 0 0 0c0,0 0,0 0,0 0,0 0,0 0,0l0 0c-1,0 -1,1 -1,1 -1,-1 -1,-1 -2,-1 0,0 0,0 -1,-1 0,0 1,0 1,0 0,0 0,0 1,0 0,0 1,0 2,1zm-137 -12c0,0 1,0 1,0 0,0 -1,0 -1,0l0 0c-1,1 -1,1 -2,1 0,0 -1,-1 -1,-1 0,0 0,0 -1,-1 1,0 1,0 2,0 0,0 1,0 1,0 0,0 1,1 1,1zm-334 -17c0,0 1,0 1,0 0,0 -1,1 -1,1 0,0 -1,1 -1,1 -1,0 -1,0 -1,0 -1,0 -1,0 -1,0 0,0 0,0 0,-1 1,0 1,-1 1,-1 1,0 1,0 2,0zm-1019 509c1,0 1,-1 2,-1 0,0 0,0 0,0 0,0 0,1 0,1 0,0 0,1 -1,1 0,0 -1,0 -1,0l0 0c0,0 0,0 0,0 0,0 0,0 0,0 0,0 0,-1 0,-1zm1064 2950l2 0c-1,0 -2,0 -2,0zm345 -10c-1,0 -3,0 -4,1 6,-2 11,-4 15,-7 7,-3 12,-6 17,-9 -13,5 -33,9 -54,9 -23,0 -39,5 -56,10l0 0c-8,3 -15,5 -23,7 -27,2 -53,3 -78,4 -7,-1 -13,-2 -21,-3 -80,-12 -112,-7 -129,-4 -4,1 -8,2 -10,2 27,2 63,4 102,5 -34,0 -67,-2 -100,-4 -329,-28 -601,-167 -858,-328 132,110 448,295 858,328 39,3 79,5 120,5 18,0 36,1 54,0 14,1 25,1 36,0 51,-2 98,-6 127,-15 1,-1 3,-1 4,-1zm37 -6c-12,2 -25,4 -37,6 12,-2 25,-4 37,-6zm-168 22c-12,0 -24,0 -36,0 -4,0 -9,0 -13,-1 24,0 48,-1 73,-3 -7,1 -15,3 -24,4zm325 -22c-316,79 -542,56 -796,-3 12,1 29,5 52,9l0 0c112,22 363,71 744,-6zm-774 -60c218,61 382,82 682,11 -326,73 -541,21 -638,-2 -19,-5 -34,-8 -44,-9zm2 72c-318,-71 -511,-193 -711,-358 10,6 24,17 43,32 90,72 288,233 668,326z"/>
   <polygon class="fil0" points="322,1902 79,1397 0,1397 0,2146 79,2146 79,1560 292,1996 352,1996 564,1560 564,2146 643,2146 643,1397 564,1397 "/>
   <polygon class="fil0" points="1010,1397 737,2146 821,2146 875,1991 907,1899 907,1899 1042,1508 1130,1759 1179,1899 1178,1899 1208,1985 1265,2146 1348,2146 1076,1397 "/>
   <polygon class="fil0" points="1909,1999 1522,1397 1442,1397 1442,2146 1522,2146 1522,1543 1909,2146 1988,2146 1988,1397 1909,1397 "/>
   <polygon class="fil0" points="2083,1469 2297,1469 2297,2146 2375,2146 2375,1469 2589,1469 2589,1397 2083,1397 "/>
   <path class="fil0" d="M3145 1740c29,-34 42,-79 42,-132 0,-67 -19,-119 -60,-156 -40,-36 -95,-55 -165,-55l-278 0 0 749 80 0 0 -329 180 0 169 329 91 0 -177 -336c51,-12 90,-35 118,-70zm-381 9l0 -280 192 0c49,0 86,12 113,35 26,24 39,59 39,105 0,45 -13,79 -40,104 -27,24 -64,36 -113,36l-191 0z"/>
   <path class="fil0" d="M4451 1397l-256 0 0 749 256 0c80,0 143,-23 189,-69 47,-46 70,-118 70,-217l0 -176c0,-99 -23,-171 -70,-217 -46,-47 -109,-70 -189,-70zm179 467c0,140 -59,210 -178,210l-177 0 0 -605 177 0c57,0 101,17 132,52 30,35 46,90 46,166l0 177 0 0z"/>
   <path class="fil0" d="M5918 1457c-47,-46 -110,-69 -188,-69 -80,0 -143,23 -190,69 -47,46 -71,118 -71,217l0 194c0,99 24,171 70,217 47,46 110,69 190,69 79,0 141,-23 188,-69 47,-46 71,-118 71,-217l0 -194c0,-99 -23,-171 -70,-217zm-9 416c0,139 -60,209 -179,209 -60,0 -104,-17 -135,-50 -31,-33 -47,-86 -47,-159l0 -196c0,-76 16,-132 46,-166 30,-34 75,-52 135,-52 119,0 179,73 179,218l0 196 1 0z"/>
   <polygon class="fil0" points="5400,2146 5128,1397 5061,1397 4789,2146 4873,2146 4918,2017 4959,1899 4990,1808 5094,1508 5231,1899 5230,1899 5270,2012 5316,2146 "/>
   <polygon class="fil0" points="3865,2146 3593,1397 3527,1397 3255,2146 3338,2146 3391,1994 3424,1899 3424,1899 3560,1508 3684,1863 3696,1899 3729,1994 3782,2146 "/>
  </g>
 </g>
</svg>
