<?xml version="1.0" encoding="UTF-8"?>
<!DOCTYPE svg PUBLIC "-//W3C//DTD SVG 1.0//EN" "http://www.w3.org/TR/2001/REC-SVG-20010904/DTD/svg10.dtd">
<!-- Creator: CorelDRAW X7 -->
<svg xmlns="http://www.w3.org/2000/svg" xml:space="preserve" width="7.02221in" height="1.58334in" version="1.0" style="shape-rendering:geometricPrecision; text-rendering:geometricPrecision; image-rendering:optimizeQuality; fill-rule:evenodd; clip-rule:evenodd"
viewBox="0 0 7022 1583"
 xmlns:xlink="http://www.w3.org/1999/xlink">
 <defs>
  <style type="text/css">
   <![CDATA[
    .fil3 {fill:#4D4D4D}
    .fil5 {fill:gray}
    .fil1 {fill:#999999}
    .fil6 {fill:#9DAFB7}
    .fil7 {fill:#A5DFFB}
    .fil0 {fill:#B3B3B3}
    .fil2 {fill:#CCCCCC}
    .fil4 {fill:white}
   ]]>
  </style>
 </defs>
 <g id="Layer_x0020_1">
  <metadata id="CorelCorpID_0Corel-Layer"/>
  <g id="_300714328">
   <polygon class="fil0" points="291,305 562,300 567,1286 1150,1283 1153,1439 1279,1442 1278,1578 860,1582 856,1431 440,1428 429,1269 298,1275 "/>
   <polygon class="fil1" points="144,301 291,305 298,1275 429,1269 440,1428 856,1431 860,1582 427,1583 430,1443 423,1428 293,1436 286,1283 137,1276 144,1000 1,999 0,577 150,584 "/>
   <polygon class="fil2" points="297,153 437,164 434,0 858,1 856,150 1278,159 1279,290 1411,294 1419,1433 1279,1424 1279,1442 1153,1439 1150,1283 1141,291 714,294 562,300 291,305 "/>
   <polygon class="fil1" points="563,488 722,489 721,294 562,300 "/>
   <polygon class="fil3" points="723,571 817,578 816,656 893,655 887,747 987,747 983,499 1143,498 1148,1076 983,1076 984,904 900,908 899,821 813,827 816,736 726,740 733,1081 566,1081 571,488 722,489 "/>
   <polygon class="fil1" points="989,1156 990,1284 567,1286 567,1081 733,1081 735,1156 "/>
   <path class="fil4" d="M1150 1283l-160 1 0 -208 158 -1c0,0 1,208 2,208z"/>
   <polygon class="fil4" points="722,425 991,431 992,499 1143,498 1141,291 721,294 "/>
   <polygon class="fil2" points="991,431 722,425 722,489 723,571 817,578 816,656 893,655 887,747 987,747 983,499 992,499 "/>
   <path class="fil2" d="M990 1284l160 -1c-1,0 -2,-188 -2,-207l-158 0 0 208zm-91 -463l-86 6 3 -91 -90 4 7 341 2 75 254 0 1 128 160 -1 -2 -208 -158 1 -7 0 1 -172 -84 4 -1 -87z"/>
   <polygon class="fil4" points="858,1 1281,5 1281,139 1416,146 1411,294 1565,295 1568,579 1715,580 1714,998 1572,997 1567,1285 1418,1286 1411,309 1411,300 1403,294 1279,290 1278,159 861,150 "/>
   <path class="fil2" d="M5265 719l3 117 -53 -8 -22 50 -302 0 -3 -433 10 -31 53 -4c41,-46 -78,-39 232,-38 81,0 162,0 242,0l0 305 -60 0 -11 -252 -3 247c-142,4 -64,-15 -86,47zm-377 591l0 -274 63 0 0 -42 158 0 1 155 158 4 0 157 408 0 2 -115 -152 0 -5 -159c-26,0 -60,2 -85,-1l-74 -20c0,-177 -61,-145 314,-145l3 -467 -158 0 0 -147 -886 -1 0 1055 253 0z"/>
   <polygon class="fil2" points="2356,1310 2356,719 2420,719 2420,677 2577,677 2577,836 2736,848 2736,994 2894,994 2894,1300 3145,1310 3147,256 2887,264 2894,677 2834,677 2799,719 2674,719 2674,573 2515,561 2515,402 2357,402 2357,254 2103,255 2103,1310 "/>
   <path class="fil2" d="M6527 1047l6 105 -54 -8 -30 50 -293 0 -2 -749 10 -32 53 2c45,-58 -13,-24 63,-44l254 1 0 157 157 0c0,113 -1,226 1,339 3,177 -11,152 -165,179zm133 273l6 -5 10 -128 106 -9 -9 -12 15 -108 62 -1 0 -42 92 0 2 -443 -158 0 0 -167 -158 -12 0 -137 -727 -1 0 1055 759 10z"/>
   <path class="fil2" d="M3944 527l-69 -4c-67,19 -28,-12 -41,49l11 105 -60 0 -12 34 -88 8 7 117 468 0 0 315 -59 0 -11 42 -457 1 -12 -159 -252 1 6 117 152 0 -1 147 729 10 0 -84 9 -33 142 -8 8 -307 -149 0 -12 -158 -157 -5 0 -133 72 -19c-13,-58 19,-33 87,-33l10 -117 141 -9 7 -150 -893 13 9 102 473 3 0 158 -58 -3z"/>
   <path class="fil4" d="M4635 255l886 1 0 147 158 0 -3 467c-375,0 -314,-32 -314,145l74 20c25,3 59,1 85,1l5 159 152 0 -2 115 -2 41c23,-34 11,-25 58,-41l0 -147c-19,0 -71,2 -85,1 -104,-14 -26,1 -63,-23l0 -147 -144 0 0 -108c386,0 316,25 316,-527l-172 2 0 -148 -949 0 0 42z"/>
   <path class="fil4" d="M5901 255l727 1 0 137 158 12 0 167 158 0 -2 443 -2 41c42,-59 59,-24 68,-54 2,-7 10,-5 14,-8l0 -466 -172 1 0 -168 -144 0 0 -148 -805 0 0 42z"/>
   <path class="fil4" d="M2887 264l260 -8 -2 1054 -3 41 83 -62 0 -1077c-427,1 -331,-14 -338,52z"/>
   <path class="fil5" d="M6660 1320l-759 -10 0 -1055 -64 0 0 1097 634 1c230,6 189,59 189,-33z"/>
   <path class="fil5" d="M2420 719l63 0 -1 182 191 -13 0 148 127 0 0 337c124,-31 215,-19 342,-22l3 -41 -251 -10 0 -306 -158 0 0 -146 -159 -12 0 -159 -157 0 0 42z"/>
   <polygon class="fil5" points="4888,1310 4635,1310 4635,255 4572,255 4572,1352 4888,1352 "/>
   <polygon class="fil5" points="2356,1310 2103,1310 2103,255 2040,255 2040,1352 2356,1352 "/>
   <path class="fil5" d="M6466 422l11 144 128 0 -3 415c-28,56 -48,-5 -75,66 154,-27 168,-2 165,-179 -2,-113 -1,-226 -1,-339l-157 0 0 -157 -254 -1c-76,20 -18,-14 -63,44l249 7z"/>
   <path class="fil5" d="M4255 1310l-729 -10 1 -147 -152 0 -6 -117 -59 0 -25 190 147 0 0 147c191,-48 606,-21 823,-21l0 -42z"/>
   <path class="fil4" d="M4255 1310l64 0 0 -108c17,1 43,2 60,-1l61 -21c81,-52 51,-129 51,-359l-172 1 -1 -145 -142 0 -8 -114 -72 19 0 133 157 5 12 158 149 0 -8 307 -142 8 -9 33 0 84z"/>
   <path class="fil4" d="M3520 267l893 -13 -7 150 -141 9 -10 117 64 0 0 -108c199,2 172,-90 172,-212l-932 3c-79,17 -25,-22 -39,54z"/>
   <polygon class="fil4" points="6479,1144 6217,1138 6217,422 6466,422 6217,415 6164,413 6154,445 6156,1194 6449,1194 "/>
   <path class="fil4" d="M2103 255l254 -1 0 148 158 0 0 159 159 12 0 146 125 0 35 -42 4 -421c-44,95 -16,298 -16,421l-85 0 -1 -148 -144 0 0 -170 -172 1 0 -147 -317 42z"/>
   <polygon class="fil5" points="4088,897 4101,1151 4160,1151 4160,836 3692,836 3685,719 3631,725 3609,902 "/>
   <polygon class="fil5" points="3944,527 4002,530 4002,372 3529,369 3520,267 3440,242 3436,444 3944,436 "/>
   <path class="fil5" d="M4951 1036l85 0c33,52 21,23 21,148 198,0 117,1 147,21l0 147 470 -1 2 -41 -408 0 0 -157 -158 -4 -1 -155 -158 0 0 42z"/>
   <path class="fil4" d="M3369 1036l252 -1 12 159 457 -1 11 -42 -13 -254 0 240 -402 0 0 -144c-64,0 -128,-1 -192,-1 -146,-2 -111,8 -125,44z"/>
   <polygon class="fil4" points="5215,828 4952,821 4952,422 5354,425 4951,410 4898,414 4888,445 4891,878 5193,878 "/>
   <path class="fil5" d="M5354 425l11 252 60 0 0 -305c-80,0 -161,0 -242,0 -310,-1 -191,-8 -232,38l403 15z"/>
   <polygon class="fil4" points="2356,1310 2420,1310 2420,719 2356,719 "/>
   <polygon class="fil5" points="2834,677 2894,677 2887,264 2838,256 "/>
   <polygon class="fil4" points="4888,1310 4951,1310 4951,1036 4888,1036 "/>
   <polygon class="fil4" points="6773,1166 6852,1166 6850,1057 6788,1058 "/>
   <path class="fil6" d="M5204 1205c-30,-20 51,-21 -147,-21 0,-125 12,-96 -21,-148l-5 171 173 -2z"/>
   <path class="fil7" d="M5732 1310c14,-22 11,-1 20,-43 1,-7 3,-39 3,-40 1,-21 -1,-62 -1,-86l-170 0c37,24 -41,9 63,23 14,1 66,-1 85,-1l0 147z"/>
   <path class="fil5" d="M3685 719l88 -8 12 -34 7 -105c-15,22 -11,2 -21,43 -3,13 -1,47 -1,61 -132,3 -63,-14 -85,43z"/>
  </g>
 </g>
</svg>
