<?xml version="1.0" encoding="UTF-8"?>
<!DOCTYPE svg PUBLIC "-//W3C//DTD SVG 1.1//EN" "http://www.w3.org/Graphics/SVG/1.1/DTD/svg11.dtd">
<!-- Creator: CorelDRAW 2018 (64-Bit) -->
<svg xmlns="http://www.w3.org/2000/svg" xml:space="preserve" width="1.76971in" height="1.78983in" version="1.1" style="shape-rendering:geometricPrecision; text-rendering:geometricPrecision; image-rendering:optimizeQuality; fill-rule:evenodd; clip-rule:evenodd"
viewBox="0 0 1769.71 1789.83"
 xmlns:xlink="http://www.w3.org/1999/xlink">
 <defs>
  <style type="text/css">
   <![CDATA[
    .fil0 {fill:black}
    .fil2 {fill:#517913}
    .fil13 {fill:#517913}
    .fil10 {fill:#59800F}
    .fil11 {fill:#6F930F}
    .fil12 {fill:#83A40C}
    .fil9 {fill:#96B409}
    .fil14 {fill:#96B409}
    .fil4 {fill:#AFCA06}
    .fil15 {fill:#AFCA06}
    .fil8 {fill:#C4DD02}
    .fil1 {fill:#D1E800}
    .fil3 {fill:#D1E800}
    .fil6 {fill:#E4F26A}
    .fil5 {fill:#EBF592}
    .fil7 {fill:#F1F8B0}
   ]]>
  </style>
 </defs>
 <g id="Layer_x0020_1">
  <metadata id="CorelCorpID_0Corel-Layer"/>
  <g id="_1108080357568">
   <g>
    <circle class="fil0" cx="870.14" cy="909.64" r="861.16"/>
    <g>
     <polygon class="fil1" points="661.91,35.94 675.06,34.43 688.37,33.28 701.83,32.48 715.41,32.02 729.09,31.89 742.88,32.09 756.74,32.6 770.65,33.41 784.61,34.53 798.59,35.94 812.58,37.63 826.57,39.59 840.53,41.81 854.44,44.29 868.3,47.02 882.09,49.98 895.78,53.18 909.36,56.59 922.81,60.22 936.13,64.06 949.28,68.09 962.25,72.3 975.02,76.69 987.59,81.26 999.93,85.98 1012.03,90.85 1023.86,95.87 1035.41,101.02 1046.67,106.3 1057.61,111.7 1068.22,117.2 1078.49,122.81 1083.8,125.81 1089.07,128.83 1094.31,131.89 1099.49,134.96 1104.64,138.05 1109.74,141.18 1114.8,144.31 1119.82,147.48 1124.79,150.66 1129.72,153.87 1134.6,157.09 1139.43,160.34 1144.22,163.61 1148.97,166.89 1153.66,170.2 1158.3,173.52 1162.9,176.87 1167.45,180.23 1171.94,183.61 1176.4,187 1180.8,190.42 1185.14,193.85 1189.43,197.3 1193.67,200.77 1197.86,204.24 1202,207.74 1206.08,211.25 1210.11,214.78 1214.07,218.31 1217.99,221.87 1221.85,225.44 1225.65,229.02 1229.97,233.13 1234.13,237.12 1238.14,240.99 1242.01,244.76 1245.74,248.43 1249.35,252.02 1252.85,255.52 1256.23,258.95 1259.52,262.33 1262.71,265.65 1265.82,268.93 1268.86,272.18 1271.83,275.4 1274.74,278.61 1277.6,281.81 1280.42,285.02 1283.2,288.24 1285.96,291.49 1288.71,294.76 1291.44,298.08 1294.18,301.45 1296.93,304.88 1299.69,308.37 1302.48,311.94 1305.29,315.6 1308.15,319.37 1311.06,323.22 1314.03,327.2 1317.07,331.3 1320.18,335.54 1323.38,339.91 1326.66,344.44 1327.52,345.66 1328.35,346.86 1329.14,348.06 1329.91,349.25 1330.67,350.45 1331.43,351.67 1332.19,352.91 1332.98,354.17 1338.09,364.31 1350.84,378.85 1363.26,393.67 1375.33,408.76 1387.06,424.11 1398.42,439.72 1409.42,455.6 1420.04,471.74 1430.28,488.13 1440.12,504.77 1449.57,521.65 1458.59,538.78 1467.2,556.15 1475.39,573.75 1483.13,591.58 1490.43,609.64 1497.27,627.93 1503.65,646.43 1509.55,665.16 1514.98,684.09 1519.91,703.23 1524.35,722.58 1528.28,742.13 1531.69,761.88 1534.59,781.82 1536.94,801.95 1538.76,822.27 1540.02,842.77 1540.72,863.44 1540.86,884.3 1540.42,905.31 1539.4,926.51 1537.78,947.85 1535.03,973.8 1531.45,999.5 1527.05,1024.95 1521.85,1050.13 1515.86,1075.03 1509.1,1099.62 1501.58,1123.9 1493.32,1147.84 1484.33,1171.43 1474.62,1194.65 1464.21,1217.49 1453.12,1239.93 1441.35,1261.94 1428.93,1283.53 1415.87,1304.67 1402.18,1325.33 1387.87,1345.53 1372.96,1365.22 1357.48,1384.4 1341.42,1403.05 1324.81,1421.15 1307.66,1438.69 1289.98,1455.66 1271.8,1472.02 1253.11,1487.79 1233.95,1502.93 1214.33,1517.42 1194.25,1531.26 1173.74,1544.43 1152.8,1556.91 1131.45,1568.68 1109.72,1579.73 1105.33,1581.85 1100.98,1583.94 1096.64,1585.98 1092.31,1587.99 1088.01,1589.96 1083.71,1591.89 1079.43,1593.79 1075.14,1595.65 1070.86,1597.49 1066.58,1599.3 1062.3,1601.07 1058.01,1602.82 1053.7,1604.54 1049.39,1606.24 1045.06,1607.92 1040.72,1609.57 1036.35,1611.2 1031.96,1612.81 1027.54,1614.4 1023.09,1615.97 1018.6,1617.53 1014.09,1619.07 1009.53,1620.6 1004.92,1622.12 1000.28,1623.62 995.59,1625.12 990.84,1626.61 986.04,1628.09 981.19,1629.56 976.28,1631.03 971.3,1632.5 966.26,1633.96 956.32,1636.72 946.22,1639.32 935.98,1641.76 925.61,1644.04 915.11,1646.16 904.5,1648.12 893.76,1649.91 882.93,1651.55 872,1653.02 860.98,1654.33 849.89,1655.48 838.72,1656.47 827.49,1657.3 816.2,1657.95 804.87,1658.45 793.5,1658.78 782.11,1658.95 770.68,1658.96 759.25,1658.8 747.8,1658.48 736.36,1657.98 724.93,1657.33 713.51,1656.51 702.13,1655.52 690.77,1654.37 679.46,1653.06 668.19,1651.57 656.99,1649.92 645.85,1648.1 634.78,1646.11 623.79,1643.95 612.9,1641.64 599.71,1638.59 586.72,1635.37 573.94,1631.98 561.36,1628.4 548.96,1624.64 536.76,1620.71 524.74,1616.6 512.89,1612.32 501.22,1607.87 489.72,1603.24 478.38,1598.45 467.2,1593.49 456.17,1588.36 445.3,1583.06 434.57,1577.6 423.98,1571.98 413.52,1566.19 403.2,1560.24 393.01,1554.12 382.93,1547.86 372.98,1541.43 363.13,1534.85 353.4,1528.11 343.77,1521.21 334.24,1514.17 324.8,1506.97 315.45,1499.62 306.19,1492.12 297.01,1484.48 287.9,1476.69 278.86,1468.74 269.89,1460.66 268.24,1459.15 266.58,1457.61 264.92,1456.06 263.25,1454.5 261.58,1452.93 259.92,1451.34 258.26,1449.75 256.61,1448.16 254.96,1446.56 253.32,1444.96 251.69,1443.35 250.08,1441.76 248.48,1440.16 246.91,1438.57 245.34,1437 243.8,1435.43 241.46,1433.01 239.01,1430.41 236.45,1427.66 233.8,1424.75 231.07,1421.71 228.26,1418.54 225.38,1415.24 222.44,1411.85 219.46,1408.35 216.42,1404.77 213.36,1401.11 210.26,1397.39 207.16,1393.61 204.04,1389.79 200.91,1385.93 197.8,1382.05 194.7,1378.16 191.63,1374.26 188.59,1370.37 185.59,1366.51 182.65,1362.67 179.76,1358.87 176.93,1355.12 174.18,1351.43 171.52,1347.81 168.94,1344.28 166.46,1340.84 164.11,1337.5 161.85,1334.28 159.73,1331.17 157.74,1328.21 155.89,1325.39 154.75,1323.59 153.63,1321.8 152.52,1320 151.43,1318.2 150.34,1316.41 149.26,1314.63 148.16,1312.85 147.06,1311.09 145.93,1309.33 144.79,1307.6 143.61,1305.88 142.4,1304.17 141.15,1302.49 139.85,1300.83 138.5,1299.2 137.08,1297.59 126.91,1287.73 123.42,1283.06 120.11,1278.64 116.94,1274.46 113.9,1270.45 110.96,1266.58 108.09,1262.8 105.28,1259.06 102.49,1255.32 99.7,1251.54 96.89,1247.66 94.02,1243.65 91.09,1239.46 88.06,1235.05 84.9,1230.37 81.6,1225.37 78.13,1220.01 28.98,1135.62 56.52,1223.2 58.77,1228.6 60.94,1233.83 63.04,1238.89 65.06,1243.79 67.01,1248.55 68.91,1253.18 70.76,1257.69 72.57,1262.1 74.36,1266.41 76.12,1270.64 77.86,1274.8 79.6,1278.9 81.34,1282.95 83.09,1286.97 84.87,1290.97 86.66,1294.96 88.5,1298.96 90.37,1302.96 92.3,1307 94.3,1311.08 96.35,1315.21 98.49,1319.4 100.71,1323.67 103.02,1328.02 105.44,1332.48 107.97,1337.04 110.61,1341.74 113.39,1346.57 116.3,1351.54 119.35,1356.69 122.56,1362 125.92,1367.5 126.89,1369.11 127.93,1370.86 129.01,1372.73 130.14,1374.7 131.31,1376.73 132.49,1378.81 133.7,1380.91 134.93,1383 136.16,1385.07 137.39,1387.07 138.6,1389.01 139.8,1390.83 140.97,1392.52 142.11,1394.07 143.2,1395.43 144.24,1396.59 145.45,1396.98 147.36,1398.27 149.87,1400.35 152.91,1403.08 156.36,1406.38 160.12,1410.1 164.11,1414.13 168.22,1418.37 172.35,1422.68 176.41,1426.96 180.3,1431.07 183.93,1434.91 187.18,1438.37 189.98,1441.31 192.21,1443.62 193.78,1445.19 197.11,1448.37 200.44,1451.54 203.8,1454.7 207.15,1457.85 210.52,1461 213.91,1464.13 217.33,1467.25 220.76,1470.36 224.22,1473.46 227.72,1476.54 231.24,1479.61 234.81,1482.67 238.41,1485.72 242.06,1488.75 245.76,1491.77 249.5,1494.77 261.86,1504.44 274.34,1513.88 286.93,1523.09 299.64,1532.09 312.48,1540.85 325.43,1549.38 338.5,1557.67 351.7,1565.74 365.03,1573.56 378.48,1581.14 392.07,1588.48 405.78,1595.58 419.63,1602.43 433.61,1609.03 447.74,1615.38 462,1621.48 476.4,1627.32 490.94,1632.9 505.63,1638.23 520.46,1643.29 535.44,1648.09 550.57,1652.62 565.85,1656.88 581.28,1660.87 596.87,1664.59 612.61,1668.03 628.51,1671.2 644.57,1674.09 660.8,1676.69 677.19,1679 693.74,1681.04 710.46,1682.78 726.22,1684.12 742.07,1685.16 757.98,1685.91 773.97,1686.35 790.01,1686.5 806.09,1686.35 822.21,1685.91 838.35,1685.19 854.5,1684.17 870.65,1682.85 886.8,1681.26 902.92,1679.39 919,1677.22 935.06,1674.78 951.05,1672.06 966.98,1669.06 982.83,1665.78 998.6,1662.23 1014.28,1658.41 1029.84,1654.31 1045.29,1649.95 1060.6,1645.31 1075.78,1640.41 1090.8,1635.25 1105.67,1629.82 1120.36,1624.13 1134.86,1618.19 1149.17,1611.98 1163.28,1605.52 1177.17,1598.8 1190.82,1591.83 1204.24,1584.61 1209.67,1581.6 1215.04,1578.59 1220.37,1575.59 1225.64,1572.58 1230.87,1569.58 1236.06,1566.57 1241.2,1563.55 1246.3,1560.53 1251.36,1557.49 1256.39,1554.45 1261.37,1551.39 1266.32,1548.32 1271.23,1545.23 1276.12,1542.12 1280.97,1538.99 1285.79,1535.83 1290.59,1532.66 1295.37,1529.46 1300.11,1526.22 1304.83,1522.97 1309.53,1519.67 1314.21,1516.35 1318.87,1512.99 1323.52,1509.59 1328.15,1506.15 1332.77,1502.67 1337.38,1499.15 1341.97,1495.59 1346.56,1491.97 1351.14,1488.31 1355.71,1484.6 1360.28,1480.84 1366.24,1475.85 1372.23,1470.74 1378.25,1465.51 1384.28,1460.17 1390.34,1454.71 1396.42,1449.16 1402.49,1443.5 1408.56,1437.76 1414.63,1431.91 1420.68,1425.99 1426.72,1419.98 1432.72,1413.89 1438.7,1407.73 1444.64,1401.51 1450.54,1395.22 1456.39,1388.87 1462.19,1382.48 1467.92,1376.03 1473.59,1369.54 1479.18,1363 1484.7,1356.44 1490.13,1349.84 1495.47,1343.22 1500.71,1336.57 1505.85,1329.91 1510.89,1323.24 1515.8,1316.56 1520.6,1309.87 1525.28,1303.19 1529.81,1296.52 1534.21,1289.86 1538.47,1283.21 1544.06,1274.29 1549.56,1265.37 1554.97,1256.46 1560.3,1247.54 1565.54,1238.61 1570.7,1229.68 1575.76,1220.71 1580.74,1211.72 1585.63,1202.69 1590.42,1193.61 1595.12,1184.49 1599.73,1175.31 1604.24,1166.07 1608.67,1156.76 1612.99,1147.37 1617.22,1137.9 1621.35,1128.35 1625.39,1118.69 1629.32,1108.93 1633.16,1099.06 1636.9,1089.07 1640.54,1078.97 1644.07,1068.73 1647.51,1058.36 1650.85,1047.84 1654.07,1037.18 1657.2,1026.35 1660.22,1015.37 1663.13,1004.22 1665.94,992.89 1668.64,981.37 1671.23,969.67 1673.76,957.5 1676.13,945.35 1678.32,933.2 1680.34,921.07 1682.2,908.96 1683.89,896.86 1685.42,884.78 1686.78,872.71 1687.97,860.66 1689.01,848.63 1689.88,836.61 1690.59,824.63 1691.14,812.66 1691.54,800.72 1691.77,788.8 1691.85,776.91 1691.78,765.05 1691.55,753.21 1691.16,741.41 1690.63,729.63 1689.94,717.88 1689.1,706.17 1688.11,694.48 1686.98,682.83 1685.69,671.22 1684.26,659.65 1682.69,648.11 1680.96,636.6 1679.1,625.14 1677.09,613.72 1674.94,602.34 1672.66,591 1670.76,582.07 1668.78,573.25 1666.74,564.54 1664.62,555.92 1662.44,547.4 1660.19,538.96 1657.87,530.62 1655.47,522.35 1653,514.17 1650.47,506.06 1647.87,498.01 1645.19,490.02 1642.43,482.09 1639.61,474.23 1636.71,466.41 1633.75,458.63 1630.7,450.89 1627.58,443.19 1624.39,435.53 1621.12,427.89 1617.78,420.27 1614.37,412.67 1610.87,405.08 1607.3,397.5 1603.66,389.93 1599.93,382.36 1596.14,374.78 1592.26,367.19 1588.31,359.59 1584.28,351.97 1580.17,344.33 1575.98,336.67 1575.04,335.02 1573.91,333.18 1572.63,331.15 1571.24,328.99 1569.77,326.73 1568.26,324.4 1566.76,322.03 1565.29,319.66 1563.9,317.33 1562.61,315.06 1561.48,312.91 1560.53,310.89 1559.8,309.05 1559.33,307.41 1559.16,306.02 1559.32,304.9 1485.28,226.94 1483.55,225.24 1481.65,223.43 1479.59,221.52 1477.38,219.5 1475.04,217.39 1472.58,215.21 1470,212.96 1467.31,210.64 1464.54,208.26 1461.68,205.84 1458.75,203.38 1455.75,200.89 1452.71,198.37 1449.62,195.84 1446.5,193.31 1443.36,190.77 1440.22,188.25 1437.07,185.74 1433.93,183.26 1430.81,180.81 1427.72,178.41 1424.68,176.06 1421.69,173.77 1418.76,171.55 1415.9,169.39 1413.13,167.33 1410.44,165.35 1407.87,163.48 1405.41,161.71 1403.07,160.06 1400.87,158.54 1398.81,157.14 1392.8,153.14 1386.75,149.15 1380.67,145.19 1374.57,141.24 1368.43,137.32 1362.26,133.43 1356.06,129.57 1349.83,125.74 1343.56,121.94 1337.27,118.18 1330.94,114.46 1324.59,110.78 1318.2,107.15 1311.78,103.56 1305.34,100.02 1298.86,96.54 1292.35,93.11 1285.81,89.73 1279.24,86.41 1272.64,83.16 1266,79.96 1259.34,76.83 1252.65,73.78 1245.92,70.8 1239.17,67.88 1232.38,65.05 1225.56,62.29 1218.71,59.61 1211.83,57.02 1204.93,54.51 1197.99,52.09 1191.02,49.77 1184.55,47.67 1178.11,45.61 1171.7,43.6 1165.3,41.63 1158.93,39.7 1152.56,37.81 1146.23,35.97 1139.9,34.17 1133.6,32.41 1127.3,30.7 1121.02,29.02 1114.75,27.39 1108.49,25.81 1102.24,24.27 1095.99,22.77 1089.75,21.32 1083.52,19.92 1077.29,18.56 1071.06,17.24 1064.83,15.98 1058.6,14.76 1052.37,13.58 1046.15,12.45 1039.91,11.37 1033.67,10.33 1027.42,9.35 1021.17,8.41 1014.9,7.52 1008.63,6.68 1002.34,5.88 996.04,5.14 989.73,4.44 949.73,1.22 946.69,1.06 943.63,0.91 940.58,0.77 937.52,0.64 934.45,0.52 931.38,0.42 928.3,0.33 925.22,0.24 922.13,0.18 919.03,0.11 915.93,0.07 912.82,0.04 909.7,0.01 906.58,0 903.45,0 900.31,0.02 897.17,0.04 894.01,0.08 890.85,0.13 887.69,0.18 884.51,0.26 881.33,0.34 878.14,0.44 874.94,0.55 871.73,0.67 868.51,0.8 865.29,0.94 862.05,1.1 858.81,1.27 855.56,1.45 852.3,1.65 849.03,1.85 845.07,2.11 841.1,2.39 837.1,2.68 833.08,2.98 829.05,3.31 825,3.65 820.93,4 816.84,4.37 812.75,4.75 808.65,5.15 804.54,5.57 800.43,6 796.31,6.46 792.19,6.93 788.07,7.41 783.96,7.92 779.85,8.44 775.74,8.98 771.65,9.54 767.57,10.12 763.5,10.72 759.44,11.34 755.41,11.98 751.39,12.64 747.39,13.32 743.42,14.02 739.47,14.74 735.54,15.49 731.65,16.25 727.78,17.04 723.95,17.84 720.15,18.67 718.07,19.12 715.33,19.68 712.02,20.35 708.24,21.12 704.09,22 699.67,22.95 695.07,24 690.4,25.11 685.75,26.3 681.21,27.54 676.89,28.85 672.88,30.2 669.28,31.59 666.19,33.01 663.7,34.47 "/>
     <polygon class="fil2" points="144.24,1396.59 149.27,1404.62 154.51,1412.67 159.94,1420.74 165.58,1428.81 171.4,1436.88 177.39,1444.94 183.56,1452.99 189.88,1461.02 196.37,1469.03 202.99,1477 209.75,1484.93 216.64,1492.81 223.65,1500.65 230.78,1508.42 238,1516.12 245.33,1523.75 252.74,1531.3 260.23,1538.76 267.8,1546.14 275.42,1553.41 283.11,1560.58 290.84,1567.63 298.61,1574.56 306.41,1581.36 314.23,1588.03 322.07,1594.56 329.91,1600.95 337.76,1607.18 345.59,1613.25 353.4,1619.15 361.19,1624.88 368.94,1630.42 377.43,1636.33 386.02,1642.19 394.74,1648 403.58,1653.75 412.54,1659.43 421.63,1665.04 430.84,1670.59 440.17,1676.05 449.63,1681.44 459.23,1686.74 468.95,1691.94 478.81,1697.07 488.79,1702.09 498.92,1707 509.17,1711.82 519.56,1716.52 530.09,1721.11 540.76,1725.59 551.57,1729.94 562.52,1734.17 573.62,1738.26 584.85,1742.22 596.24,1746.04 607.76,1749.72 619.44,1753.25 631.27,1756.63 643.25,1759.86 655.37,1762.92 667.65,1765.83 680.09,1768.56 692.69,1771.12 705.44,1773.5 709.06,1774.16 712.71,1774.82 716.4,1775.5 720.12,1776.18 723.87,1776.87 727.65,1777.56 731.46,1778.25 735.3,1778.94 739.16,1779.63 743.05,1780.31 746.96,1780.98 750.9,1781.64 754.86,1782.29 758.85,1782.92 762.86,1783.54 766.89,1784.13 814.44,1788.81 827.89,1789.32 841.19,1789.66 854.33,1789.83 867.35,1789.84 880.25,1789.69 893.02,1789.36 905.69,1788.87 918.25,1788.22 930.72,1787.4 943.1,1786.41 955.4,1785.26 967.63,1783.93 979.79,1782.44 991.9,1780.79 1003.96,1778.96 1015.98,1776.96 1027.97,1774.8 1039.94,1772.46 1051.89,1769.95 1063.82,1767.28 1075.76,1764.43 1087.7,1761.41 1099.66,1758.22 1111.65,1754.86 1123.66,1751.33 1135.71,1747.63 1147.81,1743.74 1159.96,1739.69 1172.18,1735.46 1184.46,1731.06 1196.82,1726.49 1209.27,1721.74 1220.26,1717.37 1231.25,1712.74 1242.24,1707.88 1253.22,1702.79 1264.2,1697.46 1275.16,1691.92 1286.09,1686.17 1296.99,1680.21 1307.85,1674.06 1318.67,1667.71 1329.43,1661.18 1340.14,1654.47 1350.78,1647.59 1361.34,1640.55 1371.83,1633.35 1382.24,1626.01 1392.55,1618.52 1402.76,1610.91 1412.87,1603.16 1422.87,1595.29 1432.74,1587.31 1442.5,1579.22 1452.11,1571.03 1461.59,1562.76 1470.93,1554.39 1480.11,1545.95 1489.13,1537.45 1497.98,1528.87 1506.67,1520.24 1515.17,1511.56 1523.49,1502.85 1531.62,1494.09 1533.42,1492.12 1535.2,1490.18 1536.94,1488.26 1538.67,1486.36 1540.37,1484.48 1542.06,1482.6 1543.73,1480.73 1545.39,1478.86 1547.05,1476.98 1548.69,1475.09 1550.34,1473.18 1552,1471.25 1553.66,1469.3 1555.32,1467.31 1557,1465.28 1558.7,1463.21 1561.83,1459.36 1564.84,1455.63 1567.74,1452.04 1570.54,1448.55 1573.24,1445.16 1575.84,1441.86 1578.36,1438.65 1580.81,1435.51 1583.18,1432.43 1585.5,1429.4 1587.75,1426.41 1589.96,1423.46 1592.13,1420.54 1594.27,1417.62 1596.37,1414.71 1598.46,1411.8 1600.54,1408.86 1602.61,1405.9 1604.68,1402.91 1606.76,1399.87 1608.86,1396.78 1610.98,1393.62 1613.13,1390.39 1615.32,1387.07 1617.55,1383.66 1619.84,1380.15 1622.19,1376.52 1624.6,1372.78 1627.09,1368.89 1629.65,1364.86 1632.3,1360.69 1635.05,1356.34 1646.5,1337.67 1657.45,1318.7 1667.89,1299.44 1677.83,1279.9 1687.26,1260.11 1696.18,1240.07 1704.59,1219.8 1712.5,1199.31 1719.89,1178.63 1726.78,1157.76 1733.15,1136.72 1739.02,1115.52 1744.37,1094.18 1749.21,1072.72 1753.54,1051.14 1757.36,1029.47 1760.67,1007.72 1763.46,985.89 1765.74,964.02 1767.5,942.11 1768.75,920.18 1769.48,898.24 1769.7,876.3 1769.41,854.38 1768.61,832.51 1767.28,810.68 1765.44,788.92 1763.09,767.24 1760.22,745.65 1756.83,724.17 1752.92,702.82 1748.5,681.61 1746.1,671.11 1743.56,660.64 1740.89,650.22 1738.09,639.83 1735.15,629.5 1732.08,619.2 1728.88,608.95 1725.56,598.75 1722.11,588.59 1718.53,578.48 1714.83,568.42 1711,558.41 1707.06,548.44 1703,538.53 1698.81,528.67 1694.52,518.87 1690.1,509.12 1685.58,499.42 1680.94,489.78 1676.19,480.19 1671.33,470.67 1666.37,461.2 1661.3,451.79 1656.13,442.44 1650.85,433.15 1645.47,423.93 1639.99,414.77 1634.41,405.67 1628.73,396.64 1622.96,387.67 1617.1,378.77 1611.14,369.94 1609.57,367.75 1608.01,365.76 1606.46,363.89 1604.93,362.1 1603.41,360.3 1601.89,358.44 1600.38,356.44 1598.88,354.25 1559.32,304.9 1559.16,306.02 1559.33,307.41 1559.8,309.05 1560.53,310.89 1561.48,312.91 1562.61,315.06 1563.9,317.33 1565.29,319.66 1566.76,322.03 1568.26,324.4 1569.77,326.73 1571.24,328.99 1572.63,331.15 1573.91,333.18 1575.04,335.02 1575.98,336.67 1580.17,344.33 1584.28,351.97 1588.31,359.59 1592.26,367.19 1596.14,374.78 1599.93,382.36 1603.66,389.93 1607.3,397.5 1610.87,405.08 1614.37,412.67 1617.78,420.27 1621.12,427.89 1624.39,435.53 1627.58,443.19 1630.7,450.89 1633.75,458.63 1636.71,466.41 1639.61,474.23 1642.43,482.09 1645.19,490.02 1647.87,498.01 1650.47,506.06 1653,514.17 1655.47,522.35 1657.87,530.62 1660.19,538.96 1662.44,547.4 1664.62,555.92 1666.74,564.54 1668.78,573.25 1670.76,582.07 1672.66,591 1674.94,602.34 1677.09,613.72 1679.1,625.14 1680.96,636.6 1682.69,648.11 1684.26,659.65 1685.69,671.22 1686.98,682.83 1688.11,694.48 1689.1,706.17 1689.94,717.88 1690.63,729.63 1691.16,741.41 1691.55,753.21 1691.78,765.05 1691.85,776.91 1691.77,788.8 1691.54,800.72 1691.14,812.66 1690.59,824.63 1689.88,836.61 1689.01,848.63 1687.97,860.66 1686.78,872.71 1685.42,884.78 1683.89,896.86 1682.2,908.96 1680.34,921.07 1678.32,933.2 1676.13,945.35 1673.76,957.5 1671.23,969.67 1668.64,981.37 1665.94,992.89 1663.13,1004.22 1660.22,1015.37 1657.2,1026.35 1654.07,1037.18 1650.85,1047.84 1647.51,1058.36 1644.07,1068.73 1640.54,1078.97 1636.9,1089.07 1633.16,1099.06 1629.32,1108.93 1625.39,1118.69 1621.35,1128.35 1617.22,1137.9 1612.99,1147.37 1608.67,1156.76 1604.24,1166.07 1599.73,1175.31 1595.12,1184.49 1590.42,1193.61 1585.63,1202.69 1580.74,1211.72 1575.76,1220.71 1570.7,1229.68 1565.54,1238.61 1560.3,1247.54 1554.97,1256.46 1549.56,1265.37 1544.06,1274.29 1538.47,1283.21 1534.21,1289.86 1529.81,1296.52 1525.28,1303.19 1520.6,1309.87 1515.8,1316.56 1510.89,1323.24 1505.85,1329.91 1500.71,1336.57 1495.47,1343.22 1490.13,1349.84 1484.7,1356.44 1479.18,1363 1473.59,1369.54 1467.92,1376.03 1462.19,1382.48 1456.39,1388.87 1450.54,1395.22 1444.64,1401.51 1438.7,1407.73 1432.72,1413.89 1426.72,1419.98 1420.68,1425.99 1414.63,1431.91 1408.56,1437.76 1402.49,1443.5 1396.42,1449.16 1390.34,1454.71 1384.28,1460.17 1378.25,1465.51 1372.23,1470.74 1366.24,1475.85 1360.28,1480.84 1355.71,1484.6 1351.14,1488.31 1346.56,1491.97 1341.97,1495.59 1337.38,1499.15 1332.77,1502.67 1328.15,1506.15 1323.52,1509.59 1318.87,1512.99 1314.21,1516.35 1309.53,1519.67 1304.83,1522.97 1300.11,1526.22 1295.37,1529.46 1290.59,1532.66 1285.79,1535.83 1280.97,1538.99 1276.12,1542.12 1271.23,1545.23 1266.32,1548.32 1261.37,1551.39 1256.39,1554.45 1251.36,1557.49 1246.3,1560.53 1241.2,1563.55 1236.06,1566.57 1230.87,1569.58 1225.64,1572.58 1220.37,1575.59 1215.04,1578.59 1209.67,1581.6 1204.24,1584.61 1190.82,1591.83 1177.17,1598.8 1163.28,1605.52 1149.17,1611.98 1134.86,1618.19 1120.36,1624.13 1105.67,1629.82 1090.8,1635.25 1075.78,1640.41 1060.6,1645.31 1045.29,1649.95 1029.84,1654.31 1014.28,1658.41 998.6,1662.23 982.83,1665.78 966.98,1669.06 951.05,1672.06 935.06,1674.78 919,1677.22 902.92,1679.39 886.8,1681.26 870.65,1682.85 854.5,1684.17 838.35,1685.19 822.21,1685.91 806.09,1686.35 790.01,1686.5 773.97,1686.35 757.98,1685.91 742.07,1685.16 726.22,1684.12 710.46,1682.78 693.74,1681.04 677.19,1679 660.8,1676.69 644.57,1674.09 628.51,1671.2 612.61,1668.03 596.87,1664.59 581.28,1660.87 565.85,1656.88 550.57,1652.62 535.44,1648.09 520.46,1643.29 505.63,1638.23 490.94,1632.9 476.4,1627.32 462,1621.48 447.74,1615.38 433.61,1609.03 419.63,1602.43 405.78,1595.58 392.07,1588.48 378.48,1581.14 365.03,1573.56 351.7,1565.74 338.5,1557.67 325.43,1549.38 312.48,1540.85 299.64,1532.09 286.93,1523.09 274.34,1513.88 261.86,1504.44 249.5,1494.77 245.76,1491.77 242.06,1488.75 238.41,1485.72 234.81,1482.67 231.24,1479.61 227.72,1476.54 224.22,1473.46 220.76,1470.36 217.33,1467.25 213.91,1464.13 210.52,1461 207.15,1457.85 203.8,1454.7 200.44,1451.54 197.11,1448.37 193.78,1445.19 192.21,1443.62 189.98,1441.31 187.18,1438.37 183.93,1434.91 180.3,1431.07 176.41,1426.96 172.35,1422.68 168.22,1418.37 164.11,1414.13 160.12,1410.1 156.36,1406.38 152.91,1403.08 149.87,1400.35 147.36,1398.27 145.45,1396.98 "/>
     <polygon class="fil2" points="661.91,35.94 659.88,35.71 657.29,35.8 654.18,36.18 650.58,36.85 646.54,37.77 642.09,38.94 637.26,40.34 632.1,41.95 626.64,43.74 620.93,45.7 614.99,47.81 608.87,50.05 602.6,52.4 596.22,54.85 589.78,57.37 583.3,59.95 576.82,62.57 570.39,65.2 564.04,67.84 557.8,70.46 551.71,73.05 545.82,75.57 540.16,78.02 534.76,80.39 529.67,82.64 524.93,84.76 520.56,86.73 516.6,88.54 513.1,90.15 510.09,91.57 507.61,92.76 505.7,93.71 501.74,95.75 497.67,97.86 493.52,100.04 489.29,102.28 484.98,104.59 480.61,106.97 476.18,109.39 471.7,111.87 467.18,114.41 462.62,116.99 458.04,119.61 453.43,122.27 448.81,124.98 444.2,127.7 439.57,130.46 434.97,133.25 430.37,136.07 425.81,138.9 421.28,141.75 416.79,144.61 412.35,147.48 407.96,150.35 403.64,153.23 399.39,156.11 395.22,158.98 391.13,161.85 387.15,164.71 383.26,167.55 379.47,170.37 375.81,173.18 372.27,175.96 368.86,178.71 264.45,268.89 255.34,277.71 246.25,286.96 237.2,296.59 228.19,306.6 219.24,316.96 210.35,327.65 201.55,338.64 192.83,349.92 184.22,361.47 175.72,373.26 167.33,385.27 159.08,397.48 150.97,409.87 143.02,422.41 135.23,435.1 127.62,447.9 120.19,460.8 112.96,473.76 105.94,486.78 99.14,499.82 92.57,512.88 86.23,525.93 80.15,538.93 74.33,551.89 68.78,564.77 63.52,577.55 58.54,590.21 53.88,602.74 49.53,615.09 45.51,627.28 41.82,639.25 38.48,651 15,748.43 14.69,749.98 14.42,751.52 14.18,753.06 13.98,754.59 13.79,756.11 13.62,757.64 13.46,759.16 13.31,760.68 13.15,762.2 12.98,763.73 12.79,765.26 12.59,766.79 12.35,768.33 12.09,769.88 11.78,771.44 11.43,773.01 11.18,774.04 10.94,775.16 10.68,776.34 10.43,777.59 10.17,778.9 9.91,780.26 9.65,781.69 9.38,783.16 9.12,784.69 8.85,786.26 8.59,787.87 8.32,789.53 8.06,791.22 7.79,792.96 7.53,794.72 7.27,796.51 2.34,842.98 2.26,844.64 2.19,846.24 2.14,847.76 2.1,849.21 2.08,850.59 2.07,851.88 2.09,853.09 2.13,854.2 2.22,857.2 2.27,860.32 2.28,863.54 2.24,866.82 2.17,870.18 2.06,873.58 1.93,877.02 1.78,880.46 1.6,883.92 1.42,887.35 1.22,890.76 1.02,894.12 0.81,897.41 0.61,900.63 0.42,903.76 0.24,906.77 0.09,909.64 0.02,912.59 0,915.64 0.03,918.75 0.09,921.92 0.2,925.13 0.33,928.37 0.48,931.62 0.65,934.87 0.82,938.11 1,941.33 1.18,944.5 1.34,947.63 1.48,950.68 1.61,953.65 1.7,956.54 1.83,960.78 2.04,965.28 2.3,970.04 2.63,975.02 3.02,980.21 3.46,985.6 3.95,991.17 4.51,996.89 5.11,1002.75 5.76,1008.74 6.46,1014.83 7.21,1021.02 8,1027.26 8.84,1033.57 9.71,1039.91 10.63,1046.26 11.57,1052.61 12.56,1058.95 13.58,1065.24 14.63,1071.48 15.71,1077.65 16.81,1083.73 17.95,1089.7 19.1,1095.55 20.28,1101.25 21.48,1106.78 22.7,1112.14 23.93,1117.31 25.18,1122.25 26.44,1126.97 27.71,1131.43 28.98,1135.62 78.13,1220.01 81.6,1225.37 84.9,1230.37 88.06,1235.05 91.09,1239.46 94.02,1243.65 96.89,1247.66 99.7,1251.54 102.49,1255.32 105.28,1259.06 108.09,1262.8 110.96,1266.58 113.9,1270.45 116.94,1274.46 120.11,1278.64 123.42,1283.06 126.91,1287.73 137.08,1297.59 136.18,1295.35 135.19,1293.01 134.11,1290.57 132.95,1288.04 131.71,1285.41 130.4,1282.69 129.02,1279.87 127.56,1276.96 126.05,1273.96 124.48,1270.88 122.86,1267.72 121.19,1264.46 119.46,1261.12 117.7,1257.7 115.91,1254.2 114.07,1250.61 112.2,1246.96 110.31,1243.22 108.41,1239.41 106.47,1235.52 104.53,1231.57 102.57,1227.54 100.61,1223.44 98.65,1219.28 96.69,1215.05 94.73,1210.75 92.79,1206.39 90.85,1201.97 88.94,1197.49 87.05,1192.94 85.19,1188.35 83.35,1183.69 74.04,1158.32 65.7,1132.67 58.33,1106.77 51.91,1080.64 46.45,1054.33 41.94,1027.84 38.37,1001.24 35.73,974.52 34.03,947.74 33.25,920.91 33.39,894.07 34.45,867.26 36.42,840.48 39.29,813.8 43.06,787.21 47.73,760.76 53.28,734.48 59.72,708.41 67.04,682.56 75.22,656.97 84.29,631.66 94.21,606.68 104.99,582.05 116.63,557.79 129.11,533.94 142.44,510.53 156.61,487.6 171.62,465.16 187.45,443.25 204.11,421.91 221.6,401.15 239.9,381.02 242.74,378.03 245.53,375.1 248.29,372.22 251.02,369.39 253.72,366.6 256.41,363.85 259.08,361.13 261.74,358.43 264.4,355.75 267.06,353.07 269.72,350.41 272.39,347.74 275.07,345.07 277.78,342.38 280.5,339.67 283.26,336.94 286,334.34 288.94,331.74 292.01,329.15 295.17,326.57 298.33,324.02 301.46,321.5 304.49,319.03 307.35,316.6 310.46,313.93 313.31,311.53 316.01,309.27 318.69,307.06 321.46,304.75 324.43,302.26 327.74,299.46 331.48,296.24 333.71,294.34 336.12,292.36 338.69,290.31 341.42,288.2 344.28,286.02 347.27,283.8 350.39,281.53 353.61,279.22 356.94,276.87 360.34,274.5 363.82,272.11 367.37,269.7 370.97,267.28 374.61,264.86 378.28,262.44 381.97,260.04 385.67,257.65 389.36,255.28 393.05,252.94 396.7,250.64 400.33,248.39 403.9,246.17 407.42,244.01 410.87,241.91 414.24,239.88 417.51,237.92 420.68,236.04 423.74,234.25 426.67,232.54 429.48,230.94 432.13,229.44 434.62,228.05 446.15,221.8 457.77,215.74 469.48,209.88 481.27,204.23 493.16,198.78 505.13,193.53 517.19,188.48 529.33,183.65 541.55,179.02 553.85,174.6 566.23,170.4 578.69,166.41 591.24,162.63 603.85,159.07 616.55,155.74 629.31,152.62 642.16,149.73 655.07,147.06 668.06,144.62 681.11,142.41 694.24,140.43 707.43,138.67 720.68,137.16 734,135.88 747.39,134.83 760.85,134.03 774.35,133.47 787.93,133.15 801.57,133.07 815.26,133.24 829,133.66 842.81,134.32 859.72,135.48 876.53,137.02 893.24,138.92 909.85,141.19 926.35,143.83 942.73,146.82 959,150.18 975.15,153.89 991.17,157.95 1007.06,162.37 1022.81,167.13 1038.42,172.23 1053.89,177.67 1069.21,183.46 1084.38,189.57 1099.39,196.01 1114.24,202.79 1128.92,209.89 1143.44,217.31 1157.77,225.04 1171.93,233.1 1185.91,241.47 1199.69,250.14 1213.29,259.13 1226.69,268.41 1239.88,278 1252.88,287.88 1265.66,298.06 1278.23,308.52 1290.57,319.28 1302.7,330.32 1314.59,341.64 1316.14,343.16 1317.63,344.65 1319.07,346.11 1320.48,347.55 1321.85,348.97 1323.21,350.38 1324.57,351.76 1325.92,353.14 1327.29,354.52 1328.67,355.9 1330.1,357.27 1331.57,358.65 1333.09,360.04 1334.68,361.45 1336.34,362.87 1338.09,364.31 1332.98,354.17 1332.19,352.91 1331.43,351.67 1330.67,350.45 1329.91,349.25 1329.14,348.06 1328.35,346.86 1327.52,345.66 1326.66,344.44 1323.38,339.91 1320.18,335.54 1317.07,331.3 1314.03,327.2 1311.06,323.22 1308.15,319.37 1305.29,315.6 1302.48,311.94 1299.69,308.37 1296.93,304.88 1294.18,301.45 1291.44,298.08 1288.71,294.76 1285.96,291.49 1283.2,288.24 1280.42,285.02 1277.6,281.81 1274.74,278.61 1271.83,275.4 1268.86,272.18 1265.82,268.93 1262.71,265.65 1259.52,262.33 1256.23,258.95 1252.85,255.52 1249.35,252.02 1245.74,248.43 1242.01,244.76 1238.14,240.99 1234.13,237.12 1229.97,233.13 1225.65,229.02 1221.85,225.44 1217.99,221.87 1214.07,218.31 1210.11,214.78 1206.08,211.25 1202,207.74 1197.86,204.24 1193.67,200.77 1189.43,197.3 1185.14,193.85 1180.8,190.42 1176.4,187 1171.94,183.61 1167.45,180.23 1162.9,176.87 1158.3,173.52 1153.66,170.2 1148.97,166.89 1144.22,163.61 1139.43,160.34 1134.6,157.09 1129.72,153.87 1124.79,150.66 1119.82,147.48 1114.8,144.31 1109.74,141.18 1104.64,138.05 1099.49,134.96 1094.31,131.89 1089.07,128.83 1083.8,125.81 1078.49,122.81 1068.22,117.2 1057.61,111.7 1046.67,106.3 1035.41,101.02 1023.86,95.87 1012.03,90.85 999.93,85.98 987.59,81.26 975.02,76.69 962.25,72.3 949.28,68.09 936.13,64.06 922.81,60.22 909.36,56.59 895.78,53.18 882.09,49.98 868.3,47.02 854.44,44.29 840.53,41.81 826.57,39.59 812.58,37.63 798.59,35.94 784.61,34.53 770.65,33.41 756.74,32.6 742.88,32.09 729.09,31.89 715.41,32.02 701.83,32.48 688.37,33.28 675.06,34.43 "/>
    </g>
   </g>
   <g>
    <g>
     <polygon class="fil3" points="254.62,429.09 383.71,607.69 339.25,775.52 478.4,1010.76 617.55,1192.94 828.41,1184.33 702.18,960.56 717.46,832.5 814.06,945.5 872.87,794.19 1051.46,800.65 942.44,730.36 1192.4,813.56 1320.67,656.28 1378.16,637.12 1379.59,584.04 1295.69,379.63 1144.33,321.54 1110.63,385.37 1223.24,439.16 1272.01,570.41 1173.03,646.44 991.37,433.92 751.65,351.63 675.63,369.57 514.26,305.73 "/>
     <g>
      <polygon class="fil4" points="1173.03,646.45 1065.81,514.47 1043.21,592.65 941.01,619.91 773.17,639.98 872.87,794.19 1051.46,800.65 942.44,730.36 1192.39,813.56 "/>
      <polygon class="fil5" points="1144.34,321.54 1110.63,385.37 1223.24,439.16 1295.68,379.63 "/>
      <polygon class="fil6" points="1272.01,570.42 1223.24,439.16 1293.19,381.68 1379.59,584.04 "/>
      <polygon class="fil1" points="1173.03,646.45 1192.39,813.56 1379.59,584.04 1272.01,570.42 "/>
      <polygon class="fil7" points="1378.16,637.12 1125.69,675.14 1084.09,648.6 1023.13,705.26 1117.81,723.91 "/>
      <polygon class="fil6" points="1043.21,592.65 1084.09,648.6 1019.19,709.92 933.12,693.07 941.01,619.91 "/>
      <polygon class="fil1" points="994.08,431.98 878.61,514.46 941.01,619.91 1043.21,592.65 1065.81,514.47 "/>
      <polygon class="fil8" points="858.53,388.23 780.35,431.98 720.82,480.75 878.61,514.46 991.37,433.92 "/>
      <polygon class="fil4" points="683.52,576.14 773.17,639.98 941.01,619.91 878.61,514.46 720.82,480.75 "/>
      <polygon class="fil1" points="780.35,431.98 540.79,389.65 720.82,480.75 "/>
      <polygon class="fil9" points="858.53,388.23 751.65,351.64 675.63,369.57 700.93,417.95 783.39,430.28 "/>
      <polygon class="fil9" points="540.79,389.65 493.45,570.39 683.52,576.14 720.82,480.75 "/>
      <polygon class="fil10" points="872.87,794.19 732.29,668.65 773.17,639.98 "/>
      <polygon class="fil11" points="683.52,576.14 732.29,668.65 773.17,639.98 "/>
      <polygon class="fil4" points="872.87,794.19 814.06,945.5 493.45,570.39 683.52,576.14 732.29,668.65 "/>
      <polygon class="fil11" points="514.26,305.73 584.08,397.3 540.79,389.65 522.41,459.82 254.61,429.09 "/>
      <polygon class="fil12" points="675.63,369.57 514.26,305.73 584.08,397.3 700.93,417.95 "/>
      <polygon class="fil9" points="565.33,654.49 383.72,607.68 254.61,429.09 522.41,459.82 493.45,570.39 "/>
      <polygon class="fil12" points="717.47,832.49 339.25,775.51 383.72,607.68 565.33,654.49 "/>
      <polygon class="fil11" points="478.4,1010.76 339.25,775.51 717.47,832.49 "/>
      <polygon class="fil4" points="702.17,960.56 478.4,1010.76 717.47,832.49 "/>
      <polygon class="fil8" points="617.54,1192.94 478.4,1010.76 702.17,960.56 "/>
      <polygon class="fil9" points="828.41,1184.33 617.54,1192.94 702.17,960.56 "/>
      <polygon class="fil0" points="980.47,528.78 933.13,513.72 939.58,538.82 960.39,544.56 "/>
     </g>
    </g>
    <g>
     <rect class="fil1" x="273.64" y="584.36" width="66.7" height="66.7"/>
     <rect class="fil4" x="161.39" y="552.09" width="41.96" height="41.96"/>
     <rect class="fil1" x="221.28" y="484.67" width="32.99" height="32.99"/>
     <rect class="fil4" x="124.1" y="634.57" width="41.96" height="41.96"/>
     <rect class="fil9" x="232.4" y="693.74" width="32.99" height="32.99"/>
     <rect class="fil3" x="220.57" y="637.8" width="16.13" height="16.13"/>
     <rect class="fil3" x="299.64" y="706.83" width="16.13" height="16.13"/>
     <rect class="fil4" x="135.93" y="726.01" width="66.7" height="66.7"/>
     <rect class="fil13" x="101.87" y="795.05" width="16.13" height="16.13"/>
     <rect class="fil9" x="281.18" y="793.08" width="32.99" height="32.99"/>
     <rect class="fil3" x="213.76" y="843.28" width="32.99" height="32.99"/>
     <rect class="fil9" x="228.1" y="913.57" width="32.99" height="32.99"/>
     <rect class="fil9" x="313.81" y="885.96" width="66.7" height="66.7"/>
     <rect class="fil3" x="138.27" y="881.83" width="16.13" height="16.13"/>
     <rect class="fil11" x="212.32" y="1001.79" width="32.99" height="32.99"/>
     <rect class="fil9" x="327.8" y="986.01" width="32.99" height="32.99"/>
     <rect class="fil13" x="425.16" y="1020.26" width="16.13" height="16.13"/>
     <rect class="fil13" x="349.32" y="1067.77" width="16.13" height="16.13"/>
     <rect class="fil13" x="268.27" y="1086.96" width="16.13" height="16.13"/>
     <rect class="fil11" x="329.95" y="1108.66" width="32.99" height="32.99"/>
     <rect class="fil11" x="426.78" y="1099.33" width="32.99" height="32.99"/>
     <rect class="fil11" x="394.5" y="1158.15" width="32.99" height="32.99"/>
     <rect class="fil3" x="305.57" y="1163.89" width="32.99" height="32.99"/>
     <rect class="fil3" x="446.68" y="1229.87" width="16.13" height="16.13"/>
     <rect class="fil3" x="397.01" y="1247.44" width="32.99" height="32.99"/>
     <rect class="fil3" x="484.69" y="1324.18" width="16.13" height="16.13"/>
     <rect class="fil11" x="485.77" y="1153.3" width="41.96" height="41.96"/>
     <rect class="fil11" x="564.13" y="1227" width="66.7" height="66.7"/>
     <rect class="fil3" x="503.88" y="1259.64" width="32.99" height="32.99"/>
     <rect class="fil3" x="547.09" y="1299.08" width="16.13" height="16.13"/>
     <rect class="fil3" x="531.14" y="1343.91" width="32.99" height="32.99"/>
     <rect class="fil3" x="624.38" y="1385.87" width="32.99" height="32.99"/>
     <rect class="fil3" x="679.42" y="1343.55" width="41.96" height="41.96"/>
     <rect class="fil11" x="667.41" y="1229.51" width="32.99" height="32.99"/>
     <rect class="fil14" x="812.64" y="1237.57" width="66.7" height="66.7"/>
     <rect class="fil3" x="701.66" y="1306.61" width="16.13" height="16.13"/>
     <rect class="fil3" x="757.24" y="1256.05" width="16.13" height="16.13"/>
     <rect class="fil3" x="754.91" y="1365.79" width="32.99" height="32.99"/>
     <rect class="fil3" x="597.29" y="1359.67" width="16.13" height="16.13"/>
     <rect class="fil14" x="739.3" y="1424.22" width="16.13" height="16.13"/>
     <rect class="fil3" x="899.96" y="1286.51" width="16.13" height="16.13"/>
     <rect class="fil3" x="1009.7" y="1467.98" width="16.13" height="16.13"/>
     <rect class="fil3" x="1049.15" y="1384.06" width="16.13" height="16.13"/>
     <rect class="fil15" x="1102.23" y="1397.69" width="16.13" height="16.13"/>
     <rect class="fil15" x="1160.32" y="1438.57" width="16.13" height="16.13"/>
     <rect class="fil15" x="1334.43" y="1327.4" width="16.13" height="16.13"/>
     <rect class="fil15" x="1217.52" y="1415.62" width="16.13" height="16.13"/>
     <rect class="fil3" x="857.64" y="1369" width="41.96" height="41.96"/>
     <rect class="fil3" x="958.77" y="1410.6" width="41.96" height="41.96"/>
     <rect class="fil3" x="958.95" y="1339.05" width="32.99" height="32.99"/>
     <rect class="fil3" x="905.87" y="1448.79" width="32.99" height="32.99"/>
     <rect class="fil3" x="840.61" y="1429.42" width="32.99" height="32.99"/>
     <rect class="fil3" x="1070.12" y="1443.05" width="32.99" height="32.99"/>
     <rect class="fil15" x="1159.78" y="1382.09" width="32.99" height="32.99"/>
     <rect class="fil15" x="1264.49" y="1359.85" width="32.99" height="32.99"/>
    </g>
   </g>
  </g>
 </g>
</svg>
