<?xml version="1.0" encoding="UTF-8"?>
<!DOCTYPE svg PUBLIC "-//W3C//DTD SVG 1.1//EN" "http://www.w3.org/Graphics/SVG/1.1/DTD/svg11.dtd">
<!-- Creator: CorelDRAW X7 -->
<svg xmlns="http://www.w3.org/2000/svg" xml:space="preserve" width="14.0938in" height="4.02429in" version="1.1" style="shape-rendering:geometricPrecision; text-rendering:geometricPrecision; image-rendering:optimizeQuality; fill-rule:evenodd; clip-rule:evenodd"
viewBox="0 0 14094 4024"
 xmlns:xlink="http://www.w3.org/1999/xlink">
 <defs>
  <style type="text/css">
   <![CDATA[
    .fil0 {fill:black}
    .fil2 {fill:#00909E}
    .fil1 {fill:#07224A}
    .fil3 {fill:url(#id1)}
    .fil4 {fill:url(#id2)}
   ]]>
  </style>
     <clipPath id="id0">
      <path d="M1625 2292l2292 0 0 -2292 -2292 0 0 2292z"/>
     </clipPath>
  <linearGradient id="id1" gradientUnits="userSpaceOnUse" x1="1937.5" y1="1298.9" x2="2676.08" y2="1324.37">
   <stop offset="0" style="stop-opacity:1; stop-color:#00909E"/>
   <stop offset="1" style="stop-opacity:1; stop-color:#00909E"/>
   <stop offset="99.3882" style="stop-opacity:1; stop-color:#06545B"/>
   <stop offset="1" style="stop-opacity:1; stop-color:#06545B"/>
  </linearGradient>
  <linearGradient id="id2" gradientUnits="userSpaceOnUse" x1="1139.36" y1="1020.88" x2="1536.3" y2="1084.03">
   <stop offset="0" style="stop-opacity:1; stop-color:#00909E"/>
   <stop offset="0.941176" style="stop-opacity:1; stop-color:#00909E"/>
   <stop offset="98.3804" style="stop-opacity:1; stop-color:#06545B"/>
   <stop offset="1" style="stop-opacity:1; stop-color:#06545B"/>
  </linearGradient>
 </defs>
 <g id="Layer_x0020_1">
  <metadata id="CorelCorpID_0Corel-Layer"/>
  <g id="_316761760">
   <path class="fil0" d="M4333 1354c0,44 -3,84 -9,120l-899 0c7,94 42,169 105,226 62,57 139,86 230,86 131,0 224,-55 278,-165l263 0c-36,109 -100,198 -194,267 -93,69 -208,103 -347,103 -112,0 -213,-25 -303,-75 -88,-51 -158,-122 -209,-214 -50,-92 -75,-199 -75,-320 0,-121 24,-227 73,-319 49,-92 118,-164 207,-213 90,-50 192,-75 307,-75 112,0 211,24 297,72 87,49 155,117 203,206 49,87 73,187 73,301zm-254 -77c-2,-90 -34,-162 -96,-216 -63,-54 -141,-81 -233,-81 -84,0 -156,27 -216,81 -60,53 -95,125 -107,216l652 0zm998 98l380 597 -275 0 -255 -400 -239 400 -254 0 380 -579 -380 -599 275 0 255 400 239 -400 254 0 -380 581zm1156 -600c92,0 175,19 248,57 74,39 131,96 173,171 41,76 62,167 62,274l0 695 -242 0 0 -659c0,-105 -26,-186 -79,-241 -53,-57 -124,-86 -216,-86 -91,0 -163,29 -218,86 -52,55 -79,136 -79,241l0 659 -243 0 0 -1178 243 0 0 135c40,-49 91,-87 152,-114 63,-27 129,-40 199,-40zm1872 579c0,44 -3,84 -8,120l-900 0c7,94 42,169 105,226 63,57 140,86 231,86 131,0 223,-55 277,-165l263 0c-35,109 -100,198 -194,267 -93,69 -208,103 -346,103 -113,0 -214,-25 -304,-75 -88,-51 -158,-122 -209,-214 -50,-92 -75,-199 -75,-320 0,-121 24,-227 73,-319 50,-92 119,-164 207,-213 90,-50 192,-75 308,-75 111,0 210,24 297,72 87,49 154,117 203,206 48,87 72,187 72,301zm-254 -77c-1,-90 -33,-162 -96,-216 -63,-54 -140,-81 -233,-81 -84,0 -156,27 -216,81 -60,53 -95,125 -107,216l652 0zm778 -284l0 652c0,44 10,76 30,96 21,18 57,28 107,28l149 0 0 203 -192 0c-110,0 -194,-26 -252,-77 -58,-51 -88,-135 -88,-250l0 -652 -138 0 0 -199 138 0 0 -293 246 0 0 293 286 0 0 199 -286 0zm2092 -199l-365 1178 -257 0 -237 -870 -237 870 -257 0 -367 -1178 248 0 246 947 249 -947 255 0 239 943 244 -943 239 0zm693 1197c-112,0 -212,-25 -302,-75 -90,-51 -160,-122 -211,-214 -52,-92 -77,-199 -77,-320 0,-120 26,-226 79,-319 53,-92 124,-164 216,-213 91,-50 193,-75 305,-75 113,0 215,25 306,75 91,49 163,121 216,213 52,93 79,199 79,319 0,120 -28,226 -82,318 -54,93 -128,165 -222,216 -92,50 -195,75 -307,75zm0 -212c62,0 121,-15 175,-44 55,-30 100,-75 134,-135 34,-60 52,-133 52,-218 0,-86 -17,-158 -50,-216 -32,-60 -76,-105 -130,-135 -54,-30 -112,-45 -175,-45 -63,0 -121,15 -175,45 -53,30 -95,75 -126,135 -32,58 -47,130 -47,216 0,127 32,225 96,295 65,68 147,102 246,102zm1095 -814c35,-60 82,-106 141,-139 60,-34 130,-51 211,-51l0 252 -62 0c-95,0 -168,24 -217,73 -49,48 -73,132 -73,252l0 620 -244 0 0 -1178 244 0 0 171zm1042 419l543 588 -329 0 -436 -507 0 507 -244 0 0 -1582 244 0 0 919 427 -515 338 0 -543 590z"/>
   <path class="fil0" d="M3163 3170c0,-91 18,-170 54,-238 37,-68 87,-121 151,-158 65,-38 139,-56 223,-56 107,0 196,26 266,78 70,53 117,125 139,218l-157 0c-15,-53 -44,-95 -88,-126 -43,-31 -96,-47 -160,-47 -84,0 -151,29 -202,87 -52,56 -77,137 -77,242 0,106 25,187 77,245 51,58 118,87 202,87 64,0 117,-15 160,-45 43,-30 72,-73 88,-129l157 0c-24,90 -71,162 -141,217 -71,53 -159,80 -264,80 -84,0 -158,-19 -223,-56 -64,-37 -114,-90 -151,-159 -36,-68 -54,-148 -54,-240zm1411 455c-83,0 -158,-19 -225,-56 -66,-37 -118,-90 -157,-159 -37,-69 -56,-149 -56,-240 0,-90 19,-169 58,-238 39,-69 93,-122 160,-158 67,-38 143,-56 226,-56 83,0 159,18 226,56 67,36 120,88 159,157 39,68 59,148 59,239 0,91 -21,171 -61,240 -40,69 -94,122 -162,159 -68,37 -144,56 -227,56zm0 -128c52,0 101,-12 147,-37 46,-25 83,-61 111,-111 28,-49 43,-109 43,-179 0,-71 -14,-131 -42,-180 -28,-49 -64,-85 -109,-109 -45,-24 -93,-37 -146,-37 -53,0 -102,13 -147,37 -44,24 -79,60 -106,109 -27,49 -40,109 -40,180 0,71 13,132 39,181 26,49 62,86 105,111 44,23 92,35 145,35zm1697 -781c69,0 130,14 183,43 54,28 96,70 127,127 31,57 46,126 46,207l0 518 -144 0 0 -497c0,-88 -22,-155 -66,-201 -42,-47 -101,-70 -174,-70 -76,0 -137,24 -181,73 -45,49 -68,119 -68,210l0 485 -144 0 0 -497c0,-88 -22,-155 -66,-201 -42,-47 -101,-70 -174,-70 -76,0 -137,24 -181,73 -45,49 -68,119 -68,210l0 485 -145 0 0 -879 145 0 0 127c29,-46 68,-81 116,-106 49,-25 103,-37 162,-37 73,0 138,17 195,50 57,33 99,82 127,146 24,-62 65,-110 121,-145 57,-34 120,-51 189,-51zm1651 0c69,0 130,14 183,43 53,28 96,70 127,127 31,57 46,126 46,207l0 518 -144 0 0 -497c0,-88 -22,-155 -66,-201 -43,-47 -101,-70 -174,-70 -76,0 -137,24 -182,73 -44,49 -67,119 -67,210l0 485 -144 0 0 -497c0,-88 -22,-155 -66,-201 -43,-47 -101,-70 -174,-70 -76,0 -137,24 -181,73 -45,49 -68,119 -68,210l0 485 -146 0 0 -879 146 0 0 127c29,-46 68,-81 116,-106 49,-25 103,-37 161,-37 74,0 139,17 196,50 57,33 99,82 126,146 25,-62 66,-110 122,-145 57,-34 120,-51 189,-51zm1374 16l0 879 -146 0 0 -130c-28,45 -67,80 -117,106 -49,24 -103,36 -163,36 -69,0 -130,-13 -184,-41 -55,-29 -98,-72 -130,-128 -31,-57 -47,-126 -47,-207l0 -515 144 0 0 495c0,87 22,154 66,201 44,46 104,69 180,69 78,0 139,-24 184,-72 45,-48 67,-118 67,-210l0 -483 146 0zm674 -16c107,0 193,33 260,98 66,64 99,157 99,279l0 518 -144 0 0 -497c0,-88 -22,-155 -66,-201 -44,-47 -104,-70 -179,-70 -77,0 -139,24 -185,72 -45,48 -67,118 -67,210l0 486 -146 0 0 -879 146 0 0 125c29,-45 68,-79 117,-104 50,-25 105,-37 165,-37zm672 -127c-27,0 -51,-9 -70,-28 -19,-20 -29,-43 -29,-71 0,-28 10,-51 29,-71 19,-19 43,-28 70,-28 27,0 50,9 68,28 19,20 29,43 29,71 0,28 -10,51 -29,71 -18,19 -41,28 -68,28zm71 143l0 879 -146 0 0 -879 146 0zm426 120l0 518c0,43 9,73 28,92 18,17 49,25 94,25l108 0 0 124 -132 0c-81,0 -142,-19 -183,-56 -40,-38 -60,-99 -60,-185l0 -518 -114 0 0 -120 114 0 0 -221 145 0 0 221 230 0 0 120 -230 0zm1162 -120l-528 1292 -151 0 173 -423 -354 -869 162 0 275 712 273 -712 150 0z"/>
   <g>
    <g style="clip-path:url(#id0)">
     <image x="1625" y="0" width="2292" height="2292" xlink:href="ex-dark_Images\ex-dark_ImgID1.png"/>
    </g>
   </g>
   <ellipse class="fil1" cx="1531" cy="2182" rx="1531" ry="1536"/>
   <path class="fil2" d="M1537 3199c176,0 343,-45 488,-124 -282,-35 -557,-127 -769,-339 -58,-57 -109,-122 -155,-195 -171,4 -357,-24 -551,-82 125,428 520,740 987,740zm-902 -976c123,36 238,57 345,65 -86,-237 -125,-536 -110,-908 -193,165 -325,401 -355,668l6 0c-11,124 16,145 118,172l-4 3zm609 55c-102,-235 -154,-573 -114,-1061 125,-54 262,-84 407,-84 91,0 179,12 264,34l-6 7c69,16 112,49 112,135l4 -7c-1,427 -142,708 -358,856 -86,59 -189,100 -309,120zm138 226c113,-29 218,-76 312,-140 297,-203 456,-560 466,-1020 246,189 405,487 405,822 0,260 -95,497 -252,678 -355,-5 -667,-72 -881,-285 -17,-17 -34,-36 -50,-55zm155 945c706,0 1278,-574 1278,-1283 0,-709 -572,-1283 -1278,-1283 -707,0 -1279,574 -1279,1283 0,709 572,1283 1279,1283z"/>
   <path class="fil3" d="M2164 1357c0,-75 -10,-253 -95,-328 -49,-43 -84,-63 -106,-73 -10,-3 -20,-6 -29,-8 0,0 10,0 29,8 184,60 528,253 716,633l-246 87c-50,-95 -132,-208 -269,-319z"/>
   <path class="fil4" d="M1134 1223c198,-70 273,-79 376,-81l32 -259c-107,0 -145,-12 -387,59 -5,22 -16,205 -21,281z"/>
  </g>
 </g>
</svg>
