<?xml version="1.0" encoding="UTF-8"?>
<!DOCTYPE svg PUBLIC "-//W3C//DTD SVG 1.0//EN" "http://www.w3.org/TR/2001/REC-SVG-20010904/DTD/svg10.dtd">
<!-- Creator: CorelDRAW X7 -->
<svg xmlns="http://www.w3.org/2000/svg" xml:space="preserve" width="6.16091in" height="4.1527in" version="1.0" style="shape-rendering:geometricPrecision; text-rendering:geometricPrecision; image-rendering:optimizeQuality; fill-rule:evenodd; clip-rule:evenodd"
viewBox="0 0 6161 4153"
 xmlns:xlink="http://www.w3.org/1999/xlink">
 <defs>
  <style type="text/css">
   <![CDATA[
    .fil0 {fill:black}
    .fil16 {fill:#00000B}
    .fil50 {fill:#001925}
    .fil3 {fill:#004648}
    .fil22 {fill:#007D55}
    .fil48 {fill:#010B37}
    .fil68 {fill:#022B38}
    .fil6 {fill:#030009}
    .fil56 {fill:#060719}
    .fil33 {fill:#0D6149}
    .fil55 {fill:#0D9B5B}
    .fil23 {fill:#178D55}
    .fil10 {fill:#1B9159}
    .fil72 {fill:#366A67}
    .fil54 {fill:#372F2C}
    .fil29 {fill:#3B0000}
    .fil21 {fill:#450000}
    .fil61 {fill:#475F43}
    .fil8 {fill:#4DBB67}
    .fil66 {fill:#4E6549}
    .fil58 {fill:#59BC63}
    .fil39 {fill:#69C567}
    .fil62 {fill:#6AB567}
    .fil47 {fill:#6FBD65}
    .fil11 {fill:#71C569}
    .fil71 {fill:#73BB68}
    .fil5 {fill:#820B09}
    .fil38 {fill:#830000}
    .fil36 {fill:#83412F}
    .fil63 {fill:#83C264}
    .fil52 {fill:#930201}
    .fil27 {fill:#93BD67}
    .fil15 {fill:#95C367}
    .fil60 {fill:#97A165}
    .fil73 {fill:#999C68}
    .fil70 {fill:#9AA567}
    .fil45 {fill:#9EB665}
    .fil64 {fill:#9F7165}
    .fil59 {fill:#A1A95F}
    .fil74 {fill:#A4A4A6}
    .fil49 {fill:#A4B965}
    .fil40 {fill:#AA7C65}
    .fil20 {fill:#AB0500}
    .fil24 {fill:#AB9569}
    .fil25 {fill:#ABBC67}
    .fil26 {fill:#AC9568}
    .fil44 {fill:#AD0100}
    .fil69 {fill:#AFC476}
    .fil14 {fill:#B56D41}
    .fil42 {fill:#B6B667}
    .fil32 {fill:#BB0000}
    .fil53 {fill:#C5915A}
    .fil57 {fill:#C67554}
    .fil18 {fill:#C9895F}
    .fil2 {fill:#CBB263}
    .fil30 {fill:#CBB363}
    .fil1 {fill:#CEAA63}
    .fil13 {fill:#D10000}
    .fil67 {fill:#D25E3C}
    .fil12 {fill:#D3AB61}
    .fil4 {fill:#D53911}
    .fil34 {fill:#D60000}
    .fil65 {fill:#D99D59}
    .fil7 {fill:#DD9757}
    .fil9 {fill:#DF6B3B}
    .fil17 {fill:#E50800}
    .fil51 {fill:#E73107}
    .fil43 {fill:#E74F1F}
    .fil35 {fill:#E79453}
    .fil37 {fill:#EA8E4B}
    .fil41 {fill:#ED0F00}
    .fil28 {fill:#ED7F41}
    .fil19 {fill:#EF7733}
    .fil46 {fill:#F14709}
    .fil31 {fill:#F16622}
    .fil75 {fill:white}
   ]]>
  </style>
 </defs>
 <g id="Layer_x0020_1">
  <metadata id="CorelCorpID_0Corel-Layer"/>
  <g id="_299127584">
   <g>
    <g>
     <path class="fil0" d="M4604 3034c4,27 85,144 112,170l1445 0c-13,-49 -222,-354 -274,-433l-91 -130c-24,-3 -17,0 -33,-15 -21,51 -90,213 -124,260 -49,-8 -372,-312 -428,-341 -58,6 -131,71 -172,98 -56,38 -101,74 -156,110 -112,75 -193,138 -308,214 15,29 28,33 29,67z"/>
     <path class="fil0" d="M2792 2249l-118 257c-18,40 -103,231 -129,247 -34,-18 -301,-257 -349,-284 -53,-11 -571,401 -659,437 -16,15 -292,175 -310,171 79,24 72,13 137,21l50 19c797,38 1335,-248 1540,-897l-173 0c11,17 3,2 11,29z"/>
     <path class="fil1" d="M3301 260l1 13c3,40 40,171 53,213 33,102 79,318 112,438 19,75 43,146 56,225 4,15 -4,3 11,4l28 -3c-42,5 -10,5 -22,-11 19,-40 47,-87 65,-120l204 -370c28,-50 265,-453 260,-502l-768 113z"/>
     <path class="fil2" d="M3562 1150l499 -148c34,-13 146,-45 181,-42 -12,-79 -24,-141 -39,-217l-100 -502c-25,-118 11,-77 -34,-94 5,49 -232,452 -260,502l-204 370c-18,33 -46,80 -65,120 12,16 -20,16 22,11z"/>
     <path class="fil1" d="M615 568l-1 11 183 735 15 5 186 22 -6 -81 -180 46c4,-30 202,-376 222,-414l111 -205c24,-39 99,-163 112,-209l-642 90z"/>
     <path class="fil3" d="M2470 1106c-19,91 95,526 109,666 17,24 17,39 19,70l386 -149 0 220c36,-58 -7,-318 -3,-404 2,-19 3,-31 0,-51 0,0 -4,-17 -5,-19 -8,-18 1,-4 -10,-16l15 166c-43,-51 -286,-535 -288,-551l-19 -32 -19 2c-10,15 -70,43 -89,53 -24,14 -72,48 -96,45z"/>
     <path class="fil4" d="M3265 2154c24,-13 22,15 20,-14 19,62 59,140 83,197 22,49 73,157 82,204l6 16 25 -4c30,-32 89,-68 124,-97 44,-36 78,-61 125,-99 69,-53 196,-164 254,-191l3 -4 -5 -14c-61,-11 -226,-93 -287,-120 -42,-19 -94,-41 -140,-61 -41,-18 -98,-53 -137,-46 -21,14 -140,192 -153,233z"/>
     <path class="fil5" d="M3727 2886l14 2c23,-33 445,-270 495,-300 49,-28 117,-88 184,-84 -18,-14 -43,-29 -63,-43 -24,-12 -9,-4 -24,-27 -25,-35 -21,-27 -63,-59 -54,-42 -248,-198 -281,-213l-2 0 -3 4c-43,126 -86,244 -130,363 -21,57 -44,128 -63,182 -18,52 -50,125 -64,175z"/>
     <path class="fil6" d="M4415 2756c6,29 108,168 136,212l39 53c8,10 4,6 14,13 -1,-34 -14,-38 -29,-67 115,-76 196,-139 308,-214 55,-36 100,-72 156,-110 41,-27 114,-92 172,-98l-2 -10 -276 -18c-187,-29 -138,12 -191,24 -17,5 -1,-2 -22,9 -125,60 -242,-32 -300,-46 -15,57 -6,188 -5,252z"/>
     <path class="fil7" d="M3086 799c28,23 28,34 50,66l93 139c21,32 19,38 47,65 1,1 3,3 5,4l-22 -41c94,15 158,81 264,117 -13,-79 -37,-150 -56,-225 -33,-120 -79,-336 -112,-438 -13,-42 -50,-173 -53,-213 -25,8 -237,472 -241,492 15,10 19,15 25,34z"/>
     <path class="fil8" d="M5368 350c-17,27 -519,374 -547,413 -6,23 -4,15 80,31 46,9 78,16 114,24 34,7 69,15 101,22 62,13 82,-15 133,-3 44,10 158,-9 241,-7l65 -2c24,-7 1,6 18,-9 -94,-13 -66,21 -90,-81 -11,-46 -20,-86 -32,-132 -15,-59 -61,-225 -60,-276l-12 0 -11 20z"/>
     <path class="fil9" d="M3611 1630c-45,59 -177,245 -193,291 39,-7 96,28 137,46 46,20 98,42 140,61 61,27 226,109 287,120 -6,-86 -23,-173 -36,-254 -8,-49 -20,-210 -45,-232 -77,-8 -85,-43 -132,-62 -54,-4 -97,21 -158,30z"/>
     <path class="fil4" d="M467 1842c32,23 57,111 72,147 30,71 186,422 194,466 4,23 -9,7 19,18 22,-9 137,-101 157,-117 25,-21 48,-38 74,-59 29,-22 52,-52 89,-46 -10,-34 -28,-49 -42,-79 -9,-22 -25,-78 -31,-87l-28 -31c-21,-20 -464,-208 -491,-219l-14 -2 1 9z"/>
     <path class="fil10" d="M2446 1132c-56,68 -136,119 -199,195 -3,37 39,93 65,120 50,52 42,76 -7,117 -107,91 -115,106 -284,98 23,28 52,26 131,51 88,27 378,116 433,122l-6 -63c-14,-140 -128,-575 -109,-666l-14 -7 -10 33z"/>
     <path class="fil11" d="M4899 178c-1,78 -34,215 -47,289 -17,94 -35,202 -50,295l-2 7 21 -6c28,-39 530,-386 547,-413 0,-32 -31,-28 -105,-57 -35,-14 -79,-29 -113,-44 -34,-16 -192,-81 -226,-84l0 -31c-24,22 -13,57 -22,37 -1,-1 -2,5 -3,7z"/>
     <path class="fil6" d="M1538 2456l-1 450c88,-36 606,-448 659,-437 17,2 3,2 3,-18 -74,6 -152,-8 -228,-11 -39,-1 -210,-4 -231,-8l-14 -3c-31,32 -146,37 -188,27z"/>
     <path class="fil12" d="M3562 1150l-28 3c10,16 17,20 29,34 7,7 8,9 16,17 22,22 -12,-2 19,17l-2 -29c22,7 58,43 93,60 46,22 79,31 137,33 109,3 213,-11 324,-14l117 -3 -17 -312 -8 4c-35,-3 -147,29 -181,42l-499 148z"/>
     <path class="fil13" d="M2630 3107c84,-6 243,-66 330,-87 59,-13 117,-30 167,-44 43,-12 131,-42 178,-39 5,-6 11,-14 19,-23l-14 -1c-53,-40 -121,-118 -170,-165 -32,-32 -59,-59 -83,-83 -54,-53 -53,-71 -90,-63 -21,9 -156,227 -169,245 -37,53 -158,227 -168,260z"/>
     <path class="fil14" d="M3982 2148l5 14 2 0c20,-22 156,-58 191,-71 51,-18 159,-67 204,-54 -9,-36 -20,-57 -35,-89 -24,-53 -24,-40 -27,-101l3 -38c-39,-15 -99,-61 -138,-83 -165,-91 -56,-39 -161,-60l-125 -4c25,22 37,183 45,232 13,81 30,168 36,254z"/>
     <path class="fil15" d="M4470 366c-27,13 -43,47 -48,69 -8,37 1,9 -21,39 15,16 336,258 366,273 25,16 2,5 35,15 15,-93 33,-201 50,-295 13,-74 46,-211 47,-289l-2 -14c-56,12 -365,211 -434,238 0,0 5,-20 5,-22l2 -14z"/>
     <path class="fil16" d="M5209 2535l2 10c56,29 379,333 428,341 34,-47 103,-209 124,-260 16,15 9,12 33,15 -6,-16 -133,-224 -158,-240 -42,-13 -63,4 -105,19 -41,14 -74,24 -113,38 -45,16 -188,56 -211,77z"/>
     <path class="fil7" d="M356 1090l8 14c40,13 76,36 110,52l317 155c2,0 4,2 6,3l-183 -735c-44,31 -202,436 -258,511z"/>
     <path class="fil17" d="M83 2181c-10,28 18,79 30,103 35,9 92,76 119,103 41,40 71,68 116,117 37,39 219,206 226,232 36,-1 14,11 33,-8 -20,-96 -73,-213 -104,-309l-105 -299c9,-6 -14,-16 16,0 -13,-26 -10,-33 -40,-38 -58,-1 -96,15 -149,22 -59,8 -88,15 -148,19l6 58z"/>
     <path class="fil18" d="M2941 562c25,63 142,196 145,237 -6,-19 -10,-24 -25,-34 4,-20 216,-484 241,-492l-1 -13c-50,-16 -137,-65 -191,-93 -44,-22 -151,-82 -199,-91 -5,61 12,189 20,255 5,37 7,82 12,123 4,26 26,89 -2,108z"/>
     <path class="fil19" d="M348 1105l-333 518c-3,-51 14,-106 4,-154 -6,9 -5,4 -9,21 -4,11 -4,20 -5,32 -2,17 -1,30 -5,45l0 121c63,-56 214,-105 298,-142 52,-23 99,-41 155,-64l147 -52 -10 48c1,-2 4,-7 5,-6l14 -27c5,-34 11,-5 -9,-38 -10,-24 -94,-122 -114,-147 -25,-30 -108,-124 -122,-156l-8 -14 -1 -1 -7 16z"/>
     <path class="fil20" d="M3481 2553l-21 0c47,60 87,111 133,167l93 114c27,30 27,18 25,54l16 -2c14,-50 46,-123 64,-175 19,-54 42,-125 63,-182 44,-119 87,-237 130,-363 -58,27 -185,138 -254,191 -47,38 -81,63 -125,99 -35,29 -94,65 -124,97z"/>
     <path class="fil21" d="M3741 2888l356 101 1 33c32,-23 162,-228 189,-267 13,-18 18,-30 28,-45 20,-30 11,-22 39,-35 16,32 35,67 61,81 -1,-64 -10,-195 5,-252 -67,-4 -135,56 -184,84 -50,30 -472,267 -495,300z"/>
     <path class="fil21" d="M969 2740l3 21c48,-7 91,16 137,30l417 114 -5 -445c-87,0 -96,19 -155,54 -40,24 -83,48 -131,77 -41,24 -229,143 -266,149z"/>
     <path class="fil16" d="M2195 2448l4 3c0,20 14,20 -3,18 48,27 315,266 349,284 26,-16 111,-207 129,-247l118 -257 -597 199z"/>
     <path class="fil9" d="M478 1825l2 10c27,11 470,199 491,219l28 31 -8 -38c-19,-29 -25,-91 -20,-130l176 -7 -40 -266 -629 181z"/>
     <path class="fil22" d="M5399 336c26,74 262,295 265,322 18,-34 -1,-7 26,-15 17,-5 126,-181 144,-207 23,-35 137,-194 138,-220 7,-40 8,-30 25,-54l-598 174z"/>
     <path class="fil23" d="M5586 5c-34,91 -176,263 -187,331l598 -174c-17,24 -18,14 -25,54 32,-24 145,-208 148,-216l-529 0 -5 5z"/>
     <path class="fil24" d="M3301 260l768 -113 -2 -14 3 -2c-30,-10 -196,-107 -213,-131l-476 0c4,71 -69,183 -80,260z"/>
     <path class="fil25" d="M4364 519c-55,94 -36,102 -67,211 -16,56 -52,172 -47,226l25 3 -17 -15c84,-16 348,-111 459,-145l65 -26 -15 -26c-30,-15 -351,-257 -366,-273 22,-30 13,-2 21,-39 -25,17 -51,54 -58,84z"/>
     <path class="fil26" d="M2984 1913l-427 1 -546 0 -290 -3c7,-25 153,-220 192,-266 -74,-25 -268,-6 -334,16 -44,16 -82,34 -124,59 -64,39 -47,62 -124,43 25,41 199,114 210,143l-394 4 -176 7c-5,39 1,101 20,130l-10 -123 2016 3c7,-34 7,-362 -4,-397 -6,-18 -3,-12 -12,-21 -4,86 39,346 3,404z"/>
     <path class="fil27" d="M1505 732l0 1c22,-25 67,-43 103,-64 35,-20 72,-43 112,-64 73,-39 149,-88 218,-120 -16,-34 -122,-97 -155,-121 -44,-31 -110,-74 -151,-112 -39,-3 -93,-9 -131,5 0,102 -15,396 4,475z"/>
     <path class="fil28" d="M590 1478l-112 347 629 -181 -2 -2c-185,-84 -332,-146 -505,-235 20,33 14,4 9,38l-14 27c-1,-1 -4,4 -5,6z"/>
     <path class="fil29" d="M972 2761c-4,48 33,259 56,291 124,30 244,61 386,65l-50 -19c-65,-8 -58,3 -137,-21 18,4 294,-156 310,-171l1 -450 -17 4 5 445 -417 -114c-46,-14 -89,-37 -137,-30z"/>
     <path class="fil8" d="M2024 874c14,33 46,61 67,88 17,22 39,68 54,86 82,32 234,49 272,61 32,10 18,5 29,23l10 -33c-19,-73 -44,-156 -57,-226 -14,-76 -52,-180 -53,-248l-13 0c-9,34 -46,52 -73,71 -25,19 -49,37 -76,57 -57,42 -115,83 -160,121z"/>
     <path class="fil30" d="M998 1341c9,33 3,33 25,56 -14,-158 -24,-253 52,-381 46,-77 156,-177 256,-202l-67 -331 -7 -5c-13,46 -88,170 -112,209l-111 205c-20,38 -218,384 -222,414l180 -46 6 81z"/>
     <path class="fil31" d="M0 1688l0 7c59,-6 175,47 235,63 45,12 205,56 231,75l14 2 -2 -10 112 -347 10 -48 -147 52c-56,23 -103,41 -155,64 -84,37 -235,86 -298,142z"/>
     <path class="fil32" d="M2630 3107c-10,6 -1,-2 -12,10l-52 87 602 0c8,-34 52,-104 69,-134 20,-35 59,-97 68,-133 -47,-3 -135,27 -178,39 -50,14 -108,31 -167,44 -87,21 -246,81 -330,87z"/>
     <path class="fil33" d="M2011 1914l546 0c6,-30 27,-50 41,-72 -2,-31 -2,-46 -19,-70l6 63c-55,-6 -345,-95 -433,-122 -79,-25 -108,-23 -131,-51l-55 -7 -43 -2c7,41 67,225 88,261z"/>
     <path class="fil34" d="M3136 2347c-3,74 56,214 81,284 18,48 93,237 93,282l14 1c20,-51 136,-318 132,-357l-6 -16c-36,-22 -104,-108 -130,-139 -33,-37 -88,-102 -130,-137 -16,6 -51,60 -54,82z"/>
     <path class="fil35" d="M3281 1073c7,33 140,221 176,277 16,26 10,22 33,37l4 -19c71,22 349,163 399,178 19,-22 37,-28 57,-43 17,-14 34,-32 59,-48 51,-33 143,-14 199,-4 -95,-31 -275,-18 -383,-35 -68,-10 -111,-16 -153,-56 -49,-47 -48,-85 -74,-139 -31,-19 3,5 -19,-17 -8,-8 -9,-10 -16,-17 -12,-14 -19,-18 -29,-34 -15,-1 -7,11 -11,-4 -106,-36 -170,-102 -264,-117l22 41z"/>
     <path class="fil36" d="M3989 2162c33,15 227,171 281,213 42,32 38,24 63,59 15,23 0,15 24,27 -5,-39 54,-162 64,-212 16,-71 -9,-167 -37,-212 -45,-13 -153,36 -204,54 -35,13 -171,49 -191,71z"/>
     <path class="fil24" d="M517 540c37,-14 62,16 98,28l642 -90 2 -10 -250 -154 17 -14c-138,20 -414,157 -509,240z"/>
     <path class="fil37" d="M600 1407c173,89 320,151 505,235 -14,-22 -54,-61 -73,-80 -25,-27 -45,-47 -72,-76 -31,-34 -131,-129 -148,-167l-15 -5c-2,-1 -4,-3 -6,-3l-317 -155c-34,-16 -70,-39 -110,-52 14,32 97,126 122,156 20,25 104,123 114,147z"/>
     <path class="fil38" d="M3562 2900l-58 17c-21,2 -36,1 -60,4 -37,4 -85,2 -111,14 30,55 228,218 265,269l181 0 -52 -318 -16 2 -149 12z"/>
     <path class="fil39" d="M4924 134l0 31c34,3 192,68 226,84 34,15 78,30 113,44 74,29 105,25 105,57l11 -20c-6,-33 -18,-45 -30,-72 -10,-22 -20,-57 -32,-84 -18,-41 -64,-134 -65,-164l334 -5 5 -5 -582 0c-21,32 -80,103 -85,134z"/>
     <path class="fil20" d="M752 2473l-2 19c28,8 36,33 54,56 36,47 143,160 151,198l14 -6 119 -329c8,-22 13,-36 20,-57 24,-73 3,-60 3,-60l-39 -43c-37,-6 -60,24 -89,46 -26,21 -49,38 -74,59 -20,16 -135,108 -157,117z"/>
     <path class="fil5" d="M969 2740c37,-6 225,-125 266,-149 48,-29 91,-53 131,-77 59,-35 68,-54 155,-54l17 -4c42,10 157,5 188,-27 -113,17 -246,35 -365,2 -59,-16 -100,-30 -145,-55 -50,-29 -62,-49 -105,-82 0,0 21,-13 -3,60 -7,21 -12,35 -20,57l-119 329z"/>
     <path class="fil29" d="M3779 3204l205 -4c23,-28 112,-151 114,-178l-1 -33 -356 -101 -14 -2 52 318z"/>
     <path class="fil11" d="M1931 670l6 13c126,66 18,168 87,191 45,-38 103,-79 160,-121 27,-20 51,-38 76,-57 27,-19 64,-37 73,-71l1 6 -199 -79c-57,-22 -164,-48 -177,-87 -1,1 -2,4 -3,6 -16,40 -2,9 -20,100 -3,17 -7,41 -9,57 -9,60 4,41 5,42z"/>
     <path class="fil22" d="M2364 619c-14,51 63,107 135,193 37,44 155,161 156,196l19 -2c3,-28 25,-49 42,-78 17,-27 26,-60 56,-69 -29,-67 -194,-270 -240,-275 -59,5 -106,39 -168,35z"/>
     <path class="fil34" d="M574 2736c18,43 12,39 60,33 7,-39 103,-265 116,-277l2 -19c-28,-11 -15,5 -19,-18 -29,-15 -140,-146 -164,-172 -27,-28 -124,-145 -155,-163 -30,-16 -7,-6 -16,0l105 299c31,96 84,213 104,309 -19,19 3,7 -33,8z"/>
     <path class="fil40" d="M2885 73l26 3c48,9 155,69 199,91 54,28 141,77 191,93 11,-77 84,-189 80,-260l-470 0c6,44 -2,44 -26,73z"/>
     <path class="fil41" d="M17 1899c-9,41 31,235 51,264 11,16 -1,3 15,18l-6 -58c60,-4 89,-11 148,-19 53,-7 91,-23 149,-22l-8 -23 -260 -260c-42,-43 -56,-67 -97,-82l8 182z"/>
     <path class="fil42" d="M4069 147c45,17 9,-24 34,94l100 502c15,76 27,138 39,217l8 -4c-5,-54 31,-170 47,-226 31,-109 12,-117 67,-211 -40,-3 -36,-6 -55,-37 -42,-69 -213,-327 -242,-349l2 14z"/>
     <path class="fil43" d="M19 1469c10,48 -7,103 -4,154l333 -518c-42,-4 -89,3 -132,6 -27,2 -43,5 -68,7 -32,3 -56,13 -56,-13 1,11 -39,143 -46,172 -13,50 -40,142 -27,192z"/>
     <path class="fil18" d="M517 540c-44,31 -76,61 -114,96 -37,36 -78,70 -98,115 22,18 8,-13 18,34l32 304 1 1c56,-75 214,-480 258,-511l1 -11c-36,-12 -61,-42 -98,-28z"/>
     <path class="fil44" d="M3324 2914c-8,9 -14,17 -19,23 30,-9 -6,3 21,-10 35,-18 48,-13 93,-16 47,-4 95,-13 143,-11l149 -12c2,-36 2,-24 -25,-54l-93 -114c-46,-56 -86,-107 -133,-167l21 0 -25 4c4,39 -112,306 -132,357z"/>
     <path class="fil45" d="M1259 262c20,4 131,-4 174,-4 -29,30 -59,74 -85,108l-65 85c-12,12 -8,11 -24,17l-2 10 7 5c47,28 80,80 119,121l122 128c-19,-79 -4,-373 -4,-475 38,-14 92,-8 131,-5 18,5 213,26 231,26 -18,-44 -538,-38 -579,-29 -35,8 -15,5 -25,13z"/>
     <path class="fil46" d="M0 1832l9 46c1,2 2,5 2,7 1,3 3,5 3,7 1,2 2,5 3,7l-8 -182c41,15 55,39 97,82l260 260c31,2 25,-5 38,-42 6,-19 12,-36 19,-56 16,-40 30,-78 44,-119l-1 -9c-26,-19 -186,-63 -231,-75 -60,-16 -176,-69 -235,-63l0 137z"/>
     <path class="fil47" d="M4800 769l-140 284 22 67c36,-4 2,5 34,-12 36,-22 73,-60 110,-91 94,-77 213,-146 339,-160 27,-3 61,-4 84,-20 -51,-12 -71,16 -133,3 -32,-7 -67,-15 -101,-22 -36,-8 -68,-15 -114,-24 -84,-16 -86,-8 -80,-31l-21 6z"/>
     <path class="fil48" d="M2693 1038c2,16 245,500 288,551l-15 -166c10,-74 -79,-373 -115,-411 -42,-5 -125,-13 -170,-4l12 30z"/>
     <path class="fil17" d="M2967 2602c37,-8 36,10 90,63 24,24 51,51 83,83 49,47 117,125 170,165 0,-45 -75,-234 -93,-282 -25,-70 -84,-210 -81,-284 -38,28 -66,87 -90,125 -26,41 -64,89 -79,130z"/>
     <path class="fil49" d="M4275 959l325 80c24,7 31,4 41,22l19 -8 140 -284 2 -7c-33,-10 -10,1 -35,-15l15 26 -65 26c-111,34 -375,129 -459,145l17 15z"/>
     <path class="fil50" d="M2343 2213l-148 235 597 -199c-8,-27 0,-12 -11,-29l173 0 -1 -8 -610 1z"/>
     <path class="fil42" d="M4150 1271l217 2c-25,-26 -11,-16 -75,-26 16,-3 319,-163 349,-186 -10,-18 -17,-15 -41,-22l-325 -80 -25 -3 17 312 -117 3z"/>
     <path class="fil51" d="M366 2059l8 23c30,5 27,12 40,38 31,18 128,135 155,163 24,26 135,157 164,172 -8,-44 -164,-395 -194,-466 -15,-36 -40,-124 -72,-147 -14,41 -28,79 -44,119 -7,20 -13,37 -19,56 -13,37 -7,44 -38,42z"/>
     <path class="fil52" d="M3305 2937c-9,36 -48,98 -68,133 -17,30 -61,100 -69,134l430 0c-37,-51 -235,-214 -265,-269 26,-12 74,-10 111,-14 24,-3 39,-2 60,-4l58 -17c-48,-2 -96,7 -143,11 -45,3 -58,-2 -93,16 -27,13 9,1 -21,10z"/>
     <path class="fil38" d="M823 2760c-28,18 -147,23 -179,24 11,41 113,124 151,163 0,0 12,14 12,14l8 13c1,1 2,2 13,9 1,1 3,2 4,3l196 66c-23,-32 -60,-243 -56,-291l-3 -21 -14 6 -132 14z"/>
     <path class="fil27" d="M4470 366l-2 14c0,2 -5,22 -5,22 69,-27 378,-226 434,-238 -6,-38 -57,-57 -90,-81 -18,-13 -31,-23 -53,-37 -24,-16 -30,-14 -30,-46l-18 0c-14,37 -97,150 -118,179 -25,38 -114,156 -118,187z"/>
     <path class="fil53" d="M3893 1546l1 33 -70 0c38,22 144,9 182,-1 56,-16 95,-57 137,-67 144,-35 207,132 149,219 -51,7 -81,-37 -123,-61 -32,-19 -111,-34 -143,-3 105,21 -4,-31 161,60 39,22 99,68 138,83l-3 38c26,-22 28,-81 29,-125 1,-50 -2,-100 -1,-150 44,9 22,29 87,35 -24,-46 -169,-142 -229,-156 -56,-10 -148,-29 -199,4 -25,16 -42,34 -59,48 -20,15 -38,21 -57,43z"/>
     <path class="fil33" d="M5191 2524c32,-14 96,-125 113,-149 29,-41 77,-113 102,-154l35 3 -11 -9c-16,-11 -1,-3 -17,-10 -79,-38 -188,-33 -273,-26 -11,11 -8,8 -26,16 -1,0 -21,5 -29,8 17,28 99,279 106,321z"/>
     <path class="fil50" d="M5191 2524l-15 0 -243 -7 276 18c23,-21 166,-61 211,-77 39,-14 72,-24 113,-38 42,-15 63,-32 105,-19 -17,-59 -138,-173 -197,-177l-35 -3c-25,41 -73,113 -102,154 -17,24 -81,135 -113,149z"/>
     <path class="fil13" d="M589 2856c7,-52 19,-48 45,-87 -48,6 -42,10 -60,-33 -7,-26 -189,-193 -226,-232 -45,-49 -75,-77 -116,-117 -27,-27 -84,-94 -119,-103 31,100 133,248 197,325 83,99 176,183 279,247z"/>
     <path class="fil39" d="M1958 465c13,39 120,65 177,87l199 79c-7,-62 -58,-140 -78,-207 2,-1 5,-6 6,-4 1,2 15,-2 21,-2 -7,-11 -5,-14 -37,-29 -18,-8 -29,-12 -46,-20 -20,-8 -64,-28 -89,-28l-65 -11 -88 135z"/>
     <path class="fil54" d="M4885 2277c-9,31 -6,45 -36,52 -17,-15 -9,-8 -16,-26l-25 -8c1,53 3,98 -11,147 -13,46 -40,62 -55,99 53,-12 4,-53 191,-24l243 7c-12,-27 -6,-19 -32,-41 -57,-51 -203,-201 -250,-221l-9 15z"/>
     <path class="fil55" d="M2346 625c1,68 39,172 53,248 13,70 38,153 57,226l14 7c24,3 72,-31 96,-45 19,-10 79,-38 89,-53 -1,-35 -119,-152 -156,-196 -72,-86 -149,-142 -135,-193l-18 6z"/>
     <path class="fil56" d="M2598 1842c-14,22 -35,42 -41,72l427 -1 0 -220 -386 149z"/>
     <path class="fil57" d="M2700 200c5,15 220,347 241,362 28,-19 6,-82 2,-108 -5,-41 -7,-86 -12,-123 -8,-66 -25,-194 -20,-255l-26 -3c-17,17 -155,115 -185,127z"/>
     <path class="fil58" d="M5379 330l12 0 8 6c11,-68 153,-240 187,-331l-334 5c1,30 47,123 65,164 12,27 22,62 32,84 12,27 24,39 30,72z"/>
     <path class="fil55" d="M5573 819c10,-7 2,1 15,-14 1,-2 11,-17 13,-20 26,-39 77,-105 89,-142 -27,8 -8,-19 -26,15 -3,-27 -239,-248 -265,-322l-8 -6c-1,51 45,217 60,276 12,46 21,86 32,132 24,102 -4,68 90,81z"/>
     <path class="fil14" d="M1147 1910l394 -4c-11,-29 -185,-102 -210,-143 -12,-9 -71,-47 -87,-49 -34,-6 -46,-21 -70,-36 -18,-12 -44,-27 -67,-34l40 266z"/>
     <path class="fil15" d="M1505 733c27,21 102,8 150,7 54,0 107,3 161,2 34,-39 58,-60 121,-59l-6 -13 -21 -13 28 -172c-69,32 -145,81 -218,120 -40,21 -77,44 -112,64 -36,21 -81,39 -103,64z"/>
     <path class="fil59" d="M4641 1061c-30,23 -333,183 -349,186 64,10 50,0 75,26 115,18 205,136 246,146 -1,-69 -43,-86 -71,-130 18,-43 140,-139 174,-181 -32,17 2,8 -34,12l-22 -67 -19 8z"/>
     <path class="fil44" d="M634 2769c56,11 128,-10 189,-9l132 -14c-8,-38 -115,-151 -151,-198 -18,-23 -26,-48 -54,-56 -13,12 -109,238 -116,277z"/>
     <path class="fil60" d="M1259 262c-58,-6 -180,22 -233,38l-17 14 250 154c16,-6 12,-5 24,-17l65 -85c26,-34 56,-78 85,-108 -43,0 -154,8 -174,4z"/>
     <path class="fil61" d="M4894 2262c47,20 193,170 250,221 26,22 20,14 32,41l15 0c-7,-42 -89,-293 -106,-321 8,-3 28,-8 29,-8 18,-8 15,-5 26,-16l-93 10c2,-2 3,-5 4,-6l26 -33c-17,-27 -14,-35 -16,-54 -48,36 -152,121 -167,166z"/>
     <path class="fil62" d="M2247 1327c63,-76 143,-127 199,-195 -11,-18 3,-13 -29,-23 -38,-12 -190,-29 -272,-61 3,31 10,61 13,85 12,114 -24,68 42,143 21,24 22,34 47,51z"/>
     <path class="fil63" d="M1938 485l-28 172 21 13c-1,-1 -14,18 -5,-42 2,-16 6,-40 9,-57 18,-91 4,-60 20,-100 1,-2 2,-5 3,-6l88 -135 65 11c-27,-26 -76,-32 -114,-41 -42,-10 -88,-29 -134,-22 -18,0 -213,-21 -231,-26 41,38 107,81 151,112 33,24 139,87 155,121z"/>
     <path class="fil28" d="M3490 1387c5,32 106,163 131,210 -1,3 -8,26 -10,33 61,-9 104,-34 158,-30 -8,-21 -4,-14 -1,-19l56 -2 70 0 -1 -33c-50,-15 -328,-156 -399,-178l-4 19z"/>
     <path class="fil64" d="M2700 200c30,-12 168,-110 185,-127 24,-29 32,-29 26,-73l-347 0c8,22 122,191 136,200z"/>
     <path class="fil61" d="M2011 1914c-21,-36 -81,-220 -88,-261l43 2c-23,-11 -22,-9 -53,-10 -39,46 -185,241 -192,266l290 3z"/>
     <path class="fil54" d="M1740 2432c21,4 192,7 231,8 76,3 154,17 228,11l-4 -3 -16 -11c-27,-12 -76,-63 -99,-84 -16,-15 -30,-28 -47,-45 -27,-26 -25,-27 -58,-30 -23,13 -74,67 -107,89 -67,43 -106,44 -128,65z"/>
     <path class="fil42" d="M1331 814c29,-33 154,-52 215,-61 64,-8 224,4 270,-11 -54,1 -107,-2 -161,-2 -48,1 -123,14 -150,-7l0 -1 -122 -128c-39,-41 -72,-93 -119,-121l67 331z"/>
     <path class="fil65" d="M1105 1642l2 2c23,7 49,22 67,34 24,15 36,30 70,36 -25,-40 -170,-113 -221,-317 -22,-23 -16,-23 -25,-56l-186 -22c17,38 117,133 148,167 27,29 47,49 72,76 19,19 59,58 73,80z"/>
     <path class="fil66" d="M1975 2278c33,3 31,4 58,30 17,17 31,30 47,45 23,21 72,72 99,84l-72 -226 236 2 610 -1c-15,-31 7,-7 -26,-15l-498 0c-89,0 -178,1 -266,1 -116,0 -137,-19 -188,80z"/>
     <path class="fil51" d="M3265 2154c-11,1 -6,0 -16,13 -6,7 -15,22 -20,30 -16,24 -29,36 -39,68 42,35 97,100 130,137 26,31 94,117 130,139 -9,-47 -60,-155 -82,-204 -24,-57 -64,-135 -83,-197 2,29 4,1 -20,14z"/>
     <polygon class="fil33" points="2179,2437 2195,2448 2343,2213 2107,2211 "/>
     <path class="fil67" d="M184 929c-15,14 -32,52 -46,82 -9,20 -12,29 -20,47 -12,30 -6,28 -26,47 0,26 24,16 56,13 25,-2 41,-5 68,-7 43,-3 90,-10 132,-6l7 -16c-34,-23 -117,-140 -138,-176 -19,9 -12,6 -33,16z"/>
     <path class="fil57" d="M184 929c21,-10 14,-7 33,-16 21,36 104,153 138,176l-32 -304c-10,-47 4,-16 -18,-34 -28,13 -113,151 -121,178z"/>
     <path class="fil63" d="M4897 164l2 14c1,-2 2,-8 3,-7 9,20 -2,-15 22,-37 5,-31 64,-102 85,-134l-285 0c0,32 6,30 30,46 22,14 35,24 53,37 33,24 84,43 90,81z"/>
     <path class="fil58" d="M2334 631l-1 -6 13 0 18 -6c2,-33 9,-33 28,-65 13,-22 19,-40 38,-52 -18,-31 -119,-87 -147,-84 -6,0 -20,4 -21,2 -1,-2 -4,3 -6,4 20,67 71,145 78,207z"/>
     <path class="fil52" d="M634 2769c-26,39 -38,35 -45,87 40,29 165,104 226,118l-8 -13c0,0 -12,-14 -12,-14 -38,-39 -140,-122 -151,-163 32,-1 151,-6 179,-24 -61,-1 -133,20 -189,9z"/>
     <path class="fil68" d="M2674 1006l19 32 -12 -30c45,-9 128,-1 170,4 -14,-59 -46,-100 -79,-153 -30,9 -39,42 -56,69 -17,29 -39,50 -42,78z"/>
     <path class="fil69" d="M1555 996c21,-49 -25,-46 18,-121 88,-19 67,20 126,33 -32,-118 -216,-118 -200,13 5,39 19,71 56,75z"/>
     <path class="fil23" d="M2364 619c62,4 109,-30 168,-35 -12,-28 1,-7 -19,-28 -4,-4 -22,-17 -28,-22 -21,-15 -30,-28 -55,-32 -19,12 -25,30 -38,52 -19,32 -26,32 -28,65z"/>
     <path class="fil70" d="M4070 131l-80 -131 -133 0c17,24 183,121 213,131z"/>
     <path class="fil71" d="M1977 1239c-10,-22 -30,-37 -49,-56 -22,-21 -34,-41 -61,-41 -5,34 -18,89 10,108 27,18 78,3 100,-11z"/>
     <path class="fil72" d="M5061 2096c2,19 -1,27 16,54 81,-61 100,-143 95,-254 -20,37 -20,79 -36,111 -18,38 -48,60 -75,89z"/>
     <path class="fil73" d="M4611 1898c11,-9 7,-3 17,-15 20,-25 14,-36 47,-56l0 50c25,-11 18,-45 10,-66 -11,-26 -16,-43 -44,-46 -19,41 -24,83 -30,133z"/>
     <path class="fil66" d="M4611 1898l2 35c1,1 2,4 3,6 27,-11 46,-29 59,-62l0 -50c-33,20 -27,31 -47,56 -10,12 -6,6 -17,15z"/>
     <path class="fil74" d="M4833 2303c7,18 -1,11 16,26 30,-7 27,-21 36,-52 -27,16 -10,3 -28,36l-24 -10z"/>
    </g>
    <g>
     <path class="fil0" d="M4604 3034c4,27 85,144 112,170l1445 0c-13,-49 -222,-354 -274,-433l-91 -130c-24,-3 -17,0 -33,-15 -21,51 -90,213 -124,260 -49,-8 -372,-312 -428,-341 -58,6 -131,71 -172,98 -56,38 -101,74 -156,110 -112,75 -193,138 -308,214 15,29 28,33 29,67z"/>
     <path class="fil0" d="M2792 2249l-118 257c-18,40 -103,231 -129,247 -34,-18 -301,-257 -349,-284 -53,-11 -571,401 -659,437 -16,15 -292,175 -310,171 79,24 72,13 137,21l50 19c797,38 1335,-248 1540,-897l-173 0c11,17 3,2 11,29z"/>
     <path class="fil1" d="M3301 260l1 13c3,40 40,171 53,213 33,102 79,318 112,438 19,75 43,146 56,225 4,15 -4,3 11,4l28 -3c-42,5 -10,5 -22,-11 19,-40 47,-87 65,-120l204 -370c28,-50 265,-453 260,-502l-768 113z"/>
     <path class="fil2" d="M3562 1150l499 -148c34,-13 146,-45 181,-42 -12,-79 -24,-141 -39,-217l-100 -502c-25,-118 11,-77 -34,-94 5,49 -232,452 -260,502l-204 370c-18,33 -46,80 -65,120 12,16 -20,16 22,11z"/>
     <path class="fil1" d="M615 568l-1 11 183 735 15 5 186 22 -6 -81 -180 46c4,-30 202,-376 222,-414l111 -205c24,-39 99,-163 112,-209l-642 90z"/>
     <path class="fil3" d="M2470 1106c-19,91 95,526 109,666 17,24 17,39 19,70l386 -149 0 220c36,-58 -7,-318 -3,-404 2,-19 3,-31 0,-51 0,0 -4,-17 -5,-19 -8,-18 1,-4 -10,-16l15 166c-43,-51 -286,-535 -288,-551l-19 -32 -19 2c-10,15 -70,43 -89,53 -24,14 -72,48 -96,45z"/>
     <path class="fil4" d="M3265 2154c24,-13 22,15 20,-14 19,62 59,140 83,197 22,49 73,157 82,204l6 16 25 -4c30,-32 89,-68 124,-97 44,-36 78,-61 125,-99 69,-53 196,-164 254,-191l3 -4 -5 -14c-61,-11 -226,-93 -287,-120 -42,-19 -94,-41 -140,-61 -41,-18 -98,-53 -137,-46 -21,14 -140,192 -153,233z"/>
     <path class="fil5" d="M3727 2886l14 2c23,-33 445,-270 495,-300 49,-28 117,-88 184,-84 -18,-14 -43,-29 -63,-43 -24,-12 -9,-4 -24,-27 -25,-35 -21,-27 -63,-59 -54,-42 -248,-198 -281,-213l-2 0 -3 4c-43,126 -86,244 -130,363 -21,57 -44,128 -63,182 -18,52 -50,125 -64,175z"/>
     <path class="fil6" d="M4415 2756c6,29 108,168 136,212l39 53c8,10 4,6 14,13 -1,-34 -14,-38 -29,-67 115,-76 196,-139 308,-214 55,-36 100,-72 156,-110 41,-27 114,-92 172,-98l-2 -10 -276 -18c-187,-29 -138,12 -191,24 -17,5 -1,-2 -22,9 -125,60 -242,-32 -300,-46 -15,57 -6,188 -5,252z"/>
     <path class="fil7" d="M3086 799c28,23 28,34 50,66l93 139c21,32 19,38 47,65 1,1 3,3 5,4l-22 -41c94,15 158,81 264,117 -13,-79 -37,-150 -56,-225 -33,-120 -79,-336 -112,-438 -13,-42 -50,-173 -53,-213 -25,8 -237,472 -241,492 15,10 19,15 25,34z"/>
     <path class="fil8" d="M5368 350c-17,27 -519,374 -547,413 -6,23 -4,15 80,31 46,9 78,16 114,24 34,7 69,15 101,22 62,13 82,-15 133,-3 44,10 158,-9 241,-7l65 -2c24,-7 1,6 18,-9 -94,-13 -66,21 -90,-81 -11,-46 -20,-86 -32,-132 -15,-59 -61,-225 -60,-276l-12 0 -11 20z"/>
     <path class="fil9" d="M3611 1630c-45,59 -177,245 -193,291 39,-7 96,28 137,46 46,20 98,42 140,61 61,27 226,109 287,120 -6,-86 -23,-173 -36,-254 -8,-49 -20,-210 -45,-232 -77,-8 -85,-43 -132,-62 -54,-4 -97,21 -158,30z"/>
     <path class="fil4" d="M467 1842c32,23 57,111 72,147 30,71 186,422 194,466 4,23 -9,7 19,18 22,-9 137,-101 157,-117 25,-21 48,-38 74,-59 29,-22 52,-52 89,-46 -10,-34 -28,-49 -42,-79 -9,-22 -25,-78 -31,-87l-28 -31c-21,-20 -464,-208 -491,-219l-14 -2 1 9z"/>
     <path class="fil10" d="M2446 1132c-56,68 -136,119 -199,195 -3,37 39,93 65,120 50,52 42,76 -7,117 -107,91 -115,106 -284,98 23,28 52,26 131,51 88,27 378,116 433,122l-6 -63c-14,-140 -128,-575 -109,-666l-14 -7 -10 33z"/>
     <path class="fil11" d="M4899 178c-1,78 -34,215 -47,289 -17,94 -35,202 -50,295l-2 7 21 -6c28,-39 530,-386 547,-413 0,-32 -31,-28 -105,-57 -35,-14 -79,-29 -113,-44 -34,-16 -192,-81 -226,-84l0 -31c-24,22 -13,57 -22,37 -1,-1 -2,5 -3,7z"/>
     <path class="fil6" d="M1538 2456l-1 450c88,-36 606,-448 659,-437 17,2 3,2 3,-18 -74,6 -152,-8 -228,-11 -39,-1 -210,-4 -231,-8l-14 -3c-31,32 -146,37 -188,27z"/>
     <path class="fil12" d="M3562 1150l-28 3c10,16 17,20 29,34 7,7 8,9 16,17 22,22 -12,-2 19,17l-2 -29c22,7 58,43 93,60 46,22 79,31 137,33 109,3 213,-11 324,-14l117 -3 -17 -312 -8 4c-35,-3 -147,29 -181,42l-499 148z"/>
     <path class="fil13" d="M2630 3107c84,-6 243,-66 330,-87 59,-13 117,-30 167,-44 43,-12 131,-42 178,-39 5,-6 11,-14 19,-23l-14 -1c-53,-40 -121,-118 -170,-165 -32,-32 -59,-59 -83,-83 -54,-53 -53,-71 -90,-63 -21,9 -156,227 -169,245 -37,53 -158,227 -168,260z"/>
     <path class="fil14" d="M3982 2148l5 14 2 0c20,-22 156,-58 191,-71 51,-18 159,-67 204,-54 -9,-36 -20,-57 -35,-89 -24,-53 -24,-40 -27,-101l3 -38c-39,-15 -99,-61 -138,-83 -165,-91 -56,-39 -161,-60l-125 -4c25,22 37,183 45,232 13,81 30,168 36,254z"/>
     <path class="fil15" d="M4470 366c-27,13 -43,47 -48,69 -8,37 1,9 -21,39 15,16 336,258 366,273 25,16 2,5 35,15 15,-93 33,-201 50,-295 13,-74 46,-211 47,-289l-2 -14c-56,12 -365,211 -434,238 0,0 5,-20 5,-22l2 -14z"/>
     <path class="fil16" d="M5209 2535l2 10c56,29 379,333 428,341 34,-47 103,-209 124,-260 16,15 9,12 33,15 -6,-16 -133,-224 -158,-240 -42,-13 -63,4 -105,19 -41,14 -74,24 -113,38 -45,16 -188,56 -211,77z"/>
     <path class="fil7" d="M356 1090l8 14c40,13 76,36 110,52l317 155c2,0 4,2 6,3l-183 -735c-44,31 -202,436 -258,511z"/>
     <path class="fil17" d="M83 2181c-10,28 18,79 30,103 35,9 92,76 119,103 41,40 71,68 116,117 37,39 219,206 226,232 36,-1 14,11 33,-8 -20,-96 -73,-213 -104,-309l-105 -299c9,-6 -14,-16 16,0 -13,-26 -10,-33 -40,-38 -58,-1 -96,15 -149,22 -59,8 -88,15 -148,19l6 58z"/>
     <path class="fil18" d="M2941 562c25,63 142,196 145,237 -6,-19 -10,-24 -25,-34 4,-20 216,-484 241,-492l-1 -13c-50,-16 -137,-65 -191,-93 -44,-22 -151,-82 -199,-91 -5,61 12,189 20,255 5,37 7,82 12,123 4,26 26,89 -2,108z"/>
     <path class="fil19" d="M348 1105l-333 518c-3,-51 14,-106 4,-154 -6,9 -5,4 -9,21 -4,11 -4,20 -5,32 -2,17 -1,30 -5,45l0 121c63,-56 214,-105 298,-142 52,-23 99,-41 155,-64l147 -52 -10 48c1,-2 4,-7 5,-6l14 -27c5,-34 11,-5 -9,-38 -10,-24 -94,-122 -114,-147 -25,-30 -108,-124 -122,-156l-8 -14 -1 -1 -7 16z"/>
     <path class="fil20" d="M3481 2553l-21 0c47,60 87,111 133,167l93 114c27,30 27,18 25,54l16 -2c14,-50 46,-123 64,-175 19,-54 42,-125 63,-182 44,-119 87,-237 130,-363 -58,27 -185,138 -254,191 -47,38 -81,63 -125,99 -35,29 -94,65 -124,97z"/>
     <path class="fil21" d="M3741 2888l356 101 1 33c32,-23 162,-228 189,-267 13,-18 18,-30 28,-45 20,-30 11,-22 39,-35 16,32 35,67 61,81 -1,-64 -10,-195 5,-252 -67,-4 -135,56 -184,84 -50,30 -472,267 -495,300z"/>
     <path class="fil21" d="M969 2740l3 21c48,-7 91,16 137,30l417 114 -5 -445c-87,0 -96,19 -155,54 -40,24 -83,48 -131,77 -41,24 -229,143 -266,149z"/>
     <path class="fil16" d="M2195 2448l4 3c0,20 14,20 -3,18 48,27 315,266 349,284 26,-16 111,-207 129,-247l118 -257 -597 199z"/>
     <path class="fil9" d="M478 1825l2 10c27,11 470,199 491,219l28 31 -8 -38c-19,-29 -25,-91 -20,-130l176 -7 -40 -266 -629 181z"/>
     <path class="fil22" d="M5399 336c26,74 262,295 265,322 18,-34 -1,-7 26,-15 17,-5 126,-181 144,-207 23,-35 137,-194 138,-220 7,-40 8,-30 25,-54l-598 174z"/>
     <path class="fil23" d="M5586 5c-34,91 -176,263 -187,331l598 -174c-17,24 -18,14 -25,54 32,-24 145,-208 148,-216l-529 0 -5 5z"/>
     <path class="fil24" d="M3301 260l768 -113 -2 -14 3 -2c-30,-10 -196,-107 -213,-131l-476 0c4,71 -69,183 -80,260z"/>
     <path class="fil25" d="M4364 519c-55,94 -36,102 -67,211 -16,56 -52,172 -47,226l25 3 -17 -15c84,-16 348,-111 459,-145l65 -26 -15 -26c-30,-15 -351,-257 -366,-273 22,-30 13,-2 21,-39 -25,17 -51,54 -58,84z"/>
     <path class="fil26" d="M2984 1913l-427 1 -546 0 -290 -3c7,-25 153,-220 192,-266 -74,-25 -268,-6 -334,16 -44,16 -82,34 -124,59 -64,39 -47,62 -124,43 25,41 199,114 210,143l-394 4 -176 7c-5,39 1,101 20,130l-10 -123 2016 3c7,-34 7,-362 -4,-397 -6,-18 -3,-12 -12,-21 -4,86 39,346 3,404z"/>
     <path class="fil27" d="M1505 732l0 1c22,-25 67,-43 103,-64 35,-20 72,-43 112,-64 73,-39 149,-88 218,-120 -16,-34 -122,-97 -155,-121 -44,-31 -110,-74 -151,-112 -39,-3 -93,-9 -131,5 0,102 -15,396 4,475z"/>
     <path class="fil28" d="M590 1478l-112 347 629 -181 -2 -2c-185,-84 -332,-146 -505,-235 20,33 14,4 9,38l-14 27c-1,-1 -4,4 -5,6z"/>
     <path class="fil29" d="M972 2761c-4,48 33,259 56,291 124,30 244,61 386,65l-50 -19c-65,-8 -58,3 -137,-21 18,4 294,-156 310,-171l1 -450 -17 4 5 445 -417 -114c-46,-14 -89,-37 -137,-30z"/>
     <path class="fil8" d="M2024 874c14,33 46,61 67,88 17,22 39,68 54,86 82,32 234,49 272,61 32,10 18,5 29,23l10 -33c-19,-73 -44,-156 -57,-226 -14,-76 -52,-180 -53,-248l-13 0c-9,34 -46,52 -73,71 -25,19 -49,37 -76,57 -57,42 -115,83 -160,121z"/>
     <path class="fil30" d="M998 1341c9,33 3,33 25,56 -14,-158 -24,-253 52,-381 46,-77 156,-177 256,-202l-67 -331 -7 -5c-13,46 -88,170 -112,209l-111 205c-20,38 -218,384 -222,414l180 -46 6 81z"/>
     <path class="fil31" d="M0 1688l0 7c59,-6 175,47 235,63 45,12 205,56 231,75l14 2 -2 -10 112 -347 10 -48 -147 52c-56,23 -103,41 -155,64 -84,37 -235,86 -298,142z"/>
     <path class="fil32" d="M2630 3107c-10,6 -1,-2 -12,10l-52 87 602 0c8,-34 52,-104 69,-134 20,-35 59,-97 68,-133 -47,-3 -135,27 -178,39 -50,14 -108,31 -167,44 -87,21 -246,81 -330,87z"/>
     <path class="fil33" d="M2011 1914l546 0c6,-30 27,-50 41,-72 -2,-31 -2,-46 -19,-70l6 63c-55,-6 -345,-95 -433,-122 -79,-25 -108,-23 -131,-51l-55 -7 -43 -2c7,41 67,225 88,261z"/>
     <path class="fil34" d="M3136 2347c-3,74 56,214 81,284 18,48 93,237 93,282l14 1c20,-51 136,-318 132,-357l-6 -16c-36,-22 -104,-108 -130,-139 -33,-37 -88,-102 -130,-137 -16,6 -51,60 -54,82z"/>
     <path class="fil35" d="M3281 1073c7,33 140,221 176,277 16,26 10,22 33,37l4 -19c71,22 349,163 399,178 19,-22 37,-28 57,-43 17,-14 34,-32 59,-48 51,-33 143,-14 199,-4 -95,-31 -275,-18 -383,-35 -68,-10 -111,-16 -153,-56 -49,-47 -48,-85 -74,-139 -31,-19 3,5 -19,-17 -8,-8 -9,-10 -16,-17 -12,-14 -19,-18 -29,-34 -15,-1 -7,11 -11,-4 -106,-36 -170,-102 -264,-117l22 41z"/>
     <path class="fil36" d="M3989 2162c33,15 227,171 281,213 42,32 38,24 63,59 15,23 0,15 24,27 -5,-39 54,-162 64,-212 16,-71 -9,-167 -37,-212 -45,-13 -153,36 -204,54 -35,13 -171,49 -191,71z"/>
     <path class="fil24" d="M517 540c37,-14 62,16 98,28l642 -90 2 -10 -250 -154 17 -14c-138,20 -414,157 -509,240z"/>
     <path class="fil37" d="M600 1407c173,89 320,151 505,235 -14,-22 -54,-61 -73,-80 -25,-27 -45,-47 -72,-76 -31,-34 -131,-129 -148,-167l-15 -5c-2,-1 -4,-3 -6,-3l-317 -155c-34,-16 -70,-39 -110,-52 14,32 97,126 122,156 20,25 104,123 114,147z"/>
     <path class="fil38" d="M3562 2900l-58 17c-21,2 -36,1 -60,4 -37,4 -85,2 -111,14 30,55 228,218 265,269l181 0 -52 -318 -16 2 -149 12z"/>
     <path class="fil39" d="M4924 134l0 31c34,3 192,68 226,84 34,15 78,30 113,44 74,29 105,25 105,57l11 -20c-6,-33 -18,-45 -30,-72 -10,-22 -20,-57 -32,-84 -18,-41 -64,-134 -65,-164l334 -5 5 -5 -582 0c-21,32 -80,103 -85,134z"/>
     <path class="fil20" d="M752 2473l-2 19c28,8 36,33 54,56 36,47 143,160 151,198l14 -6 119 -329c8,-22 13,-36 20,-57 24,-73 3,-60 3,-60l-39 -43c-37,-6 -60,24 -89,46 -26,21 -49,38 -74,59 -20,16 -135,108 -157,117z"/>
     <path class="fil5" d="M969 2740c37,-6 225,-125 266,-149 48,-29 91,-53 131,-77 59,-35 68,-54 155,-54l17 -4c42,10 157,5 188,-27 -113,17 -246,35 -365,2 -59,-16 -100,-30 -145,-55 -50,-29 -62,-49 -105,-82 0,0 21,-13 -3,60 -7,21 -12,35 -20,57l-119 329z"/>
     <path class="fil29" d="M3779 3204l205 -4c23,-28 112,-151 114,-178l-1 -33 -356 -101 -14 -2 52 318z"/>
     <path class="fil11" d="M1931 670l6 13c126,66 18,168 87,191 45,-38 103,-79 160,-121 27,-20 51,-38 76,-57 27,-19 64,-37 73,-71l1 6 -199 -79c-57,-22 -164,-48 -177,-87 -1,1 -2,4 -3,6 -16,40 -2,9 -20,100 -3,17 -7,41 -9,57 -9,60 4,41 5,42z"/>
     <path class="fil22" d="M2364 619c-14,51 63,107 135,193 37,44 155,161 156,196l19 -2c3,-28 25,-49 42,-78 17,-27 26,-60 56,-69 -29,-67 -194,-270 -240,-275 -59,5 -106,39 -168,35z"/>
     <path class="fil34" d="M574 2736c18,43 12,39 60,33 7,-39 103,-265 116,-277l2 -19c-28,-11 -15,5 -19,-18 -29,-15 -140,-146 -164,-172 -27,-28 -124,-145 -155,-163 -30,-16 -7,-6 -16,0l105 299c31,96 84,213 104,309 -19,19 3,7 -33,8z"/>
     <path class="fil40" d="M2885 73l26 3c48,9 155,69 199,91 54,28 141,77 191,93 11,-77 84,-189 80,-260l-470 0c6,44 -2,44 -26,73z"/>
     <path class="fil41" d="M17 1899c-9,41 31,235 51,264 11,16 -1,3 15,18l-6 -58c60,-4 89,-11 148,-19 53,-7 91,-23 149,-22l-8 -23 -260 -260c-42,-43 -56,-67 -97,-82l8 182z"/>
     <path class="fil42" d="M4069 147c45,17 9,-24 34,94l100 502c15,76 27,138 39,217l8 -4c-5,-54 31,-170 47,-226 31,-109 12,-117 67,-211 -40,-3 -36,-6 -55,-37 -42,-69 -213,-327 -242,-349l2 14z"/>
     <path class="fil43" d="M19 1469c10,48 -7,103 -4,154l333 -518c-42,-4 -89,3 -132,6 -27,2 -43,5 -68,7 -32,3 -56,13 -56,-13 1,11 -39,143 -46,172 -13,50 -40,142 -27,192z"/>
     <path class="fil18" d="M517 540c-44,31 -76,61 -114,96 -37,36 -78,70 -98,115 22,18 8,-13 18,34l32 304 1 1c56,-75 214,-480 258,-511l1 -11c-36,-12 -61,-42 -98,-28z"/>
     <path class="fil44" d="M3324 2914c-8,9 -14,17 -19,23 30,-9 -6,3 21,-10 35,-18 48,-13 93,-16 47,-4 95,-13 143,-11l149 -12c2,-36 2,-24 -25,-54l-93 -114c-46,-56 -86,-107 -133,-167l21 0 -25 4c4,39 -112,306 -132,357z"/>
     <path class="fil45" d="M1259 262c20,4 131,-4 174,-4 -29,30 -59,74 -85,108l-65 85c-12,12 -8,11 -24,17l-2 10 7 5c47,28 80,80 119,121l122 128c-19,-79 -4,-373 -4,-475 38,-14 92,-8 131,-5 18,5 213,26 231,26 -18,-44 -538,-38 -579,-29 -35,8 -15,5 -25,13z"/>
     <path class="fil46" d="M0 1832l9 46c1,2 2,5 2,7 1,3 3,5 3,7 1,2 2,5 3,7l-8 -182c41,15 55,39 97,82l260 260c31,2 25,-5 38,-42 6,-19 12,-36 19,-56 16,-40 30,-78 44,-119l-1 -9c-26,-19 -186,-63 -231,-75 -60,-16 -176,-69 -235,-63l0 137z"/>
     <path class="fil47" d="M4800 769l-140 284 22 67c36,-4 2,5 34,-12 36,-22 73,-60 110,-91 94,-77 213,-146 339,-160 27,-3 61,-4 84,-20 -51,-12 -71,16 -133,3 -32,-7 -67,-15 -101,-22 -36,-8 -68,-15 -114,-24 -84,-16 -86,-8 -80,-31l-21 6z"/>
     <path class="fil48" d="M2693 1038c2,16 245,500 288,551l-15 -166c10,-74 -79,-373 -115,-411 -42,-5 -125,-13 -170,-4l12 30z"/>
     <path class="fil17" d="M2967 2602c37,-8 36,10 90,63 24,24 51,51 83,83 49,47 117,125 170,165 0,-45 -75,-234 -93,-282 -25,-70 -84,-210 -81,-284 -38,28 -66,87 -90,125 -26,41 -64,89 -79,130z"/>
     <path class="fil49" d="M4275 959l325 80c24,7 31,4 41,22l19 -8 140 -284 2 -7c-33,-10 -10,1 -35,-15l15 26 -65 26c-111,34 -375,129 -459,145l17 15z"/>
     <path class="fil50" d="M2343 2213l-148 235 597 -199c-8,-27 0,-12 -11,-29l173 0 -1 -8 -610 1z"/>
     <path class="fil42" d="M4150 1271l217 2c-25,-26 -11,-16 -75,-26 16,-3 319,-163 349,-186 -10,-18 -17,-15 -41,-22l-325 -80 -25 -3 17 312 -117 3z"/>
     <path class="fil51" d="M366 2059l8 23c30,5 27,12 40,38 31,18 128,135 155,163 24,26 135,157 164,172 -8,-44 -164,-395 -194,-466 -15,-36 -40,-124 -72,-147 -14,41 -28,79 -44,119 -7,20 -13,37 -19,56 -13,37 -7,44 -38,42z"/>
     <path class="fil52" d="M3305 2937c-9,36 -48,98 -68,133 -17,30 -61,100 -69,134l430 0c-37,-51 -235,-214 -265,-269 26,-12 74,-10 111,-14 24,-3 39,-2 60,-4l58 -17c-48,-2 -96,7 -143,11 -45,3 -58,-2 -93,16 -27,13 9,1 -21,10z"/>
     <path class="fil38" d="M823 2760c-28,18 -147,23 -179,24 11,41 113,124 151,163 0,0 12,14 12,14l8 13c1,1 2,2 13,9 1,1 3,2 4,3l196 66c-23,-32 -60,-243 -56,-291l-3 -21 -14 6 -132 14z"/>
     <path class="fil27" d="M4470 366l-2 14c0,2 -5,22 -5,22 69,-27 378,-226 434,-238 -6,-38 -57,-57 -90,-81 -18,-13 -31,-23 -53,-37 -24,-16 -30,-14 -30,-46l-18 0c-14,37 -97,150 -118,179 -25,38 -114,156 -118,187z"/>
     <path class="fil53" d="M3893 1546l1 33 -70 0c38,22 144,9 182,-1 56,-16 95,-57 137,-67 144,-35 207,132 149,219 -51,7 -81,-37 -123,-61 -32,-19 -111,-34 -143,-3 105,21 -4,-31 161,60 39,22 99,68 138,83l-3 38c26,-22 28,-81 29,-125 1,-50 -2,-100 -1,-150 44,9 22,29 87,35 -24,-46 -169,-142 -229,-156 -56,-10 -148,-29 -199,4 -25,16 -42,34 -59,48 -20,15 -38,21 -57,43z"/>
     <path class="fil33" d="M5191 2524c32,-14 96,-125 113,-149 29,-41 77,-113 102,-154l35 3 -11 -9c-16,-11 -1,-3 -17,-10 -79,-38 -188,-33 -273,-26 -11,11 -8,8 -26,16 -1,0 -21,5 -29,8 17,28 99,279 106,321z"/>
     <path class="fil50" d="M5191 2524l-15 0 -243 -7 276 18c23,-21 166,-61 211,-77 39,-14 72,-24 113,-38 42,-15 63,-32 105,-19 -17,-59 -138,-173 -197,-177l-35 -3c-25,41 -73,113 -102,154 -17,24 -81,135 -113,149z"/>
     <path class="fil13" d="M589 2856c7,-52 19,-48 45,-87 -48,6 -42,10 -60,-33 -7,-26 -189,-193 -226,-232 -45,-49 -75,-77 -116,-117 -27,-27 -84,-94 -119,-103 31,100 133,248 197,325 83,99 176,183 279,247z"/>
     <path class="fil39" d="M1958 465c13,39 120,65 177,87l199 79c-7,-62 -58,-140 -78,-207 2,-1 5,-6 6,-4 1,2 15,-2 21,-2 -7,-11 -5,-14 -37,-29 -18,-8 -29,-12 -46,-20 -20,-8 -64,-28 -89,-28l-65 -11 -88 135z"/>
     <path class="fil54" d="M4885 2277c-9,31 -6,45 -36,52 -17,-15 -9,-8 -16,-26l-25 -8c1,53 3,98 -11,147 -13,46 -40,62 -55,99 53,-12 4,-53 191,-24l243 7c-12,-27 -6,-19 -32,-41 -57,-51 -203,-201 -250,-221l-9 15z"/>
     <path class="fil55" d="M2346 625c1,68 39,172 53,248 13,70 38,153 57,226l14 7c24,3 72,-31 96,-45 19,-10 79,-38 89,-53 -1,-35 -119,-152 -156,-196 -72,-86 -149,-142 -135,-193l-18 6z"/>
     <path class="fil56" d="M2598 1842c-14,22 -35,42 -41,72l427 -1 0 -220 -386 149z"/>
     <path class="fil57" d="M2700 200c5,15 220,347 241,362 28,-19 6,-82 2,-108 -5,-41 -7,-86 -12,-123 -8,-66 -25,-194 -20,-255l-26 -3c-17,17 -155,115 -185,127z"/>
     <path class="fil58" d="M5379 330l12 0 8 6c11,-68 153,-240 187,-331l-334 5c1,30 47,123 65,164 12,27 22,62 32,84 12,27 24,39 30,72z"/>
     <path class="fil55" d="M5573 819c10,-7 2,1 15,-14 1,-2 11,-17 13,-20 26,-39 77,-105 89,-142 -27,8 -8,-19 -26,15 -3,-27 -239,-248 -265,-322l-8 -6c-1,51 45,217 60,276 12,46 21,86 32,132 24,102 -4,68 90,81z"/>
     <path class="fil14" d="M1147 1910l394 -4c-11,-29 -185,-102 -210,-143 -12,-9 -71,-47 -87,-49 -34,-6 -46,-21 -70,-36 -18,-12 -44,-27 -67,-34l40 266z"/>
     <path class="fil15" d="M1505 733c27,21 102,8 150,7 54,0 107,3 161,2 34,-39 58,-60 121,-59l-6 -13 -21 -13 28 -172c-69,32 -145,81 -218,120 -40,21 -77,44 -112,64 -36,21 -81,39 -103,64z"/>
     <path class="fil59" d="M4641 1061c-30,23 -333,183 -349,186 64,10 50,0 75,26 115,18 205,136 246,146 -1,-69 -43,-86 -71,-130 18,-43 140,-139 174,-181 -32,17 2,8 -34,12l-22 -67 -19 8z"/>
     <path class="fil44" d="M634 2769c56,11 128,-10 189,-9l132 -14c-8,-38 -115,-151 -151,-198 -18,-23 -26,-48 -54,-56 -13,12 -109,238 -116,277z"/>
     <path class="fil60" d="M1259 262c-58,-6 -180,22 -233,38l-17 14 250 154c16,-6 12,-5 24,-17l65 -85c26,-34 56,-78 85,-108 -43,0 -154,8 -174,4z"/>
     <path class="fil61" d="M4894 2262c47,20 193,170 250,221 26,22 20,14 32,41l15 0c-7,-42 -89,-293 -106,-321 8,-3 28,-8 29,-8 18,-8 15,-5 26,-16l-93 10c2,-2 3,-5 4,-6l26 -33c-17,-27 -14,-35 -16,-54 -48,36 -152,121 -167,166z"/>
     <path class="fil62" d="M2247 1327c63,-76 143,-127 199,-195 -11,-18 3,-13 -29,-23 -38,-12 -190,-29 -272,-61 3,31 10,61 13,85 12,114 -24,68 42,143 21,24 22,34 47,51z"/>
     <path class="fil63" d="M1938 485l-28 172 21 13c-1,-1 -14,18 -5,-42 2,-16 6,-40 9,-57 18,-91 4,-60 20,-100 1,-2 2,-5 3,-6l88 -135 65 11c-27,-26 -76,-32 -114,-41 -42,-10 -88,-29 -134,-22 -18,0 -213,-21 -231,-26 41,38 107,81 151,112 33,24 139,87 155,121z"/>
     <path class="fil28" d="M3490 1387c5,32 106,163 131,210 -1,3 -8,26 -10,33 61,-9 104,-34 158,-30 -8,-21 -4,-14 -1,-19l56 -2 70 0 -1 -33c-50,-15 -328,-156 -399,-178l-4 19z"/>
     <path class="fil64" d="M2700 200c30,-12 168,-110 185,-127 24,-29 32,-29 26,-73l-347 0c8,22 122,191 136,200z"/>
     <path class="fil61" d="M2011 1914c-21,-36 -81,-220 -88,-261l43 2c-23,-11 -22,-9 -53,-10 -39,46 -185,241 -192,266l290 3z"/>
     <path class="fil54" d="M1740 2432c21,4 192,7 231,8 76,3 154,17 228,11l-4 -3 -16 -11c-27,-12 -76,-63 -99,-84 -16,-15 -30,-28 -47,-45 -27,-26 -25,-27 -58,-30 -23,13 -74,67 -107,89 -67,43 -106,44 -128,65z"/>
     <path class="fil42" d="M1331 814c29,-33 154,-52 215,-61 64,-8 224,4 270,-11 -54,1 -107,-2 -161,-2 -48,1 -123,14 -150,-7l0 -1 -122 -128c-39,-41 -72,-93 -119,-121l67 331z"/>
     <path class="fil65" d="M1105 1642l2 2c23,7 49,22 67,34 24,15 36,30 70,36 -25,-40 -170,-113 -221,-317 -22,-23 -16,-23 -25,-56l-186 -22c17,38 117,133 148,167 27,29 47,49 72,76 19,19 59,58 73,80z"/>
     <path class="fil66" d="M1975 2278c33,3 31,4 58,30 17,17 31,30 47,45 23,21 72,72 99,84l-72 -226 236 2 610 -1c-15,-31 7,-7 -26,-15l-498 0c-89,0 -178,1 -266,1 -116,0 -137,-19 -188,80z"/>
     <path class="fil51" d="M3265 2154c-11,1 -6,0 -16,13 -6,7 -15,22 -20,30 -16,24 -29,36 -39,68 42,35 97,100 130,137 26,31 94,117 130,139 -9,-47 -60,-155 -82,-204 -24,-57 -64,-135 -83,-197 2,29 4,1 -20,14z"/>
     <polygon class="fil33" points="2179,2437 2195,2448 2343,2213 2107,2211 "/>
     <path class="fil67" d="M184 929c-15,14 -32,52 -46,82 -9,20 -12,29 -20,47 -12,30 -6,28 -26,47 0,26 24,16 56,13 25,-2 41,-5 68,-7 43,-3 90,-10 132,-6l7 -16c-34,-23 -117,-140 -138,-176 -19,9 -12,6 -33,16z"/>
     <path class="fil57" d="M184 929c21,-10 14,-7 33,-16 21,36 104,153 138,176l-32 -304c-10,-47 4,-16 -18,-34 -28,13 -113,151 -121,178z"/>
     <path class="fil63" d="M4897 164l2 14c1,-2 2,-8 3,-7 9,20 -2,-15 22,-37 5,-31 64,-102 85,-134l-285 0c0,32 6,30 30,46 22,14 35,24 53,37 33,24 84,43 90,81z"/>
     <path class="fil58" d="M2334 631l-1 -6 13 0 18 -6c2,-33 9,-33 28,-65 13,-22 19,-40 38,-52 -18,-31 -119,-87 -147,-84 -6,0 -20,4 -21,2 -1,-2 -4,3 -6,4 20,67 71,145 78,207z"/>
     <path class="fil52" d="M634 2769c-26,39 -38,35 -45,87 40,29 165,104 226,118l-8 -13c0,0 -12,-14 -12,-14 -38,-39 -140,-122 -151,-163 32,-1 151,-6 179,-24 -61,-1 -133,20 -189,9z"/>
     <path class="fil68" d="M2674 1006l19 32 -12 -30c45,-9 128,-1 170,4 -14,-59 -46,-100 -79,-153 -30,9 -39,42 -56,69 -17,29 -39,50 -42,78z"/>
     <path class="fil69" d="M1555 996c21,-49 -25,-46 18,-121 88,-19 67,20 126,33 -32,-118 -216,-118 -200,13 5,39 19,71 56,75z"/>
     <path class="fil23" d="M2364 619c62,4 109,-30 168,-35 -12,-28 1,-7 -19,-28 -4,-4 -22,-17 -28,-22 -21,-15 -30,-28 -55,-32 -19,12 -25,30 -38,52 -19,32 -26,32 -28,65z"/>
     <path class="fil70" d="M4070 131l-80 -131 -133 0c17,24 183,121 213,131z"/>
     <path class="fil71" d="M1977 1239c-10,-22 -30,-37 -49,-56 -22,-21 -34,-41 -61,-41 -5,34 -18,89 10,108 27,18 78,3 100,-11z"/>
     <path class="fil72" d="M5061 2096c2,19 -1,27 16,54 81,-61 100,-143 95,-254 -20,37 -20,79 -36,111 -18,38 -48,60 -75,89z"/>
     <path class="fil73" d="M4611 1898c11,-9 7,-3 17,-15 20,-25 14,-36 47,-56l0 50c25,-11 18,-45 10,-66 -11,-26 -16,-43 -44,-46 -19,41 -24,83 -30,133z"/>
     <path class="fil66" d="M4611 1898l2 35c1,1 2,4 3,6 27,-11 46,-29 59,-62l0 -50c-33,20 -27,31 -47,56 -10,12 -6,6 -17,15z"/>
     <path class="fil74" d="M4833 2303c7,18 -1,11 16,26 30,-7 27,-21 36,-52 -27,16 -10,3 -28,36l-24 -10z"/>
    </g>
   </g>
   <g>
    <path class="fil75" d="M2045 4029c68,-2 56,7 74,-51 9,-26 17,-61 26,-98 22,-83 27,-167 67,-196 2,93 62,253 83,345 76,-2 63,-11 80,-73 12,-45 21,-77 33,-119 17,-58 63,-192 68,-250 -58,5 -54,13 -68,57l-55 207c-15,54 -8,69 -44,95 0,-71 -25,-125 -39,-182 -16,-64 -30,-117 -44,-177 -103,8 -68,144 -140,330 -1,3 -3,7 -4,10 -1,3 -4,8 -4,10 -1,2 -3,6 -5,9l-85 -317c-17,-44 -4,-30 -31,-38 -50,-14 -26,11 -27,19 -2,11 104,371 115,419z"/>
    <path class="fil75" d="M4754 3918c0,-302 -29,-276 152,-276 83,0 56,132 56,276 0,92 -208,91 -208,0zm-56 -290l0 525 56 0 0 -152c111,59 263,30 263,-96 0,-176 36,-318 -152,-318 -78,0 -46,23 -117,13 -14,-2 -50,-33 -50,28z"/>
    <path class="fil75" d="M4420 3987c-52,0 -26,-9 -83,-13 -13,-54 -56,-332 42,-332l152 0c0,228 36,345 -111,345zm-153 -276c0,211 -43,359 227,307 105,-20 93,159 93,-390 0,-60 -59,-41 -195,-41 -68,0 -125,56 -125,124z"/>
    <path class="fil75" d="M87 3518l0 511 292 0 0 -42 -236 0 0 -221 208 0 0 -41 -208 0 0 -193c231,0 229,19 236,-56 -56,0 -112,1 -168,0 -61,-1 -124,-16 -124,42z"/>
    <path class="fil75" d="M1309 3697c0,-80 208,-80 208,0l0 97 -208 0 0 -97zm-55 14c0,323 -22,318 277,318 39,0 34,-11 42,-42 -266,0 -264,13 -264,-152l264 0c0,-137 26,-248 -167,-248 -86,0 -152,39 -152,124z"/>
    <path class="fil75" d="M3823 3587c0,446 -39,442 222,442 128,0 125,-105 125,-180l-55 0c0,87 13,138 -125,138 -51,0 -78,-11 -111,-27 -15,-61 -52,-428 41,-428 201,0 195,-17 195,124l55 0c0,-174 -55,-180 -208,-180 -83,0 -139,29 -139,111z"/>
    <path class="fil75" d="M5740 3987c-129,0 -98,-57 -98,-290 0,-76 103,-55 209,-55 0,228 36,345 -111,345zm-153 -303c0,293 -35,345 180,345 77,0 13,-11 63,-15 39,-4 19,10 62,15l0 -442c-78,0 -305,-26 -305,97z"/>
    <path class="fil75" d="M2587 3891c0,-276 -19,-249 167,-249 90,0 55,260 41,318 -76,36 -117,36 -194,0 -7,-31 -14,-32 -14,-69zm-56 -111c0,239 26,249 209,249 145,0 111,-166 111,-332 0,-105 -98,-110 -167,-110 -125,0 -153,72 -153,193z"/>
    <path class="fil75" d="M837 4029c78,-7 56,-25 55,-194 0,-201 -21,-193 153,-193 92,0 56,291 56,387 79,-7 55,-14 55,-276 0,-238 -225,-151 -243,-149 -59,5 2,-11 -76,-17l0 442z"/>
    <path class="fil75" d="M559 3808c0,42 -94,148 -111,221 70,-2 52,-6 87,-66 22,-39 41,-67 52,-114l28 0c11,47 28,60 50,102 28,53 21,72 89,78 -7,-78 -104,-165 -107,-223 -3,-49 90,-157 107,-219 -71,2 -65,12 -89,64 -21,44 -39,68 -50,115 -32,-22 -52,-60 -70,-96 -31,-64 -15,-81 -97,-83 16,60 111,175 111,221z"/>
    <path class="fil75" d="M1698 3546l0 41 -56 0 0 55 56 0c0,269 -37,387 181,387l0 -42c-51,-1 -77,-11 -112,-27 -24,-106 -13,-192 -13,-318 134,0 100,6 125,-27 -24,-35 10,-28 -125,-28l0 -83c-40,3 -56,0 -56,42z"/>
    <path class="fil75" d="M5323 3546l0 41c-71,2 -40,-13 -69,28 29,40 -2,26 69,27 0,286 -38,387 181,387l0 -42c-163,-3 -125,-58 -125,-345l111 0 0 -55 -111 0 0 -83c-40,3 -56,0 -56,42z"/>
    <path class="fil75" d="M6017 3987c0,42 17,39 56,42l0 -594 -56 0 0 552z"/>
    <path class="fil75" d="M3226 3987c0,42 16,39 55,42l0 -594 -55 0 0 552z"/>
    <path class="fil75" d="M2962 3628l0 401 55 0c0,-121 -13,-257 14,-373 60,-14 96,-2 125,-41 -39,-57 -77,-28 -139,13 -19,-72 -55,-44 -55,0z"/>
    <path class="fil75" d="M3323 3808l86 121c63,95 46,98 122,100l-152 -221 119 -175c13,-25 34,-38 -9,-42 -44,-4 -144,176 -166,217z"/>
    <path class="fil75" d="M5129 4029c39,-3 55,0 55,-42l0 -359c0,-41 -16,-38 -55,-41l0 442z"/>
    <path class="fil75" d="M5129 3504c0,39 6,26 27,42 24,-17 28,-2 28,-42l0 -69 -55 0 0 69z"/>
   </g>
  </g>
 </g>
</svg>
