<?xml version="1.0" encoding="UTF-8"?>
<!DOCTYPE svg PUBLIC "-//W3C//DTD SVG 1.1//EN" "http://www.w3.org/Graphics/SVG/1.1/DTD/svg11.dtd">
<!-- Creator: CorelDRAW 2018 (64-Bit) -->
<svg xmlns="http://www.w3.org/2000/svg" xml:space="preserve" width="1.76971in" height="1.78983in" version="1.1" style="shape-rendering:geometricPrecision; text-rendering:geometricPrecision; image-rendering:optimizeQuality; fill-rule:evenodd; clip-rule:evenodd"
viewBox="0 0 1769.71 1789.83"
 xmlns:xlink="http://www.w3.org/1999/xlink">
 <defs>
  <style type="text/css">
   <![CDATA[
    .fil0 {fill:black}
    .fil3 {fill:#030000}
    .fil2 {fill:#517913}
    .fil1 {fill:#D1E800}
   ]]>
  </style>
 </defs>
 <g id="Layer_x0020_1">
  <metadata id="CorelCorpID_0Corel-Layer"/>
  <g id="_1108079311200">
   <g>
    <circle class="fil0" cx="870.14" cy="909.64" r="861.16"/>
    <g>
     <polygon class="fil1" points="661.91,35.94 675.06,34.43 688.37,33.28 701.83,32.48 715.41,32.02 729.09,31.89 742.88,32.09 756.74,32.6 770.65,33.41 784.61,34.53 798.59,35.94 812.58,37.63 826.57,39.59 840.53,41.81 854.44,44.29 868.3,47.02 882.09,49.98 895.78,53.18 909.36,56.59 922.81,60.22 936.13,64.06 949.28,68.09 962.25,72.3 975.02,76.69 987.59,81.26 999.93,85.98 1012.03,90.85 1023.86,95.87 1035.41,101.02 1046.67,106.3 1057.61,111.7 1068.22,117.2 1078.49,122.81 1083.8,125.81 1089.07,128.83 1094.31,131.89 1099.49,134.96 1104.64,138.05 1109.74,141.18 1114.8,144.31 1119.82,147.48 1124.79,150.66 1129.72,153.87 1134.6,157.09 1139.43,160.34 1144.22,163.61 1148.97,166.89 1153.66,170.2 1158.3,173.52 1162.9,176.87 1167.45,180.23 1171.94,183.61 1176.4,187 1180.8,190.42 1185.14,193.85 1189.43,197.3 1193.67,200.77 1197.86,204.24 1202,207.74 1206.08,211.25 1210.11,214.78 1214.07,218.31 1217.99,221.87 1221.85,225.44 1225.65,229.02 1229.97,233.13 1234.13,237.12 1238.14,240.99 1242.01,244.76 1245.74,248.43 1249.35,252.02 1252.85,255.52 1256.23,258.95 1259.52,262.33 1262.71,265.65 1265.82,268.93 1268.86,272.18 1271.83,275.4 1274.74,278.61 1277.6,281.81 1280.42,285.02 1283.2,288.24 1285.96,291.49 1288.71,294.76 1291.44,298.08 1294.18,301.45 1296.93,304.88 1299.69,308.37 1302.48,311.94 1305.29,315.6 1308.15,319.37 1311.06,323.22 1314.03,327.2 1317.07,331.3 1320.18,335.54 1323.38,339.91 1326.66,344.44 1327.52,345.66 1328.35,346.86 1329.14,348.06 1329.91,349.25 1330.67,350.45 1331.43,351.67 1332.19,352.91 1332.98,354.17 1338.09,364.31 1350.84,378.85 1363.26,393.67 1375.33,408.76 1387.06,424.11 1398.42,439.72 1409.42,455.6 1420.04,471.74 1430.28,488.13 1440.12,504.77 1449.57,521.65 1458.59,538.78 1467.2,556.15 1475.39,573.75 1483.13,591.58 1490.43,609.64 1497.27,627.93 1503.65,646.43 1509.55,665.16 1514.98,684.09 1519.91,703.23 1524.35,722.58 1528.28,742.13 1531.69,761.88 1534.59,781.82 1536.94,801.95 1538.76,822.27 1540.02,842.77 1540.72,863.44 1540.86,884.3 1540.42,905.31 1539.4,926.51 1537.78,947.85 1535.03,973.8 1531.45,999.5 1527.05,1024.95 1521.85,1050.13 1515.86,1075.03 1509.1,1099.62 1501.58,1123.9 1493.32,1147.84 1484.33,1171.43 1474.62,1194.65 1464.21,1217.49 1453.12,1239.93 1441.35,1261.94 1428.93,1283.53 1415.87,1304.67 1402.18,1325.33 1387.87,1345.53 1372.96,1365.22 1357.48,1384.4 1341.42,1403.05 1324.81,1421.15 1307.66,1438.69 1289.98,1455.66 1271.8,1472.02 1253.11,1487.79 1233.95,1502.93 1214.33,1517.42 1194.25,1531.26 1173.74,1544.43 1152.8,1556.91 1131.45,1568.68 1109.72,1579.73 1105.33,1581.85 1100.98,1583.94 1096.64,1585.98 1092.31,1587.99 1088.01,1589.96 1083.71,1591.89 1079.43,1593.79 1075.14,1595.65 1070.86,1597.49 1066.58,1599.3 1062.3,1601.07 1058.01,1602.82 1053.7,1604.54 1049.39,1606.24 1045.06,1607.92 1040.72,1609.57 1036.35,1611.2 1031.96,1612.81 1027.54,1614.4 1023.09,1615.97 1018.6,1617.53 1014.09,1619.07 1009.53,1620.6 1004.92,1622.12 1000.28,1623.62 995.59,1625.12 990.84,1626.61 986.04,1628.09 981.19,1629.56 976.28,1631.03 971.3,1632.5 966.26,1633.96 956.32,1636.72 946.22,1639.32 935.98,1641.76 925.61,1644.04 915.11,1646.16 904.5,1648.12 893.76,1649.91 882.93,1651.55 872,1653.02 860.98,1654.33 849.89,1655.48 838.72,1656.47 827.49,1657.3 816.2,1657.95 804.87,1658.45 793.5,1658.78 782.11,1658.95 770.68,1658.96 759.25,1658.8 747.8,1658.48 736.36,1657.98 724.93,1657.33 713.51,1656.51 702.13,1655.52 690.77,1654.37 679.46,1653.06 668.19,1651.57 656.99,1649.92 645.85,1648.1 634.78,1646.11 623.79,1643.95 612.9,1641.64 599.71,1638.59 586.72,1635.37 573.94,1631.98 561.36,1628.4 548.96,1624.64 536.76,1620.71 524.74,1616.6 512.89,1612.32 501.22,1607.87 489.72,1603.24 478.38,1598.45 467.2,1593.49 456.17,1588.36 445.3,1583.06 434.57,1577.6 423.98,1571.98 413.52,1566.19 403.2,1560.24 393.01,1554.12 382.93,1547.86 372.98,1541.43 363.13,1534.85 353.4,1528.11 343.77,1521.21 334.24,1514.17 324.8,1506.97 315.45,1499.62 306.19,1492.12 297.01,1484.48 287.9,1476.69 278.86,1468.74 269.89,1460.66 268.24,1459.15 266.58,1457.61 264.92,1456.06 263.25,1454.5 261.58,1452.93 259.92,1451.34 258.26,1449.75 256.61,1448.16 254.96,1446.56 253.32,1444.96 251.69,1443.35 250.08,1441.76 248.48,1440.16 246.91,1438.57 245.34,1437 243.8,1435.43 241.46,1433.01 239.01,1430.41 236.45,1427.66 233.8,1424.75 231.07,1421.71 228.26,1418.54 225.38,1415.24 222.44,1411.85 219.46,1408.35 216.42,1404.77 213.36,1401.11 210.26,1397.39 207.16,1393.61 204.04,1389.79 200.91,1385.93 197.8,1382.05 194.7,1378.16 191.63,1374.26 188.59,1370.37 185.59,1366.51 182.65,1362.67 179.76,1358.87 176.93,1355.12 174.18,1351.43 171.52,1347.81 168.94,1344.28 166.46,1340.84 164.11,1337.5 161.85,1334.28 159.73,1331.17 157.74,1328.21 155.89,1325.39 154.75,1323.59 153.63,1321.8 152.52,1320 151.43,1318.2 150.34,1316.41 149.26,1314.63 148.16,1312.85 147.06,1311.09 145.93,1309.33 144.79,1307.6 143.61,1305.88 142.4,1304.17 141.15,1302.49 139.85,1300.83 138.5,1299.2 137.08,1297.59 126.91,1287.73 123.42,1283.06 120.11,1278.64 116.94,1274.46 113.9,1270.45 110.96,1266.58 108.09,1262.8 105.28,1259.06 102.49,1255.32 99.7,1251.54 96.89,1247.66 94.02,1243.65 91.09,1239.46 88.06,1235.05 84.9,1230.37 81.6,1225.37 78.13,1220.01 28.98,1135.62 56.52,1223.2 58.77,1228.6 60.94,1233.83 63.04,1238.89 65.06,1243.79 67.01,1248.55 68.91,1253.18 70.76,1257.69 72.57,1262.1 74.36,1266.41 76.12,1270.64 77.86,1274.8 79.6,1278.9 81.34,1282.95 83.09,1286.97 84.87,1290.97 86.66,1294.96 88.5,1298.96 90.37,1302.96 92.3,1307 94.3,1311.08 96.35,1315.21 98.49,1319.4 100.71,1323.67 103.02,1328.02 105.44,1332.48 107.97,1337.04 110.61,1341.74 113.39,1346.57 116.3,1351.54 119.35,1356.69 122.56,1362 125.92,1367.5 126.89,1369.11 127.93,1370.86 129.01,1372.73 130.14,1374.7 131.31,1376.73 132.49,1378.81 133.7,1380.91 134.93,1383 136.16,1385.07 137.39,1387.07 138.6,1389.01 139.8,1390.83 140.97,1392.52 142.11,1394.07 143.2,1395.43 144.24,1396.59 145.45,1396.98 147.36,1398.27 149.87,1400.35 152.91,1403.08 156.36,1406.38 160.12,1410.1 164.11,1414.13 168.22,1418.37 172.35,1422.68 176.41,1426.96 180.3,1431.07 183.93,1434.91 187.18,1438.37 189.98,1441.31 192.21,1443.62 193.78,1445.19 197.11,1448.37 200.44,1451.54 203.8,1454.7 207.15,1457.85 210.52,1461 213.91,1464.13 217.33,1467.25 220.76,1470.36 224.22,1473.46 227.72,1476.54 231.24,1479.61 234.81,1482.67 238.41,1485.72 242.06,1488.75 245.76,1491.77 249.5,1494.77 261.86,1504.44 274.34,1513.88 286.93,1523.09 299.64,1532.09 312.48,1540.85 325.43,1549.38 338.5,1557.67 351.7,1565.74 365.03,1573.56 378.48,1581.14 392.07,1588.48 405.78,1595.58 419.63,1602.43 433.61,1609.03 447.74,1615.38 462,1621.48 476.4,1627.32 490.94,1632.9 505.63,1638.23 520.46,1643.29 535.44,1648.09 550.57,1652.62 565.85,1656.88 581.28,1660.87 596.87,1664.59 612.61,1668.03 628.51,1671.2 644.57,1674.09 660.8,1676.69 677.19,1679 693.74,1681.04 710.46,1682.78 726.22,1684.12 742.07,1685.16 757.98,1685.91 773.97,1686.35 790.01,1686.5 806.09,1686.35 822.21,1685.91 838.35,1685.19 854.5,1684.17 870.65,1682.85 886.8,1681.26 902.92,1679.39 919,1677.22 935.06,1674.78 951.05,1672.06 966.98,1669.06 982.83,1665.78 998.6,1662.23 1014.28,1658.41 1029.84,1654.31 1045.29,1649.95 1060.6,1645.31 1075.78,1640.41 1090.8,1635.25 1105.67,1629.82 1120.36,1624.13 1134.86,1618.19 1149.17,1611.98 1163.28,1605.52 1177.17,1598.8 1190.82,1591.83 1204.24,1584.61 1209.67,1581.6 1215.04,1578.59 1220.37,1575.59 1225.64,1572.58 1230.87,1569.58 1236.06,1566.57 1241.2,1563.55 1246.3,1560.53 1251.36,1557.49 1256.39,1554.45 1261.37,1551.39 1266.32,1548.32 1271.23,1545.23 1276.12,1542.12 1280.97,1538.99 1285.79,1535.83 1290.59,1532.66 1295.37,1529.46 1300.11,1526.22 1304.83,1522.97 1309.53,1519.67 1314.21,1516.35 1318.87,1512.99 1323.52,1509.59 1328.15,1506.15 1332.77,1502.67 1337.38,1499.15 1341.97,1495.59 1346.56,1491.97 1351.14,1488.31 1355.71,1484.6 1360.28,1480.84 1366.24,1475.85 1372.23,1470.74 1378.25,1465.51 1384.28,1460.17 1390.34,1454.71 1396.42,1449.16 1402.49,1443.5 1408.56,1437.76 1414.63,1431.91 1420.68,1425.99 1426.72,1419.98 1432.72,1413.89 1438.7,1407.73 1444.64,1401.51 1450.54,1395.22 1456.39,1388.87 1462.19,1382.48 1467.92,1376.03 1473.59,1369.54 1479.18,1363 1484.7,1356.44 1490.13,1349.84 1495.47,1343.22 1500.71,1336.57 1505.85,1329.91 1510.89,1323.24 1515.8,1316.56 1520.6,1309.87 1525.28,1303.19 1529.81,1296.52 1534.21,1289.86 1538.47,1283.21 1544.06,1274.29 1549.56,1265.37 1554.97,1256.46 1560.3,1247.54 1565.54,1238.61 1570.7,1229.68 1575.76,1220.71 1580.74,1211.72 1585.63,1202.69 1590.42,1193.61 1595.12,1184.49 1599.73,1175.31 1604.24,1166.07 1608.67,1156.76 1612.99,1147.37 1617.22,1137.9 1621.35,1128.35 1625.39,1118.69 1629.32,1108.93 1633.16,1099.06 1636.9,1089.07 1640.54,1078.97 1644.07,1068.73 1647.51,1058.36 1650.85,1047.84 1654.07,1037.18 1657.2,1026.35 1660.22,1015.37 1663.13,1004.22 1665.94,992.89 1668.64,981.37 1671.23,969.67 1673.76,957.5 1676.13,945.35 1678.32,933.2 1680.34,921.07 1682.2,908.96 1683.89,896.86 1685.42,884.78 1686.78,872.71 1687.97,860.66 1689.01,848.63 1689.88,836.61 1690.59,824.63 1691.14,812.66 1691.54,800.72 1691.77,788.8 1691.85,776.91 1691.78,765.05 1691.55,753.21 1691.16,741.41 1690.63,729.63 1689.94,717.88 1689.1,706.17 1688.11,694.48 1686.98,682.83 1685.69,671.22 1684.26,659.65 1682.69,648.11 1680.96,636.6 1679.1,625.14 1677.09,613.72 1674.94,602.34 1672.66,591 1670.76,582.07 1668.78,573.25 1666.74,564.54 1664.62,555.92 1662.44,547.4 1660.19,538.96 1657.87,530.62 1655.47,522.35 1653,514.17 1650.47,506.06 1647.87,498.01 1645.19,490.02 1642.43,482.09 1639.61,474.23 1636.71,466.41 1633.75,458.63 1630.7,450.89 1627.58,443.19 1624.39,435.53 1621.12,427.89 1617.78,420.27 1614.37,412.67 1610.87,405.08 1607.3,397.5 1603.66,389.93 1599.93,382.36 1596.14,374.78 1592.26,367.19 1588.31,359.59 1584.28,351.97 1580.17,344.33 1575.98,336.67 1575.04,335.02 1573.91,333.18 1572.63,331.15 1571.24,328.99 1569.77,326.73 1568.26,324.4 1566.76,322.03 1565.29,319.66 1563.9,317.33 1562.61,315.06 1561.48,312.91 1560.53,310.89 1559.8,309.05 1559.33,307.41 1559.16,306.02 1559.32,304.9 1485.28,226.94 1483.55,225.24 1481.65,223.43 1479.59,221.52 1477.38,219.5 1475.04,217.39 1472.58,215.21 1470,212.96 1467.31,210.64 1464.54,208.26 1461.68,205.84 1458.75,203.38 1455.75,200.89 1452.71,198.37 1449.62,195.84 1446.5,193.31 1443.36,190.77 1440.22,188.25 1437.07,185.74 1433.93,183.26 1430.81,180.81 1427.72,178.41 1424.68,176.06 1421.69,173.77 1418.76,171.55 1415.9,169.39 1413.13,167.33 1410.44,165.35 1407.87,163.48 1405.41,161.71 1403.07,160.06 1400.87,158.54 1398.81,157.14 1392.8,153.14 1386.75,149.15 1380.67,145.19 1374.57,141.24 1368.43,137.32 1362.26,133.43 1356.06,129.57 1349.83,125.74 1343.56,121.94 1337.27,118.18 1330.94,114.46 1324.59,110.78 1318.2,107.15 1311.78,103.56 1305.34,100.02 1298.86,96.54 1292.35,93.11 1285.81,89.73 1279.24,86.41 1272.64,83.16 1266,79.96 1259.34,76.83 1252.65,73.78 1245.92,70.8 1239.17,67.88 1232.38,65.05 1225.56,62.29 1218.71,59.61 1211.83,57.02 1204.93,54.51 1197.99,52.09 1191.02,49.77 1184.55,47.67 1178.11,45.61 1171.7,43.6 1165.3,41.63 1158.93,39.7 1152.56,37.81 1146.23,35.97 1139.9,34.17 1133.6,32.41 1127.3,30.7 1121.02,29.02 1114.75,27.39 1108.49,25.81 1102.24,24.27 1095.99,22.77 1089.75,21.32 1083.52,19.92 1077.29,18.56 1071.06,17.24 1064.83,15.98 1058.6,14.76 1052.37,13.58 1046.15,12.45 1039.91,11.37 1033.67,10.33 1027.42,9.35 1021.17,8.41 1014.9,7.52 1008.63,6.68 1002.34,5.88 996.04,5.14 989.73,4.44 949.73,1.22 946.69,1.06 943.63,0.91 940.58,0.77 937.52,0.64 934.45,0.52 931.38,0.42 928.3,0.33 925.22,0.24 922.13,0.18 919.03,0.11 915.93,0.07 912.82,0.04 909.7,0.01 906.58,0 903.45,0 900.31,0.02 897.17,0.04 894.01,0.08 890.85,0.13 887.69,0.18 884.51,0.26 881.33,0.34 878.14,0.44 874.94,0.55 871.73,0.67 868.51,0.8 865.29,0.94 862.05,1.1 858.81,1.27 855.56,1.45 852.3,1.65 849.03,1.85 845.07,2.11 841.1,2.39 837.1,2.68 833.08,2.98 829.05,3.31 825,3.65 820.93,4 816.84,4.37 812.75,4.75 808.65,5.15 804.54,5.57 800.43,6 796.31,6.46 792.19,6.93 788.07,7.41 783.96,7.92 779.85,8.44 775.74,8.98 771.65,9.54 767.57,10.12 763.5,10.72 759.44,11.34 755.41,11.98 751.39,12.64 747.39,13.32 743.42,14.02 739.47,14.74 735.54,15.49 731.65,16.25 727.78,17.04 723.95,17.84 720.15,18.67 718.07,19.12 715.33,19.68 712.02,20.35 708.24,21.12 704.09,22 699.67,22.95 695.07,24 690.4,25.11 685.75,26.3 681.21,27.54 676.89,28.85 672.88,30.2 669.28,31.59 666.19,33.01 663.7,34.47 "/>
     <polygon class="fil2" points="144.24,1396.59 149.27,1404.62 154.51,1412.67 159.94,1420.74 165.58,1428.81 171.4,1436.88 177.39,1444.94 183.56,1452.99 189.88,1461.02 196.37,1469.03 202.99,1477 209.75,1484.93 216.64,1492.81 223.65,1500.65 230.78,1508.42 238,1516.12 245.33,1523.75 252.74,1531.3 260.23,1538.76 267.8,1546.14 275.42,1553.41 283.11,1560.58 290.84,1567.63 298.61,1574.56 306.41,1581.36 314.23,1588.03 322.07,1594.56 329.91,1600.95 337.76,1607.18 345.59,1613.25 353.4,1619.15 361.19,1624.88 368.94,1630.42 377.43,1636.33 386.02,1642.19 394.74,1648 403.58,1653.75 412.54,1659.43 421.63,1665.04 430.84,1670.59 440.17,1676.05 449.63,1681.44 459.23,1686.74 468.95,1691.94 478.81,1697.07 488.79,1702.09 498.92,1707 509.17,1711.82 519.56,1716.52 530.09,1721.11 540.76,1725.59 551.57,1729.94 562.52,1734.17 573.62,1738.26 584.85,1742.22 596.24,1746.04 607.76,1749.72 619.44,1753.25 631.27,1756.63 643.25,1759.86 655.37,1762.92 667.65,1765.83 680.09,1768.56 692.69,1771.12 705.44,1773.5 709.06,1774.16 712.71,1774.82 716.4,1775.5 720.12,1776.18 723.87,1776.87 727.65,1777.56 731.46,1778.25 735.3,1778.94 739.16,1779.63 743.05,1780.31 746.96,1780.98 750.9,1781.64 754.86,1782.29 758.85,1782.92 762.86,1783.54 766.89,1784.13 814.44,1788.81 827.89,1789.32 841.19,1789.66 854.33,1789.83 867.35,1789.84 880.25,1789.69 893.02,1789.36 905.69,1788.87 918.25,1788.22 930.72,1787.4 943.1,1786.41 955.4,1785.26 967.63,1783.93 979.79,1782.44 991.9,1780.79 1003.96,1778.96 1015.98,1776.96 1027.97,1774.8 1039.94,1772.46 1051.89,1769.95 1063.82,1767.28 1075.76,1764.43 1087.7,1761.41 1099.66,1758.22 1111.65,1754.86 1123.66,1751.33 1135.71,1747.63 1147.81,1743.74 1159.96,1739.69 1172.18,1735.46 1184.46,1731.06 1196.82,1726.49 1209.27,1721.74 1220.26,1717.37 1231.25,1712.74 1242.24,1707.88 1253.22,1702.79 1264.2,1697.46 1275.16,1691.92 1286.09,1686.17 1296.99,1680.21 1307.85,1674.06 1318.67,1667.71 1329.43,1661.18 1340.14,1654.47 1350.78,1647.59 1361.34,1640.55 1371.83,1633.35 1382.24,1626.01 1392.55,1618.52 1402.76,1610.91 1412.87,1603.16 1422.87,1595.29 1432.74,1587.31 1442.5,1579.22 1452.11,1571.03 1461.59,1562.76 1470.93,1554.39 1480.11,1545.95 1489.13,1537.45 1497.98,1528.87 1506.67,1520.24 1515.17,1511.56 1523.49,1502.85 1531.62,1494.09 1533.42,1492.12 1535.2,1490.18 1536.94,1488.26 1538.67,1486.36 1540.37,1484.48 1542.06,1482.6 1543.73,1480.73 1545.39,1478.86 1547.05,1476.98 1548.69,1475.09 1550.34,1473.18 1552,1471.25 1553.66,1469.3 1555.32,1467.31 1557,1465.28 1558.7,1463.21 1561.83,1459.36 1564.84,1455.63 1567.74,1452.04 1570.54,1448.55 1573.24,1445.16 1575.84,1441.86 1578.36,1438.65 1580.81,1435.51 1583.18,1432.43 1585.5,1429.4 1587.75,1426.41 1589.96,1423.46 1592.13,1420.54 1594.27,1417.62 1596.37,1414.71 1598.46,1411.8 1600.54,1408.86 1602.61,1405.9 1604.68,1402.91 1606.76,1399.87 1608.86,1396.78 1610.98,1393.62 1613.13,1390.39 1615.32,1387.07 1617.55,1383.66 1619.84,1380.15 1622.19,1376.52 1624.6,1372.78 1627.09,1368.89 1629.65,1364.86 1632.3,1360.69 1635.05,1356.34 1646.5,1337.67 1657.45,1318.7 1667.89,1299.44 1677.83,1279.9 1687.26,1260.11 1696.18,1240.07 1704.59,1219.8 1712.5,1199.31 1719.89,1178.63 1726.78,1157.76 1733.15,1136.72 1739.02,1115.52 1744.37,1094.18 1749.21,1072.72 1753.54,1051.14 1757.36,1029.47 1760.67,1007.72 1763.46,985.89 1765.74,964.02 1767.5,942.11 1768.75,920.18 1769.48,898.24 1769.7,876.3 1769.41,854.38 1768.61,832.51 1767.28,810.68 1765.44,788.92 1763.09,767.24 1760.22,745.65 1756.83,724.17 1752.92,702.82 1748.5,681.61 1746.1,671.11 1743.56,660.64 1740.89,650.22 1738.09,639.83 1735.15,629.5 1732.08,619.2 1728.88,608.95 1725.56,598.75 1722.11,588.59 1718.53,578.48 1714.83,568.42 1711,558.41 1707.06,548.44 1703,538.53 1698.81,528.67 1694.52,518.87 1690.1,509.12 1685.58,499.42 1680.94,489.78 1676.19,480.19 1671.33,470.67 1666.37,461.2 1661.3,451.79 1656.13,442.44 1650.85,433.15 1645.47,423.93 1639.99,414.77 1634.41,405.67 1628.73,396.64 1622.96,387.67 1617.1,378.77 1611.14,369.94 1609.57,367.75 1608.01,365.76 1606.46,363.89 1604.93,362.1 1603.41,360.3 1601.89,358.44 1600.38,356.44 1598.88,354.25 1559.32,304.9 1559.16,306.02 1559.33,307.41 1559.8,309.05 1560.53,310.89 1561.48,312.91 1562.61,315.06 1563.9,317.33 1565.29,319.66 1566.76,322.03 1568.26,324.4 1569.77,326.73 1571.24,328.99 1572.63,331.15 1573.91,333.18 1575.04,335.02 1575.98,336.67 1580.17,344.33 1584.28,351.97 1588.31,359.59 1592.26,367.19 1596.14,374.78 1599.93,382.36 1603.66,389.93 1607.3,397.5 1610.87,405.08 1614.37,412.67 1617.78,420.27 1621.12,427.89 1624.39,435.53 1627.58,443.19 1630.7,450.89 1633.75,458.63 1636.71,466.41 1639.61,474.23 1642.43,482.09 1645.19,490.02 1647.87,498.01 1650.47,506.06 1653,514.17 1655.47,522.35 1657.87,530.62 1660.19,538.96 1662.44,547.4 1664.62,555.92 1666.74,564.54 1668.78,573.25 1670.76,582.07 1672.66,591 1674.94,602.34 1677.09,613.72 1679.1,625.14 1680.96,636.6 1682.69,648.11 1684.26,659.65 1685.69,671.22 1686.98,682.83 1688.11,694.48 1689.1,706.17 1689.94,717.88 1690.63,729.63 1691.16,741.41 1691.55,753.21 1691.78,765.05 1691.85,776.91 1691.77,788.8 1691.54,800.72 1691.14,812.66 1690.59,824.63 1689.88,836.61 1689.01,848.63 1687.97,860.66 1686.78,872.71 1685.42,884.78 1683.89,896.86 1682.2,908.96 1680.34,921.07 1678.32,933.2 1676.13,945.35 1673.76,957.5 1671.23,969.67 1668.64,981.37 1665.94,992.89 1663.13,1004.22 1660.22,1015.37 1657.2,1026.35 1654.07,1037.18 1650.85,1047.84 1647.51,1058.36 1644.07,1068.73 1640.54,1078.97 1636.9,1089.07 1633.16,1099.06 1629.32,1108.93 1625.39,1118.69 1621.35,1128.35 1617.22,1137.9 1612.99,1147.37 1608.67,1156.76 1604.24,1166.07 1599.73,1175.31 1595.12,1184.49 1590.42,1193.61 1585.63,1202.69 1580.74,1211.72 1575.76,1220.71 1570.7,1229.68 1565.54,1238.61 1560.3,1247.54 1554.97,1256.46 1549.56,1265.37 1544.06,1274.29 1538.47,1283.21 1534.21,1289.86 1529.81,1296.52 1525.28,1303.19 1520.6,1309.87 1515.8,1316.56 1510.89,1323.24 1505.85,1329.91 1500.71,1336.57 1495.47,1343.22 1490.13,1349.84 1484.7,1356.44 1479.18,1363 1473.59,1369.54 1467.92,1376.03 1462.19,1382.48 1456.39,1388.87 1450.54,1395.22 1444.64,1401.51 1438.7,1407.73 1432.72,1413.89 1426.72,1419.98 1420.68,1425.99 1414.63,1431.91 1408.56,1437.76 1402.49,1443.5 1396.42,1449.16 1390.34,1454.71 1384.28,1460.17 1378.25,1465.51 1372.23,1470.74 1366.24,1475.85 1360.28,1480.84 1355.71,1484.6 1351.14,1488.31 1346.56,1491.97 1341.97,1495.59 1337.38,1499.15 1332.77,1502.67 1328.15,1506.15 1323.52,1509.59 1318.87,1512.99 1314.21,1516.35 1309.53,1519.67 1304.83,1522.97 1300.11,1526.22 1295.37,1529.46 1290.59,1532.66 1285.79,1535.83 1280.97,1538.99 1276.12,1542.12 1271.23,1545.23 1266.32,1548.32 1261.37,1551.39 1256.39,1554.45 1251.36,1557.49 1246.3,1560.53 1241.2,1563.55 1236.06,1566.57 1230.87,1569.58 1225.64,1572.58 1220.37,1575.59 1215.04,1578.59 1209.67,1581.6 1204.24,1584.61 1190.82,1591.83 1177.17,1598.8 1163.28,1605.52 1149.17,1611.98 1134.86,1618.19 1120.36,1624.13 1105.67,1629.82 1090.8,1635.25 1075.78,1640.41 1060.6,1645.31 1045.29,1649.95 1029.84,1654.31 1014.28,1658.41 998.6,1662.23 982.83,1665.78 966.98,1669.06 951.05,1672.06 935.06,1674.78 919,1677.22 902.92,1679.39 886.8,1681.26 870.65,1682.85 854.5,1684.17 838.35,1685.19 822.21,1685.91 806.09,1686.35 790.01,1686.5 773.97,1686.35 757.98,1685.91 742.07,1685.16 726.22,1684.12 710.46,1682.78 693.74,1681.04 677.19,1679 660.8,1676.69 644.57,1674.09 628.51,1671.2 612.61,1668.03 596.87,1664.59 581.28,1660.87 565.85,1656.88 550.57,1652.62 535.44,1648.09 520.46,1643.29 505.63,1638.23 490.94,1632.9 476.4,1627.32 462,1621.48 447.74,1615.38 433.61,1609.03 419.63,1602.43 405.78,1595.58 392.07,1588.48 378.48,1581.14 365.03,1573.56 351.7,1565.74 338.5,1557.67 325.43,1549.38 312.48,1540.85 299.64,1532.09 286.93,1523.09 274.34,1513.88 261.86,1504.44 249.5,1494.77 245.76,1491.77 242.06,1488.75 238.41,1485.72 234.81,1482.67 231.24,1479.61 227.72,1476.54 224.22,1473.46 220.76,1470.36 217.33,1467.25 213.91,1464.13 210.52,1461 207.15,1457.85 203.8,1454.7 200.44,1451.54 197.11,1448.37 193.78,1445.19 192.21,1443.62 189.98,1441.31 187.18,1438.37 183.93,1434.91 180.3,1431.07 176.41,1426.96 172.35,1422.68 168.22,1418.37 164.11,1414.13 160.12,1410.1 156.36,1406.38 152.91,1403.08 149.87,1400.35 147.36,1398.27 145.45,1396.98 "/>
     <polygon class="fil2" points="661.91,35.94 659.88,35.71 657.29,35.8 654.18,36.18 650.58,36.85 646.54,37.77 642.09,38.94 637.26,40.34 632.1,41.95 626.64,43.74 620.93,45.7 614.99,47.81 608.87,50.05 602.6,52.4 596.22,54.85 589.78,57.37 583.3,59.95 576.82,62.57 570.39,65.2 564.04,67.84 557.8,70.46 551.71,73.05 545.82,75.57 540.16,78.02 534.76,80.39 529.67,82.64 524.93,84.76 520.56,86.73 516.6,88.54 513.1,90.15 510.09,91.57 507.61,92.76 505.7,93.71 501.74,95.75 497.67,97.86 493.52,100.04 489.29,102.28 484.98,104.59 480.61,106.97 476.18,109.39 471.7,111.87 467.18,114.41 462.62,116.99 458.04,119.61 453.43,122.27 448.81,124.98 444.2,127.7 439.57,130.46 434.97,133.25 430.37,136.07 425.81,138.9 421.28,141.75 416.79,144.61 412.35,147.48 407.96,150.35 403.64,153.23 399.39,156.11 395.22,158.98 391.13,161.85 387.15,164.71 383.26,167.55 379.47,170.37 375.81,173.18 372.27,175.96 368.86,178.71 264.45,268.89 255.34,277.71 246.25,286.96 237.2,296.59 228.19,306.6 219.24,316.96 210.35,327.65 201.55,338.64 192.83,349.92 184.22,361.47 175.72,373.26 167.33,385.27 159.08,397.48 150.97,409.87 143.02,422.41 135.23,435.1 127.62,447.9 120.19,460.8 112.96,473.76 105.94,486.78 99.14,499.82 92.57,512.88 86.23,525.93 80.15,538.93 74.33,551.89 68.78,564.77 63.52,577.55 58.54,590.21 53.88,602.74 49.53,615.09 45.51,627.28 41.82,639.25 38.48,651 15,748.43 14.69,749.98 14.42,751.52 14.18,753.06 13.98,754.59 13.79,756.11 13.62,757.64 13.46,759.16 13.31,760.68 13.15,762.2 12.98,763.73 12.79,765.26 12.59,766.79 12.35,768.33 12.09,769.88 11.78,771.44 11.43,773.01 11.18,774.04 10.94,775.16 10.68,776.34 10.43,777.59 10.17,778.9 9.91,780.26 9.65,781.69 9.38,783.16 9.12,784.69 8.85,786.26 8.59,787.87 8.32,789.53 8.06,791.22 7.79,792.96 7.53,794.72 7.27,796.51 2.34,842.98 2.26,844.64 2.19,846.24 2.14,847.76 2.1,849.21 2.08,850.59 2.07,851.88 2.09,853.09 2.13,854.2 2.22,857.2 2.27,860.32 2.28,863.54 2.24,866.82 2.17,870.18 2.06,873.58 1.93,877.02 1.78,880.46 1.6,883.92 1.42,887.35 1.22,890.76 1.02,894.12 0.81,897.41 0.61,900.63 0.42,903.76 0.24,906.77 0.09,909.64 0.02,912.59 0,915.64 0.03,918.75 0.09,921.92 0.2,925.13 0.33,928.37 0.48,931.62 0.65,934.87 0.82,938.11 1,941.33 1.18,944.5 1.34,947.63 1.48,950.68 1.61,953.65 1.7,956.54 1.83,960.78 2.04,965.28 2.3,970.04 2.63,975.02 3.02,980.21 3.46,985.6 3.95,991.17 4.51,996.89 5.11,1002.75 5.76,1008.74 6.46,1014.83 7.21,1021.02 8,1027.26 8.84,1033.57 9.71,1039.91 10.63,1046.26 11.57,1052.61 12.56,1058.95 13.58,1065.24 14.63,1071.48 15.71,1077.65 16.81,1083.73 17.95,1089.7 19.1,1095.55 20.28,1101.25 21.48,1106.78 22.7,1112.14 23.93,1117.31 25.18,1122.25 26.44,1126.97 27.71,1131.43 28.98,1135.62 78.13,1220.01 81.6,1225.37 84.9,1230.37 88.06,1235.05 91.09,1239.46 94.02,1243.65 96.89,1247.66 99.7,1251.54 102.49,1255.32 105.28,1259.06 108.09,1262.8 110.96,1266.58 113.9,1270.45 116.94,1274.46 120.11,1278.64 123.42,1283.06 126.91,1287.73 137.08,1297.59 136.18,1295.35 135.19,1293.01 134.11,1290.57 132.95,1288.04 131.71,1285.41 130.4,1282.69 129.02,1279.87 127.56,1276.96 126.05,1273.96 124.48,1270.88 122.86,1267.72 121.19,1264.46 119.46,1261.12 117.7,1257.7 115.91,1254.2 114.07,1250.61 112.2,1246.96 110.31,1243.22 108.41,1239.41 106.47,1235.52 104.53,1231.57 102.57,1227.54 100.61,1223.44 98.65,1219.28 96.69,1215.05 94.73,1210.75 92.79,1206.39 90.85,1201.97 88.94,1197.49 87.05,1192.94 85.19,1188.35 83.35,1183.69 74.04,1158.32 65.7,1132.67 58.33,1106.77 51.91,1080.64 46.45,1054.33 41.94,1027.84 38.37,1001.24 35.73,974.52 34.03,947.74 33.25,920.91 33.39,894.07 34.45,867.26 36.42,840.48 39.29,813.8 43.06,787.21 47.73,760.76 53.28,734.48 59.72,708.41 67.04,682.56 75.22,656.97 84.29,631.66 94.21,606.68 104.99,582.05 116.63,557.79 129.11,533.94 142.44,510.53 156.61,487.6 171.62,465.16 187.45,443.25 204.11,421.91 221.6,401.15 239.9,381.02 242.74,378.03 245.53,375.1 248.29,372.22 251.02,369.39 253.72,366.6 256.41,363.85 259.08,361.13 261.74,358.43 264.4,355.75 267.06,353.07 269.72,350.41 272.39,347.74 275.07,345.07 277.78,342.38 280.5,339.67 283.26,336.94 286,334.34 288.94,331.74 292.01,329.15 295.17,326.57 298.33,324.02 301.46,321.5 304.49,319.03 307.35,316.6 310.46,313.93 313.31,311.53 316.01,309.27 318.69,307.06 321.46,304.75 324.43,302.26 327.74,299.46 331.48,296.24 333.71,294.34 336.12,292.36 338.69,290.31 341.42,288.2 344.28,286.02 347.27,283.8 350.39,281.53 353.61,279.22 356.94,276.87 360.34,274.5 363.82,272.11 367.37,269.7 370.97,267.28 374.61,264.86 378.28,262.44 381.97,260.04 385.67,257.65 389.36,255.28 393.05,252.94 396.7,250.64 400.33,248.39 403.9,246.17 407.42,244.01 410.87,241.91 414.24,239.88 417.51,237.92 420.68,236.04 423.74,234.25 426.67,232.54 429.48,230.94 432.13,229.44 434.62,228.05 446.15,221.8 457.77,215.74 469.48,209.88 481.27,204.23 493.16,198.78 505.13,193.53 517.19,188.48 529.33,183.65 541.55,179.02 553.85,174.6 566.23,170.4 578.69,166.41 591.24,162.63 603.85,159.07 616.55,155.74 629.31,152.62 642.16,149.73 655.07,147.06 668.06,144.62 681.11,142.41 694.24,140.43 707.43,138.67 720.68,137.16 734,135.88 747.39,134.83 760.85,134.03 774.35,133.47 787.93,133.15 801.57,133.07 815.26,133.24 829,133.66 842.81,134.32 859.72,135.48 876.53,137.02 893.24,138.92 909.85,141.19 926.35,143.83 942.73,146.82 959,150.18 975.15,153.89 991.17,157.95 1007.06,162.37 1022.81,167.13 1038.42,172.23 1053.89,177.67 1069.21,183.46 1084.38,189.57 1099.39,196.01 1114.24,202.79 1128.92,209.89 1143.44,217.31 1157.77,225.04 1171.93,233.1 1185.91,241.47 1199.69,250.14 1213.29,259.13 1226.69,268.41 1239.88,278 1252.88,287.88 1265.66,298.06 1278.23,308.52 1290.57,319.28 1302.7,330.32 1314.59,341.64 1316.14,343.16 1317.63,344.65 1319.07,346.11 1320.48,347.55 1321.85,348.97 1323.21,350.38 1324.57,351.76 1325.92,353.14 1327.29,354.52 1328.67,355.9 1330.1,357.27 1331.57,358.65 1333.09,360.04 1334.68,361.45 1336.34,362.87 1338.09,364.31 1332.98,354.17 1332.19,352.91 1331.43,351.67 1330.67,350.45 1329.91,349.25 1329.14,348.06 1328.35,346.86 1327.52,345.66 1326.66,344.44 1323.38,339.91 1320.18,335.54 1317.07,331.3 1314.03,327.2 1311.06,323.22 1308.15,319.37 1305.29,315.6 1302.48,311.94 1299.69,308.37 1296.93,304.88 1294.18,301.45 1291.44,298.08 1288.71,294.76 1285.96,291.49 1283.2,288.24 1280.42,285.02 1277.6,281.81 1274.74,278.61 1271.83,275.4 1268.86,272.18 1265.82,268.93 1262.71,265.65 1259.52,262.33 1256.23,258.95 1252.85,255.52 1249.35,252.02 1245.74,248.43 1242.01,244.76 1238.14,240.99 1234.13,237.12 1229.97,233.13 1225.65,229.02 1221.85,225.44 1217.99,221.87 1214.07,218.31 1210.11,214.78 1206.08,211.25 1202,207.74 1197.86,204.24 1193.67,200.77 1189.43,197.3 1185.14,193.85 1180.8,190.42 1176.4,187 1171.94,183.61 1167.45,180.23 1162.9,176.87 1158.3,173.52 1153.66,170.2 1148.97,166.89 1144.22,163.61 1139.43,160.34 1134.6,157.09 1129.72,153.87 1124.79,150.66 1119.82,147.48 1114.8,144.31 1109.74,141.18 1104.64,138.05 1099.49,134.96 1094.31,131.89 1089.07,128.83 1083.8,125.81 1078.49,122.81 1068.22,117.2 1057.61,111.7 1046.67,106.3 1035.41,101.02 1023.86,95.87 1012.03,90.85 999.93,85.98 987.59,81.26 975.02,76.69 962.25,72.3 949.28,68.09 936.13,64.06 922.81,60.22 909.36,56.59 895.78,53.18 882.09,49.98 868.3,47.02 854.44,44.29 840.53,41.81 826.57,39.59 812.58,37.63 798.59,35.94 784.61,34.53 770.65,33.41 756.74,32.6 742.88,32.09 729.09,31.89 715.41,32.02 701.83,32.48 688.37,33.28 675.06,34.43 "/>
    </g>
   </g>
   <g>
    <polygon class="fil1" points="129.92,929.89 131.17,937.64 133.15,944.48 135.83,950.46 139.16,955.6 143.09,959.96 147.58,963.57 152.59,966.48 158.07,968.73 163.98,970.36 170.27,971.4 176.9,971.9 183.83,971.91 191,971.45 198.38,970.58 205.93,969.33 213.59,967.75 221.32,965.88 229.08,963.74 236.83,961.4 244.52,958.89 252.1,956.25 259.53,953.52 266.77,950.74 273.78,947.96 280.5,945.22 286.89,942.54 292.91,939.99 298.52,937.59 303.67,935.4 308.31,933.45 312.4,931.78 315.89,930.44 316,934.64 316.04,939.47 316.04,944.91 315.97,950.89 315.85,957.38 315.69,964.34 315.48,971.72 315.22,979.48 314.92,987.57 314.57,995.96 314.19,1004.6 313.77,1013.44 313.31,1022.45 312.81,1031.59 312.29,1040.8 311.74,1050.04 311.16,1059.28 310.56,1068.47 309.93,1077.56 309.27,1086.52 308.6,1095.3 307.91,1103.85 307.21,1112.15 306.49,1120.12 305.76,1127.75 305.02,1135 304.27,1141.8 303.52,1148.11 302.77,1153.91 302,1159.14 301.25,1163.76 300.49,1167.73 299.73,1171.26 298.93,1174.7 298.09,1178.07 297.2,1181.35 296.28,1184.57 295.33,1187.7 294.33,1190.77 293.3,1193.79 292.24,1196.73 291.14,1199.63 290.01,1202.47 288.85,1205.26 287.65,1208.01 286.43,1210.71 285.18,1213.38 283.89,1216.02 282.59,1218.62 281.25,1221.2 279.89,1223.75 278.5,1226.28 277.09,1228.81 275.65,1231.31 274.2,1233.81 272.72,1236.31 271.22,1238.8 269.69,1241.3 268.15,1243.81 266.59,1246.33 265.02,1248.86 263.43,1251.41 261.82,1253.97 260.2,1256.57 258.83,1258.82 257.43,1261.21 256.03,1263.73 254.62,1266.37 253.2,1269.13 251.8,1272 250.4,1274.97 249.02,1278.02 247.66,1281.16 246.33,1284.37 245.03,1287.66 243.77,1291 242.56,1294.4 241.39,1297.83 240.28,1301.31 239.24,1304.82 238.26,1308.35 237.36,1311.89 236.54,1315.43 235.8,1318.98 235.16,1322.51 234.61,1326.02 234.16,1329.51 233.82,1332.97 233.6,1336.38 233.49,1339.75 233.52,1343.06 233.67,1346.3 233.96,1349.47 234.39,1352.56 234.97,1355.56 235.71,1358.47 237.63,1360.51 239.67,1362.54 241.85,1364.56 244.14,1366.55 246.55,1368.52 249.07,1370.46 251.7,1372.38 254.43,1374.26 257.26,1376.09 260.18,1377.89 263.2,1379.64 266.28,1381.34 269.46,1382.99 272.71,1384.58 276.02,1386.11 279.41,1387.58 282.85,1388.97 286.34,1390.3 289.89,1391.56 293.48,1392.73 297.11,1393.81 300.78,1394.82 304.48,1395.74 308.2,1396.56 311.96,1397.28 315.72,1397.9 319.5,1398.42 323.29,1398.83 327.08,1399.12 330.87,1399.3 334.65,1399.36 338.42,1399.3 346.75,1398.74 353.89,1397.67 359.93,1396.09 364.94,1394.02 368.98,1391.48 372.15,1388.48 374.51,1385.04 376.14,1381.17 377.12,1376.88 377.52,1372.18 377.42,1367.1 376.89,1361.65 376.02,1355.83 374.87,1349.68 373.53,1343.19 372.06,1336.39 370.56,1329.28 369.07,1321.89 367.71,1314.23 366.52,1306.31 365.59,1298.14 365,1289.74 364.81,1281.13 365.12,1272.31 365.99,1263.31 367.5,1254.13 369.72,1244.79 372.74,1235.3 376.62,1225.69 381.44,1215.95 387.29,1206.11 394.23,1196.19 396.13,1193.7 398.04,1191.26 399.96,1188.85 401.89,1186.49 403.84,1184.15 405.8,1181.85 407.76,1179.57 409.75,1177.31 411.74,1175.06 413.75,1172.83 415.78,1170.61 417.81,1168.39 419.87,1166.17 421.93,1163.95 424.01,1161.72 426.11,1159.48 428.22,1157.22 430.34,1154.94 432.49,1152.65 434.65,1150.32 436.82,1147.96 439.01,1145.56 441.22,1143.13 443.45,1140.65 445.7,1138.12 447.96,1135.54 450.24,1132.91 452.54,1130.22 454.85,1127.45 457.19,1124.63 459.55,1121.73 461.93,1118.76 464.85,1118.82 467.96,1118.91 471.25,1119.03 474.7,1119.18 478.3,1119.35 482.03,1119.54 485.89,1119.74 489.85,1119.96 493.91,1120.19 498.04,1120.43 502.24,1120.67 506.5,1120.92 510.8,1121.16 515.12,1121.4 519.45,1121.63 523.78,1121.86 528.09,1122.07 532.37,1122.27 536.61,1122.44 540.8,1122.6 544.91,1122.73 548.94,1122.84 552.87,1122.91 556.69,1122.95 560.37,1122.96 563.92,1122.92 567.32,1122.85 570.56,1122.72 573.6,1122.56 576.45,1122.35 579.1,1122.07 581.52,1121.74 584.59,1121.24 587.67,1120.7 590.76,1120.13 593.87,1119.52 596.98,1118.88 600.09,1118.21 603.21,1117.52 606.33,1116.8 609.46,1116.07 612.6,1115.32 615.73,1114.55 618.87,1113.78 622.01,1113 625.15,1112.21 628.29,1111.42 631.42,1110.64 634.56,1109.85 637.69,1109.07 640.81,1108.31 643.93,1107.56 647.04,1106.83 650.15,1106.11 653.25,1105.42 656.34,1104.75 659.43,1104.11 662.5,1103.5 665.56,1102.93 668.6,1102.39 671.64,1101.9 674.66,1101.44 677.67,1101.04 680.66,1100.67 681,1101.69 681.44,1103.37 681.98,1105.67 682.59,1108.54 683.29,1111.94 684.06,1115.84 684.89,1120.18 685.77,1124.93 686.7,1130.04 687.68,1135.47 688.69,1141.17 689.73,1147.11 690.8,1153.24 691.87,1159.52 692.95,1165.91 694.03,1172.35 695.11,1178.83 696.17,1185.28 697.2,1191.66 698.22,1197.93 699.19,1204.06 700.12,1209.99 701,1215.68 701.83,1221.1 702.59,1226.19 703.28,1230.92 703.89,1235.24 704.42,1239.12 704.86,1242.5 705.19,1245.35 705.42,1247.61 705.54,1249.26 705.69,1254.81 705.64,1260.28 705.4,1265.68 705,1271 704.44,1276.26 703.72,1281.46 702.87,1286.61 701.9,1291.71 700.8,1296.77 699.6,1301.79 698.31,1306.78 696.94,1311.74 695.5,1316.69 694,1321.63 692.44,1326.56 690.85,1331.5 689.23,1336.43 687.6,1341.37 685.97,1346.33 684.34,1351.31 682.73,1356.33 681.15,1361.37 679.61,1366.45 678.12,1371.58 676.7,1376.77 675.35,1382.01 674.09,1387.31 672.92,1392.68 671.86,1398.13 670.92,1403.65 670.11,1409.26 669.44,1414.97 675.04,1417.53 680.32,1420.04 685.3,1422.48 690.02,1424.87 694.5,1427.19 698.76,1429.41 702.83,1431.54 706.74,1433.56 710.52,1435.47 714.19,1437.25 717.77,1438.9 721.31,1440.41 724.81,1441.76 728.31,1442.95 731.84,1443.97 735.43,1444.8 739.08,1445.44 742.85,1445.88 746.75,1446.11 750.81,1446.11 755.06,1445.88 759.52,1445.41 764.22,1444.69 769.18,1443.71 774.44,1442.46 780.02,1440.93 785.95,1439.11 792.25,1436.98 798.96,1434.55 806.09,1431.8 813.68,1428.72 821.75,1425.3 821.91,1423.67 821.99,1421.59 821.98,1419.11 821.89,1416.24 821.72,1413 821.49,1409.43 821.19,1405.54 820.83,1401.36 820.43,1396.91 819.97,1392.23 819.46,1387.33 818.93,1382.24 818.35,1376.98 817.76,1371.59 817.14,1366.07 816.5,1360.47 815.86,1354.8 815.2,1349.08 814.55,1343.35 813.9,1337.62 813.26,1331.93 812.64,1326.29 812.04,1320.73 811.46,1315.28 810.91,1309.96 810.41,1304.79 809.94,1299.8 809.52,1295.02 809.15,1290.46 808.84,1286.16 808.59,1282.14 808.41,1278.42 808.22,1273.29 808.06,1268.16 807.93,1263.01 807.83,1257.85 807.77,1252.69 807.73,1247.52 807.73,1242.34 807.76,1237.15 807.81,1231.97 807.9,1226.76 808.02,1221.56 808.17,1216.35 808.35,1211.14 808.56,1205.93 808.79,1200.71 809.06,1195.49 809.35,1190.27 809.67,1185.05 810.03,1179.83 810.41,1174.61 810.82,1169.39 811.26,1164.17 811.72,1158.95 812.22,1153.74 812.74,1148.53 813.29,1143.32 813.87,1138.12 814.48,1132.92 815.11,1127.73 815.77,1122.55 816.46,1117.37 817.17,1112.2 820.37,1113.29 823.7,1114.59 827.12,1116.08 830.63,1117.77 834.2,1119.64 837.82,1121.68 841.48,1123.89 845.17,1126.25 848.85,1128.76 852.52,1131.41 856.16,1134.19 859.76,1137.09 863.3,1140.11 866.76,1143.24 870.13,1146.45 873.39,1149.76 876.52,1153.15 879.52,1156.61 882.36,1160.13 885.03,1163.7 887.5,1167.33 889.78,1170.98 891.83,1174.67 893.65,1178.38 895.21,1182.1 896.5,1185.81 897.51,1189.54 898.22,1193.24 898.61,1196.91 898.67,1200.56 898.38,1204.17 897.73,1207.73 896.26,1207.72 893.88,1207.71 890.73,1207.7 886.94,1207.7 882.64,1207.71 877.96,1207.75 873.04,1207.83 867.99,1207.95 862.96,1208.13 858.09,1208.36 853.49,1208.66 849.3,1209.05 845.65,1209.52 842.68,1210.08 840.51,1210.76 839.28,1211.54 838.85,1212.33 838.34,1213.81 837.76,1215.91 837.13,1218.61 836.48,1221.84 835.82,1225.56 835.19,1229.71 834.59,1234.27 834.05,1239.16 833.6,1244.35 833.25,1249.79 833.03,1255.43 832.95,1261.22 833.04,1267.11 833.32,1273.07 833.82,1279.02 834.55,1284.94 835.52,1290.77 836.78,1296.46 838.33,1301.96 840.21,1307.24 842.42,1312.22 844.98,1316.89 847.94,1321.17 851.31,1325.03 855.09,1328.41 859.32,1331.28 864.03,1333.57 869.22,1335.24 874.93,1336.25 881.17,1336.54 887.96,1336.06 894.48,1334.94 900.95,1333.19 907.37,1330.85 913.72,1327.96 920,1324.56 926.18,1320.68 932.26,1316.35 938.22,1311.62 944.06,1306.51 949.76,1301.07 955.3,1295.33 960.68,1289.32 965.88,1283.09 970.89,1276.66 975.7,1270.08 980.3,1263.38 984.67,1256.59 988.81,1249.77 992.69,1242.92 996.31,1236.1 999.65,1229.34 1002.71,1222.68 1005.46,1216.15 1007.91,1209.79 1010.03,1203.63 1011.81,1197.72 1013.24,1192.08 1014.31,1186.75 1015.01,1181.77 1015.32,1177.18 1015.24,1173.01 1014.74,1169.3 1013.95,1166.37 1012.78,1163.48 1011.26,1160.58 1009.41,1157.7 1007.28,1154.82 1004.89,1151.93 1002.26,1149.03 999.43,1146.11 996.43,1143.17 993.28,1140.19 990.01,1137.18 986.65,1134.12 983.23,1131 979.79,1127.83 976.34,1124.6 972.92,1121.29 969.56,1117.91 966.27,1114.44 963.11,1110.88 960.08,1107.22 957.23,1103.47 954.58,1099.59 952.15,1095.61 949.99,1091.5 948.11,1087.26 946.55,1082.89 945.33,1078.37 944.49,1073.7 944.05,1068.88 944.04,1063.9 944.49,1058.75 945.43,1053.41 945.96,1051.13 946.55,1048.87 947.19,1046.61 947.89,1044.36 948.63,1042.11 949.41,1039.87 950.22,1037.64 951.07,1035.4 951.96,1033.18 952.87,1030.94 953.8,1028.71 954.75,1026.48 955.71,1024.24 956.69,1022 957.67,1019.75 958.65,1017.49 959.63,1015.23 960.61,1012.95 961.58,1010.67 962.53,1008.37 963.47,1006.05 964.38,1003.73 965.28,1001.39 966.14,999.03 966.96,996.64 967.76,994.24 968.51,991.82 969.21,989.38 969.87,986.91 970.48,984.42 971.02,981.9 971.52,979.35 965.92,978.46 960.3,977.71 954.66,977.07 949,976.54 943.33,976.1 937.65,975.74 931.97,975.44 926.29,975.19 920.6,974.96 914.93,974.77 909.26,974.59 903.6,974.39 897.96,974.18 892.34,973.94 886.75,973.64 881.19,973.29 875.65,972.87 870.15,972.35 864.69,971.73 859.27,971.01 853.9,970.15 848.58,969.15 843.31,967.99 838.1,966.66 832.95,965.15 827.87,963.44 822.85,961.52 817.91,959.37 813.04,956.99 808.25,954.36 803.55,951.45 798.93,948.28 795.63,945.76 792.47,943.1 789.43,940.3 786.5,937.37 783.7,934.33 781,931.16 778.4,927.88 775.89,924.5 773.48,921.01 771.15,917.43 768.89,913.78 766.71,910.03 764.59,906.21 762.53,902.32 760.53,898.37 758.57,894.37 756.65,890.32 754.77,886.22 752.91,882.08 751.09,877.92 749.27,873.72 747.47,869.51 745.68,865.28 743.88,861.05 742.08,856.81 740.26,852.59 738.43,848.37 736.57,844.17 734.68,840 732.76,835.85 730.78,831.74 728.76,827.67 727.07,824.43 725.16,820.91 723.1,817.16 720.92,813.2 718.69,809.06 716.46,804.77 714.27,800.36 712.19,795.86 710.27,791.3 708.54,786.71 707.09,782.12 705.95,777.55 705.17,773.04 704.81,768.61 704.93,764.3 705.56,760.13 707.81,750.6 710.11,741.73 712.43,733.5 714.74,725.88 717.02,718.83 719.24,712.34 721.38,706.38 723.4,700.91 725.28,695.91 727,691.35 728.52,687.21 729.82,683.46 730.87,680.06 731.65,676.99 732.13,674.23 732.27,671.74 732.06,669.5 731.47,667.49 730.48,665.66 729.04,664 727.15,662.47 724.76,661.06 721.85,659.72 718.41,658.45 714.39,657.2 709.78,655.94 704.54,654.66 698.65,653.32 692.09,651.9 684.82,650.36 676.82,648.69 668.07,646.84 659.38,645.07 650.85,643.43 642.45,641.96 634.19,640.64 626.06,639.48 618.04,638.49 610.15,637.66 602.36,637.01 594.68,636.53 587.09,636.24 579.6,636.12 572.2,636.19 564.88,636.45 557.63,636.91 550.45,637.57 543.33,638.42 536.28,639.48 529.27,640.76 522.31,642.24 515.39,643.94 508.5,645.86 501.64,648 494.8,650.38 487.98,652.98 481.17,655.82 474.37,658.9 467.56,662.22 460.75,665.79 453.92,669.61 447.08,673.68 440.21,678 433.31,682.59 430.23,684.8 427.15,687.2 424.06,689.78 420.98,692.55 417.9,695.49 414.83,698.59 411.77,701.83 408.73,705.22 405.7,708.73 402.7,712.36 399.73,716.09 396.79,719.92 393.88,723.85 391.02,727.84 388.19,731.9 385.41,736.02 382.69,740.18 380.01,744.38 377.39,748.61 374.84,752.84 372.35,757.08 369.93,761.32 367.57,765.54 365.3,769.73 363.11,773.89 361,778 358.98,782.05 357.05,786.04 355.22,789.94 353.48,793.76 351.84,797.48 350.31,801.09 348.11,806.57 346.04,811.97 344.08,817.29 342.24,822.53 340.49,827.69 338.82,832.76 337.22,837.74 335.67,842.64 334.16,847.45 332.67,852.17 331.19,856.8 329.69,861.34 328.19,865.78 326.64,870.13 325.04,874.38 323.39,878.53 321.65,882.59 319.82,886.54 317.88,890.39 315.82,894.13 313.63,897.78 311.28,901.3 308.77,904.73 306.07,908.05 303.19,911.26 300.09,914.35 296.78,917.33 293.22,920.2 289.41,922.95 285.34,925.58 280.99,928.09 276.34,930.48 268.72,934.12 261.63,937.37 255.05,940.25 248.95,942.77 243.31,944.95 238.11,946.8 233.33,948.35 228.93,949.61 224.89,950.59 221.18,951.31 217.8,951.78 214.7,952.03 211.87,952.06 209.28,951.89 206.91,951.55 204.72,951.04 202.7,950.38 200.83,949.59 199.08,948.67 197.42,947.66 195.83,946.57 194.28,945.4 192.76,944.18 191.23,942.93 189.67,941.65 188.07,940.36 186.39,939.09 184.6,937.84 182.69,936.63 180.63,935.49 178.4,934.41 175.97,933.43 173.19,932.5 170.37,931.72 167.52,931.08 164.65,930.57 161.74,930.19 158.82,929.9 155.89,929.7 152.95,929.58 150.01,929.53 147.07,929.52 144.15,929.56 141.25,929.63 138.37,929.7 135.51,929.78 132.7,929.85 "/>
    <polygon class="fil1" points="1072.06,434.05 1068.49,432.55 1065.01,430.98 1061.6,429.36 1058.26,427.7 1054.98,425.99 1051.75,424.26 1048.57,422.48 1045.42,420.7 1042.3,418.89 1039.21,417.07 1036.12,415.26 1033.04,413.44 1029.96,411.63 1026.87,409.84 1023.77,408.07 1020.63,406.32 1017.47,404.61 1014.26,402.94 1011.01,401.31 1007.7,399.74 1004.32,398.23 1000.87,396.78 997.35,395.4 993.74,394.09 990.02,392.87 986.21,391.74 982.3,390.71 978.26,389.77 974.09,388.94 969.8,388.23 965.36,387.64 960.77,387.17 963.05,388.43 965.68,389.61 968.61,390.74 971.85,391.86 975.35,392.98 979.09,394.13 983.05,395.35 987.19,396.64 991.5,398.04 995.94,399.58 1000.49,401.29 1005.13,403.19 1009.83,405.3 1014.55,407.65 1019.29,410.28 1024,413.19 1024.24,415.06 1024.66,415.44 1025.11,414.84 1025.44,413.78 1025.48,412.79 1025.1,412.35 1024.13,413.01 1022.41,415.26 1020.92,417.06 1019.84,417.59 1019.16,417.3 1018.85,416.59 1018.89,415.88 1019.28,415.61 1019.98,416.19 1020.98,418.05 1023.11,418.41 1025.31,418.89 1027.6,419.45 1029.96,420.11 1032.37,420.87 1034.83,421.7 1037.34,422.61 1039.89,423.6 1042.46,424.65 1045.06,425.76 1047.66,426.93 1050.28,428.15 1052.89,429.41 1055.49,430.72 1058.08,432.06 1060.64,433.43 1063.17,434.82 1065.65,436.24 1068.09,437.67 1070.48,439.1 1072.8,440.54 1075.04,441.98 1077.21,443.41 1079.3,444.83 1081.29,446.23 1083.18,447.61 1084.95,448.96 1086.61,450.27 1088.14,451.55 1089.54,452.78 1090.8,453.96 1091.91,455.09 1137.15,479.42 1137.13,488.96 1137.75,497.57 1138.97,505.29 1140.77,512.17 1143.11,518.26 1145.98,523.61 1149.33,528.27 1153.15,532.28 1157.4,535.7 1162.06,538.57 1167.09,540.96 1172.48,542.88 1178.2,544.41 1184.2,545.59 1190.47,546.47 1196.98,547.1 1203.7,547.53 1210.6,547.8 1217.66,547.96 1224.84,548.07 1232.12,548.17 1239.46,548.31 1246.85,548.55 1254.26,548.92 1261.64,549.48 1268.98,550.28 1276.25,551.36 1283.43,552.78 1290.46,554.59 1297.35,556.83 1304.05,559.55 1310.54,562.8 1312.85,564.15 1315.13,565.61 1317.36,567.19 1319.56,568.86 1321.69,570.64 1323.78,572.52 1325.81,574.5 1327.77,576.57 1329.67,578.74 1331.49,581.01 1333.23,583.35 1334.89,585.79 1336.47,588.3 1337.95,590.9 1339.35,593.57 1340.64,596.33 1341.82,599.15 1342.9,602.04 1343.87,605 1344.72,608.03 1345.44,611.12 1346.04,614.27 1346.51,617.48 1346.84,620.74 1347.03,624.05 1347.08,627.41 1346.98,630.82 1346.72,634.28 1346.31,637.77 1345.74,641.31 1344.99,644.88 1344.07,648.49 1342.19,654.43 1339.87,660.15 1337.16,665.68 1334.08,670.98 1330.67,676.03 1326.95,680.84 1322.96,685.39 1318.74,689.66 1314.3,693.65 1309.69,697.33 1304.92,700.7 1300.04,703.74 1295.07,706.46 1290.04,708.81 1285,710.81 1279.95,712.43 1275.85,713.51 1271.88,714.41 1268.02,715.12 1264.28,715.66 1260.64,716.02 1257.11,716.22 1253.69,716.27 1250.36,716.15 1247.12,715.89 1243.97,715.48 1240.92,714.94 1237.94,714.28 1235.04,713.48 1232.22,712.56 1229.46,711.54 1226.77,710.39 1224.15,709.16 1221.58,707.82 1219.07,706.39 1216.6,704.89 1214.19,703.3 1211.81,701.63 1209.48,699.91 1207.18,698.11 1204.91,696.26 1202.67,694.36 1200.45,692.42 1198.25,690.44 1196.07,688.43 1193.9,686.38 1191.73,684.32 1189.57,682.24 1187.89,680.62 1186.14,678.95 1184.32,677.24 1182.45,675.48 1180.52,673.68 1178.53,671.83 1176.49,669.96 1174.4,668.07 1172.28,666.15 1170.11,664.21 1167.9,662.25 1165.67,660.28 1163.4,658.31 1161.11,656.33 1158.8,654.36 1156.48,652.39 1154.13,650.43 1151.78,648.5 1149.42,646.57 1147.06,644.67 1144.7,642.8 1142.34,640.95 1139.99,639.15 1137.65,637.39 1135.32,635.67 1133.02,633.99 1130.74,632.37 1128.48,630.81 1126.25,629.31 1124.06,627.87 1121.9,626.51 1119.78,625.22 1113.26,621.44 1106.8,617.94 1100.38,614.71 1094.02,611.75 1087.7,609.05 1081.42,606.62 1075.18,604.43 1068.97,602.51 1062.8,600.82 1056.65,599.37 1050.53,598.17 1044.43,597.2 1038.34,596.46 1032.27,595.94 1026.22,595.64 1020.16,595.56 1014.11,595.69 1008.07,596.02 1002.02,596.56 995.96,597.3 989.89,598.23 983.81,599.35 977.72,600.66 971.61,602.15 965.46,603.81 959.3,605.65 953.11,607.66 946.87,609.83 940.61,612.15 934.31,614.64 927.96,617.27 921.56,620.06 915.82,622.66 910.54,625.17 905.69,627.59 901.24,629.91 897.17,632.13 893.45,634.25 890.06,636.27 886.98,638.19 884.16,640 881.6,641.7 879.27,643.31 877.13,644.8 875.17,646.19 873.36,647.47 871.68,648.63 870.08,649.69 868.57,650.63 867.1,651.45 865.65,652.17 864.2,652.76 862.72,653.23 861.19,653.59 859.57,653.82 857.85,653.93 856,653.92 854,653.79 851.81,653.52 849.41,653.13 846.79,652.62 843.9,651.97 840.74,651.19 837.26,650.28 827.97,648.08 819.11,646.56 810.67,645.68 802.65,645.44 795.04,645.78 787.84,646.7 781.03,648.15 774.59,650.12 768.55,652.56 762.88,655.46 757.57,658.79 752.62,662.51 748.03,666.6 743.77,671.03 739.85,675.78 736.26,680.81 733,686.09 730.06,691.61 727.41,697.31 725.07,703.2 723.02,709.23 721.26,715.37 719.78,721.6 718.57,727.89 717.63,734.2 716.94,740.53 716.51,746.82 716.32,753.07 716.37,759.23 716.64,765.27 717.14,771.19 717.85,776.92 718.33,779.91 718.88,782.85 719.51,785.76 720.21,788.65 720.98,791.5 721.8,794.32 722.69,797.11 723.63,799.88 724.62,802.63 725.67,805.35 726.75,808.06 727.87,810.74 729.04,813.4 730.22,816.05 731.44,818.69 732.69,821.31 733.95,823.93 735.23,826.52 736.52,829.11 737.82,831.7 739.13,834.28 740.44,836.86 741.74,839.44 743.04,842.01 744.33,844.59 745.6,847.17 746.85,849.76 748.08,852.35 749.28,854.94 750.46,857.54 751.6,860.17 752.7,862.8 755.35,869.23 757.87,875.25 760.31,880.91 762.7,886.23 765.09,891.24 767.52,895.98 770.04,900.48 772.67,904.77 775.47,908.89 778.47,912.86 781.72,916.72 785.26,920.52 789.13,924.26 793.38,928 798.04,931.76 803.15,935.57 805.62,937.32 808.12,939.04 810.65,940.72 813.21,942.37 815.8,943.99 818.42,945.56 821.07,947.11 823.74,948.61 826.45,950.07 829.19,951.5 831.96,952.89 834.75,954.23 837.59,955.54 840.44,956.81 843.34,958.04 846.26,959.22 849.22,960.35 852.2,961.46 855.22,962.51 858.27,963.52 861.35,964.48 864.47,965.4 867.61,966.27 870.79,967.09 874,967.87 877.25,968.6 880.52,969.28 883.84,969.91 887.18,970.49 890.56,971.02 893.96,971.5 897.41,971.93 904.11,972.56 910.75,972.9 917.34,972.95 923.86,972.72 930.32,972.22 936.7,971.46 943,970.43 949.22,969.16 955.33,967.64 961.35,965.89 967.26,963.9 973.05,961.7 978.72,959.28 984.27,956.64 989.68,953.81 994.95,950.78 1000.07,947.57 1005.04,944.18 1009.85,940.62 1014.5,936.89 1018.97,933 1023.26,928.96 1027.36,924.78 1031.27,920.46 1034.98,916.01 1038.49,911.44 1041.78,906.76 1044.85,901.96 1047.7,897.06 1050.32,892.07 1052.7,887 1054.83,881.84 1050.87,879.31 1047.17,877.13 1043.73,875.23 1040.52,873.54 1037.53,871.98 1034.73,870.5 1032.11,869.02 1029.65,867.48 1027.34,865.8 1025.15,863.93 1023.07,861.79 1021.08,859.31 1019.16,856.43 1017.29,853.07 1015.45,849.18 1013.63,844.68 1016.03,845.78 1018.39,846.91 1020.69,848.06 1022.94,849.24 1025.17,850.44 1027.36,851.66 1029.52,852.9 1031.66,854.15 1033.78,855.41 1035.89,856.68 1037.98,857.95 1040.07,859.23 1042.16,860.52 1044.26,861.8 1046.36,863.07 1048.48,864.34 1050.62,865.61 1052.78,866.86 1054.96,868.09 1057.19,869.32 1059.44,870.52 1061.74,871.71 1064.1,872.87 1066.49,874 1068.94,875.11 1071.46,876.19 1074.05,877.23 1076.7,878.24 1079.42,879.21 1082.23,880.13 1085.12,881.02 1088.1,881.86 1090.38,882.43 1092.8,882.94 1095.37,883.42 1098.06,883.84 1100.87,884.21 1103.78,884.54 1106.79,884.81 1109.88,885.03 1113.05,885.21 1116.27,885.33 1119.54,885.4 1122.86,885.42 1126.2,885.39 1129.55,885.31 1132.91,885.18 1136.26,884.99 1139.59,884.76 1142.9,884.47 1146.16,884.13 1149.37,883.74 1152.52,883.29 1155.59,882.79 1158.57,882.24 1161.46,881.63 1164.24,880.98 1166.9,880.26 1169.43,879.49 1171.81,878.67 1174.04,877.8 1176.11,876.87 1178,875.88 1179.7,874.84 1178.31,873.37 1176.92,871.98 1175.54,870.65 1174.17,869.35 1172.85,868.06 1171.58,866.74 1170.37,865.4 1169.24,864 1168.2,862.51 1167.28,860.92 1166.46,859.2 1165.8,857.33 1165.27,855.29 1164.91,853.05 1164.73,850.59 1164.73,847.89 1164.93,845.2 1165.3,842.59 1165.84,840.05 1166.53,837.6 1167.38,835.26 1168.37,833.03 1169.47,830.93 1170.71,828.97 1172.06,827.16 1173.51,825.52 1175.06,824.06 1176.69,822.79 1178.4,821.72 1180.18,820.88 1182.01,820.25 1183.9,819.87 1186.9,819.79 1190.21,820.24 1193.8,821.17 1197.61,822.5 1201.59,824.19 1205.72,826.15 1209.93,828.32 1214.18,830.65 1218.43,833.05 1222.62,835.48 1226.72,837.87 1230.68,840.14 1234.46,842.24 1238,844.1 1241.26,845.65 1244.19,846.84 1248.43,848.23 1252.81,849.47 1257.32,850.55 1261.97,851.48 1266.73,852.27 1271.58,852.92 1276.53,853.43 1281.54,853.79 1286.62,854.03 1291.75,854.14 1296.92,854.12 1302.11,853.98 1307.31,853.71 1312.5,853.33 1317.7,852.84 1322.85,852.24 1327.97,851.54 1333.04,850.72 1338.04,849.81 1342.97,848.81 1347.81,847.71 1352.54,846.52 1357.16,845.24 1361.65,843.89 1366,842.45 1370.2,840.93 1374.23,839.34 1378.08,837.69 1381.74,835.96 1385.2,834.17 1388.44,832.33 1391.45,830.42 1386.86,830.66 1382.44,831.01 1378.18,831.46 1374.03,831.96 1369.95,832.52 1365.92,833.09 1361.89,833.65 1357.83,834.2 1353.71,834.69 1349.49,835.11 1345.13,835.43 1340.6,835.63 1335.87,835.69 1330.89,835.59 1325.65,835.3 1320.08,834.8 1322.89,829.52 1325.38,824.9 1327.59,820.86 1329.62,817.33 1331.5,814.25 1333.31,811.53 1335.11,809.11 1336.95,806.92 1338.91,804.88 1341.04,802.93 1343.41,800.98 1346.08,798.98 1349.11,796.85 1352.57,794.52 1356.52,791.91 1361.01,788.96 1364,786.98 1367.05,784.92 1370.16,782.78 1373.31,780.56 1376.48,778.26 1379.65,775.91 1382.82,773.5 1385.97,771.04 1389.08,768.53 1392.15,765.98 1395.14,763.39 1398.06,760.78 1400.87,758.14 1403.58,755.48 1406.16,752.81 1408.6,750.14 1414.96,742.38 1420.54,734.47 1425.34,726.42 1429.39,718.26 1432.74,710.01 1435.41,701.68 1437.41,693.31 1438.79,684.89 1439.57,676.47 1439.78,668.06 1439.44,659.67 1438.6,651.33 1437.27,643.06 1435.48,634.88 1433.26,626.81 1430.65,618.87 1427.66,611.07 1424.33,603.45 1420.69,596.02 1416.76,588.8 1412.57,581.81 1408.16,575.07 1403.54,568.59 1398.76,562.41 1393.83,556.54 1388.79,551.01 1383.66,545.81 1378.47,541 1373.26,536.57 1368.05,532.56 1362.86,528.97 1357.73,525.83 1352.74,523.1 1347.82,520.62 1342.96,518.37 1338.14,516.35 1333.37,514.55 1328.65,512.94 1323.96,511.52 1319.31,510.29 1314.68,509.22 1310.07,508.3 1305.47,507.53 1300.89,506.88 1296.32,506.35 1291.74,505.93 1287.16,505.6 1282.57,505.35 1277.96,505.18 1273.34,505.06 1268.69,504.99 1264.01,504.95 1259.3,504.94 1254.54,504.93 1249.74,504.93 1244.89,504.91 1239.98,504.86 1235.01,504.78 1229.98,504.65 1224.87,504.46 1219.69,504.2 1214.43,503.85 1209.08,503.4 1203.64,502.85 1201.09,501.52 1199.08,499.9 1197.51,498.03 1196.26,495.94 1195.23,493.65 1194.3,491.2 1193.35,488.61 1192.28,485.91 1190.99,483.15 1189.35,480.34 1187.26,477.52 1184.59,474.72 1181.26,471.95 1177.14,469.27 1172.12,466.69 1166.09,464.25 1164.21,463.57 1162.79,463.06 1161.69,462.69 1160.73,462.44 1159.77,462.29 1158.65,462.21 1157.22,462.19 1155.31,462.2 1153.55,462.22 1152.49,462.25 1151.92,462.3 1151.62,462.37 1151.35,462.47 1150.91,462.61 1150.06,462.8 1148.57,463.03 1147.54,463.25 1147.31,463.46 1147.5,463.67 1147.75,463.85 1147.68,464 1146.93,464.1 1145.11,464.14 1141.87,464.1 1142.21,460.25 1142.91,456.78 1143.88,453.63 1145.04,450.72 1146.32,447.97 1147.65,445.3 1148.95,442.65 1150.15,439.94 1151.16,437.09 1151.91,434.02 1152.32,430.68 1152.33,426.96 1151.84,422.81 1150.8,418.13 1149.11,412.88 1146.71,406.96 1145.52,404.41 1144.2,401.85 1142.75,399.29 1141.15,396.76 1139.42,394.28 1137.53,391.86 1135.5,389.53 1133.31,387.29 1130.95,385.19 1128.43,383.21 1125.74,381.4 1122.88,379.77 1119.83,378.33 1116.61,377.11 1113.19,376.13 1109.58,375.39 1109.98,380.27 1110.29,384.96 1110.54,389.47 1110.73,393.81 1110.88,397.97 1111,401.96 1111.09,405.79 1111.18,409.46 1111.27,412.96 1111.37,416.31 1111.51,419.5 1111.68,422.55 1111.9,425.45 1112.19,428.21 1112.54,430.83 1112.99,433.32 1113.52,435.67 1114.17,437.89 1114.94,439.99 1115.84,441.97 1116.88,443.83 1118.08,445.57 1119.44,447.2 1120.98,448.72 1122.72,450.14 1124.66,451.45 1126.81,452.67 1129.19,453.8 1131.8,454.83 1134.66,455.77 1137.79,456.63 1141.19,457.41 1141.11,472.22 1138.48,471.48 1135.73,470.55 1132.87,469.45 1129.93,468.2 1126.93,466.81 1123.88,465.33 1120.81,463.76 1117.75,462.13 1114.7,460.47 1111.7,458.78 1108.77,457.11 1105.91,455.46 1103.16,453.86 1100.54,452.34 1098.06,450.91 1095.76,449.59 1091.59,447.12 1087.89,444.63 1084.63,442.14 1081.79,439.64 1079.33,437.13 1077.25,434.61 1075.5,432.06 1074.07,429.5 1072.92,426.91 1072.04,424.3 1071.38,421.66 1070.94,418.99 1070.68,416.29 1070.57,413.55 1070.61,410.77 1070.74,407.95 1070.95,405.09 1071.21,402.17 1071.51,399.21 1071.8,396.19 1072.07,393.12 1072.28,389.99 1072.43,386.81 1072.46,383.55 1072.37,380.23 1072.13,376.84 1071.7,373.38 1071.07,369.84 1070.21,366.23 1069.08,362.54 1067.68,358.76 1065.96,354.91 1064.58,352.19 1063.09,349.55 1061.48,346.98 1059.74,344.51 1057.86,342.13 1055.83,339.86 1053.64,337.7 1051.29,335.67 1048.75,333.77 1046.02,332.01 1043.11,330.4 1039.98,328.96 1036.65,327.69 1033.08,326.59 1029.29,325.68 1025.25,324.97 1026.19,335.22 1027.31,344.56 1028.59,353.04 1030.03,360.69 1031.6,367.59 1033.29,373.76 1035.09,379.25 1036.98,384.11 1038.94,388.4 1040.98,392.15 1043.06,395.41 1045.17,398.23 1047.3,400.65 1049.43,402.73 1051.56,404.51 1053.66,406.04 1055.72,407.35 1057.73,408.5 1059.67,409.54 1061.52,410.52 1063.29,411.47 1064.93,412.45 1066.46,413.51 1067.83,414.68 1069.06,416.03 1070.12,417.59 1070.98,419.4 1071.66,421.53 1072.11,424.02 1072.34,426.9 1072.33,430.23 "/>
    <polygon class="fil1" points="509.83,1127.52 509.75,1130.35 509.7,1133.15 509.68,1135.94 509.69,1138.72 509.71,1141.48 509.76,1144.22 509.82,1146.96 509.89,1149.67 509.96,1152.39 510.04,1155.09 510.11,1157.79 510.18,1160.48 510.22,1163.17 510.27,1165.85 510.29,1168.54 510.28,1171.22 510.25,1173.91 510.18,1176.6 510.08,1179.3 509.94,1182 509.75,1184.71 509.52,1187.43 509.23,1190.17 508.89,1192.91 508.48,1195.67 508.01,1198.44 507.47,1201.24 506.86,1204.04 506.17,1206.87 505.39,1209.72 504.53,1212.6 503.58,1215.49 502.07,1219.41 500.25,1223.33 498.16,1227.24 495.83,1231.16 493.3,1235.07 490.61,1238.99 487.8,1242.9 484.91,1246.81 481.96,1250.71 479,1254.61 476.06,1258.5 473.2,1262.39 470.43,1266.26 467.8,1270.13 465.35,1273.98 463.11,1277.83 461.13,1281.66 459.43,1285.48 458.06,1289.29 457.05,1293.07 456.44,1296.85 456.27,1300.61 456.58,1304.35 457.39,1308.07 458.77,1311.77 460.72,1315.46 463.31,1319.12 466.56,1322.76 470.51,1326.37 475.2,1329.96 480.66,1333.54 486.94,1337.07 488.75,1337.98 490.74,1338.88 492.87,1339.77 495.15,1340.65 497.56,1341.51 500.1,1342.35 502.75,1343.17 505.5,1343.96 508.33,1344.72 511.24,1345.44 514.22,1346.13 517.26,1346.78 520.33,1347.38 523.44,1347.94 526.58,1348.44 529.72,1348.89 532.85,1349.28 535.98,1349.61 539.08,1349.88 542.15,1350.08 545.17,1350.2 548.12,1350.26 551.01,1350.23 553.82,1350.12 556.54,1349.92 559.15,1349.63 561.65,1349.26 564.02,1348.79 566.26,1348.22 568.34,1347.54 570.27,1346.76 572.02,1345.86 573.01,1344 573.85,1341.89 574.53,1339.55 575.08,1336.98 575.51,1334.2 575.83,1331.22 576.06,1328.05 576.19,1324.7 576.27,1321.19 576.28,1317.52 576.24,1313.72 576.19,1309.77 576.1,1305.71 576.02,1301.55 575.93,1297.28 575.87,1292.92 575.84,1288.49 575.85,1284 575.93,1279.46 576.07,1274.87 576.3,1270.26 576.62,1265.63 577.06,1260.99 577.61,1256.35 578.3,1251.74 579.15,1247.15 580.15,1242.6 581.32,1238.1 582.69,1233.66 584.24,1229.3 586.02,1225.02 588.02,1220.83 589.76,1217.5 591.53,1214.27 593.32,1211.13 595.13,1208.07 596.95,1205.1 598.77,1202.19 600.61,1199.34 602.46,1196.54 604.31,1193.78 606.15,1191.04 608,1188.33 609.84,1185.63 611.67,1182.94 613.49,1180.24 615.3,1177.52 617.08,1174.79 618.85,1172.02 620.6,1169.2 622.33,1166.35 624.03,1163.43 625.69,1160.44 627.32,1157.37 628.92,1154.22 630.47,1150.97 632,1147.62 633.46,1144.15 634.89,1140.57 636.26,1136.85 637.59,1132.99 638.85,1128.98 640.06,1124.81 641.2,1120.48 637.16,1120.46 633.14,1120.54 629.14,1120.72 625.17,1120.97 621.23,1121.3 617.31,1121.7 613.41,1122.15 609.53,1122.64 605.67,1123.18 601.84,1123.75 598.03,1124.35 594.24,1124.95 590.48,1125.57 586.73,1126.19 583,1126.79 579.3,1127.38 574.77,1128.04 570.32,1128.59 565.95,1129.02 561.64,1129.36 557.37,1129.6 553.14,1129.75 548.92,1129.82 544.72,1129.81 540.51,1129.72 536.28,1129.57 532.03,1129.35 527.73,1129.08 523.37,1128.75 518.95,1128.38 514.44,1127.96 "/>
    <polygon class="fil1" points="1403.87,862.22 1397.63,862.53 1391.51,862.91 1385.5,863.36 1379.59,863.84 1373.78,864.35 1368.04,864.88 1362.36,865.41 1356.75,865.92 1351.2,866.39 1345.67,866.82 1340.19,867.19 1334.71,867.48 1329.25,867.68 1323.8,867.78 1318.33,867.76 1312.84,867.59 1307.32,867.28 1301.76,866.8 1296.16,866.14 1290.5,865.29 1284.77,864.23 1278.96,862.94 1273.07,861.41 1267.07,859.63 1260.97,857.58 1254.75,855.24 1248.41,852.61 1241.93,849.66 1235.3,846.38 1228.51,842.76 1221.56,838.78 1214.43,834.43 1210.89,832.33 1207.26,830.46 1203.58,828.85 1199.89,827.55 1196.24,826.59 1192.69,826.02 1189.26,825.87 1186,826.21 1182.96,827.06 1180.2,828.47 1177.74,830.48 1175.63,833.13 1173.92,836.46 1172.66,840.53 1171.89,845.36 1171.64,851.01 1171.89,854.35 1172.59,857.5 1173.7,860.49 1175.22,863.29 1177.11,865.93 1179.36,868.41 1181.94,870.72 1184.82,872.88 1188,874.89 1191.43,876.76 1195.11,878.48 1199.02,880.08 1203.11,881.54 1207.38,882.87 1211.81,884.09 1216.36,885.19 1221.02,886.17 1225.76,887.06 1230.57,887.83 1235.42,888.51 1240.28,889.1 1245.15,889.6 1249.98,890.02 1254.76,890.36 1259.47,890.62 1264.08,890.81 1268.58,890.94 1272.94,891.02 1277.13,891.04 1281.14,891 1284.94,890.92 1288.51,890.8 1292.07,890.64 1295.72,890.43 1299.44,890.18 1303.24,889.88 1307.09,889.54 1311,889.15 1314.96,888.72 1318.96,888.24 1322.98,887.71 1327.02,887.14 1331.08,886.52 1335.14,885.85 1339.2,885.14 1343.24,884.38 1347.25,883.57 1351.24,882.71 1355.18,881.81 1359.08,880.85 1362.93,879.85 1366.7,878.8 1370.41,877.7 1374.03,876.54 1377.56,875.34 1380.99,874.09 1384.31,872.78 1387.52,871.43 1390.61,870.02 1393.56,868.57 1396.37,867.06 1399.03,865.49 1401.53,863.88 "/>
    <polygon class="fil1" points="976.52,482.06 981.34,482.72 986.05,483.35 990.65,483.96 995.14,484.52 999.53,485.04 1003.81,485.51 1008,485.93 1012.08,486.28 1016.07,486.57 1019.98,486.77 1023.79,486.9 1027.51,486.94 1031.15,486.88 1034.7,486.72 1038.18,486.46 1041.57,486.07 1044.91,485.57 1048.15,484.94 1051.34,484.18 1054.45,483.27 1057.51,482.22 1060.5,481.02 1063.43,479.66 1066.31,478.13 1069.13,476.43 1071.9,474.55 1074.61,472.48 1077.3,470.23 1079.93,467.77 1082.52,465.12 1085.07,462.25 1087.59,459.16 1083.21,457.41 1079.07,455.69 1075.11,454.04 1071.3,452.47 1067.59,451.03 1063.95,449.72 1060.33,448.59 1056.69,447.66 1053,446.94 1049.21,446.48 1045.28,446.3 1041.17,446.41 1036.84,446.86 1032.25,447.66 1027.35,448.85 1022.11,450.44 1018.6,451.68 1015.09,453.03 1011.62,454.5 1008.19,456.08 1004.82,457.76 1001.54,459.55 998.34,461.43 995.26,463.41 992.31,465.47 989.5,467.62 986.84,469.85 984.36,472.16 982.08,474.54 980,476.98 978.14,479.49 "/>
    <polygon class="fil1" points="903.63,438.33 905.45,440.65 907.4,442.76 909.46,444.67 911.64,446.38 913.93,447.9 916.31,449.23 918.79,450.38 921.35,451.35 923.99,452.16 926.7,452.8 929.47,453.28 932.3,453.6 935.18,453.78 938.09,453.81 941.05,453.7 944.02,453.46 947.02,453.1 950.03,452.61 953.04,452 956.05,451.28 959.06,450.45 962.04,449.53 964.99,448.51 967.92,447.39 970.81,446.2 973.65,444.92 976.44,443.57 979.16,442.15 981.82,440.67 984.4,439.13 986.9,437.53 989.31,435.89 1010.79,417.7 1010.96,417.54 1011.15,417.37 1011.36,417.17 1011.57,416.97 1011.8,416.76 1012.03,416.54 1012.25,416.33 1012.46,416.12 1007.53,414.88 1003.09,413.75 999.05,412.74 995.35,411.87 991.93,411.15 988.7,410.58 985.61,410.19 982.58,409.97 979.55,409.94 976.44,410.13 973.19,410.52 969.72,411.14 965.97,412 961.87,413.11 957.35,414.47 952.35,416.11 950.09,416.89 947.42,417.86 944.39,419 941.07,420.3 937.54,421.7 933.85,423.2 930.07,424.78 926.28,426.41 922.55,428.06 918.94,429.72 915.52,431.35 912.35,432.93 909.51,434.45 907.07,435.87 905.08,437.17 "/>
    <polygon class="fil1" points="990.25,382.58 989.71,379.03 989.14,375.41 988.52,371.75 987.85,368.07 987.11,364.35 986.33,360.64 985.47,356.92 984.54,353.22 983.55,349.55 982.46,345.92 981.3,342.35 980.04,338.83 978.68,335.39 977.22,332.05 975.66,328.8 973.98,325.67 972.19,322.66 970.28,319.79 968.23,317.07 966.06,314.51 963.75,312.13 961.3,309.93 958.69,307.93 955.94,306.15 953.03,304.58 949.95,303.25 946.71,302.17 943.3,301.35 939.71,300.79 935.94,300.53 931.97,300.55 927.81,300.89 928.37,303.67 929.07,306.68 929.91,309.87 930.87,313.21 931.94,316.66 933.1,320.19 934.35,323.76 935.65,327.32 937,330.85 938.39,334.3 939.81,337.64 941.23,340.83 942.64,343.84 944.04,346.63 945.4,349.15 946.71,351.37 948.8,354.64 950.84,357.63 952.87,360.35 954.91,362.84 956.98,365.12 959.12,367.21 961.35,369.13 963.7,370.9 966.21,372.55 968.89,374.1 971.77,375.57 974.89,377 978.27,378.38 981.94,379.76 985.93,381.15 "/>
    <polygon class="fil1" points="845.58,392.75 847,394.8 848.59,396.69 850.33,398.44 852.21,400.03 854.24,401.48 856.41,402.79 858.69,403.95 861.1,404.97 863.63,405.84 866.26,406.57 868.99,407.17 871.81,407.61 874.73,407.93 877.72,408.1 880.79,408.14 883.92,408.04 887.11,407.81 890.35,407.44 893.65,406.94 896.97,406.31 900.34,405.55 903.72,404.66 907.13,403.64 910.56,402.49 913.98,401.22 917.4,399.82 920.81,398.3 924.22,396.66 927.59,394.89 930.94,393 934.26,390.99 937.53,388.86 937.75,388.71 937.97,388.56 938.2,388.4 938.43,388.24 938.66,388.08 938.88,387.93 939.09,387.78 939.3,387.63 942.93,384.97 939.44,383.69 936.2,382.33 933.15,380.91 930.25,379.47 927.43,378.04 924.66,376.65 921.89,375.34 919.06,374.13 916.14,373.06 913.06,372.15 909.77,371.44 906.24,370.95 902.41,370.73 898.22,370.8 893.65,371.19 888.62,371.94 885.77,372.51 882.84,373.24 879.83,374.11 876.79,375.12 873.73,376.24 870.67,377.47 867.64,378.78 864.67,380.19 861.77,381.65 858.96,383.17 856.29,384.74 853.76,386.33 851.4,387.94 849.23,389.55 847.28,391.16 "/>
    <polygon class="fil3" points="1059.82,735.73 1058.83,740.23 1058.65,744.28 1059.19,747.88 1060.36,751.04 1062.07,753.77 1064.24,756.08 1066.77,757.97 1069.58,759.44 1072.57,760.52 1075.67,761.19 1078.78,761.48 1081.8,761.38 1084.66,760.91 1087.27,760.07 1089.52,758.85 1091.35,757.3 1093.28,754.63 1094.34,751.94 1094.6,749.27 1094.14,746.66 1093.03,744.15 1091.35,741.8 1089.17,739.62 1086.58,737.69 1083.64,736.02 1080.43,734.68 1077.04,733.7 1073.52,733.12 1069.96,733 1066.45,733.36 1063.04,734.26 "/>
   </g>
  </g>
 </g>
</svg>
