<?xml version="1.0" encoding="UTF-8"?>
<!DOCTYPE svg PUBLIC "-//W3C//DTD SVG 1.1//EN" "http://www.w3.org/Graphics/SVG/1.1/DTD/svg11.dtd">
<!-- Creator: CorelDRAW X7 -->
<svg xmlns="http://www.w3.org/2000/svg" xml:space="preserve" width="8.5in" height="1.62955in" version="1.1" style="shape-rendering:geometricPrecision; text-rendering:geometricPrecision; image-rendering:optimizeQuality; fill-rule:evenodd; clip-rule:evenodd"
viewBox="0 0 8500 1630"
 xmlns:xlink="http://www.w3.org/1999/xlink">
 <defs>
  <style type="text/css">
   <![CDATA[
    .fil1 {fill:#FFC214}
    .fil0 {fill:white}
    .fil2 {fill:url(#id1)}
   ]]>
  </style>
      <clipPath id="id0">
       <path d="M7756 281l0 0c-268,-4 -443,211 -464,455 -8,120 -85,312 -284,323l-1 0c-10,0 -20,1 -30,1l0 0c-400,-14 -424,-577 -30,-628l61 -151c-14,-1 -27,-1 -41,-1 -256,0 -465,208 -465,465 0,257 209,465 465,465 4,0 7,0 10,0l0 0c269,5 445,-214 464,-458 9,-94 38,-164 78,-212l6 -8c59,-64 142,-101 230,-101 0,0 1,0 1,0l0 0c400,14 425,578 30,629l-61 151c10,0 20,1 30,1 257,0 465,-209 465,-465 0,-257 -208,-465 -464,-466l0 0z"/>
      </clipPath>
  <linearGradient id="id1" gradientUnits="userSpaceOnUse" x1="7057.1" y1="435.827" x2="7675.82" y2="1054.55">
   <stop offset="0" style="stop-opacity:1; stop-color:#FFC214"/>
   <stop offset="0.0705882" style="stop-opacity:1; stop-color:#FFC214"/>
   <stop offset="0.501961" style="stop-opacity:0.101961; stop-color:#FF731F"/>
   <stop offset="0.929412" style="stop-opacity:1; stop-color:#FF453C"/>
   <stop offset="1" style="stop-opacity:1; stop-color:#FF453C"/>
  </linearGradient>
 </defs>
 <g id="Layer_x0020_1">
  <metadata id="CorelCorpID_0Corel-Layer"/>
  <g id="_316250472">
   <path class="fil0" d="M1005 298c166,0 280,85 332,178l0 -163 150 0 0 893 -150 0 0 -166c-54,96 -169,180 -334,180 -238,0 -422,-187 -422,-464 0,-277 184,-458 424,-458zm29 129c-163,0 -302,119 -302,329 0,210 139,334 302,334 163,0 303,-122 303,-332 0,-207 -140,-331 -303,-331z"/>
   <polygon class="fil0" points="8352,0 8352,0 8352,1206 8500,1206 8500,0 "/>
   <path class="fil0" d="M5967 298c239,0 423,180 423,458 0,279 -184,464 -423,464 -3,1 -6,1 -8,1 -133,0 -256,-68 -326,-180l0 589 -149 0 0 -1317 149 0 0 165c53,-95 171,-180 334,-180zm-31 129c-162,0 -301,119 -301,329 0,210 139,334 301,334 163,0 303,-122 303,-332 0,-207 -140,-331 -303,-331z"/>
   <path class="fil0" d="M4526 0l149 0 0 442c58,-94 168,-145 294,-145 199,0 357,127 357,383l0 526 -147 0 0 -505c0,-183 -99,-276 -249,-276 -150,0 -256,94 -256,287l0 494 -148 0 0 -1206z"/>
   <path class="fil0" d="M3975 298c221,0 366,114 412,302l-159 0c-31,-108 -121,-176 -253,-176 -163,0 -284,115 -284,334 0,221 121,337 284,337 131,0 220,-63 253,-176l159 0c-45,178 -190,302 -412,302 -254,0 -435,-179 -435,-463 0,-280 181,-460 435,-460z"/>
   <path class="fil0" d="M3271 701c0,-183 -99,-276 -249,-276 -150,0 -256,94 -256,287l0 494 -148 0 0 -893 148 0 0 127c59,-93 166,-143 287,-143 206,0 365,127 365,383l0 526 -147 0 0 -505z"/>
   <path class="fil0" d="M2452 1206l-148 0 0 -131c-56,93 -166,145 -285,145 -206,0 -367,-127 -367,-383l0 -524 147 0 0 503c0,181 99,274 249,274 153,0 256,-94 256,-287l0 -490 148 0 0 893z"/>
   <polygon class="fil0" points="148,70 148,1085 546,1085 546,1206 0,1206 0,70 "/>
   <polygon class="fil1" points="7008,281 6996,282 6939,424 6947,432 6958,433 7014,290 "/>
   <polygon class="fil2" points="7443,716 7441,714 7318,591 7008,281 6947,432 7290,775 7292,776 7415,900 7725,1210 7786,1059 "/>
   <g>
    <g>
     <g style="clip-path:url(#id0)">
      <image x="6411" y="183" width="1909" height="1125" xlink:href="launchpool-light_Images\launchpool-light_ImgID1.png"/>
     </g>
    </g>
   </g>
  </g>
 </g>
</svg>
