<?xml version="1.0" encoding="UTF-8"?>
<!DOCTYPE svg PUBLIC "-//W3C//DTD SVG 1.1//EN" "http://www.w3.org/Graphics/SVG/1.1/DTD/svg11.dtd">
<!-- Creator: CorelDRAW 2018 (64-Bit) -->
<svg xmlns="http://www.w3.org/2000/svg" xml:space="preserve" width="7.13876in" height="10.2361in" version="1.1" style="shape-rendering:geometricPrecision; text-rendering:geometricPrecision; image-rendering:optimizeQuality; fill-rule:evenodd; clip-rule:evenodd"
viewBox="0 0 7138.76 10236.12"
 xmlns:xlink="http://www.w3.org/1999/xlink">
 <defs>
  <style type="text/css">
   <![CDATA[
    .fil0 {fill:#CCCCCC}
   ]]>
  </style>
 </defs>
 <g id="Layer_x0020_1">
  <metadata id="CorelCorpID_0Corel-Layer"/>
  <g id="_813840845600">
   <path class="fil0" d="M4059.14 0c-2402.45,1309.01 -4033.61,3862.55 -4033.61,6798.61 0,1234.95 288.98,2402.01 802.13,3437.51l-28.54 0c-511.32,-1036.1 -799.11,-2203.01 -799.11,-3437.51 0,-2928.98 1617.91,-5478.63 4005.77,-6798.61l53.37 0z"/>
   <path class="fil0" d="M4533.39 0c-2402.88,1308.73 -4034.4,3862.27 -4034.4,6798.61 0,1234.97 288.87,2402.08 802.05,3437.51l-28.61 0c-511.35,-1036.03 -798.97,-2203 -798.97,-3437.51 0,-2929.38 1618.5,-5478.93 4006.95,-6798.61l52.98 0z"/>
   <path class="fil0" d="M5006.4 0c-2402.61,1308.93 -4033.94,3862.44 -4033.94,6798.61 0,1234.9 288.7,2402.06 801.81,3437.51l-28.64 0c-511.28,-1036.03 -798.7,-2203.07 -798.7,-3437.51 0,-2929.06 1618,-5478.7 4005.98,-6798.61l53.49 0z"/>
   <path class="fil0" d="M5480.82 0c-2403.07,1308.71 -4034.9,3862.13 -4034.9,6798.61 0,1234.94 288.73,2402.1 801.9,3437.51l-28.65 0c-511.33,-1036 -798.78,-2203.04 -798.78,-3437.51 0,-2929.41 1618.6,-5478.91 4007.08,-6798.61l53.35 0z"/>
   <path class="fil0" d="M5953.37 0c-2402.62,1308.93 -4033.97,3862.44 -4033.97,6798.61 0,1234.92 288.79,2402.05 801.92,3437.51l-28.63 0c-511.28,-1036.06 -798.82,-2203.06 -798.82,-3437.51 0,-2928.93 1617.81,-5478.61 4005.61,-6798.61l53.9 0z"/>
   <path class="fil0" d="M6427.32 0c-2402.84,1308.85 -4034.47,3862.28 -4034.47,6798.61 0,1234.95 288.86,2402.07 802.04,3437.51l-28.49 0c-511.37,-1036.04 -799.08,-2202.99 -799.08,-3437.51 0,-2929.14 1618.16,-5478.74 4006.27,-6798.61l53.73 0z"/>
   <path class="fil0" d="M6900.54 0c-2402.72,1308.91 -4034.22,3862.36 -4034.22,6798.61 0,1234.93 288.65,2402.12 801.83,3437.51l-28.5 0c-511.36,-1036 -798.87,-2203.02 -798.87,-3437.51 0,-2929.38 1618.67,-5478.8 4007.08,-6798.61l52.68 0z"/>
   <path class="fil0" d="M7138.76 133.54c-2273.31,1344.28 -3798.98,3825.7 -3798.98,6665.07 0,1234.95 288.73,2402.1 801.93,3437.51l-28.43 0c-511.39,-1036.02 -799.03,-2202.99 -799.03,-3437.51 0,-2854.17 1536.51,-5347.88 3824.51,-6694.84l0 29.76z"/>
   <path class="fil0" d="M7138.76 437.37c-2009.1,1395.32 -3325.51,3723.83 -3325.51,6361.24 0,1234.93 288.64,2402.12 801.84,3437.51l-28.39 0c-511.39,-1036.01 -798.98,-2203 -798.98,-3437.51 0,-2652.49 1327.1,-4993.61 3351.05,-6392.41l0 31.17z"/>
   <path class="fil0" d="M7138.76 793.77c-1739.89,1417.52 -2852.05,3580.7 -2852.05,6004.84 0,1234.96 288.79,2402.1 802.02,3437.51l-28.48 0c-511.42,-1036.01 -799.07,-2202.99 -799.07,-3437.51 0,-2439.61 1122.72,-4615.76 2877.58,-6037.73l0 32.89z"/>
   <path class="fil0" d="M7138.76 1212.29c-1465.69,1407.48 -2378.58,3389.88 -2378.58,5586.32 0,1234.87 288.56,2402.08 801.67,3437.51l-28.41 0c-511.29,-1036.05 -798.8,-2203.06 -798.8,-3437.51 0,-2212.53 923.23,-4208.64 2404.12,-5621.79l0 35.47z"/>
   <path class="fil0" d="M7138.76 1709.3c-1186.07,1359.84 -1905.12,3140.22 -1905.12,5089.31 0,1234.93 288.76,2402.08 801.97,3437.51l-28.45 0c-511.44,-1036.01 -799.05,-2203 -799.05,-3437.51 0,-1965.99 729.26,-3760.81 1930.65,-5127.9l0 38.59z"/>
   <path class="fil0" d="M7138.76 2309.06c-901.22,1265.67 -1431.65,2815.41 -1431.65,4489.55 0,1234.89 288.66,2402.07 801.8,3437.51l-28.25 0c-511.43,-1036.03 -799.08,-2203 -799.08,-3437.51 0,-1692.39 540.48,-3257.91 1457.19,-4533.02l0 43.47z"/>
   <path class="fil0" d="M7138.76 3062.66c-610.35,1107.44 -958.19,2380.85 -958.19,3735.95 0,1234.95 288.94,2402.04 802.14,3437.51l-28.42 0c-511.42,-1036.07 -799.25,-2202.98 -799.25,-3437.51 0,-1376 357.52,-2668.01 983.72,-3788.45l0 52.5z"/>
   <path class="fil0" d="M7138.76 3942.63c-350.24,883.58 -543.02,1847.15 -543.02,2855.98 0,1008.82 192.78,1972.41 543.02,2855.98l0 67.75c-366.24,-902.39 -568.55,-1889.28 -568.55,-2923.73 0,-1034.45 202.31,-2021.34 568.55,-2923.73l0 67.75z"/>
   <path class="fil0" d="M7138.76 5390.7c-83.72,456.57 -127.85,927.05 -127.85,1407.91 0,480.87 44.13,951.35 127.85,1407.91l0 136.16c-100.45,-499.02 -153.38,-1015.34 -153.38,-1544.08 0,-528.74 52.93,-1045.04 153.38,-1544.07l0 136.16z"/>
  </g>
 </g>
</svg>
