<?xml version="1.0" encoding="UTF-8"?>
<!DOCTYPE svg PUBLIC "-//W3C//DTD SVG 1.1//EN" "http://www.w3.org/Graphics/SVG/1.1/DTD/svg11.dtd">
<!-- Creator: CorelDRAW 2018 (64-Bit) -->
<svg xmlns="http://www.w3.org/2000/svg" xml:space="preserve" width="2.28767in" height="1.7473in" version="1.1" style="shape-rendering:geometricPrecision; text-rendering:geometricPrecision; image-rendering:optimizeQuality; fill-rule:evenodd; clip-rule:evenodd"
viewBox="0 0 2287.68 1747.3"
 xmlns:xlink="http://www.w3.org/1999/xlink">
 <defs>
  <style type="text/css">
   <![CDATA[
    .fil24 {fill:black;fill-rule:nonzero}
    .fil5 {fill:#097210;fill-rule:nonzero}
    .fil15 {fill:#0B182A;fill-rule:nonzero}
    .fil19 {fill:#131313;fill-rule:nonzero}
    .fil22 {fill:#1B810E;fill-rule:nonzero}
    .fil14 {fill:#1E3D70;fill-rule:nonzero}
    .fil8 {fill:#1E840D;fill-rule:nonzero}
    .fil18 {fill:#212121;fill-rule:nonzero}
    .fil30 {fill:#2B478B;fill-rule:nonzero}
    .fil3 {fill:#46A509;fill-rule:nonzero}
    .fil9 {fill:#4EAC07;fill-rule:nonzero}
    .fil33 {fill:#67C104;fill-rule:nonzero}
    .fil25 {fill:#81D701;fill-rule:nonzero}
    .fil35 {fill:#91B0F2;fill-rule:nonzero}
    .fil16 {fill:#999999;fill-rule:nonzero}
    .fil10 {fill:#A6E059;fill-rule:nonzero}
    .fil7 {fill:#B3B3B3;fill-rule:nonzero}
    .fil6 {fill:#CCCCCC;fill-rule:nonzero}
    .fil1 {fill:#DFF5B8;fill-rule:nonzero}
    .fil31 {fill:#E6E6BF;fill-rule:nonzero}
    .fil27 {fill:#E6E6E6;fill-rule:nonzero}
    .fil17 {fill:#E6E6E6;fill-rule:nonzero}
    .fil13 {fill:#EA8E50;fill-rule:nonzero}
    .fil34 {fill:#ED975D;fill-rule:nonzero}
    .fil26 {fill:#ED985F;fill-rule:nonzero}
    .fil4 {fill:#EFA26F;fill-rule:nonzero}
    .fil28 {fill:#FFA412;fill-rule:nonzero}
    .fil20 {fill:#FFB07B;fill-rule:nonzero}
    .fil2 {fill:#FFB27D;fill-rule:nonzero}
    .fil12 {fill:#FFC197;fill-rule:nonzero}
    .fil11 {fill:#FFD3B6;fill-rule:nonzero}
    .fil29 {fill:#FFFFD4;fill-rule:nonzero}
    .fil0 {fill:#BABCBD;fill-rule:nonzero}
    .fil36 {fill:url(#id0);fill-rule:nonzero}
    .fil21 {fill:url(#id1);fill-rule:nonzero}
    .fil32 {fill:url(#id2);fill-rule:nonzero}
    .fil23 {fill:url(#id3);fill-rule:nonzero}
   ]]>
  </style>
  <linearGradient id="id0" gradientUnits="userSpaceOnUse" x1="1403.71" y1="1062.93" x2="1526.87" y2="1062.98">
   <stop offset="0" style="stop-opacity:1; stop-color:#89DE00"/>
   <stop offset="1" style="stop-opacity:1; stop-color:#097210"/>
  </linearGradient>
  <linearGradient id="id1" gradientUnits="userSpaceOnUse" xlink:href="#id0" x1="146.34" y1="967.59" x2="406.64" y2="967.73">
  </linearGradient>
  <linearGradient id="id2" gradientUnits="userSpaceOnUse" xlink:href="#id0" x1="1321.34" y1="1053.11" x2="1473.23" y2="1053.18">
  </linearGradient>
  <linearGradient id="id3" gradientUnits="userSpaceOnUse" xlink:href="#id0" x1="160.11" y1="958.5" x2="518.58" y2="958.85">
  </linearGradient>
 </defs>
 <g id="Layer_x0020_1">
  <metadata id="CorelCorpID_0Corel-Layer"/>
  <g id="_777417807968">
   <path class="fil0" d="M2287.68 1628.25c0,65.75 -488.03,119.05 -1090.04,119.05 -602.02,0 -1090.05,-53.3 -1090.05,-119.05 0,-65.75 488.03,-119.05 1090.05,-119.05 602.01,0 1090.04,53.3 1090.04,119.05z"/>
   <path class="fil1" d="M2081.31 1618.3l-1882.98 -0.64c0,0 -318.21,-438.55 -148.5,-731.92 169.71,-293.38 417.58,-86.28 438.25,-298.24 0.7,-7.17 0.14,-14.27 0.14,-21.2 -0.01,-1.65 0.02,-3.28 0.11,-4.91 6.35,-121.72 85.78,-200.39 190.59,-245.65 3.38,-1.47 6.79,-2.89 10.22,-4.28 167.14,-67.74 393.15,-53.8 493.2,4.44 170.23,99.09 169.17,218.36 520.69,179.02 351.51,-39.33 418.56,289.65 327.05,457.26 -129.85,237.84 360.03,198.77 51.22,666.12z"/>
   <path class="fil2" d="M1420.18 731.57l-58.39 -57.48 -57.3 -56.4c-2.78,-3.31 -3.35,-6.66 -2.41,-10.01 2.95,-10.52 20.77,-20.96 31.18,-29.73l1.05 -0.89c13.71,-11.57 34.39,-9.81 45.95,3.9l70.05 83.04 0.01 0 20.77 24.63c11.57,13.71 9.81,34.39 -3.9,45.95l-1.05 0.89c-13.71,11.57 -34.39,9.81 -45.96,-3.9z"/>
   <path class="fil2" d="M1437.17 361.69c-0.67,7.32 -8.94,19.11 -23.8,20.88 -75.07,8.94 -121.83,-14.75 -124.01,-14.72 -57.07,0.27 -97.5,-20.52 -109.72,-9.76 -0.45,0.39 -0.33,1.24 0.31,2.45 11.19,21.71 184.39,166.12 186.91,182.14 2.66,16.92 -322.18,96.52 -322.18,96.52 0,0 -47.99,-29.92 -101.73,-69.19 -27.26,-19.89 -55.97,-42.18 -80.66,-64.2 -24.9,-22.16 -45.72,-44.09 -56.84,-62.98l-0.06 -0.13c-1.68,-2.82 -3.12,-5.59 -4.31,-8.28 -0.19,-0.43 -0.37,-0.81 -0.51,-1.17 -8.69,-20.41 -23.5,-38.39 -40.34,-53.69 -43.62,-39.64 -100.84,-61.43 -100.84,-61.43l238.53 -127.28c0,0 219.01,25.74 254.05,47 51.06,31.01 158,53.74 178.58,65.76 15.27,8.9 95.74,37.8 101.63,40.39 2.52,1.14 5.87,8.55 4.99,17.69z"/>
   <path class="fil3" d="M822.46 154.36c0,0 -0.06,0.48 -0.19,1.4l0 0.01c-0.97,7.17 -5.9,40.85 -16.98,79.26l0 0.02c-0.42,1.41 -0.83,2.85 -1.26,4.28l0 0.01c-0.19,0.64 -0.39,1.29 -0.58,1.93l0 0.01c-13.78,45.59 -36.18,96.11 -70.76,116.48l-0.02 0c-1.98,1.16 -4,2.23 -6.06,3.2 -4.79,2.23 -9.8,3.89 -15.04,4.89 -3.87,0.76 -7.83,1.15 -11.95,1.15 0,0 -30.33,-3.65 -75.71,-9.17 -2.48,-0.3 -5.01,-0.62 -7.59,-0.94 -82.03,-10.01 -207.41,-25.52 -294.84,-37.21 -0.01,-2.11 0.03,-4.18 0.14,-6.26 8.11,-155.3 109.44,-255.67 243.17,-313.41 71.02,42.47 137.56,82.33 185.24,110.92l0.04 0.02 0.11 0.07c3.04,1.83 6.03,3.61 8.91,5.33l0.18 0.11c39.02,23.41 63.2,37.92 63.2,37.92z"/>
   <path class="fil4" d="M841.07 334.57c0.1,0.21 0.24,0.41 0.28,0.62 22.42,141.72 104.7,118.34 104.7,118.34l-3.09 116.49c-27.26,-19.89 -55.97,-42.18 -80.66,-64.2 -24.9,-22.16 -45.72,-44.09 -56.84,-62.98l-0.06 -0.13c-1.94,-3.51 -3.39,-6.31 -4.31,-8.28 -0.19,-0.43 -0.37,-0.81 -0.51,-1.17 -8.69,-20.41 -23.5,-38.39 -40.34,-53.69 8.75,-14.96 18.98,-31.97 29.09,-48.62 12.32,-20.24 42.54,-18.22 51.74,3.62z"/>
   <path class="fil5" d="M750.18 110.79c0,0 -76.96,66.56 -108.66,113.33l22.97 39.83 -39.07 -3.68c0,0 -19.9,72.22 -9.09,96.6l106.55 10.03 122.82 -196.54 -95.52 -59.59z"/>
   <path class="fil6" d="M623.34 373.26c-3.15,-28.96 24.94,-88.1 24.94,-88.1l94.47 18.86 -72.74 -76.66c16.41,-33.99 55.8,-85.85 80.17,-116.57 12.14,-15.3 20.54,-25.35 20.54,-25.35 69.96,53.18 135.1,106.17 135.1,106.17 -28.56,11.07 -55.29,41.11 -77.52,74.31 -36.96,55.17 -61.53,119.06 -61.53,119.06 -56.7,-5.35 -143.43,-11.71 -143.43,-11.71z"/>
   <path class="fil7" d="M623.34 373.26c-3.15,-28.96 24.94,-88.1 24.94,-88.1l94.47 18.86 -72.74 -76.66c16.41,-33.99 55.8,-85.85 80.17,-116.57 1.24,84.72 78.12,155.13 78.12,155.13 -36.96,55.17 -61.53,119.06 -61.53,119.06 -56.7,-5.35 -143.43,-11.71 -143.43,-11.71z"/>
   <path class="fil5" d="M728.35 186.43c6.35,0.66 10.98,6.34 10.32,12.7 -0.66,6.35 -6.35,10.98 -12.7,10.31 -6.35,-0.66 -10.97,-6.34 -10.32,-12.7 0.66,-6.35 6.34,-10.97 12.7,-10.31z"/>
   <polygon class="fil8" points="865.18,455.02 954.25,767.29 1634.01,573.39 1544.94,261.12 "/>
   <polygon class="fil9" points="1656.15,626.73 961,754.93 902.11,435.6 1597.26,307.4 "/>
   <path class="fil8" d="M1580.39 602.85l-140.41 25.89 -0.03 0 -16.76 3.09 -0.02 0 -87.83 16.2 -8.15 1.51 -61.97 11.43 -19.61 3.61 -12.58 2.33 -9 1.66 -29.32 5.4 -12.13 2.23 -7.37 1.37 -7 1.29 -5.61 1.02 -24.82 4.58 -7.04 1.3 -107.49 19.81c-16.8,3.1 -32.92,-8 -36.02,-24.8l-16.8 -91.12 -17.37 -94.15c-3.1,-16.8 8.01,-32.93 24.81,-36.03l253.7 -46.78 118.79 -21.91 33.82 -6.24 0.03 0 42.54 -7.84 1.39 -0.26 0.02 0 106.87 -19.7c16.8,-3.1 32.92,8 36.02,24.8l34.17 185.27c0.95,5.2 0.55,10.36 -0.96,15.06 -3.37,10.48 -12.25,18.82 -23.84,20.97zm38.62 -25.17l-29.66 -160.83 -0.02 -0.06 -14.6 -79.2 -7.58 1.4 -130.19 24.01 -0.02 0 -1.48 0.28 -97.52 17.97 -12.47 2.3 -0.02 0 -104.55 19.29 -274.86 50.69 -0.05 0.01 -0.18 0.04 -4.67 0.86 -0.14 0.01 -0.11 0.03 -6.99 1.29 10.56 57.29 12.35 66.98 26.69 144.69 150.21 -27.7 6.69 -1.23 24.91 -4.6 5.54 -1.03 7.31 -1.34 6.67 -1.23 12.74 -2.35 31.08 -5.73 8.81 -1.62 12.23 -2.26 10.67 -1.97 62.39 -11.5 0.02 0 12.67 -2.34 9.98 -1.84 86.37 -15.93 77.61 -14.31 28.36 -5.23 86.57 -15.96 -5.33 -28.89z"/>
   <path class="fil10" d="M1292.21 610.29c-44.35,7.34 -86.26,-22.66 -93.61,-67.01 -7.34,-44.35 22.67,-86.26 67.02,-93.6 44.35,-7.34 86.26,22.66 93.61,67.01 7.33,44.35 -22.66,86.26 -67.02,93.6z"/>
   <path class="fil10" d="M1122.59 591.5c-16.37,2.71 -31.85,-8.37 -34.56,-24.74 -2.71,-16.37 8.37,-31.85 24.74,-34.56 16.37,-2.71 31.85,8.37 34.56,24.74 2.71,16.37 -8.36,31.85 -24.74,34.56z"/>
   <path class="fil10" d="M1445.81 531.89c-16.38,2.71 -31.85,-8.37 -34.56,-24.74 -2.71,-16.37 8.36,-31.85 24.74,-34.56 16.37,-2.71 31.85,8.37 34.56,24.74 2.71,16.37 -8.36,31.84 -24.73,34.56z"/>
   <path class="fil2" d="M1204.31 740.03l-2.57 -6.91 -17.23 -46.43c-0.4,-1.09 -0.74,-2.19 -1.01,-3.29 -3.87,-15.36 4.44,-31.6 19.61,-37.24l1.78 -0.66c16.26,-6.04 34.51,2.33 40.54,18.59l16.07 43.29 1.16 3.15 2.56 6.91c6.04,16.26 -2.33,34.49 -18.58,40.52l-1.78 0.67c-16.26,6.04 -34.5,-2.33 -40.53,-18.59z"/>
   <path class="fil11" d="M1203.54 702.43c-2.87,-7.75 -7.95,-21.78 -8.98,-29.26 -0.28,-2.12 0.89,-6.01 4.91,-9.62 2.41,-2.17 5.82,-4.23 10.55,-5.74 2.22,-0.71 4.44,-1.3 6.72,-1.53 2.66,-0.27 5.33,-0.17 7.96,0.31 2.38,0.44 4.53,2.09 5.65,4.46l0.02 0.04c3.74,7.98 8.28,18.74 10.79,28.16 1.74,6.51 -1.17,13.07 -6.88,15.07l-2.67 0.96 -13.64 4.86c-5.67,2.01 -12.11,-1.38 -14.44,-7.71z"/>
   <path class="fil12" d="M1203.54 702.43c-2.87,-7.75 -7.95,-21.78 -8.98,-29.26 -0.28,-2.12 0.89,-6.01 4.91,-9.62 0.91,-0.38 1.87,-0.73 2.89,-1.06 2.23,-0.71 4.44,-1.29 6.72,-1.53 2.67,-0.27 5.33,-0.17 7.97,0.31 2.38,0.44 4.53,2.08 5.65,4.46l0.02 0.04c3.74,7.98 8.28,18.74 10.79,28.16 1.11,4.17 0.32,8.36 -1.9,11.35l-13.64 4.86c-5.67,2.01 -12.11,-1.38 -14.44,-7.71z"/>
   <path class="fil2" d="M1139.38 718.52l-9.44 -35.78c-2.87,-10.87 3.67,-22.11 14.55,-24.98l4.04 -1.07c10.87,-2.87 22.12,3.68 24.98,14.55l9.45 35.78c2.87,10.87 -3.69,22.11 -14.55,24.98l-4.06 1.07c-10.86,2.87 -22.11,-3.68 -24.98,-14.55z"/>
   <path class="fil11" d="M1141.28 699.23c-1.7,-6.57 -4.69,-18.45 -4.98,-24.67 -0.11,-2.26 1.84,-6.77 7.8,-9.68 1.45,-0.72 3.11,-1.32 5.05,-1.79 1.76,-0.42 3.49,-0.74 5.25,-0.76 2.07,-0.03 4.11,0.25 6.1,0.84 1.8,0.54 3.34,2.04 4.05,4.07l0.02 0.04c2.35,6.82 5.14,15.98 6.46,23.9 0.91,5.46 -1.76,10.62 -6.26,11.87l-3.22 0.9 -9.68 2.67c-4.48,1.24 -9.21,-2.02 -10.59,-7.39z"/>
   <path class="fil12" d="M1141.28 699.23c-1.7,-6.57 -4.69,-18.45 -4.98,-24.67 -0.11,-2.26 1.84,-6.77 7.8,-9.68 1.64,-0.39 3.27,-0.66 4.93,-0.68 2.07,-0.03 4.11,0.25 6.11,0.84 1.79,0.53 3.34,2.04 4.05,4.07l0.02 0.04c2.35,6.82 5.14,15.98 6.46,23.9 0.76,4.52 -0.94,8.85 -4.11,10.9l-9.68 2.67c-4.48,1.24 -9.21,-2.02 -10.59,-7.39z"/>
   <path class="fil2" d="M1272.74 739.43c-0.1,-0.25 -0.18,-0.51 -0.26,-0.77l-11.66 -46.9c-5.12,-20.62 6.17,-41.82 25.12,-47.1l9.7 -2.71c18.18,-5.08 37.06,6.29 43.07,25.46l3.85 15.48 7.8 31.42c5.13,20.62 -6.17,41.82 -25.11,47.1l-9.71 2.71c-17.93,5 -36.54,-5.99 -42.81,-24.69z"/>
   <path class="fil11" d="M1285.97 718.09l-10.07 -22.82 -0.04 -0.15c-0.23,-0.91 -0.41,-1.84 -0.54,-2.75 -0.06,-0.38 -0.1,-0.77 -0.13,-1.15 -0.02,-0.16 -0.02,-0.32 -0.01,-0.48 0.1,-2.51 2.77,-4.2 5.14,-3.1 4.66,2.19 10.07,2.81 15.4,1.41l1.99 -0.53 0.06 -0.02 6.46 -1.71c5.16,-1.35 9.48,-4.29 12.63,-8.14 0.39,-0.46 0.74,-0.94 1.08,-1.43 3.15,-4.47 10.19,-3.28 11.61,2l0.04 0.15 3.58 24.98c1.63,6.18 -3.17,12.08 -9.35,13.72l-7.37 1.95 -15.71 4.14c-6.2,1.63 -13.17,0.11 -14.79,-6.07z"/>
   <path class="fil12" d="M1285.97 718.09l-10.07 -22.82 -0.04 -0.15c-0.09,-0.53 -0.36,-2.2 -0.68,-4.39 0.1,-2.51 2.77,-4.2 5.14,-3.1 4.66,2.19 10.07,2.81 15.4,1.41l1.99 -0.53 0.06 -0.02 6.46 -1.71c5.16,-1.35 9.48,-4.29 12.63,-8.14 1.17,0.81 2.09,2.02 2.52,3.6l0.04 0.14 3.58 24.99c1.38,5.2 -1.81,10.2 -6.54,12.64l-15.71 4.14c-6.2,1.63 -13.17,0.11 -14.79,-6.07z"/>
   <path class="fil2" d="M1128.43 306.31c0,0 -11.5,-89.72 23.54,-68.44 51.06,31.01 157.99,53.73 178.58,65.74 15.27,8.91 95.75,37.81 101.62,40.41 2.53,1.13 7.41,11 2.7,20.66 -3.22,6.62 -11.26,18.79 -25.2,24.21 -50.01,19.45 -118.13,-21.05 -120.3,-21.04 -57.08,0.28 -112.56,-6.1 -128.68,-3.8 -5.61,0.81 -32.26,-57.74 -32.26,-57.74z"/>
   <path class="fil12" d="M1438.15 345.49l-56.5 -20.54c0,0 -5.51,11.22 -2.8,18.29 2.7,7.07 55.04,19.5 59.3,2.25z"/>
   <path class="fil13" d="M512.63 1043.73l11.25 9.13c0,0 30.76,-11.04 37.7,25.52 0,0 1.85,15.58 -8.02,15.61 -9.87,0.03 -5.8,-1.7 -19.77,-1.3 -13.97,0.41 -25.56,-6.96 -27.6,-18.29l-6.69 -9.61 13.13 -21.06z"/>
   <path class="fil14" d="M511.36 1063.32c8.97,-9.37 8.25,-16.3 8.25,-16.3 0,0 -103.89,-85.06 -114.42,-91.98 -7.18,-4.72 -83.69,-72.54 -119.45,-113.9 -17.74,-20.51 -39.71,-12.55 -64.85,-5.34l-20.7 5.94c-25,7.17 -31.5,42.14 -10.99,59.12 57.77,47.85 153.87,101.67 171.85,112.99 44.64,28.08 132.02,61.44 132.02,61.44 0,0 10.6,-3.94 18.3,-11.98z"/>
   <path class="fil15" d="M629.91 1585.87c0,0 25.21,18.89 63.84,8.92 0,0 31.14,-7.1 37.98,8.43 0,0 -47.76,24.26 -59.85,30.9 -9.11,5 -18.62,12.9 -25.34,19 -5.32,4.83 -13.61,4.17 -18.14,-1.41 -2.1,-2.58 -4.51,-5.65 -7.14,-9.23 -7.37,-9.98 -24.53,-42.22 -24.53,-42.22l33.18 -14.4z"/>
   <path class="fil16" d="M342.28 895.79c0,-97.35 78.92,-176.27 176.27,-176.27 97.35,0 176.27,78.92 176.27,176.27 0,97.35 -78.92,176.27 -176.27,176.27 -97.35,0 -176.27,-78.92 -176.27,-176.27z"/>
   <path class="fil17" d="M326.9 895.79c0,-97.35 78.92,-176.27 176.27,-176.27 97.35,0 176.27,78.92 176.27,176.27 0,97.35 -78.92,176.27 -176.27,176.27 -97.35,0 -176.27,-78.92 -176.27,-176.27z"/>
   <path class="fil6" d="M503.17 746.85c-83.27,0 -151.02,67.75 -151.02,151.02 0,83.27 67.75,151.01 151.02,151.01 83.27,0 151.02,-67.74 151.02,-151.01 0,-83.28 -67.75,-151.02 -151.02,-151.02zm0 311.63c-42.9,0 -83.23,-16.7 -113.56,-47.05 -30.33,-30.33 -47.04,-70.66 -47.04,-113.56 0,-42.9 16.7,-83.23 47.04,-113.57 30.33,-30.33 70.67,-47.04 113.56,-47.04 42.9,0 83.23,16.7 113.56,47.04 30.33,30.33 47.04,70.67 47.04,113.57 0,42.9 -16.7,83.23 -47.04,113.56 -30.33,30.34 -70.67,47.05 -113.56,47.05z"/>
   <path class="fil16" d="M525.28 944.48c0.41,-3.46 0.28,-6.57 -0.38,-9.32 -0.67,-2.76 -1.98,-5.34 -3.94,-7.75 -1.96,-2.4 -4.59,-4.72 -7.89,-6.96 -3.29,-2.23 -7.36,-4.51 -12.22,-6.83 -8.34,-4.09 -15.86,-8.22 -22.57,-12.4 -6.7,-4.19 -12.33,-8.76 -16.87,-13.74 -4.54,-4.97 -7.86,-10.55 -9.96,-16.73 -2.1,-6.19 -2.67,-13.32 -1.72,-21.41 0.83,-7.01 2.83,-13.25 6,-18.73 3.17,-5.47 7.32,-10.08 12.44,-13.82 5.12,-3.74 11.06,-6.57 17.82,-8.49 6.76,-1.91 14.17,-2.77 22.25,-2.56l3.14 -26.47 21.31 2.53 -3.19 26.84c7.52,1.9 14.2,4.74 20.05,8.53 5.85,3.78 10.67,8.37 14.44,13.75 3.77,5.39 6.44,11.54 8.01,18.45 1.56,6.92 1.86,14.51 0.88,22.75l-38.48 -4.57c1.17,-9.9 -0.15,-17.56 -3.96,-22.99 -3.81,-5.42 -9.41,-8.57 -16.78,-9.45 -3.99,-0.48 -7.5,-0.33 -10.52,0.44 -3.02,0.77 -5.57,2.02 -7.67,3.74 -2.09,1.72 -3.74,3.83 -4.94,6.37 -1.2,2.53 -1.98,5.32 -2.34,8.37 -0.36,3.05 -0.25,5.87 0.35,8.44 0.59,2.58 1.85,5.05 3.78,7.42 1.93,2.36 4.57,4.68 7.95,6.96 3.38,2.29 7.61,4.73 12.7,7.35 8.22,4.24 15.67,8.46 22.33,12.68 6.65,4.22 12.25,8.84 16.79,13.85 4.54,5.01 7.85,10.61 9.96,16.8 2.1,6.19 2.67,13.28 1.72,21.28 -0.86,7.26 -2.9,13.63 -6.11,19.09 -3.22,5.47 -7.38,10.04 -12.5,13.7 -5.11,3.65 -11.09,6.37 -17.92,8.16 -6.83,1.78 -14.28,2.57 -22.35,2.36l-2.93 24.62 -21.17 -2.51 2.91 -24.5c-7.28,-1.61 -14.22,-4.07 -20.8,-7.36 -6.59,-3.29 -12.27,-7.58 -17.04,-12.87 -4.77,-5.29 -8.33,-11.68 -10.69,-19.15 -2.35,-7.47 -2.94,-16.15 -1.77,-26.04l38.48 4.56c-0.7,5.86 -0.46,10.84 0.72,14.95 1.18,4.11 3,7.51 5.48,10.19 2.47,2.67 5.41,4.7 8.8,6.06 3.39,1.35 6.91,2.26 10.55,2.69 4.17,0.49 7.9,0.39 11.18,-0.3 3.28,-0.7 6.09,-1.88 8.45,-3.52 2.35,-1.65 4.22,-3.7 5.59,-6.18 1.38,-2.47 2.24,-5.23 2.61,-8.28z"/>
   <path class="fil18" d="M644.71 1576.27c0,0 -15.35,35.4 -50.79,28.89 0,0 -72.31,-59.72 -121.91,-121.75 -16.11,-20.15 -29.83,-40.54 -37.89,-59.2 -32.89,-76.16 -121.67,-189.74 -178.11,-247.3l141.22 -51.09c0,0 45.23,91 105.42,202.76 43.37,80.54 94.5,171.86 142.06,247.7z"/>
   <path class="fil19" d="M502.65 1328.58l-30.64 154.84c-16.11,-20.15 -29.83,-40.54 -37.89,-59.2 -32.89,-76.16 -121.67,-189.74 -178.11,-247.3l141.22 -51.09c0,0 45.23,91 105.42,202.76z"/>
   <path class="fil15" d="M387.22 1606.41c0,0 -1.54,28.25 32.7,32.02 0,0 21.19,0.56 21.25,18.52l-103.12 -0.03c0,0 -0.91,-7.35 -1.61,-22.88 -0.54,-11.93 11.56,-43.11 11.56,-43.11l39.22 15.48z"/>
   <path class="fil18" d="M350.91 1125.82c0,0 62.91,69.13 102.85,193.67 21.73,67.76 -39.83,238.13 -51.82,297.32 0,0 -41.29,3.5 -69.52,-7.41 0,0 -2.15,-122.26 14.37,-216.49 9.24,-52.73 -82.83,-112.78 -123.07,-208.07 -27.37,-64.82 5.93,-63.73 46.84,-65.29l80.36 6.27z"/>
   <path class="fil20" d="M278.29 817.41c-35,19.76 -106.66,1.54 -106.66,1.54 0,0 29.1,-33.27 15.88,-86.85l27.48 13.96 29.52 15c0,0 1.91,9.46 3.24,26.46 0.33,4.38 0.64,9.27 0.85,14.61 17.97,5.44 29.69,15.3 29.69,15.3z"/>
   <path class="fil21" d="M406.64 1122.25c0,6.15 -7.09,9.09 -8.59,9.4 -14.11,2.58 -53.54,17.91 -89.04,21.43 -29.9,3.13 -57.66,0.16 -88.16,-5.96 -4.04,-0.81 -13.52,-3.36 -14.2,-7.24 -0.84,-4.23 -117.64,-238.1 -26.84,-338.56 2.13,-2.35 20.06,1.89 36.44,5.78 15.14,3.59 29.02,1.59 41.42,-3.39l15.37 8.09c18.88,10.52 54.59,47.89 58.77,77.21 2.12,14.91 10.65,25.95 13.12,39.07 0.92,4.85 1.85,9.59 2.81,14.21 1.86,9.06 3.78,17.68 5.75,25.88 5.34,22.18 10.98,41.27 16.51,57.77 5.89,17.51 11.67,32.08 16.83,44.26 6.69,15.8 12.35,27.61 15.89,36.65 2.5,6.37 3.93,11.35 3.93,15.41z"/>
   <path class="fil22" d="M402.71 1106.84c-164.87,-77.67 -221.98,-226.83 -221.98,-226.83 0,0 133.96,49.41 167,62.28 1.86,9.06 3.78,17.68 5.75,25.88 5.34,22.18 10.98,41.27 16.51,57.77 5.89,17.51 11.67,32.08 16.83,44.26 6.69,15.8 12.35,27.61 15.89,36.65z"/>
   <path class="fil20" d="M499.17 1061.83l14.25 5.23c0,0 28.53,-20.18 46.3,12.63 0,0 6.43,14.34 -3.74,17.45 -10.17,3.11 -6.47,0.18 -20.77,4.94 -14.3,4.77 -28.38,1.33 -33.78,-8.87l-9.69 -7.11 7.43 -24.26z"/>
   <path class="fil23" d="M510.9 1081.98c5.26,-13.75 7.67,-19.97 7.67,-19.97 0,0 -107.66,-87.74 -118.63,-95.28 -7.48,-5.13 -81.89,-60.74 -118.17,-104.1 -18,-21.5 -46.37,-31.33 -73.82,-25.58l-22.6 4.74c-27.29,5.72 -36.15,40.26 -14.98,58.41 59.62,51.11 160.17,110.38 178.92,122.71 46.54,30.61 149.49,73.5 149.49,73.5 0,0 7.98,-3.65 12.12,-14.44z"/>
   <path class="fil13" d="M247.75 787.51c-34.43,1.93 -56.81,-26.48 -56.81,-26.48 0,0 15.56,-8.62 24.05,-14.97l29.52 15c0,0 1.91,9.46 3.24,26.46z"/>
   <path class="fil20" d="M262.41 752.17c0,0 -52.15,37.43 -74.96,4.59 -22.81,-32.84 -44.9,-50.12 -12.56,-75.41 32.33,-25.28 47.57,-17.3 57.85,-8.19 10.28,9.11 42.65,68.42 29.67,79z"/>
   <path class="fil24" d="M238.25 643.51c-1.87,-12.62 -6.08,-21.5 -6.08,-21.5 0,0 -3.28,13.56 -28.05,11.69 -24.78,-1.87 -64.04,2.44 -77.13,30.67 -0.83,1.8 -1.58,3.65 -2.24,5.54 -2.37,-6.26 -2.94,-15.64 -2.94,-15.64 -4.71,12.15 0,27.35 0,27.35l0 0c-0.07,0.44 -0.13,0.89 -0.19,1.33 -5.47,4.62 -10.06,18.99 -10.06,18.99 1.65,-4 5.67,-6.62 9.26,-8.24 -0.11,21.97 8.8,43.45 24.44,49.84 22.87,9.35 22.68,2.22 45.68,17.47 0,0 6.17,-7.65 1.96,-12.8 -4.21,-5.14 -20.1,-12.62 -11.22,-20.1 8.88,-7.48 12.15,0.93 15.43,-4.21 3.27,-5.14 -13.09,-20.1 7.95,-34.13 21.04,-14.02 35.06,-33.66 33.19,-46.28z"/>
   <path class="fil2" d="M2024.71 1013.76c0,0 3.61,2.49 4.97,7.9 1.05,4.15 -0.02,10.55 -0.35,15.64 -0.7,10.84 14.3,26.76 24,32.31 9.68,5.54 0,-23.08 0,-30 0,-6.93 2.76,-12.01 -5.08,-27.7 -7.84,-15.69 -23.54,1.85 -23.54,1.85z"/>
   <path class="fil19" d="M1806 748.76c-2.87,-36.43 36.7,-61.4 67.93,-42.45 0.66,0.39 1.27,0.79 1.91,1.19 46.78,30.1 136.59,152.54 149.9,176.9 13.86,25.38 32.19,133.78 32.19,133.78 0,0 -25.34,9.27 -37.19,-0.34 0,0 -39.64,-94 -54.2,-110.12 -15.35,-17 -157.31,-95.47 -158.64,-128.76 -0.37,-8.8 -1.07,-19.39 -1.91,-30.19z"/>
   <path class="fil15" d="M2092.14 1571c0,0 18.85,17.21 15.2,29.44 -3.7,12.23 -20.72,20.38 -23.02,35.33 -2.3,14.94 -11.5,23.09 -19.78,23.09 -8.28,0 -39.46,0 -39.46,0 0,0 -6.11,-10.51 8.61,-13.69 14.72,-3.17 20.28,-20.73 19.36,-37.04 -0.92,-16.3 1.38,-38.04 1.38,-38.04l31.27 -7.25 6.44 8.15z"/>
   <path class="fil15" d="M1857.04 1615.51c0,0 3.37,39.17 -4.91,43.25l-105.95 -0.22c0,0 0,-12.23 17.02,-14.95 17.02,-2.71 46.91,-12.68 51.97,-34.87 5.08,-22.2 41.87,6.79 41.87,6.79z"/>
   <path class="fil25" d="M1767.59 1062.25c0,0 5.58,68.66 12.15,151.19 8.93,112.1 19.67,249.8 20.72,275.9 1.84,45.3 9.22,117.75 9.22,117.75 0,0 17.45,17.22 52.43,9.96 0,0 31.17,-103.44 40.06,-212.88 0.15,-1.8 0.28,-3.6 0.42,-5.41 8.28,-111.41 21.15,-346.01 21.15,-346.01l-156.14 9.51z"/>
   <path class="fil3" d="M1767.59 1062.25c0,0 5.58,68.66 12.15,151.19l122.42 190.73c0.15,-1.8 0.28,-3.6 0.42,-5.41 8.28,-111.41 21.15,-346.01 21.15,-346.01l-156.14 9.51z"/>
   <path class="fil25" d="M1796.84 1070.4c0,0 100.74,248.64 166.98,365.49 66.22,116.85 86.92,149.46 86.92,149.46 0,0 37.95,-14.95 41.39,-25.14 0,0 -25.32,-225.58 -69.69,-280.57 -25.06,-31.07 -54.49,-124.32 -55.89,-156.93 -1.38,-32.61 -8.96,-97.15 -8.96,-97.15l-160.76 44.84z"/>
   <path class="fil2" d="M1879.95 697.43c0,0 -67.47,34.23 -107,22.81 0,0 5.41,-7.12 15.33,-14.67 6.37,-4.85 9.68,-12.75 8.41,-20.65 -0.39,-2.46 -0.72,-4.78 -1.01,-6.95 -1.93,-13.35 -1.64,-22.93 -1.64,-22.93l25.45 -19.21 24.55 -20.28c-0.87,55.68 35.92,81.89 35.92,81.89z"/>
   <path class="fil18" d="M1947.01 1045.24c-27.26,16.49 -53.06,28.89 -83.24,35.86 -35.61,8.44 -79.39,5.95 -94.02,8.18 -1.51,0.2 -2.93,-0.19 -4.27,-1.08 -1.16,-0.59 -7.62,-44.03 -14.08,-98.85 -0.31,-2.21 -0.59,-4.44 -0.72,-6.67l-0.09 -0.74c-2.52,-21.43 -4.73,-43.95 -6.66,-66.51 -1.56,-17.56 -2.82,-34.93 -3.72,-51.24 -1.11,-20.41 -1.6,-39.15 -1.11,-54.58 0.2,-7.05 0.61,-13.39 1.25,-18.89 3.85,-32.02 17.24,-55.01 31.62,-72.05l16.62 -13.34c13.84,0.88 25.14,-1.87 38.48,-10.67 14.59,-9.59 30.31,-19.91 33.29,-18.19 22.34,12.22 40.52,43.89 53.5,85.71 7.45,24.07 13.16,51.39 16.82,80.32 1.19,8.98 2.17,18.19 2.94,27.36 0.15,1.7 0.28,3.39 0.41,5.06 1.75,25.07 4.62,48.57 7.8,69.55 4.27,28.3 9.11,52 12.55,68.7 1.73,8.49 3.04,15.06 3.83,19.77 0.7,4.1 -7.53,9.99 -11.19,12.28z"/>
   <path class="fil26" d="M1844.89 636.8c0,0 -16.58,31.74 -49.21,41.16 -2.93,-16.84 -2.08,-43.29 -2.08,-43.29l25.89 1.15 25.4 0.98z"/>
   <path class="fil2" d="M1774.48 642.38c0,0 60.99,24.94 75.88,-12.65 14.91,-37.58 32.83,-59.68 -5.48,-77.19 -38.3,-17.52 -51.59,-6.15 -59.68,5.18 -8.08,11.33 -26.19,77.2 -10.73,84.65z"/>
   <path class="fil24" d="M1891.05 558.25c0.74,-0.53 2.19,-0.75 5.17,-0.24 0,0 -2.02,-2.02 -5.15,-2.82 0.33,-4.25 -0.17,-12.02 -6.85,-15.41 0,0 3.33,2.9 2.83,7.38 -6.24,-10.29 -22.36,-20.44 -71.81,-27.78 -65.17,-9.67 -53.5,36.16 -46.34,42.95 7.16,6.79 31.1,-1.81 46.25,2.97 15.15,4.78 12.96,27.76 17.5,32.02 4.53,4.27 3.7,-1.62 11.54,-3.19 7.82,-1.57 5.78,10.33 1.99,17.49 -3.81,7.17 3.61,19.47 3.61,19.47 0,0 0,0 12.26,-8.33 12.29,-8.33 31.89,-51.07 29.61,-61.67 -0.2,-0.94 -0.4,-1.88 -0.61,-2.84z"/>
   <path class="fil19" d="M1853.48 813.19c0,0 -54.97,41.84 -113.27,51.01 -1.11,-20.41 -1.6,-39.15 -1.11,-54.58l114.38 3.57z"/>
   <path class="fil2" d="M1528.07 668.75c-0.55,-1.15 -0.17,-40.27 -19.5,-43.4 -12.61,-2.04 -45.29,-10.76 -44.98,6.78 0.12,6.9 41.02,49.47 41.02,49.47l23.45 -12.85z"/>
   <path class="fil18" d="M1865.06 745.08c24.4,27.2 8.15,71.07 -28.19,75 -0.74,0.08 -1.49,0.15 -2.23,0.21 -55.45,4.5 -213.18,-40.68 -235.01,-52.75 -36.23,-20.05 -98.36,-83.44 -98.36,-83.44 0,0 14.5,-22.75 29.75,-22.31 0,0 83.16,52.97 112.94,59.31 20.08,4.28 179.95,-24.47 201.26,1.15 5.61,6.78 12.61,14.76 19.84,22.82z"/>
   <path class="fil2" d="M2052.87 1023.73c0,0 2.96,6.53 5.06,11.6 2.08,5.08 3.24,14.55 1.62,13.63 -1.6,-0.93 -7.38,-7.67 -9.22,-11.11 -1.84,-3.44 2.54,-14.12 2.54,-14.12z"/>
   <path class="fil25" d="M1526.55 1470.76c-3.46,0 -7.44,-0.18 -11.96,-0.56 -49.35,-4.15 -131.13,-34.7 -137.3,-75.41l0 0c-10.05,2.48 -29.95,22.57 -44.28,38.26l-0.02 0.03c-2.19,2.73 -5.47,6.45 -10.17,11.41l-0.01 0.01 -0.01 0.01c-1.97,2.26 -3.56,4.13 -4.67,5.43l-0.07 0.09 -0.03 0.04c-1.7,2.15 -3.31,4.42 -4.88,6.8l-9.77 -2.87c10.05,-12.91 18.23,-19.83 18.23,-19.83l0 0c38.75,-39.17 49.5,-80.09 49.5,-80.09 0,0 -74.75,-76.45 -12.97,-132.18 0,0 45.7,-31.94 84.65,-32.14 0,0 -48.93,95.81 -30.54,103.81 0.6,0.26 1.2,0.39 1.83,0.39 18.38,-0.01 45.01,-111.08 45.01,-111.08 0,0 54.06,-8.85 98.35,-8.85 18.19,0 34.74,1.5 45.2,5.71 0,0 -87.61,81.83 -67.82,85.07 0.39,0.06 0.81,0.09 1.25,0.09 22.24,0 113.67,-77.79 113.67,-77.79 0,0 101.92,10.54 100.58,72.39 -1.33,60.96 -33.88,82.49 -49.51,82.48 -0.24,0 -0.46,0 -0.68,-0.01 -12.57,-0.52 -76.04,-19.48 -99.4,-19.48 -5.22,0 -8.43,0.94 -8.63,3.25 -1.13,12.54 54.46,49.44 92.22,49.44 0.28,0 0.57,-0.01 0.85,-0.01 0,0 -52.78,66.48 -98.8,66.48 -5.41,0 -10.72,-0.91 -15.84,-2.97 -48.71,-19.52 -55.1,-55.11 -85.43,-66.62 -13.68,-5.2 -26.31,-7.71 -34.85,-7.71 -10.37,0 -14.7,3.7 -7.54,10.8 13.06,12.92 67.21,22.75 86.01,51.43 17.07,26.04 32.18,44.18 -2.18,44.18zm-150.02 -81.06c0.13,3.25 0.76,5.09 0.76,5.09 -0.26,-1.78 -0.52,-3.46 -0.76,-5.09z"/>
   <path class="fil27" d="M1149.81 1632.03l0 18.23c0,1.46 0.52,2.8 1.44,3.93 0.94,1.19 2.32,2.12 3.93,2.63 0.49,0.17 1,0.29 1.52,0.36 0.48,0.08 0.98,0.12 1.48,0.12l345.97 0c4.47,0 8.14,-2.97 8.37,-6.68 0.01,-0.11 0.01,-0.24 0.01,-0.36l0 -18.23c0,-0.12 0,-0.24 -0.01,-0.36 -0.22,-3.7 -3.9,-6.68 -8.37,-6.68l-345.97 0c-0.5,0 -0.99,0.04 -1.48,0.12 -0.52,0.07 -1.03,0.19 -1.52,0.36 -1.61,0.52 -2.98,1.45 -3.93,2.63 -0.91,1.13 -1.44,2.47 -1.44,3.93z"/>
   <path class="fil6" d="M1319.7 1657.29l185.35 0c3.98,0 7.26,-2.97 7.46,-6.68 0.01,-0.11 0.01,-0.24 0.01,-0.36l0 -18.23c0,-0.12 0,-0.24 -0.01,-0.36 -0.2,-3.7 -3.48,-6.68 -7.46,-6.68l-162.59 0c-2.6,9.52 -8.64,22.66 -22.76,32.31z"/>
   <polygon class="fil16" points="1191.91,1657.29 1195.84,1657.29 1195.84,1625 1191.91,1625 "/>
   <polygon class="fil16" points="1205.22,1657.29 1209.14,1657.29 1209.14,1625 1205.22,1625 "/>
   <polygon class="fil16" points="1221.18,1657.29 1225.11,1657.29 1225.11,1625 1221.18,1625 "/>
   <polygon class="fil16" points="1245.65,1657.29 1249.57,1657.29 1249.57,1625 1245.65,1625 "/>
   <polygon class="fil16" points="1271.51,1657.29 1275.44,1657.29 1275.44,1625 1271.51,1625 "/>
   <polygon class="fil16" points="1311.18,1657.29 1315.11,1657.29 1315.11,1625 1311.18,1625 "/>
   <polygon class="fil16" points="1348.31,1657.29 1352.25,1657.29 1352.25,1625 1348.31,1625 "/>
   <polygon class="fil16" points="1381.47,1657.29 1385.41,1657.29 1385.41,1625 1381.47,1625 "/>
   <polygon class="fil16" points="1179.23,1657.29 1183.17,1657.29 1183.17,1625 1179.23,1625 "/>
   <polygon class="fil16" points="1170.86,1657.29 1174.8,1657.29 1174.8,1625 1170.86,1625 "/>
   <polygon class="fil16" points="1162.78,1657.29 1166.71,1657.29 1166.71,1625 1162.78,1625 "/>
   <path class="fil16" d="M1156.69 1625.11l0 32.06c0.48,0.08 0.98,0.12 1.48,0.12l2.46 0 0 -32.31 -2.46 0c-0.5,0 -0.99,0.04 -1.48,0.12z"/>
   <path class="fil16" d="M1151.25 1628.1l0 26.08c0.94,1.19 2.32,2.12 3.93,2.63l0 -31.35c-1.61,0.52 -2.98,1.45 -3.93,2.63z"/>
   <path class="fil27" d="M1186.79 1599.73l0 18.23c0,1.46 0.54,2.8 1.44,3.93 0.95,1.19 2.32,2.11 3.93,2.63 0.49,0.17 1,0.29 1.54,0.36 0.48,0.08 0.97,0.11 1.48,0.11l345.97 0c4.46,0 8.13,-2.96 8.36,-6.67 0,-0.12 0.01,-0.24 0.01,-0.36l0 -18.23c0,-0.13 -0.01,-0.25 -0.01,-0.36 -0.23,-3.7 -3.91,-6.67 -8.36,-6.67l-345.97 0c-0.22,0 -0.44,0.01 -0.67,0.03 -0.09,0 -0.19,0.01 -0.28,0.02 -0.1,0.01 -0.21,0.02 -0.31,0.04l-0.22 0.03c-0.54,0.07 -1.05,0.19 -1.54,0.36l-0.21 0.07 -0.22 0.08c-0.13,0.05 -0.28,0.11 -0.42,0.17l-0.24 0.11 -0.21 0.1c-0.13,0.07 -0.26,0.14 -0.39,0.21 -0.15,0.09 -0.3,0.18 -0.43,0.27 -0.11,0.07 -0.21,0.14 -0.32,0.22l-0.02 0.02 -0.21 0.15c-0.21,0.17 -0.42,0.34 -0.6,0.53l-0.17 0.16 -0.16 0.17c-0.11,0.12 -0.21,0.24 -0.31,0.36 -0.9,1.11 -1.44,2.47 -1.44,3.93z"/>
   <path class="fil6" d="M1356.68 1624.99l185.35 0c3.98,0 7.26,-2.96 7.47,-6.67 0,-0.12 0.01,-0.24 0.01,-0.36l0 -18.23c0,-0.13 -0.01,-0.25 -0.01,-0.36 -0.21,-3.7 -3.48,-6.67 -7.47,-6.67l-162.58 0c-0.07,0.27 -0.15,0.53 -0.23,0.8 -2.71,9.43 -8.8,22.13 -22.54,31.5z"/>
   <polygon class="fil16" points="1228.89,1624.99 1232.82,1624.99 1232.82,1592.69 1228.89,1592.69 "/>
   <polygon class="fil16" points="1242.2,1624.99 1246.14,1624.99 1246.14,1592.69 1242.2,1592.69 "/>
   <polygon class="fil16" points="1258.17,1624.99 1262.1,1624.99 1262.1,1592.69 1258.17,1592.69 "/>
   <polygon class="fil16" points="1282.64,1624.99 1286.57,1624.99 1286.57,1592.69 1282.64,1592.69 "/>
   <polygon class="fil16" points="1308.51,1624.99 1312.44,1624.99 1312.44,1592.69 1308.51,1592.69 "/>
   <polygon class="fil16" points="1348.17,1624.99 1352.1,1624.99 1352.1,1592.69 1348.17,1592.69 "/>
   <polygon class="fil16" points="1385.31,1624.99 1389.23,1624.99 1389.23,1592.69 1385.31,1592.69 "/>
   <polygon class="fil16" points="1418.46,1624.99 1422.39,1624.99 1422.39,1592.69 1418.46,1592.69 "/>
   <polygon class="fil16" points="1216.22,1624.99 1220.16,1624.99 1220.16,1592.69 1216.22,1592.69 "/>
   <polygon class="fil16" points="1207.86,1624.99 1211.79,1624.99 1211.79,1592.69 1207.86,1592.69 "/>
   <polygon class="fil16" points="1199.78,1624.99 1203.7,1624.99 1203.7,1592.69 1199.78,1592.69 "/>
   <path class="fil16" d="M1193.69 1592.8l0 32.08c0.48,0.07 0.97,0.11 1.48,0.11l2.46 0 0 -32.3 -2.46 0c-0.5,0 -1,0.04 -1.48,0.11z"/>
   <path class="fil16" d="M1188.23 1595.79l0 26.09c0.95,1.19 2.32,2.11 3.93,2.63l0 -31.35c-1.61,0.52 -2.97,1.46 -3.93,2.63z"/>
   <path class="fil27" d="M1168.93 1568.22l0 18.24c0,1.45 0.52,2.8 1.43,3.92 0.94,1.19 2.32,2.12 3.93,2.63 0.49,0.17 1.01,0.29 1.53,0.36 0.48,0.08 0.97,0.12 1.48,0.12l345.97 0c1.39,0 2.71,-0.29 3.87,-0.8 2.45,-1.08 4.19,-3.15 4.46,-5.55 0.02,-0.11 0.03,-0.21 0.03,-0.31 0.01,-0.12 0.01,-0.24 0.01,-0.36l0 -18.24c0,-0.12 0,-0.24 -0.01,-0.36 -0.22,-3.7 -3.89,-6.67 -8.36,-6.67l-345.97 0c-0.5,0 -1,0.03 -1.48,0.11 -0.52,0.08 -1.04,0.19 -1.53,0.36 -1.61,0.52 -2.98,1.44 -3.93,2.63 -0.91,1.12 -1.43,2.47 -1.43,3.93z"/>
   <path class="fil6" d="M1338.81 1593.49l185.35 0c1.23,0 2.41,-0.29 3.44,-0.8 2.19,-1.08 3.74,-3.15 3.98,-5.55 0.02,-0.11 0.03,-0.21 0.03,-0.31 0.01,-0.12 0.01,-0.24 0.01,-0.36l0 -18.24c0,-0.12 0,-0.24 -0.01,-0.36 -0.2,-3.7 -3.48,-6.67 -7.46,-6.67l-162.59 0c-2.53,9.25 -8.32,21.94 -21.62,31.5 -0.37,0.27 -0.76,0.53 -1.14,0.8z"/>
   <polygon class="fil16" points="1211.02,1593.49 1214.95,1593.49 1214.95,1561.2 1211.02,1561.2 "/>
   <polygon class="fil16" points="1224.33,1593.49 1228.26,1593.49 1228.26,1561.2 1224.33,1561.2 "/>
   <polygon class="fil16" points="1240.3,1593.49 1244.22,1593.49 1244.22,1561.2 1240.3,1561.2 "/>
   <polygon class="fil16" points="1264.75,1593.49 1268.69,1593.49 1268.69,1561.2 1264.75,1561.2 "/>
   <polygon class="fil16" points="1290.62,1593.49 1294.56,1593.49 1294.56,1561.2 1290.62,1561.2 "/>
   <polygon class="fil16" points="1330.29,1593.49 1334.23,1593.49 1334.23,1561.2 1330.29,1561.2 "/>
   <polygon class="fil16" points="1367.43,1593.49 1371.36,1593.49 1371.36,1561.2 1367.43,1561.2 "/>
   <polygon class="fil16" points="1400.59,1593.49 1404.52,1593.49 1404.52,1561.2 1400.59,1561.2 "/>
   <polygon class="fil16" points="1198.35,1593.49 1202.29,1593.49 1202.29,1561.2 1198.35,1561.2 "/>
   <polygon class="fil16" points="1189.98,1593.49 1193.91,1593.49 1193.91,1561.2 1189.98,1561.2 "/>
   <polygon class="fil16" points="1181.9,1593.49 1185.83,1593.49 1185.83,1561.2 1181.9,1561.2 "/>
   <path class="fil16" d="M1175.81 1561.31l0 32.07c0.48,0.08 0.97,0.12 1.48,0.12l2.46 0 0 -32.3 -2.46 0c-0.5,0 -1,0.03 -1.48,0.11z"/>
   <path class="fil16" d="M1170.36 1564.3l0 26.08c0.94,1.19 2.32,2.12 3.93,2.63l0 -31.34c-1.61,0.52 -2.98,1.44 -3.93,2.63z"/>
   <path class="fil27" d="M1160.63 1535.93l0 18.23c0,1.46 0.53,2.8 1.44,3.93 0.95,1.19 2.32,2.11 3.93,2.63 0.49,0.17 1,0.29 1.54,0.36 0.48,0.08 0.97,0.12 1.48,0.12l345.97 0c4.46,0 8.13,-2.97 8.36,-6.68 0,-0.12 0.01,-0.24 0.01,-0.36l0 -18.23c0,-0.12 -0.01,-0.24 -0.01,-0.36 -0.21,-3.43 -3.37,-6.23 -7.37,-6.63 -0.33,-0.03 -0.65,-0.05 -1,-0.05l-345.97 0c-0.5,0 -0.99,0.04 -1.48,0.12 -0.53,0.07 -1.04,0.19 -1.54,0.36 -1.61,0.51 -2.97,1.44 -3.93,2.63 -0.91,1.13 -1.44,2.47 -1.44,3.93z"/>
   <path class="fil6" d="M1330.52 1561.2l185.35 0c3.98,0 7.26,-2.97 7.47,-6.68 0,-0.12 0.01,-0.24 0.01,-0.36l0 -18.23c0,-0.12 -0.01,-0.24 -0.01,-0.36 -0.19,-3.43 -3.01,-6.23 -6.59,-6.63 -0.28,-0.03 -0.58,-0.05 -0.88,-0.05l-162.58 0 -0.02 0.05c-2.6,9.5 -8.65,22.63 -22.75,32.26z"/>
   <polygon class="fil16" points="1202.73,1561.2 1206.66,1561.2 1206.66,1528.89 1202.73,1528.89 "/>
   <polygon class="fil16" points="1216.04,1561.2 1219.97,1561.2 1219.97,1528.89 1216.04,1528.89 "/>
   <polygon class="fil16" points="1232,1561.2 1235.94,1561.2 1235.94,1528.89 1232,1528.89 "/>
   <polygon class="fil28" points="1256.47,1561.2 1260.41,1561.2 1260.41,1528.89 1256.47,1528.89 "/>
   <polygon class="fil16" points="1282.34,1561.2 1286.28,1561.2 1286.28,1528.89 1282.34,1528.89 "/>
   <polygon class="fil16" points="1322.01,1561.2 1325.94,1561.2 1325.94,1528.89 1322.01,1528.89 "/>
   <polygon class="fil16" points="1359.14,1561.2 1363.07,1561.2 1363.07,1528.89 1359.14,1528.89 "/>
   <polygon class="fil16" points="1392.3,1561.2 1396.23,1561.2 1396.23,1528.89 1392.3,1528.89 "/>
   <polygon class="fil16" points="1190.06,1561.2 1193.99,1561.2 1193.99,1528.89 1190.06,1528.89 "/>
   <polygon class="fil16" points="1181.69,1561.2 1185.62,1561.2 1185.62,1528.89 1181.69,1528.89 "/>
   <polygon class="fil16" points="1173.61,1561.2 1177.54,1561.2 1177.54,1528.89 1173.61,1528.89 "/>
   <path class="fil16" d="M1167.53 1529l0 32.07c0.48,0.08 0.97,0.11 1.48,0.11l2.46 0 0 -32.3 -2.46 0c-0.5,0 -0.99,0.04 -1.48,0.11z"/>
   <path class="fil16" d="M1162.07 1532l0 26.08c0.95,1.19 2.32,2.11 3.93,2.63l0 -31.35c-1.61,0.52 -2.97,1.45 -3.93,2.64z"/>
   <path class="fil27" d="M1186.07 1503.68l0 18.23c0,1.46 0.52,2.8 1.43,3.92 0.96,1.19 2.32,2.11 3.93,2.63 0.49,0.16 1,0.28 1.52,0.36 0.17,0.03 0.33,0.05 0.49,0.06 0.09,0.01 0.18,0.02 0.27,0.03 0.09,0.01 0.18,0.01 0.27,0.01 0.15,0.01 0.3,0.01 0.45,0.01l345.97 0c4.47,0 8.14,-2.96 8.37,-6.67 0.01,-0.12 0.01,-0.24 0.01,-0.36l0 -18.23c0,-0.13 0,-0.25 -0.01,-0.37 0,-0.1 -0.01,-0.19 -0.02,-0.29 -0.33,-2.97 -2.9,-5.43 -6.28,-6.15l-0.25 -0.05c-0.58,-0.11 -1.2,-0.17 -1.82,-0.17l-345.97 0c-0.26,0 -0.51,0.01 -0.75,0.03 -0.11,0.01 -0.22,0.02 -0.33,0.03l-0.01 0c-0.13,0.02 -0.26,0.04 -0.39,0.06 -0.52,0.07 -1.03,0.19 -1.52,0.35 -1.61,0.52 -2.97,1.46 -3.93,2.64 -0.91,1.11 -1.43,2.47 -1.43,3.93z"/>
   <path class="fil6" d="M1355.96 1528.94l185.35 0c3.98,0 7.26,-2.96 7.46,-6.67 0.01,-0.12 0.01,-0.24 0.01,-0.36l0 -18.23c0,-0.13 0,-0.25 -0.01,-0.37 0,-0.1 -0.01,-0.19 -0.02,-0.29 -0.3,-3.04 -2.69,-5.53 -5.8,-6.19 -0.11,-0.03 -0.22,-0.05 -0.32,-0.06 -0.44,-0.08 -0.87,-0.12 -1.33,-0.12l-162.59 0 -0.06 0.23c-2.63,9.48 -8.68,22.46 -22.63,32.02l-0.07 0.05z"/>
   <polygon class="fil16" points="1228.17,1528.94 1232.1,1528.94 1232.1,1496.64 1228.17,1496.64 "/>
   <polygon class="fil16" points="1241.48,1528.94 1245.41,1528.94 1245.41,1496.64 1241.48,1496.64 "/>
   <polygon class="fil28" points="1257.44,1528.94 1261.37,1528.94 1261.37,1496.64 1257.44,1496.64 "/>
   <polygon class="fil16" points="1281.91,1528.94 1285.83,1528.94 1285.83,1496.64 1281.91,1496.64 "/>
   <polygon class="fil16" points="1307.78,1528.94 1311.71,1528.94 1311.71,1496.64 1307.78,1496.64 "/>
   <polygon class="fil16" points="1347.44,1528.94 1351.37,1528.94 1351.37,1496.64 1347.44,1496.64 "/>
   <polygon class="fil16" points="1384.57,1528.94 1388.51,1528.94 1388.51,1496.64 1384.57,1496.64 "/>
   <polygon class="fil28" points="1417.73,1528.94 1421.67,1528.94 1421.67,1496.64 1417.73,1496.64 "/>
   <polygon class="fil16" points="1215.5,1528.94 1219.44,1528.94 1219.44,1496.64 1215.5,1496.64 "/>
   <polygon class="fil16" points="1207.12,1528.94 1211.06,1528.94 1211.06,1496.64 1207.12,1496.64 "/>
   <polygon class="fil16" points="1199.05,1528.94 1202.98,1528.94 1202.98,1496.64 1199.05,1496.64 "/>
   <path class="fil16" d="M1192.96 1496.75l0 32.07c0.48,0.07 0.97,0.11 1.48,0.11l2.45 0 0 -32.3 -2.45 0c-0.51,0 -1,0.04 -1.48,0.11z"/>
   <path class="fil16" d="M1187.51 1499.74l0 26.09c0.96,1.19 2.32,2.11 3.93,2.63l0 -31.35c-1.61,0.52 -2.97,1.46 -3.93,2.63z"/>
   <path class="fil27" d="M1186.79 1471.6l0 18.24c0,1.46 0.54,2.8 1.44,3.93 0.95,1.19 2.32,2.11 3.93,2.63 0.39,0.13 0.8,0.23 1.2,0.3l0.01 0c0.11,0.02 0.22,0.04 0.33,0.06 0.48,0.07 0.97,0.11 1.48,0.11l345.97 0c0.36,0 0.73,-0.02 1.08,-0.06 0.14,-0.01 0.27,-0.03 0.41,-0.05 3.75,-0.57 6.67,-3.28 6.87,-6.56 0,-0.12 0.01,-0.24 0.01,-0.36l0 -18.24c0,-0.12 -0.01,-0.24 -0.01,-0.36 -0.23,-3.7 -3.91,-6.67 -8.36,-6.67l-345.97 0c-0.22,0 -0.44,0.01 -0.67,0.02 -0.09,0.01 -0.19,0.02 -0.28,0.03 -0.1,0 -0.21,0.02 -0.31,0.03l-0.22 0.03c-0.54,0.08 -1.05,0.2 -1.54,0.36l-0.21 0.08 -0.22 0.07c-0.14,0.06 -0.28,0.12 -0.42,0.17 -0.15,0.07 -0.3,0.14 -0.45,0.22 -0.13,0.07 -0.26,0.14 -0.39,0.21 -0.15,0.08 -0.3,0.17 -0.43,0.27 -0.11,0.07 -0.21,0.14 -0.32,0.22l-0.02 0.01 -0.21 0.16c-0.21,0.17 -0.42,0.34 -0.6,0.52l-0.17 0.17 -0.16 0.17c-0.11,0.11 -0.21,0.23 -0.31,0.35 -0.9,1.13 -1.44,2.47 -1.44,3.93z"/>
   <path class="fil6" d="M1356.68 1496.87l185.35 0c0.15,0 0.3,0 0.44,-0.01 0.17,-0.01 0.32,-0.02 0.48,-0.04 3.56,-0.41 6.35,-3.2 6.55,-6.62 0,-0.12 0.01,-0.24 0.01,-0.36l0 -18.24c0,-0.12 -0.01,-0.24 -0.01,-0.36 -0.21,-3.7 -3.48,-6.67 -7.47,-6.67l-162.58 0c-0.07,0.26 -0.15,0.53 -0.23,0.8 -2.69,9.35 -8.71,21.93 -22.21,31.27 -0.11,0.08 -0.22,0.15 -0.33,0.23z"/>
   <polygon class="fil16" points="1228.89,1496.87 1232.82,1496.87 1232.82,1464.58 1228.89,1464.58 "/>
   <polygon class="fil16" points="1242.2,1496.87 1246.14,1496.87 1246.14,1464.58 1242.2,1464.58 "/>
   <polygon class="fil28" points="1258.17,1496.87 1262.1,1496.87 1262.1,1464.58 1258.17,1464.58 "/>
   <polygon class="fil16" points="1282.64,1496.87 1286.57,1496.87 1286.57,1464.58 1282.64,1464.58 "/>
   <polygon class="fil16" points="1308.51,1496.87 1312.44,1496.87 1312.44,1464.58 1308.51,1464.58 "/>
   <polygon class="fil16" points="1348.17,1496.87 1352.1,1496.87 1352.1,1464.58 1348.17,1464.58 "/>
   <polygon class="fil16" points="1385.31,1496.87 1389.23,1496.87 1389.23,1464.58 1385.31,1464.58 "/>
   <polygon class="fil28" points="1418.46,1496.87 1422.39,1496.87 1422.39,1464.58 1418.46,1464.58 "/>
   <polygon class="fil16" points="1216.22,1496.87 1220.16,1496.87 1220.16,1464.58 1216.22,1464.58 "/>
   <polygon class="fil16" points="1207.86,1496.87 1211.79,1496.87 1211.79,1464.58 1207.86,1464.58 "/>
   <polygon class="fil16" points="1199.78,1496.87 1203.7,1496.87 1203.7,1464.58 1199.78,1464.58 "/>
   <path class="fil16" d="M1193.69 1464.68l0 32.08c0.48,0.07 0.97,0.11 1.48,0.11l2.46 0 0 -32.3 -2.46 0c-0.5,0 -1,0.04 -1.48,0.11z"/>
   <path class="fil16" d="M1188.23 1467.68l0 26.09c0.95,1.19 2.32,2.11 3.93,2.63l0 -31.35c-1.61,0.52 -2.97,1.46 -3.93,2.63z"/>
   <path class="fil27" d="M1168.93 1440.1l0 18.24c0,1.45 0.52,2.8 1.43,3.93 0.94,1.19 2.32,2.11 3.93,2.63 0.49,0.16 1.01,0.28 1.53,0.36 0.48,0.07 0.97,0.11 1.48,0.11l345.97 0c1.39,0 2.71,-0.28 3.87,-0.8 2.45,-1.07 4.19,-3.14 4.46,-5.56 0.02,-0.1 0.03,-0.2 0.03,-0.31 0.01,-0.12 0.01,-0.24 0.01,-0.36l0 -18.24c0,-0.12 0,-0.24 -0.01,-0.36 -0.22,-3.7 -3.89,-6.67 -8.36,-6.67l-345.97 0c-0.5,0 -1,0.04 -1.48,0.11 -0.52,0.08 -1.04,0.2 -1.53,0.36 -1.61,0.52 -2.98,1.46 -3.93,2.63 -0.91,1.13 -1.43,2.48 -1.43,3.93z"/>
   <path class="fil6" d="M1338.81 1465.37l185.35 0c1.23,0 2.41,-0.28 3.44,-0.8 2.19,-1.07 3.74,-3.14 3.98,-5.56 0.02,-0.1 0.03,-0.2 0.03,-0.31 0.01,-0.12 0.01,-0.24 0.01,-0.36l0 -18.24c0,-0.12 0,-0.24 -0.01,-0.36 -0.2,-3.7 -3.48,-6.67 -7.46,-6.67l-162.59 0c-2.53,9.25 -8.32,21.95 -21.62,31.5 -0.37,0.27 -0.76,0.53 -1.14,0.8z"/>
   <polygon class="fil16" points="1211.02,1465.37 1214.95,1465.37 1214.95,1433.07 1211.02,1433.07 "/>
   <polygon class="fil16" points="1224.33,1465.37 1228.26,1465.37 1228.26,1433.07 1224.33,1433.07 "/>
   <polygon class="fil28" points="1240.3,1465.37 1244.22,1465.37 1244.22,1433.07 1240.3,1433.07 "/>
   <polygon class="fil16" points="1264.75,1465.37 1268.69,1465.37 1268.69,1433.07 1264.75,1433.07 "/>
   <polygon class="fil16" points="1290.62,1465.37 1294.56,1465.37 1294.56,1433.07 1290.62,1433.07 "/>
   <polygon class="fil16" points="1330.29,1465.37 1334.23,1465.37 1334.23,1433.07 1330.29,1433.07 "/>
   <polygon class="fil16" points="1367.43,1465.37 1371.36,1465.37 1371.36,1433.07 1367.43,1433.07 "/>
   <polygon class="fil16" points="1400.59,1465.37 1404.52,1465.37 1404.52,1433.07 1400.59,1433.07 "/>
   <polygon class="fil16" points="1198.35,1465.37 1202.29,1465.37 1202.29,1433.07 1198.35,1433.07 "/>
   <polygon class="fil16" points="1189.98,1465.37 1193.91,1465.37 1193.91,1433.07 1189.98,1433.07 "/>
   <polygon class="fil16" points="1181.9,1465.37 1185.83,1465.37 1185.83,1433.07 1181.9,1433.07 "/>
   <path class="fil16" d="M1175.81 1433.19l0 32.07c0.48,0.08 0.97,0.11 1.48,0.11l2.46 0 0 -32.3 -2.46 0c-0.5,0 -1,0.04 -1.48,0.12z"/>
   <path class="fil16" d="M1170.36 1436.17l0 26.09c0.94,1.19 2.32,2.11 3.93,2.63l0 -31.35c-1.61,0.52 -2.98,1.46 -3.93,2.63z"/>
   <path class="fil27" d="M1140.65 1407.8l0 18.24c0,1.46 0.52,2.8 1.43,3.93 0.96,1.19 2.33,2.11 3.94,2.63 0.49,0.16 1,0.28 1.53,0.36 0.48,0.07 0.97,0.11 1.48,0.11l345.97 0c4.46,0 8.14,-2.97 8.36,-6.67 0.01,-0.12 0.01,-0.24 0.01,-0.36l0 -18.24c0,-0.12 0,-0.24 -0.01,-0.36 -0.21,-3.41 -3.36,-6.22 -7.37,-6.61 -0.32,-0.03 -0.66,-0.05 -0.99,-0.05l-345.97 0c-0.5,0 -1,0.04 -1.48,0.11 -0.52,0.08 -1.04,0.2 -1.53,0.36 -1.61,0.52 -2.98,1.46 -3.94,2.63 -0.9,1.12 -1.43,2.47 -1.43,3.93z"/>
   <path class="fil6" d="M1310.54 1433.07l185.35 0c3.98,0 7.26,-2.97 7.46,-6.67 0.01,-0.12 0.01,-0.24 0.01,-0.36l0 -18.24c0,-0.12 0,-0.24 -0.01,-0.36 -0.18,-3.41 -3,-6.22 -6.57,-6.61 -0.29,-0.03 -0.58,-0.05 -0.89,-0.05l-162.59 0 -0.02 0.05c-2.6,9.5 -8.65,22.62 -22.74,32.24z"/>
   <polygon class="fil16" points="1182.75,1433.07 1186.68,1433.07 1186.68,1400.77 1182.75,1400.77 "/>
   <polygon class="fil16" points="1196.05,1433.07 1199.99,1433.07 1199.99,1400.77 1196.05,1400.77 "/>
   <polygon class="fil16" points="1212.01,1433.07 1215.95,1433.07 1215.95,1400.77 1212.01,1400.77 "/>
   <polygon class="fil28" points="1236.48,1433.07 1240.42,1433.07 1240.42,1400.77 1236.48,1400.77 "/>
   <polygon class="fil16" points="1262.35,1433.07 1266.29,1433.07 1266.29,1400.77 1262.35,1400.77 "/>
   <polygon class="fil16" points="1302.02,1433.07 1305.94,1433.07 1305.94,1400.77 1302.02,1400.77 "/>
   <polygon class="fil16" points="1339.16,1433.07 1343.08,1433.07 1343.08,1400.77 1339.16,1400.77 "/>
   <polygon class="fil16" points="1372.32,1433.07 1376.24,1433.07 1376.24,1400.77 1372.32,1400.77 "/>
   <polygon class="fil16" points="1170.08,1433.07 1174.01,1433.07 1174.01,1400.77 1170.08,1400.77 "/>
   <polygon class="fil16" points="1161.71,1433.07 1165.64,1433.07 1165.64,1400.77 1161.71,1400.77 "/>
   <polygon class="fil16" points="1153.62,1433.07 1157.56,1433.07 1157.56,1400.77 1153.62,1400.77 "/>
   <path class="fil16" d="M1147.54 1400.88l0 32.07c0.48,0.07 0.97,0.11 1.48,0.11l2.46 0 0 -32.3 -2.46 0c-0.5,0 -1,0.04 -1.48,0.11z"/>
   <path class="fil16" d="M1142.08 1403.88l0 26.09c0.96,1.19 2.33,2.11 3.94,2.63l0 -31.35c-1.61,0.52 -2.98,1.46 -3.94,2.63z"/>
   <path class="fil27" d="M1186.07 1375.55l0 18.24c0,1.45 0.52,2.8 1.43,3.92 0.96,1.18 2.32,2.11 3.93,2.63 0.49,0.16 1,0.28 1.52,0.36 0.17,0.02 0.33,0.05 0.49,0.06 0.13,0.02 0.26,0.02 0.39,0.03l0.19 0.01c0.13,0.01 0.27,0.01 0.41,0.01l345.97 0c4.47,0 8.14,-2.97 8.37,-6.67 0.01,-0.12 0.01,-0.24 0.01,-0.36l0 -18.24c0,-0.12 0,-0.24 -0.01,-0.36 -0.22,-3.69 -3.9,-6.67 -8.37,-6.67l-345.97 0c-0.15,0 -0.3,0 -0.45,0.01 -0.35,0.02 -0.69,0.05 -1.04,0.1 -0.52,0.08 -1.03,0.2 -1.52,0.36 -0.25,0.08 -0.5,0.17 -0.72,0.27 -0.15,0.06 -0.29,0.13 -0.43,0.2l-0.05 0.02c-0.14,0.07 -0.28,0.14 -0.43,0.22l-0.07 0.04c-0.13,0.07 -0.25,0.15 -0.37,0.23 -0.3,0.19 -0.57,0.39 -0.83,0.61l-0.24 0.21 -0.04 0.04 -0.14 0.13 -0.03 0.03 -0.24 0.25c-0.12,0.13 -0.23,0.25 -0.33,0.38 -0.91,1.13 -1.43,2.47 -1.43,3.93z"/>
   <path class="fil6" d="M1355.96 1400.83l185.35 0c3.98,0 7.26,-2.97 7.46,-6.67 0.01,-0.12 0.01,-0.24 0.01,-0.36l0 -18.24c0,-0.12 0,-0.24 -0.01,-0.36 -0.2,-3.69 -3.48,-6.67 -7.46,-6.67l-162.59 0c-0.06,0.24 -0.13,0.49 -0.21,0.74 -2.7,9.43 -8.77,22.12 -22.48,31.5l-0.07 0.05z"/>
   <polygon class="fil28" points="1228.17,1400.83 1232.1,1400.83 1232.1,1368.53 1228.17,1368.53 "/>
   <polygon class="fil28" points="1241.48,1400.83 1245.41,1400.83 1245.41,1368.53 1241.48,1368.53 "/>
   <polygon class="fil16" points="1257.44,1400.83 1261.37,1400.83 1261.37,1368.53 1257.44,1368.53 "/>
   <polygon class="fil16" points="1281.91,1400.83 1285.83,1400.83 1285.83,1368.53 1281.91,1368.53 "/>
   <polygon class="fil16" points="1307.78,1400.83 1311.71,1400.83 1311.71,1368.53 1307.78,1368.53 "/>
   <polygon class="fil16" points="1347.44,1400.83 1351.37,1400.83 1351.37,1368.53 1347.44,1368.53 "/>
   <polygon class="fil16" points="1384.57,1400.83 1388.51,1400.83 1388.51,1368.53 1384.57,1368.53 "/>
   <polygon class="fil16" points="1417.73,1400.83 1421.67,1400.83 1421.67,1368.53 1417.73,1368.53 "/>
   <polygon class="fil28" points="1215.5,1400.83 1219.44,1400.83 1219.44,1368.53 1215.5,1368.53 "/>
   <polygon class="fil28" points="1207.12,1400.83 1211.06,1400.83 1211.06,1368.53 1207.12,1368.53 "/>
   <polygon class="fil16" points="1199.05,1400.83 1202.98,1400.83 1202.98,1368.53 1199.05,1368.53 "/>
   <path class="fil16" d="M1192.96 1368.64l0 32.07c0.48,0.07 0.97,0.11 1.48,0.11l2.45 0 0 -32.3 -2.45 0c-0.51,0 -1,0.04 -1.48,0.11z"/>
   <path class="fil16" d="M1187.51 1371.63l0 26.09c0.96,1.18 2.32,2.11 3.93,2.63l0 -31.35c-1.61,0.52 -2.97,1.44 -3.93,2.63z"/>
   <path class="fil27" d="M1160.63 1344l0 18.24c0,1.46 0.53,2.8 1.44,3.93 0.95,1.19 2.32,2.11 3.93,2.63 0.49,0.16 1,0.28 1.54,0.36 0.48,0.07 0.97,0.11 1.48,0.11l345.97 0c1.35,0 2.61,-0.26 3.74,-0.74 2.53,-1.06 4.33,-3.17 4.6,-5.63 0.01,-0.1 0.02,-0.19 0.03,-0.29 0,-0.12 0.01,-0.24 0.01,-0.36l0 -18.24c0,-0.12 -0.01,-0.24 -0.01,-0.36 -0.21,-3.42 -3.37,-6.21 -7.37,-6.61 -0.33,-0.03 -0.65,-0.05 -1,-0.05l-345.97 0c-0.5,0 -0.99,0.04 -1.48,0.11 -0.53,0.08 -1.04,0.2 -1.54,0.36 -1.61,0.52 -2.97,1.46 -3.93,2.63 -0.91,1.13 -1.44,2.47 -1.44,3.93z"/>
   <path class="fil6" d="M1330.52 1369.27l185.35 0c1.2,0 2.34,-0.26 3.34,-0.74 2.25,-1.06 3.85,-3.17 4.1,-5.63 0.01,-0.1 0.02,-0.19 0.03,-0.29 0,-0.12 0.01,-0.24 0.01,-0.36l0 -18.24c0,-0.12 -0.01,-0.24 -0.01,-0.36 -0.19,-3.41 -3.01,-6.21 -6.59,-6.61 -0.28,-0.03 -0.58,-0.05 -0.88,-0.05l-162.58 0 -0.02 0.05c-2.53,9.26 -8.35,21.96 -21.69,31.5 -0.34,0.25 -0.7,0.5 -1.06,0.74z"/>
   <polygon class="fil28" points="1202.73,1369.27 1206.66,1369.27 1206.66,1336.97 1202.73,1336.97 "/>
   <polygon class="fil28" points="1216.04,1369.27 1219.97,1369.27 1219.97,1336.97 1216.04,1336.97 "/>
   <polygon class="fil28" points="1232,1369.27 1235.94,1369.27 1235.94,1336.97 1232,1336.97 "/>
   <polygon class="fil16" points="1256.47,1369.27 1260.41,1369.27 1260.41,1336.97 1256.47,1336.97 "/>
   <polygon class="fil16" points="1282.34,1369.27 1286.28,1369.27 1286.28,1336.97 1282.34,1336.97 "/>
   <polygon class="fil16" points="1322.01,1369.27 1325.94,1369.27 1325.94,1336.97 1322.01,1336.97 "/>
   <polygon class="fil16" points="1359.14,1369.27 1363.07,1369.27 1363.07,1336.97 1359.14,1336.97 "/>
   <polygon class="fil16" points="1392.3,1369.27 1396.23,1369.27 1396.23,1336.97 1392.3,1336.97 "/>
   <polygon class="fil16" points="1190.06,1369.27 1193.99,1369.27 1193.99,1336.97 1190.06,1336.97 "/>
   <polygon class="fil16" points="1181.69,1369.27 1185.62,1369.27 1185.62,1336.97 1181.69,1336.97 "/>
   <polygon class="fil16" points="1173.61,1369.27 1177.54,1369.27 1177.54,1336.97 1173.61,1336.97 "/>
   <path class="fil16" d="M1167.53 1337.08l0 32.07c0.48,0.07 0.97,0.11 1.48,0.11l2.46 0 0 -32.3 -2.46 0c-0.5,0 -0.99,0.04 -1.48,0.11z"/>
   <path class="fil16" d="M1162.07 1340.07l0 26.09c0.95,1.19 2.32,2.11 3.93,2.63l0 -31.35c-1.61,0.52 -2.97,1.46 -3.93,2.63z"/>
   <path class="fil27" d="M1149.81 1311.75l0 18.24c0,1.46 0.52,2.8 1.44,3.93 0.94,1.19 2.32,2.11 3.93,2.63 0.49,0.16 1,0.28 1.52,0.36 0.17,0.02 0.33,0.05 0.5,0.06 0.08,0.01 0.18,0.02 0.27,0.02 0.09,0.01 0.18,0.02 0.27,0.02 0.15,0.01 0.3,0.01 0.44,0.01l345.97 0c4.47,0 8.14,-2.97 8.37,-6.67 0.01,-0.12 0.01,-0.24 0.01,-0.36l0 -18.24c0,-0.12 0,-0.24 -0.01,-0.36 -0.22,-3.7 -3.9,-6.67 -8.37,-6.67l-345.97 0c-0.5,0 -0.99,0.04 -1.48,0.11 -0.52,0.08 -1.03,0.2 -1.52,0.36 -1.61,0.52 -2.98,1.45 -3.93,2.63 -0.91,1.12 -1.44,2.47 -1.44,3.92z"/>
   <path class="fil6" d="M1319.7 1337.02l185.35 0c3.98,0 7.26,-2.97 7.46,-6.67 0.01,-0.12 0.01,-0.24 0.01,-0.36l0 -18.24c0,-0.12 0,-0.24 -0.01,-0.36 -0.2,-3.7 -3.48,-6.67 -7.46,-6.67l-162.59 0c-2.59,9.5 -8.62,22.61 -22.69,32.25l-0.07 0.05z"/>
   <polygon class="fil28" points="1191.91,1337.02 1195.84,1337.02 1195.84,1304.72 1191.91,1304.72 "/>
   <polygon class="fil28" points="1205.22,1337.02 1209.14,1337.02 1209.14,1304.72 1205.22,1304.72 "/>
   <polygon class="fil28" points="1221.18,1337.02 1225.11,1337.02 1225.11,1304.72 1221.18,1304.72 "/>
   <polygon class="fil16" points="1245.64,1337.02 1249.57,1337.02 1249.57,1304.72 1245.64,1304.72 "/>
   <polygon class="fil16" points="1271.51,1337.02 1275.44,1337.02 1275.44,1304.72 1271.51,1304.72 "/>
   <polygon class="fil16" points="1311.18,1337.02 1315.11,1337.02 1315.11,1304.72 1311.18,1304.72 "/>
   <polygon class="fil16" points="1348.31,1337.02 1352.25,1337.02 1352.25,1304.72 1348.31,1304.72 "/>
   <polygon class="fil16" points="1381.47,1337.02 1385.41,1337.02 1385.41,1304.72 1381.47,1304.72 "/>
   <polygon class="fil16" points="1179.23,1337.02 1183.17,1337.02 1183.17,1304.72 1179.23,1304.72 "/>
   <polygon class="fil16" points="1170.86,1337.02 1174.8,1337.02 1174.8,1304.72 1170.86,1304.72 "/>
   <polygon class="fil28" points="1162.78,1337.02 1166.71,1337.02 1166.71,1304.72 1162.78,1304.72 "/>
   <path class="fil28" d="M1156.69 1304.84l0 32.07c0.48,0.07 0.98,0.11 1.48,0.11l2.46 0 0 -32.3 -2.46 0c-0.5,0 -0.99,0.04 -1.48,0.11z"/>
   <path class="fil28" d="M1151.25 1307.83l0 26.09c0.94,1.17 2.32,2.11 3.93,2.63l0 -31.35c-1.61,0.52 -2.98,1.45 -3.93,2.63z"/>
   <path class="fil16" d="M1730.7 1491.56c0,-90.81 -73.63,-164.43 -164.43,-164.43 -90.81,0 -164.43,73.62 -164.43,164.43 0,90.81 73.62,164.43 164.43,164.43 90.8,0 164.43,-73.62 164.43,-164.43z"/>
   <path class="fil17" d="M1745.05 1491.56c0,-90.81 -73.63,-164.43 -164.43,-164.43 -90.81,0 -164.43,73.62 -164.43,164.43 0,90.81 73.62,164.43 164.43,164.43 90.81,0 164.43,-73.62 164.43,-164.43z"/>
   <path class="fil6" d="M1439.74 1493.5c0,77.69 63.2,140.87 140.87,140.87 77.67,0 140.87,-63.19 140.87,-140.87 0,-77.68 -63.2,-140.87 -140.87,-140.87 -77.68,0 -140.87,63.2 -140.87,140.87zm34.94 105.94c-28.29,-28.3 -43.87,-65.92 -43.87,-105.94 0,-40.02 15.58,-77.64 43.87,-105.93 28.3,-28.3 65.92,-43.88 105.94,-43.88 40.02,0 77.65,15.58 105.94,43.88 28.3,28.29 43.87,65.91 43.87,105.93 0,40.02 -15.57,77.64 -43.87,105.94 -28.29,28.29 -65.92,43.87 -105.94,43.87 -40.02,0 -77.63,-15.58 -105.94,-43.87z"/>
   <path class="fil16" d="M1601.29 1536.98c0.38,-3.23 0.26,-6.12 -0.35,-8.69 -0.62,-2.57 -1.85,-4.98 -3.68,-7.23 -1.83,-2.24 -4.28,-4.41 -7.35,-6.48 -3.07,-2.08 -6.87,-4.21 -11.39,-6.39 -7.78,-3.81 -14.8,-7.67 -21.06,-11.57 -6.26,-3.91 -11.5,-8.17 -15.74,-12.81 -4.24,-4.64 -7.33,-9.84 -9.3,-15.61 -1.96,-5.78 -2.49,-12.43 -1.59,-19.96 0.77,-6.55 2.64,-12.37 5.6,-17.48 2.96,-5.11 6.83,-9.41 11.6,-12.9 4.78,-3.48 10.32,-6.13 16.63,-7.91 6.3,-1.79 13.22,-2.59 20.75,-2.39l2.93 -24.7 19.88 2.36 -2.97 25.04c7,1.76 13.24,4.42 18.7,7.95 5.47,3.54 9.94,7.81 13.46,12.83 3.53,5.02 6.02,10.76 7.47,17.21 1.44,6.46 1.73,13.53 0.83,21.22l-35.91 -4.26c1.09,-9.24 -0.13,-16.39 -3.69,-21.44 -3.56,-5.06 -8.77,-8 -15.65,-8.83 -3.72,-0.44 -7,-0.3 -9.81,0.43 -2.81,0.71 -5.2,1.87 -7.15,3.47 -1.96,1.6 -3.5,3.59 -4.62,5.95 -1.11,2.36 -1.85,4.97 -2.18,7.81 -0.34,2.85 -0.23,5.47 0.32,7.88 0.55,2.41 1.72,4.71 3.52,6.92 1.8,2.2 4.27,4.37 7.42,6.5 3.14,2.13 7.09,4.41 11.84,6.85 7.67,3.95 14.62,7.89 20.83,11.83 6.2,3.94 11.43,8.24 15.66,12.92 4.22,4.67 7.33,9.9 9.28,15.67 1.97,5.77 2.52,12.38 1.62,19.85 -0.81,6.77 -2.72,12.7 -5.72,17.81 -2.98,5.1 -6.88,9.36 -11.65,12.77 -4.77,3.41 -10.34,5.95 -16.7,7.61 -6.38,1.67 -13.33,2.4 -20.87,2.21l-2.72 22.96 -19.75 -2.34 2.71 -22.85c-6.8,-1.51 -13.26,-3.8 -19.41,-6.87 -6.15,-3.06 -11.45,-7.07 -15.89,-12 -4.46,-4.93 -7.78,-10.89 -9.98,-17.85 -2.19,-6.98 -2.74,-15.07 -1.65,-24.31l35.89 4.27c-0.64,5.45 -0.42,10.11 0.69,13.93 1.09,3.85 2.8,7.01 5.11,9.51 2.3,2.49 5.04,4.38 8.2,5.65 3.17,1.27 6.44,2.11 9.85,2.51 3.89,0.46 7.36,0.37 10.42,-0.28 3.06,-0.65 5.69,-1.75 7.88,-3.28 2.2,-1.53 3.95,-3.44 5.22,-5.75 1.29,-2.31 2.09,-4.88 2.43,-7.73z"/>
   <path class="fil29" d="M1083.29 1446.13c0,0 -20.76,29.22 -39.78,29.62 -19.01,0.4 -47.96,-13.55 -47.96,-13.55 0,0 -17.47,-38.92 -5.63,-54.16 0,0 11.88,-5.21 24.31,4 2.13,1.6 4.3,3.59 6.43,6.17 3.02,3.62 6.41,5.68 9.99,6.76 13.57,4.14 29.69,-5.58 35.71,3.8 3.52,5.45 7.35,9.55 10.5,12.42 3.72,3.32 6.43,4.95 6.43,4.95z"/>
   <path class="fil29" d="M812.76 1656.85c0,0 73.35,-177.72 205.37,-181.1 0,0 121.86,13.54 128.63,181.1l-334 0z"/>
   <path class="fil30" d="M981.95 1481.18c0,0 52.92,11.77 69.24,4.85 0,0 2.47,-22.13 -19.82,-19.03 -15.25,2.12 -25.19,-5.21 -31.03,-8.18 -8.26,-4.2 -20.59,13.1 -18.39,22.36z"/>
   <path class="fil31" d="M1028.01 1447.82c-3.39,2.54 -13.78,-35.78 -13.78,-35.78 2.13,1.6 4.3,3.59 6.43,6.17 3.02,3.62 6.41,5.68 9.99,6.76 0.04,1.13 0.64,20.38 -2.64,22.85z"/>
   <path class="fil31" d="M1076.86 1441.18c-0.75,0.44 -25.22,15.1 -28.54,15.1 -3.38,0 18.04,-27.52 18.04,-27.52 3.52,5.45 7.35,9.55 10.5,12.42z"/>
   <path class="fil31" d="M884.41 1607.21c-1.36,-1.17 51.9,-78.43 66.57,-78.99 14.67,-0.56 47.63,16.93 71.5,19.19 23.85,2.26 46.98,-4.52 51.5,9.59 4.52,14.1 16.93,64.11 9.31,72.11 -7.61,8 -169.59,3.12 -198.87,-21.9z"/>
   <path class="fil2" d="M1307.18 1510.83c2.54,2.91 2.86,6.17 1.6,9.65l-0.02 0.05c-2.33,6.43 -10.02,13.61 -18.96,20.79 -1.14,0.92 -2.16,1.76 -3.04,2.53 -0.23,0.2 -0.46,0.41 -0.68,0.61 -0.18,0.16 -0.35,0.32 -0.53,0.47 -8.33,7.68 -5.19,9.45 -20.16,25.03 -17.07,17.75 -28.82,18.07 -32.16,16.45 -2.82,-1.37 2.92,-10.79 9.29,-21.38 0.31,-0.5 0.61,-1.02 0.93,-1.54 0.85,-1.41 1.7,-2.84 2.53,-4.26 7.46,-12.73 5.55,-18.72 3.78,-37.67 -1.44,-15.41 -23.96,-86.07 -23.96,-86.07l32.71 -5.63c0,0 9.85,56.27 20.7,64.93 5.8,4.62 12.29,4.67 17.87,8.11 0.39,0.23 0.78,0.48 1.15,0.73 3.17,2.1 6.41,4.27 8.96,7.19z"/>
   <path class="fil15" d="M1307.18 1510.83c2.54,2.91 2.86,6.17 1.6,9.65l-0.02 0.05c-2.85,6.43 -10.35,13.57 -18.98,20.72 -1.13,0.93 -2.13,1.8 -3.01,2.6 -0.23,0.2 -0.46,0.41 -0.68,0.61 -0.18,0.16 -0.35,0.32 -0.53,0.47 -8.33,7.68 -5.19,9.45 -20.16,25.03 -17.07,17.75 -28.82,18.07 -32.16,16.45 -2.82,-1.37 2.92,-10.79 9.29,-21.38 3.32,-1.22 18.76,-7.48 30.42,-22.41 10.27,-13.11 17.13,-29.96 24.12,-39.72 0.39,0.23 0.78,0.48 1.15,0.73 3.17,2.1 6.41,4.27 8.96,7.19z"/>
   <path class="fil2" d="M1043.48 1490.4c-2.02,10.1 -16.41,8.41 -32.48,4.49 -16.07,-3.93 -12.25,0.74 -35.13,-1.8 -22.88,-2.53 -29.82,-11.06 -30.51,-14.46 -0.63,-3.01 10.69,-4.07 22.8,-5.47 1.52,-0.17 3.06,-0.36 4.59,-0.55 13.69,-1.72 23.72,-10.55 36.15,-17.81 11.78,-6.87 29.36,-34.87 29.36,-34.87l31.37 2.48c0,0 -16.46,25.01 -22.83,35.88 -3.74,6.4 -3.55,14.86 -3.08,21.39 0.24,3.56 0.47,7.18 -0.24,10.73z"/>
   <path class="fil15" d="M1010.99 1494.88c-16.07,-3.93 -12.25,0.74 -35.13,-1.8 -22.88,-2.53 -29.82,-11.06 -30.51,-14.46 -0.63,-3.01 10.69,-4.07 22.8,-5.47l0.12 0.23c0,0 13.72,9.73 32.76,10.18 15.53,0.38 31.96,-4.07 42.69,-3.9 0.24,3.56 0.47,7.18 -0.24,10.73 -2.02,10.1 -16.41,8.41 -32.48,4.49z"/>
   <path class="fil19" d="M1163.72 1289.77l29.34 78.93 38.29 103.05c0,0 10.39,1.01 20.35,-1.85 9.16,-2.65 19.67,-9.58 19.67,-9.58 0,0 -10.63,-110.65 -30.47,-174.18 -5.08,-16.3 -10.78,-29.49 -17.07,-36.91 -30.75,-36.34 -60.11,40.54 -60.11,40.54z"/>
   <path class="fil18" d="M1193.55 1164.41c19.22,-6.19 74.02,1.77 129.08,12.54l11.52 -19.02 118.92 -9.29c0,0 39.25,87.02 17.76,142.47 -3.15,8.15 -9.43,13.38 -20.13,13.56l-1.74 0c0,0 -70.78,-0.04 -93.76,-0.04 -59.14,0 -125.17,-40.66 -133.7,-42.37 -13.99,-2.79 -19.58,25.17 -33.56,54.52 -13.98,29.36 -131.41,130 -131.41,130 0,0 -18.05,0.18 -25.5,-2.61 -8.02,-3.01 -10.95,-6.92 -10.95,-6.92 0,0 130.11,-258.87 173.45,-272.85z"/>
   <path class="fil24" d="M1301.03 992.6c37.51,30.5 127.86,83.36 128.37,83.13 0,0 28.94,17.34 48.69,8.83 32.92,-14.18 58.2,-63.83 12.66,-118.77 -22.7,-27.4 -41.53,-36.42 -37.11,-72.85 4.79,-39.46 -13.03,-89.07 -58.46,-91.15 -3.8,-0.17 -26.8,-3.25 -43.21,1.91 -41.83,13.13 -111.79,168.69 -50.94,188.9z"/>
   <path class="fil32" d="M1461.2 1161.56c-2.44,6.76 -66.74,12.78 -103.32,10.35 -11.63,-0.75 -20.47,-2.39 -23.61,-5.1 -13.05,-11.33 -11.75,13.59 -13.54,-105.69 -0.86,-58.17 49.37,-109.98 49.37,-109.98 0,0 4.01,24.85 53.82,-4.73 1.78,-1.03 21.39,28.01 40.28,63.78 20.8,39.52 -0.49,144.41 -3,151.37z"/>
   <path class="fil18" d="M1193.06 1368.7l38.29 103.05c0,0 10.39,1.01 20.35,-1.85 9.16,-2.65 19.67,-9.58 19.67,-9.58 0,0 -10.63,-110.65 -30.47,-174.18l-47.84 82.56z"/>
   <path class="fil33" d="M1370.09 951.13c0,0 -45.48,11.15 -57.28,30.76 -14.37,23.87 -86.01,131.51 -86.01,131.51 0,0 70.63,24.98 82.66,12.94 12.04,-12.04 41.89,-111.68 41.89,-111.68l18.73 -63.53z"/>
   <path class="fil2" d="M1424.04 946.48c0.19,0.03 -18.35,17.11 -31.95,22.05 -5.32,1.94 -14.15,4.07 -14.15,4.07 0,0 -7.1,-7.18 -7.2,-7.28 -6.3,-5.88 0.03,-7.58 -0.92,-18.71 -0.05,-0.53 -0.09,-1.07 -0.15,-1.61 -1.27,-12.46 -4.87,-26.09 -5.1,-26.99l-0.02 -0.04 44.02 -12.58 -1.42 2.43c2.71,22.84 10.91,38 16.9,38.66z"/>
   <path class="fil34" d="M1408.56 905.39c-4.27,12.79 -15.91,29.96 -39.66,33.65 -2.29,-13.72 -4.11,-20.14 -4.34,-21.04l-0.02 -0.04 44.02 -12.58z"/>
   <path class="fil2" d="M1357.23 931.23c0,0 59.33,-3.95 56.3,-40.85 -3.03,-36.91 2.59,-62.28 -35.41,-61.32 -38.01,0.96 -44.2,15.65 -46.19,28.21 -1.99,12.57 9.79,74.03 25.3,73.96z"/>
   <path class="fil24" d="M1346.57 828.41c0,0 14.74,43.25 49.74,48.27 25.53,3.67 35.67,-3.24 35.67,-3.24 0,0 -14.26,-13.54 -21.98,-34.36 -2.28,-6.15 -7.65,-10.61 -14.13,-11.61 -18.17,-2.81 -41.63,-14.84 -49.3,0.93z"/>
   <path class="fil24" d="M1359.13 836.07c0,0 -10.59,4.28 -17.98,20.09 -4.04,8.65 -6.96,29.22 -4.46,37.7 0,0 -17.06,-39.46 -4.71,-57.25 13.09,-18.86 27.15,-0.54 27.15,-0.54z"/>
   <path class="fil22" d="M1369.82 946.6c0,0 3.62,21.89 8.12,25.99 0,0 -11.37,-4.21 -16.78,-18.91 0,0 3.98,-6.58 8.65,-7.08z"/>
   <path class="fil35" d="M1327.5 1021.08c0,0 -33.13,39.75 -29.05,54.15 4.09,14.39 27.02,14.39 27.02,14.39 0,0 -4.29,-30.66 0,-46.62 4.28,-15.95 6.97,-22.85 2.03,-21.91z"/>
   <path class="fil22" d="M1401.87 1135.6c0,0 47.72,-29.09 47.09,-45.98 -0.63,-16.89 0.02,-47.9 4.5,-43.56 4.46,4.35 18.62,39.17 17.26,49.03 -1.35,9.87 -49.54,78.73 -55.51,78.56 -42.54,-1.19 -13.34,-38.05 -13.34,-38.05z"/>
   <path class="fil22" d="M1414.79 936.33c0,0 -26.06,32.78 -36.85,36.26 0,0 30.62,0 52.24,-25.56 0,0 -7.23,-10.59 -15.4,-10.7z"/>
   <path class="fil16" d="M1173.33 1100.17c0,-66.79 54.14,-120.95 120.94,-120.95 66.79,0 120.95,54.15 120.95,120.95 0,66.8 -54.15,120.94 -120.95,120.94 -66.8,0 -120.94,-54.14 -120.94,-120.94z"/>
   <path class="fil17" d="M1162.78 1100.17c0,-66.79 54.14,-120.95 120.94,-120.95 66.79,0 120.95,54.15 120.95,120.95 0,66.8 -54.15,120.94 -120.95,120.94 -66.8,0 -120.94,-54.14 -120.94,-120.94z"/>
   <path class="fil6" d="M1283.72 997.97c-57.14,0 -103.61,46.48 -103.61,103.62 0,57.14 46.47,103.62 103.61,103.62 57.13,0 103.62,-46.48 103.62,-103.62 0,-57.13 -46.48,-103.62 -103.62,-103.62zm0 213.8c-29.43,0 -57.11,-11.46 -77.92,-32.27 -20.81,-20.81 -32.27,-48.48 -32.27,-77.92 0,-29.43 11.46,-57.11 32.27,-77.92 20.81,-20.81 48.49,-32.28 77.92,-32.28 29.43,0 57.11,11.46 77.92,32.28 20.81,20.81 32.28,48.48 32.28,77.92 0,29.44 -11.46,57.11 -32.28,77.92 -20.81,20.81 -48.48,32.27 -77.92,32.27z"/>
   <path class="fil16" d="M1298.89 1133.57c0.28,-2.37 0.2,-4.51 -0.26,-6.4 -0.45,-1.89 -1.35,-3.67 -2.7,-5.31 -1.34,-1.66 -3.15,-3.24 -5.41,-4.78 -2.26,-1.53 -5.05,-3.09 -8.38,-4.69 -5.72,-2.8 -10.88,-5.64 -15.48,-8.51 -4.59,-2.87 -8.46,-6 -11.57,-9.42 -3.11,-3.41 -5.39,-7.24 -6.84,-11.48 -1.45,-4.25 -1.84,-9.14 -1.18,-14.68 0.57,-4.81 1.94,-9.09 4.12,-12.86 2.18,-3.76 5.02,-6.92 8.54,-9.48 3.52,-2.57 7.6,-4.5 12.22,-5.82 4.64,-1.31 9.73,-1.91 15.27,-1.77l2.15 -18.16 14.62 1.74 -2.18 18.41c5.15,1.3 9.74,3.25 13.76,5.85 4.02,2.6 7.32,5.74 9.91,9.44 2.59,3.7 4.42,7.91 5.49,12.66 1.07,4.75 1.27,9.95 0.6,15.6l-26.4 -3.13c0.8,-6.79 -0.1,-12.04 -2.71,-15.77 -2.62,-3.72 -6.45,-5.88 -11.5,-6.49 -2.74,-0.32 -5.15,-0.22 -7.22,0.31 -2.07,0.52 -3.83,1.39 -5.26,2.56 -1.44,1.17 -2.57,2.63 -3.39,4.38 -0.83,1.74 -1.36,3.65 -1.61,5.74 -0.25,2.1 -0.17,4.02 0.24,5.79 0.41,1.78 1.27,3.46 2.59,5.09 1.32,1.61 3.15,3.21 5.46,4.78 2.32,1.57 5.22,3.24 8.71,5.03 5.65,2.91 10.75,5.81 15.32,8.7 4.57,2.89 8.41,6.06 11.52,9.5 3.11,3.44 5.39,7.29 6.83,11.53 1.44,4.24 1.83,9.11 1.19,14.61 -0.59,4.97 -1.99,9.35 -4.19,13.09 -2.21,3.75 -5.07,6.89 -8.58,9.39 -3.5,2.51 -7.6,4.38 -12.29,5.6 -4.68,1.22 -9.8,1.77 -15.34,1.63l-2 16.89 -14.53 -1.72 1.99 -16.81c-4.99,-1.11 -9.75,-2.79 -14.27,-5.04 -4.52,-2.26 -8.43,-5.21 -11.7,-8.83 -3.27,-3.63 -5.72,-8.01 -7.33,-13.14 -1.62,-5.12 -2.03,-11.08 -1.22,-17.87l26.4 3.13c-0.47,4.02 -0.31,7.44 0.5,10.26 0.8,2.82 2.06,5.15 3.76,6.99 1.69,1.84 3.71,3.22 6.04,4.16 2.33,0.93 4.74,1.56 7.24,1.85 2.86,0.34 5.41,0.27 7.66,-0.21 2.25,-0.47 4.19,-1.28 5.8,-2.41 1.62,-1.13 2.9,-2.54 3.83,-4.24 0.94,-1.69 1.55,-3.59 1.79,-5.68z"/>
   <path class="fil2" d="M1154.37 1120.79c0,0 -1.35,-19.87 6.16,-19.08 9.21,0.95 19,22.81 14.51,27.04 -4.5,4.22 -20.57,-3.05 -20.67,-7.95z"/>
   <path class="fil2" d="M1411.55 1166.77l-11.2 -6.72c0,0 -6.95,-2.77 -11.04,-2.19 -4.1,0.58 -13.82,-1.13 -14.12,0.45 -0.31,1.6 9.34,8.69 9.34,8.69 -5.8,8.91 -26.83,10.54 -28.43,13.89 -1.94,4.07 7.56,7.88 12.71,10.09 5.15,2.21 18.32,4.23 25.93,-1.55 5.56,-4.22 14.7,-9.79 14.7,-9.79l2.11 -12.88z"/>
   <path class="fil36" d="M1423.93 946.42c0,0 47.06,3.07 58.83,21.43 11.76,18.35 49.56,122.93 43.44,154.93 -6.12,32 -118.06,70.42 -118.06,70.42 0,0 -4.95,-4.3 -4.95,-15.76 0,-6.89 3.58,-13.53 3.58,-13.53 0,0 68.67,-57.39 63.94,-68.82 -17.45,-42.2 -46.79,-148.67 -46.79,-148.67z"/>
  </g>
 </g>
</svg>
