<?xml version="1.0" encoding="UTF-8"?>
<!DOCTYPE svg PUBLIC "-//W3C//DTD SVG 1.0//EN" "http://www.w3.org/TR/2001/REC-SVG-20010904/DTD/svg10.dtd">
<!-- Creator: CorelDRAW 2019 (64-Bit) -->
<svg xmlns="http://www.w3.org/2000/svg" xml:space="preserve" width="16.5274in" height="14.2088in" version="1.0" style="shape-rendering:geometricPrecision; text-rendering:geometricPrecision; image-rendering:optimizeQuality; fill-rule:evenodd; clip-rule:evenodd"
viewBox="0 0 16527.37 14208.77"
 xmlns:xlink="http://www.w3.org/1999/xlink"
 xmlns:xodm="http://www.corel.com/coreldraw/odm/2003">
 <defs>
  <style type="text/css">
   <![CDATA[
    .str3 {stroke:#616161;stroke-width:13.89;stroke-miterlimit:2.61313}
    .str2 {stroke:#616161;stroke-width:13.89;stroke-miterlimit:10}
    .str5 {stroke:#263138;stroke-width:27.78;stroke-linejoin:round;stroke-miterlimit:2.61313}
    .str1 {stroke:#263138;stroke-width:13.89;stroke-linejoin:round;stroke-miterlimit:2.61313}
    .str4 {stroke:#263138;stroke-width:27.78;stroke-linecap:round;stroke-linejoin:round;stroke-miterlimit:10}
    .str0 {stroke:#263138;stroke-width:13.89;stroke-linecap:round;stroke-linejoin:round;stroke-miterlimit:10}
    .fil0 {fill:none;fill-rule:nonzero}
    .fil1 {fill:#263138;fill-rule:nonzero}
    .fil3 {fill:#55BC7E;fill-rule:nonzero}
    .fil8 {fill:#B2B2B2;fill-rule:nonzero}
    .fil2 {fill:#C1E4CD;fill-rule:nonzero}
    .fil6 {fill:#EB9481;fill-rule:nonzero}
    .fil5 {fill:white;fill-rule:nonzero}
    .fil4 {fill:black;fill-rule:nonzero;fill-opacity:0.200000}
    .fil7 {fill:#EB9481;fill-rule:nonzero;fill-opacity:0.200000}
   ]]>
  </style>
    <clipPath id="id0" style="clip-rule:nonzero">
     <path d="M15602.93 2507.06c0,0 -1072.28,-2146.65 -3440.22,-2464.67 -2367.94,-318.03 -4021.02,1232.32 -5763.48,2027.39 -912.49,416.36 -1954.73,254.64 -2923.45,456.19 -5922.91,1232.19 -4228.93,11257.37 4720.69,11670.75 6924.41,319.82 10027.67,-5775.71 7406.46,-11689.65z"/>
    </clipPath>
 </defs>
 <g id="Layer_x0020_1">
  <metadata id="CorelCorpID_0Corel-Layer"/>
  <g id="_1604906599920">
   <path class="fil0 str0" d="M1722.9 3282.16l-37.39 0 0 27.44c12.38,-9.23 24.87,-18.34 37.39,-27.44z"/>
   <line class="fil0 str0" x1="4326.85" y1="271.04" x2="4326.84" y2= "271.04" />
   <path class="fil0 str0" d="M4326.84 271.04c-1429.59,0 -2588.5,1158.91 -2588.5,2588.49"/>
   <polyline class="fil0 str0" points="1738.34,2859.54 1738.34,2859.55 2446.25,2859.55 "/>
   <path class="fil0 str0" d="M6734.65 1907.6c-379.27,-958.54 -1314.34,-1636.56 -2407.8,-1636.56"/>
   <g>
    <path class="fil1 str1" d="M7590.29 1437.16c-104.59,-139.21 -339.29,-281.78 -866.24,-220.51 -950.36,110.51 -1348.19,950.37 -1635.51,1127.19 -15.39,9.46 -31.51,18.87 -48.17,28.23 467.63,-37.91 927.72,-105.56 1358.86,-302.29 398.49,-181.83 792.31,-403.17 1191.06,-632.62z"/>
    <path class="fil0 str2" d="M7206.09 1655.35c-187.44,-80.18 -489.22,-158.84 -682.24,47.04 -115.81,123.54 -165.33,259.12 -209.72,404.41"/>
   </g>
   <path class="fil2" d="M15602.93 2507.06c0,0 -1072.28,-2146.65 -3440.22,-2464.67 -2367.94,-318.03 -4021.02,1232.32 -5763.48,2027.39 -912.49,416.36 -1954.73,254.64 -2923.45,456.19 -5922.91,1232.19 -4228.93,11257.37 4720.69,11670.75 6924.41,319.82 10027.67,-5775.71 7406.46,-11689.65z"/>
   <g style="clip-path:url(#id0)">
    <g>
     <g>
      <g>
       <g>
        <path id="1" class="fil3" d="M15115.46 11967.5c127.67,-734.07 1340.49,-2138.39 989.41,-3000.13 -351.09,-861.74 -1212.82,1883.06 -1531.99,1914.98 -319.15,31.92 -31.91,-1244.74 414.91,-2457.56 446.84,-1212.82 797.92,-2489.46 0,-2968.2 -797.9,-478.75 -765.99,3319.28 -957.48,3191.61 -191.5,-127.66 127.67,-1723.46 -95.75,-2712.87 -223.41,-989.4 -734.07,-191.49 -734.07,957.49 0,1148.98 351.08,1787.31 95.75,1883.05 -255.34,95.75 -1039,-261.95 -1021.33,989.41 17.68,1251.36 989.41,2744.8 638.33,2553.3 -351.08,-191.5 -989.41,-925.57 -861.74,255.33 90.26,834.93 738.56,1637.4 1110.91,2036.26l1706.34 0c260.17,-267.45 765.94,-831.48 1108.46,-1493.69 478.74,-925.57 -989.41,-414.91 -861.74,-1148.98z"/>
        <path class="fil0 str0" d="M13041 14536.61c-316.07,-452.77 -463.69,-1006.33 -611.31,-1523 -73.81,-332.15 -73.81,-701.2 184.52,-922.63 258.33,-184.53 405.95,147.62 553.57,295.24 110.72,-73.81 36.91,-184.52 36.91,-258.33 -73.8,-590.47 -110.71,-1180.96 -110.71,-1771.43 0,-369.05 147.62,-664.28 295.24,-996.43 73.81,-110.72 147.62,-221.43 258.33,-258.34 110.72,-36.91 221.43,0 258.34,110.72 73.8,258.33 73.8,516.66 110.71,775 73.81,-73.81 36.91,-184.53 36.91,-258.34 147.62,-1070.23 36.91,-2103.57 369.05,-3136.9 36.91,-73.8 147.62,-147.62 221.43,-110.71 258.34,36.91 258.34,369.05 258.34,590.46 147.62,1070.24 -184.53,2103.58 -295.24,3173.81 0,73.81 -36.91,147.62 36.9,221.43 36.91,-258.33 184.52,-516.67 258.34,-775 36.91,-110.72 110.71,-258.34 221.43,-332.15 73.8,-36.91 147.62,0 221.42,73.8 147.62,221.43 184.52,442.87 147.62,701.2 -110.71,627.38 -332.15,1144.05 -590.47,1697.62 -36.91,110.71 -73.81,221.42 -110.71,332.15 -36.91,221.42 -184.52,479.76 -36.91,664.28 258.33,-36.91 332.14,-332.14 553.56,-479.76 221.43,-147.62 295.25,36.9 332.15,184.52 147.63,738.09 -110.71,1402.38 -482.78,2001.24"/>
       </g>
       <path class="fil0 str0" d="M14074.6 14395.54c0,0 -86.22,-1724.32 129.32,-3297.76"/>
       <polyline class="fil0 str0" points="13363.31,13296.29 14074.6,14072.24 14699.66,13533.39 "/>
       <polyline class="fil0 str0" points="13880.61,11356.43 14074.6,12347.92 14635,11356.43 "/>
       <line class="fil0 str0" x1="14225.47" y1="10839.13" x2="14354.8" y2= "9912.31" />
      </g>
      <g>
       <polygon class="fil0 str0" points="1685.51,6187.63 4009.89,6187.63 4009.89,3282.15 1685.51,3282.15 "/>
       <polygon class="fil0 str0" points="4590.97,6187.63 6915.35,6187.63 6915.35,3282.15 4590.97,3282.15 "/>
       <polygon class="fil0 str0" points="1685.51,9568.52 4009.89,9568.52 4009.89,6663.06 1685.51,6663.06 "/>
       <polygon class="fil0 str0" points="4590.97,9568.52 6915.35,9568.52 6915.35,6663.06 4590.97,6663.06 "/>
       <polygon class="fil0 str0" points="1685.51,12949.42 4009.89,12949.42 4009.89,10043.96 1685.51,10043.96 "/>
       <polygon class="fil0 str0" points="4590.97,12949.42 6915.35,12949.42 6915.35,10043.96 4590.97,10043.96 "/>
       <line class="fil0 str0" x1="4326.85" y1="271.04" x2="4326.84" y2= "271.04" />
       <path class="fil0 str0" d="M4326.84 271.04c-1429.59,0 -2588.5,1158.9 -2588.5,2588.49"/>
       <polyline class="fil0 str0" points="1738.34,2859.53 1738.34,2859.54 6915.35,2859.54 "/>
       <path class="fil0 str0" d="M6915.35 2859.54c0,-1429.6 -1158.91,-2588.5 -2588.5,-2588.5"/>
      </g>
      <g>
       <g>
        <path class="fil1 str1" d="M7674.41 1658.68c0,0 0,-552.54 -950.36,-442.04 -950.37,110.51 -1348.2,950.37 -1635.52,1127.19 -287.33,176.8 -817.76,331.53 -839.87,596.74 -22.09,265.22 221.02,375.72 -22.09,574.64 -243.12,198.91 -618.84,375.72 -530.44,640.94 88.41,265.22 331.52,530.44 221.02,707.25 -110.51,176.81 -419.93,353.63 -132.61,552.54 287.32,198.92 419.93,243.12 419.93,508.34 0,265.21 -110.5,442.03 154.71,530.44 265.22,88.41 419.93,-88.41 574.65,243.12 154.71,331.52 309.42,419.91 574.63,353.62 265.22,-66.3 640.95,-176.8 773.56,-88.41 132.61,88.41 552.54,331.52 729.35,198.91 176.81,-132.61 331.52,-331.52 596.74,-221 265.22,110.5 486.24,265.2 596.75,66.3 110.49,-198.92 0,-243.12 419.91,-331.53 419.93,-88.41 574.64,-66.3 574.64,-419.93 0,-353.62 -22.1,-442.03 176.81,-596.74 198.91,-154.71 375.72,-88.41 309.42,-464.13 -66.3,-375.72 -198.92,-464.13 -132.61,-839.86 66.3,-375.72 -110.51,-508.34 -243.12,-618.84 -132.61,-110.51 -287.33,-309.42 -243.12,-508.34 44.2,-198.91 375.72,-221.01 44.2,-574.63 -331.53,-353.63 -486.24,-243.12 -552.54,-508.34 -66.3,-265.21 -287.31,-839.85 -884.06,-486.22z"/>
        <path class="fil0 str2" d="M6825.95 2324.13c-135.93,215.6 -241.3,458.9 -460.38,664.28 -316.56,296.78 -1127.74,553.98 -1167.3,830.96 -39.57,276.98 98.92,435.27 -178.07,672.69 -276.98,237.42 -712.25,296.78 -712.25,534.19 0,237.42 118.72,316.56 59.35,494.62"/>
        <path class="fil0 str2" d="M7414.18 2058.52c0,0 -98.93,-257.2 -375.91,0 -21.4,19.87 -41.62,40.45 -60.86,61.65"/>
        <path class="fil0 str2" d="M5179.22 3189.31c-243.57,59.06 -435.5,101.48 -455.78,273.94 -39.57,336.34 19.78,553.97 -217.63,652.91 -237.43,98.92 -553.98,257.2 -455.06,455.05 98.93,197.85 118.71,257.2 98.93,336.34"/>
        <path class="fil0 str2" d="M7374.61 1741.96c0,0 -553.97,-356.13 -850.75,-39.57 -296.77,316.56 -158.29,712.26 -613.34,1147.53 -122.25,116.94 -261.63,191.04 -400.89,243.39"/>
        <path class="fil0 str2" d="M9299.09 4547.55c45.11,62.4 91.76,104.84 133.14,122.57"/>
        <path class="fil0 str2" d="M7770.3 2236.58c0,0 494.63,-158.27 613.32,118.71 118.71,276.99 178.07,771.61 395.7,850.75 217.64,79.15 316.56,197.85 316.56,633.12 0,152.63 24.32,293.09 61.89,413.72"/>
        <path class="fil0 str2" d="M4565.15 5758.3c158.29,-257.21 375.91,-158.28 395.7,-435.27 19.79,-276.99 -138.49,-356.13 19.79,-534.19 158.28,-178.07 415.48,-257.21 415.48,-257.21"/>
        <path class="fil0 str2" d="M4782.78 6312.28c0,0 -112.39,-88.73 -188.39,-211.22"/>
       </g>
       <g>
        <g>
         <path class="fil1 str3" d="M10260.29 14610.18c0,0 66.31,-906.16 -331.52,-1812.33 -397.83,-906.16 -487.77,-971.99 -487.77,-1237.22 0,-265.22 266.74,-575.1 310.95,-1171.85 44.2,-596.74 22.11,-884.06 22.11,-884.06 0,0 950.36,1502.9 1613.41,1591.31 663.04,88.41 1060.87,-530.44 817.76,-1370.29 -243.12,-839.86 -1303.99,-1525.02 -1723.93,-2077.54 -419.92,-552.54 -1370.29,-552.54 -1856.53,-552.54 -486.23,0 -729.33,-176.81 -817.74,-508.33 -88.41,-331.53 -88.41,-994.57 -88.41,-994.57 0,0 -574.65,353.62 -1547.11,-44.2 0,0 88.41,1215.58 -22.1,1392.4 -110.5,176.79 -265.21,353.61 -928.27,353.61 -663.04,0 -1215.58,132.61 -1525,442.03 -309.42,309.42 -1591.31,1547.11 -1922.83,2033.34 -331.53,486.24 -154.72,1016.67 243.11,1215.59 397.83,198.91 795.66,22.09 1082.98,-243.12 287.33,-265.22 1193.49,-1105.08 1193.49,-1105.08 0,0 0,508.33 243.12,1237.69 243.12,729.35 442.03,640.94 265.21,1171.38 -176.8,530.44 -530.43,685.15 -640.94,1370.29 -110.51,685.16 -88.41,1193.49 -88.41,1193.49l6188.42 0z"/>
         <path class="fil3 str3" d="M10260.29 14610.18c0,0 66.31,-906.16 -331.52,-1812.33 -397.83,-906.16 -487.77,-971.99 -487.77,-1237.22 0,-265.22 266.74,-575.1 310.95,-1171.85 44.2,-596.74 22.11,-884.06 22.11,-884.06 0,0 950.36,1502.9 1613.41,1591.31 663.04,88.41 1060.87,-530.44 817.76,-1370.29 -243.12,-839.86 -1303.99,-1525.02 -1723.93,-2077.54 -419.92,-552.54 -1370.29,-552.54 -1856.53,-552.54 -486.23,0 -729.33,-176.81 -817.74,-508.33 -88.41,-331.53 -88.41,-994.57 -88.41,-994.57 0,0 -574.65,353.62 -1547.11,-44.2 0,0 88.41,1215.58 -22.1,1392.4 -110.5,176.79 -265.21,353.61 -928.27,353.61 -663.04,0 -1215.58,132.61 -1525,442.03 -309.42,309.42 -1591.31,1547.11 -1922.83,2033.34 -331.53,486.24 -154.72,1016.67 243.11,1215.59 397.83,198.91 795.66,22.09 1082.98,-243.12 287.33,-265.22 1193.49,-1105.08 1193.49,-1105.08 0,0 0,508.33 243.12,1237.69 243.12,729.35 442.03,640.94 265.21,1171.38 -176.8,530.44 -530.43,685.15 -640.94,1370.29 -110.51,685.16 -88.41,1193.49 -88.41,1193.49l6188.42 0z"/>
        </g>
        <g>
         <path class="fil4" d="M8810.06 7786c-15.21,0 -70.57,37.84 0,144.42 70.61,-106.58 15.24,-144.42 0,-144.42z"/>
         <path class="fil4" d="M10581.49 7786c-15.21,0 -70.56,37.84 0,144.42 70.61,-106.58 15.25,-144.42 0,-144.42z"/>
         <path class="fil4" d="M10581.49 8671.71c-15.21,0 -70.56,37.84 0,144.41 70.61,-106.57 15.25,-144.41 0,-144.41z"/>
         <path class="fil4" d="M8810.06 8671.71c-15.21,0 -70.57,37.84 0,144.41 70.61,-106.57 15.24,-144.41 0,-144.41z"/>
         <path class="fil4" d="M9695.77 8228.84c-15.2,0 -70.56,37.86 0,144.42 70.61,-106.56 15.25,-144.42 0,-144.42z"/>
         <path class="fil4" d="M9695.77 7343.15c-15.2,0 -70.56,37.84 0,144.41 70.61,-106.57 15.25,-144.41 0,-144.41z"/>
         <path class="fil4" d="M8848.34 7952.37c127.61,7.28 132.4,-59.58 124.73,-72.77 -7.69,-13.15 -68.26,-41.88 -124.73,72.77z"/>
         <path class="fil4" d="M10680.32 7876.61c-18.9,11.4 -39.99,34 -60.56,75.76 59.75,3.41 92.35,-9.48 109.57,-25.47 -16.69,-16.87 -33.02,-33.63 -49.02,-50.29z"/>
         <path class="fil4" d="M9734.06 8395.21c127.61,7.28 132.4,-59.58 124.73,-72.77 -7.69,-13.15 -68.26,-41.87 -124.73,72.77z"/>
         <path class="fil4" d="M9734.06 7509.52c127.61,7.27 132.4,-59.59 124.73,-72.77 -7.69,-13.17 -68.26,-41.89 -124.73,72.77z"/>
         <path class="fil4" d="M10418.52 7879.6c-7.68,13.19 -2.84,80.05 124.78,72.77 -56.52,-114.65 -117.1,-85.92 -124.78,-72.77z"/>
         <path class="fil4" d="M10418.52 8765.3c-4.35,7.47 -4.63,32.13 19.08,50.82l-0.01 0c18.16,14.31 50.35,25.11 105.71,21.96 -3.97,-8.06 -7.98,-15.25 -11.97,-21.96 -52.8,-88.56 -105.66,-63.05 -112.8,-50.82z"/>
         <path class="fil4" d="M9532.81 8322.44c-7.69,13.19 -2.85,80.06 124.77,72.77 -56.52,-114.64 -117.1,-85.92 -124.77,-72.77z"/>
         <path class="fil4" d="M9532.81 7436.75c-7.69,13.18 -2.85,80.04 124.77,72.77 -56.52,-114.66 -117.1,-85.94 -124.77,-72.77z"/>
         <path class="fil4" d="M8810.06 10443.14c-15.21,0 -70.57,37.83 0,144.42 70.61,-106.58 15.24,-144.42 0,-144.42z"/>
         <path class="fil4" d="M10581.49 10443.14c-10.98,0 -42.73,19.94 -32.96,71.14l0.74 0.79 5.84 6.27 0.73 0.77 0.73 0.78 0.73 0.79 0.73 0.77 0.73 0.78 17.63 18.68 0.73 0.77 0.73 0.78 0.74 0.78 0.73 0.78 0.74 0.77 13.27 13.91 0.75 0.77 0.73 0.76 0.74 0.78c47.91,-88.54 0,-120.86 -14.06,-120.86z"/>
         <path class="fil4" d="M8810.06 11328.86c-15.21,0 -70.57,37.84 0,144.41 70.61,-106.57 15.24,-144.41 0,-144.41z"/>
         <path class="fil4" d="M11467.21 10886c-15.2,0 -70.57,37.85 0,144.42 70.57,-106.57 15.21,-144.42 0,-144.42z"/>
         <path class="fil4" d="M8810.06 9557.42c-15.21,0 -70.57,37.84 0,144.41 70.61,-106.57 15.24,-144.41 0,-144.41z"/>
         <path class="fil4" d="M10581.49 9557.42c-15.21,0 -70.56,37.84 0,144.41 70.61,-106.57 15.25,-144.41 0,-144.41z"/>
         <path class="fil4" d="M9695.77 10000.29c-15.2,0 -70.56,37.83 0,144.4 70.61,-106.57 15.25,-144.4 0,-144.4z"/>
         <path class="fil4" d="M11467.21 10000.29c-15.2,0 -70.57,37.83 0,144.4 70.57,-106.57 15.21,-144.4 0,-144.4z"/>
         <path class="fil4" d="M9695.77 9114.57c-15.2,0 -70.56,37.84 0,144.41 70.61,-106.57 15.25,-144.41 0,-144.41z"/>
         <path class="fil4" d="M11467.21 9114.57c-15.2,0 -70.57,37.84 0,144.41 70.57,-106.57 15.21,-144.41 0,-144.41z"/>
         <path class="fil4" d="M8848.34 10609.5c127.61,7.29 132.4,-59.57 124.73,-72.77 -7.69,-13.15 -68.26,-41.88 -124.73,72.77z"/>
         <path class="fil4" d="M10626.84 10596.28l0.21 0.22 0.2 0.21 0.21 0.22 0.22 0.21 0.2 0.22 0.21 0.2 0.22 0.22 0.21 0.2 0.2 0.22 0.22 0.21 0.2 0.22 0.21 0.21 0.21 0.22 0.2 0.21 0.43 0.43 0.22 0.22 0.2 0.21 0.2 0.22 0.21 0.21 0.22 0.22 0.2 0.21 0.21 0.22 0.22 0.21 0.21 0.21 0.2 0.22 0.22 0.21 0.21 0.22 0.2 0.2 0.21 0.22 0.2 0.2 0.22 0.23 0.21 0.2 0.22 0.22 0.2 0.21 0.21 0.22 0.22 0.21 0.21 0.21 0.21 0.22 0.21 0.21 0.22 0.22 0.21 0.22 0.21 0.22 0.2 0.21 0.22 0.22 0.21 0.2 0.22 0.22 0.2 0.21 0.21 0.2 0.22 0.22 0.2 0.2 0.22 0.22 0.2 0.21 0.22 0.22 0.21 0.21 0.21 0.21 0.22 0.22 0.2 0.2 0.21 0.22 0.21 0.2 0.21 0.22 0.22 0.21 0.21 0.22 0.2 0.21c107.4,-0.73 111.38,-60.81 104.11,-73.25 -7.31,-12.6 -63.26,-39.16 -117.62,59.55z"/>
         <path class="fil4" d="M8945.12 11409.46c-12.3,-0.77 -27.67,2.76 -44.37,15.43 -6.69,5.08 -13.58,11.61 -20.59,19.91 -6.56,7.79 -13.22,17.3 -19.86,28.47 -0.45,0.74 -0.89,1.33 -1.34,2.1 -3.55,6.08 -7.09,12.69 -10.62,19.85 55.35,3.16 87.54,-7.64 105.68,-21.95 2.78,-2.19 5.27,-4.44 7.42,-6.77 4.05,-4.36 7.04,-8.87 9.2,-13.31 6.44,-13.3 5.31,-25.79 2.44,-30.74 -2.89,-4.94 -13.2,-12.06 -27.95,-12.99z"/>
         <path class="fil4" d="M11505.49 11052.36c127.57,7.28 132.34,-59.58 124.7,-72.77 -7.65,-13.14 -68.26,-41.88 -124.7,72.77z"/>
         <path class="fil4" d="M8848.34 9723.79c127.61,7.28 132.4,-59.58 124.73,-72.76 -7.69,-13.16 -68.26,-41.88 -124.73,72.76z"/>
         <path class="fil4" d="M10744.46 9651.02c-7.63,-13.16 -68.22,-41.88 -124.69,72.76 127.59,7.28 132.41,-59.58 124.69,-72.76z"/>
         <path class="fil4" d="M9734.06 10166.65c11.87,0.67 22.36,0.52 32.19,0.03 1.01,-18.44 1.89,-36.17 2.76,-53.81 -11.49,12.85 -23.3,30.13 -34.95,53.78z"/>
         <path class="fil4" d="M11505.49 10166.65c127.57,7.27 132.34,-59.57 124.7,-72.77 -7.65,-13.17 -68.26,-41.88 -124.7,72.77z"/>
         <path class="fil4" d="M9734.06 9280.94c127.61,7.27 132.4,-59.58 124.73,-72.77 -7.69,-13.16 -68.26,-41.88 -124.73,72.77z"/>
         <path class="fil4" d="M11505.49 9280.94c127.57,7.27 132.34,-59.58 124.7,-72.77 -7.65,-13.16 -68.26,-41.88 -124.7,72.77z"/>
         <path class="fil4" d="M9598.74 11049.57c6.75,-17.9 13.43,-36.29 20.15,-54.97 -42.73,-44.28 -80.17,-25.16 -86.08,-15.02 -6.26,10.76 -4.16,57.15 65.93,69.98z"/>
         <path class="fil4" d="M12189.95 10536.74c-4.68,8.01 -4.56,35.8 24.75,54.77 7.54,-21.41 14.37,-43.41 20.57,-65.9 -23.79,-6.19 -41.43,4.44 -45.32,11.13z"/>
         <path class="fil4" d="M11304.23 10979.59c-7.71,13.19 -2.87,80.05 124.78,72.77 -56.52,-114.65 -117.13,-85.91 -124.78,-72.77z"/>
         <path class="fil4" d="M10418.52 9651.02c-7.68,13.19 -2.84,80.04 124.78,72.76 -56.52,-114.64 -117.1,-85.92 -124.78,-72.76z"/>
         <path class="fil4" d="M9532.81 10093.88c-7.69,13.19 -2.85,80.04 124.77,72.77 -56.52,-114.65 -117.1,-85.93 -124.77,-72.77z"/>
         <path class="fil4" d="M11304.23 10093.88c-7.71,13.19 -2.87,80.04 124.78,72.77 -56.52,-114.65 -117.13,-85.93 -124.78,-72.77z"/>
         <path class="fil4" d="M9532.81 9208.17c-7.69,13.19 -2.85,80.04 124.77,72.77 -56.52,-114.65 -117.1,-85.93 -124.77,-72.77z"/>
         <path class="fil4" d="M11304.23 9208.17c-7.71,13.19 -2.87,80.04 124.78,72.77 -56.52,-114.65 -117.13,-85.93 -124.78,-72.77z"/>
         <path class="fil4" d="M10725.44 8816.12c23.68,-18.69 23.4,-43.35 19.02,-50.82 -7.1,-12.23 -59.95,-37.74 -112.74,50.82 -3.99,6.71 -7.98,13.9 -11.96,21.96 55.34,3.15 87.53,-7.65 105.67,-21.96z"/>
         <path class="fil4" d="M8954.02 8816.12l-0.01 0c23.7,-18.69 23.41,-43.35 19.06,-50.82 -7.14,-12.23 -60,-37.74 -112.78,50.82 -4,6.71 -7.98,13.9 -11.96,21.96 55.35,3.15 87.54,-7.65 105.69,-21.96z"/>
         <path class="fil4" d="M8810.06 13100.3c-15.21,0 -70.57,37.83 0,144.41 70.61,-106.58 15.24,-144.41 0,-144.41z"/>
         <path class="fil4" d="M8810.06 13986.01c-15.21,0 -70.57,37.84 0,144.4 70.61,-106.56 15.24,-144.4 0,-144.4z"/>
         <path class="fil4" d="M9695.77 13543.14c-15.2,0 -70.56,37.85 0,144.42 70.61,-106.57 15.25,-144.42 0,-144.42z"/>
         <path class="fil4" d="M8810.06 12214.57c-15.21,0 -70.57,37.85 0,144.42 70.61,-106.57 15.24,-144.42 0,-144.42z"/>
         <path class="fil4" d="M9695.77 12657.44c-15.2,0 -70.56,37.84 0,144.41 70.61,-106.57 15.25,-144.41 0,-144.41z"/>
         <path class="fil4" d="M8848.34 13266.66c127.61,7.28 132.4,-59.57 124.73,-72.77 -7.69,-13.15 -68.26,-41.88 -124.73,72.77z"/>
         <path class="fil4" d="M8945.12 14066.61c-2.46,-0.15 -5.04,-0.13 -7.74,0.09 -8.07,0.68 -17.13,3.26 -26.8,8.79 -3.22,1.84 -6.51,4.01 -9.84,6.55 -12.96,9.82 -26.71,25.31 -40.46,48.37 -4,6.7 -7.98,13.9 -11.96,21.96 55.35,3.15 87.54,-7.65 105.68,-21.96 23.7,-18.67 23.41,-43.33 19.06,-50.8 -2.89,-4.94 -13.2,-12.06 -27.95,-13z"/>
         <path class="fil4" d="M9734.06 13709.51c127.61,7.28 132.4,-59.58 124.73,-72.77 -7.69,-13.15 -68.26,-41.88 -124.73,72.77z"/>
         <path class="fil4" d="M8848.34 12380.93c127.61,7.29 132.4,-59.57 124.73,-72.77 -7.69,-13.15 -68.26,-41.87 -124.73,72.77z"/>
         <path class="fil4" d="M9734.06 12823.8c127.61,7.26 132.4,-59.58 124.73,-72.77 -7.69,-13.16 -68.26,-41.87 -124.73,72.77z"/>
         <path class="fil4" d="M9532.81 13636.74c-7.69,13.19 -2.85,80.04 124.77,72.77 -56.52,-114.65 -117.1,-85.92 -124.77,-72.77z"/>
         <path class="fil4" d="M9532.81 12751.03c-7.69,13.19 -2.85,80.04 124.77,72.77 -56.52,-114.65 -117.1,-85.93 -124.77,-72.77z"/>
         <path class="fil4" d="M9695.77 14428.87c-15.2,0 -70.56,37.83 0,144.42 70.61,-106.58 15.25,-144.42 0,-144.42z"/>
         <path class="fil4" d="M9734.06 14595.23c127.61,7.28 132.4,-59.57 124.73,-72.77 -7.69,-13.15 -68.26,-41.87 -124.73,72.77z"/>
         <path class="fil4" d="M9532.81 14522.46c-7.69,13.2 -2.85,80.06 124.77,72.77 -56.52,-114.65 -117.1,-85.92 -124.77,-72.77z"/>
         <path class="fil4" d="M7038.65 6014.59c-15.21,0 -70.57,37.84 0,144.41 70.61,-106.57 15.24,-144.41 0,-144.41z"/>
         <path class="fil4" d="M6173.95 5583.8l0.06 0.95 0.06 0.96 0.06 0.98 0.07 0.97 0.06 0.99 0.04 0.59 0.02 0.43 0.08 1.01 0.07 1.03 0.07 1.03 0.06 1.04 0.07 1.06 0.07 1.07 0.07 1.07 0.07 1.11 0.07 1.09 0.07 1.11 0.05 0.84 0.03 0.29 0.07 1.14 0.08 1.14 0.07 1.16 0.09 1.17 0.06 1.18 0.07 1.19 0.09 1.2 0.08 1.21 0.08 1.23 0.09 1.24 0.07 1.13 0 0.11 0.09 1.26 0.08 1.26 0.09 1.27 0.07 1.29 0.08 1.3 0.09 1.31 0.09 1.32 0.08 1.34 0.09 1.33 0.08 1.35 0.09 1.37 0.01 0.07 0.09 1.29 0.08 1.38 0.09 1.39 0.09 1.41 0.08 1.41 0.09 1.43 0.09 1.43 0.1 1.44 0.09 1.46 0.08 1.46 0.09 1.48 0.02 0.28 0.07 1.21 0.09 1.49 0.09 1.5 0.09 1.51 0.1 1.52 0.09 1.55 0.09 1.53 0.09 1.56 0.09 1.56 0.11 1.57 0.09 1.59 0.03 0.47 0.06 1.11 0.1 1.62 0.1 1.6c16.07,-42.59 7.05,-68.77 -5.26,-82.44z"/>
         <path class="fil4" d="M7173.7 6095.19c-12.28,-0.77 -27.66,2.76 -44.37,15.43 -6.68,5.06 -13.58,11.6 -20.58,19.91 -6.57,7.79 -13.22,17.3 -19.87,28.46 -0.44,0.74 -0.89,1.34 -1.33,2.09 -3.54,6.09 -7.09,12.69 -10.62,19.87 55.32,3.15 87.52,-7.65 105.67,-21.96 2.76,-2.19 5.26,-4.45 7.41,-6.76 4.06,-4.37 7.04,-8.89 9.19,-13.32 6.46,-13.31 5.33,-25.8 2.44,-30.75 -2.86,-4.93 -13.19,-12.05 -27.93,-12.98z"/>
         <path class="fil4" d="M6191.21 5738.08c127.61,7.29 132.41,-59.57 124.72,-72.77 -7.67,-13.15 -68.26,-41.87 -124.72,72.77z"/>
         <path class="fil4" d="M5301.34 7827.06c-0.96,-6.25 -2.68,-11.71 -4.9,-16.43 -0.04,-0.09 -0.04,-0.23 -0.09,-0.32 -1.15,-2.44 -2.44,-4.68 -3.82,-6.72 -0.06,-0.09 -0.13,-0.14 -0.19,-0.22 -2.67,-3.91 -5.63,-7.13 -8.64,-9.66 -0.09,-0.09 -0.18,-0.15 -0.27,-0.24 -3.04,-2.53 -6.09,-4.38 -8.87,-5.61 -0.02,-0.01 -0.06,-0.04 -0.06,-0.04 -0.02,0 -0.04,0 -0.04,-0.02 -2.81,-1.24 -5.34,-1.82 -7.24,-1.82 -1.91,0 -4.43,0.59 -7.27,1.84 -16.98,7.46 -44.87,38.37 -13.62,105.77 5.21,11.24 12.06,23.49 20.89,36.81 8.82,-13.33 15.69,-25.57 20.9,-36.81 10.43,-22.46 14.28,-40.87 14.15,-55.72 -0.05,-3.71 -0.31,-7.2 -0.81,-10.47 -0.01,-0.13 -0.08,-0.22 -0.11,-0.36z"/>
         <path class="fil4" d="M7038.65 7786c-15.21,0 -70.57,37.84 0,144.42 70.61,-106.58 15.24,-144.42 0,-144.42z"/>
         <path class="fil4" d="M7038.65 8671.71c-15.21,0 -70.57,37.84 0,144.41 70.61,-106.57 15.24,-144.41 0,-144.41z"/>
         <path class="fil4" d="M5301.34 8712.76c-0.96,-6.26 -2.68,-11.7 -4.9,-16.42 -0.04,-0.1 -0.04,-0.24 -0.09,-0.32 -1.15,-2.43 -2.44,-4.67 -3.82,-6.72 -0.06,-0.08 -0.13,-0.13 -0.19,-0.21 -2.67,-3.93 -5.63,-7.13 -8.64,-9.67 -0.09,-0.07 -0.18,-0.15 -0.27,-0.23 -3.04,-2.52 -6.09,-4.38 -8.87,-5.61 -0.02,-0 -0.06,-0.04 -0.06,-0.04 -0.02,-0.02 -0.04,-0.02 -0.04,-0.02 -2.81,-1.23 -5.34,-1.82 -7.24,-1.82 -1.91,0 -4.43,0.59 -7.27,1.84 -16.98,7.46 -44.87,38.36 -13.62,105.77 5.21,11.24 12.06,23.48 20.89,36.8 8.82,-13.32 15.69,-25.56 20.9,-36.8 10.43,-22.47 14.28,-40.89 14.15,-55.73 -0.05,-3.7 -0.31,-7.19 -0.81,-10.46 -0.01,-0.15 -0.08,-0.22 -0.11,-0.36z"/>
         <path class="fil4" d="M6152.93 8228.84c-15.21,0 -70.57,37.86 0,144.42 70.6,-106.56 15.24,-144.42 0,-144.42z"/>
         <path class="fil4" d="M7924.36 8228.84c-15.2,0 -70.56,37.86 0,144.42 70.56,-106.56 15.22,-144.42 0,-144.42z"/>
         <path class="fil4" d="M7038.65 6900.29c-15.21,0 -70.57,37.85 0,144.42 70.61,-106.57 15.24,-144.42 0,-144.42z"/>
         <path class="fil4" d="M6152.93 7343.15c-15.21,0 -70.57,37.84 0,144.41 70.6,-106.57 15.24,-144.41 0,-144.41z"/>
         <path class="fil4" d="M7924.36 7343.15c-15.2,0 -70.56,37.84 0,144.41 70.56,-106.57 15.22,-144.41 0,-144.41z"/>
         <path class="fil4" d="M5305.49 7952.37c127.62,7.28 132.41,-59.58 124.73,-72.77 -7.67,-13.15 -68.26,-41.88 -124.73,72.77z"/>
         <path class="fil4" d="M7076.93 7952.37c127.57,7.28 132.41,-59.58 124.7,-72.77 -7.65,-13.15 -68.23,-41.88 -124.7,72.77z"/>
         <path class="fil4" d="M6191.21 8395.21c127.61,7.28 132.41,-59.58 124.72,-72.77 -7.67,-13.15 -68.26,-41.87 -124.72,72.77z"/>
         <path class="fil4" d="M7962.63 8395.21c127.58,7.28 132.34,-59.58 124.69,-72.77 -7.64,-13.15 -68.26,-41.87 -124.69,72.77z"/>
         <path class="fil4" d="M7076.93 7066.65c127.57,7.28 132.41,-59.56 124.7,-72.75 -7.65,-13.15 -68.23,-41.88 -124.7,72.75z"/>
         <path class="fil4" d="M6191.21 7509.52c127.61,7.27 132.41,-59.59 124.72,-72.77 -7.67,-13.17 -68.26,-41.89 -124.72,72.77z"/>
         <path class="fil4" d="M7962.63 7509.52c127.58,7.27 132.34,-59.59 124.69,-72.77 -7.64,-13.17 -68.26,-41.89 -124.69,72.77z"/>
         <path class="fil4" d="M6315.93 6551.04c-7.21,-12.37 -61.13,-38.42 -114.46,53.56l-0.79 19.42c118.03,3.36 122.73,-60.14 115.24,-72.98z"/>
         <path class="fil4" d="M6875.67 7879.6c-7.67,13.19 -2.84,80.05 124.78,72.77 -56.51,-114.65 -117.09,-85.92 -124.78,-72.77z"/>
         <path class="fil4" d="M6875.67 8765.3c-4.35,7.47 -4.63,32.13 19.08,50.82 18.15,14.31 50.35,25.11 105.7,21.96 -3.98,-8.06 -7.97,-15.25 -11.96,-21.96 -52.81,-88.56 -105.68,-63.05 -112.81,-50.82z"/>
         <path class="fil4" d="M5989.96 8322.44c-7.68,13.19 -2.85,80.06 124.76,72.77 -56.51,-114.64 -117.08,-85.92 -124.76,-72.77z"/>
         <path class="fil4" d="M8647.08 7879.6c-7.71,13.19 -2.87,80.05 124.7,72.77 -56.44,-114.65 -117.06,-85.92 -124.7,-72.77z"/>
         <path class="fil4" d="M8759.83 8816.12c-52.76,-88.56 -105.65,-63.05 -112.75,-50.82 -4.36,7.47 -4.65,32.13 19.04,50.82 18.14,14.31 50.33,25.11 105.66,21.96 -3.96,-8.06 -7.96,-15.25 -11.95,-21.96z"/>
         <path class="fil4" d="M7761.39 8322.44c-7.72,13.19 -2.89,80.06 124.78,72.77 -56.52,-114.64 -117.13,-85.92 -124.78,-72.77z"/>
         <path class="fil4" d="M6875.67 6993.89c-7.67,13.19 -2.84,80.04 124.78,72.75 -56.51,-114.63 -117.09,-85.9 -124.78,-72.75z"/>
         <path class="fil4" d="M5989.96 7436.75c-7.68,13.18 -2.85,80.04 124.76,72.77 -56.51,-114.66 -117.08,-85.94 -124.76,-72.77z"/>
         <path class="fil4" d="M7761.39 7436.75c-7.72,13.18 -2.89,80.04 124.78,72.77 -56.52,-114.66 -117.13,-85.94 -124.78,-72.77z"/>
         <path class="fil4" d="M7808.42 6592.31l-0.15 -0.5 -0.13 -0.5 -0.14 -0.5 -0.28 -0.99 -0.13 -0.49 -0.13 -0.5 -0.14 -0.5 -0.13 -0.51 -0.13 -0.5 -0.2 -0.73 -0.19 -0.73 -2.49 -9.67 -0.2 -0.76 -0.19 -0.76 -0.19 -0.75 -0.18 -0.76c-2.87,-11.35 -5.65,-23.04 -8.31,-35.06 -17.78,-0.82 -30.47,7.38 -33.68,12.93 -5.92,10.11 -4.2,51.73 54.5,67.29 -2.61,-8.56 -5.09,-17.25 -7.48,-26.03z"/>
         <path class="fil4" d="M6988.49 6159c-6.67,-11.17 -13.32,-20.68 -19.87,-28.46 -7.01,-8.31 -13.92,-14.85 -20.6,-19.91 -16.72,-12.68 -32.1,-16.2 -44.39,-15.43 -14.76,0.93 -25.07,8.06 -27.96,12.98 -2.88,4.95 -3.99,17.44 2.46,30.75 2.15,4.43 5.15,8.95 9.2,13.32 2.15,2.31 4.65,4.57 7.42,6.76 18.15,14.31 50.35,25.1 105.7,21.96 -3.54,-7.18 -7.09,-13.78 -10.63,-19.87 -0.44,-0.75 -0.89,-1.34 -1.33,-2.09z"/>
         <path class="fil4" d="M5301.34 10484.2c-0.96,-6.25 -2.68,-11.71 -4.9,-16.43 -0.04,-0.1 -0.04,-0.22 -0.09,-0.31 -1.15,-2.44 -2.44,-4.68 -3.82,-6.72 -0.06,-0.09 -0.13,-0.14 -0.19,-0.22 -2.67,-3.91 -5.63,-7.13 -8.64,-9.65 -0.09,-0.09 -0.18,-0.15 -0.27,-0.24 -3.04,-2.54 -6.09,-4.39 -8.87,-5.61 -0.02,-0.01 -0.06,-0.03 -0.06,-0.04 -0.02,0 -0.04,0 -0.04,-0.01 -2.81,-1.24 -5.34,-1.82 -7.24,-1.82 -1.91,0 -4.43,0.58 -7.27,1.83 -16.98,7.46 -44.87,38.37 -13.62,105.78 5.21,11.23 12.06,23.48 20.89,36.81 8.82,-13.33 15.69,-25.58 20.9,-36.81 10.43,-22.46 14.28,-40.88 14.15,-55.72 -0.05,-3.72 -0.31,-7.2 -0.81,-10.46 -0.01,-0.14 -0.08,-0.23 -0.11,-0.37z"/>
         <path class="fil4" d="M7038.65 10443.14c-15.21,0 -70.57,37.83 0,144.42 70.61,-106.58 15.24,-144.42 0,-144.42z"/>
         <path class="fil4" d="M7038.65 11328.86c-15.21,0 -70.57,37.84 0,144.41 70.61,-106.57 15.24,-144.41 0,-144.41z"/>
         <path class="fil4" d="M5301.34 11369.91c-0.96,-6.26 -2.68,-11.71 -4.9,-16.43 -0.04,-0.09 -0.04,-0.22 -0.09,-0.31 -1.15,-2.44 -2.44,-4.68 -3.82,-6.72 -0.06,-0.1 -0.13,-0.13 -0.19,-0.21 -2.67,-3.92 -5.63,-7.13 -8.64,-9.66 -0.09,-0.08 -0.18,-0.16 -0.27,-0.24 -3.04,-2.53 -6.09,-4.39 -8.87,-5.61 -0.02,-0.01 -0.06,-0.02 -0.06,-0.04 -0.02,-0.01 -0.04,0 -0.04,-0.01 -2.81,-1.24 -5.34,-1.82 -7.24,-1.82 -1.91,0 -4.43,0.59 -7.27,1.83 -16.98,7.46 -44.87,38.37 -13.62,105.78 5.21,11.24 12.06,23.49 20.89,36.81 8.82,-13.32 15.69,-25.57 20.9,-36.81 10.43,-22.46 14.28,-40.89 14.15,-55.72 -0.05,-3.71 -0.31,-7.2 -0.81,-10.47 -0.01,-0.14 -0.08,-0.23 -0.11,-0.36z"/>
         <path class="fil4" d="M6152.93 10886c-15.21,0 -70.57,37.85 0,144.42 70.6,-106.57 15.24,-144.42 0,-144.42z"/>
         <path class="fil4" d="M7924.36 10886c-15.2,0 -70.56,37.85 0,144.42 70.56,-106.57 15.22,-144.42 0,-144.42z"/>
         <path class="fil4" d="M5301.34 9598.48c-0.96,-6.26 -2.68,-11.71 -4.9,-16.44 -0.04,-0.09 -0.04,-0.22 -0.09,-0.3 -1.15,-2.44 -2.44,-4.69 -3.82,-6.73 -0.06,-0.08 -0.13,-0.12 -0.19,-0.21 -2.67,-3.93 -5.63,-7.13 -8.64,-9.67 -0.09,-0.08 -0.18,-0.15 -0.27,-0.24 -3.04,-2.52 -6.09,-4.38 -8.87,-5.6 -0.02,-0.01 -0.06,-0.04 -0.06,-0.04 -0.02,-0 -0.04,-0 -0.04,-0 -2.81,-1.24 -5.34,-1.83 -7.24,-1.83 -1.91,0 -4.43,0.6 -7.27,1.84 -16.98,7.45 -44.87,38.37 -13.62,105.78 5.21,11.22 12.06,23.47 20.89,36.8 8.82,-13.33 15.69,-25.57 20.9,-36.8 10.43,-22.48 14.28,-40.89 14.15,-55.73 -0.05,-3.7 -0.31,-7.2 -0.81,-10.47 -0.01,-0.13 -0.08,-0.22 -0.11,-0.35z"/>
         <path class="fil4" d="M7038.65 9557.42c-15.21,0 -70.57,37.84 0,144.41 70.61,-106.57 15.24,-144.41 0,-144.41z"/>
         <path class="fil4" d="M6152.93 10000.29c-15.21,0 -70.57,37.83 0,144.4 70.6,-106.57 15.24,-144.4 0,-144.4z"/>
         <path class="fil4" d="M7924.36 10000.29c-15.2,0 -70.56,37.83 0,144.4 70.56,-106.57 15.22,-144.4 0,-144.4z"/>
         <path class="fil4" d="M6152.93 9114.57c-15.21,0 -70.57,37.84 0,144.41 70.6,-106.57 15.24,-144.41 0,-144.41z"/>
         <path class="fil4" d="M7924.36 9114.57c-15.2,0 -70.56,37.84 0,144.41 70.56,-106.57 15.22,-144.41 0,-144.41z"/>
         <path class="fil4" d="M5305.49 10609.5c127.62,7.29 132.41,-59.57 124.73,-72.77 -7.67,-13.15 -68.26,-41.88 -124.73,72.77z"/>
         <path class="fil4" d="M7076.93 10609.5c127.57,7.29 132.41,-59.57 124.7,-72.77 -7.65,-13.15 -68.23,-41.88 -124.7,72.77z"/>
         <path class="fil4" d="M7173.7 11409.46c-12.28,-0.77 -27.66,2.76 -44.37,15.43 -6.68,5.08 -13.58,11.61 -20.58,19.91 -6.57,7.79 -13.22,17.3 -19.87,28.47 -0.44,0.74 -0.89,1.33 -1.33,2.1 -3.54,6.08 -7.09,12.69 -10.62,19.85 55.32,3.16 87.52,-7.64 105.67,-21.95 2.76,-2.19 5.26,-4.44 7.41,-6.77 4.06,-4.36 7.04,-8.87 9.19,-13.31 6.46,-13.3 5.33,-25.79 2.44,-30.74 -2.86,-4.94 -13.19,-12.06 -27.93,-12.99z"/>
         <path class="fil4" d="M5402.28 11409.46c-12.3,-0.77 -27.68,2.76 -44.38,15.43 -6.68,5.08 -13.58,11.61 -20.59,19.91 -6.57,7.79 -13.22,17.3 -19.87,28.47 -0.45,0.74 -0.89,1.33 -1.32,2.1 -3.55,6.08 -7.1,12.69 -10.63,19.85 55.35,3.16 87.54,-7.64 105.69,-21.95l-0 0c2.78,-2.19 5.28,-4.44 7.41,-6.77 4.06,-4.36 7.05,-8.87 9.2,-13.31 6.46,-13.3 5.33,-25.79 2.44,-30.74 -2.87,-4.94 -13.19,-12.06 -27.94,-12.99z"/>
         <path class="fil4" d="M6191.21 11052.36c127.61,7.28 132.41,-59.58 124.72,-72.77 -7.67,-13.14 -68.26,-41.88 -124.72,72.77z"/>
         <path class="fil4" d="M7962.63 11052.36c127.58,7.28 132.34,-59.58 124.69,-72.77 -7.64,-13.14 -68.26,-41.88 -124.69,72.77z"/>
         <path class="fil4" d="M5305.49 9723.79c127.62,7.28 132.41,-59.58 124.73,-72.76 -7.67,-13.16 -68.26,-41.88 -124.73,72.76z"/>
         <path class="fil4" d="M7076.93 9723.79c127.57,7.28 132.41,-59.58 124.7,-72.76 -7.65,-13.16 -68.23,-41.88 -124.7,72.76z"/>
         <path class="fil4" d="M6191.21 10166.65c127.61,7.27 132.41,-59.57 124.72,-72.77 -7.67,-13.17 -68.26,-41.88 -124.72,72.77z"/>
         <path class="fil4" d="M7962.63 10166.65c127.58,7.27 132.34,-59.57 124.69,-72.77 -7.64,-13.17 -68.26,-41.88 -124.69,72.77z"/>
         <path class="fil4" d="M6191.21 9280.94c127.61,7.27 132.41,-59.58 124.72,-72.77 -7.67,-13.16 -68.26,-41.88 -124.72,72.77z"/>
         <path class="fil4" d="M7962.63 9280.94c127.58,7.27 132.34,-59.58 124.69,-72.77 -7.64,-13.16 -68.26,-41.88 -124.69,72.77z"/>
         <path class="fil4" d="M6875.67 10536.74c-7.67,13.19 -2.84,80.06 124.78,72.77 -56.51,-114.65 -117.09,-85.91 -124.78,-72.77z"/>
         <path class="fil4" d="M5989.96 10979.59c-7.68,13.19 -2.85,80.05 124.76,72.77 -56.51,-114.65 -117.08,-85.91 -124.76,-72.77z"/>
         <path class="fil4" d="M8647.08 10536.74c-7.71,13.19 -2.87,80.06 124.7,72.77 -56.44,-114.65 -117.06,-85.91 -124.7,-72.77z"/>
         <path class="fil4" d="M7761.39 10979.59c-7.72,13.19 -2.89,80.05 124.78,72.77 -56.52,-114.65 -117.13,-85.91 -124.78,-72.77z"/>
         <path class="fil4" d="M5476.34 11583.98c0,0 959.53,246.04 2165.09,-688.89 1205.54,-934.92 1672.99,-565.88 1623.78,98.42 -49.19,664.28 -1082.52,1279.36 -1525.37,1353.17 -728.26,121.37 -1377.78,319.85 -2263.5,-762.7z"/>
         <path class="fil4" d="M6875.67 9651.02c-7.67,13.19 -2.84,80.04 124.78,72.76 -56.51,-114.64 -117.09,-85.92 -124.78,-72.76z"/>
         <path class="fil4" d="M5989.96 10093.88c-7.68,13.19 -2.85,80.04 124.76,72.77 -56.51,-114.65 -117.08,-85.93 -124.76,-72.77z"/>
         <path class="fil4" d="M8647.08 9651.02c-7.71,13.19 -2.87,80.04 124.7,72.76 -56.44,-114.64 -117.06,-85.92 -124.7,-72.76z"/>
         <path class="fil4" d="M7761.39 10093.88c-7.72,13.19 -2.89,80.04 124.78,72.77 -56.52,-114.65 -117.13,-85.93 -124.78,-72.77z"/>
         <path class="fil4" d="M5989.96 9208.17c-7.68,13.19 -2.85,80.04 124.76,72.77 -56.51,-114.65 -117.08,-85.93 -124.76,-72.77z"/>
         <path class="fil4" d="M7761.39 9208.17c-7.72,13.19 -2.89,80.04 124.78,72.77 -56.52,-114.65 -117.13,-85.93 -124.78,-72.77z"/>
         <path class="fil4" d="M7182.6 8816.12l-0.01 0c23.69,-18.69 23.4,-43.35 19.03,-50.82 -7.1,-12.23 -59.97,-37.74 -112.75,50.82 -3.98,6.71 -7.98,13.9 -11.94,21.96 55.32,3.15 87.52,-7.65 105.67,-21.96z"/>
         <path class="fil4" d="M5411.18 8816.12l-0 0c23.7,-18.69 23.4,-43.35 19.04,-50.82 -7.12,-12.23 -59.99,-37.74 -112.77,50.82 -3.99,6.71 -7.98,13.9 -11.96,21.96 55.35,3.15 87.55,-7.65 105.69,-21.96z"/>
         <path class="fil4" d="M5301.34 13141.35c-0.96,-6.25 -2.68,-11.72 -4.9,-16.44 -0.04,-0.09 -0.04,-0.22 -0.09,-0.31 -1.15,-2.44 -2.44,-4.68 -3.82,-6.72 -0.06,-0.08 -0.13,-0.12 -0.19,-0.22 -2.67,-3.91 -5.63,-7.11 -8.64,-9.65 -0.09,-0.09 -0.18,-0.15 -0.27,-0.24 -3.04,-2.53 -6.09,-4.38 -8.87,-5.6 -0.02,-0.01 -0.06,-0.03 -0.06,-0.04 -0.02,0 -0.04,0 -0.04,-0.01 -2.81,-1.24 -5.34,-1.82 -7.24,-1.82 -1.91,0 -4.43,0.58 -7.27,1.83 -16.98,7.46 -44.87,38.37 -13.62,105.78 5.21,11.24 12.06,23.48 20.89,36.8 8.82,-13.32 15.69,-25.56 20.9,-36.8 10.43,-22.48 14.28,-40.88 14.15,-55.73 -0.05,-3.7 -0.31,-7.19 -0.81,-10.47 -0.01,-0.13 -0.08,-0.21 -0.11,-0.35z"/>
         <path class="fil4" d="M7038.65 13100.3c-15.21,0 -70.57,37.83 0,144.41 70.61,-106.58 15.24,-144.41 0,-144.41z"/>
         <path class="fil4" d="M7038.65 13986.01c-15.21,0 -70.57,37.84 0,144.4 70.61,-106.56 15.24,-144.4 0,-144.4z"/>
         <path class="fil4" d="M5301.34 14027.06c-0.96,-6.25 -2.68,-11.7 -4.9,-16.42 -0.04,-0.09 -0.04,-0.21 -0.09,-0.31 -1.15,-2.44 -2.44,-4.67 -3.82,-6.71 -0.06,-0.1 -0.13,-0.14 -0.19,-0.23 -2.67,-3.91 -5.63,-7.12 -8.64,-9.65 -0.09,-0.08 -0.18,-0.15 -0.27,-0.24 -3.04,-2.53 -6.09,-4.38 -8.87,-5.6 -0.02,-0.02 -0.06,-0.04 -0.06,-0.04 -0.02,-0.01 -0.04,0 -0.04,-0.01 -2.81,-1.24 -5.34,-1.82 -7.24,-1.82 -1.91,0 -4.43,0.58 -7.27,1.83 -16.98,7.45 -44.87,38.37 -13.62,105.77 5.21,11.24 12.06,23.49 20.89,36.8 8.82,-13.31 15.69,-25.56 20.9,-36.8 10.43,-22.47 14.28,-40.88 14.15,-55.71 -0.05,-3.72 -0.31,-7.2 -0.81,-10.47 -0.01,-0.13 -0.08,-0.23 -0.11,-0.37z"/>
         <path class="fil4" d="M6152.93 13543.14c-15.21,0 -70.57,37.85 0,144.42 70.6,-106.57 15.24,-144.42 0,-144.42z"/>
         <path class="fil4" d="M7924.36 13543.14c-15.2,0 -70.56,37.85 0,144.42 70.56,-106.57 15.22,-144.42 0,-144.42z"/>
         <path class="fil4" d="M5301.34 12255.63c-0.96,-6.26 -2.68,-11.72 -4.9,-16.44 -0.04,-0.08 -0.04,-0.21 -0.09,-0.3 -1.15,-2.43 -2.44,-4.67 -3.82,-6.72 -0.06,-0.07 -0.13,-0.13 -0.19,-0.21 -2.67,-3.92 -5.63,-7.12 -8.64,-9.67 -0.09,-0.09 -0.18,-0.16 -0.27,-0.24 -3.04,-2.52 -6.09,-4.37 -8.87,-5.59 -0.02,-0.02 -0.06,-0.04 -0.06,-0.04 -0.02,-0.02 -0.04,-0.02 -0.04,-0.02 -2.81,-1.23 -5.34,-1.83 -7.24,-1.83 -1.91,0 -4.43,0.6 -7.27,1.85 -16.98,7.45 -44.87,38.37 -13.62,105.76 5.21,11.24 12.06,23.49 20.89,36.81 8.82,-13.31 15.69,-25.57 20.9,-36.81 10.43,-22.46 14.28,-40.88 14.15,-55.72 -0.05,-3.7 -0.31,-7.2 -0.81,-10.46 -0.01,-0.14 -0.08,-0.23 -0.11,-0.37z"/>
         <path class="fil4" d="M7038.65 12214.57c-15.21,0 -70.57,37.85 0,144.42 70.61,-106.57 15.24,-144.42 0,-144.42z"/>
         <path class="fil4" d="M6152.93 12657.44c-15.21,0 -70.57,37.84 0,144.41 70.6,-106.57 15.24,-144.41 0,-144.41z"/>
         <path class="fil4" d="M7924.36 12657.44c-15.2,0 -70.56,37.84 0,144.41 70.56,-106.57 15.22,-144.41 0,-144.41z"/>
         <path class="fil4" d="M6152.93 11771.71c-15.21,0 -70.57,37.84 0,144.42 70.6,-106.58 15.24,-144.42 0,-144.42z"/>
         <path class="fil4" d="M7924.36 11771.71c-15.2,0 -70.56,37.84 0,144.42 70.56,-106.58 15.22,-144.42 0,-144.42z"/>
         <path class="fil4" d="M5305.49 13266.66c127.62,7.28 132.41,-59.57 124.73,-72.77 -7.67,-13.15 -68.26,-41.88 -124.73,72.77z"/>
         <path class="fil4" d="M7076.93 13266.66c127.57,7.28 132.41,-59.57 124.7,-72.77 -7.65,-13.15 -68.23,-41.88 -124.7,72.77z"/>
         <path class="fil4" d="M7173.7 14066.61c-2.45,-0.15 -5.04,-0.13 -7.72,0.09 -8.07,0.68 -17.12,3.26 -26.79,8.79 -3.22,1.84 -6.51,4.01 -9.85,6.55 -12.95,9.82 -26.71,25.31 -40.46,48.37 -3.98,6.7 -7.98,13.9 -11.94,21.96 55.32,3.15 87.52,-7.65 105.67,-21.96 23.69,-18.67 23.4,-43.33 19.03,-50.8 -2.86,-4.94 -13.19,-12.06 -27.93,-13z"/>
         <path class="fil4" d="M5402.28 14066.61c-2.46,-0.15 -5.05,-0.13 -7.73,0.09 -8.08,0.68 -17.14,3.26 -26.8,8.79 -3.22,1.84 -6.52,4.01 -9.85,6.55 -12.95,9.82 -26.7,25.31 -40.46,48.37 -3.99,6.7 -7.98,13.9 -11.96,21.96 55.35,3.15 87.54,-7.65 105.69,-21.96l-0 0c23.7,-18.67 23.4,-43.33 19.04,-50.8 -2.87,-4.94 -13.19,-12.06 -27.94,-13z"/>
         <path class="fil4" d="M6191.21 13709.51c127.61,7.28 132.41,-59.58 124.72,-72.77 -7.67,-13.15 -68.26,-41.88 -124.72,72.77z"/>
         <path class="fil4" d="M7962.63 13709.51c127.58,7.28 132.34,-59.58 124.69,-72.77 -7.64,-13.15 -68.26,-41.88 -124.69,72.77z"/>
         <path class="fil4" d="M5305.49 12380.93c127.62,7.29 132.41,-59.57 124.73,-72.77 -7.67,-13.15 -68.26,-41.87 -124.73,72.77z"/>
         <path class="fil4" d="M7076.93 12380.93c127.57,7.29 132.41,-59.57 124.7,-72.77 -7.65,-13.15 -68.23,-41.87 -124.7,72.77z"/>
         <path class="fil4" d="M6191.21 12823.8c127.61,7.26 132.41,-59.58 124.72,-72.77 -7.67,-13.16 -68.26,-41.87 -124.72,72.77z"/>
         <path class="fil4" d="M7962.63 12823.8c127.58,7.26 132.34,-59.58 124.69,-72.77 -7.64,-13.16 -68.26,-41.87 -124.69,72.77z"/>
         <path class="fil4" d="M6191.21 11938.08c127.61,7.28 132.41,-59.58 124.72,-72.76 -7.67,-13.15 -68.26,-41.88 -124.72,72.76z"/>
         <path class="fil4" d="M7962.63 11938.08c127.58,7.28 132.34,-59.58 124.69,-72.76 -7.64,-13.15 -68.26,-41.88 -124.69,72.76z"/>
         <path class="fil4" d="M6875.67 13193.89c-7.67,13.2 -2.84,80.05 124.78,72.77 -56.51,-114.65 -117.09,-85.93 -124.78,-72.77z"/>
         <path class="fil4" d="M6948.02 14082.04c-3.35,-2.54 -6.63,-4.71 -9.85,-6.55 -9.66,-5.52 -18.72,-8.11 -26.81,-8.79 -2.69,-0.22 -5.27,-0.24 -7.72,-0.09 -14.76,0.93 -25.07,8.06 -27.96,13 -4.35,7.47 -4.63,32.13 19.08,50.8 18.15,14.31 50.35,25.11 105.7,21.96 -3.98,-8.06 -7.97,-15.26 -11.96,-21.96 -13.77,-23.06 -27.52,-38.55 -40.47,-48.37z"/>
         <path class="fil4" d="M5989.96 13636.74c-7.68,13.19 -2.85,80.04 124.76,72.77 -56.51,-114.65 -117.08,-85.92 -124.76,-72.77z"/>
         <path class="fil4" d="M8647.08 13193.89c-7.71,13.2 -2.87,80.05 124.7,72.77 -56.44,-114.65 -117.06,-85.93 -124.7,-72.77z"/>
         <path class="fil4" d="M8759.83 14130.41c-13.73,-23.06 -27.49,-38.55 -40.44,-48.37 -3.34,-2.54 -6.63,-4.71 -9.86,-6.55 -9.65,-5.52 -18.71,-8.11 -26.78,-8.79 -2.7,-0.22 -5.28,-0.24 -7.74,-0.09 -14.75,0.93 -25.07,8.06 -27.94,13 -4.36,7.47 -4.65,32.13 19.04,50.8 18.14,14.31 50.33,25.11 105.66,21.96 -3.96,-8.06 -7.96,-15.26 -11.95,-21.96z"/>
         <path class="fil4" d="M7761.39 13636.74c-7.72,13.19 -2.89,80.04 124.78,72.77 -56.52,-114.65 -117.13,-85.92 -124.78,-72.77z"/>
         <path class="fil4" d="M6875.67 12308.17c-7.67,13.19 -2.84,80.06 124.78,72.77 -56.51,-114.64 -117.09,-85.92 -124.78,-72.77z"/>
         <path class="fil4" d="M5989.96 12751.03c-7.68,13.19 -2.85,80.04 124.76,72.77 -56.51,-114.65 -117.08,-85.93 -124.76,-72.77z"/>
         <path class="fil4" d="M8647.08 12308.17c-7.71,13.19 -2.87,80.06 124.7,72.77 -56.44,-114.64 -117.06,-85.92 -124.7,-72.77z"/>
         <path class="fil4" d="M7761.39 12751.03c-7.72,13.19 -2.89,80.04 124.78,72.77 -56.52,-114.65 -117.13,-85.93 -124.78,-72.77z"/>
         <path class="fil4" d="M5989.96 11865.31c-7.68,13.19 -2.85,80.05 124.76,72.76 -56.51,-114.64 -117.08,-85.91 -124.76,-72.76z"/>
         <path class="fil4" d="M7761.39 11865.31c-7.72,13.19 -2.89,80.05 124.78,72.76 -56.52,-114.64 -117.13,-85.91 -124.78,-72.76z"/>
         <path class="fil4" d="M6988.49 11473.27c-6.67,-11.17 -13.32,-20.68 -19.87,-28.47 -7.01,-8.31 -13.92,-14.83 -20.6,-19.91 -16.72,-12.67 -32.1,-16.2 -44.39,-15.43 -14.76,0.93 -25.07,8.06 -27.96,12.99 -2.88,4.95 -3.99,17.44 2.46,30.74 2.15,4.44 5.15,8.95 9.2,13.31 2.15,2.33 4.65,4.58 7.42,6.77 18.15,14.31 50.35,25.11 105.7,21.95 -3.54,-7.17 -7.09,-13.77 -10.63,-19.85 -0.44,-0.76 -0.89,-1.36 -1.33,-2.1z"/>
         <path class="fil4" d="M8759.83 11473.27c-6.65,-11.17 -13.3,-20.68 -19.85,-28.47 -7.01,-8.31 -13.91,-14.83 -20.59,-19.91 -16.71,-12.67 -32.09,-16.2 -44.37,-15.43 -14.75,0.93 -25.07,8.06 -27.94,12.99 -2.88,4.95 -4.01,17.44 2.43,30.74 2.15,4.44 5.13,8.95 9.18,13.31 2.15,2.33 4.66,4.58 7.43,6.77 18.14,14.31 50.33,25.11 105.66,21.95 -3.53,-7.17 -7.07,-13.77 -10.62,-19.85 -0.45,-0.76 -0.88,-1.36 -1.33,-2.1z"/>
         <path class="fil4" d="M6152.93 14428.87c-15.21,0 -70.57,37.83 0,144.42 70.6,-106.58 15.24,-144.42 0,-144.42z"/>
         <path class="fil4" d="M7924.36 14428.87c-15.2,0 -70.56,37.83 0,144.42 70.56,-106.58 15.22,-144.42 0,-144.42z"/>
         <path class="fil4" d="M6191.21 14595.23c127.61,7.28 132.41,-59.57 124.72,-72.77 -7.67,-13.15 -68.26,-41.87 -124.72,72.77z"/>
         <path class="fil4" d="M7962.63 14595.23c127.58,7.28 132.34,-59.57 124.69,-72.77 -7.64,-13.15 -68.26,-41.87 -124.69,72.77z"/>
         <path class="fil4" d="M5989.96 14522.46c-7.68,13.2 -2.85,80.06 124.76,72.77 -56.51,-114.65 -117.08,-85.92 -124.76,-72.77z"/>
         <path class="fil4" d="M7761.39 14522.46c-7.72,13.2 -2.89,80.06 124.78,72.77 -56.52,-114.65 -117.13,-85.92 -124.78,-72.77z"/>
         <path class="fil4" d="M3495.79 8671.71c-15.21,0 -70.57,37.84 0,144.41 70.6,-106.57 15.25,-144.41 0,-144.41z"/>
         <path class="fil4" d="M4381.51 8228.84c-15.21,0 -70.57,37.86 0,144.42 70.56,-106.56 15.2,-144.42 0,-144.42z"/>
         <path class="fil4" d="M4414.09 7377.29c-22.88,5.38 -45.31,11.15 -67.56,17.08 -0.39,22.33 8.23,52.81 34.98,93.19 34.36,-51.9 38.76,-87.41 32.58,-110.26z"/>
         <path class="fil4" d="M3534.06 7952.37c127.57,7.28 132.41,-59.58 124.7,-72.77 -7.64,-13.15 -68.23,-41.88 -124.7,72.77z"/>
         <path class="fil4" d="M4419.78 8395.21c127.58,7.28 132.33,-59.58 124.7,-72.77 -7.65,-13.15 -68.27,-41.87 -124.7,72.77z"/>
         <path class="fil4" d="M4419.78 7509.52c127.58,7.27 132.33,-59.59 124.7,-72.77 -7.65,-13.17 -68.27,-41.89 -124.7,72.77z"/>
         <path class="fil4" d="M3332.82 8765.3c-4.35,7.47 -4.63,32.13 19.07,50.82l-0.01 0c18.16,14.31 50.35,25.11 105.7,21.96 -3.97,-8.06 -7.96,-15.25 -11.96,-21.96 -52.81,-88.56 -105.67,-63.05 -112.8,-50.82z"/>
         <path class="fil4" d="M5104.25 7879.6c-7.72,13.19 -2.89,80.05 124.7,72.77 -56.43,-114.65 -117.06,-85.92 -124.7,-72.77z"/>
         <path class="fil4" d="M5217 8816.12c-52.76,-88.56 -105.64,-63.05 -112.75,-50.82 -4.37,7.47 -4.67,32.13 19.03,50.82 18.13,14.31 50.32,25.11 105.67,21.96 -3.96,-8.06 -7.96,-15.25 -11.95,-21.96l0 0z"/>
         <path class="fil4" d="M4218.53 8322.44c-7.71,13.19 -2.87,80.06 124.77,72.77 -56.51,-114.64 -117.12,-85.92 -124.77,-72.77z"/>
         <path class="fil4" d="M4245.35 7423.91c-6.43,2.06 -12.98,3.99 -19.34,6.1 -3.62,2.22 -6.28,4.67 -7.48,6.74 -7.71,13.18 -2.87,80.04 124.77,72.77 -35.89,-72.8 -73.37,-87.74 -97.95,-85.61z"/>
         <path class="fil4" d="M1724.35 10443.14c-15.21,0 -70.57,37.83 0,144.42 70.6,-106.58 15.24,-144.42 0,-144.42z"/>
         <path class="fil4" d="M2610.06 10886c-15.2,0 -70.56,37.85 0,144.42 70.61,-106.57 15.26,-144.42 0,-144.42z"/>
         <path class="fil4" d="M3495.79 9557.42c-15.21,0 -70.57,37.84 0,144.41 70.6,-106.57 15.25,-144.41 0,-144.41z"/>
         <path class="fil4" d="M2610.06 10000.29c-15.2,0 -70.56,37.83 0,144.4 70.61,-106.57 15.26,-144.4 0,-144.4z"/>
         <path class="fil4" d="M4381.51 10000.29c-15.21,0 -70.57,37.83 0,144.4 70.56,-106.57 15.2,-144.4 0,-144.4z"/>
         <path class="fil4" d="M2610.06 9114.57c-15.2,0 -70.56,37.84 0,144.41 70.61,-106.57 15.26,-144.41 0,-144.41z"/>
         <path class="fil4" d="M4381.51 9114.57c-15.21,0 -70.57,37.84 0,144.41 70.56,-106.57 15.2,-144.41 0,-144.41z"/>
         <path class="fil4" d="M1762.63 10609.5c127.62,7.29 132.41,-59.57 124.73,-72.77 -7.68,-13.15 -68.26,-41.88 -124.73,72.77z"/>
         <path class="fil4" d="M2670.35 11014.8l1.53 -0.56 1.54 -0.57 1.52 -0.57 1.52 -0.57 1.55 -0.58 1.53 -0.58 1.52 -0.58 7.63 -2.95 1.52 -0.59 1.52 -0.6 1.52 -0.6 1.52 -0.59 1.52 -0.61 1.52 -0.62 1.52 -0.6 6.05 -2.47 1.52 -0.63 1.52 -0.63 1.52 -0.63 1.51 -0.63 1.52 -0.64 1.5 -0.63 1.52 -0.63 7.54 -3.24 1.51 -0.65 1.5 -0.65 1.51 -0.66 1.49 -0.66 1.51 -0.67 1.5 -0.66 7.29 -3.26 0.2 -0.09 1.5 -0.69 1.49 -0.67 2.99 -1.38 1.5 -0.69 8.94 -4.17 1.48 -0.7 2.97 -1.41 1.49 -0.71 1.48 -0.71 1.48 -0.72 1.48 -0.72c-15.6,-10.53 -55.13,-17.46 -96.5,41.17z"/>
         <path class="fil4" d="M1887.36 9651.02c-2.11,-3.63 -8.34,-8.34 -17.27,-11 -16.89,21.36 -33.04,42.14 -47.96,61.95l-0.93 1.26 -0.95 1.27 -11.07 14.91 -0.9 1.23 -0.9 1.22 -0.89 1.22c84.71,-8.61 87.55,-60.59 80.88,-72.06z"/>
         <path class="fil4" d="M3534.06 9723.79c127.57,7.28 132.41,-59.58 124.7,-72.76 -7.64,-13.16 -68.23,-41.88 -124.7,72.76z"/>
         <path class="fil4" d="M2648.34 10166.65c127.62,7.27 132.41,-59.57 124.74,-72.77 -7.68,-13.17 -68.26,-41.88 -124.74,72.77z"/>
         <path class="fil4" d="M4419.78 10166.65c127.58,7.27 132.33,-59.57 124.7,-72.77 -7.65,-13.17 -68.27,-41.88 -124.7,72.77z"/>
         <path class="fil4" d="M2648.34 9280.94c127.62,7.27 132.41,-59.58 124.74,-72.77 -7.68,-13.16 -68.26,-41.88 -124.74,72.77z"/>
         <path class="fil4" d="M4419.78 9280.94c127.58,7.27 132.33,-59.58 124.7,-72.77 -7.65,-13.16 -68.27,-41.88 -124.7,72.77z"/>
         <path class="fil4" d="M2447.1 10979.59c-7,12 -3.3,68.23 93.44,72.85 9.35,-1.99 18.69,-4.04 27.98,-6.33 -55.53,-106.91 -113.89,-79.4 -121.42,-66.52z"/>
         <path class="fil4" d="M5104.25 10536.74c-7.72,13.19 -2.89,80.06 124.7,72.77 -56.43,-114.65 -117.06,-85.91 -124.7,-72.77z"/>
         <path class="fil4" d="M3332.82 9651.02c-7.68,13.19 -2.86,80.04 124.76,72.76 -56.51,-114.64 -117.09,-85.92 -124.76,-72.76z"/>
         <path class="fil4" d="M2447.1 10093.88c-7.69,13.19 -2.85,80.04 124.77,72.77 -56.52,-114.65 -117.09,-85.93 -124.77,-72.77z"/>
         <path class="fil4" d="M5104.25 9651.02c-7.72,13.19 -2.89,80.04 124.7,72.76 -56.43,-114.64 -117.06,-85.92 -124.7,-72.76z"/>
         <path class="fil4" d="M2447.1 9208.17c-7.69,13.19 -2.85,80.04 124.77,72.77 -56.52,-114.65 -117.09,-85.93 -124.77,-72.77z"/>
         <path class="fil4" d="M4218.53 9208.17c-7.71,13.19 -2.87,80.04 124.77,72.77 -56.51,-114.65 -117.12,-85.93 -124.77,-72.77z"/>
         <path class="fil4" d="M3639.73 8816.12l-0.01 0c23.69,-18.69 23.4,-43.35 19.04,-50.82 -7.11,-12.23 -59.97,-37.74 -112.75,50.82 -3.99,6.71 -7.98,13.9 -11.95,21.96 55.33,3.15 87.52,-7.65 105.67,-21.96z"/>
         <path class="fil4" d="M4381.51 13543.14c-15.21,0 -70.57,37.85 0,144.42 70.56,-106.57 15.2,-144.42 0,-144.42z"/>
         <path class="fil4" d="M4409.76 12746.14l-0.31 0.5 -0.98 1.61 -0.49 0.8 -3.9 6.4 -0.5 0.81 -0.96 1.59 -0.5 0.8 -0.48 0.81 -0.48 0.81c-7.47,12.35 -14.84,24.85 -22.18,37.48 0.9,1.39 1.59,2.67 2.53,4.1 14.16,-21.38 23.06,-39.89 28.43,-55.99l-0.18 0.28z"/>
         <path class="fil4" d="M4419.78 13709.51c127.58,7.28 132.33,-59.58 124.7,-72.77 -7.65,-13.15 -68.27,-41.88 -124.7,72.77z"/>
         <path class="fil4" d="M4419.78 12823.8c127.58,7.26 132.33,-59.58 124.7,-72.77 -7.65,-13.16 -68.27,-41.87 -124.7,72.77z"/>
         <path class="fil4" d="M5104.25 13193.89c-7.72,13.2 -2.89,80.05 124.7,72.77 -56.43,-114.65 -117.06,-85.93 -124.7,-72.77z"/>
         <path class="fil4" d="M5217 14130.41c-13.74,-23.06 -27.5,-38.55 -40.44,-48.37 -3.35,-2.54 -6.63,-4.71 -9.85,-6.55 -9.67,-5.52 -18.73,-8.11 -26.8,-8.79 -2.69,-0.22 -5.28,-0.24 -7.73,-0.09 -14.75,0.93 -25.06,8.06 -27.93,13 -4.37,7.47 -4.67,32.13 19.03,50.8 18.13,14.31 50.33,25.11 105.67,21.96 -3.96,-8.06 -7.96,-15.26 -11.95,-21.96l0 0z"/>
         <path class="fil4" d="M4218.53 13636.74c-7.71,13.19 -2.87,80.04 124.77,72.77 -56.51,-114.65 -117.12,-85.92 -124.77,-72.77z"/>
         <path class="fil4" d="M5104.25 12308.17c-7.72,13.19 -2.89,80.06 124.7,72.77 -56.43,-114.64 -117.06,-85.92 -124.7,-72.77z"/>
         <path class="fil4" d="M5217 11473.27c-6.65,-11.17 -13.3,-20.68 -19.87,-28.47 -7,-8.31 -13.89,-14.83 -20.57,-19.91 -16.71,-12.67 -32.08,-16.2 -44.38,-15.43 -14.75,0.93 -25.06,8.06 -27.93,12.99 -2.9,4.95 -4.02,17.44 2.43,30.74 2.15,4.44 5.14,8.95 9.19,13.31 2.15,2.33 4.65,4.58 7.42,6.77 18.13,14.31 50.33,25.11 105.67,21.95 -3.53,-7.17 -7.07,-13.77 -10.62,-19.85 -0.45,-0.76 -0.89,-1.36 -1.33,-2.1z"/>
         <path class="fil4" d="M4381.51 14428.87c-15.21,0 -70.57,37.83 0,144.42 70.56,-106.58 15.2,-144.42 0,-144.42z"/>
         <path class="fil4" d="M4419.78 14595.23c127.58,7.28 132.33,-59.57 124.7,-72.77 -7.65,-13.15 -68.27,-41.87 -124.7,72.77z"/>
         <path class="fil4" d="M4218.53 14522.46c-7.71,13.2 -2.87,80.06 124.77,72.77 -56.51,-114.65 -117.12,-85.92 -124.77,-72.77z"/>
         <path class="fil4" d="M1637.74 10542.66c7.42,22.93 15.74,45.43 25.18,67.33 7.24,0.13 14.93,-0.02 23.16,-0.49 -16.22,-32.98 -32.78,-53.81 -48.34,-66.85z"/>
        </g>
        <g>
         <path class="fil5" d="M4438.54 8934.65l-145.65 702.68c0,0 14.35,-321.91 145.65,-702.68z"/>
         <path class="fil0 str0" d="M4292.88 9637.33c0,0 14.35,-321.91 145.65,-702.68"/>
         <path class="fil0 str0" d="M9774.06 9504.72c0,0 -70.46,-281.2 -201.76,-530.67"/>
         <line class="fil0 str0" x1="6526.18" y1="11954.53" x2="7917.95" y2= "11508.11" />
         <path class="fil0 str0" d="M7156.42 11586.89c0,0 420.17,-183.81 1011,-275.73"/>
        </g>
       </g>
       <g>
        <path class="fil5 str1" d="M6768.26 8775.37c1102.6,212.78 1527.98,-844.2 1676.23,-1689.18 -367.32,-40.28 -560.75,-211.24 -637.45,-498.86 -88.41,-331.53 -88.41,-994.57 -88.41,-994.57 0,0 -574.65,353.62 -1547.11,-44.2 0,0 88.41,1215.58 -22.1,1392.4 -77,123.18 -175.69,246.31 -452.63,309.69 -10.13,377.62 66.3,1330.74 1071.47,1524.72z"/>
        <path class="fil6 str1" d="M6768.26 8775.37c1102.6,212.78 1527.98,-844.2 1676.23,-1689.18 -367.32,-40.28 -560.75,-211.24 -637.45,-498.86 -88.41,-331.53 -88.41,-994.57 -88.41,-994.57 0,0 -574.65,353.62 -1547.11,-44.2 0,0 88.41,1215.58 -22.1,1392.4 -77,123.18 -175.69,246.31 -452.63,309.69 -10.13,377.62 66.3,1330.74 1071.47,1524.72z"/>
       </g>
       <path class="fil7" d="M7722.03 5780.82l-0.27 -9.04 -0.14 -4.84c-0.79,-27.38 -1.35,-52.32 -1.78,-74.25l-0.07 -3.47 -0.13 -7.23 -0.17 -10.19 -0.1 -5.32 -0.06 -4.33 -0.1 -6.02 -0.03 -3.07 -0.11 -6.6 -0.02 -1.93 -0.09 -7.94 -0.08 -7.28 0 -0.06 -0.07 -6.71 0 -0.67 -0.05 -5.41 -0.01 -1.24 -0.03 -4.19 -0.01 -1.63 -0.02 -3.13 -0.01 -1.88 -0.02 -2.18 -0.01 -1.94 0 -1.43 -0.01 -1.85 0 -0.81 -0.01 -1.55 0 -0.36 0 -1.06 0 -0.1 0 -0.39c0,0 -574.65,353.62 -1547.11,-44.2l0.03 0.37 0.03 0.51 0.04 0.6 0.13 1.81 0.02 0.2 0.17 2.31 0.13 1.97 0.09 1.24 0.28 3.87 0.04 0.8 0.26 3.76 0.26 3.74 0.09 1.45 0.4 5.82 0.11 1.73 0.31 4.72 0.39 5.76 0.09 1.27 0.5 7.64 0.2 3 0.35 5.22 0.52 8.05 0.05 0.73 0.59 9.32 0.3 4.54 0.33 5.33 0.65 10.39 0.01 0.13 0.66 10.76 0.4 6.31 0.3 5.07c10.63,174.36 28.1,510.57 25.47,796.8 837.56,290.38 1320.89,167.15 1578.22,14.3 -40.19,-218.2 -55.26,-509.46 -60.91,-697.26z"/>
       <g>
        <path class="fil3 str1" d="M8709.24 4895.01c0,151.24 -122.6,273.83 -273.84,273.83 -151.22,0 -273.83,-122.59 -273.83,-273.83 0,-151.25 122.61,-273.84 273.83,-273.84 151.24,0 273.84,122.59 273.84,273.84z"/>
        <path class="fil3 str1" d="M5784.12 4895.01c0,151.24 -122.61,273.83 -273.84,273.83 -151.24,0 -273.85,-122.59 -273.85,-273.83 0,-151.25 122.61,-273.84 273.85,-273.84 151.24,0 273.84,122.59 273.84,273.84z"/>
        <path class="fil6 str1" d="M8410.5 3961.45c0,0 136.92,-423.21 298.74,-273.84 161.81,149.37 -49.8,721.95 -161.82,858.87 -112.02,136.92 -224.05,136.92 -211.6,-49.8 12.45,-186.71 74.68,-535.24 74.68,-535.24z"/>
        <g>
         <g>
          <path class="fil8 str1" d="M5579.64 4387.45c0,0 37.31,988.72 764.86,1473.76 727.54,485.02 1268.55,205.2 1567.02,-205.21 298.48,-410.41 485.02,-820.83 485.02,-1417.78 0,-596.96 74.62,-858.13 -130.57,-1231.23 -205.21,-373.1 -914.1,-559.65 -914.1,-559.65 0,0 -391.75,503.69 -951.41,1044.69 -559.65,540.99 -820.83,895.44 -820.83,895.44z"/>
          <path class="fil6 str1" d="M5579.64 4387.45c0,0 37.31,988.72 764.86,1473.76 727.54,485.02 1268.55,205.2 1567.02,-205.21 298.48,-410.41 485.02,-820.83 485.02,-1417.78 0,-596.96 74.62,-858.13 -130.57,-1231.23 -205.21,-373.1 -914.1,-559.65 -914.1,-559.65 0,0 -391.75,503.69 -951.41,1044.69 -559.65,540.99 -820.83,895.44 -820.83,895.44z"/>
         </g>
         <path class="fil4" d="M7351.88 2447.33l-0.28 0.37 -0.86 1.09 -1.42 1.81 -1.97 2.51 -2.52 3.21 -3.09 3.91 -3.63 4.57 -4.17 5.23 -4.68 5.88 -5.22 6.53 -5.74 7.17 -6.27 7.77 -6.77 8.39 -7.28 8.99 -7.78 9.58 -8.28 10.15 -8.78 10.73 -9.26 11.28 -9.75 11.83 -10.2 12.35 -10.69 12.89 -11.15 13.39 -11.61 13.91 -12.07 14.39 -12.52 14.87 -12.96 15.34 -13.41 15.81 -13.84 16.25 -14.28 16.69 -14.7 17.12 -15.11 17.54 -15.54 17.94 -15.94 18.36 -16.35 18.72 -16.76 19.1 -17.14 19.46 0 0.01 -17.53 19.81 -17.93 20.15 -18.3 20.5 0 0.01 -18.66 20.81 -19.04 21.13 -19.41 21.42 -19.76 21.72 -20.12 21.99 0 0.01 -20.46 22.26 -20.8 22.5 0 0.02 -21.15 22.76 -21.48 23.01 -21.81 23.22 0 0.01 -22.13 23.43 0 0.01 -22.45 23.64 -22.75 23.84 -23.07 24.02 0 0 -23.37 24.19 0 0.01 -23.67 24.35 -23.96 24.5 0 0.01 -24.24 24.65 -24.54 24.77 0 0.02 -24.79 24.88 0 0.01 -25.08 25 0 0.01 -25.35 25.09 0 0.02 -25.59 25.18 0 0.01 -25.86 25.26 0 0.01 -26.11 25.32 0 0 -26.02 25.22 0 0.01 -25.57 24.94 -25.14 24.65 0 0.02 -24.71 24.37 -24.28 24.1 -23.85 23.79 0 0.01 -23.42 23.5 0 0 -22.96 23.19 0 0.02 -22.56 22.89 -22.11 22.59 0 0.01 -21.68 22.27 -21.27 21.96 0 0.01 -20.84 21.64 -20.4 21.32 -19.99 20.99 -19.55 20.67 -19.14 20.33 -18.72 19.99 -18.29 19.65 -17.87 19.3 -17.44 18.95 -17.03 18.6 -16.61 18.23 -16.19 17.88 -15.79 17.52 -15.36 17.13 -14.95 16.78 -14.53 16.39 -14.12 16.01 0 0.01 -13.7 15.62 -13.3 15.24 -12.89 14.85 -12.46 14.44 -12.07 14.05 -11.66 13.64 -11.24 13.24 -10.85 12.82 -10.44 12.41 0 0.02 -10.04 11.98 -9.62 11.56 -9.23 11.15 -8.83 10.71 -8.43 10.27 -8.02 9.84 -7.63 9.39 -7.22 8.96 -6.83 8.49 -6.43 8.05 -6.04 7.59 -5.63 7.13 -5.24 6.66 -4.84 6.19 -4.46 5.73 -4.07 5.24 -3.67 4.76 -3.29 4.27 -2.88 3.78 -2.51 3.3 -2.11 2.79 -1.74 2.3 -1.34 1.79 -0.96 1.29 -0.58 0.77 -0.19 0.26 0.02 0.18 0.02 0.54 0 0.01 0.04 0.93 0.06 1.2 0.01 0.06 0.09 1.62 0.09 1.82 0.01 0.16 0.14 2.31 0.13 2.39 0.02 0.26 0.19 2.99 0 0.07c3.79,57.99 23.52,282.59 112.51,551.35 983.26,-752.35 1520.36,-2103.94 1663.2,-2504.86l-0.24 -0.06 -0.23 -0.06 -0.23 -0.07 -0.22 -0.05 -0.21 -0.06 -0.21 -0.06 -0.21 -0.05 -0.2 -0.06 -0.19 -0.04 -0.19 -0.06 -0.13 -0.05 -0.06 -0.01 -0.17 -0.05 -0.17 -0.04 -0.15 -0.05 -0.16 -0.03 -0.15 -0.05 -0.13 -0.03 -0.13 -0.04 -0.13 -0.04 -0.11 -0.03 -0.1 -0.04 -0.07 -0.01 -0.04 -0.02 -0.09 -0.02 -0.08 -0.02 -0.08 -0.02 -0 0 -0.1 -0.02 -0.01 -0.01 -0.04 -0.02 -0.05 0 -0.04 -0.02z"/>
         <line class="fil0 str0" x1="6267.94" y1="4271.15" x2="6686.83" y2= "4310.42" />
         <path class="fil0 str0" d="M7537.72 4258.05c0,0 274.9,-52.36 405.81,0"/>
         <path class="fil1" d="M6630.53 4079.71c0,99.67 -44.58,180.48 -99.58,180.48 -55,0 -99.58,-80.81 -99.58,-180.48 0,-99.69 44.58,-180.49 99.58,-180.49 55,0 99.58,80.8 99.58,180.49z"/>
         <path class="fil0 str0" d="M6854.59 4708.3c0,0 224.05,149.37 435.66,-37.35"/>
         <path class="fil0 str0" d="M6966.61 5131.51c0,0 385.87,161.81 609.92,-360.97"/>
         <path class="fil0 str4" d="M7464.51 4085.93c0,0 236.5,-161.83 473,-62.24"/>
         <path class="fil0 str4" d="M7389.83 3675.16c0,0 261.39,-261.39 622.37,-49.78"/>
         <path class="fil0 str4" d="M6829.69 3513.35c0,0 -224.05,-224.05 -535.24,-12.45"/>
        </g>
       </g>
       <g>
        <g>
         <path class="fil1 str5" d="M1773.31 9769.93c0,0 -397.84,442.04 -397.84,906.16 0,464.13 265.22,884.07 994.58,1547.12 729.34,663.04 1414.5,1149.28 1701.82,1303.99 287.31,154.71 574.64,-44.21 574.64,-44.21 0,0 475.18,475.19 530.44,364.68 55.24,-110.5 -165.77,-276.27 -209.97,-342.57 -44.2,-66.3 -132.61,-143.65 -132.61,-143.65 0,0 232.06,33.15 320.47,110.5 88.41,77.36 232.07,209.97 298.37,198.92 66.3,-11.06 66.3,-66.3 -33.15,-198.92 -99.46,-132.61 -221.02,-221.01 -287.33,-265.22 -66.3,-44.2 -287.32,-165.76 -287.32,-165.76 0,0 320.47,-22.1 430.98,44.21 110.51,66.3 408.88,265.21 430.98,176.81 22.11,-88.41 22.11,-143.65 -88.41,-243.12 -110.51,-99.46 -331.53,-221.02 -464.13,-243.11 -132.61,-22.1 -265.21,-77.36 -265.21,-77.36 0,0 254.17,-88.41 342.56,-88.41 88.41,0 442.04,176.81 541.49,154.71 99.46,-22.11 44.2,-110.5 -33.15,-165.76 -77.35,-55.26 -419.93,-187.86 -563.59,-198.92 -143.67,-11.05 -950.37,265.22 -1049.82,265.22 -99.47,0 -353.63,-353.62 -618.85,-828.81 -265.21,-475.18 -364.67,-1215.58 -928.26,-1469.76l-806.7 -596.74z"/>
         <path class="fil3 str5" d="M1773.31 9769.93c0,0 -397.84,442.04 -397.84,906.16 0,464.13 265.22,884.07 994.58,1547.12 729.34,663.04 1414.5,1149.28 1701.82,1303.99 287.31,154.71 574.64,-44.21 574.64,-44.21 0,0 475.18,475.19 530.44,364.68 55.24,-110.5 -165.77,-276.27 -209.97,-342.57 -44.2,-66.3 -132.61,-143.65 -132.61,-143.65 0,0 232.06,33.15 320.47,110.5 88.41,77.36 232.07,209.97 298.37,198.92 66.3,-11.06 66.3,-66.3 -33.15,-198.92 -99.46,-132.61 -221.02,-221.01 -287.33,-265.22 -66.3,-44.2 -287.32,-165.76 -287.32,-165.76 0,0 320.47,-22.1 430.98,44.21 110.51,66.3 408.88,265.21 430.98,176.81 22.11,-88.41 22.11,-143.65 -88.41,-243.12 -110.51,-99.46 -331.53,-221.02 -464.13,-243.11 -132.61,-22.1 -265.21,-77.36 -265.21,-77.36 0,0 254.17,-88.41 342.56,-88.41 88.41,0 442.04,176.81 541.49,154.71 99.46,-22.11 44.2,-110.5 -33.15,-165.76 -77.35,-55.26 -419.93,-187.86 -563.59,-198.92 -143.67,-11.05 -950.37,265.22 -1049.82,265.22 -99.47,0 -353.63,-353.62 -618.85,-828.81 -265.21,-475.18 -364.67,-1215.58 -928.26,-1469.76l-806.7 -596.74z"/>
        </g>
        <g>
         <path class="fil4" d="M1724.35 10587.56c70.6,-106.58 15.24,-144.42 0,-144.42 15.21,0 70.56,37.83 0,144.42z"/>
         <path class="fil4" d="M1724.35 11328.86c15.21,0 70.56,37.84 0,144.41 70.6,-106.57 15.24,-144.41 0,-144.41z"/>
         <path class="fil4" d="M2610.06 10886c-15.2,0 -70.56,37.85 0,144.42 70.61,-106.57 15.26,-144.42 0,-144.42z"/>
         <path class="fil4" d="M1887.36 10536.74c-7.68,-13.15 -68.26,-41.88 -124.73,72.77 127.62,7.29 132.41,-59.57 124.73,-72.77z"/>
         <path class="fil4" d="M1875.73 11466.5c4.04,-4.36 7.03,-8.87 9.19,-13.31 6.44,-13.3 5.31,-25.79 2.44,-30.74 -2.88,-4.94 -13.19,-12.06 -27.94,-12.99 -12.3,-0.77 -27.67,2.76 -44.39,15.43 -6.67,5.08 -13.57,11.61 -20.57,19.91 -6.55,7.79 -13.22,17.3 -19.87,28.47l93.73 0c2.77,-2.19 5.26,-4.44 7.42,-6.77z"/>
         <path class="fil4" d="M2773.08 10979.59c-7.68,-13.14 -68.26,-41.88 -124.74,72.77 127.62,7.28 132.41,-59.58 124.74,-72.77z"/>
         <path class="fil4" d="M2571.87 11052.36c-56.52,-114.65 -117.09,-85.91 -124.77,-72.77 -7.69,13.19 -2.85,80.05 124.77,72.77z"/>
         <path class="fil4" d="M1724.35 10443.14l0 144.42c70.56,-106.58 15.21,-144.42 0,-144.42z"/>
         <path class="fil4" d="M1724.35 11328.86l0 144.41c70.56,-106.57 15.21,-144.41 0,-144.41z"/>
         <path class="fil4" d="M3495.79 13100.3c-6.71,0 -21.21,7.39 -29.29,24.78 21.12,15.56 41.94,30.78 62.4,45.63 9.33,-50.66 -22.15,-70.41 -33.11,-70.41z"/>
         <path class="fil4" d="M4381.51 13543.14c-8.52,0 -29.58,11.89 -34.13,41.01 22.93,-1.73 45.09,-4.69 66.3,-8.75 -6.93,-22.79 -24.56,-32.26 -32.17,-32.26z"/>
         <path class="fil4" d="M3495.79 12214.57c-15.21,0 -70.57,37.85 0,144.42 70.6,-106.57 15.25,-144.42 0,-144.42z"/>
         <path class="fil4" d="M4381.51 12801.84c70.56,-106.57 15.2,-144.41 0,-144.41 -15.21,0 -70.57,37.84 0,144.41z"/>
         <path class="fil4" d="M2610.06 11916.13c70.61,-106.58 15.26,-144.42 0,-144.42 -15.2,0 -70.56,37.84 0,144.42z"/>
         <path class="fil4" d="M3658.76 13193.89c-5.72,-9.85 -41.17,-28.44 -82.33,11.06 20.2,14.48 40.08,28.62 59.56,42.34 27.27,-18.91 27.33,-45.57 22.77,-53.39z"/>
         <path class="fil4" d="M3534.06 12380.93c127.57,7.29 132.41,-59.57 124.7,-72.77 -7.64,-13.15 -68.23,-41.87 -124.7,72.77z"/>
         <path class="fil4" d="M4419.78 12823.8c127.58,7.26 132.33,-59.58 124.7,-72.77 -7.65,-13.16 -68.27,-41.87 -124.7,72.77z"/>
         <path class="fil4" d="M2648.34 11938.08c127.62,7.28 132.41,-59.58 124.74,-72.76 -7.68,-13.15 -68.26,-41.88 -124.74,72.76z"/>
         <path class="fil4" d="M5216 13266.96c-25.98,-20.28 -49.92,-37.54 -70,-51.28l-0.2 -0.16 -2.11 -1.42 -1.14 -0.78 -0.13 -0.1 -0.98 -0.67 -1.12 -0.76 -1.11 -0.75 -0.09 -0.06 -1.02 -0.68 -1.09 -0.74 -1.08 -0.72 -0.04 -0.03 -1.03 -0.69 -1.06 -0.72 -1.05 -0.69 -0.33 -0.22 -0.32 -0.2 -0.33 -0.23 -0.34 -0.22 -0.33 -0.23 -0.33 -0.22 -0.35 -0.22 -0.34 -0.22 -0.35 -0.23 -0.2 -0.13 -0.14 -0.09 -0.35 -0.23 -0.36 -0.24 -0.35 -0.24 -0.36 -0.23 -0.37 -0.24 -0.36 -0.23 -0.37 -0.24 -0.37 -0.24 -0.38 -0.24 -0.02 -0.02 -0.35 -0.22 -0.39 -0.24 -0.37 -0.24 -0.38 -0.24 -0.38 -0.25 -0.39 -0.25c-5.07,-3.21 -10.74,-6.71 -16.65,-10.41 -1.25,1.17 -2.32,2.34 -2.93,3.38 -7.44,12.72 -2.88,75.11 111.76,73.07z"/>
         <path class="fil4" d="M3457.58 12380.93c-56.51,-114.64 -117.09,-85.92 -124.76,-72.77 -7.68,13.19 -2.86,80.06 124.76,72.77z"/>
         <path class="fil4" d="M4218.53 12751.03c-7.71,13.19 -2.87,80.04 124.77,72.77 -56.51,-114.65 -117.12,-85.93 -124.77,-72.77z"/>
         <path class="fil4" d="M2447.1 11865.31c-7.69,13.19 -2.85,80.05 124.77,72.76 -56.52,-114.64 -117.09,-85.91 -124.77,-72.76z"/>
         <path class="fil4" d="M1868.31 11473.27l-93.73 0c-0.44,0.74 -0.89,1.33 -1.33,2.1 -3.55,6.08 -7.09,12.69 -10.62,19.85 55.35,3.16 87.54,-7.64 105.69,-21.95z"/>
         <path class="fil4" d="M1724.35 10443.14c-15.21,0 -70.57,37.83 0,144.42l0 -144.42z"/>
         <path class="fil4" d="M1724.35 11473.27l0 -144.41c-15.21,0 -70.57,37.84 0,144.41z"/>
         <path class="fil4" d="M1686.08 10609.5c-56.44,-114.65 -117.06,-85.91 -124.7,-72.77 -7.71,13.19 -2.87,80.06 124.7,72.77z"/>
         <path class="fil4" d="M1654.26 11444.8c-7,-8.31 -13.9,-14.83 -20.58,-19.91 -0.91,-0.69 -1.78,-1.15 -2.68,-1.78l1.03 1.53 0.03 0.03 0.53 0.77 0.53 0.78 0.07 0.09 3.14 4.58 0.53 0.77 2.69 3.91 0.53 0.78 0.55 0.78 0.53 0.78 0.54 0.78 0.55 0.78c7.74,11.18 15.72,22.45 23.88,33.78l8 0c-6.65,-11.17 -13.29,-20.68 -19.87,-28.47z"/>
         <path class="fil4" d="M1675.46 11475.37c-0.43,-0.76 -0.88,-1.36 -1.33,-2.1l-8 0c5.24,7.3 10.75,14.68 16.15,22.04 1.33,-0.06 2.46,-0.01 3.8,-0.09 -3.53,-7.17 -7.07,-13.77 -10.62,-19.85z"/>
        </g>
        <path class="fil6 str1" d="M5740.54 12598.94c-77.35,-55.26 -419.93,-187.86 -563.59,-198.92 -143.67,-11.05 -950.37,265.22 -1049.82,265.22 -99.47,0 -353.63,-353.62 -618.85,-828.81 -147.31,-263.93 -243.58,-609.64 -396.56,-908.46 -812.05,-109.16 -1160.13,364.15 -1321.05,705.5 147.03,176.87 337.55,369.89 579.39,589.74 729.34,663.04 1414.5,1149.28 1701.82,1303.99 287.31,154.71 574.64,-44.21 574.64,-44.21 0,0 475.18,475.19 530.44,364.68 55.24,-110.5 -165.77,-276.27 -209.97,-342.57 -44.2,-66.3 -132.61,-143.65 -132.61,-143.65 0,0 232.06,33.15 320.47,110.5 88.41,77.36 232.07,209.97 298.37,198.92 66.3,-11.06 66.3,-66.3 -33.15,-198.92 -99.46,-132.61 -221.02,-221.01 -287.33,-265.22 -66.3,-44.2 -287.32,-165.76 -287.32,-165.76 0,0 320.47,-22.1 430.98,44.21 110.51,66.3 408.88,265.21 430.98,176.81 22.11,-88.41 22.11,-143.65 -88.41,-243.12 -110.51,-99.46 -331.53,-221.02 -464.13,-243.11 -132.61,-22.1 -265.21,-77.36 -265.21,-77.36 0,0 254.17,-88.41 342.56,-88.41 88.41,0 442.04,176.81 541.49,154.71 99.46,-22.11 44.2,-110.5 -33.15,-165.76z"/>
       </g>
       <g>
        <g>
         <path class="fil8 str1" d="M10538.53 10184.97c-92.24,-210.83 -13.18,-672 79.06,-1330.82 92.24,-658.83 184.47,-1330.82 184.47,-1686.59 0,-355.76 58.95,-849.84 -57.02,-1007.96 -115.95,-158.12 -537.6,-590.3 -569.21,-790.58 -31.63,-200.29 252.98,-505.98 252.98,-505.98 0,0 84.33,-158.12 158.12,-73.8 73.78,84.33 42.16,189.74 0,337.32 -42.17,147.57 -84.33,263.53 -84.33,263.53 0,0 368.94,115.95 463.81,52.7 94.87,-63.25 86.48,-424 79.57,-600.58 -13.5,-344.63 -151.64,-197.58 -247.3,-34.33 -45.85,78.23 -316.23,31.61 -158.11,-168.67 158.11,-200.28 304.76,-377.03 452.33,-218.92 147.58,158.12 252.98,463.82 252.98,463.82 0,0 105.37,-502.13 201.54,-797.5 96.17,-295.37 267.9,-412.15 329.72,-391.54 61.83,20.61 54.95,123.64 -6.86,267.9 -61.83,144.25 -199.21,542.67 -233.56,673.18 -34.35,130.52 -41.21,281.64 27.48,267.89 68.69,-13.74 309.11,-432.76 377.8,-611.35 68.7,-178.6 171.74,-343.46 288.51,-419.02 116.78,-75.55 212.94,20.61 164.86,144.26 -48.08,123.64 -219.81,480.84 -322.85,652.57 -103.04,171.72 -192.34,425.89 -192.34,425.89 0,0 192.34,-206.07 357.2,-343.46 164.86,-137.38 343.45,-164.86 398.42,-116.77 54.95,48.08 6.86,54.95 -130.52,164.86 -137.39,109.91 -343.46,240.42 -508.32,508.32 -164.87,267.89 -233.56,432.76 -295.38,631.96 -61.82,199.2 -199.2,419.01 -199.2,419.01 0,0 128.62,1046.11 351.87,1621.41 223.24,575.29 618.22,1416.77 498,2017.82 -120.21,601.06 -352.04,910.17 -678.32,1004.62 -326.29,94.45 -558.12,-103.04 -558.12,-103.04l-677.29 -716.14z"/>
         <path class="fil3 str1" d="M10538.53 10184.97c-92.24,-210.83 -13.18,-672 79.06,-1330.82 92.24,-658.83 184.47,-1330.82 184.47,-1686.59 0,-355.76 58.95,-849.84 -57.02,-1007.96 -115.95,-158.12 -537.6,-590.3 -569.21,-790.58 -31.63,-200.29 252.98,-505.98 252.98,-505.98 0,0 84.33,-158.12 158.12,-73.8 73.78,84.33 42.16,189.74 0,337.32 -42.17,147.57 -84.33,263.53 -84.33,263.53 0,0 368.94,115.95 463.81,52.7 94.87,-63.25 86.48,-424 79.57,-600.58 -13.5,-344.63 -151.64,-197.58 -247.3,-34.33 -45.85,78.23 -316.23,31.61 -158.11,-168.67 158.11,-200.28 304.76,-377.03 452.33,-218.92 147.58,158.12 252.98,463.82 252.98,463.82 0,0 105.37,-502.13 201.54,-797.5 96.17,-295.37 267.9,-412.15 329.72,-391.54 61.83,20.61 54.95,123.64 -6.86,267.9 -61.83,144.25 -199.21,542.67 -233.56,673.18 -34.35,130.52 -41.21,281.64 27.48,267.89 68.69,-13.74 309.11,-432.76 377.8,-611.35 68.7,-178.6 171.74,-343.46 288.51,-419.02 116.78,-75.55 212.94,20.61 164.86,144.26 -48.08,123.64 -219.81,480.84 -322.85,652.57 -103.04,171.72 -192.34,425.89 -192.34,425.89 0,0 192.34,-206.07 357.2,-343.46 164.86,-137.38 343.45,-164.86 398.42,-116.77 54.95,48.08 6.86,54.95 -130.52,164.86 -137.39,109.91 -343.46,240.42 -508.32,508.32 -164.87,267.89 -233.56,432.76 -295.38,631.96 -61.82,199.2 -199.2,419.01 -199.2,419.01 0,0 128.62,1046.11 351.87,1621.41 223.24,575.29 618.22,1416.77 498,2017.82 -120.21,601.06 -352.04,910.17 -678.32,1004.62 -326.29,94.45 -558.12,-103.04 -558.12,-103.04l-677.29 -716.14z"/>
        </g>
        <g>
         <path class="fil4" d="M12352.93 4243.15c6.78,0 21.52,7.61 29.54,25.42 0,-0 0.01,-0.01 0.01,-0.02 -8.02,-17.8 -22.76,-25.4 -29.56,-25.4z"/>
         <path class="fil4" d="M12352.93 4243.15l0 86.33 0.47 -0.96 0.47 -0.96 0.46 -0.97 0.22 -0.4 0.26 -0.56 0.47 -0.97 0.47 -0.96 0.47 -0.95 0.47 -0.97 0.48 -0.96 0.47 -0.95 0.47 -0.96 0.93 -1.92 0.47 -0.96 22.96 -47.46c-8.02,-17.81 -22.76,-25.42 -29.54,-25.42z"/>
         <path class="fil4" d="M12352.93 9701.83c70.61,-106.57 15.24,-144.41 0,-144.41 15.21,0 70.56,37.84 0,144.41z"/>
         <path class="fil4" d="M12473.7 9714.42c-0.47,-16.54 -1.12,-33.12 -2.05,-49.82l-0.06 -1.17c-0.44,-7.38 -0.88,-14.79 -1.41,-22.21l-0.08 -1.17c-22.88,6.14 -51.37,27.83 -78.9,83.74 37.01,2.11 63.46,-2.11 82.5,-9.37z"/>
         <path class="fil4" d="M12352.93 9557.42l0 144.41c70.56,-106.57 15.21,-144.41 0,-144.41z"/>
         <path class="fil4" d="M10581.49 5128.86c-12.76,0 -53.51,26.83 -24.68,98.4l2.65 -8.51 0.24 -0.76 0.2 -0.68 0.45 -1.44 0.44 -1.43 0.44 -1.46 0.35 -1.09 0.54 -1.8 0.45 -1.46 0.45 -1.46 0.45 -1.47 0.01 -0.01 0.44 -1.45 0.45 -1.47 0.44 -1.48 0.45 -1.48 5.46 -18.03 0.46 -1.51 0 -0.02 5.07 -17 0.45 -1.57 0.35 -1.14c2.98,-10.08 5.95,-20.36 8.94,-30.8 -1.7,-0.53 -3.28,-0.88 -4.52,-0.88z"/>
         <path class="fil4" d="M11467.21 5716.14c70.57,-106.58 15.21,-144.42 0,-144.42 -15.2,0 -70.57,37.84 0,144.42z"/>
         <path class="fil4" d="M12337.35 4361.04l11.46 -23.18 0.24 -0.49 0.24 -0.49 0.24 -0.5 0.24 -0.49 0.25 -0.49 0.24 -0.5 0.24 -0.5 0.24 -0.5 0.24 -0.49 0.24 -0.49 0.24 -0.5 0.26 -0.49 0.24 -0.5 0.24 -0.5 0.23 -0.49 0.24 -0.49 0.24 -0.49 0 -86.33c-13.85,0 -60.76,31.62 -15.57,117.89z"/>
         <path class="fil4" d="M11467.21 4686c-15.2,0 -70.57,37.84 0,144.41 70.57,-106.57 15.21,-144.41 0,-144.41z"/>
         <path class="fil4" d="M10742.03 6138.92c6.45,-13.31 5.33,-25.8 2.43,-30.75 -2.86,-4.93 -13.17,-12.05 -27.92,-12.98 -6.01,-0.38 -12.85,0.48 -20.13,2.72 15.19,18.44 28.59,35.2 39.88,50.03 2.3,-3.01 4.3,-6.03 5.75,-9.02z"/>
         <path class="fil4" d="M11630.19 5665.31c-7.65,-13.15 -68.26,-41.87 -124.7,72.77 127.57,7.29 132.34,-59.57 124.7,-72.77z"/>
         <path class="fil4" d="M11613.15 4768.66c-23.48,-7.14 -66.63,0.34 -107.67,83.71 56.38,3.22 88.72,-8.07 106.66,-22.78 -1.24,-18.25 -0.81,-38.92 1.01,-60.93z"/>
         <path class="fil4" d="M11631.44 3896.96c-9.78,16.62 -19.3,34.65 -28.61,53.44 28.85,-17.08 31.8,-42.51 28.61,-53.44z"/>
         <path class="fil4" d="M10418.52 5222.46c-7.5,12.89 -2.72,76.8 116.47,72.95l0.05 -0.14 0.04 -0.15 0.03 -0.07 0.02 -0.08 0.06 -0.14 0.04 -0.15 0.06 -0.16 0.05 -0.15 0.04 -0.14 0.05 -0.15 0.06 -0.15 0.04 -0.15 0.05 -0.15 0.05 -0.16 0.06 -0.15 0.05 -0.16 0.05 -0.14 0.05 -0.15 0.06 -0.15 0.04 -0.15 0.06 -0.15 0.06 -0.16 0.05 -0.14 0.04 -0.17 0.05 -0.15 0.06 -0.15 0.05 -0.16 0.05 -0.14 0.05 -0.16 0.06 -0.14 0.05 -0.17 0.06 -0.15 0.04 -0.16 0.06 -0.15 0.04 -0.15 0.06 -0.15 0 -0 0.05 -0.15 0.04 -0.16 0.05 -0.15 0.06 -0.15 0.05 -0.15 0.05 -0.15 0.1 -0.32 0.04 -0.14 0.06 -0.17 0.05 -0.15 0.04 -0.15 0.05 -0.16 0.06 -0.15 0.05 -0.16 0.05 -0.15 0.2 -0.61 0.06 -0.15 0.15 -0.46 0.05 -0.16 0.06 -0.15 0.09 -0.3 0.05 -0.16c-55,-102.97 -112.21,-75.97 -119.66,-63.21z"/>
         <path class="fil4" d="M11304.23 5665.31c-7.71,13.19 -2.87,80.06 124.78,72.77 -56.52,-114.64 -117.13,-85.92 -124.78,-72.77z"/>
         <path class="fil4" d="M12189.95 4336.74c-7.68,13.14 -2.83,79.43 123.15,72.8 0.25,-0.5 0.5,-1.01 0.76,-1.51 -56.22,-112.8 -116.31,-84.39 -123.91,-71.3z"/>
         <path class="fil4" d="M11429 4852.37c-20.31,-41.22 -41.12,-63.72 -59.85,-75.25l-0.29 1.3 -0.29 1.28 -0.22 1.04 -0.06 0.24 -0.28 1.28 -0.29 1.27 -0.28 1.26 -0.28 1.26 -0.28 1.25 -0.27 1.25 -0.27 1.24 -0.27 1.22 -0.04 0.14 -0.24 1.09 -0.27 1.22 -0.27 1.21 -0.26 1.2 -0.26 1.19 -1.3 5.87 -0.25 1.15 -0.25 1.15 -0.26 1.13 -0.25 1.14 -0.24 1.13 -0.24 1.11 -0.18 0.8 -0.06 0.3 -0.24 1.11 -0.24 1.09 -0.24 1.09 -0.23 1.07 -0.24 1.09 -0.23 1.06 -0.22 1.06 -0.23 1.04 -0.02 0.06 -0.2 0.99 -0.23 1.04 -0.22 1.03 -0.22 1.01 -0.22 1.01 -0.22 1.01 -0.21 1.01 -0.22 0.98 -0.08 0.37 -0.14 0.62 -0.21 0.98 -0.21 0.96 -0.21 0.96 -0.2 0.95 -0.2 0.94 -0.21 0.94 -0.2 0.94 -0.4 1.83 -0.2 0.9 -0.2 0.9 -0.19 0.89 -0.2 0.89 -0.19 0.87 -0.19 0.87 -0.19 0.85 -0.18 0.85 -0.19 0.84 -0.18 0.84c18.34,5.55 42.69,8.45 74.9,6.61z"/>
         <path class="fil4" d="M11326.66 4832.75l-0.28 -0.72 -0.28 -0.72 -0.29 -0.73 -0.28 -0.74 -0.3 -0.74 -0.3 -0.74 -0.16 -0.44 -0.13 -0.3 -0.3 -0.75 -0.3 -0.76 -0.3 -0.76 -0.3 -0.76 -0.31 -0.76 -0.3 -0.77 -0.32 -0.77 -0.24 -0.61 -0.06 -0.17 -0.32 -0.78 -0.31 -0.8 -0.32 -0.78 -0.32 -0.79 -0.31 -0.8 -0.33 -0.8 -0.32 -0.8 -0.32 -0.8 -0.01 -0.02 -0.32 -0.81 -0.33 -0.81 -0.33 -0.81 -0.33 -0.83 -0.34 -0.83 -0.33 -0.83 -0.34 -0.83 -0.33 -0.84 -0.06 -0.15 -0.3 -0.7 -0.34 -0.83 -0.34 -0.85 -0.35 -0.86 -0.35 -0.85 -0.35 -0.87 -0.35 -0.85 -0.36 -0.87 -0.13 -0.32 -0.23 -0.55 -0.36 -0.87 -0.36 -0.87 -0.35 -0.88 -0.37 -0.88 -0.37 -0.89 -0.37 -0.89 -0.37 -0.91 -0.2 -0.48 -0.17 -0.4 -0.38 -0.91 -0.37 -0.91 -0.38 -0.91 -0.38 -0.9 -0.38 -0.92 -0.38 -0.91 -0.37 -0.92 -0.29 -0.68 -0.1 -0.24 -0.41 -0.93 -0.38 -0.93 -0.4 -0.93 -0.39 -0.93 -0.4 -0.94 -0.39 -0.94 -0.4 -0.95 -0.36 -0.86 -0.04 -0.08c-0.13,0.2 -0.36,0.43 -0.48,0.62 -4.55,7.8 -4.5,34.25 22.43,53.15z"/>
         <path class="fil4" d="M11467.21 8373.26c70.57,-106.56 15.21,-144.42 0,-144.42 -15.2,0 -70.57,37.86 0,144.42z"/>
         <path class="fil4" d="M11467.21 7343.15c-15.2,0 -70.57,37.84 0,144.41 70.57,-106.57 15.21,-144.41 0,-144.41z"/>
         <path class="fil4" d="M11467.21 6457.44c-15.2,0 -70.57,37.84 0,144.41 70.57,-106.57 15.21,-144.41 0,-144.41z"/>
         <path class="fil4" d="M10743.2 7907.43c3.83,-9.36 4.11,-18.01 2.77,-23.62l-2.77 23.62z"/>
         <path class="fil4" d="M10744.46 8765.3c-7.1,-12.23 -59.95,-37.74 -112.74,50.82l93.72 0c23.68,-18.69 23.4,-43.35 19.02,-50.82z"/>
         <path class="fil4" d="M11505.49 8395.21c127.57,7.28 132.34,-59.58 124.7,-72.77 -7.65,-13.15 -68.26,-41.87 -124.7,72.77z"/>
         <path class="fil4" d="M11630.19 7436.75c-7.65,-13.17 -68.26,-41.89 -124.7,72.77 127.57,7.27 132.34,-59.59 124.7,-72.77z"/>
         <path class="fil4" d="M11505.49 6623.8c93.8,5.35 121.11,-29.33 126.01,-53.33l0 -0.01 -0.05 -0.36 -0.05 -0.34 -0.06 -0.36 -0.05 -0.36 -0.05 -0.34 -0.06 -0.36 -0.05 -0.35 -0.05 -0.34 -0.05 -0.36 -0.06 -0.34 -0.05 -0.35 -0.04 -0.34 -0.05 -0.35 -0.06 -0.36 -0.05 -0.34 -0.06 -0.35 -0.05 -0.33 -0.05 -0.35 -0.05 -0.33 -0.05 -0.35 -0.05 -0.34 -0.06 -0.33 -0.05 -0.35 -0.04 -0.34 -0.06 -0.34 -0.05 -0.34 -0.06 -0.35 -0.06 -0.33 -0.04 -0.34 -0.05 -0.33 -0.06 -0.35 -0.06 -0.33 -0.04 -0.34 -0.06 -0.34 -0.05 -0.34 -0.06 -0.33 -0.04 -0.34 -0.06 -0.33 -0.05 -0.33 -0.09 -0.68 -0.05 -0.33 -0.05 -0.34 -0.09 -0.68 -0.06 -0.33 -0.9 -6.09c-12.81,-13.59 -69.64,-32.76 -122.79,75.2z"/>
         <path class="fil4" d="M12260.18 8766.37c-35.81,-25.7 -65.08,-9.93 -70.22,-1.07 -4.36,7.47 -4.67,32.13 19.04,50.82l68.59 0c-5.75,-16.61 -11.53,-33.2 -17.4,-49.75z"/>
         <path class="fil4" d="M11304.23 8322.44c-7.71,13.19 -2.87,80.06 124.78,72.77 -56.52,-114.64 -117.13,-85.92 -124.78,-72.77z"/>
         <path class="fil4" d="M11304.23 7436.75c-7.71,13.18 -2.87,80.04 124.78,72.77 -56.52,-114.66 -117.13,-85.94 -124.78,-72.77z"/>
         <path class="fil4" d="M11304.23 6551.04c-7.71,13.18 -2.87,80.04 124.78,72.76 -56.52,-114.65 -117.13,-85.92 -124.78,-72.76z"/>
         <path class="fil4" d="M11467.21 10886c-14.37,0 -64.48,33.9 -10.31,127.63 5.94,1.37 12.28,2.39 18.4,3.63 57.51,-96.43 6.48,-131.26 -8.08,-131.26z"/>
         <path class="fil4" d="M10581.49 9701.83c70.61,-106.57 15.25,-144.41 0,-144.41 -15.21,0 -70.56,37.84 0,144.41z"/>
         <path class="fil4" d="M12352.93 9557.42c-15.21,0 -70.57,37.84 0,144.41l0 -144.41z"/>
         <path class="fil4" d="M11467.21 10144.69c70.57,-106.57 15.21,-144.4 0,-144.4 -15.2,0 -70.57,37.83 0,144.4z"/>
         <path class="fil4" d="M11467.21 9114.57c-15.2,0 -70.57,37.84 0,144.41 70.57,-106.57 15.21,-144.41 0,-144.41z"/>
         <path class="fil4" d="M11630.19 10979.59c-6.94,-11.93 -57.56,-36.34 -109.06,45.01 28.98,3.59 59.46,5.35 91.52,4.52 22.09,-18.52 21.76,-42.23 17.54,-49.54z"/>
         <path class="fil4" d="M10619.76 9723.79c127.59,7.28 132.41,-59.58 124.69,-72.76 -7.63,-13.16 -68.22,-41.88 -124.69,72.76z"/>
         <path class="fil4" d="M11505.49 10166.65c127.57,7.27 132.34,-59.57 124.7,-72.77 -7.65,-13.17 -68.26,-41.88 -124.7,72.77z"/>
         <path class="fil4" d="M11630.19 9208.17c-7.65,-13.16 -68.26,-41.88 -124.7,72.77 127.57,7.27 132.34,-59.58 124.7,-72.77z"/>
         <path class="fil4" d="M12189.95 10536.74c-5.93,10.14 -4.21,51.84 54.66,67.37 10.02,-17.67 19.98,-35.52 29.51,-54.38 -41.93,-41.81 -78.37,-22.99 -84.17,-13z"/>
         <path class="fil4" d="M11325.05 10967.59c19.32,9.17 40.93,18.1 64.69,26.39 -25.27,-25.88 -48.67,-29.8 -64.69,-26.39z"/>
         <path class="fil4" d="M10543.3 9723.79c-10.97,-22.23 -22.06,-38.96 -32.93,-51.56 -1.61,17.54 -2.94,34.47 -4.28,51.33 11.12,0.81 23.31,1.02 37.2,0.23z"/>
         <path class="fil4" d="M12314.65 9723.79c-56.44,-114.64 -117.07,-85.92 -124.7,-72.76 -7.71,13.19 -2.89,80.04 124.7,72.76z"/>
         <path class="fil4" d="M11304.23 10093.88c-7.71,13.19 -2.87,80.04 124.78,72.77 -56.52,-114.65 -117.13,-85.93 -124.78,-72.77z"/>
         <path class="fil4" d="M11304.23 9208.17c-7.71,13.19 -2.87,80.04 124.78,72.77 -56.52,-114.65 -117.13,-85.93 -124.78,-72.77z"/>
         <path class="fil4" d="M10631.72 8816.12c-3.96,6.65 -7.93,13.8 -11.87,21.79 0,0.05 -0,0.11 -0.02,0.17 55.3,3.13 87.46,-7.67 105.61,-21.96l-93.72 0z"/>
         <path class="fil4" d="M12277.58 8816.12l-68.59 0 0 0c14.61,11.53 38.63,20.62 76.25,22.13 -2.53,-7.39 -5.11,-14.75 -7.66,-22.13z"/>
        </g>
        <path class="fil6 str1" d="M12096.96 5309.34c164.86,-267.9 370.93,-398.42 508.32,-508.32 137.38,-109.91 185.47,-116.78 130.52,-164.86 -54.96,-48.09 -233.56,-20.61 -398.42,116.77 -164.86,137.39 -357.2,343.46 -357.2,343.46 0,0 89.3,-254.15 192.34,-425.89 103.04,-171.73 274.76,-528.93 322.85,-652.57 48.09,-123.65 -48.08,-219.82 -164.86,-144.26 -116.77,75.56 -219.81,240.43 -288.5,419.02 -68.7,178.59 -309.12,597.62 -377.81,611.35 -68.69,13.74 -61.83,-137.38 -27.48,-267.89 34.34,-130.51 171.73,-528.93 233.56,-673.18 61.81,-144.26 68.69,-247.29 6.86,-267.9 -61.81,-20.61 -233.55,96.17 -329.72,391.54 -96.17,295.37 -201.54,797.5 -201.54,797.5 0,0 -105.41,-305.7 -252.98,-463.82 -147.57,-158.11 -294.22,18.64 -452.34,218.92 -158.11,200.28 112.28,246.89 158.12,168.67 95.66,-163.25 233.8,-310.3 247.3,34.35 6.91,176.56 15.3,537.32 -79.57,600.57 -94.87,63.25 -463.81,-52.7 -463.81,-52.7 0,0 42.16,-115.95 84.33,-263.53 42.16,-147.58 73.78,-253 0,-337.32 -73.79,-84.33 -158.12,73.78 -158.12,73.78 0,0 -284.61,305.7 -252.98,505.99 31.61,200.28 453.26,632.46 569.21,790.58 115.96,158.12 57.02,652.2 57.02,1007.96 0,355.76 -92.24,1027.76 -184.47,1686.59 -1.2,8.6 -2.37,16.79 -3.57,25.31 145.72,153.08 443.83,372.78 945.25,355.88 336.57,-11.35 574.77,-180.94 736.08,-367.16 -107.1,-318.51 -241.24,-629.14 -341.1,-886.47 -223.25,-575.3 -351.87,-1621.41 -351.87,-1621.41 0,0 137.39,-219.81 199.2,-419.01 61.82,-199.2 130.51,-364.07 295.38,-631.96z"/>
        <path class="fil0 str0" d="M11087.2 6319.11c0,0 -61.83,-261.03 27.47,-425.89 89.3,-164.87 219.81,-212.95 219.81,-212.95"/>
       </g>
      </g>
     </g>
    </g>
   </g>
   <path class="fil0" d="M15602.93 2507.06c0,0 -1072.28,-2146.65 -3440.22,-2464.67 -2367.94,-318.03 -4021.02,1232.32 -5763.48,2027.39 -912.49,416.36 -1954.73,254.64 -2923.45,456.19 -5922.91,1232.19 -4228.93,11257.37 4720.69,11670.75 6924.41,319.82 10027.67,-5775.71 7406.46,-11689.65z"/>
  </g>
 </g>
</svg>
