<?xml version="1.0" encoding="UTF-8"?>
<!DOCTYPE svg PUBLIC "-//W3C//DTD SVG 1.1//EN" "http://www.w3.org/Graphics/SVG/1.1/DTD/svg11.dtd">
<!-- Creator: CorelDRAW 2019 (64-Bit) -->
<svg xmlns="http://www.w3.org/2000/svg" xml:space="preserve" width="0.707976in" height="0.650815in" version="1.1" style="shape-rendering:geometricPrecision; text-rendering:geometricPrecision; image-rendering:optimizeQuality; fill-rule:evenodd; clip-rule:evenodd"
viewBox="0 0 707.98 650.81"
 xmlns:xlink="http://www.w3.org/1999/xlink"
 xmlns:xodm="http://www.corel.com/coreldraw/odm/2003">
 <defs>
  <style type="text/css">
   <![CDATA[
    .fil3 {fill:#467D00}
    .fil1 {fill:#61AB00}
    .fil2 {fill:white}
    .fil0 {fill:#E3F0D1;fill-rule:nonzero;fill-opacity:0.878431}
   ]]>
  </style>
 </defs>
 <g id="Layer_x0020_1">
  <metadata id="CorelCorpID_0Corel-Layer"/>
  <g id="_2017174792384">
   <path id="Ellipse_x0020_18" class="fil0" d="M481 240.5c0,-132.83 -107.68,-240.5 -240.5,-240.5 -132.83,0 -240.5,107.68 -240.5,240.5 0,132.83 107.68,240.5 240.5,240.5 132.83,0 240.5,-107.68 240.5,-240.5z"/>
   <g>
    <path class="fil1" d="M196.53 399.38l0 9.13c3.78,8.94 2.08,29.07 5.49,39.24 4.75,14.16 25.2,-4.14 32.8,7.31 2.5,3.76 10.19,25.91 12.66,32.41 6.41,16.87 -7.06,16.2 -17.92,25.09 -3.78,6.66 12.91,26.54 17.3,32.74 12.95,18.29 11.8,20.25 27.89,6.82 11.89,-9.91 15.98,-0.82 30.21,11.81 3.3,2.93 5.33,4.55 9.03,8.02 8.84,8.28 9.02,10.75 1,21.66 -11.65,15.84 1.16,16.62 28.66,31.55 6.99,3.8 16.43,10.23 21.63,0.44 4.53,-8.52 3.25,-19.07 15.94,-17.47 7.36,0.93 19.69,4.89 27.5,6.77 12.15,2.92 17.16,3.38 15.17,17.86 -1.85,13.43 0.67,16.72 13.71,17.41 53.15,2.81 44.77,-3.22 44.01,-21.8 -0.5,-12.34 8.96,-12.13 19.23,-14.54 5.18,-1.21 22.68,-6.24 26.87,-6.04 11.28,0.54 8.57,12.83 14.24,19.96 6.97,8.77 29.28,-8.13 45.54,-16.11 12.31,-6.04 8.13,-11.25 1.89,-20.35 -8.01,-11.68 -5.41,-14.47 13.12,-29.25 12.26,-9.78 17.1,-21.84 30.05,-9.03 15.26,15.11 16.64,5.57 33.66,-18.61 3.51,-4.99 13.74,-15.41 9.06,-22.82 -3.76,-5.94 -17.64,-6.3 -18.81,-15.84 -0.6,-4.88 6.39,-21.05 8.31,-26.09 3.23,-8.46 4.48,-19.33 13.99,-19.61 9.07,-0.27 21.07,8.31 24.7,-2.53 3.06,-9.11 0.86,-21.8 4.51,-29.77l0 -20.63c-9.53,-7.83 -21.34,0.59 -27.33,-7.92 -3.41,-4.85 -4.23,-21.86 -5.16,-28.98 -1.65,-12.69 -5.05,-20.43 7.94,-24.15 21.93,-6.28 19.27,-5.05 4.82,-42.12 -3.03,-7.78 -4.79,-19.97 -16.01,-16.59 -8.07,2.43 -15.93,12.85 -24.08,3.09 -4.45,-5.33 -9.63,-14.21 -13.98,-20.12 -4.24,-5.76 -13.48,-15.15 -5.8,-23.09 3.68,-3.8 17.72,-11 9.61,-20.92 -1.28,-1.57 -33.81,-30.33 -37.36,-30.63 -9.69,-0.83 -11.55,12.87 -18.21,16.59 -8.43,4.72 -44.43,-18.27 -45.61,-19.98 -5.68,-8.16 4.91,-15.7 2.97,-27.81 -11.92,-9.41 -33.27,-7.27 -45.67,-14.24l-7.46 0c-9.94,8.31 -2.57,17.14 -8.73,24.48 -4.67,5.57 -18.67,2.53 -26.92,2.59 -9.15,0.07 -22.31,3.57 -25.98,-3.55 -5.27,-10.21 2.96,-11.46 -8.24,-23.53l-6.86 0c-18.87,11.02 -52.96,3.18 -44.89,25.07 4.69,12.71 7.63,15.93 -5.09,22.71 -34.16,18.2 -34.64,21.9 -45.62,6.13 -8.2,-11.78 -13.15,-9 -21.54,-0.26 -3.74,3.9 -6.09,5.05 -9.85,8.44 -3.96,3.58 -5.8,5.48 -9.61,8.65 -27.18,22.55 17.34,20.98 2.52,42.67 -20.72,30.33 -20.64,37.53 -37.83,27.78 -12.72,-7.22 -15.4,-2.38 -19.84,9.54 -3.24,8.7 -6.57,17.52 -9.98,26.58 -5.29,14.11 -3.06,16.14 10.87,19.33 21.76,4.98 7.29,15.47 7.29,56.21 -13.58,4.56 -18.85,-4.46 -29.83,6.31z"/>
    <path class="fil2" d="M433.22 200.81c-110.18,11.65 -186.49,109.09 -175.09,214.91 10.93,101.43 100.79,186.12 214.96,174.23 101.34,-10.56 185.82,-100.82 174.22,-214.88 -10.18,-100.11 -100.46,-186.27 -214.1,-174.26z"/>
    <path class="fil1" d="M270.85 389.22c2.86,-1.49 63.78,-61.51 69.24,-70.07l0.97 3.57 2.82 -6.11c0.98,0.79 0.82,0.54 1.94,1.86l6.38 10.72c1.51,2.74 6.07,11.58 7.54,13.18 4.19,4.52 28.85,5.22 33.5,0.67 3.06,-3 5.44,-9.3 7.87,-12.85 12.25,-17.9 -2.96,-20.91 -9.67,-40.33 13.17,0.98 25.98,12.96 30.37,20.87 5.19,9.34 5.95,21.65 2.86,32.17 -1.55,5.28 -3.12,5.89 0.78,8.33 4.26,-2.57 36.96,-36.44 42.42,-42.04 5.28,-5.41 3.93,-3.78 4.87,-3.43 3.91,-2.68 6.41,-8.72 10.82,-12.46 13.3,-11.24 38.48,-19.63 47.4,-10.59 -5.91,8.53 -23.22,10.81 -27.9,20.39 -3.99,8.19 -2.37,38.82 2.75,42.97 3.62,2.93 26.9,16.52 31.79,16.69 8.87,0.29 21.12,-12.65 32.79,-14.59 -0.39,14.71 -11.33,20.95 -16.86,28.65 0.7,2.21 0.8,0.27 -1.65,2.91 -9.36,10.13 -43.04,44.84 -50.15,46.74l5.76 0.76c2.51,0.02 3.09,-0.14 5.77,0.17 3.99,0.46 7.59,1.44 10.86,2.66 21.83,8.19 30.06,29.61 24.12,54.72 -5.37,-3.98 -10.84,-18.38 -15.73,-25.35 -4.56,-6.5 -29.87,-5.82 -34.2,-1.53 -1.55,1.53 -14.65,19.5 -12.19,27.13l13.77 26.07c-0.88,5.14 -2.73,5.34 -7.66,10.07 -2.96,2.85 -5.07,4.87 -8.06,7.76 -5.88,5.69 -10.93,10.43 -16.75,16.13 -6.37,6.22 -26.99,28.27 -33.75,30.5 6.75,5.98 51.43,-0.81 61.22,-3.02 90.1,-20.28 152.01,-110.24 137.96,-203.84 -4.22,-28.12 -13.82,-52.35 -28.87,-74.51 -47.67,-70.22 -136.49,-100.29 -218.08,-68.12 -35.46,13.98 -60.31,35.99 -78.72,60.12 -19.44,25.48 -35.76,62.07 -36.32,103.04z"/>
    <path class="fil3" d="M270.85 389.22c-1.2,53 19.55,99.39 46.37,127.16 13.5,13.98 27.38,28.05 48.74,38.91 14.69,7.47 48.06,22.2 67.7,20.26 6.76,-2.22 27.38,-24.27 33.75,-30.5 5.83,-5.7 10.87,-10.44 16.75,-16.13 2.99,-2.89 5.1,-4.91 8.06,-7.76 4.93,-4.73 6.78,-4.93 7.66,-10.07 -15.39,-0.85 -30.81,-17.4 -33.91,-31.36 -2.53,-11.43 2.78,-25.74 1.24,-29.21 -1.26,-2.83 -13.72,-13.91 -16.51,-15.54l-33.26 35.72c-5.47,5.86 -8.94,13.11 -19.1,16.26 -9.76,3.03 -20.19,-0.77 -25.43,-5.57 -5.46,-5.01 -10.14,-16.43 -6.2,-27.31 3.87,-10.69 34.37,-33.8 42.96,-43.47 3.36,-3.78 5.95,-5.02 8.52,-8.57 -4.39,-5.96 -13.54,-13.98 -19.26,-19.72 -14.83,-14.87 -8.48,-5 -28.34,-10.7 -10.13,-2.91 -18.02,-9.31 -22.77,-16.12 -8.7,-12.46 -4.1,-19.33 -6.76,-32.78l-0.97 -3.57c-5.45,8.57 -66.38,68.58 -69.24,70.07z"/>
    <path class="fil2" d="M472.73 305.76c-4.49,14.77 -9.91,21.87 -5.22,40.89 2.9,11.75 0.28,9.98 -6.21,15.76 -5.19,4.63 -6.93,7.57 -12.7,11.45 -4.98,-3.68 -19.7,-17.77 -23.15,-22.63 -3.9,-2.44 -2.33,-3.06 -0.78,-8.33 3.09,-10.52 2.33,-22.83 -2.86,-32.17 -4.39,-7.91 -17.2,-19.88 -30.37,-20.87 6.7,19.43 21.92,22.43 9.67,40.33 -2.43,3.55 -4.81,9.85 -7.87,12.85 -4.65,4.55 -29.31,3.85 -33.5,-0.67 -1.48,-1.59 -6.04,-10.44 -7.54,-13.18l-6.38 -10.72c-1.11,-1.32 -0.96,-1.07 -1.94,-1.86l-2.82 6.11c2.66,13.45 -1.94,20.33 6.76,32.78 4.75,6.81 12.63,13.21 22.77,16.12 19.86,5.7 13.52,-4.17 28.34,10.7 5.72,5.74 14.87,13.77 19.26,19.72 -2.57,3.55 -5.16,4.79 -8.52,8.57 -8.59,9.67 -39.1,32.78 -42.96,43.47 -3.93,10.88 0.74,22.31 6.2,27.31 5.24,4.81 15.67,8.61 25.43,5.57 10.16,-3.15 13.63,-10.4 19.1,-16.26l33.26 -35.72c2.79,1.62 15.25,12.7 16.51,15.54 1.55,3.47 -3.76,17.79 -1.24,29.21 3.09,13.96 18.52,30.51 33.91,31.36l-13.77 -26.07c-2.46,-7.63 10.64,-25.6 12.19,-27.13 4.33,-4.29 29.65,-4.97 34.2,1.53 4.89,6.97 10.36,21.37 15.73,25.35 5.94,-25.12 -2.29,-46.53 -24.12,-54.72 -3.27,-1.22 -6.87,-2.2 -10.86,-2.66 -2.67,-0.31 -3.26,-0.15 -5.77,-0.17l-5.76 -0.76c-3.64,-1.72 -20.25,-18.73 -22.43,-22.18 5.78,-5.11 8.2,-9.23 13.09,-14.5 12.37,-13.33 13.3,4.63 42.96,-4.5 8.24,-2.54 12.8,-6.56 18.18,-8.47 5.52,-7.7 16.47,-13.94 16.86,-28.65 -11.67,1.95 -23.92,14.89 -32.79,14.59 -4.89,-0.16 -28.17,-13.76 -31.79,-16.69 -5.12,-4.15 -6.74,-34.78 -2.75,-42.97 4.68,-9.59 21.99,-11.86 27.9,-20.39 -8.92,-9.04 -34.09,-0.65 -47.4,10.59 -4.41,3.73 -6.91,9.78 -10.82,12.46z"/>
    <path class="fil3" d="M501.72 426.46c7.11,-1.91 40.79,-36.61 50.15,-46.74 2.44,-2.64 2.35,-0.7 1.65,-2.91 -5.38,1.92 -9.94,5.93 -18.18,8.47 -29.66,9.14 -30.59,-8.83 -42.96,4.5 -4.89,5.27 -7.31,9.39 -13.09,14.5 2.18,3.45 18.79,20.46 22.43,22.18z"/>
    <path class="fil3" d="M425.45 351.23c3.45,4.86 18.17,18.96 23.15,22.63 5.77,-3.88 7.51,-6.82 12.7,-11.45 6.49,-5.79 9.11,-4.01 6.21,-15.76 -4.69,-19.02 0.73,-26.12 5.22,-40.89 -0.93,-0.35 0.41,-1.98 -4.87,3.43 -5.46,5.61 -38.16,39.47 -42.42,42.04z"/>
    <path class="fil3" d="M387.01 454.24c-14.87,6.5 -4.74,23.09 6.87,18.58 11.82,-4.59 4.28,-23.46 -6.87,-18.58z"/>
   </g>
  </g>
 </g>
</svg>
