<?xml version="1.0" encoding="UTF-8"?>
<!DOCTYPE svg PUBLIC "-//W3C//DTD SVG 1.1//EN" "http://www.w3.org/Graphics/SVG/1.1/DTD/svg11.dtd">
<!-- Creator: CorelDRAW 2019 (64-Bit) -->
<svg xmlns="http://www.w3.org/2000/svg" xml:space="preserve" width="0.633969in" height="0.649161in" version="1.1" style="shape-rendering:geometricPrecision; text-rendering:geometricPrecision; image-rendering:optimizeQuality; fill-rule:evenodd; clip-rule:evenodd"
viewBox="0 0 633.97 649.16"
 xmlns:xlink="http://www.w3.org/1999/xlink"
 xmlns:xodm="http://www.corel.com/coreldraw/odm/2003">
 <defs>
  <style type="text/css">
   <![CDATA[
    .fil2 {fill:#55BC7E}
    .fil0 {fill:#E3F5EB;fill-rule:nonzero;fill-opacity:0.176471}
    .fil1 {fill:#DFF3E8;fill-rule:nonzero;fill-opacity:0.878431}
   ]]>
  </style>
 </defs>
 <g id="Layer_x0020_1">
  <metadata id="CorelCorpID_0Corel-Layer"/>
  <g id="_2017135275568">
   <path id="Ellipse_x0020_24" class="fil0" d="M480.08 240.5c0,-132.32 -107.26,-239.58 -239.58,-239.58 -132.32,0 -239.58,107.26 -239.58,239.58 0,132.31 107.26,239.58 239.58,239.58 132.31,0 239.58,-107.26 239.58,-239.58z"/>
   <path id="Ellipse_x0020_18" class="fil1" d="M481 240.5c0,-132.83 -107.68,-240.5 -240.5,-240.5 -132.83,0 -240.5,107.68 -240.5,240.5 0,132.83 107.68,240.5 240.5,240.5 132.83,0 240.5,-107.68 240.5,-240.5z"/>
   <g>
    <path class="fil2" d="M354.36 192.35l-39.37 -0.02 -21.15 36.66c-5.15,5.48 -29.11,15.09 -36.76,22.07l-0.22 38.45c0.07,8.41 -19.46,34.16 -20.51,39.97 -0.96,5.32 20.51,33.61 20.51,40.15l-0.19 41.06c3.12,0.9 33.88,18.35 36.6,21.04 4.67,4.61 16.4,28.93 22.11,36.69l38.98 0.13c8.65,0 35.22,20.65 40.58,20.58 6.11,-0.09 31.24,-20.58 41.67,-20.58l38.17 0.21c4.42,-6.93 18.07,-33.18 21.15,-36.63 3.07,-3.43 30.09,-16.8 36.92,-21.92l0.27 -37.39c0,-7.39 5.94,-15.96 9.19,-21.4 1.71,-2.86 11.21,-18.74 11.36,-20.48 0.63,-7.18 -20.59,-29.07 -20.55,-43.58l0.05 -35.25c-3.09,-5.78 -31.1,-17.26 -36.97,-23.28 -3.19,-3.27 -14.9,-26.11 -19.38,-32.94 -3.59,-5.46 -4.47,-3.48 -18.84,-3.56 -28.75,-0.15 -21.2,2.41 -42.65,-9.77 -2.5,-1.42 -18.21,-10.65 -19.72,-10.86 -2.89,-0.41 -15.92,7.98 -19.65,10.08 -5.71,3.2 -14.94,10.55 -21.59,10.55zm24.81 34.85c-52.76,7.19 -99.28,56.48 -90.99,118.83 7.15,53.75 57.28,100.5 120.24,91.34 58.3,-8.49 98.52,-63.2 90.15,-119.1 -2.35,-15.72 -6.27,-26.78 -13.25,-38.99 -13.39,-23.42 -33.85,-38.96 -58.93,-47.92 -13.7,-4.89 -32.02,-6.23 -47.21,-4.16zm5.16 17.02c-45.37,4.58 -85.94,46.27 -78.91,98.57 6.11,45.4 45.88,83.75 98.36,77.54 45.12,-5.33 83.57,-46.1 77.72,-97.72 -5.15,-45.45 -45.06,-83.66 -97.18,-78.39z"/>
    <path class="fil2" d="M384.34 244.22c-45.37,4.58 -85.94,46.27 -78.91,98.57 6.11,45.4 45.88,83.75 98.36,77.54 45.12,-5.33 83.57,-46.1 77.72,-97.72 -5.15,-45.45 -45.06,-83.66 -97.18,-78.39z"/>
    <path class="fil2" d="M484.68 486.15l-42.73 0.24c-6.94,0 -11.06,2.24 -15.32,6.09 1.82,7.65 58.86,115.62 68.59,136.88 2.7,5.9 6.5,14.48 10.06,19.8 3.64,-4.03 38.26,-63.22 44.56,-71.3l84.13 6.69 -41.2 -82.68c-6.44,-13.72 -14.26,-27.14 -20.84,-41.1 -3.18,-6.74 -6.97,-14.37 -10.36,-20.58 -3.37,-6.17 -6.72,-14.75 -10.49,-20.11 -5.12,4.17 -37.93,20.89 -41.64,24.53 -4.02,3.94 -20.17,36.25 -24.75,41.54z"/>
    <path class="fil2" d="M156.14 584.07l83.9 -6.56c5.89,7.58 39.65,65.53 43.32,69.5l2.07 1.87 78.25 -156.22c-9.42,-7.36 -13.16,-6.2 -26.4,-6.26 -40.28,-0.19 -28.69,5.37 -44.44,-21.09 -16.56,-27.82 -5.48,-16.67 -33.19,-33 -7.11,-4.19 -14.01,-7.87 -20.8,-12.14 -6.74,9.74 -14.85,28.86 -20.8,40.66 -7.05,13.97 -13.72,27.22 -20.78,41.13 -13.92,27.42 -27.5,55.47 -41.13,82.11z"/>
   </g>
  </g>
 </g>
</svg>
