<?xml version="1.0" encoding="UTF-8"?>
<!DOCTYPE svg PUBLIC "-//W3C//DTD SVG 1.1//EN" "http://www.w3.org/Graphics/SVG/1.1/DTD/svg11.dtd">
<!-- Creator: CorelDRAW 2019 (64-Bit) -->
<svg xmlns="http://www.w3.org/2000/svg" xml:space="preserve" width="4.65778in" height="3.9514in" version="1.1" style="shape-rendering:geometricPrecision; text-rendering:geometricPrecision; image-rendering:optimizeQuality; fill-rule:evenodd; clip-rule:evenodd"
viewBox="0 0 4652.17 3946.64"
 xmlns:xlink="http://www.w3.org/1999/xlink"
 xmlns:xodm="http://www.corel.com/coreldraw/odm/2003">
 <defs>
  <style type="text/css">
   <![CDATA[
    .fil5 {fill:#229E54;fill-rule:nonzero}
    .fil0 {fill:#3EAB6A;fill-rule:nonzero}
    .fil4 {fill:#72C292;fill-rule:nonzero}
    .fil2 {fill:#167A3E;fill-rule:nonzero;fill-opacity:0.870588}
    .fil3 {fill:#229E54;fill-rule:nonzero;fill-opacity:0.870588}
    .fil1 {fill:#80C89D;fill-rule:nonzero;fill-opacity:0.870588}
   ]]>
  </style>
    <mask id="id0">
  <linearGradient id="id1" gradientUnits="userSpaceOnUse" x1="2552.13" y1="59.89" x2="1336.92" y2="783.09">
   <stop offset="0" style="stop-opacity:0.866667; stop-color:white"/>
   <stop offset="1" style="stop-opacity:0; stop-color:white"/>
  </linearGradient>
     <rect style="fill:url(#id1)" x="1234.62" y="37.09" width="1028.91" height="1001.44"/>
    </mask>
    <mask id="id2">
  <linearGradient id="id3" gradientUnits="userSpaceOnUse" x1="1769.63" y1="2286.44" x2="554.42" y2="3009.64">
   <stop offset="0" style="stop-opacity:0.866667; stop-color:white"/>
   <stop offset="1" style="stop-opacity:0; stop-color:white"/>
  </linearGradient>
     <rect style="fill:url(#id3)" x="452.11" y="2263.64" width="1028.91" height="1001.44"/>
    </mask>
    <mask id="id4">
  <linearGradient id="id5" gradientUnits="userSpaceOnUse" x1="4399.47" y1="2194.98" x2="3184.27" y2="2918.17">
   <stop offset="0" style="stop-opacity:0.866667; stop-color:white"/>
   <stop offset="1" style="stop-opacity:0; stop-color:white"/>
  </linearGradient>
     <rect style="fill:url(#id5)" x="3081.97" y="2172.17" width="1028.9" height="1001.44"/>
    </mask>
     <mask id="id6">
  <linearGradient id="id7" gradientUnits="userSpaceOnUse" x1="3286.26" y1="1406.22" x2="1630.62" y2="2391.53">
   <stop offset="0" style="stop-opacity:0.866667; stop-color:white"/>
   <stop offset="1" style="stop-opacity:0; stop-color:white"/>
  </linearGradient>
      <rect style="fill:url(#id7)" x="1491.79" y="1375.7" width="1400.73" height="1363.32"/>
     </mask>
 </defs>
 <g id="Layer_x0020_1">
  <metadata id="CorelCorpID_0Corel-Layer"/>
  <g id="_2016593490704">
   <path class="fil0" d="M3001.73 386.29c-1.97,1.43 -26.58,-28.47 -67.18,-80.99l-1.99 -2.58 1.11 -3.39c9.2,-28.08 20.25,-61.85 32.69,-99.82 3.28,3.34 7.07,7.21 10.86,11.08 -30.12,10.28 -63.67,21.72 -99.41,33.92l-4.86 1.66 -4.24 -3.2c-26.31,-19.79 -54.57,-41.04 -83.94,-63.13 5.28,-2.63 11.18,-5.56 17.05,-8.47 0.17,33.92 0.33,69.04 0.49,105l0 0.02 0.02 5.71 -4.69 3.23c-29.64,20.41 -58.58,40.35 -86.5,59.57 -0.95,-6.39 -1.87,-12.61 -2.79,-18.84 34.76,11.45 68.14,22.44 99.76,32.86l5.05 1.67 1.41 4.94c10.37,36.16 20.05,70 28.92,100.97 -5.4,-0.92 -10.36,-1.75 -15.31,-2.59 24.2,-32.04 45.39,-60.12 63.29,-83.84l2.14 -2.84 3.25 0.16c66.42,3.34 104.91,6.46 104.85,8.89 -0.06,2.43 -38.63,3.77 -105.15,4.04 1.68,-0.83 3.35,-1.66 5.39,-2.68 -16.9,24.45 -36.92,53.38 -59.74,86.41l-9.98 14.43 -5.32 -17.01c-9.62,-30.75 -20.13,-64.35 -31.36,-100.24 2.13,2.17 4.25,4.34 6.46,6.61 -31.76,-10.01 -65.27,-20.57 -100.17,-31.56l-20.58 -6.48 17.79 -12.36c27.84,-19.35 56.69,-39.39 86.25,-59.93 -1.55,2.95 -3.08,5.89 -4.68,8.94l0 -0.01c-0.01,-35.97 -0.04,-71.09 -0.06,-105.01l-0.01 -21.67 17.07 13.2c29.08,22.47 57.06,44.1 83.1,64.23 -3.16,-0.53 -6.33,-1.07 -9.1,-1.54 36.02,-11.32 69.83,-21.95 100.19,-31.49l17 -5.34 -6.13 16.43c-14.01,37.43 -26.46,70.71 -36.81,98.38 -0.31,-2.1 -0.63,-4.19 -0.88,-5.96 37.67,54.65 58.68,87.2 56.72,88.63z"/>
   <path class="fil0" d="M515.08 0.19c0.76,-1.48 18.51,5.82 49.66,20.16 31.15,14.35 75.71,35.74 130.09,62.42l3.66 1.8 0.75 4.25c7.84,44.37 16.87,95.37 26.66,150.78l0.87 4.95 -3.59 3.73c-42.65,44.26 -89.39,92.77 -138.3,143.52l-0.01 0.01 -5.59 5.77 -7.11 -3.67c-61.99,-31.95 -121.28,-62.51 -175.58,-90.51l-4.62 -2.39 -0.76 -4.98c-8.54,-55.8 -16.35,-106.86 -23.18,-151.48l-0.65 -4.27 2.89 -2.89c43.36,-43.24 78.96,-78.13 104.02,-101.91 25.06,-23.79 39.58,-36.48 40.78,-35.31 1.2,1.17 -11.05,16.06 -34.08,41.81 -23.03,25.76 -56.84,62.38 -98.78,107 0.72,-2.29 1.44,-4.59 2.23,-7.14 7.87,44.45 16.87,95.32 26.72,150.9 -1.77,-2.43 -3.54,-4.85 -5.38,-7.36 54.52,27.6 114.02,57.72 176.25,89.22 -4.19,0.69 -8.38,1.39 -12.71,2.11l0.02 -0.01c49.27,-50.39 96.37,-98.56 139.34,-142.5 -0.94,3.01 -1.88,6.02 -2.72,8.67 -8.5,-55.63 -16.31,-106.82 -23.13,-151.36 1.55,2.11 3.09,4.23 4.42,6.04 -53.49,-28.46 -96.91,-52.06 -126.78,-68.92 -29.87,-16.86 -46.17,-26.98 -45.41,-28.46z"/>
   <path class="fil0" d="M401.19 294.41c-4.29,-4.16 47.14,-64.2 114.89,-134.07 5.53,-5.66 10.99,-11.25 16.17,-16.55 -0.98,3.15 -1.94,6.18 -2.89,9.23 -13.37,-85.5 -19.71,-151.93 -14.29,-152.82 5.43,-0.89 20.73,64.05 35.48,149.32l0.92 5.28 -3.81 3.95c-5.14,5.34 -10.54,10.97 -16.04,16.68 -67.73,69.87 -126.15,123.15 -130.44,118.99z"/>
   <path class="fil0" d="M539.96 151.26c2.73,-5.33 44.33,10.5 92.92,35.35 48.6,24.85 85.78,49.31 83.06,54.64 -2.72,5.33 -44.32,-10.49 -92.92,-35.34 -48.59,-24.84 -85.77,-49.31 -83.05,-54.64z"/>
   <path class="fil0" d="M1276.72 3548.1c0.87,-1.42 17.9,7.14 47.68,23.7 29.78,16.54 72.3,41.09 124.16,71.62l3.51 2.07 0.43 4.29c4.42,44.54 9.51,95.72 15.04,151.35l0.49 5 -3.86 3.44c-45.58,40.63 -95.53,85.16 -147.79,131.73l-0.01 0.02 -6.02 5.32 -6.81 -4.19c-58.99,-36.35 -115.4,-71.08 -167.08,-102.92l-4.42 -2.73 -0.39 -5.03c-4.23,-55.91 -8.11,-107.06 -11.51,-151.78l-0.33 -4.31 3.1 -2.66c46.22,-39.55 84.11,-71.42 110.73,-93.08 26.62,-21.66 41.97,-33.11 43.07,-31.86 1.11,1.26 -12.14,15.08 -36.89,38.87 -24.75,23.77 -61,57.49 -105.89,98.54 0.89,-2.24 1.78,-4.47 2.78,-6.96 4.44,44.62 9.52,95.68 15.08,151.48 -1.58,-2.56 -3.17,-5.1 -4.8,-7.75 51.91,31.46 108.57,65.78 167.83,101.67 -4.23,0.38 -8.47,0.75 -12.83,1.14l0.02 -0.02c52.61,-46.2 102.88,-90.34 148.77,-130.62 -1.17,2.93 -2.33,5.86 -3.37,8.44 -4.22,-55.73 -8.09,-107.04 -11.46,-151.66 1.38,2.22 2.76,4.44 3.94,6.35 -50.82,-32.23 -92.04,-58.89 -120.35,-77.86 -28.31,-18.95 -43.69,-30.21 -42.82,-31.64z"/>
   <path class="fil0" d="M1141.72 3830.91c-3.97,-4.48 51.49,-60.08 123.86,-124.17 5.91,-5.19 11.73,-10.31 17.26,-15.17 -1.22,3.08 -2.39,6.03 -3.57,8.98 -6.79,-85.7 -8.03,-151.97 -2.55,-152.45 5.47,-0.47 15.76,65 23.96,150.58l0.51 5.32 -4.09 3.65c-5.49,4.91 -11.27,10.07 -17.14,15.31 -72.37,64.09 -134.26,112.43 -138.24,107.94z"/>
   <path class="fil0" d="M1289.98 3699.61c3.12,-5.11 43.15,13.68 89.4,41.96 46.27,28.28 81.22,55.34 78.1,60.45 -3.12,5.11 -43.15,-13.67 -89.41,-41.96 -46.24,-28.27 -81.21,-55.34 -78.09,-60.45z"/>
   <path class="fil0" d="M4052.75 1948.07c-1.37,-0.96 13.91,-25.44 42.43,-68.5 28.52,-43.03 70.3,-104.65 121.94,-179.89l2.33 -3.39 4.28 -0.14c67.72,-2.11 145.73,-4.55 230.52,-7.2l5.05 -0.16 3.17 4.06c56.95,72.94 119.42,152.94 184.79,236.64l0.01 0.02 4.92 6.34 -4.6 6.54c-60.6,85.85 -118.53,167.96 -171.58,243.13l-2.98 4.22 -5.05 0.08c-85.1,1.37 -162.93,2.6 -230.8,3.69l-4.28 0.07 -2.49 -3.28c-55.8,-73.45 -100.87,-133.49 -131.65,-175.43 -30.79,-41.93 -47.29,-65.76 -45.98,-66.79 1.31,-1.03 20.33,20.86 53.35,61.06 33.01,40.21 80.05,98.72 137.42,170.95 -2.17,-1.03 -4.35,-2.06 -6.76,-3.21 67.85,-2.14 145.65,-4.59 230.71,-7.26 -2.64,1.41 -5.3,2.83 -8.03,4.29 52.68,-75.43 110.23,-157.81 170.39,-243.97 0.11,4.25 0.2,8.49 0.31,12.88l-0.01 -0.03c-64.93,-84.01 -127.02,-164.32 -183.62,-237.54 2.86,1.35 5.7,2.7 8.21,3.89 -84.82,1.34 -162.86,2.56 -230.61,3.63 2.32,-1.23 4.62,-2.47 6.61,-3.53 -53.28,74.09 -97.08,134.28 -127.91,175.7 -30.84,41.43 -48.69,64.09 -50.06,63.13z"/>
   <path class="fil0" d="M4467.71 2179.71c-4.73,3.67 -81.53,-87.17 -171.53,-202.89 -7.3,-9.44 -14.5,-18.73 -21.32,-27.57 2.98,1.41 5.85,2.78 8.73,4.15 -130.34,2.36 -230.69,0.17 -230.83,-5.32 -0.14,-5.5 100.02,-12.4 230.32,-16.16l5.38 -0.15 3.36 4.29c6.88,8.79 14.11,18.05 21.47,27.45 89.99,115.72 159.15,212.54 154.42,216.21z"/>
   <path class="fil0" d="M4283.33 1942.66c-4.9,-3.44 29.45,-60.77 76.7,-128.02 47.28,-67.29 89.55,-119.02 94.45,-115.58 4.89,3.44 -29.44,60.76 -76.71,128.04 -47.25,67.25 -89.55,119 -94.44,115.56z"/>
   <path class="fil0" d="M4248.08 1173.16c-1.03,-3.17 53.81,-24.04 141.5,-54.48l3.83 -1.33 3.56 2.49c28.42,19.73 61,42.33 96.36,66.89l4.12 2.85 0.09 5.2c0.94,47.11 1.95,98.68 3.02,152.65l0 0 0.12 8.05 -7.62 2.42c-50.9,16.22 -99.55,31.71 -144.18,45.93l-4.97 1.58 -4.04 -2.98c-34.72,-25.7 -66.5,-49.22 -94.37,-69.85l-3.5 -2.59 0.03 -4.05c0.58,-93.84 2.7,-152.75 6.04,-152.8 3.35,-0.05 7.21,58.78 10.59,152.55 -1.11,-2.14 -2.24,-4.27 -3.47,-6.64 28.48,19.76 60.96,42.3 96.45,66.92 -2.96,-0.46 -5.93,-0.92 -9.01,-1.4 44.5,-14.64 93,-30.6 143.75,-47.3 -2.48,3.45 -4.96,6.92 -7.51,10.47l0 -0.01c-0.54,-53.97 -1.06,-105.56 -1.53,-152.67 1.45,2.8 2.91,5.59 4.21,8.05 -34.61,-25.61 -66.48,-49.22 -94.27,-69.8 2.59,0.4 5.16,0.81 7.38,1.15 -88.91,26.65 -145.58,41.85 -146.61,38.67z"/>
   <path class="fil0" d="M4345.77 1394.22c-5.98,0.09 -11.77,-60.28 -12.94,-134.82 -0.06,-6.06 -0.12,-12.03 -0.18,-17.71 1.56,2.98 3.02,5.77 4.49,8.56 -53.47,-39.21 -92.26,-72.62 -89.06,-77.09 3.2,-4.47 47.29,21.57 101.57,59.63l4.36 3.06 0.12 5.51c0.12,5.68 0.24,11.65 0.36,17.71 1.17,74.54 -2.75,135.06 -8.74,135.15z"/>
   <path class="fil0" d="M4343.4 1241.52c-1.84,-5.7 28.93,-20.74 68.7,-33.6 39.79,-12.86 73.52,-18.67 75.36,-12.98 1.84,5.7 -28.91,20.73 -68.7,33.61 -39.77,12.86 -73.52,18.67 -75.37,12.98z"/>
   <path class="fil0" d="M1885.68 3139.64c-0.42,-0.72 10.62,-8.19 31.96,-21.7 21.32,-13.52 52.94,-33.07 93.65,-57.95 81.42,-49.77 199.21,-120.84 343.89,-207.53l3.57 -2.13 3.9 1.64c115.39,48.35 248.48,104.11 393.19,164.74l4.68 1.95 1.2 4.98c40.21,166.18 84.33,348.58 130.48,539.35l0.02 0.06 1.87 7.79 -6.89 4.06c-167.29,98.69 -327.31,193.07 -473.73,279.45l-4.42 2.6 -4.67 -2.01c-144.67,-62 -276.94,-118.68 -392.15,-168.07l-3.9 -1.68 -0.95 -4.03c-38.91,-165.99 -70.15,-301.18 -91.24,-394.97 -10.55,-46.9 -18.57,-83.44 -23.75,-108.31 -5.17,-24.87 -7.52,-38.07 -6.7,-38.26 0.81,-0.19 4.73,12.61 11.43,37.12 6.69,24.51 16.18,60.69 28.1,107.26 23.85,93.12 57.51,227.73 98.34,393.24 -1.56,-1.83 -3.12,-3.67 -4.84,-5.71 115.61,48.41 248.36,103.98 393.55,164.79 -3,0.19 -5.99,0.39 -9.09,0.59 146.19,-86.74 305.95,-181.54 473,-280.67 -1.66,3.9 -3.32,7.81 -5.03,11.85l-0.01 -0.04c-45.64,-190.9 -89.29,-373.42 -129.05,-539.72 2.04,2.41 4.08,4.81 5.88,6.94 -144.19,-61.84 -276.81,-118.73 -391.78,-168.04 2.61,-0.18 5.21,-0.35 7.46,-0.5 -145.7,84.97 -264.75,153.91 -347.6,201.24 -41.43,23.66 -73.8,41.94 -95.93,54.1 -22.12,12.18 -34,18.25 -34.42,17.53z"/>
   <path class="fil0" d="M2408.31 3845.65c-2.91,0.71 -18.42,-52.06 -41.14,-137.92 -22.73,-85.86 -52.66,-204.83 -84.43,-336.54 -5.13,-21.46 -10.2,-42.58 -15.01,-62.63 2.14,2.52 4.2,4.95 6.25,7.37 -110.78,-47.34 -208.4,-90.16 -278.04,-121.76 -69.64,-31.61 -111.33,-51.99 -110.26,-54.53 1.07,-2.53 44.72,13.25 115.85,41.33 71.15,28.08 169.79,68.48 280.83,115.18l4.97 2.08 1.29 5.28c4.86,20.05 9.98,41.16 15.19,62.59 31.76,131.7 59.35,251.24 78.26,338.03 18.91,86.78 29.15,140.81 26.24,141.51z"/>
   <path class="fil0" d="M2278.18 3306.05c-3.05,-5.15 100.55,-72.02 231.33,-149.34 130.84,-77.34 239.34,-135.84 242.39,-130.69 3.05,5.15 -100.52,72 -231.36,149.36 -130.78,77.31 -239.31,135.82 -242.36,130.68z"/>
   <polygon class="fil1" points="2122.28,203.11 2262.03,748.41 1780.12,1037 1640.37,491.69 "/>
   <polygon class="fil2" points="1780.12,1037 1375.86,872.48 1236.11,327.18 1640.37,491.69 "/>
   <polygon class="fil3" points="1640.37,491.69 1236.11,327.18 1718.01,38.59 2122.28,203.11 "/>
   <path class="fil0" d="M1794.06 573.79c1.51,2.59 -33.31,25.86 -90.79,61.39 -57.49,35.54 -137.65,83.32 -226.86,134.94 -89.24,51.64 -170.61,97.34 -230.06,129.47 -59.45,32.13 -96.97,50.71 -98.47,48.13 -1.5,-2.59 33.3,-25.86 90.78,-61.39 57.49,-35.53 137.65,-83.32 226.89,-134.97 89.21,-51.62 170.59,-97.31 230.03,-129.45 59.44,-32.14 96.97,-50.72 98.47,-48.13z"/>
   <polygon class="fil1" points="1339.78,2429.66 1479.53,2974.97 997.63,3263.55 857.88,2718.24 "/>
   <polygon class="fil2" points="997.63,3263.55 593.36,3099.03 453.61,2553.72 857.88,2718.24 "/>
   <polygon class="fil3" points="857.88,2718.24 453.61,2553.72 935.51,2265.14 1339.78,2429.66 "/>
   <polygon class="fil1" points="3969.64,2338.19 4109.37,2883.5 3627.48,3172.09 3487.73,2626.78 "/>
   <polygon class="fil2" points="3627.48,3172.09 3223.21,3007.56 3083.47,2462.25 3487.73,2626.78 "/>
   <polygon class="fil3" points="3487.73,2626.78 3083.47,2462.25 3565.37,2173.67 3969.64,2338.19 "/>
   <path class="fil4" d="M1951.19 2216.3c1.51,2.59 -29.2,23.49 -80.05,55.18 -50.84,31.68 -121.83,74.17 -200.9,119.93 -79.1,45.78 -151.31,86.16 -204.11,114.44 -52.81,28.3 -86.21,44.5 -87.72,41.91 -1.5,-2.59 29.19,-23.48 80.04,-55.18 50.84,-31.69 121.84,-74.17 200.94,-119.95 79.07,-45.76 151.27,-86.14 204.08,-114.43 52.81,-28.3 86.22,-44.5 87.72,-41.92z"/>
   <path class="fil4" d="M3381.01 2866.98c1.5,2.59 -30.46,24.21 -83.32,57.06 -52.86,32.86 -126.62,76.96 -208.77,124.5 -82.18,47.55 -157.17,89.55 -212,119.01 -54.82,29.46 -89.47,46.39 -90.98,43.8 -1.5,-2.59 30.44,-24.21 83.3,-57.06 52.86,-32.85 126.64,-76.96 208.82,-124.51 82.15,-47.53 157.15,-89.53 211.97,-118.99 54.82,-29.46 89.48,-46.39 90.98,-43.8z"/>
   <path class="fil0" d="M2122.28 1814.96c-2.91,0.7 -17.11,-46.74 -37.7,-124.01 -20.59,-77.26 -47.59,-184.34 -76.11,-302.93 -28.52,-118.62 -53.16,-226.28 -69.94,-304.46 -16.78,-78.18 -25.71,-126.88 -22.8,-127.58 2.91,-0.7 17.1,46.73 37.7,123.99 20.59,77.27 47.59,184.36 76.12,302.98 28.5,118.58 53.14,226.23 69.93,304.41 16.79,78.18 25.71,126.89 22.8,127.59z"/>
   <path class="fil4" d="M872.14 2508.38c-2.91,0.7 -16.74,-45.23 -36.75,-120.04 -20.01,-74.82 -46.19,-178.53 -73.8,-293.36 -27.63,-114.89 -51.45,-219.16 -67.65,-294.89 -16.2,-75.74 -24.75,-122.92 -21.84,-123.62 2.91,-0.7 16.74,45.22 36.75,120.03 20,74.82 46.19,178.52 73.82,293.41 27.62,114.84 51.44,219.11 67.64,294.84 16.19,75.74 24.76,122.93 21.84,123.63z"/>
   <path class="fil4" d="M3543.26 2383.76c-2.91,0.71 -16.15,-42.77 -35.19,-113.62 -19.06,-70.85 -43.92,-169.06 -70.08,-277.85 -26.17,-108.84 -48.69,-207.63 -63.93,-279.39 -15.23,-71.76 -23.21,-116.5 -20.29,-117.19 2.91,-0.7 16.15,42.76 35.2,113.61 19.06,70.84 43.92,169.06 70.09,277.9 26.16,108.78 48.67,207.57 63.9,279.32 15.24,71.77 23.22,116.51 20.31,117.21z"/>
   <path class="fil4" d="M1903.4 3167.98c-1.26,2.71 -42.33,-13.42 -107.73,-41.72 -65.39,-28.29 -155.07,-68.72 -253.57,-114.59 -98.53,-45.89 -187.21,-88.53 -250.93,-120.37 -63.74,-31.85 -102.51,-52.9 -101.25,-55.61 1.26,-2.71 42.33,13.42 107.71,41.71 65.39,28.28 155.09,68.74 253.62,114.62 98.5,45.87 187.16,88.5 250.9,120.35 63.73,31.85 102.51,52.9 101.25,55.61z"/>
   <path class="fil4" d="M3112.96 2444.59c-1.15,2.76 -42.31,-11.58 -107.9,-37 -65.59,-25.43 -155.63,-61.91 -254.55,-103.45 -98.95,-41.56 -188.06,-80.29 -252.12,-109.32 -64.08,-29.03 -103.14,-48.36 -101.97,-51.13 1.17,-2.76 42.31,11.58 107.9,36.99 65.6,25.42 155.63,61.91 254.58,103.46 98.92,41.55 188.02,80.28 252.09,109.31 64.08,29.03 103.14,48.36 101.97,51.13z"/>
   <path class="fil4" d="M2415.46 2143.69c0,11.7 -9.48,21.19 -21.19,21.19 -11.69,0 -21.18,-9.48 -21.18,-21.19 0,-11.69 9.48,-21.18 21.18,-21.18 11.7,0 21.19,9.48 21.19,21.18z"/>
   <path class="fil4" d="M2143.45 1814.96c0,11.7 -9.48,21.18 -21.18,21.18 -11.7,0 -21.19,-9.48 -21.19,-21.18 0,-11.69 9.48,-21.17 21.19,-21.17 11.69,0 21.18,9.48 21.18,21.17z"/>
   <path class="fil4" d="M1972.38 2216.3c0,11.69 -9.48,21.18 -21.19,21.18 -11.69,0 -21.17,-9.48 -21.17,-21.18 0,-11.69 9.48,-21.17 21.17,-21.17 11.71,0 21.19,9.48 21.19,21.17z"/>
   <path class="fil4" d="M1222.23 2835.69c0,11.69 -9.48,21.17 -21.18,21.17 -11.71,0 -21.18,-9.48 -21.18,-21.17 0,-11.69 9.47,-21.18 21.18,-21.18 11.69,0 21.18,9.48 21.18,21.18z"/>
   <path class="fil4" d="M893.32 2508.38c0,11.69 -9.48,21.18 -21.18,21.18 -11.7,0 -21.18,-9.48 -21.18,-21.18 0,-11.71 9.48,-21.19 21.18,-21.19 11.69,0 21.18,9.48 21.18,21.19z"/>
   <path class="fil4" d="M3564.43 2383.76c0,11.69 -9.48,21.18 -21.18,21.18 -11.7,0 -21.19,-9.48 -21.19,-21.18 0,-11.69 9.48,-21.17 21.19,-21.17 11.69,0 21.18,9.48 21.18,21.17z"/>
   <path class="fil0" d="M1815.23 580.78c0,11.7 -9.48,21.18 -21.18,21.18 -11.7,0 -21.17,-9.48 -21.17,-21.18 0,-11.69 9.47,-21.18 21.17,-21.18 11.69,0 21.18,9.48 21.18,21.18z"/>
   <path class="fil4" d="M3402.18 2866.98c0,11.7 -9.48,21.18 -21.17,21.18 -11.71,0 -21.19,-9.47 -21.19,-21.18 0,-11.69 9.48,-21.18 21.19,-21.18 11.69,0 21.17,9.48 21.17,21.18z"/>
   <path class="fil0" d="M0.16 1049.29c-0.42,-0.72 10.62,-8.19 31.95,-21.7 21.33,-13.51 52.94,-33.07 93.65,-57.95 81.42,-49.77 199.22,-120.85 343.9,-207.53l3.56 -2.13 3.91 1.64c115.39,48.35 248.47,104.11 393.19,164.74l4.67 1.96 1.21 4.98c40.2,166.17 84.32,348.58 130.48,539.35l0.01 0.05 1.88 7.79 -6.9 4.07c-167.3,98.69 -327.31,193.08 -473.72,279.44l-4.43 2.61 -4.68 -2c-144.67,-62 -276.93,-118.7 -392.15,-168.08l-3.89 -1.66 -0.95 -4.05c-38.91,-165.99 -70.14,-301.18 -91.25,-394.96 -10.55,-46.9 -18.56,-83.44 -23.75,-108.31 -5.17,-24.86 -7.51,-38.06 -6.7,-38.26 0.81,-0.2 4.73,12.62 11.43,37.12 6.7,24.51 16.18,60.69 28.1,107.26 23.85,93.12 57.51,227.73 98.34,393.26 -1.55,-1.84 -3.11,-3.67 -4.84,-5.72 115.62,48.41 248.36,103.99 393.55,164.77 -2.99,0.2 -5.99,0.4 -9.09,0.61 146.18,-86.75 305.95,-181.56 472.99,-280.69 -1.65,3.91 -3.3,7.82 -5.01,11.86l-0.02 -0.05c-45.65,-190.9 -89.29,-373.42 -129.05,-539.7 2.04,2.41 4.08,4.81 5.88,6.94 -144.19,-61.85 -276.81,-118.73 -391.79,-168.05 2.61,-0.18 5.23,-0.35 7.47,-0.5 -145.69,84.97 -264.76,153.91 -347.61,201.24 -41.43,23.67 -73.8,41.93 -95.92,54.1 -22.12,12.17 -33.99,18.25 -34.42,17.53z"/>
   <path class="fil0" d="M522.79 1755.3c-2.91,0.7 -18.42,-52.06 -41.14,-137.92 -22.72,-85.87 -52.66,-204.83 -84.43,-336.54 -5.14,-21.46 -10.2,-42.58 -15.01,-62.64 2.13,2.52 4.19,4.95 6.25,7.37 -110.78,-47.34 -208.39,-90.15 -278.05,-121.75 -69.64,-31.6 -111.33,-52 -110.26,-54.53 1.07,-2.53 44.72,13.24 115.86,41.32 71.14,28.09 169.78,68.48 280.83,115.18l4.97 2.08 1.29 5.28c4.86,20.04 9.98,41.16 15.19,62.59 31.76,131.7 59.33,251.24 78.25,338.02 18.91,86.78 29.15,140.81 26.25,141.52z"/>
   <path class="fil0" d="M392.66 1215.69c-3.05,-5.16 100.54,-72.02 231.34,-149.34 130.84,-77.34 239.34,-135.84 242.39,-130.69 3.05,5.15 -100.52,72 -231.36,149.34 -130.8,77.32 -239.31,135.83 -242.36,130.69z"/>
   <path class="fil0" d="M2757.61 919.05c-0.42,-0.72 10.62,-8.19 31.96,-21.7 21.32,-13.51 52.93,-33.07 93.64,-57.95 81.42,-49.77 199.21,-120.84 343.89,-207.52l3.56 -2.13 3.9 1.64c115.39,48.35 248.49,104.11 393.2,164.74l4.67 1.96 1.21 4.98c40.19,166.18 84.32,348.58 130.47,539.35l0.01 0.05 1.87 7.8 -6.9 4.07c-167.29,98.68 -327.31,193.07 -473.73,279.44l-4.41 2.61 -4.68 -2c-144.68,-62 -276.94,-118.7 -392.15,-168.08l-3.9 -1.66 -0.95 -4.05c-38.91,-165.99 -70.13,-301.18 -91.24,-394.96 -10.54,-46.9 -18.56,-83.43 -23.73,-108.31 -5.17,-24.86 -7.52,-38.06 -6.71,-38.26 0.81,-0.2 4.73,12.62 11.44,37.12 6.69,24.51 16.16,60.69 28.1,107.25 23.84,93.13 57.49,227.73 98.33,393.26 -1.56,-1.84 -3.12,-3.67 -4.84,-5.72 115.61,48.41 248.36,103.99 393.54,164.77 -2.99,0.2 -5.99,0.4 -9.09,0.61 146.19,-86.75 305.95,-181.56 473,-280.68 -1.65,3.91 -3.32,7.83 -5.03,11.86l-0.02 -0.04c-45.64,-190.91 -89.27,-373.42 -129.03,-539.7 2.04,2.4 4.08,4.81 5.88,6.94 -144.2,-61.85 -276.82,-118.73 -391.8,-168.05 2.61,-0.18 5.22,-0.35 7.46,-0.5 -145.68,84.96 -264.75,153.9 -347.6,201.23 -41.43,23.67 -73.79,41.94 -95.92,54.11 -22.12,12.17 -34,18.25 -34.42,17.53z"/>
   <path class="fil0" d="M3280.23 1625.05c-2.91,0.7 -18.42,-52.06 -41.14,-137.92 -22.72,-85.86 -52.66,-204.82 -84.43,-336.53 -5.14,-21.46 -10.2,-42.59 -15.01,-62.65 2.14,2.52 4.2,4.95 6.25,7.37 -110.78,-47.34 -208.38,-90.14 -278.03,-121.75 -69.64,-31.6 -111.33,-52 -110.26,-54.53 1.07,-2.53 44.72,13.24 115.86,41.33 71.13,28.08 169.77,68.47 280.82,115.17l4.97 2.08 1.29 5.28c4.86,20.05 9.98,41.16 15.19,62.6 31.77,131.7 59.35,251.24 78.26,338.02 18.91,86.78 29.15,140.81 26.24,141.51z"/>
   <path class="fil0" d="M3150.1 1085.44c-3.05,-5.16 100.54,-72.02 231.34,-149.33 130.84,-77.34 239.33,-135.84 242.38,-130.69 3.05,5.15 -100.52,72.01 -231.36,149.35 -130.8,77.31 -239.32,135.82 -242.37,130.67z"/>
   <polygon class="fil5" style="mask:url(#id0)" points="2122.28,203.11 1718.01,38.59 1236.11,327.18 1375.86,872.48 1780.5,1037.03 2262.03,748.41 "/>
   <polygon class="fil5" style="mask:url(#id2)" points="1339.78,2429.66 935.51,2265.14 453.61,2553.72 593.36,3099.03 998,3263.58 1479.53,2974.97 "/>
   <polygon class="fil5" style="mask:url(#id4)" points="3969.64,2338.19 3565.37,2173.67 3083.47,2462.25 3223.21,3007.56 3627.84,3172.12 4109.37,2883.5 "/>
   <g>
    <polygon class="fil1" points="2700.63,1601.34 2891.01,2344.29 2234.46,2737.46 2044.06,1994.51 "/>
    <polygon class="fil2" points="2234.46,2737.46 1683.68,2513.32 1493.28,1770.37 2044.06,1994.51 "/>
    <polygon class="fil3" points="2044.06,1994.51 1493.28,1770.37 2149.84,1377.2 2700.63,1601.34 "/>
    <polygon class="fil5" style="mask:url(#id6)" points="2700.63,1601.34 2149.84,1377.2 1493.28,1770.37 1683.68,2513.32 2234.98,2737.52 2891.01,2344.29 "/>
   </g>
  </g>
 </g>
</svg>
