<?xml version="1.0" encoding="UTF-8"?>
<!DOCTYPE svg PUBLIC "-//W3C//DTD SVG 1.1//EN" "http://www.w3.org/Graphics/SVG/1.1/DTD/svg11.dtd">
<!-- Creator: CorelDRAW 2019 (64-Bit) -->
<svg xmlns="http://www.w3.org/2000/svg" xml:space="preserve" width="2.87753in" height="2.17272in" version="1.1" style="shape-rendering:geometricPrecision; text-rendering:geometricPrecision; image-rendering:optimizeQuality; fill-rule:evenodd; clip-rule:evenodd"
viewBox="0 0 2877.54 2172.72"
 xmlns:xlink="http://www.w3.org/1999/xlink"
 xmlns:xodm="http://www.corel.com/coreldraw/odm/2003">
 <defs>
  <style type="text/css">
   <![CDATA[
    .str0 {stroke:#E6E7E8;stroke-width:6.94;stroke-miterlimit:2.61313}
    .fil2 {fill:none}
    .fil0 {fill:#FEFEFE}
    .fil1 {fill:#229E54}
    .fil5 {fill:#FEFEFE;fill-rule:nonzero}
    .fil4 {fill:#848688;fill-rule:nonzero}
    .fil3 {fill:#4B4B4D;fill-rule:nonzero}
   ]]>
  </style>
 </defs>
 <g id="Layer_x0020_1">
  <metadata id="CorelCorpID_0Corel-Layer"/>
  <g id="_2161869331728">
   <rect class="fil0" x="-0" width="2877.54" height="2172.72" rx="56.42" ry="54.76"/>
   <rect class="fil1" x="108.56" y="1728.27" width="2562.52" height="243.06" rx="45.57" ry="45.57"/>
   <rect class="fil2 str0" x="108.56" y="1019.93" width="2562.52" height="243.06" rx="45.57" ry="45.57"/>
   <rect class="fil2 str0" x="108.56" y="490.42" width="2562.52" height="243.06" rx="45.57" ry="45.57"/>
   <path class="fil1" d="M2410.7 490.42l214.82 0c25.06,0 45.57,20.5 45.57,45.57l0 151.92c0,25.06 -20.5,45.57 -45.57,45.57l-214.82 0 0 -243.06z"/>
   <path class="fil3" d="M182.28 929.28l-25.22 0 -4.97 11.67 -9.66 0 22.7 -50.44 9.22 0 22.77 50.44 -9.8 0 -5.04 -11.67zm-3.1 -7.35l-9.51 -22.05 -9.44 22.05 18.95 0z"/>
   <path id="1" class="fil3" d="M251.24 902.04c4.85,0 8.7,1.41 11.53,4.22 2.83,2.81 4.25,7.03 4.25,12.65l0 22.05 -9 0 0 -20.9c0,-3.36 -0.75,-5.9 -2.24,-7.6 -1.49,-1.7 -3.63,-2.56 -6.41,-2.56 -3.03,0 -5.45,1 -7.28,2.99 -1.83,1.99 -2.74,4.84 -2.74,8.54l0 19.53 -9.01 0 0 -20.9c0,-3.36 -0.74,-5.9 -2.23,-7.6 -1.49,-1.7 -3.63,-2.56 -6.41,-2.56 -3.07,0 -5.51,0.99 -7.31,2.96 -1.8,1.97 -2.7,4.83 -2.7,8.57l0 19.53 -9.01 0 0 -38.48 8.57 0 0 4.9c1.44,-1.73 3.24,-3.05 5.41,-3.96 2.16,-0.91 4.56,-1.37 7.2,-1.37 2.88,0 5.44,0.54 7.67,1.62 2.24,1.08 4,2.68 5.3,4.79 1.59,-2.02 3.63,-3.59 6.13,-4.72 2.5,-1.13 5.26,-1.7 8.29,-1.7z"/>
   <path id="2" class="fil3" d="M296.21 941.45c-3.89,0 -7.4,-0.84 -10.52,-2.52 -3.12,-1.69 -5.56,-4.02 -7.31,-7.03 -1.76,-3 -2.63,-6.4 -2.63,-10.2 0,-3.8 0.87,-7.18 2.63,-10.16 1.75,-2.98 4.19,-5.31 7.31,-6.99 3.12,-1.68 6.63,-2.52 10.52,-2.52 3.94,0 7.47,0.84 10.59,2.52 3.12,1.68 5.56,4.01 7.31,6.99 1.75,2.98 2.63,6.37 2.63,10.16 0,3.8 -0.88,7.19 -2.63,10.2 -1.76,3 -4.19,5.34 -7.31,7.03 -3.12,1.68 -6.65,2.52 -10.59,2.52zm0 -7.71c3.31,0 6.05,-1.11 8.21,-3.31 2.16,-2.21 3.24,-5.12 3.24,-8.72 0,-3.6 -1.08,-6.51 -3.24,-8.72 -2.16,-2.21 -4.9,-3.31 -8.21,-3.31 -3.31,0 -6.04,1.11 -8.18,3.31 -2.14,2.21 -3.2,5.12 -3.2,8.72 0,3.6 1.07,6.51 3.2,8.72 2.14,2.21 4.87,3.31 8.18,3.31z"/>
   <path id="3" class="fil3" d="M362.65 902.47l0 38.48 -8.57 0 0 -4.9c-1.44,1.73 -3.24,3.06 -5.4,4 -2.16,0.94 -4.49,1.41 -6.99,1.41 -5.14,0 -9.19,-1.43 -12.14,-4.29 -2.95,-2.86 -4.43,-7.1 -4.43,-12.72l0 -21.98 9.01 0 0 20.75c0,3.46 0.78,6.04 2.34,7.75 1.56,1.7 3.78,2.56 6.67,2.56 3.22,0 5.78,-1 7.68,-2.99 1.9,-1.99 2.85,-4.86 2.85,-8.61l0 -19.46 9 0z"/>
   <path id="4" class="fil3" d="M396.3 902.04c4.85,0 8.74,1.42 11.67,4.25 2.93,2.83 4.39,7.04 4.39,12.61l0 22.05 -9.01 0 0 -20.9c0,-3.36 -0.79,-5.9 -2.38,-7.6 -1.58,-1.7 -3.84,-2.56 -6.77,-2.56 -3.31,0 -5.93,1 -7.85,2.99 -1.92,1.99 -2.88,4.86 -2.88,8.61l0 19.46 -9.01 0 0 -38.48 8.57 0 0 4.97c1.49,-1.78 3.36,-3.12 5.62,-4.04 2.26,-0.91 4.8,-1.37 7.64,-1.37z"/>
   <path id="5" class="fil3" d="M446.96 938.86c-1.06,0.87 -2.34,1.52 -3.85,1.94 -1.51,0.43 -3.11,0.65 -4.79,0.65 -4.23,0 -7.5,-1.11 -9.8,-3.31 -2.31,-2.21 -3.46,-5.43 -3.46,-9.65l0 -18.52 -6.34 0 0 -7.21 6.34 0 0 -8.79 9.01 0 0 8.79 10.3 0 0 7.21 -10.3 0 0 18.3c0,1.87 0.46,3.3 1.37,4.29 0.91,0.98 2.23,1.48 3.96,1.48 2.02,0 3.7,-0.53 5.05,-1.59l2.52 6.41z"/>
   <polygon class="fil3" points="195.69,366.42 173.71,416.86 164.48,416.86 142.43,366.42 152.59,366.42 169.39,405.34 186.32,366.42 "/>
   <path id="1" class="fil3" d="M211.97 377.95c5.67,0 10,1.36 13,4.07 3,2.72 4.5,6.81 4.5,12.29l0 22.56 -8.5 0 0 -4.69c-1.11,1.68 -2.68,2.97 -4.72,3.86 -2.04,0.89 -4.5,1.33 -7.39,1.33 -2.88,0 -5.41,-0.49 -7.57,-1.48 -2.16,-0.98 -3.83,-2.35 -5.01,-4.11 -1.18,-1.76 -1.77,-3.74 -1.77,-5.94 0,-3.46 1.29,-6.24 3.86,-8.32 2.57,-2.09 6.61,-3.14 12.14,-3.14l9.94 0 0 -0.57c0,-2.69 -0.8,-4.76 -2.41,-6.2 -1.61,-1.44 -4,-2.16 -7.17,-2.16 -2.16,0 -4.29,0.33 -6.38,1.01 -2.09,0.67 -3.85,1.61 -5.3,2.81l-3.53 -6.56c2.02,-1.54 4.44,-2.71 7.28,-3.53 2.83,-0.82 5.83,-1.23 9.01,-1.23zm-1.22 32.86c2.26,0 4.26,-0.52 6.02,-1.55 1.75,-1.03 2.99,-2.51 3.71,-4.43l0 -4.46 -9.3 0c-5.19,0 -7.78,1.7 -7.78,5.11 0,1.63 0.65,2.93 1.94,3.89 1.3,0.96 3.1,1.44 5.41,1.44z"/>
   <polygon id="2" class="fil3" points="241.01,363.39 250.02,363.39 250.02,416.86 241.01,416.86 "/>
   <path id="3" class="fil3" d="M261.84 378.38l9.01 0 0 38.48 -9.01 0 0 -38.48zm4.54 -6.34c-1.63,0 -3,-0.52 -4.11,-1.55 -1.11,-1.03 -1.66,-2.32 -1.66,-3.85 0,-1.54 0.55,-2.82 1.66,-3.85 1.1,-1.04 2.47,-1.55 4.11,-1.55 1.63,0 3,0.49 4.11,1.48 1.11,0.98 1.66,2.22 1.66,3.71 0,1.59 -0.54,2.92 -1.62,4 -1.08,1.08 -2.46,1.62 -4.14,1.62z"/>
   <path id="4" class="fil3" d="M320.35 363.39l0 53.47 -8.65 0 0 -4.97c-1.49,1.83 -3.33,3.2 -5.51,4.11 -2.19,0.91 -4.6,1.37 -7.24,1.37 -3.7,0 -7.02,-0.81 -9.98,-2.45 -2.95,-1.63 -5.27,-3.95 -6.95,-6.95 -1.68,-3 -2.52,-6.45 -2.52,-10.34 0,-3.89 0.84,-7.33 2.52,-10.3 1.68,-2.98 4,-5.28 6.95,-6.92 2.96,-1.63 6.28,-2.45 9.98,-2.45 2.55,0 4.88,0.43 6.99,1.3 2.11,0.86 3.91,2.16 5.4,3.89l0 -19.74 9.01 0zm-20.32 46.26c2.16,0 4.11,-0.49 5.83,-1.48 1.73,-0.98 3.1,-2.39 4.11,-4.21 1.01,-1.83 1.51,-3.94 1.51,-6.34 0,-2.4 -0.5,-4.52 -1.51,-6.34 -1.01,-1.82 -2.38,-3.23 -4.11,-4.21 -1.73,-0.98 -3.67,-1.48 -5.83,-1.48 -2.16,0 -4.11,0.5 -5.84,1.48 -1.73,0.98 -3.1,2.39 -4.11,4.21 -1.01,1.83 -1.51,3.94 -1.51,6.34 0,2.4 0.5,4.52 1.51,6.34 1.01,1.82 2.38,3.23 4.11,4.21 1.73,0.99 3.68,1.48 5.84,1.48z"/>
   <path id="5" class="fil3" d="M346.87 377.95c5.67,0 10,1.36 13,4.07 3,2.72 4.5,6.81 4.5,12.29l0 22.56 -8.5 0 0 -4.69c-1.11,1.68 -2.68,2.97 -4.72,3.86 -2.04,0.89 -4.5,1.33 -7.39,1.33 -2.88,0 -5.41,-0.49 -7.57,-1.48 -2.16,-0.98 -3.83,-2.35 -5.01,-4.11 -1.18,-1.76 -1.77,-3.74 -1.77,-5.94 0,-3.46 1.29,-6.24 3.86,-8.32 2.57,-2.09 6.61,-3.14 12.14,-3.14l9.94 0 0 -0.57c0,-2.69 -0.8,-4.76 -2.41,-6.2 -1.61,-1.44 -4,-2.16 -7.17,-2.16 -2.16,0 -4.29,0.33 -6.38,1.01 -2.09,0.67 -3.85,1.61 -5.3,2.81l-3.53 -6.56c2.02,-1.54 4.44,-2.71 7.28,-3.53 2.83,-0.82 5.83,-1.23 9.01,-1.23zm-1.22 32.86c2.26,0 4.26,-0.52 6.02,-1.55 1.75,-1.03 2.99,-2.51 3.71,-4.43l0 -4.46 -9.3 0c-5.19,0 -7.78,1.7 -7.78,5.11 0,1.63 0.65,2.93 1.94,3.89 1.3,0.96 3.1,1.44 5.41,1.44z"/>
   <path id="6" class="fil3" d="M399.04 414.77c-1.06,0.87 -2.34,1.52 -3.85,1.94 -1.51,0.43 -3.11,0.65 -4.79,0.65 -4.23,0 -7.5,-1.11 -9.8,-3.31 -2.31,-2.21 -3.46,-5.43 -3.46,-9.65l0 -18.52 -6.34 0 0 -7.21 6.34 0 0 -8.79 9.01 0 0 8.79 10.3 0 0 7.21 -10.3 0 0 18.3c0,1.87 0.46,3.3 1.37,4.29 0.91,0.98 2.23,1.48 3.96,1.48 2.02,0 3.7,-0.53 5.05,-1.59l2.52 6.41z"/>
   <path id="7" class="fil3" d="M422.46 417.37c-3.89,0 -7.4,-0.84 -10.52,-2.52 -3.12,-1.69 -5.56,-4.02 -7.31,-7.03 -1.76,-3 -2.63,-6.4 -2.63,-10.2 0,-3.8 0.87,-7.18 2.63,-10.16 1.75,-2.98 4.19,-5.31 7.31,-6.99 3.12,-1.68 6.63,-2.52 10.52,-2.52 3.94,0 7.47,0.84 10.59,2.52 3.12,1.68 5.56,4.01 7.31,6.99 1.75,2.98 2.63,6.37 2.63,10.16 0,3.8 -0.88,7.19 -2.63,10.2 -1.76,3 -4.19,5.34 -7.31,7.03 -3.12,1.68 -6.65,2.52 -10.59,2.52zm0 -7.71c3.31,0 6.05,-1.11 8.21,-3.31 2.16,-2.21 3.24,-5.12 3.24,-8.72 0,-3.6 -1.08,-6.51 -3.24,-8.72 -2.16,-2.21 -4.9,-3.31 -8.21,-3.31 -3.31,0 -6.04,1.11 -8.18,3.31 -2.14,2.21 -3.2,5.12 -3.2,8.72 0,3.6 1.07,6.51 3.2,8.72 2.14,2.21 4.87,3.31 8.18,3.31z"/>
   <path id="8" class="fil3" d="M460.22 384c2.59,-4.04 7.16,-6.06 13.69,-6.06l0 8.57c-0.77,-0.14 -1.46,-0.21 -2.09,-0.21 -3.51,0 -6.25,1.02 -8.22,3.06 -1.97,2.04 -2.95,4.98 -2.95,8.83l0 18.66 -9.01 0 0 -38.48 8.57 0 0 5.62z"/>
   <path id="9" class="fil3" d="M516.5 377.95c5.67,0 10,1.36 13,4.07 3,2.72 4.5,6.81 4.5,12.29l0 22.56 -8.5 0 0 -4.69c-1.11,1.68 -2.68,2.97 -4.72,3.86 -2.04,0.89 -4.5,1.33 -7.39,1.33 -2.88,0 -5.41,-0.49 -7.57,-1.48 -2.16,-0.98 -3.83,-2.35 -5.01,-4.11 -1.18,-1.76 -1.77,-3.74 -1.77,-5.94 0,-3.46 1.29,-6.24 3.86,-8.32 2.57,-2.09 6.61,-3.14 12.14,-3.14l9.94 0 0 -0.57c0,-2.69 -0.8,-4.76 -2.41,-6.2 -1.61,-1.44 -4,-2.16 -7.17,-2.16 -2.16,0 -4.29,0.33 -6.38,1.01 -2.09,0.67 -3.85,1.61 -5.3,2.81l-3.53 -6.56c2.02,-1.54 4.44,-2.71 7.28,-3.53 2.83,-0.82 5.83,-1.23 9.01,-1.23zm-1.22 32.86c2.26,0 4.26,-0.52 6.02,-1.55 1.75,-1.03 2.99,-2.51 3.71,-4.43l0 -4.46 -9.3 0c-5.19,0 -7.78,1.7 -7.78,5.11 0,1.63 0.65,2.93 1.94,3.89 1.3,0.96 3.1,1.44 5.41,1.44z"/>
   <path id="10" class="fil3" d="M583.58 363.39l0 53.47 -8.65 0 0 -4.97c-1.49,1.83 -3.33,3.2 -5.51,4.11 -2.19,0.91 -4.6,1.37 -7.24,1.37 -3.7,0 -7.02,-0.81 -9.98,-2.45 -2.95,-1.63 -5.27,-3.95 -6.95,-6.95 -1.68,-3 -2.52,-6.45 -2.52,-10.34 0,-3.89 0.84,-7.33 2.52,-10.3 1.68,-2.98 4,-5.28 6.95,-6.92 2.96,-1.63 6.28,-2.45 9.98,-2.45 2.55,0 4.88,0.43 6.99,1.3 2.11,0.86 3.91,2.16 5.4,3.89l0 -19.74 9.01 0zm-20.32 46.26c2.16,0 4.11,-0.49 5.83,-1.48 1.73,-0.98 3.1,-2.39 4.11,-4.21 1.01,-1.83 1.51,-3.94 1.51,-6.34 0,-2.4 -0.5,-4.52 -1.51,-6.34 -1.01,-1.82 -2.38,-3.23 -4.11,-4.21 -1.73,-0.98 -3.67,-1.48 -5.83,-1.48 -2.16,0 -4.11,0.5 -5.84,1.48 -1.73,0.98 -3.1,2.39 -4.11,4.21 -1.01,1.83 -1.51,3.94 -1.51,6.34 0,2.4 0.5,4.52 1.51,6.34 1.01,1.82 2.38,3.23 4.11,4.21 1.73,0.99 3.68,1.48 5.84,1.48z"/>
   <path id="11" class="fil3" d="M633.08 363.39l0 53.47 -8.65 0 0 -4.97c-1.49,1.83 -3.33,3.2 -5.51,4.11 -2.19,0.91 -4.6,1.37 -7.24,1.37 -3.7,0 -7.02,-0.81 -9.98,-2.45 -2.95,-1.63 -5.27,-3.95 -6.95,-6.95 -1.68,-3 -2.52,-6.45 -2.52,-10.34 0,-3.89 0.84,-7.33 2.52,-10.3 1.68,-2.98 4,-5.28 6.95,-6.92 2.96,-1.63 6.28,-2.45 9.98,-2.45 2.55,0 4.88,0.43 6.99,1.3 2.11,0.86 3.91,2.16 5.4,3.89l0 -19.74 9.01 0zm-20.32 46.26c2.16,0 4.11,-0.49 5.83,-1.48 1.73,-0.98 3.1,-2.39 4.11,-4.21 1.01,-1.83 1.51,-3.94 1.51,-6.34 0,-2.4 -0.5,-4.52 -1.51,-6.34 -1.01,-1.82 -2.38,-3.23 -4.11,-4.21 -1.73,-0.98 -3.67,-1.48 -5.83,-1.48 -2.16,0 -4.11,0.5 -5.84,1.48 -1.73,0.98 -3.1,2.39 -4.11,4.21 -1.01,1.83 -1.51,3.94 -1.51,6.34 0,2.4 0.5,4.52 1.51,6.34 1.01,1.82 2.38,3.23 4.11,4.21 1.73,0.99 3.68,1.48 5.84,1.48z"/>
   <path id="12" class="fil3" d="M653.48 384c2.59,-4.04 7.16,-6.06 13.69,-6.06l0 8.57c-0.77,-0.14 -1.46,-0.21 -2.09,-0.21 -3.51,0 -6.25,1.02 -8.22,3.06 -1.97,2.04 -2.95,4.98 -2.95,8.83l0 18.66 -9.01 0 0 -38.48 8.57 0 0 5.62z"/>
   <path id="13" class="fil3" d="M710.62 397.84c0,0.63 -0.05,1.51 -0.15,2.67l-30.19 0c0.53,2.83 1.91,5.08 4.15,6.74 2.23,1.66 5.01,2.48 8.32,2.48 4.23,0 7.71,-1.39 10.45,-4.18l4.83 5.55c-1.73,2.06 -3.91,3.63 -6.56,4.68 -2.64,1.06 -5.62,1.59 -8.93,1.59 -4.23,0 -7.95,-0.84 -11.17,-2.52 -3.22,-1.69 -5.7,-4.02 -7.46,-7.03 -1.76,-3 -2.63,-6.4 -2.63,-10.2 0,-3.75 0.85,-7.12 2.56,-10.12 1.7,-3 4.07,-5.35 7.1,-7.03 3.03,-1.68 6.44,-2.52 10.23,-2.52 3.75,0 7.1,0.83 10.05,2.49 2.96,1.66 5.26,3.99 6.92,6.99 1.66,3 2.49,6.47 2.49,10.41zm-19.46 -12.68c-2.88,0 -5.32,0.85 -7.31,2.56 -1.99,1.71 -3.2,3.98 -3.64,6.81l21.83 0c-0.39,-2.79 -1.56,-5.04 -3.53,-6.77 -1.97,-1.73 -4.42,-2.59 -7.35,-2.59z"/>
   <path id="14" class="fil3" d="M731.15 417.37c-3.12,0 -6.17,-0.41 -9.15,-1.22 -2.98,-0.81 -5.35,-1.85 -7.13,-3.1l3.46 -6.85c1.73,1.15 3.81,2.08 6.23,2.78 2.43,0.7 4.81,1.04 7.17,1.04 5.38,0 8.07,-1.42 8.07,-4.25 0,-1.34 -0.69,-2.28 -2.05,-2.81 -1.37,-0.53 -3.57,-1.04 -6.59,-1.52 -3.17,-0.48 -5.75,-1.03 -7.75,-1.66 -1.99,-0.62 -3.72,-1.72 -5.19,-3.28 -1.46,-1.56 -2.2,-3.73 -2.2,-6.52 0,-3.65 1.53,-6.57 4.57,-8.76 3.05,-2.19 7.17,-3.28 12.36,-3.28 2.65,0 5.29,0.3 7.93,0.9 2.64,0.6 4.8,1.41 6.48,2.41l-3.46 6.85c-3.26,-1.92 -6.94,-2.88 -11.02,-2.88 -2.64,0 -4.65,0.4 -6.02,1.19 -1.37,0.79 -2.06,1.84 -2.06,3.13 0,1.44 0.73,2.46 2.2,3.06 1.47,0.6 3.74,1.17 6.81,1.69 3.07,0.48 5.6,1.04 7.57,1.66 1.97,0.63 3.66,1.68 5.08,3.17 1.42,1.49 2.13,3.61 2.13,6.34 0,3.6 -1.56,6.48 -4.69,8.65 -3.12,2.17 -7.37,3.24 -12.75,3.24z"/>
   <path id="15" class="fil3" d="M768.26 417.37c-3.12,0 -6.17,-0.41 -9.15,-1.22 -2.98,-0.81 -5.35,-1.85 -7.13,-3.1l3.46 -6.85c1.73,1.15 3.81,2.08 6.23,2.78 2.43,0.7 4.81,1.04 7.17,1.04 5.38,0 8.07,-1.42 8.07,-4.25 0,-1.34 -0.69,-2.28 -2.05,-2.81 -1.37,-0.53 -3.57,-1.04 -6.59,-1.52 -3.17,-0.48 -5.75,-1.03 -7.75,-1.66 -1.99,-0.62 -3.72,-1.72 -5.19,-3.28 -1.46,-1.56 -2.2,-3.73 -2.2,-6.52 0,-3.65 1.53,-6.57 4.57,-8.76 3.05,-2.19 7.17,-3.28 12.36,-3.28 2.65,0 5.29,0.3 7.93,0.9 2.64,0.6 4.8,1.41 6.48,2.41l-3.46 6.85c-3.26,-1.92 -6.94,-2.88 -11.02,-2.88 -2.64,0 -4.65,0.4 -6.02,1.19 -1.37,0.79 -2.06,1.84 -2.06,3.13 0,1.44 0.73,2.46 2.2,3.06 1.47,0.6 3.74,1.17 6.81,1.69 3.07,0.48 5.6,1.04 7.57,1.66 1.97,0.63 3.66,1.68 5.08,3.17 1.42,1.49 2.13,3.61 2.13,6.34 0,3.6 -1.56,6.48 -4.69,8.65 -3.12,2.17 -7.37,3.24 -12.75,3.24z"/>
   <path class="fil3" d="M155.37 1346.71l-25.22 0 -4.97 11.67 -9.66 0 22.7 -50.44 9.22 0 22.77 50.44 -9.8 0 -5.04 -11.67zm-3.1 -7.35l-9.51 -22.05 -9.44 22.05 18.95 0z"/>
   <polygon id="1" class="fil3" points="209.85,1319.91 193.35,1358.39 184.06,1358.39 167.55,1319.91 176.92,1319.91 188.88,1348.44 201.2,1319.91 "/>
   <path id="2" class="fil3" d="M228.95 1319.47c5.67,0 10,1.36 13,4.07 3,2.72 4.5,6.81 4.5,12.29l0 22.56 -8.5 0 0 -4.69c-1.11,1.68 -2.68,2.97 -4.72,3.86 -2.04,0.89 -4.5,1.33 -7.39,1.33 -2.88,0 -5.41,-0.49 -7.57,-1.48 -2.16,-0.98 -3.83,-2.35 -5.01,-4.11 -1.18,-1.76 -1.77,-3.74 -1.77,-5.94 0,-3.46 1.29,-6.24 3.86,-8.32 2.57,-2.09 6.61,-3.14 12.14,-3.14l9.94 0 0 -0.57c0,-2.69 -0.8,-4.76 -2.41,-6.2 -1.61,-1.44 -4,-2.16 -7.17,-2.16 -2.16,0 -4.29,0.33 -6.38,1.01 -2.09,0.67 -3.85,1.61 -5.3,2.81l-3.53 -6.56c2.02,-1.54 4.44,-2.71 7.28,-3.53 2.83,-0.82 5.83,-1.23 9.01,-1.23zm-1.22 32.86c2.26,0 4.26,-0.52 6.02,-1.55 1.75,-1.03 2.99,-2.51 3.71,-4.43l0 -4.46 -9.3 0c-5.19,0 -7.78,1.7 -7.78,5.11 0,1.63 0.65,2.93 1.94,3.89 1.3,0.96 3.1,1.44 5.41,1.44z"/>
   <path id="3" class="fil3" d="M257.99 1319.91l9.01 0 0 38.48 -9.01 0 0 -38.48zm4.54 -6.34c-1.63,0 -3,-0.52 -4.11,-1.55 -1.11,-1.03 -1.66,-2.32 -1.66,-3.85 0,-1.54 0.55,-2.82 1.66,-3.85 1.1,-1.04 2.47,-1.55 4.11,-1.55 1.63,0 3,0.49 4.11,1.48 1.11,0.98 1.66,2.22 1.66,3.71 0,1.59 -0.54,2.92 -1.62,4 -1.08,1.08 -2.46,1.62 -4.14,1.62z"/>
   <polygon id="4" class="fil3" points="278.82,1304.92 287.82,1304.92 287.82,1358.39 278.82,1358.39 "/>
   <path id="5" class="fil3" d="M314.34 1319.47c5.67,0 10,1.36 13,4.07 3,2.72 4.5,6.81 4.5,12.29l0 22.56 -8.5 0 0 -4.69c-1.11,1.68 -2.68,2.97 -4.72,3.86 -2.04,0.89 -4.5,1.33 -7.39,1.33 -2.88,0 -5.41,-0.49 -7.57,-1.48 -2.16,-0.98 -3.83,-2.35 -5.01,-4.11 -1.18,-1.76 -1.77,-3.74 -1.77,-5.94 0,-3.46 1.29,-6.24 3.86,-8.32 2.57,-2.09 6.61,-3.14 12.14,-3.14l9.94 0 0 -0.57c0,-2.69 -0.8,-4.76 -2.41,-6.2 -1.61,-1.44 -4,-2.16 -7.17,-2.16 -2.16,0 -4.29,0.33 -6.38,1.01 -2.09,0.67 -3.85,1.61 -5.3,2.81l-3.53 -6.56c2.02,-1.54 4.44,-2.71 7.28,-3.53 2.83,-0.82 5.83,-1.23 9.01,-1.23zm-1.22 32.86c2.26,0 4.26,-0.52 6.02,-1.55 1.75,-1.03 2.99,-2.51 3.71,-4.43l0 -4.46 -9.3 0c-5.19,0 -7.78,1.7 -7.78,5.11 0,1.63 0.65,2.93 1.94,3.89 1.3,0.96 3.1,1.44 5.41,1.44z"/>
   <path id="6" class="fil3" d="M364.71 1319.47c3.74,0 7.09,0.82 10.05,2.45 2.95,1.63 5.27,3.94 6.95,6.92 1.68,2.98 2.52,6.41 2.52,10.3 0,3.89 -0.84,7.34 -2.52,10.34 -1.68,3 -4,5.32 -6.95,6.95 -2.96,1.63 -6.31,2.45 -10.05,2.45 -2.65,0 -5.06,-0.46 -7.24,-1.37 -2.19,-0.91 -4.02,-2.28 -5.51,-4.11l0 4.97 -8.57 0 0 -53.47 9.01 0 0 19.67c1.54,-1.68 3.35,-2.96 5.44,-3.82 2.09,-0.87 4.38,-1.3 6.88,-1.3zm-1.01 31.71c3.31,0 6.04,-1.11 8.18,-3.31 2.14,-2.21 3.2,-5.12 3.2,-8.72 0,-3.6 -1.07,-6.51 -3.2,-8.72 -2.14,-2.21 -4.87,-3.31 -8.18,-3.31 -2.16,0 -4.11,0.5 -5.83,1.48 -1.73,0.98 -3.1,2.39 -4.11,4.21 -1.01,1.83 -1.51,3.94 -1.51,6.34 0,2.4 0.5,4.52 1.51,6.34 1.01,1.82 2.38,3.23 4.11,4.21 1.73,0.99 3.67,1.48 5.83,1.48z"/>
   <polygon id="7" class="fil3" points="392.82,1304.92 401.82,1304.92 401.82,1358.39 392.82,1358.39 "/>
   <path id="8" class="fil3" d="M449.82 1339.36c0,0.63 -0.05,1.51 -0.15,2.67l-30.19 0c0.53,2.83 1.91,5.08 4.15,6.74 2.23,1.66 5.01,2.48 8.32,2.48 4.23,0 7.71,-1.39 10.45,-4.18l4.83 5.55c-1.73,2.06 -3.91,3.63 -6.56,4.68 -2.64,1.06 -5.62,1.59 -8.93,1.59 -4.23,0 -7.95,-0.84 -11.17,-2.52 -3.22,-1.69 -5.7,-4.02 -7.46,-7.03 -1.76,-3 -2.63,-6.4 -2.63,-10.2 0,-3.75 0.85,-7.12 2.56,-10.12 1.7,-3 4.07,-5.35 7.1,-7.03 3.03,-1.68 6.44,-2.52 10.23,-2.52 3.75,0 7.1,0.83 10.05,2.49 2.96,1.66 5.26,3.99 6.92,6.99 1.66,3 2.49,6.47 2.49,10.41zm-19.46 -12.68c-2.88,0 -5.32,0.85 -7.31,2.56 -1.99,1.71 -3.2,3.98 -3.64,6.81l21.83 0c-0.39,-2.79 -1.56,-5.04 -3.53,-6.77 -1.97,-1.73 -4.42,-2.59 -7.35,-2.59z"/>
   <path class="fil3" d="M218.96 1146.47l0 7.93 -37.18 0 0 -6.27 20.03 -19.02c2.26,-2.16 3.78,-4.05 4.57,-5.66 0.79,-1.61 1.19,-3.21 1.19,-4.79 0,-2.35 -0.79,-4.16 -2.38,-5.41 -1.59,-1.25 -3.91,-1.87 -6.99,-1.87 -5.14,0 -9.08,1.75 -11.82,5.26l-6.56 -5.04c1.97,-2.64 4.63,-4.7 7.96,-6.16 3.34,-1.46 7.07,-2.2 11.2,-2.2 5.48,0 9.85,1.3 13.11,3.89 3.27,2.59 4.9,6.13 4.9,10.59 0,2.74 -0.58,5.31 -1.73,7.71 -1.15,2.4 -3.36,5.14 -6.63,8.22l-13.48 12.83 23.78 0z"/>
   <path id="1" class="fil3" d="M245.19 1155.11c-4.04,0 -7.64,-1.02 -10.81,-3.06 -3.17,-2.04 -5.67,-5.02 -7.49,-8.93 -1.83,-3.92 -2.74,-8.56 -2.74,-13.94 0,-5.38 0.91,-10.03 2.74,-13.94 1.83,-3.91 4.32,-6.89 7.49,-8.93 3.17,-2.04 6.78,-3.06 10.81,-3.06 4.04,0 7.65,1.02 10.84,3.06 3.2,2.04 5.7,5.02 7.53,8.93 1.83,3.92 2.74,8.56 2.74,13.94 0,5.38 -0.91,10.03 -2.74,13.94 -1.83,3.91 -4.33,6.89 -7.53,8.93 -3.19,2.04 -6.81,3.06 -10.84,3.06zm0 -8.14c3.6,0 6.45,-1.49 8.54,-4.47 2.09,-2.98 3.13,-7.42 3.13,-13.33 0,-5.91 -1.04,-10.35 -3.13,-13.33 -2.09,-2.98 -4.94,-4.47 -8.54,-4.47 -3.56,0 -6.38,1.49 -8.47,4.47 -2.09,2.98 -3.13,7.42 -3.13,13.33 0,5.91 1.04,10.35 3.13,13.33 2.09,2.98 4.91,4.47 8.47,4.47z"/>
   <path id="2" class="fil3" d="M293.68 1155.11c-4.04,0 -7.64,-1.02 -10.81,-3.06 -3.17,-2.04 -5.67,-5.02 -7.49,-8.93 -1.83,-3.92 -2.74,-8.56 -2.74,-13.94 0,-5.38 0.91,-10.03 2.74,-13.94 1.83,-3.91 4.32,-6.89 7.49,-8.93 3.17,-2.04 6.78,-3.06 10.81,-3.06 4.04,0 7.65,1.02 10.84,3.06 3.2,2.04 5.7,5.02 7.53,8.93 1.83,3.92 2.74,8.56 2.74,13.94 0,5.38 -0.91,10.03 -2.74,13.94 -1.83,3.91 -4.33,6.89 -7.53,8.93 -3.19,2.04 -6.81,3.06 -10.84,3.06zm0 -8.14c3.6,0 6.45,-1.49 8.54,-4.47 2.09,-2.98 3.13,-7.42 3.13,-13.33 0,-5.91 -1.04,-10.35 -3.13,-13.33 -2.09,-2.98 -4.94,-4.47 -8.54,-4.47 -3.56,0 -6.38,1.49 -8.47,4.47 -2.09,2.98 -3.13,7.42 -3.13,13.33 0,5.91 1.04,10.35 3.13,13.33 2.09,2.98 4.91,4.47 8.47,4.47z"/>
   <polygon class="fil3" points="2307.04,1345.3 2298.11,1345.3 2298.11,1356.75 2289.03,1356.75 2289.03,1345.3 2261.35,1345.3 2261.35,1338.81 2286.22,1306.31 2296.23,1306.31 2272.81,1337.37 2289.31,1337.37 2289.31,1327.21 2298.11,1327.21 2298.11,1337.37 2307.04,1337.37 "/>
   <polygon id="1" class="fil3" points="2326.64,1306.31 2326.64,1356.75 2317.27,1356.75 2317.27,1314.17 2306.61,1314.17 2306.61,1306.31 "/>
   <path id="2" class="fil3" d="M2342.27 1357.26c-1.63,0 -3.03,-0.56 -4.18,-1.69 -1.15,-1.13 -1.73,-2.56 -1.73,-4.29 0,-1.78 0.56,-3.22 1.69,-4.32 1.13,-1.11 2.54,-1.66 4.22,-1.66 1.68,0 3.09,0.55 4.22,1.66 1.13,1.1 1.69,2.54 1.69,4.32 0,1.73 -0.58,3.16 -1.73,4.29 -1.15,1.13 -2.55,1.69 -4.18,1.69z"/>
   <path id="3" class="fil3" d="M2376.43 1327.14c4.66,0.58 8.21,2.17 10.66,4.76 2.45,2.59 3.68,5.84 3.68,9.73 0,2.93 -0.74,5.6 -2.23,8 -1.49,2.4 -3.74,4.31 -6.74,5.73 -3,1.42 -6.67,2.13 -10.99,2.13 -3.6,0 -7.07,-0.52 -10.41,-1.55 -3.34,-1.04 -6.19,-2.46 -8.54,-4.29l4.04 -7.28c1.83,1.54 4.05,2.75 6.67,3.64 2.62,0.89 5.32,1.33 8.11,1.33 3.31,0 5.92,-0.69 7.82,-2.06 1.9,-1.37 2.85,-3.23 2.85,-5.58 0,-2.35 -0.9,-4.19 -2.7,-5.52 -1.8,-1.32 -4.55,-1.98 -8.25,-1.98l-4.61 0 0 -6.41 11.46 -13.62 -22.91 0 0 -7.85 34.37 0 0 6.27 -12.25 14.56z"/>
   <path id="4" class="fil3" d="M2411.96 1325.84c7.11,0 12.37,1.38 15.78,4.14 3.41,2.76 5.12,6.52 5.12,11.28 0,3.03 -0.75,5.76 -2.24,8.21 -1.49,2.45 -3.72,4.4 -6.7,5.84 -2.98,1.44 -6.65,2.16 -11.02,2.16 -3.61,0 -7.09,-0.52 -10.45,-1.55 -3.36,-1.04 -6.2,-2.46 -8.5,-4.29l3.96 -7.28c1.87,1.54 4.12,2.75 6.74,3.64 2.62,0.89 5.32,1.33 8.11,1.33 3.31,0 5.92,-0.69 7.82,-2.06 1.9,-1.37 2.85,-3.26 2.85,-5.66 0,-2.59 -1.02,-4.55 -3.06,-5.87 -2.04,-1.32 -5.54,-1.98 -10.48,-1.98l-12.18 0 2.59 -27.45 29.61 0 0 7.85 -21.69 0 -1.08 11.67 4.83 0z"/>
   <path id="5" class="fil3" d="M2459.37 1327.14c4.66,0.58 8.21,2.17 10.66,4.76 2.45,2.59 3.68,5.84 3.68,9.73 0,2.93 -0.74,5.6 -2.23,8 -1.49,2.4 -3.74,4.31 -6.74,5.73 -3,1.42 -6.67,2.13 -10.99,2.13 -3.6,0 -7.07,-0.52 -10.41,-1.55 -3.34,-1.04 -6.19,-2.46 -8.54,-4.29l4.04 -7.28c1.83,1.54 4.05,2.75 6.67,3.64 2.62,0.89 5.32,1.33 8.11,1.33 3.31,0 5.92,-0.69 7.82,-2.06 1.9,-1.37 2.85,-3.23 2.85,-5.58 0,-2.35 -0.9,-4.19 -2.7,-5.52 -1.8,-1.32 -4.55,-1.98 -8.25,-1.98l-4.61 0 0 -6.41 11.46 -13.62 -22.91 0 0 -7.85 34.37 0 0 6.27 -12.25 14.56z"/>
   <path id="6" class="fil3" d="M2502.75 1325.62c3.31,0 6.29,0.64 8.93,1.91 2.64,1.27 4.71,3.09 6.2,5.44 1.49,2.35 2.24,5.07 2.24,8.14 0,3.27 -0.82,6.14 -2.45,8.61 -1.63,2.48 -3.84,4.39 -6.63,5.73 -2.79,1.34 -5.91,2.02 -9.37,2.02 -6.92,0 -12.29,-2.16 -16.11,-6.48 -3.82,-4.32 -5.73,-10.52 -5.73,-18.59 0,-5.67 1.04,-10.51 3.1,-14.52 2.07,-4.01 4.96,-7.06 8.69,-9.15 3.72,-2.09 8.04,-3.13 12.93,-3.13 2.59,0 5.03,0.28 7.31,0.83 2.28,0.56 4.26,1.36 5.94,2.42l-3.46 7.06c-2.5,-1.63 -5.69,-2.45 -9.58,-2.45 -4.85,0 -8.65,1.49 -11.39,4.47 -2.74,2.98 -4.11,7.28 -4.11,12.9l0 0.07c1.49,-1.73 3.39,-3.04 5.69,-3.93 2.31,-0.89 4.9,-1.33 7.78,-1.33zm-1.59 24.5c2.93,0 5.31,-0.78 7.13,-2.34 1.83,-1.56 2.74,-3.64 2.74,-6.23 0,-2.64 -0.91,-4.73 -2.74,-6.27 -1.83,-1.54 -4.28,-2.31 -7.35,-2.31 -3.03,0 -5.49,0.81 -7.39,2.45 -1.9,1.63 -2.85,3.7 -2.85,6.2 0,2.45 0.93,4.48 2.78,6.09 1.85,1.61 4.41,2.41 7.67,2.41z"/>
   <polygon id="7" class="fil3" points="2586.34,1348.9 2586.34,1356.75 2548.5,1356.75 2548.5,1306.31 2585.33,1306.31 2585.33,1314.17 2557.87,1314.17 2557.87,1327.28 2582.23,1327.28 2582.23,1334.99 2557.87,1334.99 2557.87,1348.9 "/>
   <path id="8" class="fil3" d="M2631.01 1330.96l8.87 0 0 20.1c-2.59,2.07 -5.62,3.65 -9.08,4.76 -3.46,1.11 -7.01,1.66 -10.66,1.66 -5.14,0 -9.78,-1.12 -13.91,-3.35 -4.13,-2.23 -7.37,-5.32 -9.73,-9.26 -2.35,-3.94 -3.53,-8.38 -3.53,-13.33 0,-4.95 1.18,-9.39 3.53,-13.33 2.35,-3.94 5.61,-7.03 9.76,-9.26 4.16,-2.23 8.83,-3.35 14.02,-3.35 4.23,0 8.07,0.7 11.53,2.09 3.46,1.39 6.36,3.43 8.72,6.12l-5.91 5.77c-3.84,-3.85 -8.48,-5.77 -13.91,-5.77 -3.56,0 -6.71,0.75 -9.48,2.24 -2.76,1.49 -4.93,3.58 -6.48,6.27 -1.56,2.69 -2.34,5.76 -2.34,9.22 0,3.36 0.78,6.39 2.34,9.08 1.56,2.69 3.72,4.8 6.48,6.34 2.76,1.54 5.9,2.3 9.41,2.3 3.94,0 7.4,-0.86 10.37,-2.59l0 -15.71z"/>
   <path id="9" class="fil3" d="M2685.2 1356.75l-10.3 -14.77c-0.43,0.05 -1.08,0.07 -1.94,0.07l-11.39 0 0 14.7 -9.37 0 0 -50.44 20.76 0c4.37,0 8.18,0.72 11.42,2.16 3.24,1.44 5.73,3.51 7.46,6.2 1.73,2.69 2.59,5.89 2.59,9.58 0,3.8 -0.93,7.06 -2.78,9.8 -1.85,2.74 -4.5,4.78 -7.96,6.12l11.6 16.57 -10.09 0zm-0.22 -32.5c0,-3.22 -1.06,-5.69 -3.17,-7.42 -2.11,-1.73 -5.21,-2.59 -9.3,-2.59l-10.95 0 0 20.11 10.95 0c4.08,0 7.18,-0.88 9.3,-2.63 2.11,-1.76 3.17,-4.24 3.17,-7.46z"/>
   <polygon class="fil4" points="195.69,153.75 173.71,204.19 164.48,204.19 142.43,153.75 152.59,153.75 169.39,192.67 186.32,153.75 "/>
   <path id="1" class="fil4" d="M211.97 165.28c5.67,0 10,1.36 13,4.07 3,2.72 4.5,6.81 4.5,12.29l0 22.56 -8.5 0 0 -4.69c-1.11,1.68 -2.68,2.97 -4.72,3.86 -2.04,0.89 -4.5,1.33 -7.39,1.33 -2.88,0 -5.41,-0.49 -7.57,-1.48 -2.16,-0.98 -3.83,-2.35 -5.01,-4.11 -1.18,-1.76 -1.77,-3.74 -1.77,-5.94 0,-3.46 1.29,-6.24 3.86,-8.32 2.57,-2.09 6.61,-3.14 12.14,-3.14l9.94 0 0 -0.57c0,-2.69 -0.8,-4.76 -2.41,-6.2 -1.61,-1.44 -4,-2.16 -7.17,-2.16 -2.16,0 -4.29,0.33 -6.38,1.01 -2.09,0.67 -3.85,1.61 -5.3,2.81l-3.53 -6.56c2.02,-1.54 4.44,-2.71 7.28,-3.53 2.83,-0.82 5.83,-1.23 9.01,-1.23zm-1.22 32.86c2.26,0 4.26,-0.52 6.02,-1.55 1.75,-1.03 2.99,-2.51 3.71,-4.43l0 -4.46 -9.3 0c-5.19,0 -7.78,1.7 -7.78,5.11 0,1.63 0.65,2.93 1.94,3.89 1.3,0.96 3.1,1.44 5.41,1.44z"/>
   <polygon id="2" class="fil4" points="241.01,150.72 250.02,150.72 250.02,204.19 241.01,204.19 "/>
   <path id="3" class="fil4" d="M261.84 165.71l9.01 0 0 38.48 -9.01 0 0 -38.48zm4.54 -6.34c-1.63,0 -3,-0.52 -4.11,-1.55 -1.11,-1.03 -1.66,-2.32 -1.66,-3.85 0,-1.54 0.55,-2.82 1.66,-3.85 1.1,-1.04 2.47,-1.55 4.11,-1.55 1.63,0 3,0.49 4.11,1.48 1.11,0.98 1.66,2.22 1.66,3.71 0,1.59 -0.54,2.92 -1.62,4 -1.08,1.08 -2.46,1.62 -4.14,1.62z"/>
   <path id="4" class="fil4" d="M320.35 150.72l0 53.47 -8.65 0 0 -4.97c-1.49,1.83 -3.33,3.2 -5.51,4.11 -2.19,0.91 -4.6,1.37 -7.24,1.37 -3.7,0 -7.02,-0.81 -9.98,-2.45 -2.95,-1.63 -5.27,-3.95 -6.95,-6.95 -1.68,-3 -2.52,-6.45 -2.52,-10.34 0,-3.89 0.84,-7.33 2.52,-10.3 1.68,-2.98 4,-5.28 6.95,-6.92 2.96,-1.63 6.28,-2.45 9.98,-2.45 2.55,0 4.88,0.43 6.99,1.3 2.11,0.86 3.91,2.16 5.4,3.89l0 -19.74 9.01 0zm-20.32 46.26c2.16,0 4.11,-0.49 5.83,-1.48 1.73,-0.98 3.1,-2.39 4.11,-4.21 1.01,-1.83 1.51,-3.94 1.51,-6.34 0,-2.4 -0.5,-4.52 -1.51,-6.34 -1.01,-1.82 -2.38,-3.23 -4.11,-4.21 -1.73,-0.98 -3.67,-1.48 -5.83,-1.48 -2.16,0 -4.11,0.5 -5.84,1.48 -1.73,0.98 -3.1,2.39 -4.11,4.21 -1.01,1.83 -1.51,3.94 -1.51,6.34 0,2.4 0.5,4.52 1.51,6.34 1.01,1.82 2.38,3.23 4.11,4.21 1.73,0.99 3.68,1.48 5.84,1.48z"/>
   <path id="5" class="fil4" d="M346.87 165.28c5.67,0 10,1.36 13,4.07 3,2.72 4.5,6.81 4.5,12.29l0 22.56 -8.5 0 0 -4.69c-1.11,1.68 -2.68,2.97 -4.72,3.86 -2.04,0.89 -4.5,1.33 -7.39,1.33 -2.88,0 -5.41,-0.49 -7.57,-1.48 -2.16,-0.98 -3.83,-2.35 -5.01,-4.11 -1.18,-1.76 -1.77,-3.74 -1.77,-5.94 0,-3.46 1.29,-6.24 3.86,-8.32 2.57,-2.09 6.61,-3.14 12.14,-3.14l9.94 0 0 -0.57c0,-2.69 -0.8,-4.76 -2.41,-6.2 -1.61,-1.44 -4,-2.16 -7.17,-2.16 -2.16,0 -4.29,0.33 -6.38,1.01 -2.09,0.67 -3.85,1.61 -5.3,2.81l-3.53 -6.56c2.02,-1.54 4.44,-2.71 7.28,-3.53 2.83,-0.82 5.83,-1.23 9.01,-1.23zm-1.22 32.86c2.26,0 4.26,-0.52 6.02,-1.55 1.75,-1.03 2.99,-2.51 3.71,-4.43l0 -4.46 -9.3 0c-5.19,0 -7.78,1.7 -7.78,5.11 0,1.63 0.65,2.93 1.94,3.89 1.3,0.96 3.1,1.44 5.41,1.44z"/>
   <path id="6" class="fil4" d="M399.04 202.1c-1.06,0.87 -2.34,1.52 -3.85,1.94 -1.51,0.43 -3.11,0.65 -4.79,0.65 -4.23,0 -7.5,-1.11 -9.8,-3.31 -2.31,-2.21 -3.46,-5.43 -3.46,-9.65l0 -18.52 -6.34 0 0 -7.21 6.34 0 0 -8.79 9.01 0 0 8.79 10.3 0 0 7.21 -10.3 0 0 18.3c0,1.87 0.46,3.3 1.37,4.29 0.91,0.98 2.23,1.48 3.96,1.48 2.02,0 3.7,-0.53 5.05,-1.59l2.52 6.41z"/>
   <path id="7" class="fil4" d="M422.46 204.7c-3.89,0 -7.4,-0.84 -10.52,-2.52 -3.12,-1.69 -5.56,-4.02 -7.31,-7.03 -1.76,-3 -2.63,-6.4 -2.63,-10.2 0,-3.8 0.87,-7.18 2.63,-10.16 1.75,-2.98 4.19,-5.31 7.31,-6.99 3.12,-1.68 6.63,-2.52 10.52,-2.52 3.94,0 7.47,0.84 10.59,2.52 3.12,1.68 5.56,4.01 7.31,6.99 1.75,2.98 2.63,6.37 2.63,10.16 0,3.8 -0.88,7.19 -2.63,10.2 -1.76,3 -4.19,5.34 -7.31,7.03 -3.12,1.68 -6.65,2.52 -10.59,2.52zm0 -7.71c3.31,0 6.05,-1.11 8.21,-3.31 2.16,-2.21 3.24,-5.12 3.24,-8.72 0,-3.6 -1.08,-6.51 -3.24,-8.72 -2.16,-2.21 -4.9,-3.31 -8.21,-3.31 -3.31,0 -6.04,1.11 -8.18,3.31 -2.14,2.21 -3.2,5.12 -3.2,8.72 0,3.6 1.07,6.51 3.2,8.72 2.14,2.21 4.87,3.31 8.18,3.31z"/>
   <path id="8" class="fil4" d="M460.22 171.33c2.59,-4.04 7.16,-6.06 13.69,-6.06l0 8.57c-0.77,-0.14 -1.46,-0.21 -2.09,-0.21 -3.51,0 -6.25,1.02 -8.22,3.06 -1.97,2.04 -2.95,4.98 -2.95,8.83l0 18.66 -9.01 0 0 -38.48 8.57 0 0 5.62z"/>
   <path id="9" class="fil4" d="M516.5 165.28c5.67,0 10,1.36 13,4.07 3,2.72 4.5,6.81 4.5,12.29l0 22.56 -8.5 0 0 -4.69c-1.11,1.68 -2.68,2.97 -4.72,3.86 -2.04,0.89 -4.5,1.33 -7.39,1.33 -2.88,0 -5.41,-0.49 -7.57,-1.48 -2.16,-0.98 -3.83,-2.35 -5.01,-4.11 -1.18,-1.76 -1.77,-3.74 -1.77,-5.94 0,-3.46 1.29,-6.24 3.86,-8.32 2.57,-2.09 6.61,-3.14 12.14,-3.14l9.94 0 0 -0.57c0,-2.69 -0.8,-4.76 -2.41,-6.2 -1.61,-1.44 -4,-2.16 -7.17,-2.16 -2.16,0 -4.29,0.33 -6.38,1.01 -2.09,0.67 -3.85,1.61 -5.3,2.81l-3.53 -6.56c2.02,-1.54 4.44,-2.71 7.28,-3.53 2.83,-0.82 5.83,-1.23 9.01,-1.23zm-1.22 32.86c2.26,0 4.26,-0.52 6.02,-1.55 1.75,-1.03 2.99,-2.51 3.71,-4.43l0 -4.46 -9.3 0c-5.19,0 -7.78,1.7 -7.78,5.11 0,1.63 0.65,2.93 1.94,3.89 1.3,0.96 3.1,1.44 5.41,1.44z"/>
   <path id="10" class="fil4" d="M583.58 150.72l0 53.47 -8.65 0 0 -4.97c-1.49,1.83 -3.33,3.2 -5.51,4.11 -2.19,0.91 -4.6,1.37 -7.24,1.37 -3.7,0 -7.02,-0.81 -9.98,-2.45 -2.95,-1.63 -5.27,-3.95 -6.95,-6.95 -1.68,-3 -2.52,-6.45 -2.52,-10.34 0,-3.89 0.84,-7.33 2.52,-10.3 1.68,-2.98 4,-5.28 6.95,-6.92 2.96,-1.63 6.28,-2.45 9.98,-2.45 2.55,0 4.88,0.43 6.99,1.3 2.11,0.86 3.91,2.16 5.4,3.89l0 -19.74 9.01 0zm-20.32 46.26c2.16,0 4.11,-0.49 5.83,-1.48 1.73,-0.98 3.1,-2.39 4.11,-4.21 1.01,-1.83 1.51,-3.94 1.51,-6.34 0,-2.4 -0.5,-4.52 -1.51,-6.34 -1.01,-1.82 -2.38,-3.23 -4.11,-4.21 -1.73,-0.98 -3.67,-1.48 -5.83,-1.48 -2.16,0 -4.11,0.5 -5.84,1.48 -1.73,0.98 -3.1,2.39 -4.11,4.21 -1.01,1.83 -1.51,3.94 -1.51,6.34 0,2.4 0.5,4.52 1.51,6.34 1.01,1.82 2.38,3.23 4.11,4.21 1.73,0.99 3.68,1.48 5.84,1.48z"/>
   <path id="11" class="fil4" d="M633.08 150.72l0 53.47 -8.65 0 0 -4.97c-1.49,1.83 -3.33,3.2 -5.51,4.11 -2.19,0.91 -4.6,1.37 -7.24,1.37 -3.7,0 -7.02,-0.81 -9.98,-2.45 -2.95,-1.63 -5.27,-3.95 -6.95,-6.95 -1.68,-3 -2.52,-6.45 -2.52,-10.34 0,-3.89 0.84,-7.33 2.52,-10.3 1.68,-2.98 4,-5.28 6.95,-6.92 2.96,-1.63 6.28,-2.45 9.98,-2.45 2.55,0 4.88,0.43 6.99,1.3 2.11,0.86 3.91,2.16 5.4,3.89l0 -19.74 9.01 0zm-20.32 46.26c2.16,0 4.11,-0.49 5.83,-1.48 1.73,-0.98 3.1,-2.39 4.11,-4.21 1.01,-1.83 1.51,-3.94 1.51,-6.34 0,-2.4 -0.5,-4.52 -1.51,-6.34 -1.01,-1.82 -2.38,-3.23 -4.11,-4.21 -1.73,-0.98 -3.67,-1.48 -5.83,-1.48 -2.16,0 -4.11,0.5 -5.84,1.48 -1.73,0.98 -3.1,2.39 -4.11,4.21 -1.01,1.83 -1.51,3.94 -1.51,6.34 0,2.4 0.5,4.52 1.51,6.34 1.01,1.82 2.38,3.23 4.11,4.21 1.73,0.99 3.68,1.48 5.84,1.48z"/>
   <path id="12" class="fil4" d="M653.48 171.33c2.59,-4.04 7.16,-6.06 13.69,-6.06l0 8.57c-0.77,-0.14 -1.46,-0.21 -2.09,-0.21 -3.51,0 -6.25,1.02 -8.22,3.06 -1.97,2.04 -2.95,4.98 -2.95,8.83l0 18.66 -9.01 0 0 -38.48 8.57 0 0 5.62z"/>
   <path id="13" class="fil4" d="M710.62 185.17c0,0.63 -0.05,1.51 -0.15,2.67l-30.19 0c0.53,2.83 1.91,5.08 4.15,6.74 2.23,1.66 5.01,2.48 8.32,2.48 4.23,0 7.71,-1.39 10.45,-4.18l4.83 5.55c-1.73,2.06 -3.91,3.63 -6.56,4.68 -2.64,1.06 -5.62,1.59 -8.93,1.59 -4.23,0 -7.95,-0.84 -11.17,-2.52 -3.22,-1.69 -5.7,-4.02 -7.46,-7.03 -1.76,-3 -2.63,-6.4 -2.63,-10.2 0,-3.75 0.85,-7.12 2.56,-10.12 1.7,-3 4.07,-5.35 7.1,-7.03 3.03,-1.68 6.44,-2.52 10.23,-2.52 3.75,0 7.1,0.83 10.05,2.49 2.96,1.66 5.26,3.99 6.92,6.99 1.66,3 2.49,6.47 2.49,10.41zm-19.46 -12.68c-2.88,0 -5.32,0.85 -7.31,2.56 -1.99,1.71 -3.2,3.98 -3.64,6.81l21.83 0c-0.39,-2.79 -1.56,-5.04 -3.53,-6.77 -1.97,-1.73 -4.42,-2.59 -7.35,-2.59z"/>
   <path id="14" class="fil4" d="M731.15 204.7c-3.12,0 -6.17,-0.41 -9.15,-1.22 -2.98,-0.81 -5.35,-1.85 -7.13,-3.1l3.46 -6.85c1.73,1.15 3.81,2.08 6.23,2.78 2.43,0.7 4.81,1.04 7.17,1.04 5.38,0 8.07,-1.42 8.07,-4.25 0,-1.34 -0.69,-2.28 -2.05,-2.81 -1.37,-0.53 -3.57,-1.04 -6.59,-1.52 -3.17,-0.48 -5.75,-1.03 -7.75,-1.66 -1.99,-0.62 -3.72,-1.72 -5.19,-3.28 -1.46,-1.56 -2.2,-3.73 -2.2,-6.52 0,-3.65 1.53,-6.57 4.57,-8.76 3.05,-2.19 7.17,-3.28 12.36,-3.28 2.65,0 5.29,0.3 7.93,0.9 2.64,0.6 4.8,1.41 6.48,2.41l-3.46 6.85c-3.26,-1.92 -6.94,-2.88 -11.02,-2.88 -2.64,0 -4.65,0.4 -6.02,1.19 -1.37,0.79 -2.06,1.84 -2.06,3.13 0,1.44 0.73,2.46 2.2,3.06 1.47,0.6 3.74,1.17 6.81,1.69 3.07,0.48 5.6,1.04 7.57,1.66 1.97,0.63 3.66,1.68 5.08,3.17 1.42,1.49 2.13,3.61 2.13,6.34 0,3.6 -1.56,6.48 -4.69,8.65 -3.12,2.17 -7.37,3.24 -12.75,3.24z"/>
   <path id="15" class="fil4" d="M768.26 204.7c-3.12,0 -6.17,-0.41 -9.15,-1.22 -2.98,-0.81 -5.35,-1.85 -7.13,-3.1l3.46 -6.85c1.73,1.15 3.81,2.08 6.23,2.78 2.43,0.7 4.81,1.04 7.17,1.04 5.38,0 8.07,-1.42 8.07,-4.25 0,-1.34 -0.69,-2.28 -2.05,-2.81 -1.37,-0.53 -3.57,-1.04 -6.59,-1.52 -3.17,-0.48 -5.75,-1.03 -7.75,-1.66 -1.99,-0.62 -3.72,-1.72 -5.19,-3.28 -1.46,-1.56 -2.2,-3.73 -2.2,-6.52 0,-3.65 1.53,-6.57 4.57,-8.76 3.05,-2.19 7.17,-3.28 12.36,-3.28 2.65,0 5.29,0.3 7.93,0.9 2.64,0.6 4.8,1.41 6.48,2.41l-3.46 6.85c-3.26,-1.92 -6.94,-2.88 -11.02,-2.88 -2.64,0 -4.65,0.4 -6.02,1.19 -1.37,0.79 -2.06,1.84 -2.06,3.13 0,1.44 0.73,2.46 2.2,3.06 1.47,0.6 3.74,1.17 6.81,1.69 3.07,0.48 5.6,1.04 7.57,1.66 1.97,0.63 3.66,1.68 5.08,3.17 1.42,1.49 2.13,3.61 2.13,6.34 0,3.6 -1.56,6.48 -4.69,8.65 -3.12,2.17 -7.37,3.24 -12.75,3.24z"/>
   <path class="fil5" d="M1276.18 1877.97c-3.89,0 -7.65,-0.55 -11.28,-1.66 -3.63,-1.11 -6.5,-2.57 -8.61,-4.39l3.24 -7.28c2.07,1.63 4.6,2.96 7.6,4 3,1.03 6.02,1.55 9.04,1.55 3.75,0 6.55,-0.6 8.4,-1.8 1.85,-1.2 2.77,-2.79 2.77,-4.76 0,-1.44 -0.52,-2.63 -1.55,-3.57 -1.04,-0.94 -2.34,-1.67 -3.93,-2.2 -1.58,-0.53 -3.75,-1.13 -6.48,-1.8 -3.84,-0.91 -6.95,-1.83 -9.33,-2.74 -2.38,-0.91 -4.42,-2.34 -6.13,-4.29 -1.7,-1.94 -2.56,-4.57 -2.56,-7.89 0,-2.79 0.76,-5.32 2.27,-7.6 1.51,-2.28 3.8,-4.09 6.84,-5.44 3.05,-1.34 6.79,-2.02 11.21,-2.02 3.07,0 6.1,0.38 9.08,1.15 2.98,0.77 5.55,1.87 7.71,3.31l-2.95 7.28c-2.21,-1.3 -4.52,-2.28 -6.92,-2.95 -2.4,-0.67 -4.73,-1.01 -6.99,-1.01 -3.7,0 -6.45,0.62 -8.25,1.87 -1.8,1.25 -2.7,2.91 -2.7,4.97 0,1.44 0.52,2.62 1.55,3.53 1.03,0.91 2.34,1.63 3.93,2.16 1.59,0.53 3.75,1.13 6.49,1.8 3.74,0.87 6.82,1.76 9.22,2.7 2.4,0.94 4.46,2.37 6.16,4.29 1.7,1.92 2.56,4.52 2.56,7.78 0,2.79 -0.76,5.31 -2.27,7.57 -1.51,2.26 -3.81,4.06 -6.88,5.41 -3.07,1.34 -6.82,2.02 -11.24,2.02z"/>
   <path id="1" class="fil5" d="M1342.26 1838.77l0 38.48 -8.57 0 0 -4.9c-1.44,1.73 -3.24,3.06 -5.4,4 -2.16,0.94 -4.49,1.41 -6.99,1.41 -5.14,0 -9.19,-1.43 -12.14,-4.29 -2.95,-2.86 -4.43,-7.1 -4.43,-12.72l0 -21.98 9.01 0 0 20.75c0,3.46 0.78,6.04 2.34,7.75 1.56,1.7 3.78,2.56 6.67,2.56 3.22,0 5.78,-1 7.68,-2.99 1.9,-1.99 2.85,-4.86 2.85,-8.61l0 -19.46 9 0z"/>
   <path id="2" class="fil5" d="M1375.41 1838.34c3.74,0 7.09,0.82 10.05,2.45 2.95,1.63 5.27,3.94 6.95,6.92 1.68,2.98 2.52,6.41 2.52,10.3 0,3.89 -0.84,7.34 -2.52,10.34 -1.68,3 -4,5.32 -6.95,6.95 -2.96,1.63 -6.31,2.45 -10.05,2.45 -2.65,0 -5.06,-0.46 -7.24,-1.37 -2.19,-0.91 -4.02,-2.28 -5.51,-4.11l0 4.97 -8.57 0 0 -53.47 9.01 0 0 19.67c1.54,-1.68 3.35,-2.96 5.44,-3.82 2.09,-0.87 4.38,-1.3 6.88,-1.3zm-1.01 31.71c3.31,0 6.04,-1.11 8.18,-3.31 2.14,-2.21 3.2,-5.12 3.2,-8.72 0,-3.6 -1.07,-6.51 -3.2,-8.72 -2.14,-2.21 -4.87,-3.31 -8.18,-3.31 -2.16,0 -4.11,0.5 -5.83,1.48 -1.73,0.98 -3.1,2.39 -4.11,4.21 -1.01,1.83 -1.51,3.94 -1.51,6.34 0,2.4 0.5,4.52 1.51,6.34 1.01,1.82 2.38,3.23 4.11,4.21 1.73,0.99 3.67,1.48 5.83,1.48z"/>
   <path id="3" class="fil5" d="M1452.08 1838.34c4.85,0 8.7,1.41 11.53,4.22 2.83,2.81 4.25,7.03 4.25,12.65l0 22.05 -9 0 0 -20.9c0,-3.36 -0.75,-5.9 -2.24,-7.6 -1.49,-1.7 -3.63,-2.56 -6.41,-2.56 -3.03,0 -5.45,1 -7.28,2.99 -1.83,1.99 -2.74,4.84 -2.74,8.54l0 19.53 -9.01 0 0 -20.9c0,-3.36 -0.74,-5.9 -2.23,-7.6 -1.49,-1.7 -3.63,-2.56 -6.41,-2.56 -3.07,0 -5.51,0.99 -7.31,2.96 -1.8,1.97 -2.7,4.83 -2.7,8.57l0 19.53 -9.01 0 0 -38.48 8.57 0 0 4.9c1.44,-1.73 3.24,-3.05 5.41,-3.96 2.16,-0.91 4.56,-1.37 7.2,-1.37 2.88,0 5.44,0.54 7.67,1.62 2.24,1.08 4,2.68 5.3,4.79 1.59,-2.02 3.63,-3.59 6.13,-4.72 2.5,-1.13 5.26,-1.7 8.29,-1.7z"/>
   <path id="4" class="fil5" d="M1479.39 1838.77l9.01 0 0 38.48 -9.01 0 0 -38.48zm4.54 -6.34c-1.63,0 -3,-0.52 -4.11,-1.55 -1.11,-1.03 -1.66,-2.32 -1.66,-3.85 0,-1.54 0.55,-2.82 1.66,-3.85 1.1,-1.04 2.47,-1.55 4.11,-1.55 1.63,0 3,0.49 4.11,1.48 1.11,0.98 1.66,2.22 1.66,3.71 0,1.59 -0.54,2.92 -1.62,4 -1.08,1.08 -2.46,1.62 -4.14,1.62z"/>
   <path id="5" class="fil5" d="M1523.34 1875.16c-1.06,0.87 -2.34,1.52 -3.85,1.94 -1.51,0.43 -3.11,0.65 -4.79,0.65 -4.23,0 -7.5,-1.11 -9.8,-3.31 -2.31,-2.21 -3.46,-5.43 -3.46,-9.65l0 -18.52 -6.34 0 0 -7.21 6.34 0 0 -8.79 9.01 0 0 8.79 10.3 0 0 7.21 -10.3 0 0 18.3c0,1.87 0.46,3.3 1.37,4.29 0.91,0.98 2.23,1.48 3.96,1.48 2.02,0 3.7,-0.53 5.05,-1.59l2.52 6.41z"/>
  </g>
 </g>
</svg>
