<?xml version="1.0" encoding="UTF-8"?>
<!DOCTYPE svg PUBLIC "-//W3C//DTD SVG 1.0//EN" "http://www.w3.org/TR/2001/REC-SVG-20010904/DTD/svg10.dtd">
<!-- Creator: CorelDRAW 2019 (64-Bit) -->
<svg xmlns="http://www.w3.org/2000/svg" xml:space="preserve" width="4.10074in" height="3.09631in" version="1.0" style="shape-rendering:geometricPrecision; text-rendering:geometricPrecision; image-rendering:optimizeQuality; fill-rule:evenodd; clip-rule:evenodd"
viewBox="0 0 4100.74 3096.31"
 xmlns:xlink="http://www.w3.org/1999/xlink"
 xmlns:xodm="http://www.corel.com/coreldraw/odm/2003">
 <defs>
  <style type="text/css">
   <![CDATA[
    .str0 {stroke:#E6E7E8;stroke-width:6.94;stroke-miterlimit:2.61313}
    .fil2 {fill:none}
    .fil0 {fill:#FEFEFE}
    .fil1 {fill:#55BC7E}
    .fil5 {fill:#FEFEFE;fill-rule:nonzero}
    .fil4 {fill:#848688;fill-rule:nonzero}
    .fil3 {fill:#4B4B4D;fill-rule:nonzero}
   ]]>
  </style>
 </defs>
 <g id="Layer_x0020_1">
  <metadata id="CorelCorpID_0Corel-Layer"/>
  <g id="_1640493008688">
   <rect class="fil0" x="-0" width="4100.74" height="3096.32" rx="80.4" ry="78.03"/>
   <rect class="fil1" x="154.71" y="2462.93" width="3651.81" height="346.38" rx="64.94" ry="64.94"/>
   <rect class="fil2 str0" x="154.71" y="1453.49" width="3651.81" height="346.38" rx="64.94" ry="64.94"/>
   <rect class="fil2 str0" x="154.71" y="698.89" width="3651.81" height="346.38" rx="64.94" ry="64.94"/>
   <path class="fil1" d="M3435.45 698.89l306.13 0c35.72,0 64.93,29.21 64.93,64.93l0 216.51c0,35.72 -29.22,64.94 -64.93,64.94l-306.13 0 0 -346.37z"/>
   <path class="fil3" d="M259.77 1324.3l-35.94 0 -7.08 16.63 -13.76 0 32.35 -71.88 13.14 0 32.45 71.88 -13.97 0 -7.19 -16.63zm-4.41 -10.48l-13.56 -31.42 -13.45 31.42 27.01 0z"/>
   <path id="1" class="fil3" d="M358.04 1285.48c6.91,0 12.39,2 16.43,6.01 4.04,4 6.06,10.01 6.06,18.02l0 31.42 -12.83 0 0 -29.78c0,-4.79 -1.06,-8.41 -3.19,-10.83 -2.12,-2.43 -5.17,-3.65 -9.14,-3.65 -4.31,0 -7.77,1.42 -10.37,4.26 -2.6,2.84 -3.9,6.9 -3.9,12.17l0 27.83 -12.83 0 0 -29.78c0,-4.79 -1.06,-8.41 -3.19,-10.83 -2.12,-2.43 -5.17,-3.65 -9.14,-3.65 -4.38,0 -7.86,1.41 -10.43,4.21 -2.57,2.81 -3.85,6.88 -3.85,12.22l0 27.83 -12.83 0 0 -54.83 12.22 0 0 6.98c2.05,-2.46 4.62,-4.35 7.7,-5.65 3.08,-1.3 6.5,-1.95 10.27,-1.95 4.11,0 7.75,0.77 10.94,2.31 3.19,1.54 5.7,3.81 7.55,6.83 2.26,-2.88 5.17,-5.12 8.73,-6.73 3.56,-1.61 7.5,-2.41 11.81,-2.41z"/>
   <path id="2" class="fil3" d="M422.12 1341.66c-5.55,0 -10.54,-1.2 -14.99,-3.59 -4.45,-2.4 -7.93,-5.74 -10.43,-10.01 -2.5,-4.28 -3.75,-9.12 -3.75,-14.53 0,-5.41 1.25,-10.24 3.75,-14.48 2.5,-4.24 5.97,-7.56 10.43,-9.96 4.45,-2.4 9.44,-3.59 14.99,-3.59 5.61,0 10.65,1.2 15.09,3.59 4.45,2.4 7.93,5.72 10.42,9.96 2.5,4.24 3.75,9.07 3.75,14.48 0,5.41 -1.25,10.25 -3.75,14.53 -2.5,4.28 -5.97,7.61 -10.42,10.01 -4.45,2.39 -9.48,3.59 -15.09,3.59zm0 -10.99c4.72,0 8.63,-1.57 11.7,-4.72 3.08,-3.15 4.62,-7.29 4.62,-12.43 0,-5.13 -1.54,-9.28 -4.62,-12.43 -3.08,-3.15 -6.98,-4.72 -11.7,-4.72 -4.72,0 -8.61,1.57 -11.66,4.72 -3.04,3.15 -4.57,7.29 -4.57,12.43 0,5.13 1.52,9.28 4.57,12.43 3.05,3.15 6.93,4.72 11.66,4.72z"/>
   <path id="3" class="fil3" d="M516.8 1286.1l0 54.83 -12.22 0 0 -6.98c-2.06,2.46 -4.62,4.37 -7.7,5.7 -3.08,1.33 -6.4,2 -9.96,2 -7.33,0 -13.09,-2.04 -17.3,-6.11 -4.21,-4.07 -6.32,-10.12 -6.32,-18.13l0 -31.32 12.84 0 0 29.57c0,4.93 1.11,8.61 3.34,11.04 2.22,2.43 5.39,3.64 9.5,3.64 4.59,0 8.23,-1.42 10.94,-4.26 2.7,-2.84 4.06,-6.93 4.06,-12.27l0 -27.72 12.84 0z"/>
   <path id="4" class="fil3" d="M564.76 1285.48c6.91,0 12.46,2.02 16.63,6.06 4.18,4.04 6.26,10.03 6.26,17.97l0 31.42 -12.83 0 0 -29.78c0,-4.79 -1.13,-8.41 -3.39,-10.83 -2.26,-2.43 -5.48,-3.65 -9.65,-3.65 -4.72,0 -8.46,1.42 -11.19,4.26 -2.74,2.84 -4.11,6.93 -4.11,12.27l0 27.72 -12.83 0 0 -54.83 12.22 0 0 7.08c2.12,-2.53 4.79,-4.45 8.01,-5.75 3.22,-1.3 6.85,-1.95 10.89,-1.95z"/>
   <path id="5" class="fil3" d="M636.95 1337.96c-1.5,1.23 -3.33,2.15 -5.49,2.77 -2.16,0.61 -4.43,0.93 -6.83,0.93 -6.02,0 -10.68,-1.57 -13.96,-4.72 -3.28,-3.15 -4.93,-7.74 -4.93,-13.76l0 -26.39 -9.04 0 0 -10.27 9.04 0 0 -12.53 12.84 0 0 12.53 14.68 0 0 10.27 -14.68 0 0 26.08c0,2.67 0.65,4.71 1.95,6.11 1.3,1.41 3.19,2.11 5.65,2.11 2.87,0 5.27,-0.75 7.19,-2.26l3.59 9.14z"/>
   <polygon class="fil3" points="278.87,522.18 247.55,594.06 234.41,594.06 202.98,522.18 217.46,522.18 241.39,577.63 265.52,522.18 "/>
   <path id="1" class="fil3" d="M302.08 538.61c8.08,0 14.26,1.93 18.54,5.8 4.28,3.87 6.42,9.7 6.42,17.51l0 32.14 -12.12 0 0 -6.67c-1.57,2.39 -3.81,4.22 -6.72,5.49 -2.91,1.27 -6.42,1.9 -10.53,1.9 -4.11,0 -7.7,-0.7 -10.78,-2.11 -3.08,-1.41 -5.46,-3.35 -7.13,-5.85 -1.68,-2.5 -2.52,-5.32 -2.52,-8.47 0,-4.93 1.83,-8.88 5.49,-11.86 3.66,-2.98 9.43,-4.47 17.3,-4.47l14.17 0 0 -0.82c0,-3.83 -1.15,-6.78 -3.44,-8.83 -2.3,-2.05 -5.7,-3.08 -10.22,-3.08 -3.08,0 -6.11,0.48 -9.09,1.44 -2.98,0.96 -5.49,2.29 -7.55,4l-5.03 -9.34c2.87,-2.19 6.33,-3.87 10.37,-5.03 4.04,-1.17 8.32,-1.75 12.84,-1.75zm-1.75 46.83c3.22,0 6.08,-0.74 8.57,-2.21 2.5,-1.47 4.26,-3.57 5.29,-6.31l0 -6.37 -13.25 0c-7.39,0 -11.09,2.43 -11.09,7.29 0,2.33 0.93,4.18 2.77,5.54 1.85,1.37 4.42,2.06 7.7,2.06z"/>
   <polygon id="2" class="fil3" points="343.46,517.87 356.3,517.87 356.3,594.06 343.46,594.06 "/>
   <path id="3" class="fil3" d="M373.14 539.23l12.83 0 0 54.83 -12.83 0 0 -54.83zm6.47 -9.04c-2.33,0 -4.28,-0.74 -5.85,-2.2 -1.57,-1.47 -2.36,-3.3 -2.36,-5.5 0,-2.19 0.79,-4.02 2.36,-5.49 1.57,-1.47 3.53,-2.21 5.85,-2.21 2.33,0 4.28,0.7 5.85,2.11 1.57,1.4 2.36,3.17 2.36,5.29 0,2.26 -0.77,4.16 -2.31,5.7 -1.54,1.54 -3.51,2.31 -5.91,2.31z"/>
   <path id="4" class="fil3" d="M456.52 517.87l0 76.2 -12.32 0 0 -7.09c-2.12,2.6 -4.74,4.56 -7.85,5.85 -3.11,1.3 -6.56,1.95 -10.32,1.95 -5.27,0 -10.02,-1.17 -14.22,-3.49 -4.21,-2.33 -7.51,-5.63 -9.91,-9.91 -2.4,-4.28 -3.59,-9.19 -3.59,-14.74 0,-5.55 1.2,-10.44 3.59,-14.69 2.4,-4.24 5.7,-7.53 9.91,-9.86 4.21,-2.33 8.95,-3.49 14.22,-3.49 3.63,0 6.95,0.62 9.96,1.85 3.01,1.23 5.58,3.08 7.7,5.54l0 -28.14 12.83 0zm-28.96 65.93c3.08,0 5.85,-0.7 8.32,-2.11 2.46,-1.4 4.41,-3.41 5.85,-6.01 1.44,-2.6 2.16,-5.61 2.16,-9.04 0,-3.43 -0.72,-6.44 -2.16,-9.04 -1.44,-2.6 -3.39,-4.61 -5.85,-6.01 -2.46,-1.41 -5.24,-2.11 -8.32,-2.11 -3.08,0 -5.85,0.7 -8.32,2.11 -2.46,1.4 -4.41,3.41 -5.85,6.01 -1.44,2.6 -2.15,5.61 -2.15,9.04 0,3.42 0.72,6.43 2.15,9.04 1.44,2.6 3.39,4.61 5.85,6.01 2.46,1.4 5.24,2.11 8.32,2.11z"/>
   <path id="5" class="fil3" d="M494.31 538.61c8.08,0 14.26,1.93 18.54,5.8 4.28,3.87 6.42,9.7 6.42,17.51l0 32.14 -12.12 0 0 -6.67c-1.57,2.39 -3.81,4.22 -6.72,5.49 -2.91,1.27 -6.42,1.9 -10.53,1.9 -4.11,0 -7.7,-0.7 -10.78,-2.11 -3.08,-1.41 -5.46,-3.35 -7.13,-5.85 -1.68,-2.5 -2.52,-5.32 -2.52,-8.47 0,-4.93 1.83,-8.88 5.49,-11.86 3.66,-2.98 9.43,-4.47 17.3,-4.47l14.17 0 0 -0.82c0,-3.83 -1.15,-6.78 -3.44,-8.83 -2.3,-2.05 -5.7,-3.08 -10.22,-3.08 -3.08,0 -6.11,0.48 -9.09,1.44 -2.98,0.96 -5.49,2.29 -7.55,4l-5.03 -9.34c2.87,-2.19 6.33,-3.87 10.37,-5.03 4.04,-1.17 8.32,-1.75 12.84,-1.75zm-1.75 46.83c3.22,0 6.08,-0.74 8.57,-2.21 2.5,-1.47 4.26,-3.57 5.29,-6.31l0 -6.37 -13.25 0c-7.39,0 -11.09,2.43 -11.09,7.29 0,2.33 0.93,4.18 2.77,5.54 1.85,1.37 4.42,2.06 7.7,2.06z"/>
   <path id="6" class="fil3" d="M568.65 591.09c-1.5,1.23 -3.33,2.15 -5.49,2.77 -2.16,0.61 -4.43,0.93 -6.83,0.93 -6.02,0 -10.68,-1.57 -13.96,-4.72 -3.28,-3.15 -4.93,-7.74 -4.93,-13.76l0 -26.39 -9.04 0 0 -10.27 9.04 0 0 -12.53 12.84 0 0 12.53 14.68 0 0 10.27 -14.68 0 0 26.08c0,2.67 0.65,4.71 1.95,6.11 1.3,1.41 3.19,2.11 5.65,2.11 2.87,0 5.27,-0.75 7.19,-2.26l3.59 9.14z"/>
   <path id="7" class="fil3" d="M602.03 594.78c-5.55,0 -10.54,-1.2 -14.99,-3.59 -4.45,-2.4 -7.93,-5.74 -10.43,-10.01 -2.5,-4.28 -3.75,-9.12 -3.75,-14.53 0,-5.41 1.25,-10.24 3.75,-14.48 2.5,-4.24 5.97,-7.56 10.43,-9.96 4.45,-2.4 9.44,-3.59 14.99,-3.59 5.61,0 10.65,1.2 15.09,3.59 4.45,2.4 7.93,5.72 10.42,9.96 2.5,4.24 3.75,9.07 3.75,14.48 0,5.41 -1.25,10.25 -3.75,14.53 -2.5,4.28 -5.97,7.61 -10.42,10.01 -4.45,2.39 -9.48,3.59 -15.09,3.59zm0 -10.99c4.72,0 8.63,-1.57 11.7,-4.72 3.08,-3.15 4.62,-7.29 4.62,-12.43 0,-5.13 -1.54,-9.28 -4.62,-12.43 -3.08,-3.15 -6.98,-4.72 -11.7,-4.72 -4.72,0 -8.61,1.57 -11.66,4.72 -3.04,3.15 -4.57,7.29 -4.57,12.43 0,5.13 1.52,9.28 4.57,12.43 3.05,3.15 6.93,4.72 11.66,4.72z"/>
   <path id="8" class="fil3" d="M655.84 547.24c3.7,-5.75 10.2,-8.63 19.51,-8.63l0 12.22c-1.09,-0.2 -2.09,-0.31 -2.98,-0.31 -5,0 -8.9,1.45 -11.7,4.36 -2.81,2.91 -4.21,7.1 -4.21,12.58l0 26.59 -12.83 0 0 -54.83 12.22 0 0 8.01z"/>
   <path id="9" class="fil3" d="M736.04 538.61c8.08,0 14.26,1.93 18.54,5.8 4.28,3.87 6.42,9.7 6.42,17.51l0 32.14 -12.12 0 0 -6.67c-1.57,2.39 -3.81,4.22 -6.72,5.49 -2.91,1.27 -6.42,1.9 -10.53,1.9 -4.11,0 -7.7,-0.7 -10.78,-2.11 -3.08,-1.41 -5.46,-3.35 -7.13,-5.85 -1.68,-2.5 -2.52,-5.32 -2.52,-8.47 0,-4.93 1.83,-8.88 5.49,-11.86 3.66,-2.98 9.43,-4.47 17.3,-4.47l14.17 0 0 -0.82c0,-3.83 -1.15,-6.78 -3.44,-8.83 -2.3,-2.05 -5.7,-3.08 -10.22,-3.08 -3.08,0 -6.11,0.48 -9.09,1.44 -2.98,0.96 -5.49,2.29 -7.55,4l-5.03 -9.34c2.87,-2.19 6.33,-3.87 10.37,-5.03 4.04,-1.17 8.32,-1.75 12.84,-1.75zm-1.75 46.83c3.22,0 6.08,-0.74 8.57,-2.21 2.5,-1.47 4.26,-3.57 5.29,-6.31l0 -6.37 -13.25 0c-7.39,0 -11.09,2.43 -11.09,7.29 0,2.33 0.93,4.18 2.77,5.54 1.85,1.37 4.42,2.06 7.7,2.06z"/>
   <path id="10" class="fil3" d="M831.65 517.87l0 76.2 -12.32 0 0 -7.09c-2.12,2.6 -4.74,4.56 -7.85,5.85 -3.11,1.3 -6.56,1.95 -10.32,1.95 -5.27,0 -10.02,-1.17 -14.22,-3.49 -4.21,-2.33 -7.51,-5.63 -9.91,-9.91 -2.4,-4.28 -3.59,-9.19 -3.59,-14.74 0,-5.55 1.2,-10.44 3.59,-14.69 2.4,-4.24 5.7,-7.53 9.91,-9.86 4.21,-2.33 8.95,-3.49 14.22,-3.49 3.63,0 6.95,0.62 9.96,1.85 3.01,1.23 5.58,3.08 7.7,5.54l0 -28.14 12.83 0zm-28.96 65.93c3.08,0 5.85,-0.7 8.32,-2.11 2.46,-1.4 4.41,-3.41 5.85,-6.01 1.44,-2.6 2.16,-5.61 2.16,-9.04 0,-3.43 -0.72,-6.44 -2.16,-9.04 -1.44,-2.6 -3.39,-4.61 -5.85,-6.01 -2.46,-1.41 -5.24,-2.11 -8.32,-2.11 -3.08,0 -5.85,0.7 -8.32,2.11 -2.46,1.4 -4.41,3.41 -5.85,6.01 -1.44,2.6 -2.15,5.61 -2.15,9.04 0,3.42 0.72,6.43 2.15,9.04 1.44,2.6 3.39,4.61 5.85,6.01 2.46,1.4 5.24,2.11 8.32,2.11z"/>
   <path id="11" class="fil3" d="M902.19 517.87l0 76.2 -12.32 0 0 -7.09c-2.12,2.6 -4.74,4.56 -7.85,5.85 -3.11,1.3 -6.56,1.95 -10.32,1.95 -5.27,0 -10.02,-1.17 -14.22,-3.49 -4.21,-2.33 -7.51,-5.63 -9.91,-9.91 -2.4,-4.28 -3.59,-9.19 -3.59,-14.74 0,-5.55 1.2,-10.44 3.59,-14.69 2.4,-4.24 5.7,-7.53 9.91,-9.86 4.21,-2.33 8.95,-3.49 14.22,-3.49 3.63,0 6.95,0.62 9.96,1.85 3.01,1.23 5.58,3.08 7.7,5.54l0 -28.14 12.83 0zm-28.96 65.93c3.08,0 5.85,-0.7 8.32,-2.11 2.46,-1.4 4.41,-3.41 5.85,-6.01 1.44,-2.6 2.16,-5.61 2.16,-9.04 0,-3.43 -0.72,-6.44 -2.16,-9.04 -1.44,-2.6 -3.39,-4.61 -5.85,-6.01 -2.46,-1.41 -5.24,-2.11 -8.32,-2.11 -3.08,0 -5.85,0.7 -8.32,2.11 -2.46,1.4 -4.41,3.41 -5.85,6.01 -1.44,2.6 -2.15,5.61 -2.15,9.04 0,3.42 0.72,6.43 2.15,9.04 1.44,2.6 3.39,4.61 5.85,6.01 2.46,1.4 5.24,2.11 8.32,2.11z"/>
   <path id="12" class="fil3" d="M931.26 547.24c3.7,-5.75 10.2,-8.63 19.51,-8.63l0 12.22c-1.09,-0.2 -2.09,-0.31 -2.98,-0.31 -5,0 -8.9,1.45 -11.7,4.36 -2.81,2.91 -4.21,7.1 -4.21,12.58l0 26.59 -12.83 0 0 -54.83 12.22 0 0 8.01z"/>
   <path id="13" class="fil3" d="M1012.69 566.95c0,0.89 -0.07,2.16 -0.2,3.8l-43.02 0c0.75,4.04 2.72,7.24 5.9,9.6 3.19,2.36 7.14,3.54 11.86,3.54 6.02,0 10.99,-1.98 14.89,-5.96l6.88 7.91c-2.46,2.94 -5.58,5.17 -9.34,6.68 -3.76,1.5 -8.01,2.26 -12.73,2.26 -6.03,0 -11.33,-1.2 -15.92,-3.59 -4.59,-2.4 -8.13,-5.74 -10.63,-10.01 -2.5,-4.28 -3.75,-9.12 -3.75,-14.53 0,-5.34 1.22,-10.15 3.65,-14.43 2.43,-4.28 5.8,-7.61 10.11,-10.01 4.31,-2.4 9.17,-3.59 14.58,-3.59 5.34,0 10.11,1.18 14.33,3.54 4.21,2.36 7.5,5.68 9.86,9.96 2.36,4.28 3.54,9.22 3.54,14.84zm-27.72 -18.07c-4.11,0 -7.58,1.22 -10.42,3.65 -2.84,2.43 -4.57,5.67 -5.19,9.7l31.12 0c-0.55,-3.97 -2.23,-7.19 -5.03,-9.65 -2.81,-2.46 -6.3,-3.7 -10.48,-3.7z"/>
   <path id="14" class="fil3" d="M1041.96 594.78c-4.45,0 -8.8,-0.58 -13.04,-1.75 -4.24,-1.16 -7.63,-2.63 -10.17,-4.41l4.93 -9.76c2.46,1.64 5.43,2.96 8.88,3.95 3.46,0.99 6.86,1.49 10.22,1.49 7.67,0 11.5,-2.02 11.5,-6.06 0,-1.92 -0.97,-3.25 -2.93,-4 -1.95,-0.75 -5.08,-1.47 -9.39,-2.16 -4.52,-0.69 -8.2,-1.47 -11.04,-2.36 -2.84,-0.89 -5.31,-2.44 -7.39,-4.67 -2.09,-2.23 -3.13,-5.32 -3.13,-9.3 0,-5.2 2.17,-9.36 6.52,-12.48 4.35,-3.11 10.22,-4.67 17.61,-4.67 3.76,0 7.53,0.43 11.3,1.28 3.76,0.86 6.85,2 9.24,3.44l-4.93 9.76c-4.65,-2.74 -9.89,-4.11 -15.71,-4.11 -3.76,0 -6.62,0.56 -8.57,1.69 -1.95,1.13 -2.93,2.62 -2.93,4.47 0,2.05 1.04,3.51 3.13,4.36 2.09,0.85 5.32,1.66 9.7,2.41 4.38,0.69 7.97,1.47 10.78,2.36 2.81,0.89 5.22,2.4 7.24,4.52 2.02,2.12 3.03,5.13 3.03,9.04 0,5.13 -2.23,9.24 -6.68,12.32 -4.45,3.08 -10.51,4.62 -18.17,4.62z"/>
   <path id="15" class="fil3" d="M1094.84 594.78c-4.45,0 -8.8,-0.58 -13.04,-1.75 -4.24,-1.16 -7.63,-2.63 -10.17,-4.41l4.93 -9.76c2.46,1.64 5.43,2.96 8.88,3.95 3.46,0.99 6.86,1.49 10.22,1.49 7.67,0 11.5,-2.02 11.5,-6.06 0,-1.92 -0.97,-3.25 -2.93,-4 -1.95,-0.75 -5.08,-1.47 -9.39,-2.16 -4.52,-0.69 -8.2,-1.47 -11.04,-2.36 -2.84,-0.89 -5.31,-2.44 -7.39,-4.67 -2.09,-2.23 -3.13,-5.32 -3.13,-9.3 0,-5.2 2.17,-9.36 6.52,-12.48 4.35,-3.11 10.22,-4.67 17.61,-4.67 3.76,0 7.53,0.43 11.3,1.28 3.76,0.86 6.85,2 9.24,3.44l-4.93 9.76c-4.65,-2.74 -9.89,-4.11 -15.71,-4.11 -3.76,0 -6.62,0.56 -8.57,1.69 -1.95,1.13 -2.93,2.62 -2.93,4.47 0,2.05 1.04,3.51 3.13,4.36 2.09,0.85 5.32,1.66 9.7,2.41 4.38,0.69 7.97,1.47 10.78,2.36 2.81,0.89 5.22,2.4 7.24,4.52 2.02,2.12 3.03,5.13 3.03,9.04 0,5.13 -2.23,9.24 -6.68,12.32 -4.45,3.08 -10.51,4.62 -18.17,4.62z"/>
   <path class="fil3" d="M221.42 1919.19l-35.94 0 -7.08 16.63 -13.76 0 32.35 -71.88 13.14 0 32.45 71.88 -13.97 0 -7.19 -16.63zm-4.41 -10.48l-13.56 -31.42 -13.45 31.42 27.01 0z"/>
   <polygon id="1" class="fil3" points="299.06,1880.98 275.54,1935.82 262.3,1935.82 238.78,1880.98 252.13,1880.98 269.17,1921.65 286.73,1880.98 "/>
   <path id="2" class="fil3" d="M326.27 1880.37c8.08,0 14.26,1.93 18.54,5.8 4.28,3.87 6.42,9.7 6.42,17.51l0 32.14 -12.12 0 0 -6.67c-1.57,2.39 -3.81,4.22 -6.72,5.49 -2.91,1.27 -6.42,1.9 -10.53,1.9 -4.11,0 -7.7,-0.7 -10.78,-2.11 -3.08,-1.41 -5.46,-3.35 -7.13,-5.85 -1.68,-2.5 -2.52,-5.32 -2.52,-8.47 0,-4.93 1.83,-8.88 5.49,-11.86 3.66,-2.98 9.43,-4.47 17.3,-4.47l14.17 0 0 -0.82c0,-3.83 -1.15,-6.78 -3.44,-8.83 -2.3,-2.05 -5.7,-3.08 -10.22,-3.08 -3.08,0 -6.11,0.48 -9.09,1.44 -2.98,0.96 -5.49,2.29 -7.55,4l-5.03 -9.34c2.87,-2.19 6.33,-3.87 10.37,-5.03 4.04,-1.17 8.32,-1.75 12.84,-1.75zm-1.75 46.83c3.22,0 6.08,-0.74 8.57,-2.21 2.5,-1.47 4.26,-3.57 5.29,-6.31l0 -6.37 -13.25 0c-7.39,0 -11.09,2.43 -11.09,7.29 0,2.33 0.93,4.18 2.77,5.54 1.85,1.37 4.42,2.06 7.7,2.06z"/>
   <path id="3" class="fil3" d="M367.65 1880.98l12.83 0 0 54.83 -12.83 0 0 -54.83zm6.47 -9.04c-2.33,0 -4.28,-0.74 -5.85,-2.2 -1.57,-1.47 -2.36,-3.3 -2.36,-5.5 0,-2.19 0.79,-4.02 2.36,-5.49 1.57,-1.47 3.53,-2.21 5.85,-2.21 2.33,0 4.28,0.7 5.85,2.11 1.57,1.4 2.36,3.17 2.36,5.29 0,2.26 -0.77,4.16 -2.31,5.7 -1.54,1.54 -3.51,2.31 -5.91,2.31z"/>
   <polygon id="4" class="fil3" points="397.33,1859.62 410.17,1859.62 410.17,1935.82 397.33,1935.82 "/>
   <path id="5" class="fil3" d="M447.96 1880.37c8.08,0 14.26,1.93 18.54,5.8 4.28,3.87 6.42,9.7 6.42,17.51l0 32.14 -12.12 0 0 -6.67c-1.57,2.39 -3.81,4.22 -6.72,5.49 -2.91,1.27 -6.42,1.9 -10.53,1.9 -4.11,0 -7.7,-0.7 -10.78,-2.11 -3.08,-1.41 -5.46,-3.35 -7.13,-5.85 -1.68,-2.5 -2.52,-5.32 -2.52,-8.47 0,-4.93 1.83,-8.88 5.49,-11.86 3.66,-2.98 9.43,-4.47 17.3,-4.47l14.17 0 0 -0.82c0,-3.83 -1.15,-6.78 -3.44,-8.83 -2.3,-2.05 -5.7,-3.08 -10.22,-3.08 -3.08,0 -6.11,0.48 -9.09,1.44 -2.98,0.96 -5.49,2.29 -7.55,4l-5.03 -9.34c2.87,-2.19 6.33,-3.87 10.37,-5.03 4.04,-1.17 8.32,-1.75 12.84,-1.75zm-1.75 46.83c3.22,0 6.08,-0.74 8.57,-2.21 2.5,-1.47 4.26,-3.57 5.29,-6.31l0 -6.37 -13.25 0c-7.39,0 -11.09,2.43 -11.09,7.29 0,2.33 0.93,4.18 2.77,5.54 1.85,1.37 4.42,2.06 7.7,2.06z"/>
   <path id="6" class="fil3" d="M519.73 1880.37c5.34,0 10.12,1.17 14.33,3.49 4.21,2.33 7.51,5.61 9.91,9.86 2.4,4.24 3.59,9.14 3.59,14.69 0,5.54 -1.2,10.46 -3.59,14.74 -2.4,4.28 -5.7,7.58 -9.91,9.91 -4.21,2.33 -8.98,3.49 -14.33,3.49 -3.76,0 -7.2,-0.65 -10.32,-1.95 -3.11,-1.3 -5.73,-3.25 -7.85,-5.85l0 7.09 -12.22 0 0 -76.2 12.83 0 0 28.04c2.19,-2.4 4.78,-4.21 7.75,-5.44 2.98,-1.23 6.25,-1.85 9.81,-1.85zm-1.44 45.19c4.72,0 8.61,-1.57 11.66,-4.72 3.04,-3.15 4.57,-7.29 4.57,-12.43 0,-5.13 -1.52,-9.28 -4.57,-12.43 -3.05,-3.15 -6.93,-4.72 -11.66,-4.72 -3.08,0 -5.85,0.7 -8.32,2.11 -2.46,1.4 -4.41,3.41 -5.85,6.01 -1.44,2.6 -2.16,5.61 -2.16,9.04 0,3.42 0.72,6.43 2.16,9.04 1.44,2.6 3.39,4.61 5.85,6.01 2.46,1.4 5.24,2.11 8.32,2.11z"/>
   <polygon id="7" class="fil3" points="559.78,1859.62 572.62,1859.62 572.62,1935.82 559.78,1935.82 "/>
   <path id="8" class="fil3" d="M641.01 1908.71c0,0.89 -0.07,2.16 -0.2,3.8l-43.02 0c0.75,4.04 2.72,7.24 5.9,9.6 3.19,2.36 7.14,3.54 11.86,3.54 6.02,0 10.99,-1.98 14.89,-5.96l6.88 7.91c-2.46,2.94 -5.58,5.17 -9.34,6.68 -3.76,1.5 -8.01,2.26 -12.73,2.26 -6.03,0 -11.33,-1.2 -15.92,-3.59 -4.59,-2.4 -8.13,-5.74 -10.63,-10.01 -2.5,-4.28 -3.75,-9.12 -3.75,-14.53 0,-5.34 1.22,-10.15 3.65,-14.43 2.43,-4.28 5.8,-7.61 10.11,-10.01 4.31,-2.4 9.17,-3.59 14.58,-3.59 5.34,0 10.11,1.18 14.33,3.54 4.21,2.36 7.5,5.68 9.86,9.96 2.36,4.28 3.54,9.22 3.54,14.84zm-27.72 -18.07c-4.11,0 -7.58,1.22 -10.42,3.65 -2.84,2.43 -4.57,5.67 -5.19,9.7l31.12 0c-0.55,-3.97 -2.23,-7.19 -5.03,-9.65 -2.81,-2.46 -6.3,-3.7 -10.48,-3.7z"/>
   <path class="fil3" d="M312.04 1633.81l0 11.3 -52.99 0 0 -8.93 28.55 -27.11c3.22,-3.08 5.39,-5.77 6.52,-8.06 1.13,-2.29 1.7,-4.57 1.7,-6.83 0,-3.35 -1.13,-5.92 -3.39,-7.7 -2.26,-1.78 -5.58,-2.67 -9.96,-2.67 -7.33,0 -12.94,2.5 -16.84,7.5l-9.34 -7.19c2.81,-3.77 6.59,-6.69 11.35,-8.78 4.76,-2.09 10.08,-3.13 15.97,-3.13 7.8,0 14.03,1.85 18.69,5.55 4.65,3.7 6.98,8.73 6.98,15.09 0,3.9 -0.82,7.56 -2.46,10.99 -1.65,3.42 -4.8,7.32 -9.45,11.7l-19.2 18.28 33.89 0z"/>
   <path id="1" class="fil3" d="M349.41 1646.13c-5.75,0 -10.89,-1.46 -15.41,-4.37 -4.52,-2.91 -8.07,-7.15 -10.68,-12.73 -2.6,-5.58 -3.9,-12.2 -3.9,-19.87 0,-7.67 1.3,-14.29 3.9,-19.87 2.6,-5.58 6.16,-9.82 10.68,-12.73 4.52,-2.91 9.65,-4.37 15.41,-4.37 5.75,0 10.9,1.46 15.45,4.37 4.56,2.91 8.13,7.15 10.73,12.73 2.6,5.58 3.9,12.2 3.9,19.87 0,7.67 -1.3,14.29 -3.9,19.87 -2.6,5.58 -6.18,9.82 -10.73,12.73 -4.55,2.91 -9.7,4.37 -15.45,4.37zm0 -11.61c5.13,0 9.19,-2.12 12.17,-6.37 2.98,-4.24 4.46,-10.57 4.46,-19 0,-8.42 -1.49,-14.75 -4.46,-19 -2.98,-4.25 -7.04,-6.37 -12.17,-6.37 -5.07,0 -9.09,2.12 -12.07,6.37 -2.98,4.24 -4.46,10.57 -4.46,19 0,8.42 1.49,14.75 4.46,19 2.98,4.24 7,6.37 12.07,6.37z"/>
   <path id="2" class="fil3" d="M418.52 1646.13c-5.75,0 -10.89,-1.46 -15.41,-4.37 -4.52,-2.91 -8.07,-7.15 -10.68,-12.73 -2.6,-5.58 -3.9,-12.2 -3.9,-19.87 0,-7.67 1.3,-14.29 3.9,-19.87 2.6,-5.58 6.16,-9.82 10.68,-12.73 4.52,-2.91 9.65,-4.37 15.41,-4.37 5.75,0 10.9,1.46 15.45,4.37 4.56,2.91 8.13,7.15 10.73,12.73 2.6,5.58 3.9,12.2 3.9,19.87 0,7.67 -1.3,14.29 -3.9,19.87 -2.6,5.58 -6.18,9.82 -10.73,12.73 -4.55,2.91 -9.7,4.37 -15.45,4.37zm0 -11.61c5.13,0 9.19,-2.12 12.17,-6.37 2.98,-4.24 4.46,-10.57 4.46,-19 0,-8.42 -1.49,-14.75 -4.46,-19 -2.98,-4.25 -7.04,-6.37 -12.17,-6.37 -5.07,0 -9.09,2.12 -12.07,6.37 -2.98,4.24 -4.46,10.57 -4.46,19 0,8.42 1.49,14.75 4.46,19 2.98,4.24 7,6.37 12.07,6.37z"/>
   <polygon class="fil3" points="3287.73,1917.17 3275,1917.17 3275,1933.49 3262.06,1933.49 3262.06,1917.17 3222.63,1917.17 3222.63,1907.92 3258.06,1861.61 3272.33,1861.61 3238.96,1905.87 3262.47,1905.87 3262.47,1891.39 3275,1891.39 3275,1905.87 3287.73,1905.87 "/>
   <polygon id="1" class="fil3" points="3315.67,1861.61 3315.67,1933.49 3302.31,1933.49 3302.31,1872.8 3287.12,1872.8 3287.12,1861.61 "/>
   <path id="2" class="fil3" d="M3337.95 1934.21c-2.33,0 -4.31,-0.81 -5.96,-2.41 -1.64,-1.61 -2.46,-3.65 -2.46,-6.11 0,-2.54 0.81,-4.59 2.41,-6.16 1.61,-1.57 3.61,-2.36 6.01,-2.36 2.4,0 4.4,0.79 6.01,2.36 1.61,1.57 2.41,3.63 2.41,6.16 0,2.46 -0.82,4.5 -2.46,6.11 -1.64,1.61 -3.63,2.41 -5.96,2.41z"/>
   <path id="3" class="fil3" d="M3386.62 1891.29c6.64,0.82 11.71,3.08 15.2,6.78 3.49,3.7 5.24,8.32 5.24,13.87 0,4.17 -1.06,7.97 -3.19,11.4 -2.12,3.42 -5.32,6.14 -9.6,8.16 -4.28,2.02 -9.5,3.03 -15.66,3.03 -5.13,0 -10.08,-0.74 -14.84,-2.21 -4.76,-1.47 -8.81,-3.51 -12.17,-6.11l5.75 -10.37c2.6,2.19 5.77,3.92 9.5,5.19 3.73,1.27 7.58,1.9 11.56,1.9 4.72,0 8.44,-0.97 11.14,-2.93 2.7,-1.95 4.06,-4.6 4.06,-7.96 0,-3.35 -1.28,-5.98 -3.85,-7.86 -2.57,-1.88 -6.49,-2.82 -11.76,-2.82l-6.57 0 0 -9.14 16.33 -19.41 -32.65 0 0 -11.19 48.98 0 0 8.93 -17.46 20.74z"/>
   <path id="4" class="fil3" d="M3437.25 1889.44c10.13,0 17.63,1.97 22.49,5.91 4.86,3.94 7.29,9.3 7.29,16.07 0,4.31 -1.06,8.22 -3.19,11.71 -2.12,3.49 -5.3,6.26 -9.55,8.31 -4.24,2.06 -9.48,3.08 -15.71,3.08 -5.13,0 -10.1,-0.74 -14.89,-2.21 -4.79,-1.47 -8.83,-3.51 -12.12,-6.11l5.65 -10.37c2.67,2.19 5.87,3.92 9.6,5.19 3.73,1.27 7.58,1.9 11.56,1.9 4.72,0 8.44,-0.97 11.14,-2.93 2.7,-1.95 4.06,-4.64 4.06,-8.06 0,-3.7 -1.45,-6.49 -4.37,-8.37 -2.91,-1.88 -7.89,-2.82 -14.94,-2.82l-17.35 0 3.7 -39.13 42.2 0 0 11.19 -30.91 0 -1.54 16.63 6.88 0z"/>
   <path id="5" class="fil3" d="M3504.81 1891.29c6.64,0.82 11.71,3.08 15.2,6.78 3.49,3.7 5.24,8.32 5.24,13.87 0,4.17 -1.06,7.97 -3.19,11.4 -2.12,3.42 -5.32,6.14 -9.6,8.16 -4.28,2.02 -9.5,3.03 -15.66,3.03 -5.13,0 -10.08,-0.74 -14.84,-2.21 -4.76,-1.47 -8.81,-3.51 -12.17,-6.11l5.75 -10.37c2.6,2.19 5.77,3.92 9.5,5.19 3.73,1.27 7.58,1.9 11.56,1.9 4.72,0 8.44,-0.97 11.14,-2.93 2.7,-1.95 4.06,-4.6 4.06,-7.96 0,-3.35 -1.28,-5.98 -3.85,-7.86 -2.57,-1.88 -6.49,-2.82 -11.76,-2.82l-6.57 0 0 -9.14 16.33 -19.41 -32.65 0 0 -11.19 48.98 0 0 8.93 -17.46 20.74z"/>
   <path id="6" class="fil3" d="M3566.63 1889.13c4.72,0 8.97,0.91 12.73,2.72 3.77,1.81 6.71,4.4 8.83,7.76 2.13,3.35 3.19,7.22 3.19,11.6 0,4.65 -1.17,8.74 -3.49,12.27 -2.33,3.52 -5.48,6.25 -9.44,8.17 -3.97,1.91 -8.42,2.87 -13.35,2.87 -9.86,0 -17.51,-3.08 -22.95,-9.24 -5.44,-6.16 -8.16,-14.99 -8.16,-26.49 0,-8.08 1.47,-14.98 4.41,-20.69 2.94,-5.72 7.07,-10.06 12.37,-13.04 5.31,-2.98 11.45,-4.47 18.43,-4.47 3.7,0 7.17,0.39 10.43,1.18 3.25,0.79 6.07,1.93 8.47,3.44l-4.93 10.06c-3.56,-2.33 -8.11,-3.49 -13.66,-3.49 -6.91,0 -12.32,2.12 -16.22,6.37 -3.9,4.24 -5.85,10.37 -5.85,18.38l0 0.1c2.12,-2.46 4.82,-4.33 8.11,-5.59 3.29,-1.27 6.98,-1.9 11.09,-1.9zm-2.26 34.91c4.18,0 7.57,-1.11 10.17,-3.33 2.6,-2.22 3.91,-5.19 3.91,-8.89 0,-3.76 -1.3,-6.74 -3.91,-8.93 -2.6,-2.19 -6.09,-3.28 -10.47,-3.28 -4.31,0 -7.82,1.16 -10.53,3.49 -2.7,2.33 -4.06,5.27 -4.06,8.83 0,3.49 1.32,6.38 3.95,8.68 2.64,2.29 6.28,3.44 10.94,3.44z"/>
   <polygon id="7" class="fil3" points="3685.75,1922.3 3685.75,1933.49 3631.84,1933.49 3631.84,1861.61 3684.31,1861.61 3684.31,1872.8 3645.19,1872.8 3645.19,1891.49 3679.9,1891.49 3679.9,1902.48 3645.19,1902.48 3645.19,1922.3 "/>
   <path id="8" class="fil3" d="M3749.42 1896.73l12.63 0 0 28.65c-3.7,2.94 -8.01,5.2 -12.94,6.78 -4.93,1.57 -10,2.36 -15.2,2.36 -7.33,0 -13.93,-1.59 -19.82,-4.78 -5.89,-3.19 -10.51,-7.58 -13.86,-13.2 -3.35,-5.61 -5.03,-11.94 -5.03,-19 0,-7.05 1.68,-13.39 5.03,-19 3.35,-5.61 7.99,-10.01 13.91,-13.2 5.92,-3.19 12.58,-4.78 19.97,-4.78 6.02,0 11.5,0.99 16.43,2.98 4.93,1.99 9.07,4.9 12.43,8.73l-8.42 8.21c-5.48,-5.48 -12.08,-8.21 -19.82,-8.21 -5.07,0 -9.57,1.06 -13.5,3.18 -3.94,2.12 -7.02,5.1 -9.24,8.93 -2.22,3.83 -3.33,8.22 -3.33,13.15 0,4.79 1.11,9.11 3.33,12.94 2.22,3.83 5.31,6.85 9.24,9.04 3.94,2.19 8.4,3.28 13.4,3.28 5.61,0 10.54,-1.23 14.78,-3.7l0 -22.39z"/>
   <path id="9" class="fil3" d="M3826.64 1933.49l-14.69 -21.05c-0.62,0.07 -1.54,0.1 -2.77,0.1l-16.22 0 0 20.95 -13.35 0 0 -71.88 29.57 0c6.23,0 11.65,1.03 16.28,3.08 4.62,2.06 8.16,5 10.63,8.83 2.46,3.83 3.7,8.39 3.7,13.66 0,5.41 -1.31,10.06 -3.95,13.96 -2.63,3.9 -6.42,6.81 -11.35,8.73l16.53 23.62 -14.37 0zm-0.31 -46.31c0,-4.59 -1.51,-8.11 -4.52,-10.58 -3.01,-2.46 -7.43,-3.7 -13.25,-3.7l-15.61 0 0 28.65 15.61 0c5.82,0 10.24,-1.25 13.25,-3.75 3.01,-2.5 4.52,-6.04 4.52,-10.63z"/>
   <polygon class="fil4" points="278.87,219.11 247.55,290.99 234.41,290.99 202.98,219.11 217.46,219.11 241.39,274.56 265.52,219.11 "/>
   <path id="1" class="fil4" d="M302.08 235.54c8.08,0 14.26,1.93 18.54,5.8 4.28,3.87 6.42,9.7 6.42,17.51l0 32.14 -12.12 0 0 -6.67c-1.57,2.39 -3.81,4.22 -6.72,5.49 -2.91,1.27 -6.42,1.9 -10.53,1.9 -4.11,0 -7.7,-0.7 -10.78,-2.11 -3.08,-1.41 -5.46,-3.35 -7.13,-5.85 -1.68,-2.5 -2.52,-5.32 -2.52,-8.47 0,-4.93 1.83,-8.88 5.49,-11.86 3.66,-2.98 9.43,-4.47 17.3,-4.47l14.17 0 0 -0.82c0,-3.83 -1.15,-6.78 -3.44,-8.83 -2.3,-2.05 -5.7,-3.08 -10.22,-3.08 -3.08,0 -6.11,0.48 -9.09,1.44 -2.98,0.96 -5.49,2.29 -7.55,4l-5.03 -9.34c2.87,-2.19 6.33,-3.87 10.37,-5.03 4.04,-1.17 8.32,-1.75 12.84,-1.75zm-1.75 46.83c3.22,0 6.08,-0.74 8.57,-2.21 2.5,-1.47 4.26,-3.57 5.29,-6.31l0 -6.37 -13.25 0c-7.39,0 -11.09,2.43 -11.09,7.29 0,2.33 0.93,4.18 2.77,5.54 1.85,1.37 4.42,2.06 7.7,2.06z"/>
   <polygon id="2" class="fil4" points="343.46,214.8 356.3,214.8 356.3,290.99 343.46,290.99 "/>
   <path id="3" class="fil4" d="M373.14 236.16l12.83 0 0 54.83 -12.83 0 0 -54.83zm6.47 -9.04c-2.33,0 -4.28,-0.74 -5.85,-2.2 -1.57,-1.47 -2.36,-3.3 -2.36,-5.5 0,-2.19 0.79,-4.02 2.36,-5.49 1.57,-1.47 3.53,-2.21 5.85,-2.21 2.33,0 4.28,0.7 5.85,2.11 1.57,1.4 2.36,3.17 2.36,5.29 0,2.26 -0.77,4.16 -2.31,5.7 -1.54,1.54 -3.51,2.31 -5.91,2.31z"/>
   <path id="4" class="fil4" d="M456.52 214.8l0 76.2 -12.32 0 0 -7.09c-2.12,2.6 -4.74,4.56 -7.85,5.85 -3.11,1.3 -6.56,1.95 -10.32,1.95 -5.27,0 -10.02,-1.17 -14.22,-3.49 -4.21,-2.33 -7.51,-5.63 -9.91,-9.91 -2.4,-4.28 -3.59,-9.19 -3.59,-14.74 0,-5.55 1.2,-10.44 3.59,-14.69 2.4,-4.24 5.7,-7.53 9.91,-9.86 4.21,-2.33 8.95,-3.49 14.22,-3.49 3.63,0 6.95,0.62 9.96,1.85 3.01,1.23 5.58,3.08 7.7,5.54l0 -28.14 12.83 0zm-28.96 65.93c3.08,0 5.85,-0.7 8.32,-2.11 2.46,-1.4 4.41,-3.41 5.85,-6.01 1.44,-2.6 2.16,-5.61 2.16,-9.04 0,-3.43 -0.72,-6.44 -2.16,-9.04 -1.44,-2.6 -3.39,-4.61 -5.85,-6.01 -2.46,-1.41 -5.24,-2.11 -8.32,-2.11 -3.08,0 -5.85,0.7 -8.32,2.11 -2.46,1.4 -4.41,3.41 -5.85,6.01 -1.44,2.6 -2.15,5.61 -2.15,9.04 0,3.42 0.72,6.43 2.15,9.04 1.44,2.6 3.39,4.61 5.85,6.01 2.46,1.4 5.24,2.11 8.32,2.11z"/>
   <path id="5" class="fil4" d="M494.31 235.54c8.08,0 14.26,1.93 18.54,5.8 4.28,3.87 6.42,9.7 6.42,17.51l0 32.14 -12.12 0 0 -6.67c-1.57,2.39 -3.81,4.22 -6.72,5.49 -2.91,1.27 -6.42,1.9 -10.53,1.9 -4.11,0 -7.7,-0.7 -10.78,-2.11 -3.08,-1.41 -5.46,-3.35 -7.13,-5.85 -1.68,-2.5 -2.52,-5.32 -2.52,-8.47 0,-4.93 1.83,-8.88 5.49,-11.86 3.66,-2.98 9.43,-4.47 17.3,-4.47l14.17 0 0 -0.82c0,-3.83 -1.15,-6.78 -3.44,-8.83 -2.3,-2.05 -5.7,-3.08 -10.22,-3.08 -3.08,0 -6.11,0.48 -9.09,1.44 -2.98,0.96 -5.49,2.29 -7.55,4l-5.03 -9.34c2.87,-2.19 6.33,-3.87 10.37,-5.03 4.04,-1.17 8.32,-1.75 12.84,-1.75zm-1.75 46.83c3.22,0 6.08,-0.74 8.57,-2.21 2.5,-1.47 4.26,-3.57 5.29,-6.31l0 -6.37 -13.25 0c-7.39,0 -11.09,2.43 -11.09,7.29 0,2.33 0.93,4.18 2.77,5.54 1.85,1.37 4.42,2.06 7.7,2.06z"/>
   <path id="6" class="fil4" d="M568.65 288.02c-1.5,1.23 -3.33,2.15 -5.49,2.77 -2.16,0.61 -4.43,0.93 -6.83,0.93 -6.02,0 -10.68,-1.57 -13.96,-4.72 -3.28,-3.15 -4.93,-7.74 -4.93,-13.76l0 -26.39 -9.04 0 0 -10.27 9.04 0 0 -12.53 12.84 0 0 12.53 14.68 0 0 10.27 -14.68 0 0 26.08c0,2.67 0.65,4.71 1.95,6.11 1.3,1.41 3.19,2.11 5.65,2.11 2.87,0 5.27,-0.75 7.19,-2.26l3.59 9.14z"/>
   <path id="7" class="fil4" d="M602.03 291.71c-5.55,0 -10.54,-1.2 -14.99,-3.59 -4.45,-2.4 -7.93,-5.74 -10.43,-10.01 -2.5,-4.28 -3.75,-9.12 -3.75,-14.53 0,-5.41 1.25,-10.24 3.75,-14.48 2.5,-4.24 5.97,-7.56 10.43,-9.96 4.45,-2.4 9.44,-3.59 14.99,-3.59 5.61,0 10.65,1.2 15.09,3.59 4.45,2.4 7.93,5.72 10.42,9.96 2.5,4.24 3.75,9.07 3.75,14.48 0,5.41 -1.25,10.25 -3.75,14.53 -2.5,4.28 -5.97,7.61 -10.42,10.01 -4.45,2.39 -9.48,3.59 -15.09,3.59zm0 -10.99c4.72,0 8.63,-1.57 11.7,-4.72 3.08,-3.15 4.62,-7.29 4.62,-12.43 0,-5.13 -1.54,-9.28 -4.62,-12.43 -3.08,-3.15 -6.98,-4.72 -11.7,-4.72 -4.72,0 -8.61,1.57 -11.66,4.72 -3.04,3.15 -4.57,7.29 -4.57,12.43 0,5.13 1.52,9.28 4.57,12.43 3.05,3.15 6.93,4.72 11.66,4.72z"/>
   <path id="8" class="fil4" d="M655.84 244.17c3.7,-5.75 10.2,-8.63 19.51,-8.63l0 12.22c-1.09,-0.2 -2.09,-0.31 -2.98,-0.31 -5,0 -8.9,1.45 -11.7,4.36 -2.81,2.91 -4.21,7.1 -4.21,12.58l0 26.59 -12.83 0 0 -54.83 12.22 0 0 8.01z"/>
   <path id="9" class="fil4" d="M736.04 235.54c8.08,0 14.26,1.93 18.54,5.8 4.28,3.87 6.42,9.7 6.42,17.51l0 32.14 -12.12 0 0 -6.67c-1.57,2.39 -3.81,4.22 -6.72,5.49 -2.91,1.27 -6.42,1.9 -10.53,1.9 -4.11,0 -7.7,-0.7 -10.78,-2.11 -3.08,-1.41 -5.46,-3.35 -7.13,-5.85 -1.68,-2.5 -2.52,-5.32 -2.52,-8.47 0,-4.93 1.83,-8.88 5.49,-11.86 3.66,-2.98 9.43,-4.47 17.3,-4.47l14.17 0 0 -0.82c0,-3.83 -1.15,-6.78 -3.44,-8.83 -2.3,-2.05 -5.7,-3.08 -10.22,-3.08 -3.08,0 -6.11,0.48 -9.09,1.44 -2.98,0.96 -5.49,2.29 -7.55,4l-5.03 -9.34c2.87,-2.19 6.33,-3.87 10.37,-5.03 4.04,-1.17 8.32,-1.75 12.84,-1.75zm-1.75 46.83c3.22,0 6.08,-0.74 8.57,-2.21 2.5,-1.47 4.26,-3.57 5.29,-6.31l0 -6.37 -13.25 0c-7.39,0 -11.09,2.43 -11.09,7.29 0,2.33 0.93,4.18 2.77,5.54 1.85,1.37 4.42,2.06 7.7,2.06z"/>
   <path id="10" class="fil4" d="M831.65 214.8l0 76.2 -12.32 0 0 -7.09c-2.12,2.6 -4.74,4.56 -7.85,5.85 -3.11,1.3 -6.56,1.95 -10.32,1.95 -5.27,0 -10.02,-1.17 -14.22,-3.49 -4.21,-2.33 -7.51,-5.63 -9.91,-9.91 -2.4,-4.28 -3.59,-9.19 -3.59,-14.74 0,-5.55 1.2,-10.44 3.59,-14.69 2.4,-4.24 5.7,-7.53 9.91,-9.86 4.21,-2.33 8.95,-3.49 14.22,-3.49 3.63,0 6.95,0.62 9.96,1.85 3.01,1.23 5.58,3.08 7.7,5.54l0 -28.14 12.83 0zm-28.96 65.93c3.08,0 5.85,-0.7 8.32,-2.11 2.46,-1.4 4.41,-3.41 5.85,-6.01 1.44,-2.6 2.16,-5.61 2.16,-9.04 0,-3.43 -0.72,-6.44 -2.16,-9.04 -1.44,-2.6 -3.39,-4.61 -5.85,-6.01 -2.46,-1.41 -5.24,-2.11 -8.32,-2.11 -3.08,0 -5.85,0.7 -8.32,2.11 -2.46,1.4 -4.41,3.41 -5.85,6.01 -1.44,2.6 -2.15,5.61 -2.15,9.04 0,3.42 0.72,6.43 2.15,9.04 1.44,2.6 3.39,4.61 5.85,6.01 2.46,1.4 5.24,2.11 8.32,2.11z"/>
   <path id="11" class="fil4" d="M902.19 214.8l0 76.2 -12.32 0 0 -7.09c-2.12,2.6 -4.74,4.56 -7.85,5.85 -3.11,1.3 -6.56,1.95 -10.32,1.95 -5.27,0 -10.02,-1.17 -14.22,-3.49 -4.21,-2.33 -7.51,-5.63 -9.91,-9.91 -2.4,-4.28 -3.59,-9.19 -3.59,-14.74 0,-5.55 1.2,-10.44 3.59,-14.69 2.4,-4.24 5.7,-7.53 9.91,-9.86 4.21,-2.33 8.95,-3.49 14.22,-3.49 3.63,0 6.95,0.62 9.96,1.85 3.01,1.23 5.58,3.08 7.7,5.54l0 -28.14 12.83 0zm-28.96 65.93c3.08,0 5.85,-0.7 8.32,-2.11 2.46,-1.4 4.41,-3.41 5.85,-6.01 1.44,-2.6 2.16,-5.61 2.16,-9.04 0,-3.43 -0.72,-6.44 -2.16,-9.04 -1.44,-2.6 -3.39,-4.61 -5.85,-6.01 -2.46,-1.41 -5.24,-2.11 -8.32,-2.11 -3.08,0 -5.85,0.7 -8.32,2.11 -2.46,1.4 -4.41,3.41 -5.85,6.01 -1.44,2.6 -2.15,5.61 -2.15,9.04 0,3.42 0.72,6.43 2.15,9.04 1.44,2.6 3.39,4.61 5.85,6.01 2.46,1.4 5.24,2.11 8.32,2.11z"/>
   <path id="12" class="fil4" d="M931.26 244.17c3.7,-5.75 10.2,-8.63 19.51,-8.63l0 12.22c-1.09,-0.2 -2.09,-0.31 -2.98,-0.31 -5,0 -8.9,1.45 -11.7,4.36 -2.81,2.91 -4.21,7.1 -4.21,12.58l0 26.59 -12.83 0 0 -54.83 12.22 0 0 8.01z"/>
   <path id="13" class="fil4" d="M1012.69 263.88c0,0.89 -0.07,2.16 -0.2,3.8l-43.02 0c0.75,4.04 2.72,7.24 5.9,9.6 3.19,2.36 7.14,3.54 11.86,3.54 6.02,0 10.99,-1.98 14.89,-5.96l6.88 7.91c-2.46,2.94 -5.58,5.17 -9.34,6.68 -3.76,1.5 -8.01,2.26 -12.73,2.26 -6.03,0 -11.33,-1.2 -15.92,-3.59 -4.59,-2.4 -8.13,-5.74 -10.63,-10.01 -2.5,-4.28 -3.75,-9.12 -3.75,-14.53 0,-5.34 1.22,-10.15 3.65,-14.43 2.43,-4.28 5.8,-7.61 10.11,-10.01 4.31,-2.4 9.17,-3.59 14.58,-3.59 5.34,0 10.11,1.18 14.33,3.54 4.21,2.36 7.5,5.68 9.86,9.96 2.36,4.28 3.54,9.22 3.54,14.84zm-27.72 -18.07c-4.11,0 -7.58,1.22 -10.42,3.65 -2.84,2.43 -4.57,5.67 -5.19,9.7l31.12 0c-0.55,-3.97 -2.23,-7.19 -5.03,-9.65 -2.81,-2.46 -6.3,-3.7 -10.48,-3.7z"/>
   <path id="14" class="fil4" d="M1041.96 291.71c-4.45,0 -8.8,-0.58 -13.04,-1.75 -4.24,-1.16 -7.63,-2.63 -10.17,-4.41l4.93 -9.76c2.46,1.64 5.43,2.96 8.88,3.95 3.46,0.99 6.86,1.49 10.22,1.49 7.67,0 11.5,-2.02 11.5,-6.06 0,-1.92 -0.97,-3.25 -2.93,-4 -1.95,-0.75 -5.08,-1.47 -9.39,-2.16 -4.52,-0.69 -8.2,-1.47 -11.04,-2.36 -2.84,-0.89 -5.31,-2.44 -7.39,-4.67 -2.09,-2.23 -3.13,-5.32 -3.13,-9.3 0,-5.2 2.17,-9.36 6.52,-12.48 4.35,-3.11 10.22,-4.67 17.61,-4.67 3.76,0 7.53,0.43 11.3,1.28 3.76,0.86 6.85,2 9.24,3.44l-4.93 9.76c-4.65,-2.74 -9.89,-4.11 -15.71,-4.11 -3.76,0 -6.62,0.56 -8.57,1.69 -1.95,1.13 -2.93,2.62 -2.93,4.47 0,2.05 1.04,3.51 3.13,4.36 2.09,0.85 5.32,1.66 9.7,2.41 4.38,0.69 7.97,1.47 10.78,2.36 2.81,0.89 5.22,2.4 7.24,4.52 2.02,2.12 3.03,5.13 3.03,9.04 0,5.13 -2.23,9.24 -6.68,12.32 -4.45,3.08 -10.51,4.62 -18.17,4.62z"/>
   <path id="15" class="fil4" d="M1094.84 291.71c-4.45,0 -8.8,-0.58 -13.04,-1.75 -4.24,-1.16 -7.63,-2.63 -10.17,-4.41l4.93 -9.76c2.46,1.64 5.43,2.96 8.88,3.95 3.46,0.99 6.86,1.49 10.22,1.49 7.67,0 11.5,-2.02 11.5,-6.06 0,-1.92 -0.97,-3.25 -2.93,-4 -1.95,-0.75 -5.08,-1.47 -9.39,-2.16 -4.52,-0.69 -8.2,-1.47 -11.04,-2.36 -2.84,-0.89 -5.31,-2.44 -7.39,-4.67 -2.09,-2.23 -3.13,-5.32 -3.13,-9.3 0,-5.2 2.17,-9.36 6.52,-12.48 4.35,-3.11 10.22,-4.67 17.61,-4.67 3.76,0 7.53,0.43 11.3,1.28 3.76,0.86 6.85,2 9.24,3.44l-4.93 9.76c-4.65,-2.74 -9.89,-4.11 -15.71,-4.11 -3.76,0 -6.62,0.56 -8.57,1.69 -1.95,1.13 -2.93,2.62 -2.93,4.47 0,2.05 1.04,3.51 3.13,4.36 2.09,0.85 5.32,1.66 9.7,2.41 4.38,0.69 7.97,1.47 10.78,2.36 2.81,0.89 5.22,2.4 7.24,4.52 2.02,2.12 3.03,5.13 3.03,9.04 0,5.13 -2.23,9.24 -6.68,12.32 -4.45,3.08 -10.51,4.62 -18.17,4.62z"/>
   <path class="fil5" d="M1818.67 2676.27c-5.55,0 -10.9,-0.79 -16.07,-2.36 -5.17,-1.57 -9.26,-3.66 -12.27,-6.26l4.62 -10.37c2.94,2.33 6.56,4.23 10.83,5.7 4.28,1.47 8.57,2.21 12.89,2.21 5.34,0 9.33,-0.85 11.96,-2.57 2.64,-1.71 3.96,-3.97 3.96,-6.78 0,-2.05 -0.74,-3.75 -2.21,-5.08 -1.47,-1.33 -3.34,-2.38 -5.6,-3.13 -2.26,-0.76 -5.34,-1.61 -9.24,-2.57 -5.48,-1.3 -9.91,-2.6 -13.3,-3.91 -3.39,-1.3 -6.3,-3.33 -8.73,-6.11 -2.43,-2.78 -3.65,-6.52 -3.65,-11.25 0,-3.97 1.08,-7.58 3.24,-10.83 2.16,-3.25 5.41,-5.84 9.76,-7.76 4.35,-1.91 9.67,-2.87 15.97,-2.87 4.38,0 8.69,0.55 12.94,1.64 4.24,1.1 7.91,2.67 10.99,4.72l-4.21 10.37c-3.15,-1.85 -6.43,-3.25 -9.85,-4.21 -3.43,-0.96 -6.74,-1.44 -9.96,-1.44 -5.27,0 -9.19,0.89 -11.76,2.67 -2.57,1.78 -3.85,4.14 -3.85,7.09 0,2.06 0.74,3.73 2.21,5.03 1.47,1.3 3.33,2.33 5.59,3.08 2.26,0.76 5.34,1.61 9.24,2.57 5.34,1.23 9.72,2.52 13.14,3.85 3.43,1.33 6.35,3.37 8.78,6.11 2.43,2.74 3.65,6.43 3.65,11.09 0,3.97 -1.08,7.56 -3.23,10.78 -2.16,3.22 -5.43,5.79 -9.81,7.7 -4.38,1.91 -9.72,2.87 -16.02,2.87z"/>
   <path id="1" class="fil5" d="M1912.83 2620.41l0 54.83 -12.22 0 0 -6.98c-2.06,2.46 -4.62,4.37 -7.7,5.7 -3.08,1.33 -6.4,2 -9.96,2 -7.33,0 -13.09,-2.04 -17.3,-6.11 -4.21,-4.07 -6.32,-10.12 -6.32,-18.13l0 -31.32 12.84 0 0 29.57c0,4.93 1.11,8.61 3.34,11.04 2.22,2.43 5.39,3.64 9.5,3.64 4.59,0 8.23,-1.42 10.94,-4.26 2.7,-2.84 4.06,-6.93 4.06,-12.27l0 -27.72 12.84 0z"/>
   <path id="2" class="fil5" d="M1960.07 2619.79c5.34,0 10.12,1.17 14.33,3.49 4.21,2.33 7.51,5.61 9.91,9.86 2.4,4.24 3.59,9.14 3.59,14.69 0,5.54 -1.2,10.46 -3.59,14.74 -2.4,4.28 -5.7,7.58 -9.91,9.91 -4.21,2.33 -8.98,3.49 -14.33,3.49 -3.76,0 -7.2,-0.65 -10.32,-1.95 -3.11,-1.3 -5.73,-3.25 -7.85,-5.85l0 7.09 -12.22 0 0 -76.2 12.83 0 0 28.04c2.19,-2.4 4.78,-4.21 7.75,-5.44 2.98,-1.23 6.25,-1.85 9.81,-1.85zm-1.44 45.19c4.72,0 8.61,-1.57 11.66,-4.72 3.04,-3.15 4.57,-7.29 4.57,-12.43 0,-5.13 -1.52,-9.28 -4.57,-12.43 -3.05,-3.15 -6.93,-4.72 -11.66,-4.72 -3.08,0 -5.85,0.7 -8.32,2.11 -2.46,1.4 -4.41,3.41 -5.85,6.01 -1.44,2.6 -2.16,5.61 -2.16,9.04 0,3.42 0.72,6.43 2.16,9.04 1.44,2.6 3.39,4.61 5.85,6.01 2.46,1.4 5.24,2.11 8.32,2.11z"/>
   <path id="3" class="fil5" d="M2069.33 2619.79c6.91,0 12.39,2 16.43,6.01 4.04,4 6.06,10.01 6.06,18.02l0 31.42 -12.83 0 0 -29.78c0,-4.79 -1.06,-8.41 -3.19,-10.83 -2.12,-2.43 -5.17,-3.65 -9.14,-3.65 -4.31,0 -7.77,1.42 -10.37,4.26 -2.6,2.84 -3.9,6.9 -3.9,12.17l0 27.83 -12.83 0 0 -29.78c0,-4.79 -1.06,-8.41 -3.19,-10.83 -2.12,-2.43 -5.17,-3.65 -9.14,-3.65 -4.38,0 -7.86,1.41 -10.43,4.21 -2.57,2.81 -3.85,6.88 -3.85,12.22l0 27.83 -12.83 0 0 -54.83 12.22 0 0 6.98c2.05,-2.46 4.62,-4.35 7.7,-5.65 3.08,-1.3 6.5,-1.95 10.27,-1.95 4.11,0 7.75,0.77 10.94,2.31 3.19,1.54 5.7,3.81 7.55,6.83 2.26,-2.88 5.17,-5.12 8.73,-6.73 3.56,-1.61 7.5,-2.41 11.81,-2.41z"/>
   <path id="4" class="fil5" d="M2108.25 2620.41l12.83 0 0 54.83 -12.83 0 0 -54.83zm6.47 -9.04c-2.33,0 -4.28,-0.74 -5.85,-2.2 -1.57,-1.47 -2.36,-3.3 -2.36,-5.5 0,-2.19 0.79,-4.02 2.36,-5.49 1.57,-1.47 3.53,-2.21 5.85,-2.21 2.33,0 4.28,0.7 5.85,2.11 1.57,1.4 2.36,3.17 2.36,5.29 0,2.26 -0.77,4.16 -2.31,5.7 -1.54,1.54 -3.51,2.31 -5.91,2.31z"/>
   <path id="5" class="fil5" d="M2170.89 2672.27c-1.5,1.23 -3.33,2.15 -5.49,2.77 -2.16,0.61 -4.43,0.93 -6.83,0.93 -6.02,0 -10.68,-1.57 -13.96,-4.72 -3.28,-3.15 -4.93,-7.74 -4.93,-13.76l0 -26.39 -9.04 0 0 -10.27 9.04 0 0 -12.53 12.84 0 0 12.53 14.68 0 0 10.27 -14.68 0 0 26.08c0,2.67 0.65,4.71 1.95,6.11 1.3,1.41 3.19,2.11 5.65,2.11 2.87,0 5.27,-0.75 7.19,-2.26l3.59 9.14z"/>
  </g>
 </g>
</svg>
