<?xml version="1.0" encoding="UTF-8"?>
<!DOCTYPE svg PUBLIC "-//W3C//DTD SVG 1.0//EN" "http://www.w3.org/TR/2001/REC-SVG-20010904/DTD/svg10.dtd">
<!-- Creator: CorelDRAW 2019 (64-Bit) -->
<svg xmlns="http://www.w3.org/2000/svg" xml:space="preserve" width="12.1368in" height="12.1842in" version="1.0" style="shape-rendering:geometricPrecision; text-rendering:geometricPrecision; image-rendering:optimizeQuality; fill-rule:evenodd; clip-rule:evenodd"
viewBox="0 0 12136.76 12184.17"
 xmlns:xlink="http://www.w3.org/1999/xlink"
 xmlns:xodm="http://www.corel.com/coreldraw/odm/2003">
 <defs>
  <style type="text/css">
   <![CDATA[
    .fil6 {fill:#263238;fill-rule:nonzero}
    .fil7 {fill:#455A64;fill-rule:nonzero}
    .fil5 {fill:#55BC7E;fill-rule:nonzero}
    .fil10 {fill:#A6A6A6;fill-rule:nonzero}
    .fil8 {fill:#AD6359;fill-rule:nonzero}
    .fil2 {fill:#C7C7C7;fill-rule:nonzero}
    .fil1 {fill:#DBDBDB;fill-rule:nonzero}
    .fil3 {fill:#EB9481;fill-rule:nonzero}
    .fil0 {fill:#EBEBEB;fill-rule:nonzero}
    .fil4 {fill:white;fill-rule:nonzero}
    .fil9 {fill:white;fill-rule:nonzero;fill-opacity:0.200000}
   ]]>
  </style>
 </defs>
 <g id="Layer_x0020_1">
  <metadata id="CorelCorpID_0Corel-Layer"/>
  <g id="_1604896816112">
   <path class="fil0" d="M3887.69 11845.72c219.66,-2.28 442.01,-3.51 666.91,-3.51 1232.65,0 2392.99,35.08 3408.31,96.87 -598.9,159.58 -1228.01,245.1 -1877.18,245.1 -766.17,0 -1504.53,-118.81 -2198.04,-338.46z"/>
   <path class="fil1" d="M-0 8893.8c116.81,-597.53 411.04,-1155.34 877.93,-1616.49 875.88,-865.21 1988.47,-690.63 3047.6,-828.54l3.05 0c369,-47.91 730.87,-133.85 1074.42,-315.1 1090.7,-575.63 1705.52,-1934.06 2623.17,-3074.58 114.52,-143.02 234.12,-282.5 359.33,-416.35 754.78,-805.66 2256.72,-832.13 3042.04,300.83 1316.37,1898.63 1365.82,4409.4 646.3,6622.11 -1334.02,1600.05 -3342.02,2618.5 -5588.11,2618.5 -2546.32,0 -4786.58,-1308.95 -6085.73,-3290.38z"/>
   <path class="fil2" d="M10200.99 6040.54c-218.85,3424.79 -4173.46,4703.34 -6644.45,3677.29 -2147.78,-892.29 -1444.94,-2928.13 367.98,-3269.06l4.06 0c369,-47.91 730.87,-133.85 1074.42,-315.1 1090.7,-575.63 1705.52,-1934.06 2623.17,-3074.58 1366.05,-710.51 2735.15,473.85 2574.82,2981.45z"/>
   <path class="fil3" d="M3960.6 11868.37c812.21,-640.25 2044.35,-1647.43 2078.13,-1744.91 19.34,-53.96 -262.63,-451.98 -616.85,-923.33 -76.35,-101.77 -155.74,-203.54 -237.18,-311.98 -527.79,-687.61 -1103.42,-1404.69 -1103.42,-1404.69l-1750.32 1390.94 1151.26 1366.04 254.48 300.31c0,0 -324.94,630.34 -525.95,1052.58 243.39,104.86 493.59,196.85 749.85,275.04z"/>
   <path class="fil4" d="M3960.6 11868.37c812.21,-640.25 2044.35,-1647.43 2078.13,-1744.91 22.91,-65.73 -397.5,-639.79 -854.03,-1235.31l-1702.47 1352.29 254.48 300.31c0,0 -324.94,630.34 -525.95,1052.58 243.39,104.86 493.59,196.85 749.85,275.04z"/>
   <path class="fil5" d="M3960.6 11868.37c812.21,-640.25 2044.35,-1647.43 2078.13,-1744.91 19.34,-53.96 -262.63,-451.98 -616.85,-923.33l-1686.69 1340.63c0,0 -324.67,629.8 -525.7,1052.03 243.78,105.09 494.41,197.27 751.11,275.59z"/>
   <path class="fil6" d="M3770.05 11807.52c698.95,-564.87 1756.56,-1404.82 2092.58,-1644.9 4.07,-2.6 5.61,0 0,3.02 -307.31,269.84 -1351.36,1099.56 -2059.39,1652.65 -11.04,-3.65 -22.17,-7.07 -33.18,-10.77z"/>
   <path class="fil6" d="M3307.67 11634.2l3.55 -1.06c59.75,-17.5 122.49,-22.4 184.25,-14.38 111.43,13.13 213.42,68.96 284.5,155.73 0,2.5 -2.54,6.56 -5.08,4.06 -84.22,-74.58 -190.36,-119.89 -302.5,-129.06 -39.59,-3.24 -79.17,-1.91 -118,3.79 -15.59,-6.32 -31.18,-12.66 -46.72,-19.09z"/>
   <path class="fil6" d="M3599.8 10719.91c173.55,-142.5 426,-242.81 649.43,-186.77 8.65,2.5 5.09,14.79 0,16.25 -217.37,42.08 -429.63,107.29 -633.15,194.48 -3.17,2.08 -7.06,2.92 -10.83,2.19 -3.77,-0.73 -7.11,-2.91 -9.27,-6.04 -2.16,-3.13 -2.97,-7.08 -2.25,-10.83 0.72,-3.75 2.89,-7.08 6.07,-9.27l0 0z"/>
   <path class="fil6" d="M3507.17 10878.66c173.05,-142.5 425.49,-242.71 648.93,-186.77 8.66,2.61 5.08,14.79 0,16.35 -217.95,42.61 -430.72,108.54 -634.68,196.46 -3.44,1.88 -7.49,2.3 -11.26,1.25 -3.77,-1.15 -6.95,-3.65 -8.84,-7.19 -1.89,-3.44 -2.33,-7.39 -1.23,-11.25 1.09,-3.75 3.65,-6.87 7.09,-8.85l0 0z"/>
   <path class="fil6" d="M3414.03 11041.58c173.04,-142.5 425.49,-242.82 648.93,-186.77 8.65,0 5.59,14.79 0,15.73 -217.17,42.5 -429.23,107.81 -632.64,195 -3.18,2.08 -7.07,2.92 -10.84,2.19 -3.77,-0.73 -7.1,-2.92 -9.26,-6.04 -2.17,-3.13 -2.98,-7.08 -2.26,-10.83 0.72,-3.75 2.91,-7.09 6.07,-9.27l0 0z"/>
   <path class="fil6" d="M3320.89 11202.41c173.04,-142.5 425.49,-242.81 648.92,-186.77 8.65,0 5.6,14.27 0,15.73 -217.22,42.29 -429.3,107.6 -632.64,195 -3.17,2.08 -7.07,2.92 -10.84,2.19 -3.77,-0.73 -7.09,-2.91 -9.26,-6.04 -2.16,-3.13 -2.97,-7.08 -2.25,-10.83 0.71,-3.75 2.9,-7.08 6.07,-9.27z"/>
   <path class="fil6" d="M5418.82 9835.85c196.96,-156.25 440.24,149.69 243.28,305.41 -196.97,155.73 -440.76,-148.65 -243.28,-305.41z"/>
   <path class="fil6" d="M3037.41 10403.87c29.51,-144.58 199,-161.87 314.53,-129.27 197.48,59.69 375.8,170.31 517.11,320.63 0.74,0.52 1.33,1.25 1.75,2.19 0.41,0.83 0.63,1.67 0.63,2.61 0,0.94 -0.22,1.87 -0.63,2.71 -0.41,0.83 -1.01,1.56 -1.75,2.19 2,3.85 3.04,8.13 3.04,12.4 0,4.37 -1.04,8.65 -3.03,12.5 -2,3.85 -4.9,7.08 -8.44,9.58 -3.55,2.5 -7.63,4.17 -11.94,4.69 -193.39,13.23 -399.02,50.94 -590.89,5.1 -113.5,-25 -248.89,-108.96 -220.37,-245.31zm512.01 200.52c95.68,-4.06 190.34,-13.23 285.52,-14.27 -101.79,-62.08 -198.49,-128.23 -305.37,-180.62 -51.24,-25.73 -104.11,-48.02 -158.28,-66.67 -84.49,-27.5 -373.58,-36.67 -238.71,167.92 73.8,113.44 303.34,98.75 416.84,93.65z"/>
   <path class="fil6" d="M4356.11 10312.73c-133.85,145.1 -325.74,227.5 -494.2,323.75 -3.89,1.88 -8.2,2.81 -12.53,2.71 -4.33,-0.1 -8.58,-1.25 -12.37,-3.33 -3.8,-2.09 -7.03,-5.11 -9.43,-8.75 -2.39,-3.54 -3.89,-7.71 -4.35,-11.98 -3.56,0 -7.13,0 -6.62,-6.67 33.8,-203.65 120.69,-394.9 251.94,-554.27 77.86,-91.56 228.01,-171.04 333.36,-67.71 105.35,103.33 32.57,241.25 -45.8,326.25zm25.96 -184.17c0,-245.41 -236.67,-76.87 -291.64,-7.7 -34.72,45.73 -66.18,93.85 -94.15,144.06 -60.06,101.77 -104.85,212.19 -152.69,320.11 79.91,-50.83 163.37,-97.71 245.32,-147.08 94.15,-59.06 294.17,-174.58 293.17,-309.38z"/>
   <path class="fil7" d="M562.82 6200.33c3.13,261.67 264.69,739.06 623.02,1272.4 689.09,1027.6 1738.06,2261.87 1997.12,2563.13l59.03 68.23 1853.63 -1425.11 -21.37 -27.5 -1632.23 -2137.6 4869.72 -28.44 -1849.05 -1437.82c0,0 -150.13,86.46 -461.63,40.63 -1074.92,-157.19 -3498.06,-505.31 -4069.12,-482.39 -736.94,31.46 -1380.27,752.7 -1369.12,1594.48z"/>
   <path class="fil6" d="M1185.84 7473.25c689.09,1027.61 1738.06,2261.87 1997.12,2563.13l1891.28 -1383.85 -1632.23 -2137.61 -2256.18 958.33z"/>
   <path class="fil6" d="M2855.7 5720.43c60.65,68.33 116.91,140.42 168.47,215.83l173.55 225.94 0 2.5c-10.18,-22.39 -20.35,-44.79 -31.04,-66.67 -36.13,-75.31 -65.15,-152.71 -108.41,-224.89 -2.55,-4.59 4.07,-8.65 6.61,-4.06 44.28,71.25 95.69,139.37 133.35,214.69 17.81,35.21 34.61,71.25 50.89,107.4 8.66,19.89 17.81,40.21 25.45,60.1 3.56,9.69 7.63,19.38 10.69,29.48 25.45,35.11 50.9,70.31 75.83,106.46 54.97,79.38 101.79,163.33 159.32,242.71 3.05,4.06 -4.07,8.13 -7.13,4.06 -55.99,-74.27 -119.11,-143.54 -176.61,-217.29 -57.51,-73.85 -113.5,-152.71 -167.96,-230.1 -54.46,-77.29 -105.35,-152.61 -158.79,-227.92 -58.17,-74.9 -111.71,-153.33 -160.32,-234.69 -0.47,-0.83 -0.6,-1.77 -0.36,-2.71 0.24,-0.83 0.83,-1.67 1.63,-2.08 0.81,-0.52 1.78,-0.63 2.69,-0.42 0.91,0.21 1.68,0.83 2.15,1.67z"/>
   <path class="fil8" d="M7643.98 3011.27c-345.07,425 -1598.13,1639.79 -2380.4,1817.91 -431.08,98.23 -2514.25,389.9 -2799.27,129.79 -334.9,-305.31 -179.66,-1451.04 86.52,-1461.67 811.28,-32.08 2312.71,126.67 2687.81,44.27 169.99,-37.71 1068.82,-617.91 2029.73,-1081.54 360.34,-175.59 608.2,262.06 375.6,551.23z"/>
   <path class="fil5" d="M2870.47 3397c0,0 4.57,44.27 12.21,119.69 0,12.19 0,25.42 3.56,39.17 4.58,43.23 9.68,94.17 15.27,150.1 0,6.67 0,13.23 0,19.9 4.41,46.77 9.5,96.67 15.27,149.58 0,12.71 3.05,25.94 4.07,39.17 5.08,48.44 10.69,98.75 15.77,150.21 0,6.56 0,13.23 0,19.79 5.61,50.94 10.69,101.77 16.29,152.71 0,12.71 3.05,25.94 4.07,38.65 5.59,50.94 11.2,101.87 16.79,150.21 0,6.56 0,13.23 2.54,19.79 5.61,50.94 11.2,101.87 16.8,150.21l4.58 38.65c4.06,32.08 7.63,63.65 11.19,94.17 2.55,18.85 5.09,37.71 7.13,55.94 0,6.67 0,13.23 0,19.9 3.74,28.54 7.3,55.94 10.69,82.39 3.06,23.44 6.11,46.35 8.66,67.71 0,13.23 4.07,26.46 6.1,38.75 10.19,69.69 18.83,122.08 26.47,152.6 1.24,6.98 3.47,13.65 6.62,19.9 0,0 2.55,3.02 3.56,3.02l25.96 -3.02 72.27 -7.61 39.2 -4.06 83.47 -8.23 66.16 -6.56 20.36 0 149.64 -15.31 39.19 -4.06 149.64 -15.21 20.35 0 149.63 -15.83 39.19 -4.06 149.63 -16.25 20.35 0 149.63 -16.35 39.19 -4.58 149.63 -17.29 20.37 0 149.63 -17.81 39.19 -4.58 32.06 -4.06 117.57 -14.69 20.35 -2.6 149.64 -19.8 9.67 0 29.52 -4.06 149.64 -21.46 20.35 -3.02c53.95,-8.13 103.83,-16.25 149.63,-24.48l39.19 -7.08c59.04,-10.73 109.94,-20.83 149.63,-31.04l20.37 -5.1 10.69 -3.02c41.69,-12.81 81.94,-29.79 120.12,-50.94l18.82 -9.69 18.32 -10.11 20.87 -11.77c46.31,-27.5 96.19,-59.48 149.63,-96.67 6.62,-4.06 13.24,-9.17 20.36,-14.27l38.68 -27.5 53.45 -38.65 57.51 -43.23 39.19 -30.1 96.7 -76.77 24.94 -19.89 28 -22.92 20.35 -16.77 26.98 -21.87c34.61,-29.06 70.23,-58.02 105.35,-88.54 6.01,-4.69 11.79,-9.58 17.3,-14.79l28.5 -23.96 10.69 -9.17c50.89,-42.71 101.79,-85.94 149.63,-130.21l12.22 -10.73 8.13 -7.08 14.26 -12.81 135.37 -121.56 31.56 -28.54 7.64 -7.08 35.62 -32.08c38.68,-35.11 76.85,-70.73 114.51,-105.83l28.5 -31.15 27.49 -25.42 21.38 -19.79 101.79 -95.21 39.19 -37.19 18.83 -17.81 41.23 -39.17 90.08 -86.56 19.85 -19.27 44.79 -43.75 20.86 -20.42 83.47 -84.48 38.69 -38.65 27.99 -27.5 32.57 -33.13 5.6 -6.04c30.52,-30.94 58.61,-64.06 83.98,-99.27 7.13,-9.17 13.74,-18.85 19.84,-28.54 6.11,-9.69 9.67,-14.69 14.25,-21.87 4.55,-6.46 8.63,-13.23 12.22,-20.31 28.41,-47.08 51.13,-97.29 67.69,-149.69 4.61,-12.81 8.51,-25.94 11.71,-39.17 12.93,-48.75 18.42,-99.27 16.28,-149.58 0,-7.19 0,-13.75 0,-20.42 -4.37,-54.06 -23.57,-105.8 -55.47,-149.63 -11.09,-14.39 -23.72,-27.54 -37.67,-39.19 -8.47,-7.3 -17.49,-13.94 -26.98,-19.85 -6.36,-4.3 -12.99,-8.22 -19.84,-11.7 -46.68,-23.22 -98.01,-35.57 -150.15,-36.15l-40.72 0c-42.5,2.02 -84.74,7.81 -126.22,17.31l-23.92 6.1c-6.73,1.22 -13.37,2.92 -19.85,5.09 -39.84,10.8 -79.09,23.72 -117.56,38.68l-32.57 13.23 -39.2 16.8 -19.33 9.15c-25.96,11.71 -50.9,24.94 -80.42,39.7l-50.9 25.96 -19.85 10.73 -136.91 73.23 -13.24 7.19 -24.43 13.23c-5.08,2.4 -10.01,5.11 -14.76,8.13 -50.9,26.98 -101.79,54.48 -149.64,81.87l-20.35 11.25 -86.52 50.94 -63.11 35.63 -6.61 3.54 -32.57 18.33 -149.63 85 -20.35 11.67 -60.57 34.59 -35.62 20.41 -50.9 30.52 -39.19 22.91 -149.64 85.52 -18.32 10.63 -66.17 38.23 -83.47 46.77 -39.19 22.39 -145.56 80.42 -4.07 0 -20.35 10.73 -14.25 7.61c-50.89,25.94 -94.15,50.94 -135.39,69.69l-39.19 18.33c-48.2,23.85 -98.24,43.75 -149.64,59.58l-7.63 0 -12.72 3.02c-7.05,1.67 -14.2,2.81 -21.39,3.54 -42.67,3.13 -85.49,3.96 -128.25,2.6l-39.2 0c-43.76,0 -94.16,0 -149.63,-4.58l-20.37 0 -60.56 -2.5 -89.07 -4.17 -39.19 0 -149.63 -8.13 -20.35 0 -149.63 -8.65 -39.19 0 -149.63 -9.17 -20.35 0 -149.64 -9.17 -39.19 -2.5 -149.64 -9.69 -20.36 0 -149.64 -10.21 -39.19 -2.5 -149.64 -10.21 -20.35 0 -149.63 -10.21 -39.19 -3.02 -149.63 -10.63 -20.35 0 -148.11 -21.46z"/>
   <path class="fil9" d="M7678.08 2409.65l0 649.95c7.13,-9.17 13.74,-18.85 19.85,-28.54l0 -610.72c-6.39,-3.97 -13.02,-7.53 -19.85,-10.69zm-338.97 -12.22l0 1014.35 -19.84 19.37 0 -1028.63c6.31,-2.15 12.78,-3.85 19.34,-5.09l0.5 0zm188.82 -23.93l0 852.03 -38.68 38.65 0 -890.67 38.68 0zm-358.81 80.93l0 1119.74 -39.19 37.08 0 -1140.03 39.19 -16.8zm-188.82 91.62l0 1207.19 -19.84 18.33 0 -1214.79 19.84 -10.73zm-358.81 194.38l0 1338.12 -8.15 7.09 -12.22 10.73 0 -1344.69 20.37 -11.25zm164.39 -90l24.43 -13.33 0 1278.54 -7.64 0 -31.55 28.54 0 -1285.62c4.74,-3.02 9.68,-5.73 14.76,-8.12l0 0zm-341.01 188.75l6.62 -3.54 0 1390.93 -10.7 9.17 -28.5 23.96 0 -1402.18 32.57 -18.33zm-182.21 101.77l0 1442.39 -20.35 16.87 0 -1446.04 20.35 -13.23zm-377.14 216.35l18.32 -10.73 0 1512.71c-7.12,5 -13.74,10.1 -20.35,14.17l0 -1514.58 2.03 -1.56zm207.15 -116.56l0 1481.56 -39.19 30.1 0 -1489.79 39.19 -21.87zm-358.81 203.54l0 1538.65 -20.87 0 -18.32 10.21 0 -1526.88 39.19 -21.98zm-188.82 104.89l0 1507.5 -20.37 5.11 0 -1501.46 20.37 -11.15zm-366.45 167.92l7.64 0 0 1406.77 -20.37 3.13 0 -1409.38 12.73 -0.52zm196.46 -79.9l0 1455.63 -39.2 7.19 0 -1443.96 39.2 -18.85zm-356.27 89.06l0 1425.11 -29.52 0 -9.68 0 0 -1425.63 39.2 0.52zm-188.82 -5.52l0 1454.06 -20.37 2.5 0 -1457.08 20.37 0.52zm-356.27 -17.81l0 1515.1 -20.37 0 0 -1515.63 20.37 0.52zm188.82 10.1l0 1482.61 -39.2 4.58 0 -1488.65 39.2 1.46zm-356.27 -19.79l0 1544.17 -39.2 4.59 0 -1550.32 39.2 1.56zm-188.82 -11.25l0 1577.81 -20.36 0 0 -1577.81 20.36 0zm-358.82 -22.92l0 1637.92 -20.35 0 0 -1638.85 20.35 0.94zm188.82 12.29l0 1605.21 -39.19 4.06 0 -1611.35 39.19 2.08zm-358.81 -23.96l0 1666.35 -39.19 4.06 0 -1669.89 39.19 -0.52zm-188.82 -12.71l0 1698.34 -20.35 0 0 -1699.37 20.35 1.04zm-358.82 -25.41l0 1475.94c-3.39,-26.46 -6.96,-53.96 -10.69,-82.5 0,-6.56 0,-13.23 0,-19.79 0,-18.33 -4.58,-37.19 -7.13,-56.04l0 -1318.65 17.81 1.04zm188.82 13.65l0 1726.98 -39.19 4.06 0 -1733.54 39.19 2.5zm83.47 1718.75l-83.47 8.23 -39.19 4.06 -72.28 7.61 -29.51 0c-3.16,-6.25 -5.39,-12.92 -6.63,-19.9l231.07 0zm1679.56 -188.75l-9.68 0 -149.62 19.79 -20.37 2.6 -117.56 14.69 -1647.5 0c0,-12.19 -3.56,-25.42 -6.11,-38.65l1950.84 1.56zm726.28 -170l-18.32 10.21 -18.83 9.58 -2659.3 0c0,-6.56 0,-13.23 0,-19.79l2696.46 0zm501.32 -358.85l-24.94 19.89 -3206.44 0c0,-6.67 0,-13.23 -2.54,-19.89l3233.92 0zm-218.35 170l-53.44 38.65 -2940.76 0 -4.58 -38.65 2998.78 0zm444.83 -356.25l-28.5 23.96c-5.52,5.21 -11.29,10.1 -17.31,14.69l-3439.53 0c0,-12.71 -2.55,-25.94 -4.07,-38.65l3489.42 0zm194.93 -170l-14.25 12.71 -8.15 7.19 -3672.64 0c0,-6.67 0,-13.23 0,-19.9l3695.03 0zm393.43 -358.85l-21.37 19.9 -4104.24 0c0,-6.67 0,-13.23 0,-19.9l4125.62 0zm-183.23 169.48l-35.63 32.08 0 7.19 -3887.43 0c0,-13.23 -2.54,-26.46 -4.06,-39.27l3927.12 0zm-2099.45 -358.75l60.56 2.5 20.37 0c55.47,0 105.85,4.06 149.62,4.59l39.2 0c42.76,1.46 85.57,0.62 128.25,-2.5 7.19,-0.83 14.33,-1.98 21.37,-3.54l0 -3.13 2057.22 0 -41.23 39.27 -4301.72 0c0,-13.75 -2.54,-26.98 -3.56,-39.27l1869.92 2.08zm778.2 -157.29l20.35 -10.73 1853.63 0 -20.86 20.42 -1873.48 0 20.36 -9.69zm650.96 -372.6l1542.65 0c-3.57,7.08 -7.66,13.96 -12.21,20.42l-1566.06 0 35.63 -20.42zm-298.25 171.04l1709.6 0 -5.6 6.15 -32.57 33.02 -1738.6 0 67.19 -39.17zm568 -323.65l63.11 -35.62 1289.2 0c-3.2,13.23 -7.11,26.35 -11.71,39.17l-1347.22 0 6.62 -3.54zm358.82 -198.54l13.23 -7.08 994.51 0c0,6.56 0,13.23 0,20.31l-1034.21 0 26.47 -13.23zm319.62 -165.91l39.19 -16.79 32.57 -13.24 523.21 0c13.94,11.65 26.58,24.79 37.67,39.2l-651.98 0 19.34 -9.17z"/>
   <path class="fil6" d="M6289.64 4364.08c485.04,-401.04 1040.82,-937.5 1298.87,-1198.13 356.27,-358.85 319.11,-896.27 -225.47,-774.12 -148.11,245.27 -793.98,1449.54 -1073.4,1972.25z"/>
   <path class="fil6" d="M3205.86 3553.76c0,-4.58 6.63,-6.04 7.63,0 23.42,118.13 33.08,239.27 46.32,358.85 13.23,119.58 25.95,246.88 37.15,371.04 21.89,246.35 47.85,494.69 55.99,742.5 -0.45,1.77 -1.47,3.33 -2.9,4.48 -1.43,1.04 -3.19,1.67 -4.99,1.67 -1.81,0 -3.57,-0.63 -5,-1.67 -1.43,-1.15 -2.45,-2.71 -2.9,-4.48 -37.15,-243.23 -57,-490.63 -79.91,-735.42 -11.2,-121.15 -22.39,-242.81 -31.04,-364.37 -8.66,-121.67 -21.89,-248.96 -20.37,-372.61z"/>
   <path class="fil5" d="M6161.38 6177.94c25.28,13.23 52.66,22.08 80.93,26.04l20.35 4.06 50.89 10.63 96.71 17.29 15.77 2.6 23.42 3.54 149.63 23.96 20.35 2.5c47.33,7.61 97.21,14.8 149.63,22.4l39.19 5.63 149.64 20.83 20.36 2.61 149.63 20.31 39.2 5.11 149.63 19.37 20.36 2.5 60.56 7.6 89.07 11.77 17.3 0c7.12,0 14.76,0 21.89,3.02l149.63 18.33 20.35 2.5 126.73 15.31 22.91 2.5 39.19 5.1 149.63 18.33 20.35 2.5 149.64 17.39 39.19 4.58 149.64 17.29 20.36 2.5 149.64 17.3c13.23,0 26.46,2.6 39.19,4.58l149.64 16.35 20.35 2.5 25.44 0 124.19 13.23 39.19 4.58 149.63 15.31 20.35 2.5 7.13 0c55.48,5.63 101.79,10.21 142.51,13.23l39.19 3.54 42.76 3.13c11.5,1.25 23.11,1.25 34.61,0 2.87,-6.25 3.94,-13.13 3.05,-19.9 0,-26.46 0,-77.91 -7.13,-149.58 0,-12.29 0,-25.52 -3.05,-39.27 -4.07,-44.27 -9.16,-94.17 -15.27,-150.1 0,-6.67 0,-13.23 0,-19.9 -5.08,-46.77 -10.69,-96.67 -16.79,-150.1l-4.58 -38.65c-5.59,-47.92 -11.71,-98.23 -18.32,-152.71 0,-6.67 0,-13.23 0,-19.9 -3.73,-26.46 -7.29,-53.44 -10.69,-80.94l-9.15 -69.17c0,-12.71 -3.56,-25.42 -5.09,-38.65 -6.61,-50.94 -13.74,-98.75 -20.87,-150.21l-3.05 -19.79c0.22,-2.92 0.22,-5.83 0,-8.65 -6.63,-46.35 -13.24,-93.65 -20.37,-141.56 0,-12.71 -3.56,-25.42 -5.59,-38.65 -7.63,-50.94 -15.27,-99.27 -22.91,-150.1l-3.05 -19.9c-7.63,-50.94 -15.27,-101.77 -23.42,-152.71 0,-12.71 -4.57,-25.42 -6.61,-38.65 -7.63,-50.94 -16.28,-101.77 -24.43,-150.1 0,-6.67 0,-13.23 -3.06,-19.9 -8.65,-50.94 -17.31,-101.77 -26.47,-150.1 0,-12.81 -4.07,-26.04 -6.61,-38.75 -2.54,-12.71 -4.58,-27.5 -7.13,-40.73l-19.85 -109.37c0,0 0,-2.5 0,-3.54l-3.06 -16.35c-9.15,-50.83 -18.83,-101.77 -28.5,-150.1 0,-12.71 -4.58,-25.94 -7.63,-38.65 -9.16,-50.94 -19.34,-101.88 -29.01,-152.71l-4.58 -19.9c-10.18,-50.83 -20.35,-101.77 -31.04,-150.1 -3.05,-13.23 -5.6,-25.94 -8.15,-39.17 -11.2,-50.94 -22.39,-101.77 -34.1,-149.69 0,-5.52 0,-10.63 -3.56,-16.25 -3.56,-5.63 0,-2.6 0,-3.54 -11.7,-50.94 -23.92,-101.77 -35.63,-150.21l-3.05 -11.67c0,-9.17 -4.58,-18.33 -7.13,-27.5 -12.72,-50.83 -25.44,-101.77 -38.68,-149.58 0,-6.67 -3.56,-13.75 -5.6,-20.42 -13.74,-50.83 -27.99,-101.77 -42.24,-149.58l-12.22 -39.27c-14.25,-47.29 -29.01,-92.6 -43.77,-135.31 0,-4.58 -3.05,-9.69 -5.08,-14.27 -2.04,-4.58 -4.59,-13.75 -7.13,-20.31 -2.55,-6.67 -5.09,-15.31 -8.15,-22.4 -8.66,-25 -17.81,-50.94 -26.98,-71.77 -9.16,-20.94 -14.76,-37.71 -22.39,-55.52 -7.64,-17.81 -11.7,-26.46 -17.3,-39.17 -22.85,-52.19 -50.27,-102.29 -81.94,-149.69 0,0 0,0 0,0 0,0 -9.17,-13.23 -13.75,-18.75 -7.97,-10.52 -16.46,-20.52 -25.45,-30.11l-14.25 -14.27 -26.97 -24.38c-34.61,-30.54 -66.68,-57.51 -96.71,-80.93 -3.65,-3.37 -7.56,-6.43 -11.7,-9.17l-20.37 -15.77 -19.33 -14.25c-46.83,-34.61 -89.58,-62.6 -130.3,-88.05l-47.33 -13.74 -8.13 -5.09c-21.81,-13.1 -45.03,-23.69 -69.22,-31.55 -23.7,-7.84 -47.83,-14.3 -72.27,-19.34l-5.6 0 -14.76 -3.05c-49.51,-8.91 -99.46,-15.2 -149.64,-18.83l-39.19 0c-50.9,0 -101.79,-3.56 -149.64,0l-20.35 0c-55.48,0 -106.89,4.58 -149.63,9.17l-39.19 4.57c-23.54,2.44 -46.84,6.71 -69.73,12.73l-8.66 3.05c-9.94,4.41 -19.21,10.23 -27.48,17.3 -15.63,12.97 -30.25,27.09 -43.77,42.25l-20.35 22.9c-19.85,23.93 -42.25,50.89 -64.65,84.49 -9.16,12.73 -18.32,25.45 -27.48,39.19 -18.83,28 -38.18,58.51 -57.51,90.59 -11.7,18.85 -23.93,38.65 -35.12,59.06l-4.06 6.56 -7.64 13.75c-26.98,47.92 -50.89,98.23 -77.36,149.69 -6.61,12.71 -12.73,25.94 -18.83,39.17 -16.28,35.63 -31.55,71.77 -45.8,108.44 -5.6,13.75 -10.69,27.5 -15.78,41.15l-4.58 12.29 -3.05 8.13c-17,47.39 -31.61,95.63 -43.77,144.58 -0.28,1.67 -0.28,3.33 0,5 -3.05,11.25 -6.11,24.48 -10.18,39.27 -9.67,39.17 -22.4,89.58 -38.18,149.58 0,6.67 -3.56,13.23 -5.59,20.42 -11.71,45.21 -24.43,95.1 -39.19,149.58 0,11.15 -5.6,22.92 -8.65,34.58 -0.24,1.56 -0.24,3.13 0,4.58 -12.22,45.11 -24.94,93.02 -38.17,143.54l0 6.67c0,6.56 -3.56,13.23 -5.09,19.79l-39.7 149.69c-3.05,12.71 -6.61,25.94 -10.18,39.17 -12.73,50.83 -25.96,98.75 -39.19,150.11 0,6.67 -3.56,13.23 -5.61,19.89 -12.72,50.83 -25.96,101.77 -39.19,152.71l-9.17 35.11c-0.06,1.15 -0.06,2.39 0,3.54 -6.61,23.96 -12.72,48.33 -19.33,72.81l-19.85 77.29c0,6.67 -3.56,13.23 -5.59,19.89 -12.73,50.83 -25.96,101.77 -38.69,150.11 -3.56,12.71 -7.12,25.52 -10.18,38.75 -13.23,50.83 -26.47,101.77 -39.19,150.11 0,6.56 -3.56,13.23 -5.09,19.79 -10.18,39.79 -20.87,79.48 -31.04,119.17l-7.63 31.04c-3.56,12.71 -6.61,25.94 -10.18,38.65l-21.37 83.02c-5.61,22.81 -11.2,45.21 -17.31,67.19 0,6.56 -3.05,13.23 -5.08,19.79l-37.67 150.1c-3.56,13.33 -6.61,26.04 -10.18,38.75 -12.73,50.83 -25.45,101.77 -37.16,150.1 0,6.67 -3.56,13.23 -5.08,19.9l-36.65 150.1 -9.17 37.71c-3.56,16.77 -7.64,33.02 -11.2,50.83 -8.65,35.1 -16.79,69.27 -23.92,101.77l-4.58 19.89c-13.23,57.5 -23.92,107.92 -32.57,152.71 -3.05,13.75 -5.59,26.98 -7.64,38.65 -10.13,31.46 -15.12,64.27 -14.76,97.19z"/>
   <path class="fil9" d="M9112.83 4440.85l0 2133.65 20.37 2.5 0 -2023.13 -19.85 -109.37c0,0 -0.51,-2.61 -0.51,-3.65zm171.01 1060.21l3.06 19.9c7.12,50.83 14.25,101.77 20.86,150.1 0,13.23 3.56,25.94 5.08,38.65l10.69 69.27 0 814.27 -39.19 -3.54 0 -1097.29c0.06,2.92 -0.11,5.73 -0.51,8.65zm-356.27 -1944.27c11.71,50.94 23.93,99.27 35.63,150.21l0 2850.1 -39.2 -4.58 0 -3007.4 3.56 11.67zm-163.89 -566.98c0,6.67 5.09,13.33 7.13,20.42 2.03,7.08 3.56,9.69 5.09,14.27l0 3515.31 -20.35 -2.5 0 -3570.83c1.52,7.08 4.07,14.69 8.13,23.33zm-346.59 -517.56l0 4026.83 -20.36 -2.5 0 -4041.12 20.36 16.79zm175.08 158.81c4.57,5.63 9.16,12.19 13.74,18.85l0 3871.14c-12.73,0 -25.96,-3.12 -39.19,-4.58l0 -3916.45c8.46,9.58 16.44,19.58 23.91,30l1.53 1.04zm-345.07 -276.88l0 4125.11 -39.2 -4.59 0 -4146.49 39.2 25.96zm-194.43 -81.95l5.59 0 0 4185.18 -20.35 -2.6 0 -4186.65 14.76 4.07zm-353.22 -26.47l0 4167.9 -20.35 -2.61 0 -4166.31 20.35 1.01zm188.82 4.58l0 4185.19 -39.19 -5.1 0 -4183.14 39.19 3.05zm-356.27 4.58l0 4137.8c-7.13,0 -14.76,0 -21.89,-3.02l-17.3 0 0 -4131.21 39.19 -3.56zm-188.82 79.91l0 4033.52 -20.35 -2.61 0 -4009.03 20.35 -21.89zm-378.67 654.98c5.09,-13.65 10.19,-27.4 15.78,-41.15l0 3372.29 -20.35 -2.5 0 -3328.64 4.57 0zm169.49 -356.25c11.2,-20.31 23.41,-40.2 35.11,-59.06l0 3774.47 -39.19 -5.1 0 -3707.19 4.07 -3.13zm-324.72 926.87c-0.24,-1.56 -0.24,-3.13 0,-4.58l0 2742.19 -39.19 -5.52 0 -2590.11c13.91,-51.56 26.97,-100.1 39.19,-145.62l0 3.65zm-188.82 717.6c-0.06,-1.15 -0.06,-2.39 0,-3.54l0 1997.6 -20.35 -2.5 0 -1918.75c7.64,-28.02 13.74,-52.5 20.35,-76.35l0 3.54zm-366.96 1435.21l9.16 -37.6 0 535.94 -20.35 -4.06 0 -444.9c3.56,-19.79 7.63,-36.15 11.2,-52.92l0 3.54zm180.17 -717.6c3.56,-12.71 6.63,-25.94 10.19,-38.65l7.63 -31.04 0 1316.15 -23.42 -3.54 -15.78 -2.6 0 -1159.37 21.37 -80.94zm2968.76 1581.87c0.88,6.77 -0.19,13.65 -3.05,19.79l-75.84 0 0 -3.02 -39.19 -3.54c-39.19,-3.02 -87.03,-7.6 -142.51,-13.23l260.59 0zm-10.18 -188.85c0,13.75 0,26.98 3.06,39.17l-1570.65 0 -126.73 -15.21 -20.36 -2.6 -149.64 -18.33c-7.12,0 -14.76,0 -21.88,-3.02l1886.21 0zm-17.31 -170c0,6.67 0,13.23 0,19.89l-2948.89 0 -15.78 -2.6 -96.71 -17.29 3061.39 0zm-3155.54 -358.75l3113.3 0c0,6.56 0,13.23 0,19.79l-3118.89 0 5.59 -19.79zm-37.15 170l3171.32 0 4.58 38.65 -3184.55 0c2.03,-11.77 4.58,-25 7.63,-38.65l1.02 0zm81.43 -356.35l3044.08 0c0,13.23 3.56,26.04 5.08,38.75l-3059.34 0 10.18 -38.75zm42.25 -170.94l2977.91 0 3.06 19.79 -2987.09 0c1.53,-8.12 3.56,-14.69 5.09,-21.35l1.02 1.56zm90.09 -356.35l2834.89 0 3.05 19.9 -2844.06 0c2.04,-10.73 3.56,-17.29 5.09,-23.96l1.02 4.06zm-42.76 170l2903.62 0c0,13.23 3.56,26.04 5.59,38.75l-2920.39 0c3.56,-16.87 6.61,-29.58 10.18,-42.81l1.01 4.06zm91.62 -358.75l2756.01 0c0,13.23 4.58,25.94 6.61,38.65l-2773.82 0c3.56,-16.77 6.63,-30 10.19,-42.71l1.01 4.06zm43.77 -170l2682.21 0c0,6.56 0,13.23 3.06,19.79l-2693.92 0c4.07,-10.63 6.11,-17.29 7.64,-23.85l1.01 4.06zm93.65 -358.85l2527.49 0 3.05 16.35c0,0 0,2.5 0,3.54l-2537.67 0c0,-10.73 4.07,-17.29 6.11,-23.96l1.01 4.06zm-44.27 170l2602.3 0c0,12.71 4.59,25.94 6.61,38.65l-2622.67 0c5.61,-18.75 9.17,-30 12.73,-42.71l1.02 4.06zm84.48 -323.65l9.17 -35.21 2443 0c3.05,12.81 5.59,26.04 7.63,38.75l-2460.81 0c-0.3,-2.6 -0.3,-5.1 0,-7.6l1.01 4.06zm53.96 -203.65l2363.6 0 4.58 19.89 -2374.8 0c2.04,-12.19 3.56,-18.85 7.13,-25.52l-0.5 5.63zm94.15 -358.75l2193.61 0 0 3.54c0,5.63 0,10.63 3.56,16.25l-2202.26 0c0.51,-12.19 2.54,-18.85 4.07,-25.41l1.02 5.62zm-44.79 169.48l2275.04 0c0,13.23 5.09,25.94 8.15,39.17l-2294.39 0c3.56,-18.85 7.13,-32.08 10.18,-44.79l1.02 5.63zm85.5 -324.27c3.06,-11.67 6.11,-23.44 8.66,-34.58l2096.4 0c0,9.17 5.09,18.33 7.13,27.5l3.05 11.67 -2117.27 0c-0.88,-3.33 -0.52,-6.98 1.02,-10.21l1.01 5.63zm50.9 -203.54l2010.39 0c0,6.56 4.06,13.75 5.59,20.31l-2020.05 0c2.03,-13.75 4.06,-20.31 5.59,-28.44l-1.53 8.13zm96.2 -346.67l0 -17.81 1805.27 0c0,6.67 5.09,13.33 7.13,20.42l-1813.94 0 1.53 -2.61zm-47.84 157.81l1907.57 0 12.22 39.17 -1928.44 0c4.06,-21.35 7.13,-34.58 10.18,-45.73l-1.53 6.56zm132.84 -356.25l1643.93 0c5.6,12.71 11.71,25.42 17.31,39.17l-1679.56 0c8.14,-22.4 13.23,-35.63 19.84,-48.33l-1.52 9.17zm84.99 -163.33l4.07 -6.67 1458.17 0c4.59,5.63 9.17,12.19 13.74,18.85 4.58,6.56 0,0 0,0l-1483.1 0 7.13 -12.19zm280.44 -362.43l8.65 -3.05 639.25 0c24.45,5.04 48.57,11.5 72.27,19.34l-746.14 0c7.67,-9.97 16.96,-18.57 27.49,-25.45l-1.53 9.16zm-156.25 166.94l1119.71 0 19.34 14.25 20.35 15.78c4.15,2.73 8.06,5.79 11.71,9.16l-1197.07 0c10.18,-22.9 18.32,-35.63 27.49,-48.35l-1.53 9.16z"/>
   <path class="fil6" d="M7399.69 6374.91c479.95,61.56 1007.73,123.75 1400.15,166.46l-72.78 -3646.67c-57.01,-146.56 -116.56,-254.48 -176.11,-308.96l-26.98 -24.48 -1124.28 3813.64z"/>
   <path class="fil6" d="M6738.04 5867c24.43,-113.02 49.02,-225.94 73.79,-338.96 49.89,-225.94 100.78,-451.77 152.69,-677.39 104.84,-455 215.97,-908.54 333.37,-1360.52 65.15,-254.48 134.87,-505.83 199,-759.79 0.29,-0.83 0.81,-1.46 1.49,-1.98 0.69,-0.41 1.5,-0.73 2.32,-0.73 0.83,0 1.65,0.31 2.33,0.73 0.68,0.52 1.2,1.15 1.49,1.98 -117.57,449.89 -219.87,903.85 -325.23,1356.87 -105.35,452.92 -208.67,901.88 -309.45,1353.75l-83.97 380.21c-28,128.33 -50.91,260.63 -87.54,385.83 -4.07,14.27 -29.01,11.15 -26.98,-4.06 13.23,-108.44 42.75,-223.96 66.68,-335.94z"/>
   <path class="fil3" d="M7499.44 2846.89c188.32,25.94 478.43,-286.04 581.74,-526.31 7.13,-16.28 -32.57,-179.16 -71.76,-379.18 -22.91,-121.64 -45.8,-257.53 -58.02,-382.73 0,-25.96 -85.51,29.52 -85.51,29.52l-158.28 54.96 -524.74 181.2c59.79,152.54 100.63,311.85 121.65,474.35 1.7,16.93 1.7,33.97 0,50.89l0 8.66c-7.13,100.77 12.72,463.13 194.93,488.65z"/>
   <path class="fil6" d="M7304 2351.11l0 8.65c27.03,1.02 54.09,-0.18 80.93,-3.56 528.8,-62.09 531.35,-740.53 531.35,-740.53l-208.68 29.01 -524.74 181.19c59.79,152.55 100.63,311.85 121.65,474.34 1.53,16.95 1.37,34 -0.51,50.9l0 0z"/>
   <path class="fil3" d="M7855.71 560.09c140.98,254.48 161.85,1079.5 4.07,1296.82 -229.54,315.56 -687.09,436.69 -976.18,142.51 -279.93,-285.52 -288.07,-1358.41 -101.79,-1564.53 269.24,-303.85 865.23,-254.48 1073.89,125.2z"/>
   <path class="fil6" d="M7173.2 1242.09c0,0 4.58,2.56 4.58,4.59 0,55.48 9.15,119.09 60.05,135.89 0,0 0,3.56 0,3.05 -62.09,-6.61 -73.29,-91.1 -64.63,-143.53z"/>
   <path class="fil6" d="M7221.04 1182.55c89.06,-9.16 101.79,168.98 18.83,178.13 -82.97,9.16 -93.15,-169.99 -18.83,-178.13z"/>
   <path class="fil6" d="M6854.08 1273.15c0,0 -4.58,3.05 -4.07,5.59 5.59,54.97 0,119.11 -46.31,140.99 0,0 0,3.56 0,3.05 61.58,-10.69 64.12,-98.23 50.38,-149.63z"/>
   <path class="fil6" d="M6800.64 1219.2c-89.57,0 -83.97,178.13 0,178.65 83.98,0.51 74.82,-178.14 0,-178.65z"/>
   <path class="fil6" d="M7287.72 1096.03c-23.92,-5.2 -47.53,-11.65 -70.75,-19.34 -25.82,-3.33 -49.81,-15.15 -68.2,-33.59 -4.72,-6.93 -7.03,-15.22 -6.57,-23.58 0.46,-8.37 3.67,-16.36 9.11,-22.73 12.76,-10.78 28.17,-17.97 44.61,-20.82 16.46,-2.87 33.39,-1.3 49.03,4.54 33.58,6.94 63.35,26.18 83.47,53.94 4.3,6.56 6.57,14.25 6.55,22.11 -0.02,7.84 -2.33,15.52 -6.67,22.07 -4.32,6.54 -10.48,11.69 -17.7,14.78 -7.2,3.08 -15.18,4 -22.89,2.62z"/>
   <path class="fil6" d="M6725.31 1134.2c24.43,-6.11 45.81,-15.26 69.73,-23.41 25.58,-4.98 48.82,-18.21 66.17,-37.67 4.35,-7.11 6.2,-15.48 5.28,-23.77 -0.93,-8.29 -4.57,-16.04 -10.38,-22.03 -13.39,-10.03 -29.2,-16.35 -45.83,-18.3 -16.61,-1.97 -33.46,0.48 -48.83,7.1 -33.08,8.96 -61.71,29.8 -80.42,58.53 -3.8,6.85 -5.54,14.65 -5.03,22.46 0.52,7.81 3.28,15.31 7.96,21.6 4.68,6.28 11.06,11.08 18.39,13.83 7.33,2.75 15.3,3.32 22.96,1.65l0 0z"/>
   <path class="fil6" d="M7190.5 1590.23c-12.47,22.85 -29.53,42.87 -50.11,58.81 -20.58,15.95 -44.24,27.46 -69.49,33.81 -22.06,5.85 -44.87,8.43 -67.69,7.63 -4.39,0.52 -8.84,0.52 -13.24,0l-12.21 0c-2.96,-0.41 -5.7,-1.78 -7.81,-3.89 -2.11,-2.11 -3.48,-4.85 -3.89,-7.81 -0.25,-1.87 -0.25,-3.75 0,-5.61l0 -6.61c-4.07,-42.75 -4.07,-107.39 -4.07,-107.39 -15.27,8.65 -92.13,50.89 -92.13,27.49 -8.52,-192.33 2.56,-385.04 33.08,-575.13 0,-1.35 0.54,-2.65 1.49,-3.59 0.96,-0.96 2.25,-1.5 3.6,-1.5 1.35,0 2.65,0.54 3.59,1.5 0.96,0.95 1.5,2.24 1.5,3.59 9.16,177.63 -13.75,356.27 -7.63,534.41 27.28,-15.24 56.58,-26.55 87.03,-33.59 6.1,0 0,125.72 0,145.06 35.08,0.99 70.01,-5.07 102.71,-17.83 32.7,-12.77 62.5,-31.97 87.63,-56.47 6.11,-1.02 10.69,2.54 7.63,7.13z"/>
   <path class="fil6" d="M6742.11 713.29c283.49,161.34 626.52,-147.09 626.52,-147.09 27.73,56.56 72.98,102.67 129,131.46 56.02,28.79 119.84,38.74 181.98,28.37 0,0 90.59,448.89 210.2,438.21 182.21,-16.29 186.78,-639.76 119.09,-756.32 -67.69,-116.55 -224.96,-134.87 -224.96,-134.87 -23.2,-72.17 -72.83,-132.89 -138.95,-169.99 -132.32,-85 -550.69,79.39 -550.69,79.39 -29.45,-55.42 -71.46,-103.18 -122.67,-139.46 -12.31,-9.02 -26.32,-15.46 -41.19,-18.92 -14.87,-3.46 -30.28,-3.87 -45.31,-1.2 -15.03,2.65 -29.36,8.34 -42.15,16.7 -12.77,8.35 -23.72,19.22 -32.18,31.93 24.95,31.81 42.35,68.88 50.9,108.41 32.57,130.8 -75.83,139.44 -85,19.33 -4.76,-45.03 6.59,-90.29 32.06,-127.74 -60.05,-74.31 -149.64,-92.64 -199,-45.81 -88.05,84.49 -103.32,553.75 132.33,687.61z"/>
   <path class="fil3" d="M7821.61 1241.08c0,0 131.3,-291.13 260.07,-248.89 128.77,42.25 63.63,440.25 -63.61,517.1 -15.68,10.98 -33.42,18.69 -52.15,22.64 -18.73,3.96 -38.06,4.08 -56.85,0.37 -18.77,-3.71 -36.61,-11.18 -52.43,-21.95 -15.82,-10.78 -29.3,-24.65 -39.63,-40.76l4.58 -228.52z"/>
   <path class="fil6" d="M8060.31 1106.72c0,0 3.05,2.54 0,3.56 -89.07,57 -122.66,155.74 -140.98,254.48 3.77,-10.71 9.82,-20.47 17.74,-28.61 7.92,-8.15 17.51,-14.46 28.11,-18.53 10.59,-4.06 21.96,-5.78 33.28,-5.02 11.32,0.76 22.35,3.96 32.32,9.4 2.54,0 0,5.6 0,5.6 -17.97,-2.22 -36.19,1.2 -52.13,9.76 -15.96,8.57 -28.85,21.87 -36.93,38.08 -13.04,27.04 -23.27,55.35 -30.54,84.49 -3.05,9.67 -19.34,8.13 -17.81,-2.56 -25.45,-125.2 37.65,-314.53 166.94,-350.67z"/>
   <path class="fil5" d="M7304 2359.77l171.01 426.5 590.9 -567.99 157.27 191.87c0,0 -588.35,913.09 -590.89,871.32l-178.65 -404.06 -282.98 269.17 42.24 -695.2 91.1 -91.61z"/>
   <path class="fil6" d="M7172.18 2801.06c10.69,-114.58 18.32,-230.62 34.61,-344.58 0.29,-0.78 0.8,-1.46 1.49,-1.93 0.68,-0.48 1.49,-0.73 2.32,-0.73 0.83,0 1.65,0.25 2.32,0.73 0.69,0.47 1.21,1.15 1.5,1.93 19.84,111.46 -23.93,549.17 -26.47,654.48 12.22,-11.67 262.11,-236.67 264.65,-233.02 39.19,64.58 170.5,356.24 179.67,385.2 93.13,-145 487.07,-716.04 595.99,-852.48 0.66,-0.56 1.47,-0.91 2.33,-0.98 0.86,-0.07 1.73,0.14 2.47,0.59 0.74,0.45 1.31,1.13 1.63,1.93 0.32,0.8 0.39,1.69 0.18,2.53 -82.96,152.68 -591.92,907.46 -599.04,905.49 -69.73,-138.96 -132.07,-281.56 -186.79,-427.08 -42.75,50.94 -296.21,305.41 -296.72,286.56 -0.06,-126.45 6.56,-252.91 19.84,-378.64l0 0z"/>
   <polygon class="fil10" points="4976.53,5445.12 2909.65,5445.12 2519.28,2520.09 4585.66,2520.09 "/>
   <polygon class="fil1" points="4874.74,5445.12 2808.37,5445.12 2417.49,2520.09 4484.38,2520.09 "/>
   <path class="fil4" d="M3445.08 3837.83c5.59,54.37 30.95,105 71.27,141.98 40.32,37.08 92.82,58.02 147.57,59.06 25.74,0.42 51.26,-4.69 74.89,-14.79 23.63,-10.21 44.81,-25.31 62.16,-44.38 17.33,-19.06 30.42,-41.46 38.37,-65.94 7.97,-24.48 10.63,-50.41 7.8,-75.94 -4.89,-54.89 -29.89,-106.04 -70.19,-143.65 -40.3,-37.6 -93.06,-58.96 -148.15,-60 -25.99,-0.42 -51.78,4.69 -75.64,15 -23.84,10.31 -45.2,25.63 -62.61,44.9 -17.42,19.37 -30.49,42.19 -38.33,66.98 -7.85,24.8 -10.28,50.94 -7.15,76.77z"/>
   <path class="fil3" d="M8694.98 3174.08c97.22,1361.46 -142.5,2298.96 -382.22,2399.27 -646.38,270.73 -2611.47,421.35 -3061.89,373.54 -176.11,-18.33 -60.06,-1478.54 129.27,-1475.94 469.26,12.71 2188.52,26.98 2210.92,16.77 146.07,-68.75 152.69,-522.71 490.63,-1492.81 272.29,-782.74 573.59,-377.6 613.29,179.17z"/>
   <path class="fil3" d="M3877.69 4181.89c-24.51,35.31 -37.65,77.29 -37.65,120.31 0,43.02 13.13,85 37.65,120.42 -68.24,25.94 -125.17,75.21 -160.82,138.85 -57.52,115.63 97.72,254.48 97.72,254.48 -65,42.19 -115.88,102.81 -146.07,174.06 -44.28,116.04 92.63,280.52 92.63,280.52 -38.39,71.46 -49.94,154.27 -32.58,233.54 35.13,135.42 372.56,307.92 573.61,372.08 201.03,64.17 830.61,58.54 951.24,69.17l422.95 -1285.63c0,0 -818.41,-544.06 -1065.25,-586.25 -210.71,-33.65 -636.2,-22.92 -733.42,108.44z"/>
   <path class="fil6" d="M3890.93 4404.81c230.05,-15.83 451.96,37.6 676.92,78.85 5.08,0 3.56,8.65 0,7.6 -222.93,-43.23 -451.96,-41.67 -676.41,-75.83 -1.17,-0.31 -2.2,-0.94 -2.94,-1.88 -0.76,-0.94 -1.2,-2.08 -1.25,-3.23 -0.06,-1.25 0.27,-2.39 0.93,-3.44 0.67,-0.94 1.63,-1.77 2.76,-2.08l0 0z"/>
   <path class="fil6" d="M3821.71 4802.31c51.76,1.56 103.09,10 152.69,24.89 54.46,12.71 108.41,26.46 162.35,40.73 107.39,28.96 214.78,60.52 320.65,95.1 0.61,-0.21 1.28,-0.21 1.93,-0.21 0.66,0.11 1.27,0.31 1.81,0.73 0.54,0.42 0.98,0.83 1.28,1.46 0.31,0.63 0.47,1.25 0.47,1.87 0,0.63 -0.15,1.35 -0.47,1.87 -0.3,0.63 -0.74,1.15 -1.28,1.46 -0.54,0.42 -1.16,0.63 -1.81,0.73 -0.65,0.1 -1.31,0 -1.93,-0.21 -107.39,-28.54 -215.29,-56.04 -323.7,-79.89 -54.46,-12.3 -108.92,-23.44 -163.38,-34.69 -52.19,-7.29 -103.39,-20.52 -152.69,-39.17 -1.96,-0.52 -3.63,-1.77 -4.63,-3.54 -1,-1.77 -1.26,-3.85 -0.72,-5.83 0.54,-1.98 1.83,-3.65 3.61,-4.69 1.76,-0.94 3.85,-1.25 5.81,-0.63z"/>
   <path class="fil6" d="M3763.17 5273.04c47.53,1.98 94.37,12.08 138.44,30l146.59 41.77c98.23,27.5 195.94,54.48 294.68,78.33 5.09,0 3.56,9.17 0,7.71 -101.8,-23.44 -203.59,-45.83 -301.3,-70.73 -50.9,-11.77 -98.74,-24.48 -148.11,-37.19 -45.8,-7.19 -89.94,-22.5 -130.29,-45.31 0,0 -2.54,-4.58 0,-4.58z"/>
   <path class="fil5" d="M5564.38 4401.68l0 1638.85 130.29 -6.56c12.21,0 25.45,0 39.19,0l43.77 0 105.86 -5.62c6.61,0 13.23,0 20.35,0l149.64 -9.69 39.19 0 149.64 -10.21 20.35 0 149.63 -11.67 39.2 -3.02 149.63 -12.81 20.37 0 149.63 -13.65 39.19 -4.06 149.63 -15.83 20.35 0c50.9,-5.1 101.79,-11.15 149.63,-16.77l39.19 -4.59 149.63 -19.37 19.85 -15.73 72.78 -10.21 76.85 -11.25 39.2 -6.04 14.25 -2.6c46.31,-7.09 91.1,-14.69 135.37,-22.81l20.37 -3.65c50.89,-9.17 101.79,-18.75 149.63,-28.96l39.19 -8.65c50.89,-11.77 101.79,-23.44 149.63,-36.15l20.35 -5.63c51.92,-14.27 99.25,-28.96 142,-44.27l7.64 -2.5 39.19 -15.31c16.29,-7.08 32.06,-13.75 46.31,-20.83 36.67,-16.46 70.91,-37.92 101.79,-63.65l5.09 -4.58 15.27 -15.73c19.14,-20.31 36.19,-42.5 50.9,-66.25 4.07,-6.04 7.63,-12.71 11.71,-19.79 27.22,-48.02 50.37,-98.23 69.22,-150.21l13.74 -38.65 4.57 -14.27c13.75,-40.73 26.98,-84.48 39.2,-130.73l0 -5.1 4.57 -19.9c12.73,-47.81 23.93,-98.23 35.13,-152.71 0,-12.71 5.08,-25.42 7.13,-38.65 10.18,-48.33 18.83,-98.75 26.97,-150.1 0,-6.67 2.55,-13.23 3.56,-19.9 7.63,-50.94 14.76,-99.27 21.39,-150.1 0,-12.71 3.56,-25.94 5.08,-38.75 6.1,-50.83 12.22,-101.77 17.3,-150.1 0,-6.67 0,-13.23 0,-19.9 5.09,-50.83 9.68,-101.77 13.75,-150.1l3.05 -38.65c3.06,-38.75 5.59,-77.4 8.15,-116.04 0,-11.25 0,-22.39 0,-34.17l0 -19.79c3.06,-50.94 5.09,-101.77 7.13,-150.21 0,-13.23 0,-26.46 0,-39.17 0,-50.83 3.05,-101.77 4.06,-149.58l0 -19.89c0,-50.83 0,-101.77 0,-150.11l0 -39.17c0,-50.94 0,-101.87 -3.05,-149.69 0,-7.08 0,-13.75 0,-20.31 0,-50.94 -3.56,-101.87 -6.61,-149.69 0,-13.23 0,-26.46 0,-39.17 0,-24.48 -3.56,-47.29 -5.59,-69.69 -2.04,-22.39 -5.61,-55 -8.66,-80 0,-7.08 0,-13.65 0,-20.31 -4.58,-35.11 -10.18,-66.67 -15.78,-94.17 -4.07,-19.38 -8.14,-37.61 -13.23,-55.42 -5.09,-17.81 -7.64,-26.56 -11.71,-39.27 -16.15,-52.81 -39.61,-103.23 -69.73,-149.58l-15.26 -20.42 -12.73 -15.21c-11.65,-13.85 -24.79,-26.25 -39.19,-37.19 -20.52,-17.29 -44.44,-30.1 -70.2,-37.71 -25.77,-7.5 -52.82,-9.58 -79.44,-6.04l-20.35 4.06c-57.1,16.35 -108.55,48.23 -148.61,92.08l0 0c-6.11,6.15 -12.22,12.29 -18.32,19.37 -6.11,7.08 -14.25,15.83 -20.87,24.48 -31.48,39.17 -59.41,81.04 -83.47,125.21l-21.38 39.17c-15.27,30 -30.03,62.08 -44.79,96.67 -6.61,16.25 -13.74,33.12 -20.35,50.94l-7.63 20.31c-14.76,40.21 -29.52,83.02 -43.26,128.22 0,7.19 -4.58,14.27 -6.61,21.46 -2.04,7.08 -7.64,25.94 -12.22,39.17l-45.29 149.58 -6.11 20.42c-9.16,31.04 -18.32,61.56 -27.48,91.04 -6.1,19.89 -12.22,39.27 -17.81,58.54 -5.61,19.37 -8.15,26.46 -11.71,39.27 -3.56,12.71 -6.61,20.31 -9.67,30.52l-36.65 119.58c0,6.56 -4.59,13.23 -6.61,19.79 -15.78,50.94 -31.56,101.88 -46.32,149.69 -4.57,13.23 -8.65,26.46 -12.21,39.17 -16.8,50.94 -32.57,101.77 -47.85,147.09 0,0 0,0 0,3.12 0,3.02 -4.07,13.23 -6.61,19.79l-12.73 37.71c-13.74,41.15 -26.97,78.33 -39.19,112.4l-14.76 38.75c-18.03,51.98 -40.69,102.19 -67.69,150.11 -4.56,7.19 -9.85,13.85 -15.78,19.89 -3.36,3.13 -7.65,5.11 -12.22,5.52l-39.19 0 -149.63 -3.02 -20.35 0 -66.17 0 -83.47 0 -39.19 0 -149.64 -3.54 -20.35 0 -149.63 -3.54 -39.19 0 -149.63 -3.54 -20.37 0 -149.63 -3.65 -39.19 0 -149.63 -4.06 -20.35 0 -149.64 -4.06 -39.19 0 -149.64 -3.54 -20.35 0 -149.63 -4.06 -39.19 0 -126.73 -10.73z"/>
   <path class="fil9" d="M8754.02 3091.69l0 1028.02c0,-11.15 0,-22.39 0,-34.06l0 -19.9c3.05,-50.83 5.09,-101.77 7.12,-150.1 0,-13.23 0,-26.46 0,-39.17 0,-50.94 3.06,-101.77 4.07,-149.69l0 -19.79c0,-50.94 0,-101.77 0,-150.21l0 -39.17c0,-50.83 0,-101.77 -3.05,-149.58 0,-7.19 0,-13.75 0,-20.42 0,-50.83 -3.56,-101.77 -6.61,-149.58 0,-13.23 0,-26.46 0,-39.17 2.54,-24.48 0.51,-47.39 -1.53,-67.19zm-338.46 -559.89l0 3053.75 -15.27 15.83 -5.08 4.58 0 -3068.02 20.35 -6.15zm188.82 80.94l0 2552.39c-12.21,46.35 -25.45,90.11 -39.19,130.83l0 -2718.33c14.41,10.83 27.55,23.33 39.19,37.08l0 -1.98zm-377.13 35.62c6.1,-7.08 12.22,-13.23 18.32,-19.37l0 3060.93 -39.19 15.21 0 -3030.31c6.61,-8.65 13.74,-16.77 20.87,-24.37l0 -2.09zm-170.5 285.52l0 2818.12 -20.35 5.62 0 -2771.35c6.61,-17.29 14.76,-34.06 20.35,-50.31l0 -2.08zm-366.45 1149.68c2.54,-6.56 4.57,-13.23 6.61,-19.79 2.03,-6.67 0,0 0,-3.02l0 1770.63 -20.35 3.54 0 -1711.56 13.74 -39.8zm166.94 -528.75c3.56,-12.71 7.64,-25.94 11.71,-39.17 4.06,-13.23 11.7,-38.75 17.81,-58.54l0 2336.56 -39.19 8.75 0 -2245.62 9.67 -1.98zm-329.3 893.23l0 1412.4 -39.19 6.04 0 -1416.87 39.19 -1.56zm-188.82 -5.63l0 1448.54 -20.35 3.02 0 -1449.48 20.35 -2.09zm-356.27 -6.56l0 1495.83 -20.35 0 0 -1494.37 20.35 -1.46zm188.82 4.58l0 1469.79 -39.19 4.58 0 -1475.94 39.19 1.56zm-356.27 -8.65l0 1517.71 -39.19 4.06 0 -1520.83 39.19 -0.94zm-188.82 -4.59l0 1540.11 -20.35 0 0 -1538.65 20.35 -1.46zm-356.27 -9.17l0 1577.71 -20.35 0 0 -1576.25 20.35 -1.46zm169.49 4.58l19.33 0 0 1559.38 -39.19 3.12 0 -1561.04 19.85 -1.46zm-339.48 -9.17l0 1595 -39.19 0 0 -1593.54 39.19 -1.46zm-188.82 -4.58l0 1611.87c-7.13,0 -13.74,0 -20.35,0l0 -1610.42 20.35 -1.46zm-169.99 -4.58l0 1625.62c-13.74,0 -26.98,0 -39.19,0l0 -1628.75 39.19 3.13zm1800.7 1455.62l-14.26 2.5 -39.19 6.15 -76.85 11.15 -1847.51 0 0 -19.79 1977.82 0zm-1764.56 170l-43.77 0c-13.74,0 -26.98,0 -39.19,0l-130.29 6.56 0 -10.73 213.25 4.17zm2514.25 -358.85c-14.25,7.09 -30.02,13.75 -46.31,20.83l-39.19 15.31 -7.63 2.5 -2634.37 0 0 -38.65 2727.5 0zm185.77 -170c-4.07,7.09 -7.63,13.75 -11.71,19.9l-2901.06 0 0 -19.9 2912.77 0zm132.84 -356.25l-4.58 19.79 -3041.53 0 0 -19.79 3046.12 0zm-50.89 170l-13.75 38.65 -2982.49 0 0 -38.65 2996.24 0zm92.11 -358.85c0,13.23 -4.57,25.94 -7.13,38.65l-3081.23 0 0 -38.65 3088.36 0zm30.54 -170c0,6.67 0,13.23 -3.56,19.9l-3115.34 0 0 -19.9 3118.89 0zm45.8 -358.75c0,6.56 0,13.23 0,19.8l-1185.86 0c5.93,-6.04 11.22,-12.71 15.77,-19.8l1170.09 0zm-2277.58 0l149.63 3.54 20.35 0 149.64 3.54 39.19 0 149.64 3.54 23.42 0 149.62 3.54 39.2 0 83.47 0 -1688.22 0 0 -19.79 884.06 5.62zm2258.25 169.9c0,12.81 -3.06,26.04 -5.09,38.75l-3140.27 0 0 -38.75 3145.37 0zm-1071.37 -356.25l1108.51 0 -3.06 38.75 -1119.71 0 14.25 -38.75zm57.52 -175.11l1062.7 0 0 19.9 -1065.76 0c3.06,-6.56 3.06,-13.23 3.06,-19.9zm114 -358.75l961.94 0 0 19.79 -967.02 0c2.54,-6.56 4.57,-13.23 7.13,-19.79l-2.04 0zm-50.89 169.48l1008.76 0c0,12.71 0,25.94 0,39.17l-1017.92 0c0.51,-12.71 4.57,-25.94 9.16,-39.17l0 0zm110.96 -358.85l903.4 0 0 39.17 -916.13 0c4.58,-12.71 8.66,-25.94 12.73,-39.17l0 0zm50.9 -170l848.94 0c0,6.67 0,13.23 0,20.42l-855.05 0 6.11 -20.42zm115.02 -356.24l707.45 0c0,6.67 0,13.23 0,20.42l-717.63 0 10.18 -20.42zm-57.51 170l782.27 0c0,12.71 0,25.94 0,39.17l-796.52 0c7.13,-15.73 10.69,-28.44 14.76,-41.67l-0.51 2.5zm145.06 -356.25l579.7 0c4.07,12.71 8.15,25.94 11.71,39.17l-610.75 0 19.35 -39.17zm123.17 -171.56l371.54 0 15.27 20.42 -407.17 0c8.13,-10.73 14.25,-16.87 20.35,-20.42z"/>
   <path class="fil6" d="M5553.69 4402.2c-1.31,-2.6 -1.94,-5.41 -1.81,-8.33 0.12,-2.92 1,-5.73 2.53,-8.23 1.54,-2.4 3.69,-4.48 6.24,-5.83 2.56,-1.35 5.42,-2.08 8.31,-1.98 257.53,-3.13 516.59,10.63 774.12,17.29 257.53,6.56 516.09,11.67 774.13,20.31 145.05,5.1 423.97,17.81 426.51,13.75 2.54,-4.06 80.42,-246.35 97.21,-296.67 32.57,-98.23 66.68,-196.04 101.79,-294.27 9.68,-28.44 19.85,-56.98 30.03,-85 3.05,-19.27 6.61,-38.65 8.66,-57.5 2.03,-18.75 6.1,-50.83 9.15,-79.37 5.85,-52.5 14.51,-104.69 25.96,-156.25 0.44,-0.83 1.19,-1.56 2.08,-1.87 0.89,-0.42 1.91,-0.42 2.82,-0.1 0.93,0.31 1.71,0.94 2.21,1.77 0.5,0.83 0.69,1.77 0.52,2.81 -10.51,53.65 -15.96,108.13 -16.29,162.81l-3.05 39.17c50.89,-135.31 63.11,-159.27 106.37,-296.15 -0.23,-0.62 -0.3,-1.35 -0.22,-1.98 0.09,-0.63 0.32,-1.25 0.7,-1.77 0.37,-0.52 0.87,-1.04 1.44,-1.35 0.59,-0.31 1.23,-0.42 1.89,-0.42 0.66,0 1.31,0.11 1.89,0.42 0.58,0.31 1.08,0.83 1.46,1.35 0.37,0.52 0.61,1.15 0.7,1.77 0.08,0.62 0.01,1.35 -0.22,1.98 -50.89,197.92 -78.39,282.92 -140.47,478.33 -31.56,98.75 -62.6,197.5 -95.69,296.25 -16.29,47.81 -90.59,271.77 -114.52,316.56 -3.05,5.63 -264.65,-9.17 -393.41,-11.15 -128.77,-2.08 -258.04,-4.06 -387.32,-7.19l-774.13 -19.27c-143.02,-3.65 -287.05,-3.65 -430.07,-11.77 0,16.87 -12.72,101.77 -11.7,107.4 1.01,5.63 -8.15,6.67 -7.63,0 0.51,-6.56 -10.69,-113.96 -10.19,-115.52z"/>
   <path class="fil6" d="M5853.98 4532.52c0,-4.06 7.13,-5.63 8.15,0 16.28,113.54 18.82,229.58 25.45,344.06 6.61,114.48 11.7,237.19 15.77,356.25 7.63,236.67 19.34,474.37 12.73,712.5 0,2.08 -0.8,4.06 -2.24,5.42 -1.43,1.46 -3.37,2.29 -5.4,2.29 -2.03,0 -3.97,-0.83 -5.39,-2.29 -1.44,-1.35 -2.24,-3.33 -2.24,-5.42 -23.42,-233.54 -29.01,-470.21 -37.67,-704.89 -4.41,-116.04 -7.8,-232.4 -10.18,-349.06 -1.52,-120.21 -7.64,-241.25 1.02,-358.85z"/>
   <path class="fil6" d="M5551.66 5372.83l0 -50.94c0,-8.13 0,-16.77 0,-24.89 -1.17,-3.65 -1.17,-7.61 0,-11.25 0,-4.58 0,-9.17 0,-14.27l4.07 0c0,5.11 0,9.69 0,14.27 0,0 0,3.13 0,3.54 4.58,122.71 17.81,245.31 23.41,368.02 5.6,122.71 7.63,246.87 6.62,371.04 139.96,-11.67 281.96,-10.21 422.43,-17.3 140.48,-7.19 291.13,-17.81 436.69,-29.58 291.63,-23.33 582.76,-50.83 872.86,-92.08l241.76 -34.06c81.94,-11.77 167.45,-17.81 247.87,-37.19 5.08,0 7.13,7.08 0,8.12 -73.8,9.17 -147.09,29.59 -220.39,42.81 -73.29,13.23 -143.52,25.42 -215.8,36.56 -143.86,23.12 -288.24,43.44 -433.11,61.15 -289.09,35.94 -579.2,61.25 -870.32,75.83l-249.89 10.63c-81.95,2.61 -164.91,7.71 -246.85,3.65 -3.49,-0.31 -6.78,-1.77 -9.3,-4.17 -2.51,-2.4 -4.09,-5.63 -4.45,-9.17 0,-128.75 -6.61,-257.5 -8.14,-386.25 0,-63.13 0,-126.25 0,-189.37 1.01,-31.98 1.52,-63.54 2.54,-95.11z"/>
   <path class="fil3" d="M2529.97 3361.89c-129.78,166.98 -430.06,349.17 -481.98,497.29 -14.04,36.15 -16.08,75.83 -5.81,113.23 10.26,37.4 32.28,70.52 62.81,94.38 0,0 -168.97,42.29 -193.92,184.27 -12.72,73.33 93.15,158.33 93.15,158.33 -37.68,11.56 -71.44,33.33 -97.56,62.92 -26.13,29.48 -43.6,65.63 -50.54,104.48 -11.2,101.77 96.19,171.56 96.19,171.56 0,0 -110.45,97.7 -88.56,203.54 43.77,217.81 902.9,407.19 1105.46,120.11 94.67,-133.85 -117.56,-168.44 -117.56,-168.44 0,0 317.07,-23.96 360.84,-200 43.77,-176.15 -235.13,-203.65 -235.13,-203.65 0,0 307.91,-25.41 334.39,-212.71 26.47,-187.29 -254.48,-176.15 -254.48,-176.15 0,0 219.36,-86.98 207.15,-235.1 -20.35,-244.27 -499.79,-36.15 -678.95,-122.71l-55.48 -391.35z"/>
   <path class="fil6" d="M1999.63 4409.81c-3.06,0 -5.08,4.58 0,6.15 307.42,148.54 657.85,182.08 987.89,94.69 11.2,-3.02 18.32,-17.81 4.58,-14.79 -228.01,48.85 -720.69,-1.04 -992.47,-86.04z"/>
   <path class="fil6" d="M3078.11 4097.31c-323.19,82.5 -640.77,50.94 -962.44,-24.37 -4.07,0 -5.08,4.58 0,6.56 146.58,80.94 356.27,108.44 522.2,116.56 153.38,10.42 306.8,-19.79 444.82,-87.5 4.07,-2.6 2.54,-12.7 -4.59,-11.25z"/>
   <path class="fil7" d="M1817.95 10800.25l3261.39 -2262.73 472.82 -328.33c0,0 133.85,90.11 335.41,203.65 279.93,152.71 690.15,350.63 1053.03,404.06 610.75,90.11 1625.1,80.42 2137.63,-605.63 432.1,-577.71 136.91,-1624.06 136.91,-1624.06l-712.54 -78.96c0,0 -1475.98,-1233.13 -2503.05,-1272.39 -435.16,-17.3 -1068.81,312.5 -1655.65,657.08 -390.22,229.14 -2746.68,1960.06 -4282.05,3094.31 475.71,701.6 1070.88,1315.51 1756.11,1813z"/>
   <path class="fil6" d="M5552.17 8208.77c0,0 133.85,90 335.41,203.54 356.27,-426.56 1110.54,-1201.15 1133.45,-1228.65l-1468.85 1025.1z"/>
   <path class="fil6" d="M8028.25 6149.5c94.67,65.1 185.77,135.31 279.42,203.54 93.65,68.23 186.28,128.75 273.31,201.04 87.03,72.29 173.04,152.71 254.48,231.56 40.21,38.23 80.42,76.87 119.09,116.04 41.01,38.33 79.11,79.69 114.01,123.75 3.05,4.06 -3.06,9.17 -7.13,6.56 -44.13,-31.46 -86.44,-65.52 -126.74,-101.77 -44.27,-37.19 -87.54,-75.31 -131.82,-112.5 -85,-72.29 -171.52,-142.5 -254.48,-215.32 -82.97,-72.71 -162.37,-152.71 -245.83,-223.44 -83.47,-70.73 -183.22,-152.6 -276.37,-224.89 -1.52,-3.13 0,-6.15 2.04,-4.58z"/>
   <path class="fil6" d="M2957.5 6847.2c172.53,-200 912.56,-724.69 1385.38,-959.37 0.91,-0.21 1.86,-0.1 2.72,0.31 0.84,0.31 1.54,1.04 1.96,1.87 0.41,0.83 0.53,1.77 0.33,2.71 -0.21,0.83 -0.71,1.67 -1.44,2.29 -471.3,302.81 -1247.97,876.87 -1381.82,962.39 -6.11,3.54 -11.71,-5.1 -7.13,-10.21z"/>
  </g>
 </g>
</svg>
