<?xml version="1.0" encoding="UTF-8"?>
<!DOCTYPE svg PUBLIC "-//W3C//DTD SVG 1.1//EN" "http://www.w3.org/Graphics/SVG/1.1/DTD/svg11.dtd">
<!-- Creator: CorelDRAW 2019 (64-Bit) -->
<svg xmlns="http://www.w3.org/2000/svg" xml:space="preserve" width="5.03118in" height="5.05083in" version="1.1" style="shape-rendering:geometricPrecision; text-rendering:geometricPrecision; image-rendering:optimizeQuality; fill-rule:evenodd; clip-rule:evenodd"
viewBox="0 0 5031.17 5050.83"
 xmlns:xlink="http://www.w3.org/1999/xlink"
 xmlns:xodm="http://www.corel.com/coreldraw/odm/2003">
 <defs>
  <style type="text/css">
   <![CDATA[
    .fil6 {fill:#263238;fill-rule:nonzero}
    .fil7 {fill:#455A64;fill-rule:nonzero}
    .fil5 {fill:#55BC7E;fill-rule:nonzero}
    .fil10 {fill:#A6A6A6;fill-rule:nonzero}
    .fil8 {fill:#AD6359;fill-rule:nonzero}
    .fil2 {fill:#C7C7C7;fill-rule:nonzero}
    .fil1 {fill:#DBDBDB;fill-rule:nonzero}
    .fil3 {fill:#EB9481;fill-rule:nonzero}
    .fil0 {fill:#EBEBEB;fill-rule:nonzero}
    .fil4 {fill:white;fill-rule:nonzero}
    .fil9 {fill:white;fill-rule:nonzero;fill-opacity:0.200000}
   ]]>
  </style>
 </defs>
 <g id="Layer_x0020_1">
  <metadata id="CorelCorpID_0Corel-Layer"/>
  <g id="_2126415080384">
   <path class="fil0" d="M1611.61 4910.52c91.06,-0.95 183.23,-1.46 276.46,-1.46 510.98,0 991.99,14.54 1412.88,40.15 -248.27,66.15 -509.06,101.61 -778.17,101.61 -317.61,0 -623.69,-49.25 -911.17,-140.3z"/>
   <path class="fil1" d="M-0 3686.84c48.43,-247.7 170.39,-478.93 363.94,-670.1 363.09,-358.67 824.3,-286.3 1263.35,-343.46l1.26 0c152.96,-19.86 302.97,-55.49 445.39,-130.63 452.14,-238.62 707.01,-801.74 1087.41,-1274.53 47.47,-59.29 97.05,-117.11 148.96,-172.59 312.89,-333.98 935.5,-344.95 1261.05,124.7 545.69,787.06 566.19,1827.87 267.92,2745.13 -553,663.28 -1385.4,1085.47 -2316.49,1085.47 -1055.55,0 -1984.23,-542.61 -2522.78,-1363.99z"/>
   <path class="fil2" d="M4228.72 2504.05c-90.72,1419.71 -1730.07,1949.72 -2754.39,1524.38 -890.35,-369.89 -598.99,-1213.83 152.54,-1355.16l1.69 0c152.96,-19.86 302.97,-55.49 445.39,-130.63 452.14,-238.62 707.01,-801.74 1087.41,-1274.53 566.28,-294.54 1133.83,196.43 1067.37,1235.93z"/>
   <path class="fil3" d="M1641.83 4919.91c336.69,-265.41 847.46,-682.93 861.46,-723.34 8.02,-22.37 -108.87,-187.36 -255.71,-382.76 -31.65,-42.19 -64.56,-84.38 -98.32,-129.33 -218.79,-285.04 -457.41,-582.3 -457.41,-582.3l-725.57 576.6 477.24 566.28 105.49 124.49c0,0 -134.7,261.3 -218.03,436.34 100.89,43.47 204.61,81.6 310.85,114.02z"/>
   <path class="fil4" d="M1641.83 4919.91c336.69,-265.41 847.46,-682.93 861.46,-723.34 9.5,-27.24 -164.78,-265.22 -354.03,-512.08l-705.74 560.58 105.49 124.49c0,0 -134.7,261.3 -218.03,436.34 100.89,43.47 204.61,81.6 310.85,114.02z"/>
   <path class="fil5" d="M1641.83 4919.91c336.69,-265.41 847.46,-682.93 861.46,-723.34 8.02,-22.37 -108.87,-187.36 -255.71,-382.76l-699.2 555.74c0,0 -134.59,261.08 -217.93,436.11 101.06,43.56 204.95,81.78 311.37,114.24z"/>
   <path class="fil6" d="M1562.83 4894.69c289.74,-234.16 728.17,-582.35 867.46,-681.88 1.69,-1.08 2.33,0 0,1.26 -127.39,111.86 -560.19,455.81 -853.7,685.09 -4.57,-1.51 -9.19,-2.93 -13.76,-4.46z"/>
   <path class="fil6" d="M1371.16 4822.84l1.47 -0.44c24.77,-7.26 50.78,-9.29 76.38,-5.96 46.19,5.44 88.47,28.59 117.94,64.56 0,1.04 -1.06,2.72 -2.11,1.69 -34.91,-30.92 -78.91,-49.7 -125.4,-53.5 -16.41,-1.34 -32.81,-0.8 -48.91,1.57 -6.46,-2.62 -12.93,-5.24 -19.37,-7.91z"/>
   <path class="fil6" d="M1492.26 4443.83c71.94,-59.07 176.59,-100.65 269.21,-77.42 3.59,1.04 2.11,6.13 0,6.74 -90.11,17.44 -178.1,44.48 -262.46,80.62 -1.31,0.87 -2.93,1.21 -4.49,0.91 -1.56,-0.3 -2.94,-1.2 -3.84,-2.5 -0.89,-1.3 -1.23,-2.93 -0.93,-4.49 0.3,-1.56 1.2,-2.94 2.52,-3.85l0 0z"/>
   <path class="fil6" d="M1453.86 4509.64c71.74,-59.07 176.38,-100.61 269,-77.43 3.59,1.08 2.11,6.13 0,6.78 -90.35,17.66 -178.55,45 -263.1,81.44 -1.43,0.78 -3.1,0.95 -4.67,0.52 -1.56,-0.47 -2.88,-1.51 -3.67,-2.98 -0.78,-1.42 -0.96,-3.06 -0.51,-4.66 0.45,-1.56 1.51,-2.85 2.94,-3.67l0 0z"/>
   <path class="fil6" d="M1415.25 4577.18c71.73,-59.07 176.38,-100.66 269.01,-77.43 3.58,0 2.32,6.13 0,6.52 -90.03,17.62 -177.93,44.69 -262.26,80.83 -1.31,0.87 -2.93,1.21 -4.49,0.91 -1.56,-0.3 -2.94,-1.21 -3.84,-2.5 -0.9,-1.3 -1.24,-2.94 -0.94,-4.49 0.3,-1.56 1.2,-2.94 2.52,-3.84l0 0z"/>
   <path class="fil6" d="M1376.64 4643.85c71.73,-59.07 176.38,-100.65 269,-77.42 3.59,0 2.32,5.91 0,6.52 -90.05,17.53 -177.96,44.61 -262.25,80.83 -1.31,0.87 -2.93,1.21 -4.5,0.91 -1.56,-0.3 -2.94,-1.2 -3.84,-2.5 -0.89,-1.3 -1.23,-2.93 -0.93,-4.49 0.3,-1.56 1.2,-2.94 2.52,-3.85z"/>
   <path class="fil6" d="M2246.32 4077.36c81.65,-64.77 182.5,62.05 100.85,126.61 -81.65,64.56 -182.71,-61.62 -100.85,-126.61z"/>
   <path class="fil6" d="M1259.12 4312.82c12.23,-59.94 82.5,-67.11 130.39,-53.59 81.86,24.74 155.78,70.6 214.36,132.91 0.31,0.22 0.55,0.52 0.72,0.91 0.17,0.35 0.26,0.69 0.26,1.08 0,0.39 -0.09,0.78 -0.26,1.13 -0.17,0.34 -0.42,0.65 -0.72,0.91 0.83,1.59 1.26,3.37 1.26,5.14 0,1.81 -0.43,3.58 -1.26,5.18 -0.83,1.6 -2.03,2.94 -3.5,3.97 -1.47,1.04 -3.17,1.73 -4.95,1.94 -80.17,5.48 -165.41,21.11 -244.95,2.11 -47.05,-10.36 -103.17,-45.17 -91.35,-101.69zm212.25 83.12c39.66,-1.69 78.91,-5.48 118.36,-5.92 -42.2,-25.74 -82.28,-53.15 -126.59,-74.87 -21.24,-10.67 -43.16,-19.91 -65.61,-27.64 -35.02,-11.4 -154.87,-15.2 -98.95,69.61 30.59,47.02 125.74,40.94 172.8,38.82z"/>
   <path class="fil6" d="M1805.78 4275.04c-55.49,60.15 -135.03,94.31 -204.87,134.2 -1.61,0.78 -3.4,1.17 -5.19,1.12 -1.8,-0.04 -3.56,-0.52 -5.13,-1.38 -1.57,-0.86 -2.91,-2.11 -3.91,-3.63 -0.99,-1.47 -1.61,-3.2 -1.8,-4.96 -1.48,0 -2.95,0 -2.74,-2.76 14.01,-84.42 50.03,-163.7 104.44,-229.77 32.28,-37.96 94.52,-70.91 138.19,-28.07 43.67,42.84 13.5,100.01 -18.99,135.25zm10.76 -76.35c0,-101.74 -98.11,-31.87 -120.89,-3.2 -14.39,18.96 -27.43,38.91 -39.03,59.72 -24.9,42.19 -43.46,87.96 -63.3,132.7 33.13,-21.07 67.72,-40.5 101.69,-60.97 39.03,-24.48 121.95,-72.37 121.53,-128.25z"/>
   <path class="fil7" d="M233.31 2570.29c1.3,108.47 109.72,306.37 258.27,527.46 285.66,425.98 720.5,937.64 827.89,1062.52l24.47 28.28 768.4 -590.77 -8.86 -11.4 -676.63 -886.12 2018.7 -11.79 -766.51 -596.03c0,0 -62.24,35.84 -191.36,16.84 -445.6,-65.16 -1450.09,-209.47 -1686.81,-199.97 -305.49,13.04 -572.18,312.03 -567.56,660.98z"/>
   <path class="fil6" d="M491.58 3097.96c285.66,425.98 720.5,937.64 827.89,1062.52l784.01 -573.66 -676.63 -886.13 -935.27 397.27z"/>
   <path class="fil6" d="M1183.8 2371.35c25.14,28.33 48.46,58.21 69.83,89.47l71.94 93.66 0 1.04c-4.22,-9.28 -8.44,-18.57 -12.87,-27.64 -14.98,-31.22 -27,-63.3 -44.94,-93.23 -1.06,-1.9 1.69,-3.58 2.74,-1.68 18.36,29.54 39.67,57.78 55.28,89 7.38,14.59 14.35,29.54 21.1,44.52 3.59,8.24 7.38,16.67 10.55,24.91 1.48,4.02 3.17,8.04 4.43,12.22 10.55,14.56 21.1,29.15 31.44,44.13 22.79,32.91 42.2,67.71 66.04,100.61 1.26,1.69 -1.69,3.37 -2.95,1.69 -23.21,-30.79 -49.37,-59.5 -73.22,-90.08 -23.84,-30.61 -47.05,-63.3 -69.63,-95.39 -22.57,-32.04 -43.67,-63.26 -65.82,-94.48 -24.11,-31.05 -46.31,-63.56 -66.46,-97.29 -0.2,-0.35 -0.25,-0.74 -0.15,-1.12 0.1,-0.35 0.35,-0.69 0.68,-0.87 0.33,-0.21 0.74,-0.26 1.11,-0.17 0.37,0.09 0.69,0.35 0.89,0.69z"/>
   <path class="fil8" d="M3168.73 1248.29c-143.05,176.18 -662.49,679.76 -986.77,753.6 -178.7,40.72 -1042.26,161.63 -1160.41,53.81 -138.83,-126.57 -74.47,-601.52 35.87,-605.92 336.31,-13.3 958.71,52.51 1114.21,18.35 70.47,-15.63 443.07,-256.15 841.4,-448.34 149.37,-72.79 252.12,108.63 155.7,228.5z"/>
   <path class="fil5" d="M1189.92 1408.19c0,0 1.89,18.35 5.06,49.61 0,5.05 0,10.54 1.48,16.24 1.9,17.92 4.01,39.04 6.33,62.22 0,2.76 0,5.48 0,8.25 1.83,19.39 3.94,40.07 6.33,62.01 0,5.27 1.26,10.75 1.69,16.24 2.11,20.08 4.43,40.94 6.54,62.27 0,2.72 0,5.48 0,8.2 2.33,21.11 4.43,42.19 6.76,63.3 0,5.27 1.26,10.75 1.69,16.02 2.32,21.12 4.64,42.23 6.96,62.27 0,2.72 0,5.48 1.05,8.2 2.33,21.11 4.65,42.23 6.97,62.27l1.9 16.02c1.69,13.3 3.16,26.39 4.64,39.04 1.06,7.81 2.11,15.63 2.95,23.19 0,2.76 0,5.48 0,8.25 1.55,11.83 3.03,23.19 4.43,34.16 1.27,9.72 2.53,19.21 3.59,28.07 0,5.48 1.69,10.97 2.53,16.06 4.22,28.89 7.81,50.61 10.97,63.26 0.51,2.89 1.44,5.66 2.74,8.25 0,0 1.06,1.25 1.48,1.25l10.76 -1.25 29.96 -3.15 16.25 -1.68 34.6 -3.41 27.43 -2.72 8.44 0 62.03 -6.35 16.24 -1.69 62.03 -6.3 8.44 0 62.03 -6.56 16.25 -1.69 62.03 -6.74 8.44 0 62.03 -6.78 16.24 -1.9 62.03 -7.17 8.44 0 62.03 -7.39 16.25 -1.9 13.29 -1.69 48.74 -6.09 8.44 -1.08 62.03 -8.2 4.01 0 12.24 -1.68 62.03 -8.9 8.44 -1.25c22.37,-3.37 43.04,-6.74 62.03,-10.15l16.24 -2.93c24.47,-4.45 45.57,-8.64 62.03,-12.87l8.44 -2.11 4.43 -1.25c17.28,-5.31 33.97,-12.35 49.79,-21.12l7.8 -4.02 7.6 -4.19 8.65 -4.88c19.2,-11.4 39.87,-24.66 62.02,-40.07 2.74,-1.68 5.49,-3.8 8.44,-5.91l16.04 -11.4 22.15 -16.02 23.84 -17.92 16.24 -12.48 40.08 -31.83 10.34 -8.24 11.61 -9.5 8.44 -6.95 11.18 -9.07c14.35,-12.05 29.11,-24.05 43.67,-36.7 2.49,-1.94 4.89,-3.97 7.17,-6.13l11.81 -9.93 4.43 -3.8c21.09,-17.7 42.2,-35.63 62.03,-53.98l5.07 -4.45 3.37 -2.93 5.91 -5.31 56.12 -50.39 13.08 -11.83 3.17 -2.93 14.77 -13.3c16.04,-14.56 31.86,-29.32 47.47,-43.87l11.81 -12.91 11.4 -10.54 8.86 -8.2 42.19 -39.46 16.24 -15.42 7.81 -7.39 17.09 -16.23 37.34 -35.89 8.22 -7.99 18.57 -18.13 8.65 -8.46 34.6 -35.02 16.04 -16.02 11.6 -11.4 13.5 -13.73 2.32 -2.5c12.65,-12.82 24.3,-26.56 34.81,-41.15 2.95,-3.8 5.7,-7.81 8.22,-11.83 2.53,-4.01 4.01,-6.09 5.91,-9.07 1.89,-2.68 3.58,-5.48 5.06,-8.42 11.78,-19.52 21.19,-40.33 28.06,-62.06 1.91,-5.31 3.53,-10.75 4.85,-16.24 5.36,-20.21 7.63,-41.15 6.75,-62.01 0,-2.98 0,-5.7 0,-8.46 -1.81,-22.41 -9.77,-43.86 -22.99,-62.03 -4.6,-5.97 -9.83,-11.42 -15.61,-16.24 -3.51,-3.03 -7.25,-5.78 -11.19,-8.23 -2.64,-1.78 -5.38,-3.41 -8.22,-4.85 -19.35,-9.63 -40.63,-14.75 -62.24,-14.98l-16.88 0c-17.62,0.83 -35.13,3.24 -52.32,7.18l-9.91 2.53c-2.79,0.51 -5.54,1.21 -8.23,2.11 -16.52,4.48 -32.79,9.83 -48.73,16.03l-13.5 5.48 -16.25 6.96 -8.02 3.8c-10.76,4.85 -21.1,10.34 -33.33,16.46l-21.1 10.76 -8.23 4.45 -56.75 30.36 -5.49 2.98 -10.13 5.48c-2.11,1 -4.15,2.12 -6.12,3.37 -21.1,11.19 -42.2,22.58 -62.03,33.94l-8.44 4.66 -35.87 21.12 -26.17 14.77 -2.74 1.47 -13.5 7.6 -62.03 35.24 -8.44 4.83 -25.11 14.34 -14.76 8.46 -21.1 12.65 -16.24 9.5 -62.03 35.45 -7.6 4.4 -27.43 15.85 -34.6 19.39 -16.24 9.28 -60.34 33.34 -1.69 0 -8.44 4.44 -5.91 3.15c-21.09,10.75 -39.03,21.12 -56.12,28.89l-16.24 7.6c-19.98,9.89 -40.72,18.13 -62.03,24.7l-3.16 0 -5.28 1.25c-2.92,0.69 -5.89,1.17 -8.87,1.47 -17.69,1.3 -35.44,1.64 -53.16,1.08l-16.25 0c-18.14,0 -39.03,0 -62.03,-1.9l-8.44 0 -25.11 -1.04 -36.93 -1.73 -16.24 0 -62.03 -3.37 -8.44 0 -62.03 -3.58 -16.24 0 -62.03 -3.8 -8.44 0 -62.03 -3.8 -16.24 -1.04 -62.03 -4.02 -8.44 0 -62.03 -4.23 -16.24 -1.04 -62.03 -4.23 -8.44 0 -62.03 -4.23 -16.24 -1.25 -62.03 -4.41 -8.44 0 -61.39 -8.89z"/>
   <path class="fil9" d="M3182.87 998.9l0 269.43c2.95,-3.8 5.7,-7.81 8.23,-11.83l0 -253.17c-2.65,-1.65 -5.4,-3.12 -8.23,-4.43zm-140.52 -5.07l0 420.49 -8.23 8.03 0 -426.41c2.62,-0.89 5.3,-1.59 8.02,-2.11l0.21 0zm78.27 -9.92l0 353.2 -16.03 16.02 0 -369.22 16.03 0zm-148.74 33.55l0 464.18 -16.24 15.37 0 -472.59 16.24 -6.96zm-78.28 37.98l0 500.43 -8.22 7.6 0 -503.58 8.22 -4.45zm-148.74 80.58l0 554.7 -3.38 2.94 -5.06 4.44 0 -557.42 8.44 -4.66zm68.15 -37.31l10.13 -5.53 0 530.01 -3.17 0 -13.08 11.83 0 -532.94c1.97,-1.25 4.01,-2.38 6.12,-3.37l0 0zm-141.36 78.24l2.74 -1.46 0 576.59 -4.43 3.8 -11.81 9.93 0 -581.26 13.5 -7.6zm-75.54 42.19l0 597.93 -8.44 7 0 -599.44 8.44 -5.48zm-156.34 89.68l7.6 -4.44 0 627.08c-2.95,2.07 -5.7,4.19 -8.44,5.87l0 -627.85 0.84 -0.65zm85.87 -48.31l0 614.16 -16.24 12.48 0 -617.57 16.24 -9.07zm-148.74 84.37l0 637.83 -8.65 0 -7.59 4.23 0 -632.95 16.24 -9.11zm-78.28 43.48l0 624.92 -8.44 2.12 0 -622.42 8.44 -4.62zm-151.91 69.61l3.17 0 0 583.16 -8.44 1.3 0 -584.24 5.28 -0.22zm81.44 -33.12l0 603.42 -16.25 2.98 0 -598.58 16.25 -7.82zm-147.69 36.92l0 590.76 -12.24 0 -4.01 0 0 -590.98 16.25 0.22zm-78.28 -2.29l0 602.77 -8.44 1.04 0 -604.02 8.44 0.22zm-147.69 -7.39l0 628.07 -8.44 0 0 -628.29 8.44 0.22zm78.28 4.19l0 614.6 -16.25 1.9 0 -617.1 16.25 0.6zm-147.69 -8.2l0 640.12 -16.25 1.9 0 -642.66 16.25 0.65zm-78.28 -4.66l0 654.07 -8.44 0 0 -654.07 8.44 0zm-148.75 -9.5l0 678.98 -8.44 0 0 -679.37 8.44 0.39zm78.28 5.09l0 665.42 -16.24 1.69 0 -667.97 16.24 0.86zm-148.74 -9.93l0 690.77 -16.25 1.69 0 -692.24 16.25 -0.22zm-78.28 -5.27l0 704.03 -8.44 0 0 -704.46 8.44 0.43zm-148.74 -10.54l0 611.83c-1.41,-10.97 -2.88,-22.37 -4.43,-34.2 0,-2.72 0,-5.48 0,-8.2 0,-7.6 -1.9,-15.42 -2.95,-23.23l0 -546.63 7.38 0.43zm78.28 5.66l0 715.9 -16.24 1.69 0 -718.62 16.24 1.04zm34.6 712.49l-34.6 3.41 -16.24 1.69 -29.96 3.15 -12.23 0c-1.31,-2.59 -2.23,-5.35 -2.75,-8.25l95.79 0zm696.25 -78.24l-4.01 0 -62.02 8.2 -8.44 1.08 -48.74 6.09 -682.96 0c0,-5.05 -1.48,-10.54 -2.53,-16.02l808.7 0.65zm301.07 -70.47l-7.59 4.23 -7.81 3.97 -1102.38 0c0,-2.72 0,-5.48 0,-8.2l1117.79 0zm207.82 -148.76l-10.34 8.25 -1329.2 0c0,-2.76 0,-5.48 -1.06,-8.25l1340.59 0zm-90.52 70.47l-22.15 16.02 -1219.06 0 -1.9 -16.02 1243.11 0zm184.4 -147.68l-11.81 9.93c-2.29,2.16 -4.68,4.19 -7.18,6.09l-1425.83 0c0,-5.27 -1.06,-10.75 -1.69,-16.02l1446.5 0zm80.81 -70.47l-5.91 5.27 -3.37 2.98 -1522.46 0c0,-2.76 0,-5.48 0,-8.25l1531.74 0zm163.09 -148.76l-8.86 8.25 -1701.37 0c0,-2.76 0,-5.48 0,-8.25l1710.23 0zm-75.96 70.26l-14.77 13.3 0 2.98 -1611.49 0c0,-5.48 -1.06,-10.97 -1.69,-16.28l1627.94 0zm-870.3 -148.72l25.11 1.04 8.44 0c22.99,0 43.88,1.69 62.02,1.9l16.25 0c17.72,0.61 35.47,0.26 53.16,-1.04 2.98,-0.35 5.94,-0.82 8.86,-1.47l0 -1.3 852.8 0 -17.09 16.28 -1783.23 0c0,-5.7 -1.05,-11.19 -1.48,-16.28l775.16 0.86zm322.59 -65.2l8.44 -4.44 768.4 0 -8.65 8.46 -776.63 0 8.44 -4.02zm269.85 -154.46l639.49 0c-1.48,2.94 -3.17,5.79 -5.06,8.46l-649.2 0 14.77 -8.46zm-123.64 70.9l708.7 0 -2.32 2.55 -13.5 13.69 -720.72 0 27.85 -16.24zm235.46 -134.16l26.16 -14.77 534.42 0c-1.32,5.48 -2.95,10.93 -4.85,16.24l-558.47 0 2.74 -1.47zm148.74 -82.3l5.48 -2.94 412.26 0c0,2.72 0,5.48 0,8.42l-428.72 0 10.97 -5.48zm132.5 -68.78l16.24 -6.96 13.5 -5.49 216.89 0c5.78,4.83 11.02,10.28 15.61,16.25l-270.27 0 8.02 -3.8z"/>
   <path class="fil6" d="M2607.31 1809.09c201.07,-166.25 431.46,-388.63 538.43,-496.67 147.69,-148.76 132.28,-371.54 -93.47,-320.91 -61.4,101.67 -329.13,600.89 -444.96,817.57z"/>
   <path class="fil6" d="M1328.96 1473.18c0,-1.9 2.74,-2.5 3.16,0 9.71,48.96 13.72,99.18 19.2,148.76 5.48,49.57 10.76,102.34 15.4,153.81 9.07,102.12 19.83,205.07 23.21,307.8 -0.19,0.74 -0.61,1.38 -1.2,1.86 -0.59,0.43 -1.32,0.69 -2.07,0.69 -0.75,0 -1.48,-0.26 -2.07,-0.69 -0.59,-0.48 -1.02,-1.12 -1.2,-1.86 -15.4,-100.83 -23.63,-203.38 -33.13,-304.86 -4.64,-50.22 -9.28,-100.66 -12.87,-151.05 -3.59,-50.44 -9.07,-103.2 -8.44,-154.46z"/>
   <path class="fil5" d="M2554.14 2561c10.48,5.48 21.83,9.15 33.55,10.8l8.44 1.68 21.1 4.41 40.09 7.17 6.54 1.08 9.7 1.47 62.03 9.93 8.44 1.04c19.62,3.15 40.3,6.13 62.03,9.28l16.25 2.33 62.03 8.63 8.44 1.08 62.03 8.42 16.25 2.12 62.03 8.03 8.44 1.04 25.11 3.15 36.93 4.88 7.17 0c2.95,0 6.12,0 9.07,1.25l62.03 7.6 8.44 1.04 52.53 6.35 9.5 1.04 16.24 2.11 62.03 7.6 8.44 1.04 62.03 7.21 16.24 1.9 62.03 7.17 8.44 1.04 62.03 7.17c5.48,0 10.97,1.08 16.24,1.9l62.03 6.78 8.44 1.04 10.55 0 51.48 5.48 16.24 1.9 62.03 6.35 8.44 1.04 2.95 0c23,2.33 42.2,4.23 59.07,5.48l16.25 1.47 17.72 1.3c4.77,0.52 9.58,0.52 14.35,0 1.19,-2.59 1.63,-5.44 1.26,-8.25 0,-10.97 0,-32.3 -2.95,-62.01 0,-5.1 0,-10.58 -1.27,-16.28 -1.69,-18.35 -3.8,-39.04 -6.33,-62.22 0,-2.76 0,-5.48 0,-8.25 -2.11,-19.39 -4.43,-40.07 -6.96,-62.22l-1.9 -16.02c-2.32,-19.87 -4.85,-40.72 -7.59,-63.3 0,-2.76 0,-5.48 0,-8.25 -1.55,-10.97 -3.02,-22.15 -4.43,-33.56l-3.8 -28.67c0,-5.27 -1.48,-10.54 -2.11,-16.02 -2.74,-21.12 -5.7,-40.94 -8.65,-62.27l-1.26 -8.2c0.09,-1.21 0.09,-2.42 0,-3.59 -2.75,-19.21 -5.49,-38.82 -8.44,-58.68 0,-5.27 -1.48,-10.54 -2.32,-16.02 -3.17,-21.12 -6.33,-41.15 -9.5,-62.22l-1.26 -8.25c-3.17,-21.11 -6.33,-42.19 -9.71,-63.3 0,-5.27 -1.89,-10.54 -2.74,-16.02 -3.17,-21.12 -6.75,-42.19 -10.13,-62.22 0,-2.76 0,-5.49 -1.27,-8.25 -3.59,-21.12 -7.17,-42.19 -10.97,-62.22 0,-5.31 -1.69,-10.8 -2.74,-16.06 -1.05,-5.27 -1.9,-11.4 -2.95,-16.89l-8.23 -45.34c0,0 0,-1.04 0,-1.47l-1.27 -6.78c-3.8,-21.07 -7.81,-42.19 -11.81,-62.22 0,-5.27 -1.9,-10.75 -3.17,-16.02 -3.8,-21.12 -8.02,-42.23 -12.03,-63.3l-1.9 -8.25c-4.22,-21.07 -8.44,-42.19 -12.87,-62.22 -1.26,-5.48 -2.32,-10.75 -3.37,-16.24 -4.64,-21.12 -9.28,-42.19 -14.14,-62.05 0,-2.29 0,-4.41 -1.48,-6.74 -1.48,-2.33 0,-1.08 0,-1.46 -4.85,-21.12 -9.92,-42.19 -14.77,-62.27l-1.27 -4.84c0,-3.8 -1.9,-7.6 -2.95,-11.4 -5.27,-21.07 -10.55,-42.19 -16.04,-62.01 0,-2.76 -1.47,-5.7 -2.32,-8.46 -5.7,-21.07 -11.6,-42.19 -17.51,-62.01l-5.06 -16.28c-5.91,-19.6 -12.03,-38.39 -18.15,-56.09 0,-1.9 -1.26,-4.02 -2.11,-5.92 -0.85,-1.9 -1.9,-5.7 -2.96,-8.42 -1.06,-2.76 -2.11,-6.35 -3.37,-9.28 -3.59,-10.36 -7.39,-21.11 -11.19,-29.75 -3.8,-8.68 -6.12,-15.63 -9.28,-23.02 -3.17,-7.38 -4.85,-10.97 -7.17,-16.24 -9.47,-21.63 -20.84,-42.4 -33.96,-62.05 0,0 0,0 0,0 0,0 -3.8,-5.48 -5.7,-7.77 -3.3,-4.36 -6.82,-8.51 -10.55,-12.48l-5.91 -5.91 -11.18 -10.11c-14.35,-12.66 -27.64,-23.84 -40.09,-33.55 -1.51,-1.39 -3.13,-2.67 -4.85,-3.8l-8.44 -6.54 -8.01 -5.91c-19.41,-14.35 -37.14,-25.95 -54.02,-36.5l-19.62 -5.7 -3.37 -2.11c-9.04,-5.43 -18.67,-9.82 -28.69,-13.08 -9.82,-3.25 -19.83,-5.93 -29.96,-8.02l-2.32 0 -6.12 -1.27c-20.52,-3.69 -41.23,-6.3 -62.03,-7.81l-16.24 0c-21.1,0 -42.2,-1.48 -62.03,0l-8.44 0c-23,0 -44.31,1.9 -62.03,3.8l-16.24 1.9c-9.76,1.01 -19.42,2.78 -28.91,5.28l-3.59 1.26c-4.12,1.83 -7.96,4.24 -11.39,7.17 -6.48,5.38 -12.54,11.23 -18.15,17.52l-8.44 9.49c-8.23,9.92 -17.52,21.09 -26.8,35.02 -3.8,5.28 -7.59,10.55 -11.39,16.24 -7.81,11.61 -15.83,24.26 -23.84,37.56 -4.85,7.81 -9.92,16.02 -14.56,24.48l-1.69 2.72 -3.17 5.7c-11.18,19.86 -21.1,40.72 -32.07,62.05 -2.74,5.27 -5.28,10.75 -7.81,16.24 -6.75,14.77 -13.08,29.75 -18.98,44.95 -2.32,5.7 -4.43,11.4 -6.54,17.06l-1.9 5.09 -1.27 3.37c-7.05,19.65 -13.1,39.64 -18.15,59.93 -0.11,0.69 -0.11,1.38 0,2.07 -1.26,4.67 -2.53,10.15 -4.22,16.28 -4.01,16.24 -9.28,37.14 -15.83,62.01 0,2.76 -1.48,5.48 -2.32,8.46 -4.85,18.74 -10.13,39.43 -16.24,62.01 0,4.62 -2.32,9.5 -3.59,14.33 -0.1,0.65 -0.1,1.3 0,1.9 -5.06,18.7 -10.33,38.56 -15.82,59.5l0 2.76c0,2.72 -1.48,5.48 -2.11,8.2l-16.46 62.05c-1.26,5.27 -2.74,10.75 -4.22,16.24 -5.28,21.07 -10.76,40.94 -16.24,62.22 0,2.76 -1.48,5.48 -2.33,8.25 -5.27,21.07 -10.76,42.19 -16.24,63.3l-3.8 14.55c-0.03,0.48 -0.03,0.99 0,1.47 -2.74,9.93 -5.27,20.04 -8.01,30.19l-8.23 32.04c0,2.76 -1.48,5.48 -2.32,8.25 -5.28,21.07 -10.76,42.19 -16.04,62.22 -1.48,5.27 -2.95,10.58 -4.22,16.06 -5.48,21.07 -10.97,42.19 -16.24,62.22 0,2.72 -1.48,5.48 -2.11,8.2 -4.22,16.5 -8.65,32.95 -12.87,49.4l-3.17 12.87c-1.48,5.27 -2.74,10.75 -4.22,16.02l-8.86 34.42c-2.32,9.45 -4.64,18.74 -7.18,27.85 0,2.72 -1.26,5.48 -2.11,8.2l-15.61 62.22c-1.48,5.53 -2.74,10.8 -4.22,16.06 -5.28,21.07 -10.55,42.19 -15.4,62.22 0,2.76 -1.48,5.48 -2.11,8.25l-15.19 62.22 -3.8 15.63c-1.48,6.95 -3.17,13.69 -4.64,21.07 -3.59,14.55 -6.96,28.72 -9.92,42.19l-1.9 8.24c-5.48,23.84 -9.92,44.74 -13.5,63.3 -1.26,5.7 -2.32,11.19 -3.17,16.02 -4.2,13.04 -6.27,26.64 -6.12,40.29z"/>
   <path class="fil9" d="M3777.63 1840.91l0 884.48 8.44 1.04 0 -838.67 -8.23 -45.34c0,0 -0.21,-1.08 -0.21,-1.51zm70.89 439.5l1.27 8.25c2.95,21.07 5.91,42.19 8.65,62.22 0,5.48 1.48,10.75 2.11,16.02l4.43 28.72 0 337.55 -16.25 -1.47 0 -454.87c0.02,1.21 -0.05,2.37 -0.21,3.58zm-147.69 -805.98c4.85,21.11 9.92,41.15 14.77,62.27l0 1181.48 -16.25 -1.9 0 -1246.69 1.48 4.84zm-67.94 -235.04c0,2.76 2.11,5.53 2.96,8.46 0.84,2.94 1.48,4.02 2.11,5.92l0 1457.24 -8.44 -1.04 0 -1480.25c0.63,2.94 1.69,6.09 3.37,9.67zm-143.68 -214.55l0 1669.28 -8.44 -1.04 0 -1675.21 8.44 6.96zm72.58 65.83c1.89,2.33 3.8,5.05 5.7,7.81l0 1604.74c-5.28,0 -10.76,-1.29 -16.24,-1.9l0 -1623.53c3.5,3.97 6.81,8.12 9.91,12.44l0.63 0.43zm-143.05 -114.78l0 1710.02 -16.25 -1.9 0 -1718.88 16.25 10.76zm-80.6 -33.97l2.32 0 0 1734.92 -8.44 -1.08 0 -1735.53 6.12 1.69zm-146.42 -10.97l0 1727.76 -8.44 -1.08 0 -1727.1 8.44 0.42zm78.28 1.9l0 1734.93 -16.25 -2.12 0 -1734.08 16.25 1.26zm-147.69 1.9l0 1715.28c-2.96,0 -6.12,0 -9.07,-1.25l-7.17 0 0 -1712.55 16.25 -1.48zm-78.28 33.12l0 1672.06 -8.44 -1.08 0 -1661.9 8.44 -9.07zm-156.97 271.52c2.11,-5.66 4.22,-11.36 6.54,-17.06l0 1397.95 -8.44 -1.04 0 -1379.86 1.9 0zm70.26 -147.68c4.64,-8.42 9.7,-16.67 14.56,-24.48l0 1564.67 -16.24 -2.11 0 -1536.78 1.69 -1.3zm-134.61 384.23c-0.1,-0.65 -0.1,-1.3 0,-1.9l0 1136.75 -16.24 -2.29 0 -1073.7c5.76,-21.37 11.18,-41.5 16.24,-60.37l0 1.51zm-78.28 297.48c-0.02,-0.48 -0.02,-1 0,-1.47l0 828.09 -8.44 -1.04 0 -795.4c3.17,-11.61 5.7,-21.76 8.44,-31.65l0 1.47zm-152.12 594.95l3.8 -15.59 0 222.17 -8.44 -1.69 0 -184.43c1.48,-8.2 3.17,-14.98 4.64,-21.94l0 1.47zm74.68 -297.47c1.48,-5.27 2.75,-10.76 4.22,-16.02l3.17 -12.87 0 545.59 -9.71 -1.47 -6.54 -1.08 0 -480.61 8.86 -33.55zm1230.67 655.75c0.36,2.81 -0.08,5.66 -1.27,8.2l-31.44 0 0 -1.25 -16.25 -1.47c-16.24,-1.25 -36.07,-3.15 -59.07,-5.48l108.03 0zm-4.22 -78.29c0,5.7 0,11.19 1.27,16.24l-651.1 0 -52.54 -6.3 -8.44 -1.08 -62.03 -7.6c-2.95,0 -6.12,0 -9.07,-1.25l781.91 0zm-7.18 -70.47c0,2.76 0,5.48 0,8.25l-1222.43 0 -6.54 -1.08 -40.09 -7.17 1269.07 0zm-1308.1 -148.72l1290.59 0c0,2.72 0,5.48 0,8.2l-1292.91 0 2.32 -8.2zm-15.4 70.47l1314.64 0 1.9 16.02 -1320.12 0c0.84,-4.88 1.9,-10.36 3.16,-16.02l0.43 0zm33.76 -147.72l1261.89 0c0,5.49 1.48,10.8 2.11,16.07l-1268.22 0 4.22 -16.07zm17.51 -70.86l1234.46 0 1.27 8.2 -1238.27 0c0.64,-3.37 1.48,-6.09 2.11,-8.85l0.42 0.65zm37.35 -147.72l1175.18 0 1.26 8.25 -1178.98 0c0.85,-4.44 1.48,-7.17 2.11,-9.93l0.43 1.69zm-17.73 70.47l1203.66 0c0,5.48 1.48,10.8 2.32,16.06l-1210.62 0c1.48,-6.99 2.74,-12.26 4.22,-17.75l0.42 1.69zm37.98 -148.72l1142.48 0c0,5.48 1.9,10.75 2.74,16.02l-1149.86 0c1.48,-6.95 2.75,-12.43 4.22,-17.7l0.42 1.69zm18.14 -70.47l1111.88 0c0,2.72 0,5.48 1.27,8.2l-1116.74 0c1.69,-4.41 2.53,-7.17 3.17,-9.89l0.42 1.68zm38.82 -148.76l1047.75 0 1.26 6.78c0,0 0,1.04 0,1.47l-1051.96 0c0,-4.45 1.69,-7.17 2.54,-9.93l0.42 1.68zm-18.35 70.47l1078.76 0c0,5.27 1.9,10.75 2.74,16.02l-1087.2 0c2.33,-7.77 3.8,-12.43 5.28,-17.7l0.42 1.69zm35.02 -134.16l3.8 -14.6 1012.72 0c1.26,5.31 2.32,10.8 3.17,16.06l-1020.11 0c-0.13,-1.08 -0.13,-2.11 0,-3.15l0.42 1.69zm22.37 -84.42l979.8 0 1.9 8.25 -984.45 0c0.85,-5.05 1.48,-7.81 2.95,-10.58l-0.2 2.33zm39.03 -148.72l909.33 0 0 1.47c0,2.33 0,4.41 1.48,6.74l-912.92 0c0.21,-5.05 1.05,-7.81 1.69,-10.54l0.43 2.33zm-18.57 70.26l943.1 0c0,5.48 2.11,10.75 3.38,16.24l-951.12 0c1.48,-7.81 2.96,-13.3 4.22,-18.57l0.42 2.33zm35.44 -134.43c1.27,-4.83 2.54,-9.71 3.59,-14.33l869.04 0c0,3.8 2.11,7.6 2.96,11.4l1.26 4.83 -877.69 0c-0.37,-1.38 -0.22,-2.89 0.43,-4.23l0.42 2.33zm21.1 -84.37l833.39 0c0,2.72 1.69,5.7 2.32,8.42l-837.39 0c0.84,-5.7 1.69,-8.42 2.32,-11.79l-0.63 3.37zm39.88 -143.7l0 -7.39 748.36 0c0,2.76 2.11,5.53 2.96,8.46l-751.95 0 0.63 -1.08zm-19.83 65.42l790.77 0 5.06 16.24 -799.41 0c1.69,-8.85 2.95,-14.33 4.22,-18.96l-0.64 2.72zm55.07 -147.68l681.47 0c2.32,5.27 4.85,10.54 7.18,16.24l-696.24 0c3.37,-9.29 5.48,-14.77 8.22,-20.04l-0.63 3.8zm35.23 -67.71l1.69 -2.76 604.47 0c1.9,2.33 3.8,5.05 5.69,7.81 1.9,2.72 0,0 0,0l-614.8 0 2.95 -5.06zm116.25 -150.24l3.59 -1.27 265 0c10.13,2.09 20.13,4.77 29.96,8.02l-309.3 0c3.18,-4.13 7.03,-7.7 11.39,-10.55l-0.63 3.8zm-64.77 69.2l464.16 0 8.02 5.91 8.44 6.54c1.72,1.13 3.34,2.4 4.85,3.8l-496.23 0c4.22,-9.49 7.59,-14.77 11.39,-20.04l-0.63 3.8z"/>
   <path class="fil6" d="M3067.47 2642.66c198.96,25.52 417.74,51.3 580.42,69l-30.17 -1511.69c-23.63,-60.76 -48.32,-105.49 -73,-128.07l-11.19 -10.15 -466.06 1580.91z"/>
   <path class="fil6" d="M2793.19 2432.1c10.13,-46.85 20.32,-93.66 30.59,-140.51 20.68,-93.66 41.78,-187.28 63.3,-280.81 43.46,-188.61 89.53,-376.63 138.2,-563.99 27,-105.49 55.91,-209.68 82.49,-314.96 0.12,-0.35 0.34,-0.61 0.62,-0.82 0.28,-0.17 0.62,-0.3 0.96,-0.3 0.34,0 0.68,0.13 0.96,0.3 0.28,0.22 0.5,0.48 0.62,0.82 -48.74,186.5 -91.15,374.68 -134.82,562.48 -43.67,187.75 -86.5,373.87 -128.28,561.18l-34.81 157.61c-11.61,53.2 -21.1,108.04 -36.29,159.94 -1.69,5.91 -12.03,4.62 -11.19,-1.69 5.48,-44.95 17.72,-92.84 27.64,-139.26z"/>
   <path class="fil3" d="M3108.82 1180.15c78.06,10.75 198.33,-118.57 241.15,-218.18 2.95,-6.75 -13.5,-74.27 -29.75,-157.18 -9.5,-50.42 -18.99,-106.76 -24.05,-158.66 0,-10.76 -35.45,12.24 -35.45,12.24l-65.61 22.78 -217.52 75.11c24.78,63.24 41.72,129.28 50.43,196.64 0.7,7.02 0.7,14.08 0,21.09l0 3.59c-2.95,41.77 5.28,191.98 80.81,202.56z"/>
   <path class="fil6" d="M3027.8 974.63l0 3.59c11.21,0.43 22.43,-0.07 33.55,-1.48 219.21,-25.74 220.27,-306.98 220.27,-306.98l-86.51 12.03 -217.52 75.11c24.78,63.24 41.72,129.28 50.43,196.63 0.64,7.02 0.57,14.09 -0.21,21.1l0 0z"/>
   <path class="fil3" d="M3256.51 232.18c58.44,105.49 67.09,447.5 1.69,537.59 -95.16,130.81 -284.83,181.02 -404.67,59.07 -116.04,-118.36 -119.42,-563.11 -42.2,-648.56 111.61,-125.96 358.67,-105.49 445.17,51.9z"/>
   <path class="fil6" d="M2973.58 514.9c0,0 1.9,1.06 1.9,1.9 0,23 3.79,49.37 24.89,56.33 0,0 0,1.48 0,1.26 -25.74,-2.74 -30.38,-37.77 -26.8,-59.5z"/>
   <path class="fil6" d="M2993.41 490.22c36.92,-3.8 42.2,70.05 7.81,73.84 -34.39,3.8 -38.61,-70.46 -7.81,-73.84z"/>
   <path class="fil6" d="M2841.29 527.77c0,0 -1.9,1.26 -1.69,2.32 2.32,22.78 0,49.37 -19.2,58.44 0,0 0,1.48 0,1.26 25.53,-4.43 26.58,-40.72 20.89,-62.03z"/>
   <path class="fil6" d="M2819.14 505.41c-37.13,0 -34.81,73.85 0,74.06 34.81,0.21 31.02,-73.85 0,-74.06z"/>
   <path class="fil6" d="M3021.05 454.35c-9.91,-2.16 -19.7,-4.83 -29.33,-8.02 -10.7,-1.38 -20.65,-6.28 -28.27,-13.93 -1.96,-2.87 -2.91,-6.31 -2.72,-9.78 0.19,-3.47 1.52,-6.78 3.78,-9.43 5.29,-4.47 11.67,-7.45 18.49,-8.63 6.82,-1.19 13.84,-0.54 20.33,1.88 13.92,2.88 26.26,10.85 34.6,22.36 1.78,2.72 2.72,5.91 2.71,9.17 -0.01,3.25 -0.96,6.43 -2.76,9.15 -1.8,2.71 -4.35,4.85 -7.34,6.13 -2.99,1.28 -6.29,1.66 -9.49,1.09z"/>
   <path class="fil6" d="M2787.91 470.17c10.13,-2.53 18.99,-6.33 28.91,-9.7 10.6,-2.06 20.24,-7.55 27.43,-15.61 1.8,-2.95 2.57,-6.42 2.19,-9.85 -0.39,-3.44 -1.9,-6.65 -4.3,-9.13 -5.55,-4.16 -12.11,-6.78 -19,-7.59 -6.89,-0.81 -13.87,0.2 -20.24,2.94 -13.71,3.72 -25.58,12.35 -33.33,24.26 -1.57,2.84 -2.3,6.07 -2.09,9.31 0.22,3.24 1.36,6.35 3.3,8.96 1.94,2.6 4.59,4.59 7.63,5.73 3.04,1.14 6.35,1.38 9.52,0.69l0 0z"/>
   <path class="fil6" d="M2980.75 659.22c-5.17,9.47 -12.24,17.77 -20.78,24.38 -8.53,6.61 -18.34,11.38 -28.81,14.02 -9.15,2.43 -18.6,3.5 -28.06,3.17 -1.82,0.22 -3.67,0.22 -5.49,0l-5.06 0c-1.23,-0.17 -2.37,-0.74 -3.24,-1.61 -0.88,-0.87 -1.44,-2.01 -1.61,-3.24 -0.1,-0.78 -0.1,-1.56 0,-2.33l0 -2.74c-1.69,-17.72 -1.69,-44.52 -1.69,-44.52 -6.33,3.59 -38.19,21.1 -38.19,11.39 -3.53,-79.73 1.06,-159.61 13.71,-238.41 0,-0.56 0.22,-1.1 0.62,-1.49 0.4,-0.4 0.93,-0.62 1.5,-0.62 0.56,0 1.09,0.22 1.49,0.62 0.4,0.39 0.62,0.93 0.62,1.49 3.8,73.63 -5.7,147.69 -3.17,221.53 11.31,-6.32 23.46,-11.01 36.08,-13.93 2.53,0 0,52.11 0,60.13 14.54,0.41 29.02,-2.1 42.58,-7.39 13.55,-5.3 25.91,-13.25 36.33,-23.41 2.54,-0.42 4.43,1.06 3.17,2.96z"/>
   <path class="fil6" d="M2794.88 295.69c117.52,66.88 259.72,-60.98 259.72,-60.98 11.5,23.45 30.25,42.56 53.48,54.5 23.22,11.93 49.68,16.06 75.44,11.76 0,0 37.56,186.09 87.14,181.66 75.53,-6.76 77.43,-265.21 49.37,-313.52 -28.06,-48.31 -93.26,-55.91 -93.26,-55.91 -9.62,-29.92 -30.19,-55.09 -57.6,-70.47 -54.85,-35.24 -228.28,32.91 -228.28,32.91 -12.21,-22.98 -29.62,-42.77 -50.85,-57.81 -5.11,-3.74 -10.91,-6.41 -17.07,-7.84 -6.16,-1.43 -12.55,-1.6 -18.78,-0.5 -6.23,1.1 -12.17,3.46 -17.47,6.92 -5.29,3.46 -9.83,7.97 -13.34,13.24 10.34,13.19 17.56,28.56 21.1,44.94 13.5,54.22 -31.43,57.81 -35.24,8.02 -1.97,-18.67 2.74,-37.43 13.29,-52.95 -24.89,-30.81 -62.03,-38.4 -82.49,-18.99 -36.5,35.02 -42.83,229.55 54.86,285.04z"/>
   <path class="fil3" d="M3242.37 514.48c0,0 54.43,-120.68 107.81,-103.17 53.38,17.51 26.37,182.5 -26.37,214.36 -6.5,4.55 -13.85,7.75 -21.62,9.39 -7.76,1.64 -15.78,1.69 -23.56,0.15 -7.78,-1.54 -15.18,-4.63 -21.73,-9.1 -6.56,-4.47 -12.15,-10.22 -16.43,-16.89l1.9 -94.73z"/>
   <path class="fil6" d="M3341.32 458.78c0,0 1.27,1.06 0,1.48 -36.93,23.63 -50.85,64.56 -58.44,105.49 1.56,-4.44 4.07,-8.48 7.35,-11.86 3.28,-3.37 7.26,-5.99 11.65,-7.68 4.39,-1.69 9.1,-2.4 13.8,-2.08 4.69,0.31 9.27,1.64 13.4,3.9 1.05,0 0,2.32 0,2.32 -7.45,-0.92 -15,0.5 -21.61,4.05 -6.61,3.55 -11.96,9.07 -15.31,15.78 -5.41,11.21 -9.65,22.95 -12.66,35.03 -1.26,4.01 -8.02,3.37 -7.38,-1.06 -10.55,-51.9 15.61,-130.39 69.2,-145.37z"/>
   <path class="fil5" d="M3027.8 978.22l70.89 176.8 244.95 -235.45 65.2 79.54c0,0 -243.9,378.51 -244.95,361.2l-74.06 -167.5 -117.31 111.58 17.51 -288.19 37.76 -37.98z"/>
   <path class="fil6" d="M2973.15 1161.15c4.43,-47.5 7.6,-95.6 14.35,-142.84 0.12,-0.32 0.33,-0.61 0.62,-0.8 0.28,-0.2 0.62,-0.3 0.96,-0.3 0.34,0 0.68,0.1 0.96,0.3 0.28,0.19 0.5,0.48 0.62,0.8 8.23,46.2 -9.92,227.65 -10.97,271.31 5.07,-4.83 108.66,-98.11 109.71,-96.59 16.25,26.77 70.68,147.68 74.48,159.68 38.61,-60.11 201.91,-296.83 247.06,-353.39 0.27,-0.23 0.61,-0.37 0.97,-0.41 0.36,-0.03 0.72,0.06 1.02,0.24 0.31,0.19 0.54,0.47 0.68,0.8 0.13,0.33 0.16,0.7 0.07,1.05 -34.39,63.29 -245.37,376.18 -248.32,375.36 -28.91,-57.61 -54.75,-116.72 -77.43,-177.04 -17.72,21.11 -122.79,126.61 -123,118.79 -0.03,-52.42 2.72,-104.84 8.22,-156.96l0 0z"/>
   <polygon class="fil10" points="2062.97,2257.22 1206.17,2257.22 1044.34,1044.68 1900.94,1044.68 "/>
   <polygon class="fil1" points="2020.77,2257.22 1164.18,2257.22 1002.14,1044.68 1858.95,1044.68 "/>
   <path class="fil4" d="M1428.12 1590.94c2.31,22.54 12.83,43.52 29.54,58.85 16.72,15.37 38.48,24.05 61.18,24.48 10.67,0.17 21.25,-1.94 31.04,-6.13 9.8,-4.23 18.58,-10.5 25.77,-18.4 7.19,-7.9 12.61,-17.19 15.91,-27.33 3.3,-10.15 4.4,-20.9 3.23,-31.48 -2.02,-22.76 -12.39,-43.96 -29.09,-59.55 -16.7,-15.59 -38.58,-24.44 -61.42,-24.87 -10.78,-0.17 -21.46,1.94 -31.35,6.22 -9.88,4.28 -18.74,10.63 -25.96,18.61 -7.22,8.03 -12.64,17.49 -15.89,27.76 -3.25,10.28 -4.26,21.12 -2.96,31.83z"/>
   <path class="fil3" d="M3604.41 1315.78c40.3,564.38 -59.07,953.01 -158.44,994.59 -267.95,112.23 -1082.56,174.67 -1269.28,154.85 -73,-7.6 -24.9,-612.92 53.59,-611.84 194.53,5.27 907.23,11.19 916.51,6.95 60.56,-28.5 63.3,-216.68 203.39,-618.83 112.87,-324.47 237.78,-156.53 254.23,74.27z"/>
   <path class="fil3" d="M1607.46 1733.56c-10.16,14.64 -15.61,32.04 -15.61,49.87 0,17.83 5.44,35.24 15.61,49.92 -28.29,10.75 -51.89,31.18 -66.67,57.56 -23.84,47.93 40.51,105.49 40.51,105.49 -26.94,17.49 -48.04,42.62 -60.55,72.15 -18.35,48.1 38.4,116.29 38.4,116.29 -15.92,29.62 -20.7,63.95 -13.51,96.81 14.56,56.13 154.44,127.64 237.78,154.24 83.33,26.6 344.32,24.27 394.33,28.67l175.33 -532.94c0,0 -339.26,-225.53 -441.59,-243.02 -87.35,-13.94 -263.73,-9.5 -304.03,44.95z"/>
   <path class="fil6" d="M1612.94 1825.97c95.37,-6.57 187.35,15.59 280.61,32.69 2.11,0 1.48,3.58 0,3.15 -92.41,-17.92 -187.35,-17.27 -280.4,-31.43 -0.48,-0.13 -0.91,-0.39 -1.22,-0.78 -0.31,-0.39 -0.5,-0.86 -0.52,-1.34 -0.03,-0.52 0.11,-0.99 0.39,-1.43 0.28,-0.39 0.68,-0.74 1.14,-0.86l0 0z"/>
   <path class="fil6" d="M1584.25 1990.75c21.46,0.65 42.74,4.15 63.3,10.32 22.57,5.27 44.94,10.97 67.3,16.89 44.52,12 89.03,25.09 132.92,39.42 0.26,-0.09 0.53,-0.09 0.8,-0.09 0.27,0.05 0.53,0.13 0.75,0.3 0.22,0.17 0.41,0.35 0.53,0.61 0.13,0.26 0.19,0.52 0.19,0.78 0,0.26 -0.06,0.56 -0.19,0.78 -0.13,0.26 -0.31,0.47 -0.53,0.6 -0.22,0.17 -0.48,0.26 -0.75,0.3 -0.27,0.04 -0.54,0 -0.8,-0.09 -44.52,-11.83 -89.24,-23.23 -134.18,-33.12 -22.57,-5.1 -45.15,-9.72 -67.72,-14.38 -21.63,-3.02 -42.86,-8.5 -63.3,-16.24 -0.81,-0.22 -1.5,-0.73 -1.92,-1.47 -0.41,-0.73 -0.52,-1.59 -0.3,-2.42 0.22,-0.82 0.76,-1.51 1.5,-1.94 0.73,-0.39 1.6,-0.52 2.41,-0.26z"/>
   <path class="fil6" d="M1559.99 2185.88c19.7,0.82 39.12,5.01 57.39,12.44l60.77 17.31c40.72,11.4 81.22,22.59 122.15,32.47 2.11,0 1.48,3.8 0,3.2 -42.2,-9.72 -84.39,-19 -124.9,-29.32 -21.1,-4.88 -40.93,-10.15 -61.39,-15.42 -18.99,-2.98 -37.28,-9.33 -54.01,-18.78 0,0 -1.06,-1.9 0,-1.9z"/>
   <path class="fil5" d="M2306.66 1824.68l0 679.37 54.01 -2.72c5.06,0 10.55,0 16.24,0l18.15 0 43.88 -2.33c2.74,0 5.49,0 8.44,0l62.03 -4.02 16.24 0 62.03 -4.23 8.44 0 62.03 -4.84 16.25 -1.25 62.03 -5.31 8.44 0 62.03 -5.66 16.25 -1.68 62.03 -6.57 8.44 0c21.1,-2.11 42.2,-4.62 62.03,-6.95l16.24 -1.9 62.03 -8.03 8.22 -6.52 30.17 -4.23 31.86 -4.66 16.25 -2.51 5.91 -1.08c19.2,-2.94 37.77,-6.09 56.12,-9.46l8.44 -1.51c21.1,-3.8 42.2,-7.77 62.03,-12l16.25 -3.58c21.09,-4.88 42.2,-9.72 62.03,-14.98l8.44 -2.33c21.52,-5.92 41.15,-12.01 58.87,-18.35l3.17 -1.04 16.24 -6.35c6.75,-2.94 13.29,-5.7 19.2,-8.64 15.2,-6.82 29.39,-15.72 42.2,-26.39l2.11 -1.9 6.33 -6.52c7.93,-8.42 15,-17.62 21.1,-27.46 1.69,-2.5 3.17,-5.27 4.85,-8.2 11.28,-19.91 20.88,-40.72 28.69,-62.27l5.69 -16.02 1.9 -5.92c5.7,-16.88 11.19,-35.02 16.25,-54.19l0 -2.11 1.9 -8.25c5.28,-19.82 9.92,-40.72 14.56,-63.3 0,-5.27 2.11,-10.54 2.95,-16.02 4.22,-20.04 7.81,-40.94 11.18,-62.22 0,-2.76 1.06,-5.48 1.48,-8.25 3.17,-21.11 6.12,-41.15 8.87,-62.22 0,-5.27 1.48,-10.75 2.11,-16.06 2.53,-21.07 5.07,-42.19 7.17,-62.22 0,-2.76 0,-5.48 0,-8.25 2.11,-21.07 4.01,-42.19 5.7,-62.22l1.26 -16.02c1.27,-16.06 2.32,-32.08 3.38,-48.1 0,-4.67 0,-9.28 0,-14.17l0 -8.2c1.26,-21.11 2.11,-42.19 2.95,-62.27 0,-5.48 0,-10.97 0,-16.24 0,-21.07 1.26,-42.19 1.69,-62.01l0 -8.25c0,-21.07 0,-42.19 0,-62.22l0 -16.24c0,-21.11 0,-42.23 -1.27,-62.05 0,-2.94 0,-5.7 0,-8.42 0,-21.11 -1.48,-42.23 -2.74,-62.05 0,-5.48 0,-10.96 0,-16.24 0,-10.15 -1.48,-19.6 -2.32,-28.89 -0.85,-9.28 -2.32,-22.8 -3.59,-33.16 0,-2.94 0,-5.66 0,-8.42 -1.9,-14.55 -4.22,-27.63 -6.54,-39.04 -1.69,-8.03 -3.37,-15.59 -5.48,-22.97 -2.11,-7.39 -3.17,-11.01 -4.85,-16.28 -6.69,-21.89 -16.42,-42.79 -28.91,-62.01l-6.33 -8.46 -5.28 -6.3c-4.83,-5.74 -10.28,-10.88 -16.24,-15.42 -8.51,-7.17 -18.42,-12.48 -29.1,-15.63 -10.68,-3.11 -21.9,-3.97 -32.93,-2.5l-8.44 1.68c-23.67,6.78 -45,19.99 -61.61,38.17l0 0c-2.54,2.55 -5.07,5.09 -7.59,8.03 -2.54,2.94 -5.91,6.56 -8.65,10.15 -13.05,16.23 -24.63,33.59 -34.6,51.9l-8.86 16.24c-6.33,12.44 -12.45,25.74 -18.57,40.07 -2.74,6.74 -5.7,13.73 -8.44,21.11l-3.17 8.42c-6.12,16.67 -12.24,34.41 -17.93,53.15 0,2.98 -1.9,5.92 -2.74,8.89 -0.85,2.94 -3.17,10.75 -5.06,16.24l-18.78 62.01 -2.54 8.46c-3.8,12.87 -7.59,25.52 -11.39,37.74 -2.53,8.25 -5.07,16.28 -7.39,24.27 -2.32,8.03 -3.37,10.97 -4.85,16.28 -1.48,5.27 -2.74,8.42 -4,12.65l-15.19 49.57c0,2.72 -1.9,5.48 -2.74,8.2 -6.54,21.12 -13.09,42.23 -19.2,62.05 -1.89,5.48 -3.59,10.97 -5.06,16.24 -6.97,21.12 -13.5,42.19 -19.83,60.97 0,0 0,0 0,1.3 0,1.25 -1.69,5.48 -2.74,8.2l-5.28 15.63c-5.7,17.06 -11.18,32.47 -16.24,46.59l-6.12 16.06c-7.48,21.55 -16.87,42.36 -28.06,62.22 -1.89,2.98 -4.08,5.74 -6.54,8.25 -1.39,1.3 -3.17,2.11 -5.06,2.29l-16.25 0 -62.03 -1.25 -8.44 0 -27.43 0 -34.6 0 -16.24 0 -62.03 -1.47 -8.44 0 -62.03 -1.47 -16.25 0 -62.03 -1.46 -8.44 0 -62.03 -1.51 -16.24 0 -62.03 -1.69 -8.44 0 -62.03 -1.69 -16.24 0 -62.03 -1.47 -8.44 0 -62.03 -1.69 -16.25 0 -52.53 -4.44z"/>
   <path class="fil9" d="M3628.89 1281.63l0 426.15c0,-4.62 0,-9.28 0,-14.12l0 -8.25c1.26,-21.07 2.11,-42.19 2.95,-62.22 0,-5.48 0,-10.97 0,-16.24 0,-21.12 1.27,-42.19 1.69,-62.05l0 -8.2c0,-21.12 0,-42.19 0,-62.27l0 -16.24c0,-21.07 0,-42.19 -1.26,-62.01 0,-2.98 0,-5.7 0,-8.46 0,-21.07 -1.48,-42.19 -2.74,-62.01 0,-5.48 0,-10.97 0,-16.24 1.06,-10.15 0.21,-19.65 -0.63,-27.85zm-140.3 -232.1l0 1265.9 -6.33 6.57 -2.11 1.9 0 -1271.81 8.44 -2.55zm78.27 33.55l0 1058.07c-5.06,19.22 -10.55,37.35 -16.24,54.24l0 -1126.86c5.97,4.49 11.42,9.67 16.24,15.37l0 -0.82zm-156.33 14.77c2.53,-2.94 5.06,-5.48 7.59,-8.03l0 1268.88 -16.24 6.31 0 -1256.18c2.74,-3.58 5.69,-6.95 8.65,-10.11l0 -0.86zm-70.68 118.36l0 1168.23 -8.44 2.33 0 -1148.84c2.74,-7.17 6.12,-14.12 8.44,-20.85l0 -0.87zm-151.91 476.59c1.05,-2.72 1.89,-5.48 2.74,-8.2 0.84,-2.76 0,0 0,-1.25l0 734 -8.44 1.47 0 -709.51 5.7 -16.5zm69.2 -219.19c1.48,-5.27 3.17,-10.75 4.85,-16.23 1.69,-5.49 4.85,-16.07 7.38,-24.27l0 968.6 -16.24 3.63 0 -930.9 4.01 -0.82zm-136.51 370.28l0 585.5 -16.24 2.5 0 -587.35 16.24 -0.65zm-78.27 -2.33l0 600.48 -8.44 1.25 0 -600.87 8.44 -0.87zm-147.69 -2.72l0 620.08 -8.44 0 0 -619.48 8.44 -0.61zm78.28 1.9l0 609.29 -16.24 1.9 0 -611.84 16.24 0.65zm-147.69 -3.58l0 629.15 -16.24 1.68 0 -630.44 16.24 -0.39zm-78.28 -1.9l0 638.43 -8.44 0 0 -637.83 8.44 -0.6zm-147.69 -3.8l0 654.02 -8.44 0 0 -653.42 8.44 -0.6zm70.26 1.9l8.02 0 0 646.42 -16.24 1.3 0 -647.11 8.23 -0.61zm-140.72 -3.8l0 661.19 -16.25 0 0 -660.59 16.25 -0.6zm-78.28 -1.9l0 668.18c-2.96,0 -5.7,0 -8.44,0l0 -667.58 8.44 -0.6zm-70.47 -1.9l0 673.89c-5.7,0 -11.19,0 -16.24,0l0 -675.18 16.24 1.3zm746.46 603.41l-5.91 1.04 -16.24 2.55 -31.86 4.62 -765.87 0 0 -8.2 819.88 0zm-731.48 70.47l-18.15 0c-5.7,0 -11.19,0 -16.24,0l-54.01 2.72 0 -4.45 88.4 1.73zm1042.26 -148.76c-5.91,2.94 -12.44,5.7 -19.2,8.64l-16.24 6.35 -3.17 1.04 -1092.05 0 0 -16.02 1130.66 0zm77.01 -70.47c-1.69,2.94 -3.17,5.7 -4.85,8.25l-1202.61 0 0 -8.25 1207.46 0zm55.07 -147.68l-1.9 8.2 -1260.84 0 0 -8.2 1262.74 0zm-21.1 70.47l-5.7 16.02 -1236.36 0 0 -16.02 1242.06 0zm38.19 -148.76c0,5.48 -1.89,10.75 -2.95,16.02l-1277.29 0 0 -16.02 1280.25 0zm12.66 -70.47c0,2.76 0,5.48 -1.48,8.25l-1291.43 0 0 -8.25 1292.91 0zm18.99 -148.72c0,2.72 0,5.48 0,8.2l-491.59 0c2.46,-2.5 4.65,-5.27 6.54,-8.2l485.05 0zm-944.15 0l62.03 1.47 8.44 0 62.03 1.47 16.24 0 62.03 1.46 9.7 0 62.03 1.47 16.25 0 34.6 0 -699.83 0 0 -8.2 366.48 2.33zm936.13 70.43c0,5.31 -1.27,10.8 -2.11,16.06l-1301.77 0 0 -16.06 1303.88 0zm-444.12 -147.68l459.52 0 -1.26 16.06 -464.16 0 5.91 -16.06zm23.84 -72.59l440.53 0 0 8.25 -441.8 0c1.27,-2.72 1.27,-5.48 1.27,-8.25zm47.26 -148.72l398.76 0 0 8.2 -400.87 0c1.06,-2.72 1.9,-5.48 2.96,-8.2l-0.85 0zm-21.09 70.26l418.17 0c0,5.27 0,10.75 0,16.24l-421.96 0c0.21,-5.27 1.89,-10.75 3.8,-16.24l0 0zm46 -148.76l374.49 0 0 16.24 -379.77 0c1.9,-5.27 3.59,-10.75 5.28,-16.24l0 0zm21.1 -70.47l351.92 0c0,2.76 0,5.48 0,8.46l-354.45 0 2.54 -8.46zm47.68 -147.68l293.26 0c0,2.76 0,5.48 0,8.46l-297.48 0 4.22 -8.46zm-23.84 70.47l324.28 0c0,5.27 0,10.75 0,16.24l-330.19 0c2.95,-6.52 4.43,-11.79 6.12,-17.27l-0.21 1.04zm60.13 -147.68l240.31 0c1.69,5.27 3.37,10.75 4.85,16.24l-253.18 0 8.02 -16.24zm51.06 -71.12l154.02 0 6.33 8.46 -168.78 0c3.37,-4.45 5.91,-7 8.44,-8.46z"/>
   <path class="fil6" d="M2302.23 1824.89c-0.55,-1.08 -0.8,-2.24 -0.75,-3.45 0.05,-1.21 0.41,-2.37 1.05,-3.41 0.64,-1 1.53,-1.86 2.59,-2.42 1.06,-0.56 2.24,-0.86 3.45,-0.82 106.76,-1.3 214.15,4.41 320.9,7.17 106.76,2.72 213.94,4.83 320.91,8.42 60.13,2.11 175.75,7.38 176.8,5.7 1.06,-1.69 33.34,-102.12 40.3,-122.98 13.5,-40.72 27.64,-81.27 42.2,-121.99 4.01,-11.79 8.23,-23.62 12.45,-35.23 1.26,-7.99 2.74,-16.02 3.59,-23.84 0.84,-7.77 2.53,-21.07 3.8,-32.9 2.43,-21.76 6.02,-43.4 10.76,-64.78 0.19,-0.34 0.49,-0.65 0.86,-0.78 0.37,-0.17 0.79,-0.17 1.17,-0.04 0.39,0.13 0.71,0.39 0.92,0.73 0.2,0.35 0.28,0.74 0.21,1.17 -4.35,22.24 -6.61,44.82 -6.75,67.49l-1.26 16.24c21.1,-56.09 26.16,-66.02 44.09,-122.77 -0.09,-0.26 -0.13,-0.56 -0.09,-0.82 0.04,-0.26 0.13,-0.52 0.29,-0.73 0.15,-0.22 0.36,-0.43 0.6,-0.56 0.24,-0.13 0.51,-0.17 0.78,-0.17 0.27,0 0.54,0.04 0.78,0.17 0.24,0.13 0.45,0.35 0.61,0.56 0.15,0.21 0.26,0.47 0.29,0.73 0.04,0.26 0.01,0.56 -0.09,0.82 -21.1,82.05 -32.49,117.28 -58.23,198.29 -13.09,40.94 -25.95,81.87 -39.67,122.81 -6.76,19.82 -37.56,112.66 -47.48,131.23 -1.26,2.33 -109.71,-3.8 -163.09,-4.62 -53.38,-0.86 -106.97,-1.68 -160.56,-2.98l-320.91 -7.99c-59.29,-1.51 -119,-1.51 -178.28,-4.88 0,7 -5.27,42.19 -4.85,44.52 0.42,2.33 -3.38,2.76 -3.17,0 0.21,-2.72 -4.43,-47.24 -4.22,-47.89z"/>
   <path class="fil6" d="M2426.71 1878.91c0,-1.69 2.95,-2.33 3.38,0 6.75,47.07 7.8,95.17 10.55,142.63 2.74,47.46 4.85,98.32 6.54,147.68 3.17,98.11 8.02,196.65 5.28,295.36 0,0.86 -0.33,1.69 -0.93,2.24 -0.59,0.61 -1.4,0.95 -2.24,0.95 -0.84,0 -1.65,-0.35 -2.24,-0.95 -0.59,-0.56 -0.93,-1.38 -0.93,-2.24 -9.7,-96.81 -12.02,-194.92 -15.61,-292.21 -1.82,-48.1 -3.23,-96.33 -4.22,-144.7 -0.63,-49.83 -3.17,-100.01 0.42,-148.76z"/>
   <path class="fil6" d="M2301.38 2227.25l0 -21.12c0,-3.37 0,-6.95 0,-10.32 -0.48,-1.51 -0.48,-3.15 0,-4.67 0,-1.9 0,-3.8 0,-5.91l1.69 0c0,2.11 0,4.02 0,5.91 0,0 0,1.3 0,1.47 1.9,50.87 7.38,101.69 9.7,152.56 2.32,50.87 3.17,102.34 2.74,153.81 58.02,-4.84 116.89,-4.23 175.11,-7.17 58.24,-2.98 120.68,-7.39 181.03,-12.26 120.89,-9.67 241.57,-21.07 361.83,-38.17l100.22 -14.12c33.96,-4.88 69.41,-7.39 102.75,-15.42 2.11,0 2.96,2.94 0,3.37 -30.59,3.8 -60.98,12.26 -91.36,17.75 -30.38,5.48 -59.49,10.54 -89.46,15.15 -59.64,9.59 -119.49,18.01 -179.54,25.35 -119.84,14.9 -240.1,25.39 -360.78,31.43l-103.59 4.41c-33.97,1.08 -68.36,3.2 -102.33,1.51 -1.44,-0.13 -2.81,-0.74 -3.85,-1.73 -1.04,-0.99 -1.7,-2.33 -1.84,-3.8 0,-53.37 -2.74,-106.74 -3.37,-160.11 0,-26.17 0,-52.34 0,-78.5 0.42,-13.26 0.63,-26.34 1.06,-39.43z"/>
   <path class="fil3" d="M1048.77 1393.64c-53.8,69.22 -178.28,144.74 -199.8,206.15 -5.82,14.98 -6.67,31.44 -2.41,46.94 4.25,15.5 13.38,29.24 26.04,39.13 0,0 -70.04,17.53 -80.39,76.39 -5.28,30.4 38.61,65.63 38.61,65.63 -15.62,4.8 -29.61,13.82 -40.44,26.08 -10.83,12.22 -18.07,27.2 -20.95,43.31 -4.64,42.19 39.87,71.12 39.87,71.12 0,0 -45.79,40.5 -36.71,84.37 18.15,90.29 374.29,168.8 458.26,49.79 39.24,-55.49 -48.73,-69.82 -48.73,-69.82 0,0 131.44,-9.93 149.58,-82.91 18.15,-73.02 -97.47,-84.42 -97.47,-84.42 0,0 127.64,-10.53 138.62,-88.17 10.97,-77.64 -105.49,-73.02 -105.49,-73.02 0,0 90.93,-36.06 85.87,-97.46 -8.44,-101.26 -207.18,-14.98 -281.45,-50.87l-23 -162.23z"/>
   <path class="fil6" d="M828.93 1828.04c-1.27,0 -2.11,1.9 0,2.55 127.44,61.58 272.71,75.48 409.52,39.25 4.64,-1.25 7.59,-7.38 1.9,-6.13 -94.52,20.25 -298.76,-0.43 -411.42,-35.67z"/>
   <path class="fil6" d="M1276 1698.5c-133.97,34.2 -265.62,21.11 -398.97,-10.1 -1.69,0 -2.11,1.9 0,2.72 60.76,33.55 147.69,44.95 216.47,48.32 63.58,4.31 127.18,-8.2 184.4,-36.28 1.69,-1.08 1.06,-5.26 -1.9,-4.66z"/>
   <path class="fil7" d="M753.61 4477.13l1351.98 -937.99 196 -136.11c0,0 55.49,37.35 139.04,84.42 116.04,63.3 286.09,145.35 436.53,167.5 253.18,37.35 673.67,33.34 886.13,-251.05 179.13,-239.48 56.75,-673.24 56.75,-673.24l-295.38 -32.73c0,0 -611.85,-511.18 -1037.61,-527.46 -180.39,-7.17 -443.07,129.54 -686.33,272.39 -161.76,94.99 -1138.61,812.53 -1775.08,1282.72 197.2,290.84 443.92,545.33 727.98,751.56z"/>
   <path class="fil6" d="M2301.59 3402.86c0,0 55.49,37.31 139.04,84.37 147.69,-176.83 460.37,-497.92 469.86,-509.32l-608.9 424.95z"/>
   <path class="fil6" d="M3328.03 2549.21c39.24,26.99 77.01,56.09 115.83,84.37 38.82,28.28 77.22,53.37 113.3,83.34 36.08,29.96 71.73,63.3 105.49,95.99 16.67,15.85 33.33,31.87 49.37,48.1 17,15.89 32.8,33.03 47.26,51.3 1.26,1.69 -1.27,3.8 -2.95,2.72 -18.3,-13.04 -35.83,-27.16 -52.54,-42.19 -18.35,-15.42 -36.29,-31.22 -54.64,-46.63 -35.24,-29.97 -71.1,-59.07 -105.49,-89.26 -34.39,-30.14 -67.31,-63.3 -101.91,-92.62 -34.6,-29.32 -75.95,-63.26 -114.57,-93.23 -0.63,-1.3 0,-2.55 0.85,-1.9z"/>
   <path class="fil6" d="M1226 2838.44c71.52,-82.91 378.29,-300.41 574.29,-397.7 0.38,-0.09 0.77,-0.04 1.13,0.13 0.35,0.13 0.64,0.43 0.81,0.78 0.17,0.35 0.22,0.74 0.14,1.12 -0.09,0.35 -0.3,0.69 -0.6,0.95 -195.37,125.53 -517.33,363.5 -572.82,398.95 -2.54,1.47 -4.85,-2.11 -2.96,-4.23z"/>
  </g>
 </g>
</svg>
