<svg width="689" height="644" viewBox="0 0 689 644" fill="none" xmlns="http://www.w3.org/2000/svg">
<path opacity="0.25" fill-rule="evenodd" clip-rule="evenodd" d="M579.711 211.094C624.952 301.192 633.492 415.158 541.712 490.189C447.255 567.408 309.37 564.175 206.539 516.165C110.26 471.215 62.4287 377.847 90.5614 279.556C119.453 178.612 214.28 91.0734 332.963 74.4625C447.509 58.4305 536.5 125.039 579.711 211.094Z" fill="#2DC071"/>
<path opacity="0.25" fill-rule="evenodd" clip-rule="evenodd" d="M408.508 82.1824C511.642 103.58 613.316 167.205 622.669 282.237C632.296 400.624 548.037 502.181 446.539 549.895C351.508 594.57 244.07 573.109 177.367 491.577C108.864 407.845 90.7076 282.838 146.789 183.507C200.917 87.6366 310.001 61.7453 408.508 82.1824Z" fill="#2DC071"/>
</svg>
