<?xml version="1.0" encoding="UTF-8"?>
<!DOCTYPE svg PUBLIC "-//W3C//DTD SVG 1.1//EN" "http://www.w3.org/Graphics/SVG/1.1/DTD/svg11.dtd">
<!-- Creator: CorelDRAW 2019 (64-Bit) -->
<svg xmlns="http://www.w3.org/2000/svg" xml:space="preserve" width="0.763406in" height="0.74339in" version="1.1" style="shape-rendering:geometricPrecision; text-rendering:geometricPrecision; image-rendering:optimizeQuality; fill-rule:evenodd; clip-rule:evenodd"
viewBox="0 0 763.41 743.39"
 xmlns:xlink="http://www.w3.org/1999/xlink"
 xmlns:xodm="http://www.corel.com/coreldraw/odm/2003">
 <defs>
  <style type="text/css">
   <![CDATA[
    .fil1 {fill:#E4A788}
    .fil0 {fill:#FFECE2;fill-rule:nonzero;fill-opacity:0.701961}
   ]]>
  </style>
 </defs>
 <g id="Layer_x0020_1">
  <metadata id="CorelCorpID_0Corel-Layer"/>
  <g id="_1578485750704">
   <path id="Ellipse_x0020_10" class="fil0" d="M604.17 302.08c0,-166.84 -135.25,-302.08 -302.08,-302.08 -166.84,0 -302.08,135.25 -302.08,302.08 0,166.84 135.25,302.08 302.08,302.08 166.84,0 302.08,-135.25 302.08,-302.08z"/>
   <g>
    <path class="fil1" d="M375.94 248.69c-13.37,-1.93 -38.93,-0.43 -53.59,-0.43 -14.45,0 -63.37,-6.31 -52.95,13.5 0.26,0.5 2.73,3.12 3.41,3.49 4.3,2.32 80.67,1.15 87.77,1.04 -13.48,22.17 -18.8,26.18 -29.68,54.33 -8.01,20.7 -14.24,46.5 -14.38,70.65 -28.45,1 -66.2,0.1 -96.35,0.1 -9.36,0 -22.54,-2.39 -23.32,8.34 -0.87,11.9 12.5,9.67 22.35,9.67 31.32,0 66.88,-0.71 97.23,0.06 1.49,40.02 14.15,79.19 35.19,111.76 2.67,4.14 7.3,9.72 8.7,13.15 -26.88,0.78 -56.3,-0.73 -81.76,0.06 -9.69,0.3 -13.96,9.5 -7.37,15.72 4.71,4.45 17.75,2.31 24.89,2.31l69.1 -0c17.86,-0.08 9.72,1.9 33.91,21.58 36.35,29.56 82.24,47.61 131.46,49.54 0.52,25.07 4.07,40.85 14.8,60.09 29.75,53.4 100.22,76.41 155.2,46.54 33.71,-18.32 56.86,-48.96 61.92,-89.14 5.49,-43.55 -13.41,-80.41 -44.06,-106.12 0.83,-1.91 14.82,-22.61 20.35,-33.2 21.19,-40.55 28.77,-88.18 22.06,-134.73 -7.14,-49.48 -30.42,-91.61 -63.68,-125.12 -2.46,-2.48 -4.67,-4.18 -7.01,-6.65 -16.05,-16.98 -48.65,-35.86 -75.18,-45.52 -69.87,-25.43 -152.95,-12.45 -210.74,32.93 -10.65,8.37 -20.77,17.06 -28.28,26.06zm258.63 280.86c-49.97,6.62 -92.43,51.97 -85,110.17 6.32,49.58 52.56,91.89 110.17,84.51 49.34,-6.33 91.99,-52.36 84.52,-110.11 -6.35,-49.09 -52.32,-92.17 -109.69,-84.57zm-101.79 75.92c1.03,-11.48 7.19,-20.69 8.91,-29.06 -65.18,-1.83 -115.69,-29.31 -148.42,-78.37 -47.24,-70.8 -36.47,-164.21 22.09,-222.4 42.65,-42.37 107.24,-62.11 169.72,-45.35 78.21,20.99 130.71,91.3 130.45,172.27 -0.12,37.27 -12.23,70.62 -32.66,99.69l-8.23 11.25c3.87,2.13 10.02,3.21 14.49,4.95 4.52,1.76 9.2,4.87 13.73,5.81 10.15,-9.75 24.19,-39.04 30.58,-56.04 17.65,-46.91 14.41,-101.05 -4.12,-146.64 -15.71,-38.68 -44.92,-72.77 -79.53,-94.61 -62.42,-39.41 -142.29,-42.52 -205.95,-8.44 -36.65,19.62 -67.25,49.94 -86.28,86.88 -21.4,41.52 -30.86,93.46 -17.37,144.51 13.32,50.4 38.84,82.66 66.35,106.85 12.86,11.29 33.59,24.61 53.68,32.91 21.82,9.02 46.58,15.41 72.55,15.78zm-9.19 -362.05c-81.32,8.12 -150.45,81.53 -140.96,173.02 3.71,35.85 19.65,68.78 43.46,93.56 16.17,16.83 37.73,30.55 60.31,38.94 18.2,6.76 39.14,9.89 58.8,9.12 3.17,-0.13 6.54,0.16 8.89,-1.51l8.92 -10.64c3.55,-3.83 6.43,-5.64 10.37,-9.11 6.59,-5.81 15.36,-10.96 24.55,-15.37 8.96,-4.3 18.72,-7.48 29.53,-9.32 28.48,-4.85 20.87,6.54 39.95,-19.44 22.31,-30.38 33.13,-69.72 29.2,-108.24 -8.32,-81.74 -81.22,-150.18 -173.02,-141.01z"/>
    <path class="fil1" d="M637.88 572.03c-24.96,3.78 -38.25,31.15 -23.27,48.22 11.76,13.38 51.28,20.1 52.76,30.75 1.44,10.32 -14.24,16.92 -25.39,14.87 -19.93,-3.67 -12.08,-16.76 -19.96,-21.92 -5.61,-3.68 -12.29,0 -13.63,4.96 -1.6,5.92 1.11,13.02 3.87,17.46 7.1,11.41 11.46,11.28 25.31,17.44 0.86,6.86 1.07,13.06 8.93,13.38 8.48,0.34 8.84,-6.45 9.73,-13.38 13.87,-6.13 17.46,-5.28 24.95,-16.84 15.72,-24.3 -8.32,-38.63 -28.56,-46.83 -7.53,-3.06 -24.91,-9.08 -26.18,-15.52 -2,-10.17 14.31,-17.11 25.58,-14.95 19.77,3.78 12.16,17.94 19.8,22.04 9.13,4.9 20.19,-4.51 9.85,-22.48 -4.54,-7.88 -13.41,-15.04 -25.74,-17.16 -0.05,-7.39 -0.92,-13.45 -8.59,-13.78 -8.39,-0.36 -9.39,6.16 -9.46,13.76z"/>
    <path class="fil1" d="M549 390.89c-3.64,-23.79 6.11,-66.25 -6.3,-70.58 -14.93,-5.21 -12.1,15.65 -12.1,25.81 0,12.98 0,25.95 0,38.93 0,28.93 -5.8,23.98 52.59,24.36 18.94,0.13 15.63,-17.09 3.93,-18.09 -9.58,-0.81 -30.55,1.48 -38.11,-0.43z"/>
    <path class="fil1" d="M202.26 464.01c-3.25,1.57 -6.31,3.18 -5.32,9.41 0.58,3.65 3.71,6.77 7.61,7.41 4.41,0.72 26.49,0.66 29.52,-1.04 7.18,-4.02 5.97,-15.57 -3.27,-16.78 -5.56,-0.73 -24.5,-0.95 -28.54,1z"/>
    <path class="fil1" d="M202.71 320.48c-8.96,3.48 -7.16,15.2 0.94,17.12 3.71,0.88 26.63,0.84 29.74,-0.51 7.54,-3.28 7.05,-15.38 -1.73,-17.02 -3.8,-0.71 -26.28,-0.63 -28.95,0.41z"/>
    <path class="fil1" d="M262.23 320.56c-5.66,2.52 -8.4,10.2 -3.33,15.02 3.03,2.87 17.19,3.6 22.2,1.52 6.11,-2.54 6.69,-11.44 2.22,-15.24 -3.11,-2.64 -17.01,-3.12 -21.09,-1.3z"/>
    <path class="fil1" d="M262.17 463.57c-5.65,2.56 -8.25,10.32 -3.27,15.06 2.97,2.83 17.3,3.62 22.19,1.52 5.63,-2.42 7,-11.26 2.19,-15.17 -3.02,-2.45 -16.81,-3.35 -21.11,-1.4z"/>
    <path class="fil1" d="M235.74 266.32c6.9,0 17.31,-0.05 14.57,-11.46 -1.69,-7.03 -9.1,-6.67 -16.54,-6.66 -18.96,0.04 -13.66,14.37 -8.63,17.04 2.83,1.5 7.04,1.08 10.59,1.08z"/>
    <path class="fil1" d="M239.63 534.37c-9.02,0 -18.35,-1.15 -18.96,8.36 -0.53,8.16 5.99,9.74 13.09,9.74 8.08,0 14.65,0.85 16.43,-6.18 2.01,-7.92 -3.36,-11.92 -10.56,-11.92z"/>
    <path class="fil1" d="M548.97 273.69c-10.69,5.15 -3.92,21.45 8.13,16.24 9.87,-4.27 3.31,-21.74 -8.13,-16.24z"/>
    <path class="fil1" d="M418.75 374.93c-11.53,3.79 -6.07,20.85 5.82,17.01 10.85,-3.51 6.27,-20.98 -5.82,-17.01z"/>
    <path class="fil1" d="M489.42 282.3c-10.32,3.77 -5.63,20.77 6.76,16.89 10.43,-3.27 5.76,-21.46 -6.76,-16.89z"/>
    <path class="fil1" d="M635.48 458.53c-10.85,3.33 -5.83,21.79 6.65,16.8 9.19,-3.68 6.04,-20.7 -6.65,-16.8z"/>
    <path class="fil1" d="M644.6 341.93c-11.44,4.7 -4.7,21.28 7.2,16.55 9.83,-3.91 4.05,-21.17 -7.2,-16.55z"/>
    <path class="fil1" d="M425.18 435.12c-10.99,3.91 -5.02,21.36 6.79,16.9 10.19,-3.85 4.66,-20.97 -6.79,-16.9z"/>
    <path class="fil1" d="M606.29 295.01c-10.54,3.83 -5.92,21.9 6.69,16.89 9.79,-3.89 4.58,-20.98 -6.69,-16.89z"/>
    <path class="fil1" d="M517.18 509.33c-12.36,3.32 -6.88,20.63 5,17.19 10.46,-3.03 6.45,-20.27 -5,-17.19z"/>
    <path class="fil1" d="M441.34 319.67c-11.71,5.65 -2.49,21.19 7.89,16.23 9.35,-4.47 3.47,-21.71 -7.89,-16.23z"/>
    <path class="fil1" d="M656.13 401.16c-10.57,3.16 -7.35,21.04 5.2,17.33 10.45,-3.09 6.3,-20.76 -5.2,-17.33z"/>
    <path class="fil1" d="M461.54 483.89c-10.88,3.01 -6.95,20.58 5.17,17.32 10.63,-2.87 6.53,-20.55 -5.17,-17.32z"/>
   </g>
  </g>
 </g>
</svg>
