<?xml version="1.0" encoding="UTF-8"?>
<!DOCTYPE svg PUBLIC "-//W3C//DTD SVG 1.1//EN" "http://www.w3.org/Graphics/SVG/1.1/DTD/svg11.dtd">
<!-- Creator: CorelDRAW 2019 (64-Bit) -->
<svg xmlns="http://www.w3.org/2000/svg" xml:space="preserve" width="1.67613in" height="1.67613in" version="1.1" style="shape-rendering:geometricPrecision; text-rendering:geometricPrecision; image-rendering:optimizeQuality; fill-rule:evenodd; clip-rule:evenodd"
viewBox="0 0 1676.13 1676.13"
 xmlns:xlink="http://www.w3.org/1999/xlink"
 xmlns:xodm="http://www.corel.com/coreldraw/odm/2003">
 <defs>
  <style type="text/css">
   <![CDATA[
    .fil2 {fill:none}
    .fil1 {fill:#459866}
    .fil0 {fill:#55BC7E}
    .fil3 {fill:white}
   ]]>
  </style>
    <clipPath id="id0">
     <path d="M98.13 443.87l-34.48 74.9c-1.68,4.44 -2.26,8.12 -3.97,12.36l-4.64 8.32c-0.18,-0.48 -0.91,1.24 -1.44,1.79 -2.65,12.3 -13.35,42.3 -17.67,53.22 -5.5,28.06 -15.24,65.69 -21.54,94.24 -7.32,33.13 -8.65,65.86 -12.9,96.67l-1.48 49.42 1.35 49.11 3.14 48.36c7.82,22.31 11.7,73.64 19.61,104.28 7.67,29.66 22.36,66.87 27.87,92.89 6.19,17.49 12.79,33.51 20.64,51.42 7.71,17.59 17.02,31.22 23.37,48.31 0.52,0.63 1.24,0.85 1.44,1.98 0.21,1.13 1.13,1.56 1.41,1.99 57.57,89.16 54.37,102.44 146.4,194.5 59.17,59.2 51.01,50.07 114.5,98.22 68.39,51.86 197.54,109.59 289.42,129.39 19.31,4.16 38.12,7.34 57.91,10.62 9.55,1.58 20.39,3.94 30.71,5.06l33.02 5.21 60.71 0 79.98 0 8.7 -2.78c3.05,-0.69 6.13,-1.12 9.23,-1.58l54.02 -7.72c21.13,-4.04 46.08,-8.61 67.74,-14.1 125.43,-31.74 200.34,-79.63 299.42,-148.7 9.04,-6.3 15.34,-15.54 23.82,-15.02 17.35,-24.02 40.33,-37.73 58.6,-56.51 11.43,-11.74 41.2,-50.24 55.1,-56.66 2.33,-9.15 -0.13,-2.6 5.17,-10.72 2.19,-3.35 3.85,-4.98 7.08,-9.4l62.61 -91.04c6.05,-9.87 15.87,-33.11 22.17,-37.57 8.35,-25.62 22.83,-52.66 32.7,-77.66 10.87,-27.5 17.89,-50.46 27.83,-80.12 13.21,-39.36 29.56,-140.98 29.79,-182.67l-0.26 -0.02 0.91 -49.09 -0.61 -49.11 -3.88 -48.36c-8.28,-25.35 -11.54,-71.98 -19.56,-101.22 -9.01,-32.86 -20.41,-62.31 -28.44,-94.02 -7.38,-12.99 -15.15,-36.1 -22.18,-51.39 -5.09,-11.04 -22.22,-43.37 -23.35,-51.35 -12.43,-10.82 -19.5,-30.41 -28.61,-44.37l-58.85 -81.63c-4.83,-6.49 -10.6,-12.76 -16.33,-19.69 -23.55,-28.53 -27.51,-29.04 -51.5,-53.45 -103.76,-105.57 -259.66,-192.46 -404.87,-220.28l-116.44 -18.95c-0.53,-1.1 -1.85,-0.56 -2.72,-0.98l-112.46 0 -16.91 2.93c-77.17,6.37 -144.95,21.67 -217.89,47.58 -71.43,25.38 -130.57,58.5 -185.98,95.6 -37.54,25.13 -85.53,65.08 -118.61,97.53 -38.7,37.96 -54.81,64.16 -81.6,95.39 -7.19,8.38 -8.17,9.9 -13.93,18.73 -9.56,14.67 -21.13,29.96 -28.79,43.37 -8.96,15.69 -16.55,29.02 -24.5,42.74z"/>
    </clipPath>
 </defs>
 <g id="Layer_x0020_1">
  <metadata id="CorelCorpID_0Corel-Layer"/>
  <g id="_1615523973312">
   <path class="fil0" d="M98.13 443.87l-34.48 74.9c-1.68,4.44 -2.26,8.12 -3.97,12.36l-4.64 8.32c-0.18,-0.48 -0.91,1.24 -1.44,1.79 -2.65,12.3 -13.35,42.3 -17.67,53.22 -5.5,28.06 -15.24,65.69 -21.54,94.24 -7.32,33.13 -8.65,65.86 -12.9,96.67l-1.48 49.42 1.35 49.11 3.14 48.36c7.82,22.31 11.7,73.64 19.61,104.28 7.67,29.66 22.36,66.87 27.87,92.89 6.19,17.49 12.79,33.51 20.64,51.42 7.71,17.59 17.02,31.22 23.37,48.31 0.52,0.63 1.24,0.85 1.44,1.98 0.21,1.13 1.13,1.56 1.41,1.99 57.57,89.16 54.37,102.44 146.4,194.5 59.17,59.2 51.01,50.07 114.5,98.22 68.39,51.86 197.54,109.59 289.42,129.39 19.31,4.16 38.12,7.34 57.91,10.62 9.55,1.58 20.39,3.94 30.71,5.06l33.02 5.21 60.71 0 79.98 0 8.7 -2.78c3.05,-0.69 6.13,-1.12 9.23,-1.58l54.02 -7.72c21.13,-4.04 46.08,-8.61 67.74,-14.1 125.43,-31.74 200.34,-79.63 299.42,-148.7 9.04,-6.3 15.34,-15.54 23.82,-15.02 17.35,-24.02 40.33,-37.73 58.6,-56.51 11.43,-11.74 41.2,-50.24 55.1,-56.66 2.33,-9.15 -0.13,-2.6 5.17,-10.72 2.19,-3.35 3.85,-4.98 7.08,-9.4l62.61 -91.04c6.05,-9.87 15.87,-33.11 22.17,-37.57 8.35,-25.62 22.83,-52.66 32.7,-77.66 10.87,-27.5 17.89,-50.46 27.83,-80.12 13.21,-39.36 29.56,-140.98 29.79,-182.67l-0.26 -0.02 0.91 -49.09 -0.61 -49.11 -3.88 -48.36c-8.28,-25.35 -11.54,-71.98 -19.56,-101.22 -9.01,-32.86 -20.41,-62.31 -28.44,-94.02 -7.38,-12.99 -15.15,-36.1 -22.18,-51.39 -5.09,-11.04 -22.22,-43.37 -23.35,-51.35 -12.43,-10.82 -19.5,-30.41 -28.61,-44.37l-58.85 -81.63c-4.83,-6.49 -10.6,-12.76 -16.33,-19.69 -23.55,-28.53 -27.51,-29.04 -51.5,-53.45 -103.76,-105.57 -259.66,-192.46 -404.87,-220.28l-116.44 -18.95c-0.53,-1.1 -1.85,-0.56 -2.72,-0.98l-112.46 0 -16.91 2.93c-77.17,6.37 -144.95,21.67 -217.89,47.58 -71.43,25.38 -130.57,58.5 -185.98,95.6 -37.54,25.13 -85.53,65.08 -118.61,97.53 -38.7,37.96 -54.81,64.16 -81.6,95.39 -7.19,8.38 -8.17,9.9 -13.93,18.73 -9.56,14.67 -21.13,29.96 -28.79,43.37 -8.96,15.69 -16.55,29.02 -24.5,42.74z"/>
   <g style="clip-path:url(#id0)">
    <g>
     <path id="1" class="fil1" d="M1302.82 385.18c16.92,10.58 89.07,42.6 223.06,111.39 133.99,68.79 329.82,174.35 424.96,321.57 95.14,147.22 89.58,336.11 15.28,465.97 -74.31,129.86 -217.36,200.69 -350.69,211.8 -133.33,11.11 -256.95,-37.5 -394.45,-92.38 -137.5,-54.88 -288.89,-116.04 -313.19,-143.95 -24.31,-27.91 78.47,-22.58 189.69,-25.86 111.22,-3.27 230.89,-15.15 275.29,-34.39 44.41,-19.24 13.57,-45.83 -5.78,-66.83 -19.35,-21 -27.2,-36.39 -50.09,-44.11 -22.89,-7.72 -60.81,-7.75 -62.15,-22.56 -1.34,-14.81 33.9,-44.38 51.52,-59.17 17.62,-14.79 17.62,-14.79 26.83,-72.57 9.21,-57.78 27.63,-173.35 34.06,-272.61 6.43,-99.26 0.87,-182.22 -21.06,-229.13 -21.93,-46.91 -60.23,-57.77 -43.31,-47.19z"/>
     <path class="fil1" d="M213.07 1368.49c46.47,99.39 136.23,284.92 318.61,397.13 182.38,112.21 457.38,151.1 703.91,112.9 246.53,-38.19 464.59,-153.47 563.2,-273.61 98.61,-120.14 77.78,-245.14 18.57,-303.11 -59.21,-57.98 -156.79,-48.93 -239.42,-46.07 -82.64,2.86 -150.33,-0.46 -286.27,-2.12 -135.93,-1.66 -340.1,-1.65 -501.21,-3.22 -161.11,-1.56 -279.17,-4.69 -356.94,-6.26 -77.78,-1.56 -115.28,-1.54 -154.11,-1.53 -38.83,0.01 -79,0.03 -97.49,6.65 -18.5,6.63 -15.32,19.87 31.15,119.25z"/>
    </g>
   </g>
   <path class="fil2" d="M98.13 443.87l-34.48 74.9c-1.68,4.44 -2.26,8.12 -3.97,12.36l-4.64 8.32c-0.18,-0.48 -0.91,1.24 -1.44,1.79 -2.65,12.3 -13.35,42.3 -17.67,53.22 -5.5,28.06 -15.24,65.69 -21.54,94.24 -7.32,33.13 -8.65,65.86 -12.9,96.67l-1.48 49.42 1.35 49.11 3.14 48.36c7.82,22.31 11.7,73.64 19.61,104.28 7.67,29.66 22.36,66.87 27.87,92.89 6.19,17.49 12.79,33.51 20.64,51.42 7.71,17.59 17.02,31.22 23.37,48.31 0.52,0.63 1.24,0.85 1.44,1.98 0.21,1.13 1.13,1.56 1.41,1.99 57.57,89.16 54.37,102.44 146.4,194.5 59.17,59.2 51.01,50.07 114.5,98.22 68.39,51.86 197.54,109.59 289.42,129.39 19.31,4.16 38.12,7.34 57.91,10.62 9.55,1.58 20.39,3.94 30.71,5.06l33.02 5.21 60.71 0 79.98 0 8.7 -2.78c3.05,-0.69 6.13,-1.12 9.23,-1.58l54.02 -7.72c21.13,-4.04 46.08,-8.61 67.74,-14.1 125.43,-31.74 200.34,-79.63 299.42,-148.7 9.04,-6.3 15.34,-15.54 23.82,-15.02 17.35,-24.02 40.33,-37.73 58.6,-56.51 11.43,-11.74 41.2,-50.24 55.1,-56.66 2.33,-9.15 -0.13,-2.6 5.17,-10.72 2.19,-3.35 3.85,-4.98 7.08,-9.4l62.61 -91.04c6.05,-9.87 15.87,-33.11 22.17,-37.57 8.35,-25.62 22.83,-52.66 32.7,-77.66 10.87,-27.5 17.89,-50.46 27.83,-80.12 13.21,-39.36 29.56,-140.98 29.79,-182.67l-0.26 -0.02 0.91 -49.09 -0.61 -49.11 -3.88 -48.36c-8.28,-25.35 -11.54,-71.98 -19.56,-101.22 -9.01,-32.86 -20.41,-62.31 -28.44,-94.02 -7.38,-12.99 -15.15,-36.1 -22.18,-51.39 -5.09,-11.04 -22.22,-43.37 -23.35,-51.35 -12.43,-10.82 -19.5,-30.41 -28.61,-44.37l-58.85 -81.63c-4.83,-6.49 -10.6,-12.76 -16.33,-19.69 -23.55,-28.53 -27.51,-29.04 -51.5,-53.45 -103.76,-105.57 -259.66,-192.46 -404.87,-220.28l-116.44 -18.95c-0.53,-1.1 -1.85,-0.56 -2.72,-0.98l-112.46 0 -16.91 2.93c-77.17,6.37 -144.95,21.67 -217.89,47.58 -71.43,25.38 -130.57,58.5 -185.98,95.6 -37.54,25.13 -85.53,65.08 -118.61,97.53 -38.7,37.96 -54.81,64.16 -81.6,95.39 -7.19,8.38 -8.17,9.9 -13.93,18.73 -9.56,14.67 -21.13,29.96 -28.79,43.37 -8.96,15.69 -16.55,29.02 -24.5,42.74z"/>
   <g>
    <path class="fil3" d="M301.42 370.79c-68.47,27.17 -52.1,96.55 -52.1,174.56 0,60.49 -4.47,416.59 3.83,445.89 19.64,69.25 99.55,54.94 174.65,54.94 113.72,-0 855.22,10.53 899.45,-5.02 63.93,-22.48 50.77,-99.2 50.77,-173.05 0,-58.58 4.15,-419.22 -3.07,-445.68 -19.32,-70.71 -102.56,-57.8 -174.84,-57.91 -107.67,-0.17 -862.43,-8.11 -898.69,6.28zm-4.28 88.11l-0.09 495.66c0,31.94 12.53,44.18 44.3,44.18 121.42,0 933.81,9.83 982.56,-6.84 14.11,-46.13 6.44,-452.43 6.44,-532.99 0,-59.37 -34.7,-46.79 -130.25,-46.78l-801.12 0.06c-57.2,-0.05 -101.85,-15.53 -101.85,46.72z"/>
    <path class="fil3" d="M160.24 1242.63l1307.41 -0.42 -103.78 -187.83c-330.59,-9.11 -699.94,3.91 -1039.85,0.94 -83.05,-0.72 -62.84,3.67 -100.14,69.93 -18.1,32.16 -51.18,84.2 -63.64,117.38zm577.9 -16.3l151.58 0.02 -5.2 -37.68 -141.26 -0.09 -5.11 37.76zm-490.29 -53.97l1131.21 0.72 -47.12 -92.36 -1037.46 -1.02 -46.64 92.67z"/>
    <path class="fil3" d="M1469.17 1251.93l-1310.29 0.03c11.46,67 61.11,50.71 130.6,50.7l1043.18 0c89,0.01 125.6,13.61 136.5,-50.73z"/>
   </g>
  </g>
 </g>
</svg>
