<?xml version="1.0" encoding="UTF-8"?>
<!DOCTYPE svg PUBLIC "-//W3C//DTD SVG 1.1//EN" "http://www.w3.org/Graphics/SVG/1.1/DTD/svg11.dtd">
<!-- Creator: CorelDRAW 2019 (64-Bit) -->
<svg xmlns="http://www.w3.org/2000/svg" xml:space="preserve" width="1.67613in" height="1.67613in" version="1.1" style="shape-rendering:geometricPrecision; text-rendering:geometricPrecision; image-rendering:optimizeQuality; fill-rule:evenodd; clip-rule:evenodd"
viewBox="0 0 1676.13 1676.13"
 xmlns:xlink="http://www.w3.org/1999/xlink"
 xmlns:xodm="http://www.corel.com/coreldraw/odm/2003">
 <defs>
  <style type="text/css">
   <![CDATA[
    .fil2 {fill:#459866}
    .fil0 {fill:#55BC7E}
    .fil1 {fill:#FEFAE6}
   ]]>
  </style>
 </defs>
 <g id="Layer_x0020_1">
  <metadata id="CorelCorpID_0Corel-Layer"/>
  <g id="_1615451871040">
   <path class="fil0" d="M98.12 443.87l-34.48 74.9c-1.68,4.44 -2.26,8.12 -3.97,12.36l-4.64 8.31c-0.18,-0.48 -0.91,1.24 -1.44,1.8 -2.65,12.29 -13.35,42.3 -17.67,53.22 -5.5,28.06 -15.24,65.69 -21.54,94.24 -7.32,33.13 -8.65,65.86 -12.89,96.67l-1.48 49.42 1.35 49.11 3.14 48.36c7.82,22.31 11.7,73.64 19.61,104.28 7.67,29.66 22.36,66.87 27.87,92.89 6.19,17.48 12.79,33.51 20.64,51.41 7.71,17.59 17.02,31.22 23.37,48.31 0.52,0.63 1.24,0.85 1.44,1.98 0.21,1.13 1.13,1.56 1.42,1.99 57.57,89.17 54.37,102.44 146.39,194.5 59.17,59.2 51.02,50.07 114.51,98.22 68.39,51.86 197.54,109.6 289.42,129.39 19.31,4.16 38.12,7.34 57.92,10.62 9.55,1.58 20.38,3.94 30.71,5.06l33.01 5.21 60.72 0c-10.63,-15.87 -45.48,-47.11 -61.38,-63.02 -11.02,-11.02 -19.69,-20.42 -31.29,-30.91 -0.5,-0.45 -1.25,-1.07 -1.75,-1.52l-24.75 -24.36c-0.48,-0.48 -1.15,-1.18 -1.61,-1.67l-37.67 -37.62c-0.48,-0.48 -1.15,-1.18 -1.61,-1.66 -0.24,-0.25 -3.56,-4.12 -4.58,-5.24 -3.7,-4.02 -4.38,-4.65 -8.28,-8.09l-61.32 -59.85c-0.52,-0.46 -1.25,-1.09 -1.78,-1.54l-14.2 -14.59c-19.18,-31.9 -26.22,-34.35 -26.07,-87.12l0.02 -327.37c0,-59.85 -4.85,-625.46 2.94,-656.7 6.93,-27.8 27.59,-48.33 54.48,-56.31 22.39,-6.65 369.42,-2.93 431.79,-2.89 49.74,0.04 55.63,22.96 73.58,33.54l494.09 491.01c4.04,4.37 3.48,4.28 7.88,8.49l53.11 53.11c0.5,0.51 1.38,1.4 2.11,2.06l0.91 -49.09 -0.61 -49.11 -3.88 -48.36c-8.28,-25.35 -11.54,-71.98 -19.56,-101.22 -9.01,-32.86 -20.41,-62.31 -28.44,-94.02 -7.38,-12.99 -15.15,-36.1 -22.19,-51.39 -5.09,-11.04 -22.22,-43.37 -23.35,-51.35 -12.43,-10.81 -19.5,-30.4 -28.61,-44.37l-58.85 -81.63c-4.83,-6.49 -10.6,-12.75 -16.33,-19.68 -23.55,-28.54 -27.51,-29.04 -51.5,-53.45 -103.76,-105.57 -259.66,-192.46 -404.87,-220.28l-116.44 -18.96c-0.53,-1.1 -1.85,-0.56 -2.71,-0.98l-112.46 0 -16.91 2.93c-77.17,6.37 -144.95,21.67 -217.89,47.58 -71.43,25.38 -130.57,58.5 -185.98,95.6 -37.54,25.13 -85.53,65.09 -118.61,97.53 -38.71,37.96 -54.81,64.16 -81.6,95.39 -7.19,8.38 -8.17,9.9 -13.93,18.73 -9.56,14.67 -21.13,29.96 -28.79,43.37 -8.96,15.69 -16.55,29.02 -24.5,42.74z"/>
   <path class="fil1" d="M581.29 1426.06c27.68,8.8 4.2,18 86.55,17.94l317.55 0c48.93,0 129.74,13.29 142.86,-67.1 3.96,-24.31 1.09,-829.46 1.09,-951.32 0,-35.65 3.95,-54.06 -7.11,-84.42 -0.36,-0.98 -1.46,-3.78 -1.79,-4.71 -2.47,-6.93 -0.18,2.33 -2.4,-7.23 -17.95,-10.57 -23.84,-33.5 -73.58,-33.54 -62.37,-0.04 -409.4,-3.76 -431.79,2.89 -26.89,7.98 -47.55,28.51 -54.48,56.31 -7.78,31.24 -2.94,596.85 -2.94,656.7l-0.02 327.37c-0.16,52.77 6.89,55.22 26.07,87.12z"/>
   <path class="fil2" d="M581.29 1426.06l14.2 14.59c0.53,0.46 1.26,1.08 1.78,1.54l61.32 59.85c3.91,3.44 4.59,4.07 8.28,8.09 1.02,1.11 4.34,4.98 4.58,5.24 0.46,0.48 1.13,1.19 1.61,1.66l37.67 37.62c0.46,0.49 1.13,1.19 1.61,1.67l24.75 24.36c0.5,0.45 1.25,1.07 1.75,1.52 11.6,10.49 20.27,19.89 31.29,30.91 15.9,15.91 50.75,47.15 61.38,63.02l79.99 0 8.69 -2.78c3.05,-0.68 6.13,-1.11 9.23,-1.58l54.02 -7.72c21.13,-4.04 46.08,-8.61 67.74,-14.1 125.43,-31.74 200.34,-79.63 299.42,-148.7 9.04,-6.3 15.34,-15.54 23.82,-15.02 17.35,-24.02 40.33,-37.73 58.6,-56.5 11.43,-11.75 41.2,-50.25 55.1,-56.66 2.33,-9.15 -0.14,-2.6 5.17,-10.72 2.19,-3.35 3.85,-4.98 7.08,-9.39l62.61 -91.05c6.05,-9.87 15.87,-33.11 22.17,-37.57 8.35,-25.62 22.83,-52.65 32.7,-77.65 10.87,-27.51 17.89,-50.47 27.83,-80.12 13.2,-39.36 29.56,-140.98 29.79,-182.67l-0.26 -0.02c-0.73,-0.66 -1.61,-1.55 -2.11,-2.06l-53.11 -53.11c-4.4,-4.2 -3.84,-4.12 -7.88,-8.49l-494.09 -491.01c2.22,9.56 -0.07,0.3 2.4,7.23 0.33,0.93 1.43,3.73 1.79,4.71 11.06,30.36 7.11,48.78 7.11,84.42 0,121.86 2.87,927.01 -1.09,951.32 -13.11,80.39 -93.93,67.1 -142.86,67.1l-317.55 0c-82.35,0.07 -58.86,-9.14 -86.55,-17.94z"/>
   <path class="fil0" d="M610.19 1206.71c121.43,7.94 331.96,-3.54 464.72,1.86 0,-41.26 3.78,-690.19 -1.97,-712.96l-441.44 -0.25c-26.56,-0.31 -21.26,-4.26 -21.23,48.07l-0.07 663.27z"/>
   <path class="fil0" d="M829.08 1288.7c-67.88,21.67 -36.22,115.1 27.07,98.15 23.76,-6.37 43.41,-31.54 35.59,-61.86 -6.28,-24.32 -30.94,-46.41 -62.67,-36.28z"/>
   <path class="fil0" d="M779.14 409.06c13.96,4.48 114.24,3.59 127.67,0.15l0.26 -19.65 -13.33 -1.35 -101.5 0.23c-16.21,0 -19.04,4.45 -13.09,20.62z"/>
  </g>
 </g>
</svg>
