<?xml version="1.0" encoding="UTF-8"?>
<!DOCTYPE svg PUBLIC "-//W3C//DTD SVG 1.1//EN" "http://www.w3.org/Graphics/SVG/1.1/DTD/svg11.dtd">
<!-- Creator: CorelDRAW 2019 (64-Bit) -->
<svg xmlns="http://www.w3.org/2000/svg" xml:space="preserve" width="4.31819in" height="2.89813in" version="1.1" style="shape-rendering:geometricPrecision; text-rendering:geometricPrecision; image-rendering:optimizeQuality; fill-rule:evenodd; clip-rule:evenodd"
viewBox="0 0 4318.19 2898.13"
 xmlns:xlink="http://www.w3.org/1999/xlink"
 xmlns:xodm="http://www.corel.com/coreldraw/odm/2003">
 <defs>
  <style type="text/css">
   <![CDATA[
    .fil2 {fill:none}
    .fil0 {fill:#0E823F}
    .fil1 {fill:#48D289}
    .fil4 {fill:white}
    .fil3 {fill:white;fill-rule:nonzero}
   ]]>
  </style>
 </defs>
 <g id="Layer_x0020_1">
  <metadata id="CorelCorpID_0Corel-Layer"/>
  <g id="_2126343048896">
   <g>
    <g>
     <path class="fil0" d="M2097.5 702.81c-10.98,-8.31 -24.28,-34.7 -40.82,-63.89 -16.54,-29.19 -36.33,-61.2 -60.43,-90.24 -24.1,-29.03 -52.52,-55.09 -78.56,-76.55 -26.04,-21.46 -49.7,-38.33 -71.65,-56.86 -21.94,-18.53 -42.17,-38.7 -65.87,-71.99 -23.71,-33.28 -50.9,-79.67 -66.27,-107.72 -15.37,-28.06 -18.92,-37.78 -18.72,-43.91 0.2,-6.12 4.14,-8.64 45.61,-40.58 41.47,-31.94 120.46,-93.29 161.2,-124.09 40.74,-30.81 43.24,-31.07 47.65,-21.22 4.41,9.85 10.72,29.81 29.39,65.3 18.68,35.5 49.73,86.53 79.96,119.76 30.23,33.23 59.63,48.65 87.06,65.34 27.43,16.69 52.9,34.63 78.68,63.69 25.79,29.06 51.91,69.25 71.67,105.06 19.77,35.8 33.17,67.22 39.9,83.14 6.73,15.92 6.77,16.33 -25.3,41.59 -32.07,25.27 -96.24,75.38 -132.46,103.18 -36.22,27.81 -44.48,33.31 -52.94,40.93 -8.46,7.63 -17.11,17.37 -28.09,9.06z"/>
     <path class="fil1" d="M2091.44 649.38c-6.89,-11.71 -16.82,-38.03 -36.25,-68.61 -14.29,-22.5 -33.73,-47.3 -58.63,-73.55 77.24,-0.9 153.14,-62.05 189.55,-165.02 7.17,10.15 13.6,21.93 23.18,39.03 18.42,33 48.39,85.83 63.38,112.24 14.99,26.41 14.99,26.41 -15.28,48.99 -30.26,22.57 -90.79,67.72 -122.99,91.73 -32.2,24.02 -36.06,26.9 -42.96,15.19zm-217.03 -255.54c-11.42,-11.12 -22.35,-22.49 -32.33,-34.13 -36.71,-42.85 -60.57,-89.59 -73.65,-115.79 -13.07,-26.2 -15.35,-31.85 -16.49,-34.67 -1.14,-2.83 -1.14,-2.83 29.35,-27.09 30.49,-24.25 91.47,-72.76 122.23,-96.42 30.77,-23.65 31.31,-22.45 34.91,-12.31 3.59,10.15 10.23,29.23 21.72,50.33 11.48,21.1 27.81,44.22 45.28,64.26 10.06,11.54 20.5,22.07 33.05,33.09 -74.52,16.38 -142.41,75.82 -164.07,172.72z"/>
     <path class="fil2" d="M1996.55 507.23c-8.94,-9.42 -18.59,-19.03 -28.96,-28.78 -28.57,-26.87 -62.61,-54.84 -93.19,-84.61 21.65,-96.91 89.55,-156.35 164.07,-172.73 9.24,8.12 19.63,16.5 31.86,25.75 28.81,21.8 67.81,48.43 90.74,68.32 11.04,9.58 18.35,17.6 25.03,27.03 -36.42,102.98 -112.32,164.13 -189.55,165.02z"/>
     <g>
      <polygon class="fil3" points="2077.32,354.97 2024.47,407.21 2018.74,401.41 2038.07,338 1996.59,379.01 1991.23,373.59 2044.08,321.34 2049.81,327.15 2030.48,390.55 2071.96,349.54 "/>
      <g>
       <rect class="fil4" transform="matrix(-0.176848 -0.178882 0.221443 -0.218925 2047.19 396.183)" width="252.61" height="26.91"/>
       <rect class="fil4" transform="matrix(-0.176848 -0.178882 0.221443 -0.218925 2060.07 383.45)" width="252.61" height="26.91"/>
      </g>
     </g>
    </g>
    <g>
     <path class="fil0" d="M2492.31 551.52c9.42,-10.05 37.05,-20.52 67.81,-33.91 30.77,-13.4 64.68,-29.72 96.07,-50.65 31.39,-20.93 60.28,-46.46 84.35,-70.12 24.07,-23.65 43.33,-45.42 64.05,-65.3 20.72,-19.89 42.91,-37.88 78.49,-57.98 35.58,-20.09 84.56,-42.28 114.07,-54.63 29.51,-12.35 39.56,-14.86 45.63,-14.02 6.07,0.84 8.16,5.02 35.58,49.61 27.42,44.58 80.16,129.56 106.54,173.3 26.37,43.75 26.37,46.26 16.11,49.61 -10.26,3.35 -30.77,7.54 -68.02,22.4 -37.26,14.86 -91.26,40.4 -127.47,66.98 -36.21,26.58 -54.63,54.21 -74.09,79.74 -19.47,25.54 -39.98,48.98 -71.58,71.59 -31.61,22.61 -74.31,44.37 -111.98,60.28 -37.68,15.91 -70.33,25.95 -86.87,30.98 -16.53,5.02 -16.95,5.02 -38.72,-29.51 -21.77,-34.54 -64.89,-103.61 -88.75,-142.54 -23.86,-38.93 -28.46,-47.72 -35.17,-56.93 -6.7,-9.21 -15.48,-18.83 -6.07,-28.88z"/>
     <path class="fil1" d="M2546.08 551.08c12.37,-5.63 39.58,-12.75 72.02,-28.86 23.87,-11.86 50.57,-28.59 79.28,-50.61 -7.2,76.91 45.67,158.79 144.27,205.79 -10.84,6.07 -23.23,11.23 -41.24,18.96 -34.75,14.86 -90.42,39.14 -118.26,51.28 -27.83,12.14 -27.83,12.14 -47.12,-20.32 -19.28,-32.46 -57.84,-97.39 -78.35,-131.92 -20.52,-34.53 -22.98,-38.68 -10.6,-44.31zm276.86 -189.08c12.26,-10.2 24.71,-19.87 37.33,-28.58 46.47,-32.02 95.44,-50.86 122.86,-61.12 27.42,-10.26 33.28,-11.93 36.21,-12.77 2.93,-0.83 2.93,-0.83 23.86,32.02 20.93,32.86 62.79,98.58 83.09,131.65 20.3,33.07 19.05,33.49 8.59,36 -10.47,2.51 -30.14,7.11 -52.33,16.32 -22.19,9.21 -46.89,23.02 -68.65,38.3 -12.54,8.8 -24.09,18.08 -36.36,29.41 -8.49,-75.83 -60.5,-149.57 -154.6,-181.25z"/>
     <path class="fil2" d="M2697.39 471.61c10.31,-7.91 20.87,-16.49 31.65,-25.78 29.72,-25.6 61.1,-56.53 93.9,-83.82 94.11,31.68 146.11,105.43 154.6,181.25 -9.04,8.35 -18.46,17.8 -28.94,28.99 -24.7,26.37 -55.26,62.37 -77.44,83.09 -10.68,9.98 -19.43,16.41 -29.5,22.06 -98.59,-47 -151.46,-128.89 -144.27,-205.79z"/>
     <g>
      <polygon class="fil3" points="2840.36,567.87 2793.93,509.85 2800.3,504.75 2861.33,530.62 2824.9,485.07 2830.86,480.31 2877.28,538.33 2870.91,543.43 2809.88,517.56 2846.31,563.11 "/>
      <g>
       <rect class="fil4" transform="matrix(0.196414 -0.157147 0.194538 0.243147 2802.52 533.587)" width="252.61" height="26.91"/>
       <rect class="fil4" transform="matrix(0.196414 -0.157147 0.194538 0.243147 2813.84 547.729)" width="252.61" height="26.91"/>
      </g>
     </g>
    </g>
    <g>
     <path class="fil0" d="M3099.3 1472.77c9.42,-10.05 37.05,-20.51 67.81,-33.91 30.76,-13.39 64.67,-29.72 96.07,-50.65 31.39,-20.93 60.28,-46.47 84.35,-70.12 24.07,-23.65 43.32,-45.42 64.05,-65.31 20.72,-19.88 42.91,-37.88 78.49,-57.98 35.58,-20.09 84.56,-42.28 114.07,-54.63 29.51,-12.35 39.56,-14.86 45.63,-14.02 6.07,0.84 8.16,5.02 35.58,49.6 27.42,44.59 80.16,129.56 106.54,173.31 26.37,43.74 26.37,46.26 16.12,49.61 -10.26,3.35 -30.77,7.54 -68.02,22.39 -37.26,14.86 -91.26,40.4 -127.47,66.98 -36.21,26.58 -54.63,54.21 -74.09,79.74 -19.46,25.54 -39.98,48.98 -71.58,71.58 -31.61,22.61 -74.31,44.37 -111.98,60.28 -37.67,15.91 -70.33,25.95 -86.86,30.98 -16.54,5.02 -16.95,5.02 -38.72,-29.52 -21.77,-34.53 -64.89,-103.6 -88.74,-142.54 -23.86,-38.93 -28.47,-47.72 -35.17,-56.93 -6.7,-9.21 -15.49,-18.84 -6.07,-28.89z"/>
     <path class="fil1" d="M3153.07 1472.34c12.37,-5.63 39.58,-12.75 72.03,-28.87 23.87,-11.86 50.57,-28.59 79.28,-50.61 -7.19,76.91 45.68,158.8 144.27,205.79 -10.84,6.07 -23.23,11.23 -41.24,18.96 -34.75,14.86 -90.42,39.14 -118.26,51.28 -27.84,12.14 -27.84,12.14 -47.12,-20.32 -19.28,-32.46 -57.84,-97.38 -78.35,-131.92 -20.51,-34.54 -22.98,-38.69 -10.6,-44.31zm276.86 -189.08c12.26,-10.2 24.7,-19.88 37.33,-28.58 46.46,-32.03 95.44,-50.86 122.86,-61.12 27.42,-10.26 33.28,-11.93 36.21,-12.77 2.93,-0.84 2.93,-0.84 23.86,32.02 20.93,32.86 62.79,98.58 83.09,131.65 20.3,33.07 19.05,33.49 8.58,36 -10.46,2.51 -30.14,7.11 -52.33,16.32 -22.19,9.21 -46.88,23.03 -68.65,38.31 -12.53,8.8 -24.09,18.08 -36.36,29.41 -8.49,-75.82 -60.5,-149.57 -154.6,-181.25z"/>
     <path class="fil2" d="M3304.37 1392.86c10.31,-7.91 20.87,-16.49 31.65,-25.78 29.72,-25.6 61.1,-56.53 93.9,-83.81 94.11,31.68 146.11,105.43 154.6,181.25 -9.04,8.34 -18.46,17.8 -28.94,28.98 -24.7,26.37 -55.26,62.37 -77.44,83.09 -10.69,9.98 -19.43,16.41 -29.5,22.06 -98.59,-47 -151.46,-128.89 -144.27,-205.8z"/>
     <g>
      <polygon class="fil3" points="3447.34,1489.12 3400.92,1431.1 3407.29,1426 3468.32,1451.87 3431.88,1406.33 3437.84,1401.56 3484.26,1459.59 3477.89,1464.68 3416.86,1438.81 3453.3,1484.36 "/>
      <g>
       <rect class="fil4" transform="matrix(0.196414 -0.157147 0.194538 0.243147 3409.51 1454.84)" width="252.61" height="26.91"/>
       <rect class="fil4" transform="matrix(0.196414 -0.157147 0.194538 0.243147 3420.82 1468.98)" width="252.61" height="26.91"/>
      </g>
     </g>
    </g>
    <g>
     <path class="fil0" d="M3603.11 570c9.42,-10.05 37.05,-20.51 67.81,-33.91 30.77,-13.4 64.68,-29.72 96.07,-50.65 31.39,-20.93 60.28,-46.46 84.35,-70.12 24.07,-23.65 43.33,-45.42 64.05,-65.3 20.72,-19.88 42.91,-37.88 78.49,-57.98 35.58,-20.09 84.56,-42.28 114.07,-54.63 29.52,-12.35 39.56,-14.86 45.63,-14.02 6.07,0.83 8.16,5.02 35.58,49.6 27.42,44.58 80.16,129.56 106.54,173.3 26.37,43.75 26.37,46.26 16.11,49.61 -10.25,3.35 -30.77,7.54 -68.02,22.39 -37.26,14.86 -91.26,40.4 -127.47,66.98 -36.21,26.58 -54.63,54.21 -74.09,79.74 -19.46,25.54 -39.98,48.98 -71.58,71.58 -31.61,22.61 -74.31,44.37 -111.98,60.28 -37.67,15.91 -70.33,25.95 -86.86,30.98 -16.54,5.02 -16.96,5.02 -38.72,-29.51 -21.77,-34.53 -64.89,-103.61 -88.74,-142.54 -23.87,-38.93 -28.47,-47.72 -35.17,-56.93 -6.7,-9.21 -15.48,-18.83 -6.07,-28.88z"/>
     <path class="fil1" d="M3656.89 569.56c12.37,-5.63 39.58,-12.74 72.02,-28.86 23.87,-11.86 50.57,-28.59 79.28,-50.61 -7.19,76.91 45.67,158.8 144.27,205.79 -10.84,6.07 -23.23,11.23 -41.25,18.96 -34.75,14.86 -90.42,39.14 -118.26,51.28 -27.84,12.14 -27.84,12.14 -47.12,-20.32 -19.28,-32.46 -57.85,-97.38 -78.35,-131.92 -20.52,-34.54 -22.98,-38.69 -10.6,-44.32zm276.86 -189.08c12.25,-10.19 24.7,-19.87 37.33,-28.58 46.47,-32.02 95.44,-50.86 122.87,-61.12 27.42,-10.25 33.28,-11.93 36.21,-12.76 2.93,-0.84 2.93,-0.84 23.86,32.02 20.93,32.86 62.79,98.58 83.09,131.65 20.3,33.07 19.04,33.49 8.58,36 -10.47,2.51 -30.14,7.11 -52.33,16.32 -22.19,9.21 -46.89,23.03 -68.65,38.3 -12.54,8.8 -24.09,18.08 -36.36,29.41 -8.49,-75.83 -60.5,-149.57 -154.6,-181.25z"/>
     <path class="fil2" d="M3808.19 490.09c10.31,-7.91 20.87,-16.49 31.65,-25.78 29.72,-25.6 61.1,-56.53 93.91,-83.82 94.1,31.68 146.11,105.43 154.6,181.26 -9.04,8.34 -18.46,17.8 -28.94,28.98 -24.7,26.37 -55.26,62.37 -77.44,83.09 -10.68,9.98 -19.43,16.41 -29.5,22.06 -98.6,-47 -151.46,-128.89 -144.27,-205.79z"/>
     <g>
      <polygon class="fil3" points="3951.16,586.35 3904.74,528.33 3911.11,523.23 3972.14,549.1 3935.7,503.56 3941.66,498.79 3988.08,556.81 3981.71,561.91 3920.68,536.04 3957.11,581.59 "/>
      <g>
       <rect class="fil4" transform="matrix(0.196414 -0.157147 0.194538 0.243147 3913.33 552.069)" width="252.61" height="26.91"/>
       <rect class="fil4" transform="matrix(0.196414 -0.157147 0.194538 0.243147 3924.64 566.21)" width="252.61" height="26.91"/>
      </g>
     </g>
    </g>
   </g>
   <g>
    <g>
     <path class="fil0" d="M1855.92 1506.47c-1.36,-13.7 -16.91,-38.83 -33.17,-68.18 -16.26,-29.35 -33.23,-62.94 -45.4,-98.66 -12.17,-35.71 -19.55,-73.56 -24.26,-106.97 -4.7,-33.42 -6.74,-62.41 -11.07,-90.8 -4.34,-28.39 -10.99,-56.17 -27,-93.77 -16,-37.6 -41.36,-85.01 -57.26,-112.77 -15.9,-27.76 -22.34,-35.87 -27.67,-38.9 -5.33,-3.03 -9.54,-0.98 -58.42,17.7 -48.89,18.69 -142.46,54.02 -190.01,72.67 -47.55,18.66 -49.07,20.65 -42.98,29.55 6.1,8.9 19.83,24.7 40.34,59.17 20.52,34.46 47.82,87.59 60.38,130.72 12.56,43.13 10.35,76.26 10.26,108.37 -0.09,32.11 1.91,63.2 13.23,100.37 11.32,37.17 31.95,80.43 52.17,115.98 20.21,35.55 40.01,63.39 50.07,77.44 10.06,14.05 10.39,14.3 48.68,0.15 38.29,-14.15 114.54,-42.72 157.17,-59.08 42.63,-16.37 51.63,-20.54 62.55,-23.77 10.92,-3.23 23.75,-5.52 22.39,-19.22z"/>
     <path class="fil1" d="M1813.52 1473.4c-6.39,-12 -23.65,-34.2 -39.59,-66.74 -11.72,-23.94 -22.72,-53.47 -32.1,-88.41 -41.1,65.4 -132.89,98.2 -239.72,75.48 4.91,11.42 11.59,23.05 21.19,40.15 18.53,32.94 47.93,86.09 62.63,112.66 14.7,26.58 14.7,26.58 49.76,12.56 35.05,-14.02 105.16,-42.07 142.46,-56.99 37.3,-14.92 41.78,-16.71 35.39,-28.71zm-104.61 -318.53c-3.52,-15.55 -7.51,-30.81 -12.23,-45.39 -17.38,-53.69 -44.78,-98.44 -60.29,-123.27 -15.52,-24.83 -19.15,-29.72 -20.96,-32.17 -1.81,-2.45 -1.81,-2.45 -38.42,10.89 -36.61,13.34 -109.82,40.01 -146.06,53.89 -36.24,13.89 -35.5,14.98 -28.72,23.34 6.78,8.37 19.59,23.99 31.58,44.8 12,20.81 23.19,46.81 31.17,72.18 4.59,14.61 8.11,29.01 10.95,45.46 52.89,-55 139.03,-81.86 232.98,-49.72z"/>
     <path class="fil2" d="M1741.83 1318.25c-3.36,-12.55 -6.52,-25.79 -9.42,-39.72 -8,-38.4 -14.07,-82.04 -23.5,-123.66 -93.95,-32.14 -180.1,-5.27 -232.98,49.73 2.09,12.12 3.82,25.36 5.32,40.61 3.55,35.96 5.89,83.13 10.88,113.07 2.41,14.42 5.43,24.85 9.98,35.46 106.83,22.72 198.62,-10.08 239.72,-75.48z"/>
     <g>
      <polygon class="fil3" points="1569.81,1307.62 1641.96,1289.83 1640.01,1281.91 1575.83,1265.29 1632.47,1251.33 1630.64,1243.92 1558.49,1261.71 1560.44,1269.63 1624.61,1286.25 1567.98,1300.21 "/>
      <g>
       <rect class="fil4" transform="matrix(-0.0602059 -0.244231 -0.302342 0.0745308 1620.69 1303.44)" width="252.61" height="26.91"/>
       <rect class="fil4" transform="matrix(-0.0602059 -0.244231 -0.302342 0.0745308 1603.11 1307.78)" width="252.61" height="26.91"/>
      </g>
     </g>
    </g>
    <g>
     <path class="fil0" d="M967.94 847.72c-13.49,2.78 -36.84,20.88 -64.33,40.13 -27.49,19.24 -59.12,39.63 -93.36,55.48 -34.24,15.84 -71.11,27.14 -103.85,35.32 -32.74,8.18 -61.36,13.23 -89.14,20.52 -27.78,7.29 -54.71,16.81 -90.43,36.66 -35.72,19.85 -80.21,50.04 -106.16,68.76 -25.94,18.72 -33.33,25.98 -35.78,31.59 -2.46,5.61 0.02,9.59 23.72,56.25 23.7,46.67 68.63,136.02 92.17,181.36 23.54,45.33 25.68,46.65 33.89,39.65 8.21,-7 22.49,-22.3 54.62,-46.31 32.13,-24.02 82.1,-56.73 123.68,-73.73 41.58,-17 74.76,-18.28 106.7,-21.55 31.94,-3.27 62.65,-8.52 98.43,-23.67 35.78,-15.15 76.64,-40.2 109.88,-64.02 33.24,-23.82 58.86,-46.43 71.78,-57.9 12.92,-11.48 13.14,-11.83 -4.95,-48.43 -18.08,-36.6 -54.47,-109.44 -75.21,-150.12 -20.74,-40.68 -25.83,-49.2 -30.19,-59.72 -4.35,-10.52 -7.98,-23.04 -21.46,-20.26z"/>
     <path class="fil1" d="M939.49 893.35c-11.26,7.61 -31.54,27.1 -62.22,46.35 -22.58,14.16 -50.8,28.2 -84.57,41.18 69.34,34.02 111.57,121.87 100.17,230.5 10.84,-6.07 21.71,-13.94 37.71,-25.27 30.82,-21.87 80.6,-56.67 105.49,-74.07 24.89,-17.4 24.89,-17.4 7.27,-50.8 -17.61,-33.39 -52.85,-100.18 -71.59,-135.71 -18.74,-35.53 -20.99,-39.8 -32.26,-32.19zm-305.83 137.38c-15.09,5.13 -29.85,10.69 -43.87,16.91 -51.57,22.91 -93.21,54.84 -116.28,72.87 -23.07,18.03 -27.56,22.15 -29.8,24.21 -2.24,2.06 -2.24,2.06 14.85,37.07 17.1,35.01 51.29,105.03 68.89,139.61 17.6,34.58 18.62,33.73 26.22,26.12 7.61,-7.61 21.81,-21.99 41.24,-36.1 19.44,-14.11 44.12,-27.96 68.52,-38.55 14.05,-6.09 28,-11.11 44.07,-15.65 -60.23,-46.84 -95.97,-129.7 -73.85,-226.5z"/>
     <path class="fil2" d="M792.7 980.88c-12.13,4.66 -24.96,9.19 -38.52,13.53 -37.35,11.97 -80.11,22.58 -120.52,36.31 -22.12,96.8 13.61,179.66 73.85,226.5 11.84,-3.35 24.82,-6.45 39.83,-9.54 35.39,-7.29 82.05,-14.56 111.31,-22.66 14.08,-3.9 24.14,-8 34.22,-13.64 11.4,-108.63 -30.83,-196.48 -100.17,-230.5z"/>
     <g>
      <polygon class="fil3" points="800.14,1153.08 774.9,1083.19 767.22,1085.96 757.41,1151.51 737.6,1096.66 730.42,1099.25 755.66,1169.14 763.34,1166.37 773.15,1100.81 792.96,1155.67 "/>
      <g>
       <rect class="fil4" transform="matrix(-0.236586 0.0854455 0.105776 0.292877 790.657 1102.91)" width="252.61" height="26.91"/>
       <rect class="fil4" transform="matrix(-0.236586 0.0854455 0.105776 0.292877 796.809 1119.95)" width="252.61" height="26.91"/>
      </g>
     </g>
    </g>
    <g>
     <path class="fil0" d="M1296.17 2329.27c-13.49,2.78 -36.84,20.88 -64.33,40.13 -27.49,19.24 -59.12,39.64 -93.37,55.48 -34.24,15.85 -71.11,27.15 -103.85,35.32 -32.74,8.18 -61.36,13.23 -89.14,20.52 -27.78,7.29 -54.71,16.81 -90.43,36.67 -35.72,19.85 -80.21,50.04 -106.15,68.76 -25.94,18.72 -33.33,25.98 -35.79,31.59 -2.46,5.61 0.02,9.58 23.72,56.25 23.7,46.67 68.63,136.02 92.17,181.35 23.54,45.33 25.68,46.65 33.89,39.65 8.21,-7 22.49,-22.3 54.62,-46.32 32.13,-24.01 82.11,-56.73 123.68,-73.73 41.58,-17 74.76,-18.28 106.7,-21.54 31.94,-3.27 62.65,-8.52 98.43,-23.67 35.78,-15.15 76.65,-40.2 109.89,-64.02 33.24,-23.82 58.86,-46.43 71.78,-57.91 12.92,-11.48 13.14,-11.83 -4.95,-48.43 -18.08,-36.6 -54.48,-109.44 -75.22,-150.12 -20.74,-40.68 -25.83,-49.2 -30.19,-59.72 -4.36,-10.52 -7.98,-23.04 -21.46,-20.26z"/>
     <path class="fil1" d="M1267.72 2374.9c-11.26,7.61 -31.54,27.1 -62.23,46.35 -22.58,14.17 -50.8,28.2 -84.57,41.19 69.35,34.02 111.57,121.87 100.17,230.5 10.84,-6.07 21.71,-13.94 37.71,-25.27 30.81,-21.87 80.59,-56.67 105.48,-74.07 24.89,-17.4 24.89,-17.4 7.27,-50.8 -17.61,-33.39 -52.84,-100.18 -71.59,-135.71 -18.74,-35.53 -20.99,-39.8 -32.26,-32.18zm-305.83 137.38c-15.09,5.13 -29.85,10.69 -43.87,16.91 -51.58,22.9 -93.22,54.83 -116.28,72.86 -23.06,18.03 -27.55,22.15 -29.8,24.22 -2.24,2.06 -2.24,2.06 14.85,37.07 17.09,35.01 51.28,105.03 68.88,139.61 17.61,34.58 18.62,33.73 26.22,26.12 7.61,-7.61 21.81,-21.99 41.24,-36.1 19.44,-14.11 44.12,-27.96 68.52,-38.55 14.05,-6.09 28,-11.11 44.07,-15.66 -60.23,-46.83 -95.97,-129.7 -73.84,-226.49z"/>
     <path class="fil2" d="M1120.93 2462.43c-12.13,4.66 -24.96,9.19 -38.52,13.53 -37.35,11.98 -80.11,22.59 -120.52,36.31 -22.13,96.8 13.61,179.66 73.84,226.5 11.84,-3.35 24.82,-6.45 39.83,-9.55 35.39,-7.29 82.05,-14.56 111.31,-22.65 14.09,-3.9 24.14,-8 34.22,-13.64 11.41,-108.63 -30.82,-196.48 -100.17,-230.5z"/>
     <g>
      <polygon class="fil3" points="1128.37,2634.62 1103.13,2564.74 1095.46,2567.51 1085.64,2633.06 1065.83,2578.21 1058.66,2580.8 1083.9,2650.69 1091.57,2647.91 1101.38,2582.36 1121.2,2637.22 "/>
      <g>
       <rect class="fil4" transform="matrix(-0.236586 0.0854455 0.105776 0.292877 1118.89 2584.46)" width="252.61" height="26.91"/>
       <rect class="fil4" transform="matrix(-0.236586 0.0854455 0.105776 0.292877 1125.04 2601.49)" width="252.61" height="26.91"/>
      </g>
     </g>
    </g>
    <g>
     <path class="fil0" d="M583.81 1682.11c-13.49,2.79 -36.84,20.89 -64.33,40.13 -27.49,19.24 -59.12,39.63 -93.36,55.48 -34.24,15.85 -71.11,27.15 -103.85,35.32 -32.74,8.18 -61.36,13.23 -89.14,20.52 -27.78,7.29 -54.71,16.81 -90.43,36.66 -35.72,19.85 -80.21,50.04 -106.16,68.76 -25.94,18.72 -33.33,25.98 -35.78,31.59 -2.46,5.61 0.02,9.59 23.72,56.25 23.7,46.67 68.63,136.02 92.17,181.36 23.54,45.33 25.68,46.65 33.89,39.65 8.21,-7 22.49,-22.31 54.62,-46.32 32.13,-24.01 82.11,-56.73 123.68,-73.73 41.58,-17 74.76,-18.28 106.7,-21.55 31.94,-3.26 62.65,-8.52 98.43,-23.67 35.78,-15.15 76.64,-40.2 109.89,-64.02 33.24,-23.82 58.85,-46.43 71.78,-57.9 12.92,-11.48 13.14,-11.83 -4.95,-48.43 -18.09,-36.6 -54.48,-109.44 -75.22,-150.11 -20.74,-40.68 -25.83,-49.2 -30.19,-59.72 -4.36,-10.52 -7.98,-23.04 -21.46,-20.26z"/>
     <path class="fil1" d="M555.36 1727.74c-11.26,7.61 -31.54,27.1 -62.22,46.35 -22.58,14.17 -50.8,28.2 -84.57,41.18 69.35,34.03 111.57,121.87 100.17,230.5 10.84,-6.08 21.71,-13.95 37.71,-25.28 30.82,-21.87 80.6,-56.67 105.49,-74.07 24.89,-17.4 24.89,-17.4 7.27,-50.8 -17.61,-33.39 -52.85,-100.18 -71.59,-135.71 -18.74,-35.53 -20.99,-39.8 -32.26,-32.19zm-305.83 137.38c-15.09,5.13 -29.85,10.69 -43.87,16.91 -51.57,22.91 -93.21,54.84 -116.28,72.87 -23.06,18.03 -27.56,22.15 -29.8,24.21 -2.24,2.06 -2.24,2.06 14.85,37.07 17.1,35.01 51.29,105.03 68.89,139.61 17.6,34.59 18.62,33.73 26.22,26.12 7.61,-7.61 21.81,-21.99 41.24,-36.1 19.44,-14.11 44.12,-27.96 68.52,-38.55 14.05,-6.09 28,-11.11 44.07,-15.65 -60.23,-46.84 -95.97,-129.7 -73.85,-226.5z"/>
     <path class="fil2" d="M408.57 1815.27c-12.13,4.66 -24.96,9.19 -38.52,13.53 -37.35,11.97 -80.11,22.59 -120.52,36.31 -22.12,96.8 13.61,179.66 73.85,226.5 11.84,-3.35 24.82,-6.45 39.83,-9.54 35.39,-7.29 82.05,-14.56 111.31,-22.66 14.09,-3.9 24.14,-8 34.22,-13.63 11.41,-108.63 -30.82,-196.48 -100.17,-230.5z"/>
     <g>
      <polygon class="fil3" points="416.01,1987.47 390.77,1917.58 383.09,1920.35 373.28,1985.91 353.47,1931.05 346.29,1933.64 371.54,2003.53 379.21,2000.76 389.02,1935.2 408.83,1990.06 "/>
      <g>
       <rect class="fil4" transform="matrix(-0.236586 0.0854455 0.105776 0.292877 406.527 1937.3)" width="252.61" height="26.91"/>
       <rect class="fil4" transform="matrix(-0.236586 0.0854455 0.105776 0.292877 412.679 1954.34)" width="252.61" height="26.91"/>
      </g>
     </g>
    </g>
   </g>
  </g>
 </g>
</svg>
