<?xml version="1.0" encoding="UTF-8"?>
<!DOCTYPE svg PUBLIC "-//W3C//DTD SVG 1.1//EN" "http://www.w3.org/Graphics/SVG/1.1/DTD/svg11.dtd">
<!-- Creator: CorelDRAW 2019 (64-Bit) -->
<svg xmlns="http://www.w3.org/2000/svg" xml:space="preserve" width="6.20722in" height="5.34895in" version="1.1" style="shape-rendering:geometricPrecision; text-rendering:geometricPrecision; image-rendering:optimizeQuality; fill-rule:evenodd; clip-rule:evenodd"
viewBox="0 0 6207.22 5348.95"
 xmlns:xlink="http://www.w3.org/1999/xlink"
 xmlns:xodm="http://www.corel.com/coreldraw/odm/2003">
 <defs>
  <style type="text/css">
   <![CDATA[
    .fil4 {fill:#263238;fill-rule:nonzero}
    .fil3 {fill:#37474F;fill-rule:nonzero}
    .fil9 {fill:#4CA971;fill-rule:nonzero}
    .fil8 {fill:#55BC7E;fill-rule:nonzero}
    .fil6 {fill:#A6A6A6;fill-rule:nonzero}
    .fil7 {fill:#C7C7C7;fill-rule:nonzero}
    .fil0 {fill:#DBDBDB;fill-rule:nonzero}
    .fil5 {fill:#EB9481;fill-rule:nonzero}
    .fil11 {fill:#FF9CBD;fill-rule:nonzero}
    .fil2 {fill:#FFC4C0;fill-rule:nonzero}
    .fil10 {fill:white;fill-rule:nonzero}
    .fil1 {fill:black;fill-rule:nonzero;fill-opacity:0.101961}
   ]]>
  </style>
 </defs>
 <g id="Layer_x0020_1">
  <metadata id="CorelCorpID_0Corel-Layer"/>
  <g id="_2126406877648">
   <path class="fil0" d="M659.8 4301.36c56.86,-76.89 120.43,-150.62 190.98,-220.44 505.81,-501.1 1148.27,-398.92 1759.66,-478.41l2 0c216.07,-22.9 426.24,-84.57 620.41,-182.09 629.77,-332.44 984.57,-1116.21 1514.44,-1775.39 66.82,-82.83 133.64,-163.02 207.48,-240.49 261.41,-279.94 680.13,-396.83 1071.04,-303 117.35,332.09 181.42,689.34 181.42,1061.61 0,1759.48 -1426.33,3185.81 -3185.81,3185.81 -936.57,0 -1778.7,-404.19 -2361.61,-1047.59z"/>
   <path class="fil1" d="M1855.72 5128.91c-516.83,-572.1 -90.2,-1367.29 754.72,-1525.7l2 0c216.07,-22.9 426.24,-84.57 620.41,-182.09 629.77,-332.44 984.57,-1116.21 1514.44,-1775.39 622.6,-323.55 1245.69,33.56 1435.94,909.11 -193.08,1574.67 -1534.97,2794.11 -3161.82,2794.11 -411.44,0 -804.66,-78.03 -1165.69,-220.04z"/>
   <path class="fil2" d="M3163.26 5345.65c-49.43,-66.33 -99.53,-132.67 -153.58,-201.63 -343.44,-447.71 -718.63,-914.77 -718.63,-914.77l-868.02 690.15c469.85,273.06 1015.81,429.55 1598.39,429.55 47.56,0 94.81,-1.24 141.85,-3.31z"/>
   <path class="fil3" d="M2553.08 5314.6l398.13 -305.9 -14.03 -18.03 -1063.08 -1391.85c0,0 1758,1025.65 2637.33,559.91 394.9,-208.75 687.9,-578.91 687.9,-578.91l-1147.95 -612.12c0,0 -317.72,102.6 -520.51,72.88 -699.93,-102.25 -2267.83,-697.6 -2639.33,-682.56 -414.62,16.46 -831.13,371.57 -891.54,817.7 375.22,1120.02 1355.74,1962.47 2553.08,2138.89z"/>
   <path class="fil4" d="M1492.57 3081.3c39.39,44.62 75.99,91.6 109.58,140.67 37.41,49.15 75.83,97.87 113.26,147.35 -6.69,-14.41 -13.03,-28.74 -20.05,-43.08 -23.72,-49.14 -42.77,-100.23 -70.5,-146.73 0,-2.65 2.67,-5.29 4.34,-2.65 28.73,46.43 62.14,90.91 86.87,139.98 11.36,23.04 22.39,46.07 33.41,69.81 5.68,13.02 11.36,26.1 16.37,39.47 2.74,6.19 5.09,12.53 7.02,19 16.7,22.76 33.41,45.81 49.45,69.19 35.75,51.78 66.81,106.57 103.56,158 2.01,2.65 -2.33,5.36 -4.34,2.65 -36.75,-48.45 -77.84,-93.55 -115.26,-141.31 -37.42,-47.75 -73.83,-100.23 -109.25,-149.65 -35.42,-49.42 -68.83,-100.24 -103.23,-148.68 -38.15,-48.59 -73.07,-99.54 -104.57,-152.65 -0.67,-0.7 1.67,-4.04 3.34,-1.39z"/>
   <path class="fil4" d="M4895.96 31.73c38.43,4.35 206.47,-17.7 321.07,133.64 108.25,142.98 152.68,582.65 176.73,678.21 24.06,95.57 150.01,107.89 181.42,218.84 27.06,95.22 -42.1,131.63 -48.11,202.07 -4.67,54.5 51.44,135.31 3.01,216.83 -44.1,73.85 -123.95,59.86 -171.73,83.25 -47.77,23.39 -75.84,135.59 -164.37,166.98 -88.54,31.46 -167.05,-48.72 -215.17,-47.4 -48.1,1.33 -100.22,147.01 -255.24,136.64 -155.02,-10.37 -200.46,-139.98 -264.6,-164.69 -64.15,-24.71 -222.84,22 -296.68,-56.17 -73.83,-78.17 -88.53,-184.04 -121.94,-222.47 -33.41,-38.42 -101.9,-31.39 -143.99,-120.97 -42.1,-89.51 41.09,-148.33 51.44,-226.85 7.35,-54.78 -41.76,-104.2 -9.02,-188.07 45.1,-115.61 185.76,-93.2 237.54,-211.81 40.43,-92.85 120.94,-495.8 362.16,-598.36 166.38,-70.83 357.48,0.33 357.48,0.33z"/>
   <path class="fil4" d="M5388.75 820.55c9.57,20.05 23.92,37.44 41.76,50.74l50.78 42.8c34.87,26.04 65.31,57.5 90.2,93.2 11.51,16.84 19,36.13 21.89,56.31 2.89,20.25 1.12,40.85 -5.19,60.28 -7.67,19.43 -18.26,37.52 -31.4,53.8 -15.13,17.82 -27.62,37.73 -37.08,59.1 -5.02,24.02 -2.08,49 8.35,71.14 7.35,21.44 15.7,41.49 22.05,62.16 15.26,38.91 14.55,82.27 -2,120.63 -8.85,18.31 -23.54,33.06 -41.76,42.11 -19.26,8.63 -40.04,13.37 -61.14,13.99 -21.38,2.02 -43.44,1.67 -66.82,2.36 -22.37,-1.32 -44.6,4.18 -63.81,15.67 19.98,-8.98 42.11,-12.11 63.81,-8.98 22.05,0 43.77,3.34 66.82,3.34 22.85,0.42 45.55,-3.69 66.82,-12.04 22.2,-9.54 40.56,-26.24 52.12,-47.47 10.5,-20.95 16.54,-43.92 17.75,-67.38 1.21,-23.46 -2.45,-46.92 -10.74,-68.91 -6.34,-21.72 -14.36,-42.74 -21.37,-63.13 -8.04,-17.68 -10.14,-37.52 -6.02,-56.45 12.36,-35.43 51.78,-66.82 66.81,-113.6 7.13,-22.48 8.81,-46.29 4.93,-69.54 -3.89,-23.25 -13.25,-45.18 -27.31,-64.11 -28.3,-35.64 -62.13,-66.55 -100.22,-91.54l-54.12 -37.72c-18.26,-12.19 -33.65,-28.12 -45.11,-46.78l0 0z"/>
   <path class="fil4" d="M4317.65 261.25c-36.97,69.89 -69.66,141.93 -97.89,215.85 -16.04,36.06 -30.74,72.46 -49.11,106.57 -8.59,16.71 -18.89,32.51 -30.73,47.06 -2.58,3.34 -5.61,6.26 -9.02,8.7 -3.15,2.78 -6.63,5.15 -10.36,7.03 -8.35,4.66 -17.04,8.7 -26.06,12.67 -36.6,15.45 -72.41,32.72 -107.24,51.79 -36.91,19.91 -66.77,50.74 -85.52,88.18 -8.95,19.5 -12.86,40.86 -11.36,62.17 2.57,20.54 9.04,40.37 19.04,58.46 21.12,33.2 34.27,70.79 38.42,109.91 0.68,-40.09 -8.74,-79.7 -27.4,-115.27 -7.96,-16.98 -12.72,-35.36 -14.02,-54.09 -0.29,-18.37 4.07,-36.54 12.69,-52.83 18.68,-32.5 46.27,-59.09 79.52,-76.49 33.41,-19 69.82,-33.41 106.57,-49.07 9.02,-4.39 18.04,-8.7 27.07,-13.72 9.87,-5.57 18.61,-12.94 25.72,-21.72 13.08,-16.08 24.29,-33.55 33.41,-52.13 17.73,-35.64 33.35,-72.39 46.78,-109.91l38.75 -111.91c11.44,-37.84 25.04,-74.99 40.76,-111.25l0 0z"/>
   <path class="fil4" d="M4002.61 1351.09c14.07,24.15 23.04,51.02 26.39,78.8 6.35,27.78 12.7,55.48 20.72,82.9 7.37,27.91 17.67,55.06 30.74,80.81 13.33,27.35 33.04,51.09 57.47,69.19 53.5,27.57 115.43,33.9 173.39,17.69 28.07,-5.71 55.13,-12.67 82.85,-17.69 27.22,-6.68 55.65,-6.68 82.86,0 -26.66,-11.28 -55.85,-15.17 -84.53,-11.34 -28.72,2.64 -56.46,7.65 -84.19,10.65 -52.81,11.42 -107.92,4.59 -156.36,-19.35 -21.27,-15.59 -38.56,-35.99 -50.44,-59.51 -13.15,-24.22 -24.32,-49.42 -33.41,-75.45 -10.02,-26.1 -18.37,-53.18 -27.06,-80.19 -5.01,-13.37 -9.69,-26.73 -15.37,-39.75 -4.28,-14.13 -12.24,-26.8 -23.04,-36.75z"/>
   <path class="fil5" d="M4592.61 1796.7c-250.57,612.75 -1030.35,1319.68 -1290.94,1339.1 -304.35,22.34 -1084.12,-339.13 -1380.8,-766.44 -70.49,-100.23 580.65,-567.92 688.23,-491.08 220.83,156.34 638.45,370.8 674.53,374.14 71.49,6.69 555.26,-359.8 940.81,-620.75 478.42,-323.74 468.39,-79.5 368.17,165.03z"/>
   <path class="fil5" d="M2010.74 2482.96c0,0 -273.95,-292 -299.01,-563.26 -17.37,-187.45 9.69,-683.88 465.73,-1012.98 108.24,-78.17 317.72,-112.9 187.42,78.87 -92.54,136.29 -192.43,194.41 -231.85,283.65 0,0 271.61,-12.39 345.45,100.23 64.79,97.38 122.51,199.36 172.72,305.02 -17.3,13.5 -35.36,25.96 -54.12,37.38 0,0 59.14,110.26 14.03,295.69l-600.36 475.41z"/>
   <path class="fil6" d="M2703.98 722.26l293 986.61c3.33,5.43 5.15,11.62 5.28,17.96 0.13,6.34 -1.43,12.6 -4.53,18.17 -3.09,5.57 -7.61,10.16 -13.09,13.43 -5.47,3.2 -11.71,4.87 -18.07,4.87l-514.16 21.44c-15.72,-0.48 -30.99,-5.36 -44.02,-14.2 -13.02,-8.84 -23.25,-21.16 -29.48,-35.64l-291.99 -986.53c-11.7,-29.09 2,-53.11 30.73,-54.43l512.83 -20.74c15.62,0.49 30.79,5.36 43.78,14.06 12.99,8.63 23.29,20.81 29.72,35.01l0 0z"/>
   <path class="fil7" d="M2642.85 724.28l293 984.58c3.32,5.43 5.15,11.62 5.28,17.96 0.13,6.34 -1.43,12.6 -4.53,18.17 -3.09,5.57 -7.61,10.16 -13.09,13.43 -5.48,3.2 -11.72,4.87 -18.06,4.87l-514.18 21.72c-15.72,-0.55 -30.97,-5.56 -43.97,-14.41 -13,-8.91 -23.24,-21.23 -29.52,-35.71l-293 -985.91c-12.03,-29.03 1.67,-53.11 30.41,-54.43l514.17 -21.37c15.83,0.63 31.17,5.85 44.17,14.9 13.02,9.05 23.19,21.58 29.33,36.2z"/>
   <path class="fil4" d="M2503.86 775.72c0.55,8.7 3.65,16.98 8.91,23.87 5.26,6.82 12.46,12.04 20.66,14.83 8.2,2.78 17.04,3.06 25.41,0.83 8.37,-2.23 15.89,-6.89 21.6,-13.44 5.72,-6.47 9.37,-14.54 10.5,-23.11 1.13,-8.63 -0.31,-17.33 -4.15,-25.13 -3.83,-7.72 -9.89,-14.2 -17.39,-18.52 -7.5,-4.31 -16.13,-6.33 -24.77,-5.78 -11.56,0.76 -22.34,6.12 -29.97,14.82 -7.64,8.7 -11.52,20.05 -10.79,31.6l0 0z"/>
   <path class="fil5" d="M1743.13 1654.08c57.8,-80.19 183.09,-247.87 334.09,-349.15 167.04,-112.9 518.84,-284.97 601.37,-161 60.13,91.19 -66.82,168.73 -66.82,168.73 0,0 160.37,-40.44 196.79,53.46 33.4,85.48 -70.17,139.63 -70.17,139.63 0,0 100.22,-7.72 117.6,80.82 19.05,106.57 -196.78,105.59 -270.61,230.54 -19.7,27.77 -842.25,-163.02 -842.25,-163.02z"/>
   <path class="fil4" d="M2166.1 1501.09c123.54,-106.71 276.69,-173.11 438.99,-190.44 4.02,0 6.35,2.65 2.67,3.69 -153.94,44.48 -301.83,107.75 -440.33,188.43 0,0 -2,-1.04 -1.34,-1.67z"/>
   <path class="fil4" d="M2285.04 1666.13c63.15,-51.44 264.6,-158.07 449.02,-163.72 4.34,0 6.35,3 2.67,3.69 -155.9,36.89 -307.18,91.12 -451.03,161.7 0,0 -1.67,-1.04 -0.67,-1.67z"/>
   <path class="fil4" d="M2618.13 1773.67c-2.01,59.79 -3.68,117.98 -10.02,175.41 -3.01,28.75 -8.02,57.15 -13.69,85.54 -6.75,28.47 -15,56.59 -24.72,84.16 37.14,-48.24 59.43,-106.29 64.14,-167.06 2.84,-30 2.84,-60.15 0,-90.14 -1.77,-29.86 -7.04,-59.31 -15.7,-87.91z"/>
   <path class="fil8" d="M4254.84 2429.5l-465.72 -537.22c0,0 382.54,-317.41 657.83,-434.35 275.3,-116.87 310.7,59.17 186.42,323.11 -124.28,263.95 -378.53,648.46 -378.53,648.46z"/>
   <path class="fil9" d="M3912.73 2034.62l342.11 394.88c0,0 254.25,-386.53 378.53,-649.5 93.56,-198.45 96.89,-347.76 -24.72,-359.45l-695.92 614.07z"/>
   <path class="fil4" d="M3924.43 1813.76c144.44,140.74 279.17,291.09 403.25,450.01 0,0 -2.67,4.03 -3.34,3.34 -117.26,-116.25 -334.09,-364.81 -404.92,-448.34 0.33,-1.67 5.01,-6.33 5.01,-5.01z"/>
   <path class="fil8" d="M5726.68 3846.06c-230.24,-31.48 -1962.95,-533.53 -1962.95,-533.53l227.51 -666.56c0,0 -111.92,-214.45 -60.14,-420.63 69.5,-275.3 578.98,-727.94 619.07,-754.33 161.04,-106.57 311.71,-104.9 444.68,-33.41 513.28,272.21 723.68,2106.29 751.99,2376.07 -6.6,10.88 -13.44,21.59 -20.17,32.39z"/>
   <path class="fil10" d="M4829.48 1454.31c9.26,-21.72 20.44,-42.46 33.4,-62.16l13.37 2.37c-6.09,24.22 -14.48,47.82 -25.05,70.44 -13.63,31.05 -31.63,59.93 -53.46,85.9 5.7,-33.62 16.41,-66.13 31.74,-96.54zm-470.74 1204.68c13.95,-30.77 32.05,-59.58 53.78,-85.48 -5.37,33.41 -15.38,65.92 -29.73,96.55 -13.74,31.04 -31.85,59.93 -53.79,85.82 5.33,-33.48 15.35,-66.13 29.74,-96.89l0 0zm835.23 -803.82c30.91,13.99 59.78,32.09 85.86,53.81 -67.07,-11.42 -129.96,-40.23 -182.41,-83.53 33.41,5.36 65.9,15.38 96.55,29.72l0 0zm240.21 1130.9c31.1,13.85 60.12,31.94 86.2,53.8 -33.52,-5.57 -66.12,-15.66 -96.89,-30.07 -31.1,-13.57 -60.03,-31.74 -85.85,-53.81 33.48,5.29 66,15.38 96.55,30.07l0 0zm-1278.57 192.81c31.05,13.71 59.96,31.81 85.87,53.81 -33.49,-5.22 -66.03,-15.38 -96.56,-30.07 -31.03,-13.64 -59.94,-31.67 -85.86,-53.46 33.47,5.08 66,15.11 96.55,29.72l0 0zm429.65 -1131.94c12.48,32.09 20.02,65.92 22.38,100.23 -19.67,-27.56 -35.51,-57.7 -47.11,-89.51 -12.04,-31.67 -19.57,-64.81 -22.38,-98.56 19.58,26.66 35.44,55.89 47.11,86.87l0 0.97zm350.13 1141.27c12.11,31.67 19.64,64.8 22.39,98.56 -39.22,-55.54 -63.19,-120.42 -69.5,-188.07 19.52,27.29 35.35,57.07 47.11,88.54l0 0.98zm479.75 400.93c31.65,-12.04 64.83,-19.56 98.56,-22.41 -27.36,19.7 -57.41,35.29 -89.2,46.43 -32.14,12.46 -65.89,20.19 -100.22,23.11 27.81,-20.74 58.4,-37.38 90.87,-49.49l0 2.37zm-411.94 -1112.17c31.67,-12.11 64.83,-19.84 98.56,-23.11 -27.11,20.33 -57.2,36.34 -89.2,47.47 -32.21,12.18 -65.93,19.77 -100.22,22.69 27.71,-20.81 58.32,-37.45 90.87,-49.42l0 2.37z"/>
   <path class="fil4" d="M4704.87 2770.3c-64.41,-25.96 -130.22,-48.24 -197.12,-66.82 -33.4,-9.05 -66.81,-16.08 -100.23,-22.06l-49.11 -8c-18.04,-2.72 -36.42,-2.72 -54.13,-5.71 -2,0 -2.67,2.72 0,3 17.04,3.06 33.41,9.39 50.12,13.36l50.11 12.74 100.23 25.69c66.82,16.43 133.63,33.41 200.46,52.13 1.67,3.34 3.01,-2.99 -0.33,-4.31z"/>
   <path class="fil5" d="M4919.02 1423.2c-7.35,33.41 -169.72,262.28 -328.41,257.27 -51.79,-2.02 -54.79,-284.28 -54.79,-284.28l-5.01 -20.75 -69.49 -291.3 389.21 -254.97c0,0 71.5,578.99 68.5,594.03z"/>
   <path class="fil4" d="M4461.31 1084.14l69.49 290.61c78.5,-30.7 149.67,-77.55 208.9,-137.48 59.22,-60 105.18,-131.76 134.88,-210.63 -12.03,-100.23 -22.05,-184.11 -23.39,-196.08 -0.07,-0.56 -0.07,-1.12 0,-1.67l-49.44 29.72 -340.44 225.52z"/>
   <path class="fil5" d="M4136.9 506.13c-172.72,496.43 104.92,656.18 212.16,693.21 96.89,33.41 432.31,136.36 655.48,-339.4 223.17,-475.76 47.11,-713.29 -171.05,-801.83 -218.17,-88.53 -523.53,-49.44 -696.59,448.02z"/>
   <path class="fil4" d="M4240.15 450.38c11.96,1.46 24.02,2.16 36.07,1.94 12.65,2.58 25.78,0.91 37.43,-4.66 3.3,-2.51 5.68,-5.98 6.76,-10.02 1.09,-3.97 0.82,-8.22 -0.75,-12.04 -4.3,-7.1 -10.39,-12.94 -17.66,-16.91 -7.28,-3.97 -15.48,-5.98 -23.77,-5.78 -16.74,-1.81 -33.58,2.44 -47.44,12.04 -3.02,2.44 -5.28,5.64 -6.49,9.33 -1.21,3.69 -1.33,7.66 -0.34,11.42 0.98,3.76 3.05,7.1 5.92,9.74 2.87,2.58 6.44,4.31 10.26,4.94l0 0z"/>
   <path class="fil4" d="M4572.23 586.32c-11.7,-4.66 -21.38,-10.72 -33.41,-16.35 -12.2,-4.31 -22.65,-12.53 -29.73,-23.39 -1.57,-3.83 -1.84,-8.08 -0.75,-12.05 1.09,-4.03 3.47,-7.52 6.76,-10.02 7.09,-4.18 15.17,-6.33 23.39,-6.33 8.22,0 16.3,2.16 23.39,6.33 14.83,6.68 26.72,18.58 33.41,33.41 1.91,3.41 2.74,7.38 2.4,11.28 -0.35,3.9 -1.86,7.65 -4.34,10.72 -2.48,3.06 -5.81,5.29 -9.58,6.4 -3.77,1.19 -7.78,1.19 -11.54,0l0 0z"/>
   <path class="fil4" d="M4479.69 642.78c0,0 2,2.36 0,3.69 -11.36,33.41 -18.38,74.83 9.02,95.57 0,0 0,2.3 0,1.67 -35.42,-16.43 -25.39,-70.52 -9.02,-100.93z"/>
   <path class="fil4" d="M4520.78 616.04c56.46,12.04 28.06,123.97 -24.39,112.9 -52.45,-11 -22.72,-122.57 24.39,-112.9z"/>
   <path class="fil4" d="M4541.16 627.39c8.35,9.05 15.04,22.76 26.4,26.73 11.36,4.04 26.73,-4.31 38.42,-13.36 0,0 2,0 0,2.02 -5.01,21.37 -19.04,41.41 -42.77,38.77 -23.72,-2.65 -33.41,-25.41 -33.41,-48.45 3.34,-4.03 8.35,-9.05 11.36,-5.7z"/>
   <path class="fil4" d="M4281.57 579.98c0,0 -3.01,0 -3.34,2.3 -7.35,35.08 -21.71,74.2 -56.13,77.89l0 2.02c39.43,3.97 58.13,-47.82 59.47,-82.21z"/>
   <path class="fil4" d="M4258.52 536.2c-54.79,-18.02 -86.86,92.86 -36.08,109.57 50.78,16.7 83.19,-94.53 36.08,-109.57z"/>
   <path class="fil4" d="M4234.47 536.9c-10.69,3.34 -22.39,11.35 -33.41,8.98 -11.02,-2.3 -17.71,-17.33 -22.05,-31.05 0,0 0,0 -2.34,0 -6.69,21.02 -6.02,45.45 13.37,55.13 19.37,9.67 36.42,-5.01 47.44,-24.71 2.34,-3.07 1,-9.74 -3,-8.35z"/>
   <path class="fil4" d="M4405.85 950.85c-10.03,6.61 -20.38,16.63 -33.41,15.31 -13.09,-2.5 -25.5,-7.72 -36.42,-15.31 0,0 -2.34,0 0,0 3.75,7.87 9.6,14.54 16.91,19.35 7.31,4.73 15.79,7.45 24.52,7.65 7.53,-0.56 14.72,-3.27 20.67,-7.93 5.94,-4.67 10.39,-10.93 12.74,-18.1 -1,-0.7 -3.68,-2.02 -5.01,-0.97z"/>
   <path class="fil4" d="M4290.26 778.78c0,0 -19.71,50.39 -25.39,74.82 0,2.3 5.01,5.01 13.37,7.31 20.16,8.84 42.35,11.97 64.15,8.98 21.81,-2.93 42.38,-11.83 59.47,-25.69 0.37,-0.41 0.6,-0.97 0.65,-1.53 0.05,-0.55 -0.09,-1.11 -0.39,-1.6 -0.3,-0.48 -0.74,-0.83 -1.26,-1.04 -0.53,-0.21 -1.11,-0.28 -1.67,-0.14 -36.43,13.92 -76.35,15.8 -113.93,5.35 0,-7.37 36.42,-85.19 33.42,-86.24 -19.51,-2.65 -39.3,-2.65 -58.81,0 37.75,-105.87 92.22,-205.13 127.96,-311 0.41,-0.84 0.47,-1.74 0.19,-2.58 -0.28,-0.83 -0.89,-1.53 -1.69,-1.95 -0.8,-0.42 -1.72,-0.48 -2.56,-0.21 -0.85,0.35 -1.54,0.91 -1.95,1.74 -61.48,104.34 -112.41,214.6 -152,329.03 -4.68,13.09 49.44,6.68 60.46,4.73z"/>
   <path class="fil4" d="M4281.57 851.59c8.07,23.87 22.1,45.24 40.76,62.15 10.5,8.78 23.44,14.13 37.09,15.39 30.06,1.94 39.41,-22.76 41.75,-46.15 1.48,-12.32 1.48,-24.78 0,-37.1 -38.22,14.69 -80.16,16.7 -119.6,5.71z"/>
   <path class="fil11" d="M4322.33 913.74c10.5,8.78 23.44,14.13 37.09,15.39 30.06,1.94 39.41,-22.76 41.75,-46.15 -14.68,-4.46 -30.44,-3.83 -44.73,1.74 -14.3,5.57 -26.31,15.8 -34.11,29.02l0 0z"/>
   <path class="fil4" d="M4939.4 878.32c-120.94,-39.75 -47.44,-424.94 -38.09,-472.07 -7.35,29.37 -48.11,185.08 -61.47,187.73 -13.09,-4.04 -25.4,-10.23 -36.42,-18.37l0 0c5.25,-18.44 9.06,-37.38 11.36,-56.45 0,-8.98 -8.69,17.4 -23.05,49.49l-20.38 -12.74c12.63,-39.05 20.16,-79.56 22.39,-120.56 0,-15.73 -22.39,48.73 -53.13,101.84 -95.15,-60.63 -196.79,-110.54 -303.02,-148.61 -30.07,-10.02 -56.13,-17.4 -79.85,-23.08 13.02,-45.44 33.4,-92.54 26.06,-83.19 -17,24.98 -31.65,51.49 -43.76,79.18 -12.7,-3.01 -24.72,-5.35 -35.42,-7.35 15.7,-66.82 76.17,-159.03 61.14,-146.33 -44.5,39.63 -81.21,87.22 -108.25,140.32 -46.1,-4.34 -60.8,0 -58.8,-10.69 50.08,-123.1 142.33,-224.36 260.26,-285.65 194.1,-100.23 508.49,-47.11 615.73,223.85 0,0 114.59,133.62 93.88,288.01 -20.71,154.32 -159.7,337.38 -229.19,314.69z"/>
   <path class="fil5" d="M4912.34 869.27c0,0 151.68,-130.93 213.82,-72.81 62.14,58.12 -80.18,267.29 -173.06,276.96 -11.78,2.08 -23.87,1.81 -35.54,-0.91 -11.67,-2.71 -22.66,-7.72 -32.33,-14.75 -9.68,-7.1 -17.82,-16.01 -23.96,-26.31 -6.13,-10.23 -10.13,-21.65 -11.74,-33.55l62.81 -128.63z"/>
   <path class="fil4" d="M5083.73 855.28l0 2.3c-66.82,9.05 -110.93,56.17 -147.34,107.61 4.98,-5.08 11.01,-8.98 17.66,-11.48 6.64,-2.5 13.74,-3.55 20.83,-2.99 7.08,0.49 13.96,2.51 20.19,5.92 6.22,3.48 11.62,8.22 15.83,13.92 0,0 0,3.34 -2.33,2.65 -9.61,-5.98 -20.85,-8.84 -32.15,-8.21 -11.31,0.7 -22.13,4.8 -30.99,11.9 -14.65,11.9 -27.96,25.34 -39.76,40.09 -4.01,4.67 -13.03,0 -9.35,-6.33 18.37,-77.2 104.23,-168.38 187.43,-155.36z"/>
   <path class="fil5" d="M5102.43 1959.8c-131.29,803.82 -458.7,1326 -612.06,1351.06 -412.27,66.82 -1109.52,-606.06 -1317.32,-764.42 -84.2,-63.83 601.37,-637.81 682.55,-559.29 191.43,185.09 448.35,475.76 461.38,478.76 26.73,6.33 124.28,-176.39 453.7,-693.21 266.27,-418.27 385.54,-141.65 331.75,187.1z"/>
   <path class="fil5" d="M2791.19 1212.08c-57.13,86.87 169.04,209.44 169.04,209.44 -44.8,0.14 -88.12,16.15 -122.28,45.11 -58.13,53.46 0,167.06 0,167.06 -46.17,9.74 -88.39,32.99 -121.28,66.82 -50.11,57.15 -7.35,180.77 -7.35,180.77 -36.91,33.2 -61.21,78.17 -68.82,127.24 -26.73,219.54 453.03,534.58 608.72,594.37l629.1 -567.92c0,0 -233.87,-521.56 -423.3,-656.53 -104.91,-72.46 -576.65,-299.03 -663.84,-166.36z"/>
   <path class="fil4" d="M2963.57 1420.2c133.98,46.15 261.77,108.52 380.54,185.78 0.31,0.14 0.57,0.28 0.8,0.56 0.23,0.2 0.4,0.56 0.5,0.84 0.11,0.35 0.14,0.63 0.11,0.97 -0.04,0.35 -0.14,0.63 -0.31,0.97 -0.17,0.28 -0.39,0.49 -0.66,0.7 -0.27,0.21 -0.57,0.35 -0.91,0.42 -0.32,0.06 -0.66,0 -0.98,-0.07 -0.32,-0.07 -0.63,-0.2 -0.89,-0.41 -118.6,-72.81 -259.59,-115.55 -380.87,-183.69 -0.65,-0.49 -1.12,-1.11 -1.34,-1.88 -0.22,-0.77 -0.16,-1.54 0.16,-2.3 0.32,-0.7 0.88,-1.25 1.59,-1.6 0.7,-0.35 1.51,-0.48 2.27,-0.28z"/>
   <path class="fil4" d="M2847.64 1627.7c29.81,12.32 57.89,28.46 83.53,48.09 28.39,18.72 56.46,38.43 84.19,58.12 55.46,39.75 110.25,80.88 163.71,123.63 2.34,2.02 0,5.98 -2.67,4.31 -55.46,-39.74 -111.26,-78.52 -167.05,-115.55l-86.19 -55.47c-28.38,-15.39 -54.93,-33.83 -79.19,-55.13 -0.54,-0.7 -0.89,-1.6 -0.98,-2.5 -0.09,-0.91 0.06,-1.81 0.43,-2.58 0.37,-0.83 0.96,-1.53 1.71,-2.09 0.74,-0.48 1.61,-0.76 2.51,-0.83l0 0z"/>
   <path class="fil4" d="M2712.34 1884.97c26.87,11.42 51.62,27.36 73.17,47.06l74.83 55.83c50.45,36.75 100.23,73.5 152.35,108.58 2.34,0 0,5.64 -2.67,3.97 -52.46,-35.36 -105.57,-69.81 -157.69,-105.53l-76.84 -53.18c-25.19,-14.06 -47.78,-32.36 -66.82,-54.08 -0.35,-0.49 -0.49,-1.12 -0.4,-1.68 0.09,-0.62 0.41,-1.18 0.9,-1.53 0.48,-0.35 1.1,-0.49 1.69,-0.42 0.6,0.14 1.13,0.48 1.48,0.97z"/>
   <path class="fil4" d="M2665.56 1938.7c-23.41,33.9 -33.95,74.97 -29.73,115.96 5.44,41.07 21.18,80.19 45.78,113.6 46.42,66.4 100.47,127.17 161.03,181.04 59.67,54.43 123.56,104.06 191.1,148.33 67.37,44.48 138.74,82.63 213.15,113.95l-1.67 0c47.11,38.77 359.15,289.63 407.6,327.43 -44.1,-42.46 -352.8,-297.36 -397.91,-338.78 -71.39,-35.22 -140.17,-75.52 -205.8,-120.63 -65.62,-45.04 -128.33,-94.11 -187.76,-147.01 -59.66,-52.28 -114.36,-109.98 -163.37,-172.41 -24.61,-30.49 -41.46,-66.48 -49.11,-104.9 -8.3,-39.61 -2.38,-80.89 16.7,-116.59l0 0z"/>
   <path class="fil9" d="M5021.58 2613.26l-632.44 -325.06c0,0 236.2,-436.99 447.69,-649.15 211.48,-212.16 310.7,-61.11 293.67,230.19 -17.04,291.3 -108.92,744.02 -108.92,744.02z"/>
   <path class="fil4" d="M4501.74 2165.2c186.51,76.92 367.66,166.22 542.23,267.29 0,0 0,5.01 -2,4.67 -152.01,-64.11 -445.34,-214.11 -543.24,-264.92 -1.67,-1.33 1.34,-7.66 3.01,-7.04z"/>
   <path class="fil3" d="M2403.33 5288.82l537.19 -372.7 307.7 -213.76c0,0 87.2,58.75 218.5,131.28 182.08,100.23 449.35,228.52 685.56,263.25 27.51,4.06 56.33,7.79 86.2,11.1 596.7,-246.88 1101.95,-669.81 1451.24,-1204 -8.83,-43.16 -16.64,-68.3 -16.64,-68.3l-434.32 -187.1c0,0 -1029.67,-857.9 -1696.86,-884 -283.3,-11 -695.91,203.81 -1078.11,428.01 -171.19,100.39 -923.83,644.89 -1702.65,1215.48 439,441.92 1006.7,755.78 1642.21,880.74z"/>
   <path class="fil4" d="M3248.22 4701.67c0,0 87.2,58.82 218.5,131.28 231.86,-277.59 722.97,-782.1 738.01,-799.78l-956.51 668.5z"/>
   <path class="fil4" d="M4859.88 3360.63c61.48,42.74 120.94,88.19 181.75,133.65 60.8,45.45 121.61,83.53 178.07,130.58 56.46,47.12 112.59,100.23 167.05,151.04 26.39,24.71 52.46,49.77 77.84,75.52 26.59,24.92 51.28,51.85 73.84,80.46 2,2.72 0,6.06 -4.35,4.39 -28.9,-20.53 -56.46,-42.81 -82.52,-66.82l-86.2 -73.15c-55.12,-47.13 -111.58,-92.93 -167.04,-139.98 -55.46,-47.12 -105.91,-98.22 -160.03,-145.69 -54.13,-47.48 -119.61,-98.22 -180.08,-146.32 0,-2.36 1.67,-4.38 1.67,-3.69z"/>
   <path class="fil4" d="M2380 5284.35c81.63,-57.52 163.52,-114.5 246.15,-170.74 47.78,-33.41 95.88,-64.46 144,-96.55 48.11,-32.09 97.89,-61.46 145,-94.53 2.68,-1.67 5.35,2.65 2.68,4.67 -43.44,31.04 -84.2,66.82 -126.62,97.87 -42.43,31.04 -80.86,61.81 -121.61,91.88 -79.85,59.17 -160.36,116.94 -240.54,175.06l-1.91 1.37c-15.73,-2.96 -31.48,-5.83 -47.13,-9.03z"/>
   <path class="fil4" d="M753.79 4400.57c107.42,-82.05 218.13,-160.08 327.18,-239.82 154.02,-112.55 310.38,-228.52 467.73,-341.42l464.72 -336.13c150.35,-108.59 300.69,-218.77 458.7,-315.04 86.61,-52.83 175.82,-101.35 267.28,-145.34 88.8,-45.45 181.35,-83.25 276.63,-112.9 2.67,0 4.34,3.34 1.67,4.67 -78.17,43.78 -160.37,80.53 -239.54,122.65 -79.18,42.11 -155.02,85.47 -230.86,131.62 -157.7,95.22 -306.37,203.81 -455.7,311.35 -310.37,223.16 -620.08,447.36 -932.79,668.22 -128.37,90.14 -254.59,184.07 -384.45,272.93 -6.91,-6.87 -13.72,-13.85 -20.57,-20.79z"/>
  </g>
 </g>
</svg>
