<?xml version="1.0" encoding="UTF-8"?>
<!DOCTYPE svg PUBLIC "-//W3C//DTD SVG 1.1//EN" "http://www.w3.org/Graphics/SVG/1.1/DTD/svg11.dtd">
<!-- Creator: CorelDRAW 2019 (64-Bit) -->
<svg xmlns="http://www.w3.org/2000/svg" xml:space="preserve" width="3.05178in" height="0.790669in" version="1.1" style="shape-rendering:geometricPrecision; text-rendering:geometricPrecision; image-rendering:optimizeQuality; fill-rule:evenodd; clip-rule:evenodd"
viewBox="0 0 92.72 24.02"
 xmlns:xlink="http://www.w3.org/1999/xlink">
 <defs>
  <style type="text/css">
   <![CDATA[
    .fil0 {fill:none}
    .fil1 {fill:white}
   ]]>
  </style>
 </defs>
 <g id="Layer_x0020_1">
  <metadata id="CorelCorpID_0Corel-Layer"/>
  <rect class="fil0" width="92.72" height="24.02"/>
  <path class="fil1" d="M8.89 21.27l0 0zm1.39 0.3c-0.36,-0.27 -0.88,-1.61 -1.16,-2.12 -0.42,-0.77 -0.76,-1.43 -1.16,-2.22 -0.39,-0.78 -0.79,-1.52 -1.14,-2.24 -0.29,-0.61 -0.97,-1.67 -1.11,-2.27l9.24 0 -4.12 7.72c-0.23,0.38 -0.45,0.69 -0.55,1.14l0 -0zm1.19 -0.2l7.85 -15.32c0,1.65 0.01,2.55 -0.21,4.06 -0.13,0.88 -0.65,2.63 -0.96,3.41 -0.31,0.77 -0.55,1.25 -0.94,1.94 -0.73,1.32 -1.46,2.27 -2.48,3.29 -1.27,1.27 -1.77,1.62 -3.25,2.61l-0 -0zm-2.58 -0.1c-1.16,-0.27 -3.66,-2.87 -4.59,-4.06 -0.43,-0.54 -0.77,-1.12 -1.14,-1.75 -1.71,-2.88 -2.13,-6 -2.13,-9.51 0.06,0.07 0.03,0.02 0.14,0.16 0.1,0.14 0.09,0.12 0.16,0.24l5.6 11c0.11,0.21 0.16,0.28 0.24,0.45 0.4,0.84 1.56,2.82 1.71,3.46l-0 0zm-8.75 -15.32l0 2.29c0,2.91 1.07,5.62 2.32,7.92 1.53,2.82 4.31,5.2 7.12,6.7 0.78,0.42 1.18,0.08 2.41,-0.68 1.43,-0.89 2.64,-1.89 3.78,-3.08 0.19,-0.2 0.2,-0.24 0.36,-0.44 0.16,-0.19 0.26,-0.29 0.41,-0.48 1.33,-1.7 2.33,-3.51 2.95,-5.61 0.71,-2.41 1.05,-5.08 0.69,-7.68 -0.1,-0.71 0.01,-0.98 -0.65,-1.14 -0.49,0.33 -0.86,1.27 -1.11,1.88 -0.26,0.64 -0.66,1.37 -0.98,2 -0.17,0.35 -0.28,0.65 -0.46,1.03 -0.29,0.61 -1.31,2.54 -1.43,3.05l-10.44 0 -3.97 -7.78c-0.42,-0.41 -0.5,-0.08 -0.51,-0.08 -0.29,0.1 -0.13,-0.09 -0.29,0.31 -0.15,0.4 -0.21,1.29 -0.21,1.78l0 -0z"/>
  <path class="fil1" d="M53.12 11.72l0 -2.49c0,-0.23 0.07,-0.3 0.3,-0.3l5.57 0c0.23,0 0.3,0.07 0.3,0.3 0,1.43 0.25,2.88 -0.4,2.88l-5.37 0c-0.23,0 -0.4,-0.16 -0.4,-0.4l-0 -0zm-1.09 4.18c0,0.45 1.09,0.45 1.09,0l0 -2.79 3.18 0c0.27,0 0.28,0.14 0.4,0.29l0.63 0.76c0.52,0.66 1.12,1.24 1.65,2.03l1.29 0c-0.08,-0.29 -1.58,-1.99 -1.86,-2.32l-0.63 -0.77c0.64,0 1.39,0.09 1.83,-0.16 1.02,-0.57 0.75,-2.06 0.75,-3.52 0,-0.4 -0.13,-0.74 -0.32,-0.97 -0.12,-0.15 -0.56,-0.52 -0.77,-0.52l-7.26 0 0 7.96 0 -0z"/>
  <path class="fil1" d="M39.31 8.14l0 8.06 7.55 0 0 -0.99 -6.56 0 0 -2.69 5.27 0 0 -0.99 -5.27 0 0 -2.59 6.26 0c0.45,0 0.45,-1.09 0,-1.09l-6.96 0c-0.23,0 -0.3,0.07 -0.3,0.3l0 0z"/>
  <path class="fil1" d="M25.89 9.23l0 5.57c0,0.85 0.65,1.39 1.49,1.39l6.46 0c0.4,0 0.3,-0.28 0.3,-0.99l-6.46 0c-0.35,0 -0.8,-0.05 -0.8,-0.4 0,-1.25 -0.13,-4.89 0.1,-5.87l6.06 0c1.22,0.01 1.09,0.19 1.09,-1 -0.98,-0.23 -5.06,-0.1 -6.36,-0.1 -1.06,0 -1.89,0.34 -1.89,1.39l-0 -0z"/>
  <path class="fil1" d="M84.93 8.14l0 8.06c1.33,0 0.99,0.54 0.99,-3.68 3.22,0 2.17,-0.43 4.01,1.76 0.56,0.66 1.08,1.21 1.56,1.92l1.19 0c-0.03,-0.38 -0.26,-0.55 -0.72,-1.07 -0.31,-0.35 -0.56,-0.67 -0.85,-1.04l-1.7 -2.07 1.66 -2.02c0.27,-0.34 1.53,-1.7 1.62,-2.06 -0.28,-0.16 -0.42,-0.1 -0.89,-0.1 -0.62,0 -2.92,3.68 -3.48,3.68l-2.39 0 0 -3.38c0,-0.44 -0.99,-0.44 -0.99,0l-0 0z"/>
  <path class="fil1" d="M65.15 8.14c0,1.08 -0.45,0.8 3.68,0.8l0 7.26c0.71,0 0.99,0.1 0.99,-0.3l0 -6.96 3.28 0c0.45,0 0.45,-1.09 0,-1.09l-7.65 0c-0.23,0 -0.3,0.07 -0.3,0.3l-0 0z"/>
  <path class="fil1" d="M3.03 3.46c0,0.97 1.68,0.15 2.1,0.01 0.57,-0.18 1.13,-0.36 1.68,-0.51 4.95,-1.36 2.02,-1.3 6.76,0 0.82,0.23 2.98,0.99 3.58,0.99 0.37,0 0.49,-0.49 0.27,-0.75 -0.2,-0.23 -7.06,-2.23 -7.13,-2.23 -0.48,0 -4.86,1.38 -5.63,1.63 -0.49,0.16 -1.63,0.31 -1.63,0.86l0 0z"/>
  <path class="fil1" d="M78.27 8.14l0 7.76c0,0.4 0.28,0.3 0.99,0.3l0 -8.36c-0.71,0 -0.99,-0.1 -0.99,0.3l0 0z"/>
  <path class="fil1" d="M0.15 8.24l0 -2.29c-0.07,0.1 -0.06,0 -0.09,0.21l-0.01 1.79c0.06,0.51 -0.02,0.1 0.1,0.29l0 0z"/>
 </g>
</svg>
