<?xml version="1.0" encoding="UTF-8"?>
<!DOCTYPE svg PUBLIC "-//W3C//DTD SVG 1.1//EN" "http://www.w3.org/Graphics/SVG/1.1/DTD/svg11.dtd">
<!-- Creator: CorelDRAW 2019 (64-Bit) -->
<svg xmlns="http://www.w3.org/2000/svg" xml:space="preserve" width="7.10835in" height="5.72744in" version="1.1" style="shape-rendering:geometricPrecision; text-rendering:geometricPrecision; image-rendering:optimizeQuality; fill-rule:evenodd; clip-rule:evenodd"
viewBox="0 0 2330.41 1877.69"
 xmlns:xlink="http://www.w3.org/1999/xlink">
 <defs>
  <style type="text/css">
   <![CDATA[
    .fil0 {fill:#4D4D4D;fill-opacity:0.168627}
   ]]>
  </style>
 </defs>
 <g id="Layer_x0020_1">
  <metadata id="CorelCorpID_0Corel-Layer"/>
  <g id="_2303501113792">
   <g id="_813697213728">
    <path class="fil0" d="M2321.31 1877.68c-241.51,-802.68 -863.14,-1477.23 -1724.05,-1751.67 -198.26,-63.2 -398.46,-101.7 -597.26,-117.28l0 -8.73c199.67,15.6 400.76,54.25 599.9,117.74 864.66,275.63 1488.73,953.52 1730.51,1759.95l-9.1 0 0 -0z"/>
    <path class="fil0" d="M2220.86 1877.68c-271.19,-734.43 -867.13,-1341.37 -1672.55,-1598.11 -182,-58.02 -365.63,-95.24 -548.31,-113.01l0 -8.74c183.55,17.81 368.07,55.18 550.95,113.48 809.17,257.94 1407.52,868.2 1679.1,1606.39l-9.19 0 0 -0z"/>
    <path class="fil0" d="M2109.66 1877.68c-294.16,-664.81 -861.75,-1205.94 -1610.31,-1444.55 -165.75,-52.84 -332.85,-88.42 -499.36,-107.79l0 -8.77c167.39,19.42 335.37,55.17 502,108.28 752.35,239.83 1322.53,784.22 1617.23,1452.84l-9.56 0 -0 -0z"/>
    <path class="fil0" d="M1986.63 1877.68c-310.02,-593.99 -846.19,-1071.04 -1536.23,-1291 -149.51,-47.66 -300.13,-81.29 -450.41,-101.64l0 -8.79c151.16,20.41 302.66,54.21 453.05,102.15 693.87,221.19 1232.7,701.45 1543.43,1299.28l-9.85 0z"/>
    <path class="fil0" d="M1851.01 1877.68c-318.57,-522.17 -820.06,-936.77 -1449.55,-1137.44 -133.28,-42.49 -267.44,-73.81 -401.46,-94.53l0 -8.8c134.9,20.79 269.94,52.28 404.1,95.05 633.39,201.91 1137.67,619.7 1457.19,1145.72l-10.27 0z"/>
    <path class="fil0" d="M1700.89 1877.68c-319.13,-449.52 -781.94,-803.31 -1348.39,-983.88 -117.06,-37.31 -234.79,-66.02 -352.51,-86.48l0 -8.83c118.6,20.55 237.21,49.44 355.15,87.03 570.42,181.84 1036.07,538.78 1356.39,992.16l-10.64 0 -0 0z"/>
    <path class="fil0" d="M1534.17 1877.68c-311.02,-376.27 -730.38,-670.87 -1230.61,-830.32 -100.83,-32.14 -202.16,-57.9 -303.56,-77.51l0 -8.85c102.27,19.72 204.49,45.66 306.2,78.08 504.35,160.77 926.81,458.42 1239.29,838.61l-11.32 0 -0 -0z"/>
    <path class="fil0" d="M1347.9 1877.68c-293.05,-302.8 -663.3,-539.7 -1093.29,-676.77 -84.61,-26.97 -169.56,-49.43 -254.61,-67.55l0 -8.89c85.93,18.24 171.77,40.91 257.25,68.16 434.27,138.43 807.84,378.35 1102.78,685.05l-12.13 0 -0 0z"/>
    <path class="fil0" d="M1137.07 1877.68c-263.42,-229.51 -577.12,-410.27 -931.41,-523.21 -68.37,-21.79 -136.97,-40.65 -205.66,-56.65l0 -8.92c69.57,16.15 139.05,35.22 208.3,57.29 358.83,114.39 676.18,298.11 942.01,531.49l-13.23 0 0 0z"/>
    <path class="fil0" d="M894.19 1877.68c-219.18,-157.21 -466.47,-283.26 -737.48,-369.66 -52.12,-16.62 -104.38,-31.51 -156.71,-44.75l0 -8.96c53.21,13.41 106.35,28.54 159.35,45.43 275.93,87.96 527.32,216.93 749.63,377.93l-14.8 0 0 0z"/>
    <path class="fil0" d="M604.39 1877.68c-154.76,-87.19 -320.69,-160.01 -496.64,-216.1 -35.86,-11.43 -71.79,-22.04 -107.76,-31.87l0 -9.01c36.85,10.04 73.66,20.89 110.4,32.61 181.59,57.89 352.55,133.54 511.61,224.38l-17.62 0 0 0z"/>
    <path class="fil0" d="M233.81 1877.68c-57.16,-22.7 -115.51,-43.58 -175,-62.54 -19.59,-6.24 -39.19,-12.24 -58.81,-18l0 -9.05c20.5,6 40.99,12.25 61.45,18.77 66.65,21.25 131.85,44.92 195.58,70.82l-23.22 0 0 0z"/>
   </g>
  </g>
 </g>
</svg>
