<svg width="187" height="212" viewBox="0 0 187 212" fill="none" xmlns="http://www.w3.org/2000/svg">
<mask id="mask0" mask-type="alpha" maskUnits="userSpaceOnUse" x="-25" y="0" width="212" height="212">
<circle cx="81" cy="106" r="106" fill="#C4C4C4"/>
</mask>
<g mask="url(#mask0)">
<path fill-rule="evenodd" clip-rule="evenodd" d="M-55.3455 -87.0713H-57.8105V-84.6062C-56.4548 -84.6062 -55.3455 -85.7155 -55.3455 -87.0713ZM-33.1601 -84.6062C-31.8043 -84.6062 -30.695 -85.7155 -30.695 -87.0713H-35.6251C-35.6251 -85.7155 -34.5158 -84.6062 -33.1601 -84.6062ZM-6.04449 -87.0713C-6.04449 -85.7155 -7.15376 -84.6062 -8.50954 -84.6062C-9.86532 -84.6062 -10.9746 -85.7155 -10.9746 -87.0713H-6.04449ZM16.1409 -84.6062C17.4967 -84.6062 18.6059 -85.7155 18.6059 -87.0713H13.6758C13.6758 -85.7155 14.7851 -84.6062 16.1409 -84.6062ZM43.2565 -87.0713C43.2565 -85.7155 42.1472 -84.6062 40.7914 -84.6062C39.4356 -84.6062 38.3263 -85.7155 38.3263 -87.0713H43.2565ZM65.4419 -84.6062C66.7977 -84.6062 67.907 -85.7155 67.907 -87.0713H62.9769C62.9769 -85.7155 64.0861 -84.6062 65.4419 -84.6062ZM92.5574 -87.0713C92.5574 -85.7155 91.4481 -84.6062 90.0924 -84.6062C88.7366 -84.6062 87.6273 -85.7155 87.6273 -87.0713H92.5574ZM114.743 -84.6062C116.099 -84.6062 117.208 -85.7155 117.208 -87.0713H112.278C112.278 -85.7155 113.387 -84.6062 114.743 -84.6062ZM141.858 -87.0713C141.858 -85.7155 140.749 -84.6062 139.393 -84.6062C138.038 -84.6062 136.928 -85.7155 136.928 -87.0713H141.858ZM164.044 -84.6062C165.4 -84.6062 166.509 -85.7155 166.509 -87.0713H161.579C161.579 -85.7155 162.688 -84.6062 164.044 -84.6062ZM191.159 -87.0713C191.159 -85.7155 190.05 -84.6062 188.694 -84.6062C187.339 -84.6062 186.229 -85.7155 186.229 -87.0713H191.159ZM213.345 -84.6062C214.701 -84.6062 215.81 -85.7155 215.81 -87.0713H210.88C210.88 -85.7155 211.989 -84.6062 213.345 -84.6062ZM237.995 -87.0713V-84.6062C236.64 -84.6062 235.53 -85.7155 235.53 -87.0713H237.995ZM-55.3455 -62.4208C-55.3455 -63.7766 -56.4548 -64.8859 -57.8105 -64.8859V-59.9558C-56.4548 -59.9558 -55.3455 -61.065 -55.3455 -62.4208ZM-30.695 -62.4208C-30.695 -61.0594 -31.7986 -59.9558 -33.1601 -59.9558C-34.5215 -59.9558 -35.6251 -61.0594 -35.6251 -62.4208C-35.6251 -63.7822 -34.5215 -64.8859 -33.1601 -64.8859C-31.7986 -64.8859 -30.695 -63.7822 -30.695 -62.4208ZM-8.50954 -59.9558C-7.14813 -59.9558 -6.04449 -61.0594 -6.04449 -62.4208C-6.04449 -63.7822 -7.14813 -64.8859 -8.50954 -64.8859C-9.87095 -64.8859 -10.9746 -63.7822 -10.9746 -62.4208C-10.9746 -61.0594 -9.87095 -59.9558 -8.50954 -59.9558ZM18.6059 -62.4208C18.6059 -61.0594 17.5023 -59.9558 16.1409 -59.9558C14.7795 -59.9558 13.6758 -61.0594 13.6758 -62.4208C13.6758 -63.7822 14.7795 -64.8859 16.1409 -64.8859C17.5023 -64.8859 18.6059 -63.7822 18.6059 -62.4208ZM40.7914 -59.9558C42.1528 -59.9558 43.2565 -61.0594 43.2565 -62.4208C43.2565 -63.7822 42.1528 -64.8859 40.7914 -64.8859C39.43 -64.8859 38.3263 -63.7822 38.3263 -62.4208C38.3263 -61.0594 39.43 -59.9558 40.7914 -59.9558ZM67.907 -62.4208C67.907 -61.0594 66.8033 -59.9558 65.4419 -59.9558C64.0805 -59.9558 62.9769 -61.0594 62.9769 -62.4208C62.9769 -63.7822 64.0805 -64.8859 65.4419 -64.8859C66.8033 -64.8859 67.907 -63.7822 67.907 -62.4208ZM90.0924 -59.9558C91.4538 -59.9558 92.5574 -61.0594 92.5574 -62.4208C92.5574 -63.7822 91.4538 -64.8859 90.0924 -64.8859C88.731 -64.8859 87.6273 -63.7822 87.6273 -62.4208C87.6273 -61.0594 88.731 -59.9558 90.0924 -59.9558ZM117.208 -62.4208C117.208 -61.0594 116.104 -59.9558 114.743 -59.9558C113.381 -59.9558 112.278 -61.0594 112.278 -62.4208C112.278 -63.7822 113.381 -64.8859 114.743 -64.8859C116.104 -64.8859 117.208 -63.7822 117.208 -62.4208ZM139.393 -59.9558C140.755 -59.9558 141.858 -61.0594 141.858 -62.4208C141.858 -63.7822 140.755 -64.8859 139.393 -64.8859C138.032 -64.8859 136.928 -63.7822 136.928 -62.4208C136.928 -61.0594 138.032 -59.9558 139.393 -59.9558ZM166.509 -62.4208C166.509 -61.0594 165.405 -59.9558 164.044 -59.9558C162.682 -59.9558 161.579 -61.0594 161.579 -62.4208C161.579 -63.7822 162.682 -64.8859 164.044 -64.8859C165.405 -64.8859 166.509 -63.7822 166.509 -62.4208ZM188.694 -59.9558C190.056 -59.9558 191.159 -61.0594 191.159 -62.4208C191.159 -63.7822 190.056 -64.8859 188.694 -64.8859C187.333 -64.8859 186.229 -63.7822 186.229 -62.4208C186.229 -61.0594 187.333 -59.9558 188.694 -59.9558ZM215.81 -62.4208C215.81 -61.0594 214.706 -59.9558 213.345 -59.9558C211.983 -59.9558 210.88 -61.0594 210.88 -62.4208C210.88 -63.7822 211.983 -64.8859 213.345 -64.8859C214.706 -64.8859 215.81 -63.7822 215.81 -62.4208ZM235.53 -62.4208C235.53 -61.065 236.64 -59.9558 237.995 -59.9558V-64.8859C236.64 -64.8859 235.53 -63.7766 235.53 -62.4208ZM-57.8105 -40.2354C-56.4548 -40.2354 -55.3455 -39.1261 -55.3455 -37.7703C-55.3455 -36.4145 -56.4548 -35.3053 -57.8105 -35.3053V-40.2354ZM-33.1601 -35.3053C-31.7986 -35.3053 -30.695 -36.4089 -30.695 -37.7703C-30.695 -39.1317 -31.7986 -40.2354 -33.1601 -40.2354C-34.5215 -40.2354 -35.6251 -39.1317 -35.6251 -37.7703C-35.6251 -36.4089 -34.5215 -35.3053 -33.1601 -35.3053ZM-6.04449 -37.7703C-6.04449 -36.4089 -7.14813 -35.3053 -8.50954 -35.3053C-9.87095 -35.3053 -10.9746 -36.4089 -10.9746 -37.7703C-10.9746 -39.1317 -9.87095 -40.2354 -8.50954 -40.2354C-7.14813 -40.2354 -6.04449 -39.1317 -6.04449 -37.7703ZM16.1409 -35.3053C17.5023 -35.3053 18.6059 -36.4089 18.6059 -37.7703C18.6059 -39.1317 17.5023 -40.2354 16.1409 -40.2354C14.7795 -40.2354 13.6758 -39.1317 13.6758 -37.7703C13.6758 -36.4089 14.7795 -35.3053 16.1409 -35.3053ZM43.2565 -37.7703C43.2565 -36.4089 42.1528 -35.3053 40.7914 -35.3053C39.43 -35.3053 38.3263 -36.4089 38.3263 -37.7703C38.3263 -39.1317 39.43 -40.2354 40.7914 -40.2354C42.1528 -40.2354 43.2565 -39.1317 43.2565 -37.7703ZM65.4419 -35.3053C66.8033 -35.3053 67.907 -36.4089 67.907 -37.7703C67.907 -39.1317 66.8033 -40.2354 65.4419 -40.2354C64.0805 -40.2354 62.9769 -39.1317 62.9769 -37.7703C62.9769 -36.4089 64.0805 -35.3053 65.4419 -35.3053ZM92.5574 -37.7703C92.5574 -36.4089 91.4538 -35.3053 90.0924 -35.3053C88.731 -35.3053 87.6273 -36.4089 87.6273 -37.7703C87.6273 -39.1317 88.731 -40.2354 90.0924 -40.2354C91.4538 -40.2354 92.5574 -39.1317 92.5574 -37.7703ZM114.743 -35.3053C116.104 -35.3053 117.208 -36.4089 117.208 -37.7703C117.208 -39.1317 116.104 -40.2354 114.743 -40.2354C113.381 -40.2354 112.278 -39.1317 112.278 -37.7703C112.278 -36.4089 113.381 -35.3053 114.743 -35.3053ZM141.858 -37.7703C141.858 -36.4089 140.755 -35.3053 139.393 -35.3053C138.032 -35.3053 136.928 -36.4089 136.928 -37.7703C136.928 -39.1317 138.032 -40.2354 139.393 -40.2354C140.755 -40.2354 141.858 -39.1317 141.858 -37.7703ZM164.044 -35.3053C165.405 -35.3053 166.509 -36.4089 166.509 -37.7703C166.509 -39.1317 165.405 -40.2354 164.044 -40.2354C162.682 -40.2354 161.579 -39.1317 161.579 -37.7703C161.579 -36.4089 162.682 -35.3053 164.044 -35.3053ZM191.159 -37.7703C191.159 -36.4089 190.056 -35.3053 188.694 -35.3053C187.333 -35.3053 186.229 -36.4089 186.229 -37.7703C186.229 -39.1317 187.333 -40.2354 188.694 -40.2354C190.056 -40.2354 191.159 -39.1317 191.159 -37.7703ZM213.345 -35.3053C214.706 -35.3053 215.81 -36.4089 215.81 -37.7703C215.81 -39.1317 214.706 -40.2354 213.345 -40.2354C211.983 -40.2354 210.88 -39.1317 210.88 -37.7703C210.88 -36.4089 211.983 -35.3053 213.345 -35.3053ZM237.995 -35.3053C236.64 -35.3053 235.53 -36.4145 235.53 -37.7703C235.53 -39.1261 236.64 -40.2354 237.995 -40.2354V-35.3053ZM-55.3455 -13.1197C-55.3455 -14.4755 -56.4548 -15.5848 -57.8105 -15.5848V-10.6547C-56.4548 -10.6547 -55.3455 -11.7639 -55.3455 -13.1197ZM-30.695 -13.1197C-30.695 -11.7583 -31.7986 -10.6547 -33.1601 -10.6547C-34.5215 -10.6547 -35.6251 -11.7583 -35.6251 -13.1197C-35.6251 -14.4811 -34.5215 -15.5848 -33.1601 -15.5848C-31.7986 -15.5848 -30.695 -14.4811 -30.695 -13.1197ZM-8.50954 -10.6547C-7.14813 -10.6547 -6.04449 -11.7583 -6.04449 -13.1197C-6.04449 -14.4811 -7.14813 -15.5848 -8.50954 -15.5848C-9.87095 -15.5848 -10.9746 -14.4811 -10.9746 -13.1197C-10.9746 -11.7583 -9.87095 -10.6547 -8.50954 -10.6547ZM18.6059 -13.1197C18.6059 -11.7583 17.5023 -10.6547 16.1409 -10.6547C14.7795 -10.6547 13.6758 -11.7583 13.6758 -13.1197C13.6758 -14.4811 14.7795 -15.5848 16.1409 -15.5848C17.5023 -15.5848 18.6059 -14.4811 18.6059 -13.1197ZM40.7914 -10.6547C42.1528 -10.6547 43.2565 -11.7583 43.2565 -13.1197C43.2565 -14.4811 42.1528 -15.5848 40.7914 -15.5848C39.43 -15.5848 38.3263 -14.4811 38.3263 -13.1197C38.3263 -11.7583 39.43 -10.6547 40.7914 -10.6547ZM67.907 -13.1197C67.907 -11.7583 66.8033 -10.6547 65.4419 -10.6547C64.0805 -10.6547 62.9769 -11.7583 62.9769 -13.1197C62.9769 -14.4811 64.0805 -15.5848 65.4419 -15.5848C66.8033 -15.5848 67.907 -14.4811 67.907 -13.1197ZM90.0924 -10.6547C91.4538 -10.6547 92.5574 -11.7583 92.5574 -13.1197C92.5574 -14.4811 91.4538 -15.5848 90.0924 -15.5848C88.731 -15.5848 87.6273 -14.4811 87.6273 -13.1197C87.6273 -11.7583 88.731 -10.6547 90.0924 -10.6547ZM117.208 -13.1197C117.208 -11.7583 116.104 -10.6547 114.743 -10.6547C113.381 -10.6547 112.278 -11.7583 112.278 -13.1197C112.278 -14.4811 113.381 -15.5848 114.743 -15.5848C116.104 -15.5848 117.208 -14.4811 117.208 -13.1197ZM139.393 -10.6547C140.755 -10.6547 141.858 -11.7583 141.858 -13.1197C141.858 -14.4811 140.755 -15.5848 139.393 -15.5848C138.032 -15.5848 136.928 -14.4811 136.928 -13.1197C136.928 -11.7583 138.032 -10.6547 139.393 -10.6547ZM166.509 -13.1197C166.509 -11.7583 165.405 -10.6547 164.044 -10.6547C162.682 -10.6547 161.579 -11.7583 161.579 -13.1197C161.579 -14.4811 162.682 -15.5848 164.044 -15.5848C165.405 -15.5848 166.509 -14.4811 166.509 -13.1197ZM188.694 -10.6547C190.056 -10.6547 191.159 -11.7583 191.159 -13.1197C191.159 -14.4811 190.056 -15.5848 188.694 -15.5848C187.333 -15.5848 186.229 -14.4811 186.229 -13.1197C186.229 -11.7583 187.333 -10.6547 188.694 -10.6547ZM215.81 -13.1197C215.81 -11.7583 214.706 -10.6547 213.345 -10.6547C211.983 -10.6547 210.88 -11.7583 210.88 -13.1197C210.88 -14.4811 211.983 -15.5848 213.345 -15.5848C214.706 -15.5848 215.81 -14.4811 215.81 -13.1197ZM235.53 -13.1197C235.53 -11.7639 236.64 -10.6547 237.995 -10.6547V-15.5848C236.64 -15.5848 235.53 -14.4755 235.53 -13.1197ZM-57.8105 9.06557C-56.4548 9.06557 -55.3455 10.1749 -55.3455 11.5306C-55.3455 12.8864 -56.4548 13.9957 -57.8105 13.9957V9.06557ZM-33.1601 13.9957C-31.7986 13.9957 -30.695 12.8921 -30.695 11.5306C-30.695 10.1692 -31.7986 9.06557 -33.1601 9.06557C-34.5215 9.06557 -35.6251 10.1692 -35.6251 11.5306C-35.6251 12.8921 -34.5215 13.9957 -33.1601 13.9957ZM-6.04449 11.5306C-6.04449 12.8921 -7.14813 13.9957 -8.50954 13.9957C-9.87095 13.9957 -10.9746 12.8921 -10.9746 11.5306C-10.9746 10.1692 -9.87095 9.06557 -8.50954 9.06557C-7.14813 9.06557 -6.04449 10.1692 -6.04449 11.5306ZM16.1409 13.9957C17.5023 13.9957 18.6059 12.8921 18.6059 11.5306C18.6059 10.1692 17.5023 9.06557 16.1409 9.06557C14.7795 9.06557 13.6758 10.1692 13.6758 11.5306C13.6758 12.8921 14.7795 13.9957 16.1409 13.9957ZM43.2565 11.5306C43.2565 12.8921 42.1528 13.9957 40.7914 13.9957C39.43 13.9957 38.3263 12.8921 38.3263 11.5306C38.3263 10.1692 39.43 9.06557 40.7914 9.06557C42.1528 9.06557 43.2565 10.1692 43.2565 11.5306ZM65.4419 13.9957C66.8033 13.9957 67.907 12.8921 67.907 11.5306C67.907 10.1692 66.8033 9.06557 65.4419 9.06557C64.0805 9.06557 62.9769 10.1692 62.9769 11.5306C62.9769 12.8921 64.0805 13.9957 65.4419 13.9957ZM92.5574 11.5306C92.5574 12.8921 91.4538 13.9957 90.0924 13.9957C88.731 13.9957 87.6273 12.8921 87.6273 11.5306C87.6273 10.1692 88.731 9.06557 90.0924 9.06557C91.4538 9.06557 92.5574 10.1692 92.5574 11.5306ZM114.743 13.9957C116.104 13.9957 117.208 12.8921 117.208 11.5306C117.208 10.1692 116.104 9.06557 114.743 9.06557C113.381 9.06557 112.278 10.1692 112.278 11.5306C112.278 12.8921 113.381 13.9957 114.743 13.9957ZM141.858 11.5306C141.858 12.8921 140.755 13.9957 139.393 13.9957C138.032 13.9957 136.928 12.8921 136.928 11.5306C136.928 10.1692 138.032 9.06557 139.393 9.06557C140.755 9.06557 141.858 10.1692 141.858 11.5306ZM164.044 13.9957C165.405 13.9957 166.509 12.8921 166.509 11.5306C166.509 10.1692 165.405 9.06557 164.044 9.06557C162.682 9.06557 161.579 10.1692 161.579 11.5306C161.579 12.8921 162.682 13.9957 164.044 13.9957ZM191.159 11.5306C191.159 12.8921 190.056 13.9957 188.694 13.9957C187.333 13.9957 186.229 12.8921 186.229 11.5306C186.229 10.1692 187.333 9.06557 188.694 9.06557C190.056 9.06557 191.159 10.1692 191.159 11.5306ZM213.345 13.9957C214.706 13.9957 215.81 12.8921 215.81 11.5306C215.81 10.1692 214.706 9.06557 213.345 9.06557C211.983 9.06557 210.88 10.1692 210.88 11.5306C210.88 12.8921 211.983 13.9957 213.345 13.9957ZM237.995 13.9957C236.64 13.9957 235.53 12.8864 235.53 11.5306C235.53 10.1749 236.64 9.06557 237.995 9.06557V13.9957ZM-55.3455 36.1811C-55.3455 34.8254 -56.4548 33.7161 -57.8105 33.7161V38.6462C-56.4548 38.6462 -55.3455 37.5369 -55.3455 36.1811ZM-30.695 36.1811C-30.695 37.5425 -31.7986 38.6462 -33.1601 38.6462C-34.5215 38.6462 -35.6251 37.5425 -35.6251 36.1811C-35.6251 34.8197 -34.5215 33.7161 -33.1601 33.7161C-31.7986 33.7161 -30.695 34.8197 -30.695 36.1811ZM-8.50954 38.6462C-7.14813 38.6462 -6.04449 37.5425 -6.04449 36.1811C-6.04449 34.8197 -7.14813 33.7161 -8.50954 33.7161C-9.87095 33.7161 -10.9746 34.8197 -10.9746 36.1811C-10.9746 37.5425 -9.87095 38.6462 -8.50954 38.6462ZM18.6059 36.1811C18.6059 37.5425 17.5023 38.6462 16.1409 38.6462C14.7795 38.6462 13.6758 37.5425 13.6758 36.1811C13.6758 34.8197 14.7795 33.7161 16.1409 33.7161C17.5023 33.7161 18.6059 34.8197 18.6059 36.1811ZM40.7914 38.6462C42.1528 38.6462 43.2565 37.5425 43.2565 36.1811C43.2565 34.8197 42.1528 33.7161 40.7914 33.7161C39.43 33.7161 38.3263 34.8197 38.3263 36.1811C38.3263 37.5425 39.43 38.6462 40.7914 38.6462ZM67.907 36.1811C67.907 37.5425 66.8033 38.6462 65.4419 38.6462C64.0805 38.6462 62.9769 37.5425 62.9769 36.1811C62.9769 34.8197 64.0805 33.7161 65.4419 33.7161C66.8033 33.7161 67.907 34.8197 67.907 36.1811ZM90.0924 38.6462C91.4538 38.6462 92.5574 37.5425 92.5574 36.1811C92.5574 34.8197 91.4538 33.7161 90.0924 33.7161C88.731 33.7161 87.6273 34.8197 87.6273 36.1811C87.6273 37.5425 88.731 38.6462 90.0924 38.6462ZM117.208 36.1811C117.208 37.5425 116.104 38.6462 114.743 38.6462C113.381 38.6462 112.278 37.5425 112.278 36.1811C112.278 34.8197 113.381 33.7161 114.743 33.7161C116.104 33.7161 117.208 34.8197 117.208 36.1811ZM139.393 38.6462C140.755 38.6462 141.858 37.5425 141.858 36.1811C141.858 34.8197 140.755 33.7161 139.393 33.7161C138.032 33.7161 136.928 34.8197 136.928 36.1811C136.928 37.5425 138.032 38.6462 139.393 38.6462ZM166.509 36.1811C166.509 37.5425 165.405 38.6462 164.044 38.6462C162.682 38.6462 161.579 37.5425 161.579 36.1811C161.579 34.8197 162.682 33.7161 164.044 33.7161C165.405 33.7161 166.509 34.8197 166.509 36.1811ZM188.694 38.6462C190.056 38.6462 191.159 37.5425 191.159 36.1811C191.159 34.8197 190.056 33.7161 188.694 33.7161C187.333 33.7161 186.229 34.8197 186.229 36.1811C186.229 37.5425 187.333 38.6462 188.694 38.6462ZM215.81 36.1811C215.81 37.5425 214.706 38.6462 213.345 38.6462C211.983 38.6462 210.88 37.5425 210.88 36.1811C210.88 34.8197 211.983 33.7161 213.345 33.7161C214.706 33.7161 215.81 34.8197 215.81 36.1811ZM235.53 36.1811C235.53 37.5369 236.64 38.6462 237.995 38.6462V33.7161C236.64 33.7161 235.53 34.8254 235.53 36.1811ZM-57.8105 58.3667C-56.4548 58.3667 -55.3455 59.476 -55.3455 60.8318C-55.3455 62.1875 -56.4548 63.2968 -57.8105 63.2968V58.3667ZM-33.1601 63.2968C-31.7986 63.2968 -30.695 62.1932 -30.695 60.8318C-30.695 59.4703 -31.7986 58.3667 -33.1601 58.3667C-34.5215 58.3667 -35.6251 59.4703 -35.6251 60.8318C-35.6251 62.1932 -34.5215 63.2968 -33.1601 63.2968ZM-6.04449 60.8318C-6.04449 62.1932 -7.14813 63.2968 -8.50954 63.2968C-9.87095 63.2968 -10.9746 62.1932 -10.9746 60.8318C-10.9746 59.4703 -9.87095 58.3667 -8.50954 58.3667C-7.14813 58.3667 -6.04449 59.4703 -6.04449 60.8318ZM16.1409 63.2968C17.5023 63.2968 18.6059 62.1932 18.6059 60.8318C18.6059 59.4703 17.5023 58.3667 16.1409 58.3667C14.7795 58.3667 13.6758 59.4703 13.6758 60.8318C13.6758 62.1932 14.7795 63.2968 16.1409 63.2968ZM43.2565 60.8318C43.2565 62.1932 42.1528 63.2968 40.7914 63.2968C39.43 63.2968 38.3263 62.1932 38.3263 60.8318C38.3263 59.4703 39.43 58.3667 40.7914 58.3667C42.1528 58.3667 43.2565 59.4703 43.2565 60.8318ZM65.4419 63.2968C66.8033 63.2968 67.907 62.1932 67.907 60.8318C67.907 59.4703 66.8033 58.3667 65.4419 58.3667C64.0805 58.3667 62.9769 59.4703 62.9769 60.8318C62.9769 62.1932 64.0805 63.2968 65.4419 63.2968ZM92.5574 60.8318C92.5574 62.1932 91.4538 63.2968 90.0924 63.2968C88.731 63.2968 87.6273 62.1932 87.6273 60.8318C87.6273 59.4703 88.731 58.3667 90.0924 58.3667C91.4538 58.3667 92.5574 59.4703 92.5574 60.8318ZM114.743 63.2968C116.104 63.2968 117.208 62.1932 117.208 60.8318C117.208 59.4703 116.104 58.3667 114.743 58.3667C113.381 58.3667 112.278 59.4703 112.278 60.8318C112.278 62.1932 113.381 63.2968 114.743 63.2968ZM141.858 60.8318C141.858 62.1932 140.755 63.2968 139.393 63.2968C138.032 63.2968 136.928 62.1932 136.928 60.8318C136.928 59.4703 138.032 58.3667 139.393 58.3667C140.755 58.3667 141.858 59.4703 141.858 60.8318ZM164.044 63.2968C165.405 63.2968 166.509 62.1932 166.509 60.8318C166.509 59.4703 165.405 58.3667 164.044 58.3667C162.682 58.3667 161.579 59.4703 161.579 60.8318C161.579 62.1932 162.682 63.2968 164.044 63.2968ZM191.159 60.8318C191.159 62.1932 190.056 63.2968 188.694 63.2968C187.333 63.2968 186.229 62.1932 186.229 60.8318C186.229 59.4703 187.333 58.3667 188.694 58.3667C190.056 58.3667 191.159 59.4703 191.159 60.8318ZM213.345 63.2968C214.706 63.2968 215.81 62.1932 215.81 60.8318C215.81 59.4703 214.706 58.3667 213.345 58.3667C211.983 58.3667 210.88 59.4703 210.88 60.8318C210.88 62.1932 211.983 63.2968 213.345 63.2968ZM237.995 63.2968C236.64 63.2968 235.53 62.1875 235.53 60.8318C235.53 59.476 236.64 58.3667 237.995 58.3667V63.2968ZM-55.3455 85.4821C-55.3455 84.1263 -56.4548 83.0171 -57.8105 83.0171V87.9472C-56.4548 87.9472 -55.3455 86.8379 -55.3455 85.4821ZM-30.695 85.4821C-30.695 86.8436 -31.7986 87.9472 -33.1601 87.9472C-34.5215 87.9472 -35.6251 86.8436 -35.6251 85.4821C-35.6251 84.1207 -34.5215 83.0171 -33.1601 83.0171C-31.7986 83.0171 -30.695 84.1207 -30.695 85.4821ZM-8.50954 87.9472C-7.14813 87.9472 -6.04449 86.8436 -6.04449 85.4821C-6.04449 84.1207 -7.14813 83.0171 -8.50954 83.0171C-9.87095 83.0171 -10.9746 84.1207 -10.9746 85.4821C-10.9746 86.8436 -9.87095 87.9472 -8.50954 87.9472ZM18.6059 85.4821C18.6059 86.8436 17.5023 87.9472 16.1409 87.9472C14.7795 87.9472 13.6758 86.8436 13.6758 85.4821C13.6758 84.1207 14.7795 83.0171 16.1409 83.0171C17.5023 83.0171 18.6059 84.1207 18.6059 85.4821ZM40.7914 87.9472C42.1528 87.9472 43.2565 86.8436 43.2565 85.4821C43.2565 84.1207 42.1528 83.0171 40.7914 83.0171C39.43 83.0171 38.3263 84.1207 38.3263 85.4821C38.3263 86.8436 39.43 87.9472 40.7914 87.9472ZM67.907 85.4821C67.907 86.8436 66.8033 87.9472 65.4419 87.9472C64.0805 87.9472 62.9769 86.8436 62.9769 85.4821C62.9769 84.1207 64.0805 83.0171 65.4419 83.0171C66.8033 83.0171 67.907 84.1207 67.907 85.4821ZM90.0924 87.9472C91.4538 87.9472 92.5574 86.8436 92.5574 85.4821C92.5574 84.1207 91.4538 83.0171 90.0924 83.0171C88.731 83.0171 87.6273 84.1207 87.6273 85.4821C87.6273 86.8436 88.731 87.9472 90.0924 87.9472ZM117.208 85.4821C117.208 86.8436 116.104 87.9472 114.743 87.9472C113.381 87.9472 112.278 86.8436 112.278 85.4821C112.278 84.1207 113.381 83.0171 114.743 83.0171C116.104 83.0171 117.208 84.1207 117.208 85.4821ZM139.393 87.9472C140.755 87.9472 141.858 86.8436 141.858 85.4821C141.858 84.1207 140.755 83.0171 139.393 83.0171C138.032 83.0171 136.928 84.1207 136.928 85.4821C136.928 86.8436 138.032 87.9472 139.393 87.9472ZM166.509 85.4821C166.509 86.8436 165.405 87.9472 164.044 87.9472C162.682 87.9472 161.579 86.8436 161.579 85.4821C161.579 84.1207 162.682 83.0171 164.044 83.0171C165.405 83.0171 166.509 84.1207 166.509 85.4821ZM188.694 87.9472C190.056 87.9472 191.159 86.8436 191.159 85.4821C191.159 84.1207 190.056 83.0171 188.694 83.0171C187.333 83.0171 186.229 84.1207 186.229 85.4821C186.229 86.8436 187.333 87.9472 188.694 87.9472ZM215.81 85.4821C215.81 86.8436 214.706 87.9472 213.345 87.9472C211.983 87.9472 210.88 86.8436 210.88 85.4821C210.88 84.1207 211.983 83.0171 213.345 83.0171C214.706 83.0171 215.81 84.1207 215.81 85.4821ZM235.53 85.4821C235.53 86.8379 236.64 87.9472 237.995 87.9472V83.0171C236.64 83.0171 235.53 84.1263 235.53 85.4821ZM-57.8105 107.667C-56.4548 107.667 -55.3455 108.777 -55.3455 110.133C-55.3455 111.488 -56.4548 112.598 -57.8105 112.598V107.667ZM-33.1601 112.598C-31.7986 112.598 -30.695 111.494 -30.695 110.133C-30.695 108.771 -31.7986 107.667 -33.1601 107.667C-34.5215 107.667 -35.6251 108.771 -35.6251 110.133C-35.6251 111.494 -34.5215 112.598 -33.1601 112.598ZM-6.04449 110.133C-6.04449 111.494 -7.14813 112.598 -8.50954 112.598C-9.87095 112.598 -10.9746 111.494 -10.9746 110.133C-10.9746 108.771 -9.87095 107.667 -8.50954 107.667C-7.14813 107.667 -6.04449 108.771 -6.04449 110.133ZM16.1409 112.598C17.5023 112.598 18.6059 111.494 18.6059 110.133C18.6059 108.771 17.5023 107.667 16.1409 107.667C14.7795 107.667 13.6758 108.771 13.6758 110.133C13.6758 111.494 14.7795 112.598 16.1409 112.598ZM43.2565 110.133C43.2565 111.494 42.1528 112.598 40.7914 112.598C39.43 112.598 38.3263 111.494 38.3263 110.133C38.3263 108.771 39.43 107.667 40.7914 107.667C42.1528 107.667 43.2565 108.771 43.2565 110.133ZM65.4419 112.598C66.8033 112.598 67.907 111.494 67.907 110.133C67.907 108.771 66.8033 107.667 65.4419 107.667C64.0805 107.667 62.9769 108.771 62.9769 110.133C62.9769 111.494 64.0805 112.598 65.4419 112.598ZM92.5574 110.133C92.5574 111.494 91.4538 112.598 90.0924 112.598C88.731 112.598 87.6273 111.494 87.6273 110.133C87.6273 108.771 88.731 107.667 90.0924 107.667C91.4538 107.667 92.5574 108.771 92.5574 110.133ZM114.743 112.598C116.104 112.598 117.208 111.494 117.208 110.133C117.208 108.771 116.104 107.667 114.743 107.667C113.381 107.667 112.278 108.771 112.278 110.133C112.278 111.494 113.381 112.598 114.743 112.598ZM141.858 110.133C141.858 111.494 140.755 112.598 139.393 112.598C138.032 112.598 136.928 111.494 136.928 110.133C136.928 108.771 138.032 107.667 139.393 107.667C140.755 107.667 141.858 108.771 141.858 110.133ZM164.044 112.598C165.405 112.598 166.509 111.494 166.509 110.133C166.509 108.771 165.405 107.667 164.044 107.667C162.682 107.667 161.579 108.771 161.579 110.133C161.579 111.494 162.682 112.598 164.044 112.598ZM191.159 110.133C191.159 111.494 190.056 112.598 188.694 112.598C187.333 112.598 186.229 111.494 186.229 110.133C186.229 108.771 187.333 107.667 188.694 107.667C190.056 107.667 191.159 108.771 191.159 110.133ZM213.345 112.598C214.706 112.598 215.81 111.494 215.81 110.133C215.81 108.771 214.706 107.667 213.345 107.667C211.983 107.667 210.88 108.771 210.88 110.133C210.88 111.494 211.983 112.598 213.345 112.598ZM237.995 112.598C236.64 112.598 235.53 111.488 235.53 110.133C235.53 108.777 236.64 107.667 237.995 107.667V112.598ZM-55.3455 134.783C-55.3455 133.427 -56.4548 132.318 -57.8105 132.318V137.248C-56.4548 137.248 -55.3455 136.139 -55.3455 134.783ZM-30.695 134.783C-30.695 136.145 -31.7986 137.248 -33.1601 137.248C-34.5215 137.248 -35.6251 136.145 -35.6251 134.783C-35.6251 133.422 -34.5215 132.318 -33.1601 132.318C-31.7986 132.318 -30.695 133.422 -30.695 134.783ZM-8.50954 137.248C-7.14813 137.248 -6.04449 136.145 -6.04449 134.783C-6.04449 133.422 -7.14813 132.318 -8.50954 132.318C-9.87095 132.318 -10.9746 133.422 -10.9746 134.783C-10.9746 136.145 -9.87095 137.248 -8.50954 137.248ZM18.6059 134.783C18.6059 136.145 17.5023 137.248 16.1409 137.248C14.7795 137.248 13.6758 136.145 13.6758 134.783C13.6758 133.422 14.7795 132.318 16.1409 132.318C17.5023 132.318 18.6059 133.422 18.6059 134.783ZM40.7914 137.248C42.1528 137.248 43.2565 136.145 43.2565 134.783C43.2565 133.422 42.1528 132.318 40.7914 132.318C39.43 132.318 38.3263 133.422 38.3263 134.783C38.3263 136.145 39.43 137.248 40.7914 137.248ZM67.907 134.783C67.907 136.145 66.8033 137.248 65.4419 137.248C64.0805 137.248 62.9769 136.145 62.9769 134.783C62.9769 133.422 64.0805 132.318 65.4419 132.318C66.8033 132.318 67.907 133.422 67.907 134.783ZM90.0924 137.248C91.4538 137.248 92.5574 136.145 92.5574 134.783C92.5574 133.422 91.4538 132.318 90.0924 132.318C88.731 132.318 87.6273 133.422 87.6273 134.783C87.6273 136.145 88.731 137.248 90.0924 137.248ZM117.208 134.783C117.208 136.145 116.104 137.248 114.743 137.248C113.381 137.248 112.278 136.145 112.278 134.783C112.278 133.422 113.381 132.318 114.743 132.318C116.104 132.318 117.208 133.422 117.208 134.783ZM139.393 137.248C140.755 137.248 141.858 136.145 141.858 134.783C141.858 133.422 140.755 132.318 139.393 132.318C138.032 132.318 136.928 133.422 136.928 134.783C136.928 136.145 138.032 137.248 139.393 137.248ZM166.509 134.783C166.509 136.145 165.405 137.248 164.044 137.248C162.682 137.248 161.579 136.145 161.579 134.783C161.579 133.422 162.682 132.318 164.044 132.318C165.405 132.318 166.509 133.422 166.509 134.783ZM188.694 137.248C190.056 137.248 191.159 136.145 191.159 134.783C191.159 133.422 190.056 132.318 188.694 132.318C187.333 132.318 186.229 133.422 186.229 134.783C186.229 136.145 187.333 137.248 188.694 137.248ZM215.81 134.783C215.81 136.145 214.706 137.248 213.345 137.248C211.983 137.248 210.88 136.145 210.88 134.783C210.88 133.422 211.983 132.318 213.345 132.318C214.706 132.318 215.81 133.422 215.81 134.783ZM235.53 134.783C235.53 136.139 236.64 137.248 237.995 137.248V132.318C236.64 132.318 235.53 133.427 235.53 134.783ZM-57.8105 156.969C-56.4548 156.969 -55.3455 158.078 -55.3455 159.434C-55.3455 160.789 -56.4548 161.899 -57.8105 161.899V156.969ZM-33.1601 161.899C-31.7986 161.899 -30.695 160.795 -30.695 159.434C-30.695 158.072 -31.7986 156.969 -33.1601 156.969C-34.5215 156.969 -35.6251 158.072 -35.6251 159.434C-35.6251 160.795 -34.5215 161.899 -33.1601 161.899ZM-6.04449 159.434C-6.04449 160.795 -7.14813 161.899 -8.50954 161.899C-9.87095 161.899 -10.9746 160.795 -10.9746 159.434C-10.9746 158.072 -9.87095 156.969 -8.50954 156.969C-7.14813 156.969 -6.04449 158.072 -6.04449 159.434ZM16.1409 161.899C17.5023 161.899 18.6059 160.795 18.6059 159.434C18.6059 158.072 17.5023 156.969 16.1409 156.969C14.7795 156.969 13.6758 158.072 13.6758 159.434C13.6758 160.795 14.7795 161.899 16.1409 161.899ZM43.2565 159.434C43.2565 160.795 42.1528 161.899 40.7914 161.899C39.43 161.899 38.3263 160.795 38.3263 159.434C38.3263 158.072 39.43 156.969 40.7914 156.969C42.1528 156.969 43.2565 158.072 43.2565 159.434ZM65.4419 161.899C66.8033 161.899 67.907 160.795 67.907 159.434C67.907 158.072 66.8033 156.969 65.4419 156.969C64.0805 156.969 62.9769 158.072 62.9769 159.434C62.9769 160.795 64.0805 161.899 65.4419 161.899ZM92.5574 159.434C92.5574 160.795 91.4538 161.899 90.0924 161.899C88.731 161.899 87.6273 160.795 87.6273 159.434C87.6273 158.072 88.731 156.969 90.0924 156.969C91.4538 156.969 92.5574 158.072 92.5574 159.434ZM114.743 161.899C116.104 161.899 117.208 160.795 117.208 159.434C117.208 158.072 116.104 156.969 114.743 156.969C113.381 156.969 112.278 158.072 112.278 159.434C112.278 160.795 113.381 161.899 114.743 161.899ZM141.858 159.434C141.858 160.795 140.755 161.899 139.393 161.899C138.032 161.899 136.928 160.795 136.928 159.434C136.928 158.072 138.032 156.969 139.393 156.969C140.755 156.969 141.858 158.072 141.858 159.434ZM164.044 161.899C165.405 161.899 166.509 160.795 166.509 159.434C166.509 158.072 165.405 156.969 164.044 156.969C162.682 156.969 161.579 158.072 161.579 159.434C161.579 160.795 162.682 161.899 164.044 161.899ZM191.159 159.434C191.159 160.795 190.056 161.899 188.694 161.899C187.333 161.899 186.229 160.795 186.229 159.434C186.229 158.072 187.333 156.969 188.694 156.969C190.056 156.969 191.159 158.072 191.159 159.434ZM213.345 161.899C214.706 161.899 215.81 160.795 215.81 159.434C215.81 158.072 214.706 156.969 213.345 156.969C211.983 156.969 210.88 158.072 210.88 159.434C210.88 160.795 211.983 161.899 213.345 161.899ZM237.995 161.899C236.64 161.899 235.53 160.789 235.53 159.434C235.53 158.078 236.64 156.969 237.995 156.969V161.899ZM-55.3455 184.084C-55.3455 182.728 -56.4548 181.619 -57.8105 181.619V186.549C-56.4548 186.549 -55.3455 185.44 -55.3455 184.084ZM-30.695 184.084C-30.695 185.446 -31.7986 186.549 -33.1601 186.549C-34.5215 186.549 -35.6251 185.446 -35.6251 184.084C-35.6251 182.723 -34.5215 181.619 -33.1601 181.619C-31.7986 181.619 -30.695 182.723 -30.695 184.084ZM-8.50954 186.549C-7.14813 186.549 -6.04449 185.446 -6.04449 184.084C-6.04449 182.723 -7.14813 181.619 -8.50954 181.619C-9.87095 181.619 -10.9746 182.723 -10.9746 184.084C-10.9746 185.446 -9.87095 186.549 -8.50954 186.549ZM18.6059 184.084C18.6059 185.446 17.5023 186.549 16.1409 186.549C14.7795 186.549 13.6758 185.446 13.6758 184.084C13.6758 182.723 14.7795 181.619 16.1409 181.619C17.5023 181.619 18.6059 182.723 18.6059 184.084ZM40.7914 186.549C42.1528 186.549 43.2565 185.446 43.2565 184.084C43.2565 182.723 42.1528 181.619 40.7914 181.619C39.43 181.619 38.3263 182.723 38.3263 184.084C38.3263 185.446 39.43 186.549 40.7914 186.549ZM67.907 184.084C67.907 185.446 66.8033 186.549 65.4419 186.549C64.0805 186.549 62.9769 185.446 62.9769 184.084C62.9769 182.723 64.0805 181.619 65.4419 181.619C66.8033 181.619 67.907 182.723 67.907 184.084ZM90.0924 186.549C91.4538 186.549 92.5574 185.446 92.5574 184.084C92.5574 182.723 91.4538 181.619 90.0924 181.619C88.731 181.619 87.6273 182.723 87.6273 184.084C87.6273 185.446 88.731 186.549 90.0924 186.549ZM117.208 184.084C117.208 185.446 116.104 186.549 114.743 186.549C113.381 186.549 112.278 185.446 112.278 184.084C112.278 182.723 113.381 181.619 114.743 181.619C116.104 181.619 117.208 182.723 117.208 184.084ZM139.393 186.549C140.755 186.549 141.858 185.446 141.858 184.084C141.858 182.723 140.755 181.619 139.393 181.619C138.032 181.619 136.928 182.723 136.928 184.084C136.928 185.446 138.032 186.549 139.393 186.549ZM166.509 184.084C166.509 185.446 165.405 186.549 164.044 186.549C162.682 186.549 161.579 185.446 161.579 184.084C161.579 182.723 162.682 181.619 164.044 181.619C165.405 181.619 166.509 182.723 166.509 184.084ZM188.694 186.549C190.056 186.549 191.159 185.446 191.159 184.084C191.159 182.723 190.056 181.619 188.694 181.619C187.333 181.619 186.229 182.723 186.229 184.084C186.229 185.446 187.333 186.549 188.694 186.549ZM215.81 184.084C215.81 185.446 214.706 186.549 213.345 186.549C211.983 186.549 210.88 185.446 210.88 184.084C210.88 182.723 211.983 181.619 213.345 181.619C214.706 181.619 215.81 182.723 215.81 184.084ZM235.53 184.084C235.53 185.44 236.64 186.549 237.995 186.549V181.619C236.64 181.619 235.53 182.728 235.53 184.084ZM-57.8105 208.735V206.27C-56.4548 206.27 -55.3455 207.379 -55.3455 208.735H-57.8105ZM-33.1601 206.27C-34.5158 206.27 -35.6251 207.379 -35.6251 208.735H-30.695C-30.695 207.379 -31.8043 206.27 -33.1601 206.27ZM-10.9746 208.735C-10.9746 207.379 -9.86532 206.27 -8.50954 206.27C-7.15376 206.27 -6.04449 207.379 -6.04449 208.735H-10.9746ZM16.1409 206.27C14.7851 206.27 13.6758 207.379 13.6758 208.735H18.6059C18.6059 207.379 17.4967 206.27 16.1409 206.27ZM38.3263 208.735C38.3263 207.379 39.4356 206.27 40.7914 206.27C42.1472 206.27 43.2565 207.379 43.2565 208.735H38.3263ZM65.4419 206.27C64.0861 206.27 62.9769 207.379 62.9769 208.735H67.907C67.907 207.379 66.7977 206.27 65.4419 206.27ZM87.6273 208.735C87.6273 207.379 88.7366 206.27 90.0924 206.27C91.4481 206.27 92.5574 207.379 92.5574 208.735H87.6273ZM114.743 206.27C113.387 206.27 112.278 207.379 112.278 208.735H117.208C117.208 207.379 116.099 206.27 114.743 206.27ZM136.928 208.735C136.928 207.379 138.038 206.27 139.393 206.27C140.749 206.27 141.858 207.379 141.858 208.735H136.928ZM164.044 206.27C162.688 206.27 161.579 207.379 161.579 208.735H166.509C166.509 207.379 165.4 206.27 164.044 206.27ZM186.229 208.735C186.229 207.379 187.339 206.27 188.694 206.27C190.05 206.27 191.159 207.379 191.159 208.735H186.229ZM213.345 206.27C211.989 206.27 210.88 207.379 210.88 208.735H215.81C215.81 207.379 214.701 206.27 213.345 206.27ZM235.53 208.735C235.53 207.379 236.64 206.27 237.995 206.27V208.735H235.53Z" fill="#E9B194"/>
</g>
</svg>
