<svg width="198" height="312" viewBox="0 0 198 312" fill="none" xmlns="http://www.w3.org/2000/svg">
<mask id="mask0" mask-type="alpha" maskUnits="userSpaceOnUse" x="92" y="135" width="177" height="177">
<circle cx="180.5" cy="223.5" r="88.5" fill="#C4C4C4"/>
</mask>
<g mask="url(#mask0)">
<path fill-rule="evenodd" clip-rule="evenodd" d="M66.6655 62.3037H64.6074V64.3618C65.7394 64.3618 66.6655 63.4357 66.6655 62.3037ZM85.1882 64.3618C86.3202 64.3618 87.2463 63.4357 87.2463 62.3037H83.1302C83.1302 63.4357 84.0563 64.3618 85.1882 64.3618ZM107.827 62.3037C107.827 63.4357 106.901 64.3618 105.769 64.3618C104.637 64.3618 103.711 63.4357 103.711 62.3037H107.827ZM126.35 64.3618C127.482 64.3618 128.408 63.4357 128.408 62.3037H124.292C124.292 63.4357 125.218 64.3618 126.35 64.3618ZM148.989 62.3037C148.989 63.4357 148.063 64.3618 146.931 64.3618C145.799 64.3618 144.873 63.4357 144.873 62.3037H148.989ZM167.512 64.3618C168.644 64.3618 169.57 63.4357 169.57 62.3037H165.454C165.454 63.4357 166.38 64.3618 167.512 64.3618ZM190.151 62.3037C190.151 63.4357 189.224 64.3618 188.092 64.3618C186.961 64.3618 186.034 63.4357 186.034 62.3037H190.151ZM208.673 64.3618C209.805 64.3618 210.731 63.4357 210.731 62.3037H206.615C206.615 63.4357 207.541 64.3618 208.673 64.3618ZM231.312 62.3037C231.312 63.4357 230.386 64.3618 229.254 64.3618C228.122 64.3618 227.196 63.4357 227.196 62.3037H231.312ZM249.835 64.3618C250.967 64.3618 251.893 63.4357 251.893 62.3037H247.777C247.777 63.4357 248.703 64.3618 249.835 64.3618ZM272.474 62.3037C272.474 63.4357 271.548 64.3618 270.416 64.3618C269.284 64.3618 268.358 63.4357 268.358 62.3037H272.474ZM290.997 64.3618C292.129 64.3618 293.055 63.4357 293.055 62.3037H288.938C288.938 63.4357 289.865 64.3618 290.997 64.3618ZM311.577 62.3037V64.3618C310.445 64.3618 309.519 63.4357 309.519 62.3037H311.577ZM66.6655 82.8845C66.6655 81.7526 65.7394 80.8265 64.6074 80.8265V84.9426C65.7394 84.9426 66.6655 84.0165 66.6655 82.8845ZM87.2463 82.8845C87.2463 84.0212 86.3249 84.9426 85.1882 84.9426C84.0516 84.9426 83.1302 84.0212 83.1302 82.8845C83.1302 81.7479 84.0516 80.8265 85.1882 80.8265C86.3249 80.8265 87.2463 81.7479 87.2463 82.8845ZM105.769 84.9426C106.906 84.9426 107.827 84.0212 107.827 82.8845C107.827 81.7479 106.906 80.8265 105.769 80.8265C104.632 80.8265 103.711 81.7479 103.711 82.8845C103.711 84.0212 104.632 84.9426 105.769 84.9426ZM128.408 82.8845C128.408 84.0212 127.487 84.9426 126.35 84.9426C125.213 84.9426 124.292 84.0212 124.292 82.8845C124.292 81.7479 125.213 80.8265 126.35 80.8265C127.487 80.8265 128.408 81.7479 128.408 82.8845ZM146.931 84.9426C148.067 84.9426 148.989 84.0212 148.989 82.8845C148.989 81.7479 148.067 80.8265 146.931 80.8265C145.794 80.8265 144.873 81.7479 144.873 82.8845C144.873 84.0212 145.794 84.9426 146.931 84.9426ZM169.57 82.8845C169.57 84.0212 168.648 84.9426 167.512 84.9426C166.375 84.9426 165.454 84.0212 165.454 82.8845C165.454 81.7479 166.375 80.8265 167.512 80.8265C168.648 80.8265 169.57 81.7479 169.57 82.8845ZM188.092 84.9426C189.229 84.9426 190.151 84.0212 190.151 82.8845C190.151 81.7479 189.229 80.8265 188.092 80.8265C186.956 80.8265 186.034 81.7479 186.034 82.8845C186.034 84.0212 186.956 84.9426 188.092 84.9426ZM210.731 82.8845C210.731 84.0212 209.81 84.9426 208.673 84.9426C207.537 84.9426 206.615 84.0212 206.615 82.8845C206.615 81.7479 207.537 80.8265 208.673 80.8265C209.81 80.8265 210.731 81.7479 210.731 82.8845ZM229.254 84.9426C230.391 84.9426 231.312 84.0212 231.312 82.8845C231.312 81.7479 230.391 80.8265 229.254 80.8265C228.117 80.8265 227.196 81.7479 227.196 82.8845C227.196 84.0212 228.117 84.9426 229.254 84.9426ZM251.893 82.8845C251.893 84.0212 250.972 84.9426 249.835 84.9426C248.698 84.9426 247.777 84.0212 247.777 82.8845C247.777 81.7479 248.698 80.8265 249.835 80.8265C250.972 80.8265 251.893 81.7479 251.893 82.8845ZM270.416 84.9426C271.552 84.9426 272.474 84.0212 272.474 82.8845C272.474 81.7479 271.552 80.8265 270.416 80.8265C269.279 80.8265 268.358 81.7479 268.358 82.8845C268.358 84.0212 269.279 84.9426 270.416 84.9426ZM293.055 82.8845C293.055 84.0212 292.133 84.9426 290.997 84.9426C289.86 84.9426 288.938 84.0212 288.938 82.8845C288.938 81.7479 289.86 80.8265 290.997 80.8265C292.133 80.8265 293.055 81.7479 293.055 82.8845ZM309.519 82.8845C309.519 84.0165 310.445 84.9426 311.577 84.9426V80.8265C310.445 80.8265 309.519 81.7526 309.519 82.8845ZM64.6074 101.407C65.7394 101.407 66.6655 102.333 66.6655 103.465C66.6655 104.597 65.7394 105.523 64.6074 105.523V101.407ZM85.1882 105.523C86.3249 105.523 87.2463 104.602 87.2463 103.465C87.2463 102.329 86.3249 101.407 85.1882 101.407C84.0516 101.407 83.1302 102.329 83.1302 103.465C83.1302 104.602 84.0516 105.523 85.1882 105.523ZM107.827 103.465C107.827 104.602 106.906 105.523 105.769 105.523C104.632 105.523 103.711 104.602 103.711 103.465C103.711 102.329 104.632 101.407 105.769 101.407C106.906 101.407 107.827 102.329 107.827 103.465ZM126.35 105.523C127.487 105.523 128.408 104.602 128.408 103.465C128.408 102.329 127.487 101.407 126.35 101.407C125.213 101.407 124.292 102.329 124.292 103.465C124.292 104.602 125.213 105.523 126.35 105.523ZM148.989 103.465C148.989 104.602 148.067 105.523 146.931 105.523C145.794 105.523 144.873 104.602 144.873 103.465C144.873 102.329 145.794 101.407 146.931 101.407C148.067 101.407 148.989 102.329 148.989 103.465ZM167.512 105.523C168.648 105.523 169.57 104.602 169.57 103.465C169.57 102.329 168.648 101.407 167.512 101.407C166.375 101.407 165.454 102.329 165.454 103.465C165.454 104.602 166.375 105.523 167.512 105.523ZM190.151 103.465C190.151 104.602 189.229 105.523 188.092 105.523C186.956 105.523 186.034 104.602 186.034 103.465C186.034 102.329 186.956 101.407 188.092 101.407C189.229 101.407 190.151 102.329 190.151 103.465ZM208.673 105.523C209.81 105.523 210.731 104.602 210.731 103.465C210.731 102.329 209.81 101.407 208.673 101.407C207.537 101.407 206.615 102.329 206.615 103.465C206.615 104.602 207.537 105.523 208.673 105.523ZM231.312 103.465C231.312 104.602 230.391 105.523 229.254 105.523C228.117 105.523 227.196 104.602 227.196 103.465C227.196 102.329 228.117 101.407 229.254 101.407C230.391 101.407 231.312 102.329 231.312 103.465ZM249.835 105.523C250.972 105.523 251.893 104.602 251.893 103.465C251.893 102.329 250.972 101.407 249.835 101.407C248.698 101.407 247.777 102.329 247.777 103.465C247.777 104.602 248.698 105.523 249.835 105.523ZM272.474 103.465C272.474 104.602 271.552 105.523 270.416 105.523C269.279 105.523 268.358 104.602 268.358 103.465C268.358 102.329 269.279 101.407 270.416 101.407C271.552 101.407 272.474 102.329 272.474 103.465ZM290.997 105.523C292.133 105.523 293.055 104.602 293.055 103.465C293.055 102.329 292.133 101.407 290.997 101.407C289.86 101.407 288.938 102.329 288.938 103.465C288.938 104.602 289.86 105.523 290.997 105.523ZM311.577 105.523C310.445 105.523 309.519 104.597 309.519 103.465C309.519 102.333 310.445 101.407 311.577 101.407V105.523ZM66.6655 124.046C66.6655 122.914 65.7394 121.988 64.6074 121.988V126.104C65.7394 126.104 66.6655 125.178 66.6655 124.046ZM87.2463 124.046C87.2463 125.183 86.3249 126.104 85.1882 126.104C84.0516 126.104 83.1302 125.183 83.1302 124.046C83.1302 122.91 84.0516 121.988 85.1882 121.988C86.3249 121.988 87.2463 122.91 87.2463 124.046ZM105.769 126.104C106.906 126.104 107.827 125.183 107.827 124.046C107.827 122.91 106.906 121.988 105.769 121.988C104.632 121.988 103.711 122.91 103.711 124.046C103.711 125.183 104.632 126.104 105.769 126.104ZM128.408 124.046C128.408 125.183 127.487 126.104 126.35 126.104C125.213 126.104 124.292 125.183 124.292 124.046C124.292 122.91 125.213 121.988 126.35 121.988C127.487 121.988 128.408 122.91 128.408 124.046ZM146.931 126.104C148.067 126.104 148.989 125.183 148.989 124.046C148.989 122.91 148.067 121.988 146.931 121.988C145.794 121.988 144.873 122.91 144.873 124.046C144.873 125.183 145.794 126.104 146.931 126.104ZM169.57 124.046C169.57 125.183 168.648 126.104 167.512 126.104C166.375 126.104 165.454 125.183 165.454 124.046C165.454 122.91 166.375 121.988 167.512 121.988C168.648 121.988 169.57 122.91 169.57 124.046ZM188.092 126.104C189.229 126.104 190.151 125.183 190.151 124.046C190.151 122.91 189.229 121.988 188.092 121.988C186.956 121.988 186.034 122.91 186.034 124.046C186.034 125.183 186.956 126.104 188.092 126.104ZM210.731 124.046C210.731 125.183 209.81 126.104 208.673 126.104C207.537 126.104 206.615 125.183 206.615 124.046C206.615 122.91 207.537 121.988 208.673 121.988C209.81 121.988 210.731 122.91 210.731 124.046ZM229.254 126.104C230.391 126.104 231.312 125.183 231.312 124.046C231.312 122.91 230.391 121.988 229.254 121.988C228.117 121.988 227.196 122.91 227.196 124.046C227.196 125.183 228.117 126.104 229.254 126.104ZM251.893 124.046C251.893 125.183 250.972 126.104 249.835 126.104C248.698 126.104 247.777 125.183 247.777 124.046C247.777 122.91 248.698 121.988 249.835 121.988C250.972 121.988 251.893 122.91 251.893 124.046ZM270.416 126.104C271.552 126.104 272.474 125.183 272.474 124.046C272.474 122.91 271.552 121.988 270.416 121.988C269.279 121.988 268.358 122.91 268.358 124.046C268.358 125.183 269.279 126.104 270.416 126.104ZM293.055 124.046C293.055 125.183 292.133 126.104 290.997 126.104C289.86 126.104 288.938 125.183 288.938 124.046C288.938 122.91 289.86 121.988 290.997 121.988C292.133 121.988 293.055 122.91 293.055 124.046ZM309.519 124.046C309.519 125.178 310.445 126.104 311.577 126.104V121.988C310.445 121.988 309.519 122.914 309.519 124.046ZM64.6074 142.569C65.7394 142.569 66.6655 143.495 66.6655 144.627C66.6655 145.759 65.7394 146.685 64.6074 146.685V142.569ZM85.1882 146.685C86.3249 146.685 87.2463 145.764 87.2463 144.627C87.2463 143.49 86.3249 142.569 85.1882 142.569C84.0516 142.569 83.1302 143.49 83.1302 144.627C83.1302 145.764 84.0516 146.685 85.1882 146.685ZM107.827 144.627C107.827 145.764 106.906 146.685 105.769 146.685C104.632 146.685 103.711 145.764 103.711 144.627C103.711 143.49 104.632 142.569 105.769 142.569C106.906 142.569 107.827 143.49 107.827 144.627ZM126.35 146.685C127.487 146.685 128.408 145.764 128.408 144.627C128.408 143.49 127.487 142.569 126.35 142.569C125.213 142.569 124.292 143.49 124.292 144.627C124.292 145.764 125.213 146.685 126.35 146.685ZM148.989 144.627C148.989 145.764 148.067 146.685 146.931 146.685C145.794 146.685 144.873 145.764 144.873 144.627C144.873 143.49 145.794 142.569 146.931 142.569C148.067 142.569 148.989 143.49 148.989 144.627ZM167.512 146.685C168.648 146.685 169.57 145.764 169.57 144.627C169.57 143.49 168.648 142.569 167.512 142.569C166.375 142.569 165.454 143.49 165.454 144.627C165.454 145.764 166.375 146.685 167.512 146.685ZM190.151 144.627C190.151 145.764 189.229 146.685 188.092 146.685C186.956 146.685 186.034 145.764 186.034 144.627C186.034 143.49 186.956 142.569 188.092 142.569C189.229 142.569 190.151 143.49 190.151 144.627ZM208.673 146.685C209.81 146.685 210.731 145.764 210.731 144.627C210.731 143.49 209.81 142.569 208.673 142.569C207.537 142.569 206.615 143.49 206.615 144.627C206.615 145.764 207.537 146.685 208.673 146.685ZM231.312 144.627C231.312 145.764 230.391 146.685 229.254 146.685C228.117 146.685 227.196 145.764 227.196 144.627C227.196 143.49 228.117 142.569 229.254 142.569C230.391 142.569 231.312 143.49 231.312 144.627ZM249.835 146.685C250.972 146.685 251.893 145.764 251.893 144.627C251.893 143.49 250.972 142.569 249.835 142.569C248.698 142.569 247.777 143.49 247.777 144.627C247.777 145.764 248.698 146.685 249.835 146.685ZM272.474 144.627C272.474 145.764 271.552 146.685 270.416 146.685C269.279 146.685 268.358 145.764 268.358 144.627C268.358 143.49 269.279 142.569 270.416 142.569C271.552 142.569 272.474 143.49 272.474 144.627ZM290.997 146.685C292.133 146.685 293.055 145.764 293.055 144.627C293.055 143.49 292.133 142.569 290.997 142.569C289.86 142.569 288.938 143.49 288.938 144.627C288.938 145.764 289.86 146.685 290.997 146.685ZM311.577 146.685C310.445 146.685 309.519 145.759 309.519 144.627C309.519 143.495 310.445 142.569 311.577 142.569V146.685ZM66.6655 165.208C66.6655 164.076 65.7394 163.15 64.6074 163.15V167.266C65.7394 167.266 66.6655 166.34 66.6655 165.208ZM87.2463 165.208C87.2463 166.345 86.3249 167.266 85.1882 167.266C84.0516 167.266 83.1302 166.345 83.1302 165.208C83.1302 164.071 84.0516 163.15 85.1882 163.15C86.3249 163.15 87.2463 164.071 87.2463 165.208ZM105.769 167.266C106.906 167.266 107.827 166.345 107.827 165.208C107.827 164.071 106.906 163.15 105.769 163.15C104.632 163.15 103.711 164.071 103.711 165.208C103.711 166.345 104.632 167.266 105.769 167.266ZM128.408 165.208C128.408 166.345 127.487 167.266 126.35 167.266C125.213 167.266 124.292 166.345 124.292 165.208C124.292 164.071 125.213 163.15 126.35 163.15C127.487 163.15 128.408 164.071 128.408 165.208ZM146.931 167.266C148.067 167.266 148.989 166.345 148.989 165.208C148.989 164.071 148.067 163.15 146.931 163.15C145.794 163.15 144.873 164.071 144.873 165.208C144.873 166.345 145.794 167.266 146.931 167.266ZM169.57 165.208C169.57 166.345 168.648 167.266 167.512 167.266C166.375 167.266 165.454 166.345 165.454 165.208C165.454 164.071 166.375 163.15 167.512 163.15C168.648 163.15 169.57 164.071 169.57 165.208ZM188.092 167.266C189.229 167.266 190.151 166.345 190.151 165.208C190.151 164.071 189.229 163.15 188.092 163.15C186.956 163.15 186.034 164.071 186.034 165.208C186.034 166.345 186.956 167.266 188.092 167.266ZM210.731 165.208C210.731 166.345 209.81 167.266 208.673 167.266C207.537 167.266 206.615 166.345 206.615 165.208C206.615 164.071 207.537 163.15 208.673 163.15C209.81 163.15 210.731 164.071 210.731 165.208ZM229.254 167.266C230.391 167.266 231.312 166.345 231.312 165.208C231.312 164.071 230.391 163.15 229.254 163.15C228.117 163.15 227.196 164.071 227.196 165.208C227.196 166.345 228.117 167.266 229.254 167.266ZM251.893 165.208C251.893 166.345 250.972 167.266 249.835 167.266C248.698 167.266 247.777 166.345 247.777 165.208C247.777 164.071 248.698 163.15 249.835 163.15C250.972 163.15 251.893 164.071 251.893 165.208ZM270.416 167.266C271.552 167.266 272.474 166.345 272.474 165.208C272.474 164.071 271.552 163.15 270.416 163.15C269.279 163.15 268.358 164.071 268.358 165.208C268.358 166.345 269.279 167.266 270.416 167.266ZM293.055 165.208C293.055 166.345 292.133 167.266 290.997 167.266C289.86 167.266 288.938 166.345 288.938 165.208C288.938 164.071 289.86 163.15 290.997 163.15C292.133 163.15 293.055 164.071 293.055 165.208ZM309.519 165.208C309.519 166.34 310.445 167.266 311.577 167.266V163.15C310.445 163.15 309.519 164.076 309.519 165.208ZM64.6074 183.731C65.7394 183.731 66.6655 184.657 66.6655 185.789C66.6655 186.921 65.7394 187.847 64.6074 187.847V183.731ZM85.1882 187.847C86.3249 187.847 87.2463 186.925 87.2463 185.789C87.2463 184.652 86.3249 183.731 85.1882 183.731C84.0516 183.731 83.1302 184.652 83.1302 185.789C83.1302 186.925 84.0516 187.847 85.1882 187.847ZM107.827 185.789C107.827 186.925 106.906 187.847 105.769 187.847C104.632 187.847 103.711 186.925 103.711 185.789C103.711 184.652 104.632 183.731 105.769 183.731C106.906 183.731 107.827 184.652 107.827 185.789ZM126.35 187.847C127.487 187.847 128.408 186.925 128.408 185.789C128.408 184.652 127.487 183.731 126.35 183.731C125.213 183.731 124.292 184.652 124.292 185.789C124.292 186.925 125.213 187.847 126.35 187.847ZM148.989 185.789C148.989 186.925 148.067 187.847 146.931 187.847C145.794 187.847 144.873 186.925 144.873 185.789C144.873 184.652 145.794 183.731 146.931 183.731C148.067 183.731 148.989 184.652 148.989 185.789ZM167.512 187.847C168.648 187.847 169.57 186.925 169.57 185.789C169.57 184.652 168.648 183.731 167.512 183.731C166.375 183.731 165.454 184.652 165.454 185.789C165.454 186.925 166.375 187.847 167.512 187.847ZM190.151 185.789C190.151 186.925 189.229 187.847 188.092 187.847C186.956 187.847 186.034 186.925 186.034 185.789C186.034 184.652 186.956 183.731 188.092 183.731C189.229 183.731 190.151 184.652 190.151 185.789ZM208.673 187.847C209.81 187.847 210.731 186.925 210.731 185.789C210.731 184.652 209.81 183.731 208.673 183.731C207.537 183.731 206.615 184.652 206.615 185.789C206.615 186.925 207.537 187.847 208.673 187.847ZM231.312 185.789C231.312 186.925 230.391 187.847 229.254 187.847C228.117 187.847 227.196 186.925 227.196 185.789C227.196 184.652 228.117 183.731 229.254 183.731C230.391 183.731 231.312 184.652 231.312 185.789ZM249.835 187.847C250.972 187.847 251.893 186.925 251.893 185.789C251.893 184.652 250.972 183.731 249.835 183.731C248.698 183.731 247.777 184.652 247.777 185.789C247.777 186.925 248.698 187.847 249.835 187.847ZM272.474 185.789C272.474 186.925 271.552 187.847 270.416 187.847C269.279 187.847 268.358 186.925 268.358 185.789C268.358 184.652 269.279 183.731 270.416 183.731C271.552 183.731 272.474 184.652 272.474 185.789ZM290.997 187.847C292.133 187.847 293.055 186.925 293.055 185.789C293.055 184.652 292.133 183.731 290.997 183.731C289.86 183.731 288.938 184.652 288.938 185.789C288.938 186.925 289.86 187.847 290.997 187.847ZM311.577 187.847C310.445 187.847 309.519 186.921 309.519 185.789C309.519 184.657 310.445 183.731 311.577 183.731V187.847ZM66.6655 206.37C66.6655 205.238 65.7394 204.311 64.6074 204.311V208.428C65.7394 208.428 66.6655 207.502 66.6655 206.37ZM87.2463 206.37C87.2463 207.506 86.3249 208.428 85.1882 208.428C84.0516 208.428 83.1302 207.506 83.1302 206.37C83.1302 205.233 84.0516 204.311 85.1882 204.311C86.3249 204.311 87.2463 205.233 87.2463 206.37ZM105.769 208.428C106.906 208.428 107.827 207.506 107.827 206.37C107.827 205.233 106.906 204.311 105.769 204.311C104.632 204.311 103.711 205.233 103.711 206.37C103.711 207.506 104.632 208.428 105.769 208.428ZM128.408 206.37C128.408 207.506 127.487 208.428 126.35 208.428C125.213 208.428 124.292 207.506 124.292 206.37C124.292 205.233 125.213 204.311 126.35 204.311C127.487 204.311 128.408 205.233 128.408 206.37ZM146.931 208.428C148.067 208.428 148.989 207.506 148.989 206.37C148.989 205.233 148.067 204.311 146.931 204.311C145.794 204.311 144.873 205.233 144.873 206.37C144.873 207.506 145.794 208.428 146.931 208.428ZM169.57 206.37C169.57 207.506 168.648 208.428 167.512 208.428C166.375 208.428 165.454 207.506 165.454 206.37C165.454 205.233 166.375 204.311 167.512 204.311C168.648 204.311 169.57 205.233 169.57 206.37ZM188.092 208.428C189.229 208.428 190.151 207.506 190.151 206.37C190.151 205.233 189.229 204.311 188.092 204.311C186.956 204.311 186.034 205.233 186.034 206.37C186.034 207.506 186.956 208.428 188.092 208.428ZM210.731 206.37C210.731 207.506 209.81 208.428 208.673 208.428C207.537 208.428 206.615 207.506 206.615 206.37C206.615 205.233 207.537 204.311 208.673 204.311C209.81 204.311 210.731 205.233 210.731 206.37ZM229.254 208.428C230.391 208.428 231.312 207.506 231.312 206.37C231.312 205.233 230.391 204.311 229.254 204.311C228.117 204.311 227.196 205.233 227.196 206.37C227.196 207.506 228.117 208.428 229.254 208.428ZM251.893 206.37C251.893 207.506 250.972 208.428 249.835 208.428C248.698 208.428 247.777 207.506 247.777 206.37C247.777 205.233 248.698 204.311 249.835 204.311C250.972 204.311 251.893 205.233 251.893 206.37ZM270.416 208.428C271.552 208.428 272.474 207.506 272.474 206.37C272.474 205.233 271.552 204.311 270.416 204.311C269.279 204.311 268.358 205.233 268.358 206.37C268.358 207.506 269.279 208.428 270.416 208.428ZM293.055 206.37C293.055 207.506 292.133 208.428 290.997 208.428C289.86 208.428 288.938 207.506 288.938 206.37C288.938 205.233 289.86 204.311 290.997 204.311C292.133 204.311 293.055 205.233 293.055 206.37ZM309.519 206.37C309.519 207.502 310.445 208.428 311.577 208.428V204.311C310.445 204.311 309.519 205.238 309.519 206.37ZM64.6074 224.892C65.7394 224.892 66.6655 225.818 66.6655 226.95C66.6655 228.082 65.7394 229.008 64.6074 229.008V224.892ZM85.1882 229.008C86.3249 229.008 87.2463 228.087 87.2463 226.95C87.2463 225.814 86.3249 224.892 85.1882 224.892C84.0516 224.892 83.1302 225.814 83.1302 226.95C83.1302 228.087 84.0516 229.008 85.1882 229.008ZM107.827 226.95C107.827 228.087 106.906 229.008 105.769 229.008C104.632 229.008 103.711 228.087 103.711 226.95C103.711 225.814 104.632 224.892 105.769 224.892C106.906 224.892 107.827 225.814 107.827 226.95ZM126.35 229.008C127.487 229.008 128.408 228.087 128.408 226.95C128.408 225.814 127.487 224.892 126.35 224.892C125.213 224.892 124.292 225.814 124.292 226.95C124.292 228.087 125.213 229.008 126.35 229.008ZM148.989 226.95C148.989 228.087 148.067 229.008 146.931 229.008C145.794 229.008 144.873 228.087 144.873 226.95C144.873 225.814 145.794 224.892 146.931 224.892C148.067 224.892 148.989 225.814 148.989 226.95ZM167.512 229.008C168.648 229.008 169.57 228.087 169.57 226.95C169.57 225.814 168.648 224.892 167.512 224.892C166.375 224.892 165.454 225.814 165.454 226.95C165.454 228.087 166.375 229.008 167.512 229.008ZM190.151 226.95C190.151 228.087 189.229 229.008 188.092 229.008C186.956 229.008 186.034 228.087 186.034 226.95C186.034 225.814 186.956 224.892 188.092 224.892C189.229 224.892 190.151 225.814 190.151 226.95ZM208.673 229.008C209.81 229.008 210.731 228.087 210.731 226.95C210.731 225.814 209.81 224.892 208.673 224.892C207.537 224.892 206.615 225.814 206.615 226.95C206.615 228.087 207.537 229.008 208.673 229.008ZM231.312 226.95C231.312 228.087 230.391 229.008 229.254 229.008C228.117 229.008 227.196 228.087 227.196 226.95C227.196 225.814 228.117 224.892 229.254 224.892C230.391 224.892 231.312 225.814 231.312 226.95ZM249.835 229.008C250.972 229.008 251.893 228.087 251.893 226.95C251.893 225.814 250.972 224.892 249.835 224.892C248.698 224.892 247.777 225.814 247.777 226.95C247.777 228.087 248.698 229.008 249.835 229.008ZM272.474 226.95C272.474 228.087 271.552 229.008 270.416 229.008C269.279 229.008 268.358 228.087 268.358 226.95C268.358 225.814 269.279 224.892 270.416 224.892C271.552 224.892 272.474 225.814 272.474 226.95ZM290.997 229.008C292.133 229.008 293.055 228.087 293.055 226.95C293.055 225.814 292.133 224.892 290.997 224.892C289.86 224.892 288.938 225.814 288.938 226.95C288.938 228.087 289.86 229.008 290.997 229.008ZM311.577 229.008C310.445 229.008 309.519 228.082 309.519 226.95C309.519 225.818 310.445 224.892 311.577 224.892V229.008ZM66.6655 247.531C66.6655 246.399 65.7394 245.473 64.6074 245.473V249.589C65.7394 249.589 66.6655 248.663 66.6655 247.531ZM87.2463 247.531C87.2463 248.668 86.3249 249.589 85.1882 249.589C84.0516 249.589 83.1302 248.668 83.1302 247.531C83.1302 246.395 84.0516 245.473 85.1882 245.473C86.3249 245.473 87.2463 246.395 87.2463 247.531ZM105.769 249.589C106.906 249.589 107.827 248.668 107.827 247.531C107.827 246.395 106.906 245.473 105.769 245.473C104.632 245.473 103.711 246.395 103.711 247.531C103.711 248.668 104.632 249.589 105.769 249.589ZM128.408 247.531C128.408 248.668 127.487 249.589 126.35 249.589C125.213 249.589 124.292 248.668 124.292 247.531C124.292 246.395 125.213 245.473 126.35 245.473C127.487 245.473 128.408 246.395 128.408 247.531ZM146.931 249.589C148.067 249.589 148.989 248.668 148.989 247.531C148.989 246.395 148.067 245.473 146.931 245.473C145.794 245.473 144.873 246.395 144.873 247.531C144.873 248.668 145.794 249.589 146.931 249.589ZM169.57 247.531C169.57 248.668 168.648 249.589 167.512 249.589C166.375 249.589 165.454 248.668 165.454 247.531C165.454 246.395 166.375 245.473 167.512 245.473C168.648 245.473 169.57 246.395 169.57 247.531ZM188.092 249.589C189.229 249.589 190.151 248.668 190.151 247.531C190.151 246.395 189.229 245.473 188.092 245.473C186.956 245.473 186.034 246.395 186.034 247.531C186.034 248.668 186.956 249.589 188.092 249.589ZM210.731 247.531C210.731 248.668 209.81 249.589 208.673 249.589C207.537 249.589 206.615 248.668 206.615 247.531C206.615 246.395 207.537 245.473 208.673 245.473C209.81 245.473 210.731 246.395 210.731 247.531ZM229.254 249.589C230.391 249.589 231.312 248.668 231.312 247.531C231.312 246.395 230.391 245.473 229.254 245.473C228.117 245.473 227.196 246.395 227.196 247.531C227.196 248.668 228.117 249.589 229.254 249.589ZM251.893 247.531C251.893 248.668 250.972 249.589 249.835 249.589C248.698 249.589 247.777 248.668 247.777 247.531C247.777 246.395 248.698 245.473 249.835 245.473C250.972 245.473 251.893 246.395 251.893 247.531ZM270.416 249.589C271.552 249.589 272.474 248.668 272.474 247.531C272.474 246.395 271.552 245.473 270.416 245.473C269.279 245.473 268.358 246.395 268.358 247.531C268.358 248.668 269.279 249.589 270.416 249.589ZM293.055 247.531C293.055 248.668 292.133 249.589 290.997 249.589C289.86 249.589 288.938 248.668 288.938 247.531C288.938 246.395 289.86 245.473 290.997 245.473C292.133 245.473 293.055 246.395 293.055 247.531ZM309.519 247.531C309.519 248.663 310.445 249.589 311.577 249.589V245.473C310.445 245.473 309.519 246.399 309.519 247.531ZM64.6074 266.054C65.7394 266.054 66.6655 266.98 66.6655 268.112C66.6655 269.244 65.7394 270.17 64.6074 270.17V266.054ZM85.1882 270.17C86.3249 270.17 87.2463 269.249 87.2463 268.112C87.2463 266.975 86.3249 266.054 85.1882 266.054C84.0516 266.054 83.1302 266.975 83.1302 268.112C83.1302 269.249 84.0516 270.17 85.1882 270.17ZM107.827 268.112C107.827 269.249 106.906 270.17 105.769 270.17C104.632 270.17 103.711 269.249 103.711 268.112C103.711 266.975 104.632 266.054 105.769 266.054C106.906 266.054 107.827 266.975 107.827 268.112ZM126.35 270.17C127.487 270.17 128.408 269.249 128.408 268.112C128.408 266.975 127.487 266.054 126.35 266.054C125.213 266.054 124.292 266.975 124.292 268.112C124.292 269.249 125.213 270.17 126.35 270.17ZM148.989 268.112C148.989 269.249 148.067 270.17 146.931 270.17C145.794 270.17 144.873 269.249 144.873 268.112C144.873 266.975 145.794 266.054 146.931 266.054C148.067 266.054 148.989 266.975 148.989 268.112ZM167.512 270.17C168.648 270.17 169.57 269.249 169.57 268.112C169.57 266.975 168.648 266.054 167.512 266.054C166.375 266.054 165.454 266.975 165.454 268.112C165.454 269.249 166.375 270.17 167.512 270.17ZM190.151 268.112C190.151 269.249 189.229 270.17 188.092 270.17C186.956 270.17 186.034 269.249 186.034 268.112C186.034 266.975 186.956 266.054 188.092 266.054C189.229 266.054 190.151 266.975 190.151 268.112ZM208.673 270.17C209.81 270.17 210.731 269.249 210.731 268.112C210.731 266.975 209.81 266.054 208.673 266.054C207.537 266.054 206.615 266.975 206.615 268.112C206.615 269.249 207.537 270.17 208.673 270.17ZM231.312 268.112C231.312 269.249 230.391 270.17 229.254 270.17C228.117 270.17 227.196 269.249 227.196 268.112C227.196 266.975 228.117 266.054 229.254 266.054C230.391 266.054 231.312 266.975 231.312 268.112ZM249.835 270.17C250.972 270.17 251.893 269.249 251.893 268.112C251.893 266.975 250.972 266.054 249.835 266.054C248.698 266.054 247.777 266.975 247.777 268.112C247.777 269.249 248.698 270.17 249.835 270.17ZM272.474 268.112C272.474 269.249 271.552 270.17 270.416 270.17C269.279 270.17 268.358 269.249 268.358 268.112C268.358 266.975 269.279 266.054 270.416 266.054C271.552 266.054 272.474 266.975 272.474 268.112ZM290.997 270.17C292.133 270.17 293.055 269.249 293.055 268.112C293.055 266.975 292.133 266.054 290.997 266.054C289.86 266.054 288.938 266.975 288.938 268.112C288.938 269.249 289.86 270.17 290.997 270.17ZM311.577 270.17C310.445 270.17 309.519 269.244 309.519 268.112C309.519 266.98 310.445 266.054 311.577 266.054V270.17ZM66.6655 288.693C66.6655 287.561 65.7394 286.635 64.6074 286.635V290.751C65.7394 290.751 66.6655 289.825 66.6655 288.693ZM87.2463 288.693C87.2463 289.83 86.3249 290.751 85.1882 290.751C84.0516 290.751 83.1302 289.83 83.1302 288.693C83.1302 287.556 84.0516 286.635 85.1882 286.635C86.3249 286.635 87.2463 287.556 87.2463 288.693ZM105.769 290.751C106.906 290.751 107.827 289.83 107.827 288.693C107.827 287.556 106.906 286.635 105.769 286.635C104.632 286.635 103.711 287.556 103.711 288.693C103.711 289.83 104.632 290.751 105.769 290.751ZM128.408 288.693C128.408 289.83 127.487 290.751 126.35 290.751C125.213 290.751 124.292 289.83 124.292 288.693C124.292 287.556 125.213 286.635 126.35 286.635C127.487 286.635 128.408 287.556 128.408 288.693ZM146.931 290.751C148.067 290.751 148.989 289.83 148.989 288.693C148.989 287.556 148.067 286.635 146.931 286.635C145.794 286.635 144.873 287.556 144.873 288.693C144.873 289.83 145.794 290.751 146.931 290.751ZM169.57 288.693C169.57 289.83 168.648 290.751 167.512 290.751C166.375 290.751 165.454 289.83 165.454 288.693C165.454 287.556 166.375 286.635 167.512 286.635C168.648 286.635 169.57 287.556 169.57 288.693ZM188.092 290.751C189.229 290.751 190.151 289.83 190.151 288.693C190.151 287.556 189.229 286.635 188.092 286.635C186.956 286.635 186.034 287.556 186.034 288.693C186.034 289.83 186.956 290.751 188.092 290.751ZM210.731 288.693C210.731 289.83 209.81 290.751 208.673 290.751C207.537 290.751 206.615 289.83 206.615 288.693C206.615 287.556 207.537 286.635 208.673 286.635C209.81 286.635 210.731 287.556 210.731 288.693ZM229.254 290.751C230.391 290.751 231.312 289.83 231.312 288.693C231.312 287.556 230.391 286.635 229.254 286.635C228.117 286.635 227.196 287.556 227.196 288.693C227.196 289.83 228.117 290.751 229.254 290.751ZM251.893 288.693C251.893 289.83 250.972 290.751 249.835 290.751C248.698 290.751 247.777 289.83 247.777 288.693C247.777 287.556 248.698 286.635 249.835 286.635C250.972 286.635 251.893 287.556 251.893 288.693ZM270.416 290.751C271.552 290.751 272.474 289.83 272.474 288.693C272.474 287.556 271.552 286.635 270.416 286.635C269.279 286.635 268.358 287.556 268.358 288.693C268.358 289.83 269.279 290.751 270.416 290.751ZM293.055 288.693C293.055 289.83 292.133 290.751 290.997 290.751C289.86 290.751 288.938 289.83 288.938 288.693C288.938 287.556 289.86 286.635 290.997 286.635C292.133 286.635 293.055 287.556 293.055 288.693ZM309.519 288.693C309.519 289.825 310.445 290.751 311.577 290.751V286.635C310.445 286.635 309.519 287.561 309.519 288.693ZM64.6074 309.274V307.216C65.7394 307.216 66.6655 308.142 66.6655 309.274H64.6074ZM85.1882 307.216C84.0563 307.216 83.1302 308.142 83.1302 309.274H87.2463C87.2463 308.142 86.3202 307.216 85.1882 307.216ZM103.711 309.274C103.711 308.142 104.637 307.216 105.769 307.216C106.901 307.216 107.827 308.142 107.827 309.274H103.711ZM126.35 307.216C125.218 307.216 124.292 308.142 124.292 309.274H128.408C128.408 308.142 127.482 307.216 126.35 307.216ZM144.873 309.274C144.873 308.142 145.799 307.216 146.931 307.216C148.063 307.216 148.989 308.142 148.989 309.274H144.873ZM167.512 307.216C166.38 307.216 165.454 308.142 165.454 309.274H169.57C169.57 308.142 168.644 307.216 167.512 307.216ZM186.034 309.274C186.034 308.142 186.961 307.216 188.092 307.216C189.224 307.216 190.151 308.142 190.151 309.274H186.034ZM208.673 307.216C207.541 307.216 206.615 308.142 206.615 309.274H210.731C210.731 308.142 209.805 307.216 208.673 307.216ZM227.196 309.274C227.196 308.142 228.122 307.216 229.254 307.216C230.386 307.216 231.312 308.142 231.312 309.274H227.196ZM249.835 307.216C248.703 307.216 247.777 308.142 247.777 309.274H251.893C251.893 308.142 250.967 307.216 249.835 307.216ZM268.358 309.274C268.358 308.142 269.284 307.216 270.416 307.216C271.548 307.216 272.474 308.142 272.474 309.274H268.358ZM290.997 307.216C289.865 307.216 288.938 308.142 288.938 309.274H293.055C293.055 308.142 292.129 307.216 290.997 307.216ZM309.519 309.274C309.519 308.142 310.445 307.216 311.577 307.216V309.274H309.519Z" fill="#55BC7E"/>
</g>
<circle cx="15.5" cy="119.5" r="15.5" fill="#E4A788"/>
<circle cx="54" cy="8" r="8" fill="#55BC7E"/>
</svg>
