<svg width="47" height="176" viewBox="0 0 47 176" fill="none" xmlns="http://www.w3.org/2000/svg">
<mask id="mask0" mask-type="alpha" maskUnits="userSpaceOnUse" x="-129" y="0" width="176" height="176">
<circle cx="-41.1501" cy="87.8496" r="86.7508" transform="rotate(-0.730545 -41.1501 87.8496)" fill="#C4C4C4"/>
</mask>
<g mask="url(#mask0)">
<path fill-rule="evenodd" clip-rule="evenodd" d="M-90.3623 3.04357C-90.3523 3.82962 -90.9872 4.48095 -91.7732 4.49097C-92.5593 4.501 -93.2106 3.86607 -93.2206 3.08002L-90.3623 3.04357ZM-106.065 4.67325C-105.279 4.66323 -104.644 4.0119 -104.654 3.22585L-107.512 3.2623C-107.502 4.04835 -106.851 4.68327 -106.065 4.67325ZM-118.946 3.4081L-120.375 3.42632L-120.357 4.8555C-119.571 4.84547 -118.936 4.19415 -118.946 3.4081ZM-77.4815 4.30879C-76.6955 4.29877 -76.0606 3.64744 -76.0706 2.8614L-78.9289 2.89784C-78.9189 3.68389 -78.2676 4.31882 -77.4815 4.30879ZM-61.7788 2.67912C-61.7687 3.46516 -62.4037 4.11649 -63.1897 4.12652C-63.9758 4.13654 -64.6271 3.50161 -64.6371 2.71556L-61.7788 2.67912ZM-48.8979 3.94429C-48.1118 3.93426 -47.4769 3.28293 -47.4869 2.49689L-50.3453 2.53334C-50.3353 3.31938 -49.6839 3.95431 -48.8979 3.94429ZM-33.1952 2.31471C-33.1852 3.10076 -33.8201 3.75208 -34.6062 3.76211C-35.3922 3.77213 -36.0436 3.1372 -36.0536 2.35116L-33.1952 2.31471ZM-20.3145 3.57983C-19.5284 3.56981 -18.8935 2.91848 -18.9035 2.13243L-21.7619 2.16888C-21.7518 2.95492 -21.1005 3.58985 -20.3145 3.57983ZM-4.61177 1.9502C-4.60174 2.73625 -5.23668 3.38758 -6.02273 3.3976C-6.80879 3.40762 -7.46012 2.7727 -7.47015 1.98665L-4.61177 1.9502ZM8.26907 3.21537C9.05513 3.20535 9.69005 2.55402 9.68002 1.76797L6.82167 1.80442C6.83169 2.59047 7.48302 3.22539 8.26907 3.21537ZM23.9718 1.58574C23.9818 2.37179 23.3469 3.02312 22.5608 3.03314C21.7747 3.04317 21.1234 2.40824 21.1134 1.62219L23.9718 1.58574ZM36.8526 2.85086C37.6386 2.84084 38.2736 2.18951 38.2635 1.40347L35.4052 1.43991C35.4152 2.22596 36.0665 2.86089 36.8526 2.85086ZM51.126 1.23951L51.1442 2.66868C50.3582 2.67871 49.7068 2.04378 49.6968 1.25773L51.126 1.23951ZM-118.764 17.6998C-118.774 16.9138 -119.425 16.2788 -120.211 16.2889L-120.174 19.1472C-119.388 19.1372 -118.753 18.4859 -118.764 17.6998ZM-104.472 17.5176C-104.462 18.3069 -105.093 18.9549 -105.883 18.965C-106.672 18.9751 -107.32 18.3434 -107.33 17.554C-107.34 16.7647 -106.708 16.1167 -105.919 16.1066C-105.13 16.0966 -104.482 16.7283 -104.472 17.5176ZM-91.591 18.7828C-90.8017 18.7727 -90.17 18.1247 -90.1801 17.3354C-90.1901 16.5461 -90.8382 15.9143 -91.6275 15.9244C-92.4168 15.9345 -93.0485 16.5825 -93.0384 17.3718C-93.0284 18.1611 -92.3803 18.7928 -91.591 18.7828ZM-75.8882 17.1531C-75.8782 17.9424 -76.5099 18.5905 -77.2992 18.6005C-78.0885 18.6106 -78.7365 17.9789 -78.7466 17.1896C-78.7567 16.4003 -78.125 15.7522 -77.3356 15.7422C-76.5463 15.7321 -75.8983 16.3638 -75.8882 17.1531ZM-63.0075 18.4183C-62.2182 18.4082 -61.5865 17.7602 -61.5965 16.9709C-61.6066 16.1816 -62.2546 15.5499 -63.0439 15.56C-63.8332 15.57 -64.4649 16.218 -64.4549 17.0074C-64.4448 17.7967 -63.7968 18.4284 -63.0075 18.4183ZM-47.3047 16.7887C-47.2946 17.578 -47.9263 18.226 -48.7157 18.2361C-49.505 18.2461 -50.153 17.6144 -50.1631 16.8251C-50.1731 16.0358 -49.5414 15.3878 -48.7521 15.3777C-47.9628 15.3677 -47.3148 15.9994 -47.3047 16.7887ZM-34.424 18.0538C-33.6346 18.0438 -33.0029 17.3958 -33.013 16.6064C-33.0231 15.8171 -33.6711 15.1854 -34.4604 15.1955C-35.2497 15.2056 -35.8814 15.8536 -35.8713 16.6429C-35.8613 17.4322 -35.2133 18.0639 -34.424 18.0538ZM-18.7213 16.4242C-18.7112 17.2135 -19.3429 17.8615 -20.1322 17.8716C-20.9215 17.8816 -21.5696 17.2499 -21.5796 16.4606C-21.5897 15.6713 -20.958 15.0233 -20.1687 15.0132C-19.3794 15.0032 -18.7313 15.6349 -18.7213 16.4242ZM-5.84051 17.6894C-5.05119 17.6793 -4.41947 17.0313 -4.42954 16.242C-4.4396 15.4527 -5.08763 14.821 -5.87695 14.831C-6.66627 14.8411 -7.29798 15.4891 -7.28792 16.2784C-7.27785 17.0677 -6.62982 17.6995 -5.84051 17.6894ZM9.86226 16.0597C9.87232 16.849 9.24061 17.497 8.45129 17.5071C7.66198 17.5172 7.01396 16.8855 7.00389 16.0962C6.99383 15.3068 7.62553 14.6588 8.41485 14.6488C9.20416 14.6387 9.85219 15.2704 9.86226 16.0597ZM22.743 17.3249C23.5323 17.3148 24.164 16.6668 24.154 15.8775C24.1439 15.0882 23.4959 14.4565 22.7066 14.4665C21.9173 14.4766 21.2855 15.1246 21.2956 15.9139C21.3057 16.7032 21.9537 17.3349 22.743 17.3249ZM38.4458 15.6952C38.4558 16.4845 37.8241 17.1325 37.0348 17.1426C36.2455 17.1527 35.5975 16.521 35.5874 15.7317C35.5774 14.9423 36.2091 14.2943 36.9984 14.2843C37.7877 14.2742 38.4357 14.9059 38.4458 15.6952ZM49.8791 15.5495C49.8892 16.3355 50.5405 16.9704 51.3266 16.9604L51.2901 14.1021C50.5041 14.1121 49.8691 14.7634 49.8791 15.5495ZM-120.029 30.5806C-119.243 30.5706 -118.591 31.2055 -118.581 31.9916C-118.571 32.7776 -119.206 33.429 -119.992 33.439L-120.029 30.5806ZM-105.701 33.2568C-104.911 33.2467 -104.279 32.5987 -104.29 31.8094C-104.3 31.02 -104.948 30.3883 -105.737 30.3984C-106.526 30.4085 -107.158 31.0565 -107.148 31.8458C-107.138 32.6351 -106.49 33.2668 -105.701 33.2568ZM-89.9978 31.6271C-89.9878 32.4164 -90.6195 33.0645 -91.4088 33.0745C-92.1981 33.0846 -92.8461 32.4529 -92.8562 31.6636C-92.8663 30.8743 -92.2345 30.2262 -91.4452 30.2162C-90.6559 30.2061 -90.0079 30.8378 -89.9978 31.6271ZM-77.1171 32.8923C-76.3278 32.8822 -75.6961 32.2342 -75.7061 31.4449C-75.7162 30.6556 -76.3642 30.0239 -77.1535 30.034C-77.9428 30.044 -78.5745 30.692 -78.5645 31.4813C-78.5544 32.2707 -77.9064 32.9024 -77.1171 32.8923ZM-61.4143 31.2627C-61.4042 32.052 -62.0359 32.7 -62.8253 32.7101C-63.6146 32.7201 -64.2626 32.0884 -64.2727 31.2991C-64.2827 30.5098 -63.651 29.8618 -62.8617 29.8517C-62.0724 29.8417 -61.4244 30.4734 -61.4143 31.2627ZM-48.5335 32.5278C-47.7442 32.5177 -47.1125 31.8697 -47.1226 31.0804C-47.1326 30.2911 -47.7807 29.6594 -48.57 29.6694C-49.3593 29.6795 -49.991 30.3275 -49.9809 31.1168C-49.9709 31.9062 -49.3228 32.5379 -48.5335 32.5278ZM-32.8308 30.8982C-32.8207 31.6875 -33.4524 32.3355 -34.2417 32.3456C-35.031 32.3557 -35.6791 31.724 -35.6891 30.9347C-35.6992 30.1454 -35.0675 29.4973 -34.2782 29.4873C-33.4889 29.4772 -32.8408 30.1089 -32.8308 30.8982ZM-19.9499 32.1633C-19.1606 32.1533 -18.5289 31.5052 -18.5389 30.7159C-18.549 29.9266 -19.197 29.2949 -19.9863 29.305C-20.7757 29.315 -21.4074 29.9631 -21.3973 30.7524C-21.3872 31.5417 -20.7392 32.1734 -19.9499 32.1633ZM-4.24721 30.5337C-4.23715 31.323 -4.86886 31.971 -5.65818 31.9811C-6.4475 31.9912 -7.09553 31.3595 -7.10559 30.5702C-7.11566 29.7808 -6.48394 29.1328 -5.69463 29.1228C-4.90531 29.1127 -4.25728 29.7444 -4.24721 30.5337ZM8.63353 31.7989C9.42285 31.7888 10.0546 31.1408 10.0445 30.3515C10.0344 29.5622 9.3864 28.9305 8.59708 28.9405C7.80777 28.9506 7.17607 29.5986 7.18613 30.3879C7.1962 31.1772 7.84422 31.8089 8.63353 31.7989ZM24.3362 30.1692C24.3463 30.9586 23.7146 31.6066 22.9253 31.6166C22.1359 31.6267 21.4879 30.995 21.4778 30.2057C21.4678 29.4164 22.0995 28.7684 22.8888 28.7583C23.6781 28.7482 24.3261 29.3799 24.3362 30.1692ZM37.2171 31.4344C38.0064 31.4244 38.6381 30.7763 38.628 29.987C38.6179 29.1977 37.9699 28.566 37.1806 28.5761C36.3913 28.5861 35.7596 29.2342 35.7697 30.0235C35.7797 30.8128 36.4277 31.4445 37.2171 31.4344ZM51.5088 31.2521C50.7227 31.2622 50.0714 30.6272 50.0614 29.8412C50.0514 29.0551 50.6863 28.4038 51.4723 28.3938L51.5088 31.2521ZM-118.399 46.2834C-118.409 45.4973 -119.06 44.8624 -119.846 44.8724L-119.81 47.7308C-119.024 47.7207 -118.389 47.0694 -118.399 46.2834ZM-104.107 46.1011C-104.097 46.8904 -104.729 47.5384 -105.518 47.5485C-106.308 47.5585 -106.956 46.9268 -106.966 46.1375C-106.976 45.3482 -106.344 44.7002 -105.555 44.6901C-104.765 44.6801 -104.117 45.3118 -104.107 46.1011ZM-91.2265 47.3663C-90.4371 47.3562 -89.8054 46.7082 -89.8155 45.9189C-89.8256 45.1296 -90.4736 44.4979 -91.2629 44.5079C-92.0522 44.518 -92.6839 45.166 -92.6739 45.9553C-92.6638 46.7447 -92.0158 47.3764 -91.2265 47.3663ZM-75.5238 45.7366C-75.5137 46.5259 -76.1454 47.174 -76.9347 47.184C-77.7241 47.1941 -78.3721 46.5624 -78.3821 45.7731C-78.3922 44.9838 -77.7605 44.3357 -76.9712 44.3257C-76.1819 44.3156 -75.5339 44.9473 -75.5238 45.7366ZM-62.643 47.0018C-61.8537 46.9917 -61.222 46.3437 -61.2321 45.5544C-61.2421 44.7651 -61.8902 44.1334 -62.6795 44.1434C-63.4688 44.1535 -64.1005 44.8015 -64.0904 45.5908C-64.0804 46.3802 -63.4323 47.0119 -62.643 47.0018ZM-46.9403 45.3722C-46.9303 46.1615 -47.562 46.8095 -48.3513 46.8196C-49.1406 46.8296 -49.7886 46.1979 -49.7987 45.4086C-49.8088 44.6193 -49.1771 43.9713 -48.3877 43.9612C-47.5984 43.9511 -46.9504 44.5828 -46.9403 45.3722ZM-34.0595 46.6373C-33.2702 46.6273 -32.6385 45.9792 -32.6486 45.1899C-32.6586 44.4006 -33.3066 43.7689 -34.0959 43.779C-34.8853 43.789 -35.517 44.4371 -35.5069 45.2264C-35.4968 46.0157 -34.8488 46.6474 -34.0595 46.6373ZM-18.3568 45.0077C-18.3467 45.797 -18.9785 46.445 -19.7678 46.4551C-20.5571 46.4652 -21.2051 45.8335 -21.2152 45.0441C-21.2252 44.2548 -20.5935 43.6068 -19.8042 43.5968C-19.0149 43.5867 -18.3669 44.2184 -18.3568 45.0077ZM-5.47595 46.2729C-4.68663 46.2628 -4.05492 45.6148 -4.06498 44.8255C-4.07505 44.0362 -4.72308 43.4045 -5.5124 43.4145C-6.30172 43.4246 -6.93343 44.0726 -6.92336 44.8619C-6.9133 45.6512 -6.26527 46.2829 -5.47595 46.2729ZM10.2267 44.6432C10.2368 45.4326 9.60508 46.0806 8.81576 46.0906C8.02645 46.1007 7.37842 45.469 7.36836 44.6797C7.35829 43.8904 7.99 43.2424 8.77932 43.2323C9.56864 43.2222 10.2167 43.8539 10.2267 44.6432ZM23.1076 45.9084C23.8969 45.8983 24.5286 45.2503 24.5185 44.461C24.5085 43.6717 23.8605 43.04 23.0711 43.05C22.2818 43.0601 21.6501 43.7081 21.6602 44.4974C21.6702 45.2867 22.3183 45.9184 23.1076 45.9084ZM38.8102 44.2787C38.8203 45.0681 38.1886 45.7161 37.3993 45.7261C36.61 45.7362 35.962 45.1045 35.9519 44.3152C35.9418 43.5259 36.5735 42.8778 37.3628 42.8678C38.1521 42.8577 38.8002 43.4894 38.8102 44.2787ZM50.2436 44.133C50.2536 44.919 50.905 45.5539 51.691 45.5439L51.6546 42.6856C50.8685 42.6956 50.2336 43.3469 50.2436 44.133ZM-119.664 59.1642C-118.878 59.1541 -118.227 59.7891 -118.217 60.5751C-118.207 61.3612 -118.842 62.0125 -119.628 62.0225L-119.664 59.1642ZM-105.336 61.8403C-104.547 61.8302 -103.915 61.1822 -103.925 60.3928C-103.935 59.6035 -104.583 58.9718 -105.372 58.9819C-106.162 58.992 -106.794 59.64 -106.783 60.4293C-106.773 61.2186 -106.125 61.8503 -105.336 61.8403ZM-89.6333 60.2106C-89.6232 60.9999 -90.2549 61.648 -91.0442 61.658C-91.8335 61.6681 -92.4816 61.0364 -92.4916 60.2471C-92.5017 59.4578 -91.87 58.8097 -91.0807 58.7997C-90.2914 58.7896 -89.6433 59.4213 -89.6333 60.2106ZM-76.7525 61.4758C-75.9632 61.4657 -75.3315 60.8177 -75.3416 60.0284C-75.3516 59.2391 -75.9997 58.6074 -76.789 58.6174C-77.5783 58.6275 -78.21 59.2755 -78.1999 60.0648C-78.1898 60.8541 -77.5418 61.4859 -76.7525 61.4758ZM-61.0498 59.8462C-61.0398 60.6355 -61.6715 61.2835 -62.4608 61.2936C-63.2501 61.3036 -63.8981 60.6719 -63.9082 59.8826C-63.9183 59.0933 -63.2866 58.4453 -62.4972 58.4352C-61.7079 58.4251 -61.0599 59.0568 -61.0498 59.8462ZM-48.169 61.1113C-47.3797 61.1013 -46.748 60.4532 -46.758 59.6639C-46.7681 58.8746 -47.4161 58.2429 -48.2054 58.253C-48.9947 58.263 -49.6264 58.9111 -49.6164 59.7004C-49.6063 60.4897 -48.9583 61.1214 -48.169 61.1113ZM-32.4663 59.4817C-32.4563 60.271 -33.088 60.919 -33.8773 60.9291C-34.6666 60.9391 -35.3146 60.3074 -35.3247 59.5181C-35.3347 58.7288 -34.703 58.0808 -33.9137 58.0707C-33.1244 58.0606 -32.4764 58.6923 -32.4663 59.4817ZM-19.5855 60.7469C-18.7962 60.7368 -18.1645 60.0888 -18.1746 59.2995C-18.1846 58.5102 -18.8327 57.8785 -19.622 57.8885C-20.4113 57.8986 -21.043 58.5466 -21.033 59.3359C-21.0229 60.1252 -20.3749 60.7569 -19.5855 60.7469ZM-3.88285 59.1172C-3.87278 59.9065 -4.5045 60.5545 -5.29381 60.5646C-6.08313 60.5747 -6.73116 59.943 -6.74123 59.1536C-6.75129 58.3643 -6.11958 57.7163 -5.33026 57.7062C-4.54094 57.6962 -3.89291 58.3279 -3.88285 59.1172ZM8.99798 60.3824C9.7873 60.3723 10.419 59.7243 10.409 58.935C10.3989 58.1457 9.75086 57.5139 8.96154 57.524C8.17223 57.5341 7.54052 58.1821 7.55059 58.9714C7.56065 59.7607 8.20867 60.3924 8.99798 60.3824ZM24.7007 58.7527C24.7107 59.5421 24.079 60.1901 23.2897 60.2001C22.5004 60.2102 21.8524 59.5785 21.8423 58.7892C21.8322 57.9999 22.4639 57.3518 23.2533 57.3418C24.0426 57.3317 24.6906 57.9634 24.7007 58.7527ZM37.5815 60.0179C38.3708 60.0078 39.0025 59.3598 38.9925 58.5705C38.9824 57.7812 38.3344 57.1495 37.5451 57.1596C36.7558 57.1696 36.1241 57.8176 36.1341 58.607C36.1442 59.3963 36.7922 60.028 37.5815 60.0179ZM51.8733 59.8357C51.0872 59.8457 50.4359 59.2108 50.4258 58.4247C50.4158 57.6387 51.0508 56.9873 51.8368 56.9773L51.8733 59.8357ZM-118.035 74.8668C-118.045 74.0808 -118.696 73.4459 -119.482 73.4559L-119.446 76.3142C-118.66 76.3042 -118.025 75.6529 -118.035 74.8668ZM-103.743 74.6847C-103.733 75.474 -104.365 76.122 -105.154 76.1321C-105.943 76.1421 -106.591 75.5104 -106.601 74.7211C-106.611 73.9318 -105.98 73.2838 -105.19 73.2737C-104.401 73.2636 -103.753 73.8953 -103.743 74.6847ZM-90.8621 75.9498C-90.0728 75.9397 -89.4411 75.2917 -89.4512 74.5024C-89.4612 73.7131 -90.1092 73.0814 -90.8985 73.0914C-91.6879 73.1015 -92.3196 73.7495 -92.3095 74.5388C-92.2994 75.3281 -91.6514 75.9598 -90.8621 75.9498ZM-75.1593 74.3202C-75.1493 75.1095 -75.781 75.7575 -76.5703 75.7676C-77.3596 75.7776 -78.0076 75.1459 -78.0177 74.3566C-78.0277 73.5673 -77.396 72.9193 -76.6067 72.9092C-75.8174 72.8991 -75.1694 73.5308 -75.1593 74.3202ZM-62.2785 75.5853C-61.4892 75.5752 -60.8574 74.9272 -60.8675 74.1379C-60.8776 73.3486 -61.5256 72.7169 -62.3149 72.7269C-63.1042 72.737 -63.7359 73.385 -63.7259 74.1743C-63.7158 74.9636 -63.0678 75.5953 -62.2785 75.5853ZM-46.5758 73.9557C-46.5657 74.745 -47.1974 75.393 -47.9867 75.4031C-48.7761 75.4132 -49.4241 74.7815 -49.4342 73.9921C-49.4442 73.2028 -48.8125 72.5548 -48.0232 72.5447C-47.2339 72.5347 -46.5859 73.1664 -46.5758 73.9557ZM-33.695 75.2208C-32.9057 75.2108 -32.274 74.5627 -32.2841 73.7734C-32.2942 72.9841 -32.9422 72.3524 -33.7315 72.3625C-34.5208 72.3725 -35.1525 73.0205 -35.1424 73.8099C-35.1324 74.5992 -34.4844 75.2309 -33.695 75.2208ZM-17.9922 73.5912C-17.9822 74.3805 -18.6139 75.0285 -19.4032 75.0386C-20.1925 75.0487 -20.8406 74.417 -20.8506 73.6276C-20.8607 72.8383 -20.229 72.1903 -19.4397 72.1802C-18.6503 72.1702 -18.0023 72.8019 -17.9922 73.5912ZM-5.11149 74.8564C-4.32217 74.8463 -3.69046 74.1983 -3.70052 73.409C-3.71059 72.6196 -4.35862 71.9879 -5.14793 71.998C-5.93725 72.0081 -6.56897 72.6561 -6.5589 73.4454C-6.54884 74.2347 -5.90081 74.8664 -5.11149 74.8564ZM10.5912 73.2267C10.6012 74.016 9.96954 74.6641 9.18022 74.6741C8.3909 74.6842 7.74288 74.0525 7.73281 73.2632C7.72275 72.4739 8.35445 71.8258 9.14377 71.8158C9.93309 71.8057 10.5811 72.4374 10.5912 73.2267ZM23.472 74.4919C24.2613 74.4818 24.893 73.8338 24.8829 73.0445C24.8728 72.2552 24.2248 71.6235 23.4355 71.6335C22.6462 71.6436 22.0145 72.2916 22.0245 73.0809C22.0346 73.8703 22.6826 74.502 23.472 74.4919ZM39.1747 72.8623C39.1847 73.6516 38.553 74.2996 37.7637 74.3097C36.9744 74.3197 36.3264 73.688 36.3163 72.8987C36.3063 72.1094 36.938 71.4614 37.7273 71.4513C38.5166 71.4413 39.1646 72.073 39.1747 72.8623ZM50.6081 72.7165C50.6181 73.5025 51.2694 74.1375 52.0555 74.1274L52.019 71.2691C51.233 71.2791 50.598 71.9304 50.6081 72.7165ZM-119.3 87.7477C-118.514 87.7376 -117.862 88.3726 -117.852 89.1586C-117.842 89.9446 -118.477 90.596 -119.263 90.606L-119.3 87.7477ZM-104.972 90.4238C-104.182 90.4137 -103.551 89.7657 -103.561 88.9764C-103.571 88.1871 -104.219 87.5554 -105.008 87.5654C-105.797 87.5755 -106.429 88.2235 -106.419 89.0128C-106.409 89.8021 -105.761 90.4338 -104.972 90.4238ZM-89.2688 88.7941C-89.2588 89.5834 -89.8905 90.2314 -90.6798 90.2415C-91.4691 90.2515 -92.1171 89.6199 -92.1272 88.8305C-92.1372 88.0412 -91.5055 87.3932 -90.7162 87.3831C-89.9269 87.3731 -89.2789 88.0048 -89.2688 88.7941ZM-76.3881 90.0593C-75.5987 90.0492 -74.967 89.4012 -74.9771 88.6119C-74.9872 87.8226 -75.6352 87.1909 -76.4245 87.201C-77.2138 87.211 -77.8455 87.859 -77.8355 88.6484C-77.8254 89.4377 -77.1774 90.0694 -76.3881 90.0593ZM-60.6854 88.4296C-60.6753 89.2189 -61.307 89.867 -62.0963 89.877C-62.8856 89.8871 -63.5337 89.2554 -63.5437 88.4661C-63.5538 87.6768 -62.9221 87.0288 -62.1328 87.0187C-61.3435 87.0086 -60.6954 87.6403 -60.6854 88.4296ZM-47.8046 89.6948C-47.0153 89.6847 -46.3836 89.0367 -46.3937 88.2474C-46.4037 87.4581 -47.0518 86.8264 -47.8411 86.8365C-48.6304 86.8465 -49.2621 87.4945 -49.252 88.2839C-49.242 89.0732 -48.5939 89.7049 -47.8046 89.6948ZM-32.1019 88.0652C-32.0918 88.8545 -32.7235 89.5025 -33.5128 89.5126C-34.3021 89.5226 -34.9501 88.8909 -34.9602 88.1016C-34.9703 87.3123 -34.3386 86.6643 -33.5493 86.6542C-32.7599 86.6442 -32.1119 87.2759 -32.1019 88.0652ZM-19.221 89.3304C-18.4317 89.3203 -17.8 88.6723 -17.81 87.883C-17.8201 87.0936 -18.4681 86.4619 -19.2574 86.472C-20.0467 86.4821 -20.6785 87.1301 -20.6684 87.9194C-20.6583 88.7087 -20.0103 89.3404 -19.221 89.3304ZM-3.51829 87.7007C-3.50823 88.49 -4.13994 89.1381 -4.92926 89.1481C-5.71858 89.1582 -6.36661 88.5265 -6.37667 87.7372C-6.38674 86.9479 -5.75503 86.2998 -4.96571 86.2898C-4.17639 86.2797 -3.52836 86.9114 -3.51829 87.7007ZM9.36255 88.9659C10.1519 88.9558 10.7836 88.3078 10.7735 87.5185C10.7634 86.7292 10.1154 86.0975 9.3261 86.1075C8.53678 86.1176 7.90508 86.7656 7.91514 87.5549C7.92521 88.3442 8.57323 88.9759 9.36255 88.9659ZM25.0652 87.3363C25.0753 88.1256 24.4436 88.7736 23.6543 88.7837C22.865 88.7937 22.2169 88.162 22.2069 87.3727C22.1968 86.5834 22.8285 85.9354 23.6178 85.9253C24.4071 85.9152 25.0552 86.547 25.0652 87.3363ZM37.946 88.6014C38.7353 88.5913 39.367 87.9433 39.3569 87.154C39.3468 86.3647 38.6988 85.733 37.9095 85.743C37.1202 85.7531 36.4885 86.4011 36.4986 87.1904C36.5086 87.9797 37.1567 88.6114 37.946 88.6014ZM52.2377 88.4192C51.4517 88.4292 50.8003 87.7943 50.7903 87.0083C50.7803 86.2222 51.4152 85.5709 52.2013 85.5609L52.2377 88.4192ZM-117.67 103.45C-117.68 102.664 -118.331 102.029 -119.118 102.039L-119.081 104.898C-118.295 104.888 -117.66 104.236 -117.67 103.45ZM-103.378 103.268C-103.368 104.057 -104 104.705 -104.789 104.716C-105.579 104.726 -106.227 104.094 -106.237 103.305C-106.247 102.515 -105.615 101.867 -104.826 101.857C-104.036 101.847 -103.388 102.479 -103.378 103.268ZM-90.4975 104.533C-89.7082 104.523 -89.0765 103.875 -89.0866 103.086C-89.0967 102.297 -89.7447 101.665 -90.534 101.675C-91.3233 101.685 -91.955 102.333 -91.9449 103.122C-91.9349 103.912 -91.2869 104.543 -90.4975 104.533ZM-74.7949 102.904C-74.7848 103.693 -75.4165 104.341 -76.2058 104.351C-76.9951 104.361 -77.6432 103.729 -77.6532 102.94C-77.6633 102.151 -77.0316 101.503 -76.2423 101.493C-75.453 101.483 -74.8049 102.114 -74.7949 102.904ZM-61.9141 104.169C-61.1248 104.159 -60.4931 103.511 -60.5032 102.721C-60.5132 101.932 -61.1612 101.3 -61.9506 101.311C-62.7399 101.321 -63.3716 101.969 -63.3615 102.758C-63.3514 103.547 -62.7034 104.179 -61.9141 104.169ZM-46.2113 102.539C-46.2013 103.328 -46.833 103.977 -47.6223 103.987C-48.4116 103.997 -49.0596 103.365 -49.0697 102.576C-49.0798 101.786 -48.4481 101.138 -47.6587 101.128C-46.8694 101.118 -46.2214 101.75 -46.2113 102.539ZM-33.3306 103.804C-32.5413 103.794 -31.9096 103.146 -31.9196 102.357C-31.9297 101.568 -32.5777 100.936 -33.367 100.946C-34.1563 100.956 -34.788 101.604 -34.778 102.393C-34.7679 103.183 -34.1199 103.814 -33.3306 103.804ZM-17.6279 102.175C-17.6178 102.964 -18.2495 103.612 -19.0389 103.622C-19.8282 103.632 -20.4762 103 -20.4863 102.211C-20.4963 101.422 -19.8646 100.774 -19.0753 100.764C-18.286 100.754 -17.638 101.385 -17.6279 102.175ZM-4.74713 103.44C-3.95781 103.43 -3.3261 102.782 -3.33616 101.992C-3.34623 101.203 -3.99426 100.571 -4.78358 100.582C-5.5729 100.592 -6.20461 101.24 -6.19454 102.029C-6.18448 102.818 -5.53645 103.45 -4.74713 103.44ZM10.9556 101.81C10.9657 102.6 10.334 103.248 9.54468 103.258C8.75536 103.268 8.10733 102.636 8.09727 101.847C8.08721 101.057 8.71891 100.409 9.50823 100.399C10.2975 100.389 10.9456 101.021 10.9556 101.81ZM23.8365 103.075C24.6258 103.065 25.2575 102.417 25.2474 101.628C25.2374 100.839 24.5894 100.207 23.8001 100.217C23.0107 100.227 22.379 100.875 22.3891 101.664C22.3991 102.454 23.0472 103.086 23.8365 103.075ZM39.5392 101.446C39.5493 102.235 38.9176 102.883 38.1283 102.893C37.339 102.903 36.691 102.272 36.6809 101.482C36.6708 100.693 37.3025 100.045 38.0919 100.035C38.8812 100.025 39.5292 100.656 39.5392 101.446ZM50.9725 101.3C50.9825 102.086 51.6339 102.721 52.4199 102.711L52.3835 99.8526C51.5974 99.8626 50.9625 100.514 50.9725 101.3ZM-118.935 116.331C-118.149 116.321 -117.498 116.956 -117.488 117.742C-117.478 118.528 -118.113 119.18 -118.899 119.19L-118.935 116.331ZM-104.607 119.007C-103.818 118.997 -103.186 118.349 -103.196 117.56C-103.206 116.771 -103.854 116.139 -104.644 116.149C-105.433 116.159 -106.065 116.807 -106.055 117.596C-106.044 118.386 -105.396 119.017 -104.607 119.007ZM-88.9044 117.378C-88.8943 118.167 -89.526 118.815 -90.3153 118.825C-91.1046 118.835 -91.7526 118.203 -91.7627 117.414C-91.7728 116.625 -91.1411 115.977 -90.3518 115.967C-89.5625 115.957 -88.9144 116.588 -88.9044 117.378ZM-76.0236 118.643C-75.2343 118.633 -74.6026 117.985 -74.6126 117.195C-74.6227 116.406 -75.2707 115.774 -76.06 115.784C-76.8494 115.794 -77.4811 116.442 -77.471 117.232C-77.4609 118.021 -76.8129 118.653 -76.0236 118.643ZM-60.3208 117.013C-60.3108 117.802 -60.9425 118.45 -61.7318 118.461C-62.5211 118.471 -63.1691 117.839 -63.1792 117.05C-63.1892 116.26 -62.5575 115.612 -61.7682 115.602C-60.9789 115.592 -60.3309 116.224 -60.3208 117.013ZM-47.4401 118.278C-46.6507 118.268 -46.019 117.62 -46.0291 116.831C-46.0392 116.042 -46.6872 115.41 -47.4765 115.42C-48.2658 115.43 -48.8975 116.078 -48.8875 116.867C-48.8774 117.657 -48.2294 118.288 -47.4401 118.278ZM-31.7374 116.649C-31.7273 117.438 -32.359 118.086 -33.1483 118.096C-33.9377 118.106 -34.5857 117.474 -34.5957 116.685C-34.6058 115.896 -33.9741 115.248 -33.1848 115.238C-32.3955 115.228 -31.7475 115.859 -31.7374 116.649ZM-18.8565 117.914C-18.0672 117.904 -17.4355 117.256 -17.4456 116.466C-17.4556 115.677 -18.1037 115.045 -18.893 115.055C-19.6823 115.066 -20.314 115.714 -20.3039 116.503C-20.2939 117.292 -19.6458 117.924 -18.8565 117.914ZM-3.15384 116.284C-3.14377 117.073 -3.77548 117.722 -4.5648 117.732C-5.35412 117.742 -6.00215 117.11 -6.01222 116.321C-6.02228 115.531 -5.39057 114.883 -4.60125 114.873C-3.81193 114.863 -3.1639 115.495 -3.15384 116.284ZM9.7269 117.549C10.5162 117.539 11.1479 116.891 11.1379 116.102C11.1278 115.313 10.4798 114.681 9.69045 114.691C8.90114 114.701 8.26943 115.349 8.2795 116.138C8.28956 116.928 8.93759 117.559 9.7269 117.549ZM25.4297 115.92C25.4397 116.709 24.8081 117.357 24.0187 117.367C23.2294 117.377 22.5814 116.745 22.5713 115.956C22.5613 115.167 23.193 114.519 23.9823 114.509C24.7716 114.499 25.4196 115.13 25.4297 115.92ZM38.3104 117.185C39.0997 117.175 39.7314 116.527 39.7214 115.737C39.7113 114.948 39.0633 114.316 38.274 114.327C37.4847 114.337 36.853 114.985 36.863 115.774C36.8731 116.563 37.5211 117.195 38.3104 117.185ZM52.6022 117.003C51.8161 117.013 51.1648 116.378 51.1548 115.592C51.1447 114.806 51.7797 114.154 52.5657 114.144L52.6022 117.003ZM-117.306 132.034C-117.316 131.248 -117.967 130.613 -118.753 130.623L-118.717 133.481C-117.93 133.471 -117.296 132.82 -117.306 132.034ZM-103.014 131.852C-103.004 132.641 -103.636 133.289 -104.425 133.299C-105.214 133.309 -105.862 132.677 -105.872 131.888C-105.882 131.099 -105.251 130.451 -104.461 130.441C-103.672 130.431 -103.024 131.062 -103.014 131.852ZM-90.1331 133.117C-89.3438 133.107 -88.7121 132.459 -88.7221 131.669C-88.7322 130.88 -89.3802 130.248 -90.1695 130.258C-90.9588 130.269 -91.5906 130.917 -91.5805 131.706C-91.5704 132.495 -90.9224 133.127 -90.1331 133.117ZM-74.4304 131.487C-74.4204 132.276 -75.0521 132.925 -75.8414 132.935C-76.6307 132.945 -77.2787 132.313 -77.2888 131.524C-77.2988 130.734 -76.6671 130.086 -75.8778 130.076C-75.0885 130.066 -74.4405 130.698 -74.4304 131.487ZM-61.5496 132.752C-60.7603 132.742 -60.1286 132.094 -60.1387 131.305C-60.1488 130.516 -60.7968 129.884 -61.5861 129.894C-62.3754 129.904 -63.0071 130.552 -62.9971 131.341C-62.987 132.131 -62.339 132.762 -61.5496 132.752ZM-45.8469 131.123C-45.8368 131.912 -46.4685 132.56 -47.2578 132.57C-48.0471 132.58 -48.6952 131.948 -48.7052 131.159C-48.7153 130.37 -48.0836 129.722 -47.2943 129.712C-46.505 129.702 -45.8569 130.333 -45.8469 131.123ZM-32.966 132.388C-32.1767 132.378 -31.545 131.73 -31.5551 130.94C-31.5651 130.151 -32.2132 129.519 -33.0025 129.53C-33.7918 129.54 -34.4235 130.188 -34.4134 130.977C-34.4034 131.766 -33.7553 132.398 -32.966 132.388ZM-17.2633 130.758C-17.2533 131.548 -17.885 132.196 -18.6743 132.206C-19.4636 132.216 -20.1116 131.584 -20.1217 130.795C-20.1318 130.005 -19.5001 129.357 -18.7107 129.347C-17.9214 129.337 -17.2734 129.969 -17.2633 130.758ZM-4.38258 132.023C-3.59326 132.013 -2.96154 131.365 -2.97161 130.576C-2.98167 129.787 -3.6297 129.155 -4.41902 129.165C-5.20834 129.175 -5.84005 129.823 -5.82999 130.612C-5.81992 131.402 -5.17189 132.033 -4.38258 132.023ZM11.3202 130.394C11.3303 131.183 10.6985 131.831 9.90922 131.841C9.11991 131.851 8.47189 131.22 8.46183 130.43C8.45176 129.641 9.08347 128.993 9.87278 128.983C10.6621 128.973 11.3101 129.604 11.3202 130.394ZM24.201 131.659C24.9903 131.649 25.622 131.001 25.6119 130.212C25.6018 129.422 24.9538 128.79 24.1645 128.801C23.3752 128.811 22.7435 129.459 22.7535 130.248C22.7636 131.037 23.4116 131.669 24.201 131.659ZM39.9036 130.029C39.9137 130.819 39.282 131.467 38.4927 131.477C37.7033 131.487 37.0553 130.855 37.0453 130.066C37.0352 129.276 37.6669 128.628 38.4562 128.618C39.2455 128.608 39.8935 129.24 39.9036 130.029ZM51.337 129.883C51.347 130.67 51.9983 131.304 52.7844 131.294L52.7479 128.436C51.9619 128.446 51.3269 129.097 51.337 129.883ZM-118.571 144.915C-117.785 144.905 -117.133 145.54 -117.123 146.326C-117.113 147.112 -117.748 147.763 -118.534 147.773L-118.571 144.915ZM-104.243 147.591C-103.453 147.581 -102.822 146.933 -102.832 146.143C-102.842 145.354 -103.49 144.722 -104.279 144.732C-105.068 144.742 -105.7 145.391 -105.69 146.18C-105.68 146.969 -105.032 147.601 -104.243 147.591ZM-88.5399 145.961C-88.5298 146.75 -89.1615 147.399 -89.9509 147.409C-90.7402 147.419 -91.3882 146.787 -91.3983 145.998C-91.4083 145.208 -90.7766 144.56 -89.9873 144.55C-89.198 144.54 -88.55 145.172 -88.5399 145.961ZM-75.6591 147.226C-74.8698 147.216 -74.2381 146.568 -74.2482 145.779C-74.2583 144.99 -74.9063 144.358 -75.6956 144.368C-76.4849 144.378 -77.1166 145.026 -77.1065 145.815C-77.0965 146.605 -76.4485 147.236 -75.6591 147.226ZM-59.9565 145.597C-59.9464 146.386 -60.5781 147.034 -61.3674 147.044C-62.1567 147.054 -62.8048 146.422 -62.8148 145.633C-62.8249 144.844 -62.1932 144.196 -61.4039 144.186C-60.6146 144.176 -59.9665 144.807 -59.9565 145.597ZM-47.0756 146.862C-46.2863 146.852 -45.6546 146.204 -45.6646 145.414C-45.6747 144.625 -46.3227 143.993 -47.112 144.004C-47.9014 144.014 -48.5331 144.662 -48.523 145.451C-48.5129 146.24 -47.8649 146.872 -47.0756 146.862ZM-31.3729 145.232C-31.3629 146.022 -31.9946 146.67 -32.7839 146.68C-33.5732 146.69 -34.2212 146.058 -34.2313 145.269C-34.2414 144.479 -33.6097 143.831 -32.8203 143.821C-32.031 143.811 -31.383 144.443 -31.3729 145.232ZM-18.4922 146.497C-17.7029 146.487 -17.0711 145.839 -17.0812 145.05C-17.0913 144.261 -17.7393 143.629 -18.5286 143.639C-19.3179 143.649 -19.9496 144.297 -19.9396 145.086C-19.9295 145.876 -19.2815 146.507 -18.4922 146.497ZM-2.78938 144.868C-2.77932 145.657 -3.41103 146.305 -4.20035 146.315C-4.98967 146.325 -5.6377 145.694 -5.64776 144.904C-5.65783 144.115 -5.02611 143.467 -4.23679 143.457C-3.44748 143.447 -2.79945 144.078 -2.78938 144.868ZM10.0915 146.133C10.8808 146.123 11.5125 145.475 11.5024 144.686C11.4923 143.896 10.8443 143.264 10.055 143.275C9.26569 143.285 8.63399 143.933 8.64405 144.722C8.65412 145.511 9.30214 146.143 10.0915 146.133ZM25.7941 144.503C25.8042 145.293 25.1725 145.941 24.3832 145.951C23.5939 145.961 22.9458 145.329 22.9358 144.54C22.9257 143.75 23.5574 143.102 24.3467 143.092C25.1361 143.082 25.7841 143.714 25.7941 144.503ZM38.675 145.768C39.4643 145.758 40.096 145.11 40.0859 144.321C40.0759 143.532 39.4278 142.9 38.6385 142.91C37.8492 142.92 37.2175 143.568 37.2276 144.358C37.2376 145.147 37.8857 145.779 38.675 145.768ZM52.9666 145.586C52.1806 145.596 51.5292 144.961 51.5192 144.175C51.5092 143.389 52.1441 142.738 52.9302 142.728L52.9666 145.586ZM-116.941 160.617C-116.951 159.831 -117.603 159.196 -118.389 159.206L-118.352 162.065C-117.566 162.055 -116.931 161.403 -116.941 160.617ZM-102.649 160.435C-102.639 161.224 -103.271 161.872 -104.06 161.883C-104.85 161.893 -105.498 161.261 -105.508 160.472C-105.518 159.682 -104.886 159.034 -104.097 159.024C-103.307 159.014 -102.659 159.646 -102.649 160.435ZM-89.7686 161.7C-88.9793 161.69 -88.3476 161.042 -88.3577 160.253C-88.3677 159.464 -89.0158 158.832 -89.8051 158.842C-90.5944 158.852 -91.2261 159.5 -91.216 160.289C-91.206 161.079 -90.5579 161.71 -89.7686 161.7ZM-74.0659 160.071C-74.0558 160.86 -74.6875 161.508 -75.4768 161.518C-76.2661 161.528 -76.9141 160.896 -76.9242 160.107C-76.9343 159.318 -76.3026 158.67 -75.5133 158.66C-74.7239 158.65 -74.0759 159.281 -74.0659 160.071ZM-61.1851 161.336C-60.3958 161.326 -59.7641 160.678 -59.7741 159.888C-59.7842 159.099 -60.4322 158.467 -61.2215 158.477C-62.0109 158.488 -62.6426 159.136 -62.6325 159.925C-62.6224 160.714 -61.9744 161.346 -61.1851 161.336ZM-45.4824 159.706C-45.4723 160.496 -46.1041 161.144 -46.8934 161.154C-47.6827 161.164 -48.3307 160.532 -48.3408 159.743C-48.3508 158.953 -47.7191 158.305 -46.9298 158.295C-46.1405 158.285 -45.4925 158.917 -45.4824 159.706ZM-32.6017 160.971C-31.8124 160.961 -31.1806 160.313 -31.1907 159.524C-31.2008 158.735 -31.8488 158.103 -32.6381 158.113C-33.4274 158.123 -34.0591 158.771 -34.0491 159.56C-34.039 160.35 -33.391 160.981 -32.6017 160.971ZM-16.8989 159.342C-16.8888 160.131 -17.5205 160.779 -18.3098 160.789C-19.0992 160.799 -19.7472 160.167 -19.7572 159.378C-19.7673 158.589 -19.1356 157.941 -18.3463 157.931C-17.557 157.921 -16.9089 158.552 -16.8989 159.342ZM-4.01812 160.607C-3.2288 160.597 -2.59709 159.949 -2.60715 159.16C-2.61722 158.37 -3.26525 157.739 -4.05457 157.749C-4.84388 157.759 -5.4756 158.407 -5.46553 159.196C-5.45547 159.985 -4.80744 160.617 -4.01812 160.607ZM11.6845 158.977C11.6946 159.767 11.0629 160.415 10.2736 160.425C9.48427 160.435 8.83625 159.803 8.82618 159.014C8.81612 158.224 9.44782 157.576 10.2371 157.566C11.0265 157.556 11.6745 158.188 11.6845 158.977ZM24.5654 160.242C25.3547 160.232 25.9864 159.584 25.9764 158.795C25.9663 158.006 25.3183 157.374 24.529 157.384C23.7396 157.394 23.1079 158.042 23.118 158.831C23.1281 159.621 23.7761 160.252 24.5654 160.242ZM40.268 158.613C40.2781 159.402 39.6464 160.05 38.8571 160.06C38.0678 160.07 37.4198 159.439 37.4097 158.649C37.3996 157.86 38.0313 157.212 38.8207 157.202C39.61 157.192 40.258 157.823 40.268 158.613ZM51.7015 158.467C51.7116 159.253 52.3629 159.888 53.1489 159.878L53.1125 157.02C52.3264 157.03 51.6915 157.681 51.7015 158.467ZM-118.188 174.927L-118.206 173.498C-117.42 173.488 -116.769 174.123 -116.759 174.909L-118.188 174.927ZM-103.915 173.316C-104.701 173.326 -105.336 173.977 -105.326 174.763L-102.467 174.727C-102.477 173.941 -103.129 173.306 -103.915 173.316ZM-91.0338 174.581C-91.0438 173.795 -90.4089 173.144 -89.6228 173.134C-88.8368 173.124 -88.1855 173.759 -88.1755 174.545L-91.0338 174.581ZM-75.3311 172.951C-76.1172 172.961 -76.7521 173.613 -76.7421 174.399L-73.8837 174.362C-73.8938 173.576 -74.5451 172.941 -75.3311 172.951ZM-62.4503 174.217C-62.4603 173.431 -61.8254 172.779 -61.0393 172.769C-60.2533 172.759 -59.6019 173.394 -59.5919 174.18L-62.4503 174.217ZM-46.7476 172.587C-47.5336 172.597 -48.1686 173.248 -48.1585 174.034L-45.3002 173.998C-45.3102 173.212 -45.9615 172.577 -46.7476 172.587ZM-33.8667 173.852C-33.8768 173.066 -33.2418 172.415 -32.4558 172.405C-31.6697 172.395 -31.0184 173.03 -31.0084 173.816L-33.8667 173.852ZM-18.1641 172.222C-18.9501 172.233 -19.585 172.884 -19.575 173.67L-16.7166 173.633C-16.7267 172.847 -17.378 172.212 -18.1641 172.222ZM-5.2833 173.488C-5.29333 172.702 -4.65839 172.05 -3.87234 172.04C-3.08629 172.03 -2.43495 172.665 -2.42493 173.451L-5.2833 173.488ZM10.4195 171.858C9.63342 171.868 8.99849 172.519 9.00852 173.305L11.8669 173.269C11.8569 172.483 11.2055 171.848 10.4195 171.858ZM23.3002 173.123C23.2902 172.337 23.9251 171.686 24.7112 171.676C25.4973 171.666 26.1486 172.301 26.1586 173.087L23.3002 173.123ZM39.0029 171.494C38.2168 171.504 37.5819 172.155 37.5919 172.941L40.4503 172.905C40.4403 172.118 39.7889 171.484 39.0029 171.494ZM51.8837 172.759C51.8736 171.973 52.5086 171.321 53.2946 171.311L53.3129 172.74L51.8837 172.759Z" fill="#55BC7E"/>
</g>
</svg>
