<?xml version="1.0" encoding="UTF-8"?>
<!DOCTYPE svg PUBLIC "-//W3C//DTD SVG 1.1//EN" "http://www.w3.org/Graphics/SVG/1.1/DTD/svg11.dtd">
<!-- Creator: CorelDRAW 2019 (64-Bit) -->
<svg xmlns="http://www.w3.org/2000/svg" xml:space="preserve" width="7.14114in" height="10.2454in" version="1.1" style="shape-rendering:geometricPrecision; text-rendering:geometricPrecision; image-rendering:optimizeQuality; fill-rule:evenodd; clip-rule:evenodd"
viewBox="0 0 683.35 980.41"
 xmlns:xlink="http://www.w3.org/1999/xlink">
 <defs>
  <style type="text/css">
   <![CDATA[
    .str0 {stroke:#CCCCCC;stroke-width:1.33;stroke-miterlimit:2.61313;stroke-opacity:0.149020}
    .fil0 {fill:none}
   ]]>
  </style>
 </defs>
 <g id="Layer_x0020_1">
  <metadata id="CorelCorpID_0Corel-Layer"/>
  <g id="_2406178825104">
   <g>
    <path class="fil0 str0" d="M682.7 509.92c-20.27,98.83 -15.63,190.94 0,285.34"/>
   </g>
   <g>
    <path class="fil0 str0" d="M682.7 377.87c-81.06,196.36 -64.47,378.26 0,553.07"/>
   </g>
   <g>
    <path class="fil0 str0" d="M682.7 288.64c-123.71,254.58 -118.29,482.96 -14.93,691.47"/>
   </g>
   <g>
    <path class="fil0 str0" d="M682.7 217.39c-139.6,201.56 -200.11,476.07 -60.27,762.72"/>
   </g>
   <g>
    <path class="fil0 str0" d="M682.7 164.16c-194.08,234.05 -244.78,502.52 -108.29,815.95"/>
   </g>
   <g>
    <path class="fil0 str0" d="M682.7 113.2c-268.97,296.74 -275.64,584.12 -153.62,866.9"/>
   </g>
   <g>
    <path class="fil0 str0" d="M682.7 73.4c-264.66,228.91 -350.96,523.75 -198.9,906.7"/>
   </g>
   <g>
    <path class="fil0 str0" d="M682.7 39.46c-313.73,248.01 -396.09,582.62 -241.5,940.64"/>
   </g>
   <g>
    <path class="fil0 str0" d="M682.7 10.52c-329.51,220.14 -455.06,592.58 -286.79,969.59"/>
   </g>
   <g>
    <path class="fil0 str0" d="M654.86 0.59c-377.47,240.48 -471.61,650.57 -304.27,979.52"/>
   </g>
   <g>
    <path class="fil0 str0" d="M609.48 0.59c-329.87,191.27 -482.87,584.09 -306.9,979.52"/>
   </g>
   <g>
    <path class="fil0 str0" d="M564.11 0.59c-337.75,208.44 -484.56,580.4 -306.86,979.52"/>
   </g>
   <g>
    <path class="fil0 str0" d="M211.93 980.11c-163.09,-376.74 -67.93,-752.47 307.01,-979.52"/>
   </g>
   <g>
    <path class="fil0 str0" d="M478.65 0.59c-373.23,208.06 -476.29,628.02 -312.03,979.52"/>
   </g>
   <g>
    <path class="fil0 str0" d="M430.85 0.59c-318.75,180.86 -494.95,557.06 -309.51,979.52"/>
   </g>
   <g>
    <path class="fil0 str0" d="M388 0.59c-340.58,174.82 -489.61,606.46 -311.96,979.52"/>
   </g>
  </g>
 </g>
</svg>
