<?xml version="1.0" encoding="UTF-8"?>
<!DOCTYPE svg PUBLIC "-//W3C//DTD SVG 1.1//EN" "http://www.w3.org/Graphics/SVG/1.1/DTD/svg11.dtd">
<!-- Creator: CorelDRAW 2018 (64-Bit) -->
<svg xmlns="http://www.w3.org/2000/svg" xml:space="preserve" width="2.28942in" height="1.59378in" version="1.1" style="shape-rendering:geometricPrecision; text-rendering:geometricPrecision; image-rendering:optimizeQuality; fill-rule:evenodd; clip-rule:evenodd"
viewBox="0 0 2289.42 1593.78"
 xmlns:xlink="http://www.w3.org/1999/xlink">
 <defs>
  <style type="text/css">
   <![CDATA[
    .fil6 {fill:black}
    .fil16 {fill:#050D17}
    .fil18 {fill:#060E19}
    .fil13 {fill:#097210}
    .fil17 {fill:#0B182A}
    .fil20 {fill:#131313}
    .fil8 {fill:#1A1A1A}
    .fil24 {fill:#1B810E}
    .fil9 {fill:#1B810E}
    .fil22 {fill:#333333}
    .fil34 {fill:#394452}
    .fil28 {fill:#46A509}
    .fil2 {fill:#46A509}
    .fil25 {fill:#4D4D4D}
    .fil27 {fill:#77CE02}
    .fil12 {fill:#80BAE6}
    .fil5 {fill:#81D701}
    .fil4 {fill:#89DE00}
    .fil3 {fill:#AAE746}
    .fil26 {fill:#BCEA79}
    .fil33 {fill:#CCCCCC}
    .fil14 {fill:#E4BA93}
    .fil15 {fill:#EFCAA8}
    .fil10 {fill:#EFEDF7}
    .fil32 {fill:#F2B1A5}
    .fil31 {fill:#F2BCC1}
    .fil30 {fill:#FFF2D1}
    .fil7 {fill:white}
    .fil11 {fill:white}
    .fil29 {fill:white}
    .fil1 {fill:#DFF5B8;fill-rule:nonzero}
    .fil0 {fill:#BABCBD;fill-rule:nonzero}
    .fil19 {fill:url(#id0)}
    .fil23 {fill:url(#id1)}
    .fil21 {fill:url(#id2)}
   ]]>
  </style>
  <linearGradient id="id0" gradientUnits="userSpaceOnUse" x1="1384.28" y1="753.47" x2="1618.43" y2="753.56">
   <stop offset="0" style="stop-opacity:1; stop-color:#89DE00"/>
   <stop offset="1" style="stop-opacity:1; stop-color:#097210"/>
  </linearGradient>
  <linearGradient id="id1" gradientUnits="userSpaceOnUse" xlink:href="#id0" x1="1410.99" y1="769.5" x2="1837.96" y2="769.74">
  </linearGradient>
  <linearGradient id="id2" gradientUnits="userSpaceOnUse" xlink:href="#id0" x1="1383.51" y1="703.66" x2="1433.77" y2="703.67">
  </linearGradient>
 </defs>
 <g id="Layer_x0020_1">
  <metadata id="CorelCorpID_0Corel-Layer"/>
  <g id="_777417813856">
   <path class="fil0" d="M2288.78 1453.47c0,77.49 -494.92,140.3 -1105.44,140.3 -610.52,0 -1105.45,-62.81 -1105.45,-140.3 0,-77.49 494.92,-140.31 1105.45,-140.31 610.52,0 1105.44,62.82 1105.44,140.31z"/>
   <path class="fil1" d="M2180.44 1416.51l-1812.41 -0.62c31.45,33.77 61.22,51.68 61.22,51.68l0 0 -100.8 -24.39c-8.6,-9.06 -16.09,-18.19 -22.63,-27.32l-98.05 -0.03c0,0 -333.37,-459.44 -155.57,-766.78 177.79,-307.36 437.47,-90.39 459.12,-312.44 0.74,-7.52 0.15,-14.95 0.15,-22.22 -0.01,-1.73 0.02,-3.43 0.11,-5.14 6.65,-127.52 89.86,-209.93 199.67,-257.35 3.55,-1.54 7.12,-3.03 10.71,-4.48 175.1,-70.96 411.88,-56.37 516.69,4.65 178.33,103.81 177.22,228.76 545.49,187.55 368.25,-41.21 438.49,303.45 342.63,479.04 -136.04,249.17 377.17,208.24 53.66,697.85z"/>
   <path class="fil2" d="M736.25 327.09l320.53 0c23.28,0 42.33,19.05 42.33,42.33l0 174.57 0 12.92 0 111.12c0,1.95 -1.11,3.62 -2.91,4.37 -1.81,0.74 -3.77,0.35 -5.15,-1.02l-72.13 -72.13 -282.67 0c-23.28,0 -42.33,-19.05 -42.33,-42.33l0 -187.49c0,-23.28 19.05,-42.33 42.33,-42.33z"/>
   <path class="fil3" d="M1378.45 1044.51c193.96,-18.29 157.8,182.16 32.73,308.52 -22.92,23.16 -59.48,54.85 -104.45,92.33l-389.38 0c150.65,-211.44 327.89,-388.29 461.1,-400.85z"/>
   <path class="fil4" d="M1064.19 1445.36c190.85,-190.03 363.89,-315.83 364.95,-316.6 3.49,-2.56 8.4,-1.8 10.96,1.69 2.56,3.5 1.8,8.41 -1.69,10.96 -1.04,0.76 -166.74,121.23 -352.15,303.95l-22.07 0z"/>
   <path class="fil5" d="M1244.53 587.84c79.6,-25.07 82.45,62.14 41.41,126.3 -38.92,60.83 -209.78,249.67 -248.47,346.8l-20.97 -11.17c11.33,-144.93 126.13,-429.83 228.04,-461.93z"/>
   <path class="fil2" d="M1024.2 1053.88c48.78,-211.96 248.44,-434.53 249.12,-435.29 1.24,-1.39 3.36,-1.51 4.75,-0.28 1.38,1.23 1.5,3.36 0.27,4.74 -0.67,0.76 -200.57,223.59 -248.07,434.06l-6.07 -3.23z"/>
   <path class="fil3" d="M1288.77 719.41c78.9,-10.04 66.81,72.23 17.44,125.46 -40.9,44.1 -192.91,162.85 -265.76,248.51l-33.43 -12.61c48.8,-137.95 188.61,-349.52 281.74,-361.36z"/>
   <path class="fil4" d="M1019.23 1085.38c91.59,-176.92 290.61,-331.7 291.33,-332.27 1.39,-1.09 3.4,-0.84 4.49,0.55 1.09,1.39 0.85,3.4 -0.54,4.49 -0.71,0.56 -198.46,154.34 -289.34,329.47l-5.94 -2.24z"/>
   <path class="fil5" d="M1893.3 964.77l17.5 -66.63c6.09,-6.09 14.51,-9.86 23.81,-9.86 9.3,0 17.71,3.77 23.8,9.86 6.09,6.09 9.86,14.51 9.86,23.8 0,9.3 -3.77,17.71 -9.86,23.81 -6.09,6.09 -14.51,9.86 -23.8,9.86 -9.3,0 -17.71,-3.77 -23.81,-9.86 -6.09,-6.09 -9.86,-14.51 -9.86,-23.81 0,-9.29 3.77,-17.71 9.86,-23.8l-17.5 66.63zm24.77 -100l0 0c-4.66,1.35 -9.09,3.24 -13.19,5.62 -4.21,2.44 -8.1,5.37 -11.57,8.72 -0.68,0.65 -1.69,0.75 -2.47,0.3l-15.64 -9.03 -0.09 -0.05c-0.9,-0.49 -1.92,-0.58 -2.85,-0.33 -0.96,0.26 -1.83,0.88 -2.36,1.8l-0.06 0.1 -11.01 19.07c-0.53,0.92 -0.63,1.98 -0.37,2.94 0.26,0.96 0.87,1.82 1.8,2.35l0.11 0.07 15.51 8.96c0.81,0.47 1.19,1.41 0.98,2.28l0 0c-0.57,2.31 -1.01,4.68 -1.31,7.11 -0.29,2.37 -0.44,4.79 -0.44,7.25 0,2.46 0.15,4.88 0.44,7.25 0.3,2.43 0.74,4.81 1.31,7.11 0.23,0.96 -0.24,1.93 -1.1,2.35l-15.51 8.96 0 0c-0.93,0.53 -1.54,1.39 -1.8,2.36 -0.26,0.96 -0.16,2.02 0.37,2.94l11.07 19.17c0.54,0.92 1.4,1.54 2.36,1.8 0.96,0.26 2.02,0.15 2.93,-0.38l0.12 -0.06 15.54 -8.97c0.81,-0.46 1.81,-0.32 2.46,0.3 3.48,3.36 7.36,6.3 11.57,8.73 4.13,2.39 8.58,4.3 13.28,5.64 0.91,0.26 1.5,1.09 1.5,1.99l0 18.05c0,1.06 0.44,2.03 1.14,2.74 0.7,0.7 1.67,1.14 2.73,1.14l22.15 0c1.06,0 2.02,-0.44 2.73,-1.14 0.7,-0.7 1.14,-1.67 1.14,-2.74l0 -18.05c0,-0.98 0.68,-1.8 1.59,-2.01 4.67,-1.35 9.08,-3.24 13.19,-5.62 4.21,-2.43 8.1,-5.37 11.57,-8.73 0.71,-0.68 1.78,-0.75 2.57,-0.23l15.54 8.96c0.93,0.53 1.98,0.63 2.94,0.38 0.96,-0.26 1.82,-0.88 2.35,-1.8l0.07 -0.11 11.01 -19.07 -0 0c0.53,-0.91 0.64,-1.97 0.38,-2.93 -0.26,-0.96 -0.88,-1.83 -1.79,-2.36l-15.63 -9.02c-0.81,-0.47 -1.19,-1.41 -0.98,-2.28 0.57,-2.3 1.01,-4.68 1.31,-7.11 0.28,-2.37 0.43,-4.79 0.43,-7.25 0,-2.46 -0.15,-4.88 -0.43,-7.25 -0.3,-2.43 -0.74,-4.8 -1.31,-7.11 -0.24,-0.96 0.24,-1.93 1.09,-2.35l15.52 -8.96c0.91,-0.53 1.53,-1.39 1.79,-2.35 0.26,-0.96 0.15,-2.02 -0.38,-2.94l-0.06 -0.12 -11.01 -19.06 -0 0c-0.53,-0.92 -1.39,-1.54 -2.35,-1.8 -0.97,-0.26 -2.02,-0.16 -2.94,0.37l0 0 -15.64 9.03c-0.84,0.48 -1.87,0.31 -2.51,-0.35 -3.47,-3.34 -7.34,-6.26 -11.53,-8.68 -4.13,-2.39 -8.59,-4.3 -13.28,-5.64 -0.91,-0.26 -1.51,-1.09 -1.51,-1.99l0 -18.05c0,-1.06 -0.43,-2.03 -1.14,-2.73 -0.7,-0.7 -1.67,-1.14 -2.73,-1.14l-22.15 0c-1.07,0 -2.03,0.43 -2.73,1.14 -0.7,0.7 -1.14,1.67 -1.14,2.73l0 18.05c0,0.98 -0.67,1.8 -1.59,2.01z"/>
   <path class="fil5" d="M2002.74 631.54c4.6,-4.61 10.13,-8.33 16.27,-10.87 5.91,-2.44 12.37,-3.8 19.15,-3.8 6.77,0 13.23,1.35 19.14,3.8 6.15,2.55 11.67,6.26 16.27,10.87 4.61,4.61 8.33,10.13 10.87,16.27 2.45,5.91 3.8,12.37 3.8,19.14 0,6.77 -1.35,13.24 -3.8,19.15 -2.54,6.15 -6.26,11.67 -10.87,16.27 -4.6,4.61 -10.12,8.33 -16.26,10.87 -5.91,2.45 -12.38,3.8 -19.15,3.8 -6.77,0 -13.24,-1.35 -19.15,-3.8 -6.14,-2.54 -11.67,-6.26 -16.27,-10.87 -4.61,-4.6 -8.33,-10.13 -10.87,-16.27 -2.45,-5.91 -3.8,-12.38 -3.8,-19.15 0,-6.77 1.35,-13.24 3.8,-19.14 2.54,-6.15 6.26,-11.67 10.87,-16.27zm18.02 -6.59l0 0c-5.55,2.3 -10.55,5.68 -14.74,9.87 -4.2,4.2 -7.58,9.2 -9.87,14.75 -2.22,5.35 -3.44,11.22 -3.44,17.39 0,6.17 1.22,12.04 3.44,17.39 2.3,5.54 5.67,10.55 9.87,14.74 4.2,4.2 9.2,7.58 14.74,9.87 5.35,2.22 11.22,3.44 17.39,3.44 6.16,0 12.03,-1.22 17.37,-3.44 5.55,-2.29 10.56,-5.67 14.76,-9.87 4.2,-4.2 7.58,-9.2 9.88,-14.74 2.22,-5.35 3.44,-11.22 3.44,-17.39 0,-6.17 -1.22,-12.04 -3.44,-17.39 -2.3,-5.54 -5.68,-10.55 -9.88,-14.75 -4.2,-4.2 -9.2,-7.58 -14.75,-9.87 -5.34,-2.22 -11.21,-3.44 -17.38,-3.44 -6.17,0 -12.04,1.22 -17.39,3.44zm-5.54 -36.86l0 0c-3.13,0.91 -6.21,2.01 -9.22,3.3 -3.06,1.3 -6.02,2.78 -8.87,4.43 -2.89,1.67 -5.67,3.52 -8.35,5.54 -2.69,2.02 -5.23,4.2 -7.63,6.51 -0.85,0.82 -1.91,1.3 -3,1.43 -1.11,0.14 -2.26,-0.09 -3.26,-0.67 -7.36,-4.25 -15.09,-8.45 -22.3,-12.87 -0.35,-0.18 -0.72,-0.29 -1.08,-0.33 -0.42,-0.04 -0.83,-0.01 -1.23,0.09 -0.41,0.11 -0.8,0.3 -1.13,0.55 -0.32,0.24 -0.6,0.56 -0.81,0.92 -5.36,8.11 -10.74,18.59 -15.71,27.2 -0.21,0.37 -0.34,0.76 -0.39,1.16 -0.06,0.41 -0.02,0.85 0.09,1.27 0.11,0.41 0.29,0.79 0.54,1.12 0.24,0.32 0.56,0.6 0.93,0.81 6.62,4.37 15.14,8.75 22.15,12.8 1.03,0.59 1.78,1.47 2.21,2.48 0.15,0.35 0.26,0.72 0.33,1.1l0.45 0.15 -0.52 2.07c-0.4,1.63 -0.75,3.25 -1.05,4.87 -0.29,1.57 -0.54,3.22 -0.75,4.94 -0.2,1.67 -0.35,3.34 -0.45,4.98 -0.1,1.61 -0.15,3.29 -0.15,5.04 0,1.75 0.05,3.43 0.15,5.03 0.1,1.65 0.25,3.31 0.45,4.99 0.21,1.72 0.46,3.36 0.75,4.94 0.3,1.62 0.65,3.25 1.05,4.87 0.3,1.21 0.16,2.42 -0.33,3.46 -0.48,1.04 -1.31,1.91 -2.37,2.46l-19.62 11.33 0.01 0.01 -2.33 1.34c-0.37,0.21 -0.69,0.49 -0.93,0.81 -0.25,0.33 -0.44,0.72 -0.54,1.13 -0.11,0.42 -0.15,0.85 -0.09,1.27 0.05,0.39 0.18,0.79 0.39,1.15l14.53 25.17 0 -0.01 1.18 2.04c0.21,0.37 0.5,0.68 0.81,0.93 0.33,0.25 0.72,0.44 1.13,0.55 0.41,0.11 0.85,0.15 1.26,0.09 0.39,-0.05 0.78,-0.18 1.15,-0.39 7.03,-4.41 14.96,-8.63 22.21,-12.81 1.04,-0.59 2.17,-0.8 3.24,-0.67 1.11,0.14 2.17,0.63 3,1.42l0.01 0.01c2.4,2.31 4.95,4.49 7.63,6.51 2.67,2.01 5.46,3.86 8.34,5.54 2.87,1.65 5.85,3.15 8.93,4.45 3.02,1.28 6.16,2.4 9.4,3.33 1.14,0.32 2.08,1 2.74,1.89 0.68,0.89 1.06,2 1.06,3.17l0.01 25.6c0,0.43 0.08,0.84 0.24,1.2 0.15,0.38 0.4,0.73 0.69,1.03 0.29,0.3 0.65,0.54 1.03,0.7 0.37,0.15 0.78,0.24 1.2,0.24l31.42 0c0.44,0 0.83,-0.08 1.2,-0.24 0.39,-0.16 0.74,-0.4 1.04,-0.69 0.3,-0.31 0.54,-0.66 0.7,-1.04 0.15,-0.36 0.24,-0.77 0.24,-1.2l0 -25.6c0,-1.22 0.43,-2.35 1.14,-3.25 0.73,-0.92 1.74,-1.59 2.91,-1.86 3.13,-0.9 6.22,-2 9.22,-3.29 3.06,-1.3 6.02,-2.78 8.87,-4.43 2.89,-1.67 5.68,-3.52 8.35,-5.54 2.68,-2.02 5.23,-4.2 7.63,-6.51 0.89,-0.86 2.01,-1.34 3.15,-1.44 1.17,-0.11 2.37,0.18 3.37,0.84l21.92 12.65c0.36,0.21 0.76,0.34 1.16,0.39 0.41,0.05 0.85,0.02 1.27,-0.09 0.41,-0.11 0.79,-0.3 1.13,-0.55 0.31,-0.24 0.59,-0.56 0.81,-0.93 5.2,-9.08 10.49,-18.12 15.71,-27.2 0.21,-0.37 0.34,-0.76 0.39,-1.16 0.05,-0.41 0.02,-0.84 -0.1,-1.26 -0.1,-0.41 -0.29,-0.8 -0.54,-1.13 -0.24,-0.33 -0.55,-0.6 -0.91,-0.81l-22.17 -12.8c-1.03,-0.59 -1.78,-1.47 -2.21,-2.48 -0.12,-0.28 -0.21,-0.56 -0.28,-0.84l-0.58 -0.12 0.58 -2.35c0.4,-1.63 0.75,-3.25 1.05,-4.87 0.29,-1.58 0.54,-3.23 0.75,-4.94 0.2,-1.68 0.36,-3.34 0.45,-4.99 0.1,-1.6 0.15,-3.28 0.15,-5.03 0,-1.75 -0.04,-3.43 -0.15,-5.03 -0.09,-1.64 -0.25,-3.31 -0.45,-4.98 -0.21,-1.74 -0.46,-3.39 -0.75,-4.96 -0.3,-1.61 -0.65,-3.24 -1.05,-4.86 -0.3,-1.21 -0.15,-2.43 0.33,-3.47 0.48,-1.04 1.3,-1.91 2.35,-2.44l21.96 -12.68c0.36,-0.2 0.67,-0.48 0.92,-0.81 0.25,-0.32 0.43,-0.71 0.54,-1.13 0.12,-0.42 0.15,-0.85 0.1,-1.26 -0.05,-0.39 -0.18,-0.79 -0.39,-1.16 -5.36,-7.97 -10.74,-18.63 -15.71,-27.2 -0.22,-0.37 -0.5,-0.68 -0.81,-0.92 -0.33,-0.26 -0.72,-0.44 -1.13,-0.55 -0.42,-0.11 -0.85,-0.15 -1.26,-0.09 -0.39,0.05 -0.78,0.18 -1.16,0.4l-22.19 12.81c-1.04,0.61 -2.22,0.81 -3.33,0.66 -1.11,-0.15 -2.17,-0.66 -3,-1.48 -2.41,-2.32 -4.95,-4.49 -7.59,-6.48 -2.63,-1.98 -5.41,-3.83 -8.32,-5.51 -2.86,-1.65 -5.84,-3.14 -8.92,-4.45 -3.02,-1.28 -6.16,-2.4 -9.39,-3.32 -1.14,-0.33 -2.09,-1 -2.75,-1.89 -0.68,-0.89 -1.06,-2 -1.06,-3.17l-0.01 -25.61c0,-0.43 -0.08,-0.83 -0.24,-1.2 -0.15,-0.38 -0.4,-0.73 -0.7,-1.03 -0.29,-0.3 -0.64,-0.54 -1.03,-0.7 -0.37,-0.15 -0.77,-0.24 -1.2,-0.24l-31.42 0c-0.43,0 -0.83,0.08 -1.2,0.24 -0.39,0.16 -0.74,0.4 -1.03,0.69 -0.57,0.58 -0.93,1.38 -0.93,2.24l0 25.61c0,1.22 -0.43,2.35 -1.13,3.25 -0.74,0.92 -1.75,1.59 -2.92,1.86zm-11.04 -0.96l0 0c-3.23,1.37 -6.36,2.94 -9.37,4.68 -3.07,1.78 -6.02,3.73 -8.82,5.84 -2.81,2.12 -5.5,4.42 -8.05,6.87 -0.1,0.09 -0.22,0.15 -0.35,0.16 -0.14,0.02 -0.27,-0.01 -0.39,-0.07 -7.46,-4.31 -14.93,-8.6 -22.38,-12.93 -0.89,-0.48 -1.84,-0.77 -2.8,-0.88 -0.99,-0.11 -1.99,-0.04 -2.94,0.22 -0.98,0.26 -1.92,0.72 -2.74,1.35 -0.79,0.61 -1.48,1.37 -2,2.29 -5.41,8.75 -10.54,18.24 -15.72,27.19 -0.52,0.91 -0.84,1.9 -0.97,2.9 -0.13,1.03 -0.06,2.07 0.2,3.04 0.26,0.98 0.72,1.92 1.35,2.74 0.61,0.8 1.37,1.48 2.28,2.01 7.14,4.41 14.87,8.59 22.17,12.8 0.11,0.07 0.2,0.17 0.25,0.29 0.05,0.12 0.07,0.26 0.03,0.39l-0.51 2.07 0.03 0.01c-0.23,1.01 -0.43,2.03 -0.63,3.07 -0.32,1.77 -0.59,3.52 -0.8,5.23 -0.2,1.7 -0.37,3.45 -0.47,5.25 -0.11,1.81 -0.17,3.59 -0.17,5.31 0,1.72 0.06,3.5 0.17,5.3 0.1,1.8 0.27,3.56 0.47,5.26 0.21,1.71 0.48,3.46 0.8,5.23 0.32,1.76 0.69,3.48 1.11,5.15 0.03,0.13 0.02,0.28 -0.04,0.4 -0.07,0.13 -0.16,0.24 -0.28,0.3 -8.15,4.35 -16.42,9.47 -24.47,14.13l0.28 0.36 -0.24 0.31c-0.63,0.83 -1.09,1.76 -1.35,2.74 -0.26,0.97 -0.33,2.01 -0.2,3.04 0.13,1 0.44,1.98 0.97,2.89l16.88 29.24 0.31 -0.19c0.17,0.15 0.34,0.3 0.52,0.44 0.83,0.63 1.76,1.08 2.74,1.35 0.97,0.26 2,0.33 3.04,0.2 0.97,-0.13 1.93,-0.43 2.82,-0.93 7.38,-3.92 14.98,-8.65 22.27,-12.86 0.11,-0.06 0.24,-0.08 0.38,-0.06 0.13,0.02 0.26,0.07 0.36,0.17 2.54,2.45 5.23,4.75 8.04,6.87 2.8,2.11 5.74,4.06 8.82,5.84 3.03,1.75 6.19,3.33 9.43,4.71 3.23,1.37 6.55,2.55 9.94,3.52 0.13,0.04 0.25,0.12 0.32,0.22 0.09,0.11 0.13,0.25 0.13,0.37l0 25.6c0,1.05 0.22,2.06 0.59,2.98 0.41,0.96 0.98,1.83 1.71,2.54 0.72,0.72 1.58,1.3 2.54,1.7 0.92,0.39 1.93,0.6 2.97,0.6l31.42 0c1.05,0 2.06,-0.21 2.98,-0.6 0.95,-0.39 1.81,-0.98 2.54,-1.7 0.71,-0.71 1.3,-1.57 1.7,-2.54 0.38,-0.92 0.6,-1.93 0.6,-2.98l0 -25.6c0,-0.15 0.05,-0.29 0.12,-0.39 0.08,-0.1 0.2,-0.18 0.35,-0.21l0.1 -0.04c3.41,-0.98 6.7,-2.16 9.87,-3.51 3.23,-1.37 6.36,-2.94 9.37,-4.68 3.07,-1.78 6.02,-3.73 8.82,-5.84 2.81,-2.12 5.5,-4.42 8.05,-6.87 0.1,-0.1 0.24,-0.16 0.36,-0.17 0.14,-0.01 0.28,0.02 0.4,0.1l22.17 12.8c0.91,0.53 1.89,0.85 2.88,0.97 1.03,0.13 2.07,0.06 3.04,-0.2 0.98,-0.27 1.92,-0.72 2.73,-1.35 0.78,-0.59 1.45,-1.34 1.97,-2.22 5.83,-9.36 11.33,-19.63 16.89,-29.24l-0.3 -0.18c0.05,-0.24 0.1,-0.49 0.13,-0.74 0.13,-1.03 0.06,-2.06 -0.2,-3.04 -0.26,-0.98 -0.72,-1.92 -1.35,-2.74 -0.61,-0.8 -1.37,-1.48 -2.28,-2l-22.17 -12.81c-0.11,-0.06 -0.2,-0.17 -0.25,-0.28 -0.06,-0.13 -0.07,-0.27 -0.04,-0.41l0.58 -2.34 -0.03 -0.01c0.2,-0.91 0.38,-1.84 0.55,-2.78 0.33,-1.77 0.59,-3.52 0.81,-5.23 0.2,-1.7 0.37,-3.46 0.47,-5.26 0.11,-1.81 0.17,-3.58 0.17,-5.3 0,-1.72 -0.06,-3.49 -0.17,-5.3 -0.11,-1.8 -0.27,-3.56 -0.47,-5.27 -0.21,-1.7 -0.48,-3.44 -0.81,-5.23 -0.32,-1.76 -0.69,-3.47 -1.1,-5.13 -0.03,-0.13 -0.02,-0.28 0.04,-0.41 0.06,-0.12 0.16,-0.22 0.28,-0.29l22.15 -12.79c0.91,-0.53 1.68,-1.22 2.28,-2.01 0.63,-0.83 1.08,-1.76 1.34,-2.74 0.26,-0.97 0.33,-2 0.2,-3.04 -0.12,-0.97 -0.43,-1.93 -0.94,-2.83 -5.28,-9.78 -11.33,-19.63 -16.91,-29.3l-0.31 0.19c-0.17,-0.15 -0.34,-0.3 -0.53,-0.44 -0.81,-0.63 -1.76,-1.08 -2.73,-1.35 -0.98,-0.26 -2.02,-0.33 -3.04,-0.2 -1,0.13 -1.98,0.44 -2.88,0.96l-1.64 0.94 0 0.02 -20.57 11.87c-0.12,0.07 -0.26,0.09 -0.39,0.07 -0.13,-0.02 -0.26,-0.08 -0.35,-0.17l-0.06 -0.06c-2.52,-2.42 -5.2,-4.71 -8.03,-6.84 -2.81,-2.12 -5.74,-4.06 -8.78,-5.81 -3.03,-1.75 -6.19,-3.33 -9.43,-4.71 -3.23,-1.37 -6.55,-2.55 -9.94,-3.52 -0.13,-0.04 -0.24,-0.12 -0.32,-0.22 -0.09,-0.11 -0.13,-0.25 -0.13,-0.37l0 -25.61c0,-1.04 -0.22,-2.06 -0.6,-2.98 -0.4,-0.96 -0.98,-1.82 -1.71,-2.54 -0.72,-0.72 -1.58,-1.3 -2.53,-1.7 -0.93,-0.38 -1.93,-0.59 -2.98,-0.59l-31.42 0c-1.04,0 -2.06,0.21 -2.97,0.59 -0.95,0.4 -1.81,0.98 -2.54,1.7 -1.41,1.42 -2.3,3.37 -2.3,5.52l0 25.61c0,0.15 -0.05,0.28 -0.13,0.39 -0.08,0.1 -0.2,0.18 -0.34,0.21l-0.1 0.04c-3.41,0.98 -6.71,2.16 -9.87,3.5z"/>
   <path class="fil5" d="M757.68 310.76l320.54 0c23.28,0 42.33,19.05 42.33,42.33l0 174.57 0 12.92 0 111.12c0,1.95 -1.11,3.62 -2.92,4.37 -1.8,0.75 -3.77,0.36 -5.15,-1.02l-72.13 -72.14 -282.67 0c-23.28,0 -42.33,-19.05 -42.33,-42.33l0 -187.49c0,-23.28 19.05,-42.33 42.33,-42.33z"/>
   <path class="fil6" d="M791.44 529.43l166.28 0c7.57,0 13.77,-6.2 13.77,-13.77l0 -126.24c0,-7.57 -6.2,-13.77 -13.77,-13.77l-6.76 0 0 -6.41c0,-2.09 -1.71,-3.79 -3.79,-3.79l-50.24 0c-2.09,0 -3.79,1.71 -3.79,3.79l0 6.41 -101.7 0c-7.57,0 -13.78,6.2 -13.78,13.77l0 126.24c0,7.57 6.2,13.77 13.78,13.77z"/>
   <path class="fil7" d="M907.48 529.43l-105.07 0c-6.17,0 -11.22,-5.05 -11.22,-11.22l0 -107.24c0,-6.17 5.05,-11.22 11.22,-11.22l105.07 0c6.17,0 11.22,5.05 11.22,11.22l0 107.24c0,6.17 -5.05,11.22 -11.22,11.22z"/>
   <path class="fil8" d="M808.01 529.43l153.53 0c7.57,0 16.53,-6.2 19.91,-13.77l48.4 -108.64c3.37,-7.57 -0.06,-13.78 -7.64,-13.78l-8.07 0 3.04 -6.82c1.23,-2.76 -0.02,-5.03 -2.79,-5.03l-56.04 0c-2.76,0 -6.03,2.26 -7.26,5.03l-3.04 6.82 -79.37 0c-7.58,0 -16.53,6.2 -19.91,13.78l-48.39 108.64c-3.37,7.57 0.06,13.77 7.63,13.77z"/>
   <path class="fil9" d="M885.9 425.56c10.44,-10.44 24.13,-15.67 37.82,-15.67 13.69,0 27.37,5.22 37.82,15.67 10.44,10.44 15.67,24.13 15.66,37.82 0,13.69 -5.22,27.37 -15.66,37.82 -10.44,10.44 -24.13,15.67 -37.82,15.67 -13.69,0 -27.38,-5.22 -37.82,-15.67 -10.44,-10.44 -15.67,-24.13 -15.67,-37.82 0,-13.69 5.22,-27.37 15.67,-37.82zm37.82 -8l0 0c-11.72,0 -23.46,4.47 -32.41,13.42 -8.94,8.95 -13.42,20.68 -13.42,32.41 0,11.73 4.48,23.45 13.42,32.4 8.95,8.95 20.68,13.43 32.41,13.43 11.72,0 23.46,-4.48 32.4,-13.43 8.95,-8.95 13.42,-20.67 13.42,-32.4 0,-11.73 -4.47,-23.46 -13.42,-32.41 -8.94,-8.94 -20.68,-13.42 -32.4,-13.42z"/>
   <path class="fil9" d="M956.12 501.2c-1.5,-1.5 -1.5,-3.92 0,-5.42 1.5,-1.49 3.92,-1.49 5.42,0l12.66 12.66c1.5,1.49 1.5,3.92 0,5.42 -1.5,1.49 -3.92,1.49 -5.42,0l-12.66 -12.66z"/>
   <path class="fil9" d="M969.3 519.79c-2.99,-2.99 -2.99,-7.84 0,-10.83 2.99,-2.99 7.84,-2.99 10.83,0l40.8 40.8c2.99,2.99 2.99,7.84 0,10.83 -2.99,3 -7.84,3 -10.83,0l-40.8 -40.8z"/>
   <path class="fil7" d="M950.15 436.95c-0.99,-0.99 -0.99,-2.59 0,-3.58 0.99,-0.99 2.59,-0.99 3.58,0 4.06,4.06 7.12,8.74 9.2,13.76 2.15,5.19 3.22,10.72 3.22,16.25l0.01 0c0,3.95 -0.55,7.91 -1.65,11.75 -0.39,1.34 -1.78,2.12 -3.13,1.74 -1.34,-0.38 -2.12,-1.78 -1.74,-3.13 0.97,-3.38 1.46,-6.87 1.46,-10.37l0.01 0c0,-4.87 -0.95,-9.75 -2.85,-14.33 -1.81,-4.39 -4.52,-8.5 -8.11,-12.09zm5.04 46.63l0 0c0.75,-1.17 2.31,-1.52 3.49,-0.76 1.17,0.76 1.51,2.32 0.76,3.49 -0.81,1.26 -1.7,2.48 -2.66,3.68 -0.97,1.2 -1.99,2.34 -3.05,3.4 -0.99,0.99 -2.59,0.99 -3.58,0 -0.99,-0.99 -0.99,-2.59 0,-3.57 0.99,-0.99 1.89,-1.99 2.69,-2.98 0.84,-1.04 1.62,-2.13 2.34,-3.25zm-57.89 6.23l0 0c0.98,0.98 0.98,2.59 0,3.57 -0.99,0.99 -2.59,0.99 -3.58,0 -4.05,-4.06 -7.12,-8.74 -9.2,-13.76 -2.15,-5.2 -3.23,-10.73 -3.23,-16.25 0,-2.57 0.24,-5.17 0.72,-7.76 0.47,-2.54 1.18,-5.04 2.12,-7.5 0.5,-1.3 1.95,-1.95 3.25,-1.45 1.3,0.5 1.95,1.95 1.45,3.25 -0.83,2.14 -1.44,4.35 -1.86,6.6 -0.41,2.24 -0.62,4.54 -0.62,6.86 0,4.89 0.94,9.77 2.83,14.33 1.81,4.39 4.52,8.51 8.11,12.1zm-3.93 -48.28l0 0c-0.81,1.13 -2.39,1.39 -3.52,0.57 -1.13,-0.81 -1.39,-2.39 -0.57,-3.52 0.68,-0.94 1.38,-1.84 2.11,-2.7l0.12 -0.13c0.76,-0.89 1.5,-1.69 2.2,-2.39 0.99,-0.99 2.59,-0.99 3.58,0 0.98,0.99 0.98,2.59 0,3.58 -0.75,0.74 -1.4,1.44 -1.96,2.08l-0.11 0.14c-0.67,0.79 -1.29,1.58 -1.86,2.37z"/>
   <path class="fil10" d="M951.92 345.42l120.89 0c1.55,0 2.81,1.26 2.81,2.8 0,1.54 -1.26,2.81 -2.81,2.81l-120.89 0c-1.54,0 -2.8,-1.26 -2.8,-2.81 0,-1.54 1.26,-2.8 2.8,-2.8z"/>
   <path class="fil10" d="M951.92 363.02l120.89 0c1.55,0 2.81,1.26 2.81,2.8 0,1.54 -1.26,2.81 -2.81,2.81l-120.89 0c-1.54,0 -2.8,-1.26 -2.8,-2.81 0,-1.54 1.26,-2.8 2.8,-2.8z"/>
   <path class="fil10" d="M1049.99 382.4l22.82 0c1.55,0 2.81,1.26 2.81,2.81 0,1.54 -1.26,2.8 -2.81,2.8l-22.82 0c-1.54,0 -2.81,-1.26 -2.81,-2.8 0,-1.55 1.26,-2.81 2.81,-2.81z"/>
   <path class="fil10" d="M1049.99 402.29l22.82 0c1.55,0 2.81,1.26 2.81,2.8 0,1.54 -1.26,2.81 -2.81,2.81l-22.82 0c-1.54,0 -2.81,-1.26 -2.81,-2.81 0,-1.54 1.26,-2.8 2.81,-2.8z"/>
   <path class="fil10" d="M1049.99 422.18l22.82 0c1.55,0 2.81,1.26 2.81,2.81 0,1.54 -1.26,2.81 -2.81,2.81l-22.82 0c-1.54,0 -2.81,-1.26 -2.81,-2.81 0,-1.54 1.26,-2.81 2.81,-2.81z"/>
   <path class="fil10" d="M1049.99 442.08l22.82 0c1.55,0 2.81,1.26 2.81,2.81 0,1.54 -1.26,2.8 -2.81,2.8l-22.82 0c-1.54,0 -2.81,-1.26 -2.81,-2.8 0,-1.54 1.26,-2.81 2.81,-2.81z"/>
   <path class="fil10" d="M1049.99 461.97l22.82 0c1.55,0 2.81,1.26 2.81,2.8 0,1.54 -1.26,2.8 -2.81,2.8l-22.82 0c-1.54,0 -2.81,-1.26 -2.81,-2.8 0,-1.54 1.26,-2.8 2.81,-2.8z"/>
   <path class="fil10" d="M1049.99 481.86l22.82 0c1.55,0 2.81,1.26 2.81,2.81 0,1.54 -1.26,2.81 -2.81,2.81l-22.82 0c-1.54,0 -2.81,-1.26 -2.81,-2.81 0,-1.54 1.26,-2.81 2.81,-2.81z"/>
   <path class="fil10" d="M1014.92 501.76l57.89 0c1.55,0 2.81,1.26 2.81,2.81l0 0c0,1.54 -1.26,2.8 -2.81,2.8l-57.89 0c-1.54,0 -2.81,-1.26 -2.81,-2.8l0 0c0,-1.54 1.26,-2.81 2.81,-2.81z"/>
   <path class="fil10" d="M1020.65 481.86l17.09 0c1.54,0 2.81,1.26 2.81,2.81 0,1.54 -1.26,2.81 -2.81,2.81l-17.09 0c-1.54,0 -2.8,-1.26 -2.8,-2.81 0,-1.54 1.26,-2.81 2.8,-2.81z"/>
   <path class="fil10" d="M1028.31 461.97l8.61 0c1.54,0 2.81,1.26 2.81,2.8 0,1.54 -1.26,2.8 -2.81,2.8l-8.61 0c-1.54,0 -2.8,-1.26 -2.8,-2.8 0,-1.54 1.26,-2.8 2.8,-2.8z"/>
   <path class="fil10" d="M1034.31 442.08l6.3 0c1.54,0 2.81,1.26 2.81,2.81 0,1.54 -1.26,2.8 -2.81,2.8l-6.3 0c-1.54,0 -2.8,-1.26 -2.8,-2.8 0,-1.54 1.26,-2.81 2.8,-2.81z"/>
   <path class="fil5" d="M797.03 657.31l13.53 0c2.48,0 4.5,2.03 4.5,4.5l0 13.53c0,2.48 -2.03,4.51 -4.5,4.51l-13.53 0c-2.48,0 -4.5,-2.03 -4.5,-4.51l0 -13.53c0,-2.48 2.02,-4.5 4.5,-4.5z"/>
   <path class="fil11" d="M843.23 657.31l13.53 0c2.47,0 4.5,2.03 4.5,4.5l0 13.53c0,2.48 -2.03,4.51 -4.5,4.51l-13.53 0c-2.48,0 -4.5,-2.03 -4.5,-4.51l0 -13.53c0,-2.48 2.02,-4.5 4.5,-4.5z"/>
   <path class="fil5" d="M889.43 657.31l13.52 0c2.48,0 4.5,2.03 4.5,4.5l0 13.53c0,2.48 -2.03,4.51 -4.5,4.51l-13.52 0c-2.48,0 -4.51,-2.03 -4.51,-4.51l0 -13.53c0,-2.48 2.03,-4.5 4.51,-4.5z"/>
   <path class="fil5" d="M935.62 657.31l13.53 0c2.47,0 4.5,2.03 4.5,4.5l0 13.53c0,2.48 -2.03,4.51 -4.5,4.51l-13.53 0c-2.48,0 -4.5,-2.03 -4.5,-4.51l0 -13.53c0,-2.48 2.03,-4.5 4.5,-4.5z"/>
   <path class="fil5" d="M439.27 458.46c-1.7,0 -3.09,-1.98 -3.09,-4.42 0,-2.44 1.39,-4.41 3.09,-4.41l144.76 0c1.7,0 3.09,1.98 3.09,4.41 0,2.44 -1.39,4.42 -3.09,4.42l-144.76 0zm-19.62 -8.83l0 0c1.71,0 3.09,1.98 3.09,4.41 0,2.44 -1.38,4.42 -3.09,4.42l-12.06 0c-1.7,0 -3.09,-1.98 -3.09,-4.42 0,-2.44 1.39,-4.41 3.09,-4.41l12.06 0z"/>
   <path class="fil5" d="M612.29 624.58c0,-1.03 0.83,-1.87 1.87,-1.87 1.03,0 1.87,0.83 1.87,1.87l0 8.4c0,1.03 -0.83,1.87 -1.87,1.87 -1.03,0 -1.87,-0.83 -1.87,-1.87l0 -8.4zm-12.73 6.82l0 0c-0.73,-0.73 -0.73,-1.91 0,-2.64 0.73,-0.73 1.91,-0.73 2.64,0l5.94 5.94c0.73,0.73 0.73,1.91 0,2.64 -0.73,0.73 -1.91,0.73 -2.64,0l-5.94 -5.93zm-4.18 13.81l0 0c-1.03,0 -1.87,-0.83 -1.87,-1.87 0,-1.03 0.83,-1.87 1.87,-1.87l8.4 0c1.03,0 1.87,0.83 1.87,1.87 0,1.03 -0.83,1.87 -1.87,1.87l-8.4 0zm6.82 12.73l0 0c-0.73,0.73 -1.91,0.73 -2.64,0 -0.73,-0.73 -0.73,-1.91 0,-2.64l5.94 -5.94c0.73,-0.72 1.91,-0.72 2.64,0 0.73,0.73 0.73,1.91 0,2.64l-5.94 5.94zm13.82 4.18l0 0c0,1.03 -0.83,1.87 -1.87,1.87 -1.03,0 -1.87,-0.84 -1.87,-1.87l0 -8.4c0,-1.03 0.83,-1.87 1.87,-1.87 1.03,0 1.87,0.84 1.87,1.87l0 8.4zm12.72 -6.82l0 0c0.73,0.73 0.73,1.91 0,2.64 -0.73,0.73 -1.91,0.73 -2.64,0l-5.94 -5.94c-0.73,-0.73 -0.73,-1.91 0,-2.64 0.73,-0.72 1.91,-0.72 2.64,0l5.94 5.94zm4.18 -13.82l0 0c1.03,0 1.87,0.83 1.87,1.87 0,1.03 -0.83,1.87 -1.87,1.87l-8.4 0c-1.03,0 -1.87,-0.83 -1.87,-1.87 0,-1.03 0.83,-1.87 1.87,-1.87l8.4 0zm-6.82 -12.72l0 0c0.73,-0.73 1.91,-0.73 2.64,0 0.73,0.73 0.73,1.91 0,2.64l-5.94 5.93c-0.73,0.73 -1.91,0.73 -2.64,0 -0.73,-0.72 -0.73,-1.91 0,-2.64l5.94 -5.94z"/>
   <path class="fil5" d="M1711.66 400.42c0,-1.03 0.83,-1.86 1.87,-1.86 1.03,0 1.87,0.83 1.87,1.86l0 8.4c0,1.03 -0.84,1.86 -1.87,1.86 -1.03,0 -1.87,-0.83 -1.87,-1.86l0 -8.4zm-12.72 6.82l0 0c-0.73,-0.73 -0.73,-1.91 0,-2.64 0.72,-0.73 1.91,-0.73 2.64,0l5.94 5.94c0.73,0.73 0.73,1.91 0,2.64 -0.73,0.73 -1.91,0.73 -2.64,0l-5.94 -5.94zm-4.17 13.82l0 0c-1.04,0 -1.87,-0.83 -1.87,-1.87 0,-1.03 0.83,-1.87 1.87,-1.87l8.39 0c1.03,0 1.87,0.83 1.87,1.87 0,1.03 -0.84,1.87 -1.87,1.87l-8.39 0zm6.81 12.72l0 0c-0.72,0.73 -1.91,0.73 -2.64,0 -0.73,-0.73 -0.73,-1.91 0,-2.64l5.94 -5.94c0.73,-0.73 1.91,-0.73 2.64,0 0.73,0.73 0.73,1.91 0,2.64l-5.94 5.94zm13.82 4.18l0 0c0,1.03 -0.84,1.87 -1.87,1.87 -1.03,0 -1.87,-0.83 -1.87,-1.87l0 -8.4c0,-1.03 0.83,-1.87 1.87,-1.87 1.03,0 1.87,0.83 1.87,1.87l0 8.4zm12.72 -6.81l0 0c0.73,0.72 0.73,1.91 0,2.64 -0.73,0.73 -1.92,0.73 -2.64,0l-5.94 -5.94c-0.72,-0.73 -0.72,-1.91 0,-2.64 0.73,-0.73 1.91,-0.73 2.65,0l5.94 5.94zm4.18 -13.82l0 0c1.03,0 1.87,0.83 1.87,1.87 0,1.03 -0.84,1.87 -1.87,1.87l-8.4 0c-1.03,0 -1.87,-0.83 -1.87,-1.87 0,-1.03 0.84,-1.87 1.87,-1.87l8.4 0zm-6.82 -12.72l0 0c0.72,-0.73 1.91,-0.73 2.64,0 0.73,0.73 0.73,1.91 0,2.64l-5.94 5.94c-0.73,0.73 -1.91,0.73 -2.65,0 -0.72,-0.73 -0.72,-1.91 0,-2.64l5.94 -5.94z"/>
   <path class="fil12" d="M1854.48 1253.25c0,-1.04 0.83,-1.87 1.87,-1.87 1.03,0 1.87,0.83 1.87,1.87l0 8.4c0,1.03 -0.84,1.87 -1.87,1.87 -1.03,0 -1.87,-0.84 -1.87,-1.87l0 -8.4zm-12.73 6.82l0 0c-0.72,-0.74 -0.72,-1.91 0,-2.65 0.73,-0.72 1.91,-0.72 2.65,0l5.93 5.94c0.73,0.73 0.73,1.91 0,2.64 -0.72,0.73 -1.91,0.73 -2.63,0l-5.94 -5.93zm-4.17 13.81l0 0c-1.03,0 -1.87,-0.84 -1.87,-1.87 0,-1.03 0.84,-1.87 1.87,-1.87l8.39 0c1.03,0 1.87,0.84 1.87,1.87 0,1.03 -0.84,1.87 -1.87,1.87l-8.39 0zm6.82 12.72l0 0c-0.73,0.73 -1.91,0.73 -2.65,0 -0.72,-0.73 -0.72,-1.91 0,-2.64l5.94 -5.94c0.72,-0.73 1.91,-0.73 2.63,0 0.73,0.72 0.73,1.91 0,2.64l-5.93 5.94zm13.82 4.18l0 0c0,1.04 -0.84,1.87 -1.87,1.87 -1.03,0 -1.87,-0.83 -1.87,-1.87l0 -8.4c0,-1.03 0.83,-1.87 1.87,-1.87 1.03,0 1.87,0.84 1.87,1.87l0 8.4zm12.72 -6.82l0 0c0.73,0.73 0.73,1.91 0,2.64 -0.73,0.73 -1.91,0.73 -2.64,0l-5.93 -5.94c-0.73,-0.73 -0.73,-1.92 0,-2.64 0.72,-0.73 1.91,-0.73 2.64,0l5.94 5.94zm4.18 -13.82l0 0c1.03,0 1.87,0.84 1.87,1.87 0,1.03 -0.84,1.87 -1.87,1.87l-8.4 0c-1.04,0 -1.87,-0.84 -1.87,-1.87 0,-1.03 0.83,-1.87 1.87,-1.87l8.4 0zm-6.82 -12.72l0 0c0.73,-0.72 1.91,-0.72 2.64,0 0.73,0.73 0.73,1.91 0,2.65l-5.94 5.93c-0.72,0.73 -1.91,0.73 -2.64,0 -0.73,-0.73 -0.73,-1.91 0,-2.64l5.93 -5.94z"/>
   <path class="fil5" d="M250.78 956.75c0,-1.03 0.84,-1.87 1.87,-1.87 1.03,0 1.87,0.84 1.87,1.87l0 8.4c0,1.03 -0.84,1.87 -1.87,1.87 -1.03,0 -1.87,-0.84 -1.87,-1.87l0 -8.4zm-12.72 6.82l0 0c-0.72,-0.74 -0.72,-1.92 0,-2.65 0.73,-0.72 1.91,-0.72 2.64,0l5.94 5.94c0.73,0.73 0.73,1.92 0,2.64 -0.73,0.73 -1.91,0.73 -2.64,0l-5.94 -5.93zm-4.18 13.81l0 0c-1.03,0 -1.87,-0.84 -1.87,-1.87 0,-1.03 0.84,-1.87 1.87,-1.87l8.4 0c1.03,0 1.87,0.84 1.87,1.87 0,1.03 -0.84,1.87 -1.87,1.87l-8.4 0zm6.82 12.72l0 0c-0.73,0.72 -1.91,0.72 -2.64,0 -0.72,-0.73 -0.72,-1.91 0,-2.64l5.94 -5.94c0.73,-0.73 1.91,-0.73 2.64,0 0.73,0.72 0.73,1.91 0,2.64l-5.94 5.94zm13.82 4.18l0 0c0,1.03 -0.84,1.87 -1.87,1.87 -1.03,0 -1.87,-0.83 -1.87,-1.87l0 -8.4c0,-1.03 0.84,-1.87 1.87,-1.87 1.03,0 1.87,0.84 1.87,1.87l0 8.4zm12.72 -6.82l0 0c0.73,0.73 0.73,1.91 0,2.64 -0.73,0.72 -1.91,0.72 -2.64,0l-5.94 -5.94c-0.72,-0.73 -0.72,-1.92 0,-2.64 0.73,-0.73 1.91,-0.73 2.64,0l5.94 5.94zm4.18 -13.82l0 0c1.03,0 1.87,0.84 1.87,1.87 0,1.03 -0.84,1.87 -1.87,1.87l-8.4 0c-1.03,0 -1.87,-0.84 -1.87,-1.87 0,-1.03 0.83,-1.87 1.87,-1.87l8.4 0zm-6.81 -12.72l0 0c0.72,-0.72 1.91,-0.72 2.64,0 0.73,0.73 0.73,1.91 0,2.65l-5.94 5.93c-0.72,0.73 -1.91,0.73 -2.64,0 -0.72,-0.72 -0.72,-1.91 0,-2.64l5.94 -5.94z"/>
   <path class="fil12" d="M2092.79 1132.71c0,-1.03 0.83,-1.87 1.86,-1.87 1.03,0 1.87,0.83 1.87,1.87l0 8.4c0,1.03 -0.84,1.87 -1.87,1.87 -1.03,0 -1.86,-0.84 -1.86,-1.87l0 -8.4zm-12.73 6.82l0 0c-0.73,-0.73 -0.73,-1.92 0,-2.64 0.73,-0.73 1.91,-0.73 2.64,0l5.94 5.93c0.73,0.74 0.73,1.91 0,2.65 -0.73,0.73 -1.91,0.73 -2.64,0l-5.94 -5.94zm-4.18 13.81l0 0c-1.03,0 -1.87,-0.83 -1.87,-1.87 0,-1.03 0.84,-1.87 1.87,-1.87l8.4 0c1.03,0 1.86,0.83 1.86,1.87 0,1.03 -0.83,1.87 -1.86,1.87l-8.4 0zm6.81 12.72l0 0c-0.72,0.73 -1.91,0.73 -2.64,0 -0.73,-0.73 -0.73,-1.91 0,-2.64l5.94 -5.94c0.73,-0.73 1.91,-0.73 2.64,0 0.73,0.72 0.73,1.91 0,2.64l-5.94 5.94zm13.82 4.18l0 0c0,1.03 -0.84,1.87 -1.87,1.87 -1.03,0 -1.86,-0.83 -1.86,-1.87l0 -8.39c0,-1.03 0.83,-1.87 1.86,-1.87 1.03,0 1.87,0.84 1.87,1.87l0 8.39zm12.72 -6.81l0 0c0.73,0.73 0.73,1.91 0,2.64 -0.73,0.73 -1.91,0.73 -2.64,0l-5.94 -5.94c-0.73,-0.73 -0.73,-1.91 0,-2.64 0.73,-0.73 1.91,-0.73 2.64,0l5.94 5.94zm4.18 -13.82l0 0c1.03,0 1.87,0.83 1.87,1.87 0,1.03 -0.84,1.87 -1.87,1.87l-8.4 0c-1.03,0 -1.87,-0.83 -1.87,-1.87 0,-1.03 0.83,-1.87 1.87,-1.87l8.4 0zm-6.81 -12.72l0 0c0.72,-0.73 1.91,-0.73 2.64,0 0.73,0.72 0.73,1.91 0,2.64l-5.94 5.94c-0.73,0.73 -1.91,0.73 -2.64,0 -0.73,-0.73 -0.73,-1.91 0,-2.65l5.94 -5.93z"/>
   <path class="fil5" d="M1969.45 404.32l13.53 0c2.47,0 4.5,2.02 4.5,4.5l0 13.52c0,2.48 -2.03,4.5 -4.5,4.5l-13.53 0c-2.48,0 -4.5,-2.03 -4.5,-4.5l0 -13.52c0,-2.48 2.02,-4.5 4.5,-4.5z"/>
   <path class="fil13" d="M2015.65 404.32l13.53 0c2.47,0 4.5,2.02 4.5,4.5l0 13.52c0,2.48 -2.03,4.5 -4.5,4.5l-13.53 0c-2.48,0 -4.5,-2.03 -4.5,-4.5l0 -13.52c0,-2.48 2.02,-4.5 4.5,-4.5z"/>
   <path class="fil5" d="M2061.84 404.32l13.53 0c2.48,0 4.5,2.02 4.5,4.5l0 13.52c0,2.48 -2.03,4.5 -4.5,4.5l-13.53 0c-2.48,0 -4.5,-2.03 -4.5,-4.5l0 -13.52c0,-2.48 2.02,-4.5 4.5,-4.5z"/>
   <path class="fil5" d="M2108.04 404.32l13.53 0c2.47,0 4.5,2.02 4.5,4.5l0 13.52c0,2.48 -2.03,4.5 -4.5,4.5l-13.53 0c-2.48,0 -4.5,-2.03 -4.5,-4.5l0 -13.52c0,-2.48 2.03,-4.5 4.5,-4.5z"/>
   <path class="fil5" d="M243.37 607.36l17.5 -66.64c6.09,-6.09 14.51,-9.86 23.8,-9.86 9.3,0 17.71,3.77 23.81,9.86 6.09,6.09 9.86,14.51 9.86,23.81 0,9.3 -3.77,17.71 -9.86,23.8 -6.09,6.09 -14.51,9.86 -23.81,9.86 -9.3,0 -17.71,-3.77 -23.8,-9.86 -6.09,-6.09 -9.86,-14.51 -9.86,-23.8 0,-9.3 3.77,-17.72 9.86,-23.81l-17.5 66.64zm24.78 -100.01l0 0c-4.67,1.35 -9.09,3.24 -13.2,5.62 -4.21,2.44 -8.1,5.37 -11.57,8.72 -0.68,0.65 -1.69,0.75 -2.47,0.3l-15.65 -9.04 -0.08 -0.05c-0.9,-0.49 -1.92,-0.58 -2.85,-0.33 -0.96,0.26 -1.83,0.88 -2.36,1.8l-0.07 0.11 -11 19.06c-0.53,0.92 -0.64,1.98 -0.38,2.94 0.26,0.96 0.88,1.83 1.8,2.36l0.11 0.07 15.52 8.96c0.81,0.47 1.19,1.41 0.98,2.28l0 0c-0.57,2.3 -1.01,4.68 -1.3,7.11 -0.29,2.37 -0.44,4.79 -0.44,7.26 0,2.46 0.15,4.88 0.44,7.25 0.3,2.43 0.74,4.8 1.31,7.11 0.24,0.96 -0.24,1.93 -1.09,2.35l-15.52 8.96 0 0c-0.92,0.53 -1.54,1.39 -1.8,2.36 -0.26,0.96 -0.15,2.02 0.38,2.94l11.07 19.17 0 0c0.53,0.92 1.39,1.54 2.35,1.8 0.97,0.26 2.02,0.15 2.94,-0.38l0.12 -0.06 15.54 -8.97c0.81,-0.47 1.81,-0.32 2.46,0.3 3.48,3.35 7.36,6.29 11.57,8.72 4.13,2.39 8.59,4.3 13.28,5.64 0.91,0.26 1.5,1.09 1.5,1.99l0 18.05c0,1.06 0.44,2.03 1.14,2.73 0.7,0.71 1.67,1.15 2.73,1.15l22.14 0c1.06,0 2.03,-0.44 2.73,-1.15 0.7,-0.7 1.14,-1.67 1.14,-2.73l0 -18.05c0,-0.98 0.68,-1.8 1.59,-2.01 4.67,-1.35 9.09,-3.24 13.2,-5.62 4.21,-2.44 8.1,-5.37 11.57,-8.72 0.71,-0.69 1.78,-0.76 2.57,-0.24l15.54 8.97c0.92,0.53 1.98,0.63 2.94,0.38 0.96,-0.26 1.82,-0.88 2.35,-1.8l0.07 -0.11 11.01 -19.07 -0 0c0.53,-0.92 0.63,-1.98 0.38,-2.94 -0.26,-0.96 -0.88,-1.83 -1.79,-2.35l-15.63 -9.03c-0.81,-0.46 -1.19,-1.41 -0.98,-2.28l-0 0c0.57,-2.31 1.02,-4.68 1.31,-7.11 0.29,-2.37 0.44,-4.79 0.44,-7.25 0,-2.46 -0.15,-4.89 -0.44,-7.26 -0.29,-2.43 -0.73,-4.81 -1.31,-7.11 -0.23,-0.96 0.24,-1.93 1.09,-2.35l15.52 -8.96c0.91,-0.53 1.53,-1.39 1.79,-2.36 0.26,-0.96 0.15,-2.02 -0.38,-2.93l-0.06 -0.11 -11.01 -19.06 -0 0c-0.53,-0.92 -1.39,-1.54 -2.35,-1.8 -0.96,-0.26 -2.02,-0.15 -2.94,0.37l0.01 0 -15.65 9.04c-0.83,0.48 -1.87,0.31 -2.51,-0.35 -3.46,-3.33 -7.34,-6.26 -11.53,-8.68 -4.13,-2.39 -8.58,-4.3 -13.28,-5.64 -0.91,-0.26 -1.5,-1.09 -1.5,-1.99l0 -18.05c0,-1.06 -0.44,-2.03 -1.14,-2.73 -0.7,-0.7 -1.67,-1.14 -2.73,-1.14l-22.14 0c-1.06,0 -2.03,0.44 -2.73,1.14 -0.7,0.7 -1.14,1.67 -1.14,2.73l0 18.05c0,0.98 -0.68,1.8 -1.59,2.01z"/>
   <path class="fil14" d="M1307.88 846.03c-19.66,17.91 -22.73,20.04 -22.73,20.04 0,0 -12.98,24.65 -7.98,24.63 5,-0.02 8.98,-4.53 8.98,-4.53 0,0 4.87,6.21 9.24,3.62 4.37,-2.59 6.68,-3.56 6.68,-3.56 0,0 5.02,4.98 9.15,1.74 4.14,-3.24 23.91,-24.58 23.91,-24.58l26.12 -17.12 -10.41 -9.38 -42.94 9.15z"/>
   <path class="fil15" d="M1626.4 1372.33c-0.4,2.76 -3.62,16.63 -3.56,16.98 0.57,4.09 1.57,12.28 1.57,12.28 0,0 -7.99,9.19 -15.42,10.54 -7.41,1.33 -41.09,2.84 -41.52,1 -0.43,-1.84 8.42,-16.38 8.42,-16.38 0,0 9.56,-8.02 10.85,-26.57 1.28,-18.56 39.67,2.17 39.67,2.17z"/>
   <path class="fil16" d="M1582.66 1400.49l4.13 -1.48c0,0 9.35,4.92 21.11,0.91 11.76,-4.02 14.94,-10.62 14.94,-10.62 0,0 0.57,-1.34 1.84,-1.34 1.26,0 1.67,0 2.77,0 1.1,0 4.16,0.48 5.43,3.49 1.26,3.01 3.92,21.39 0.3,31.57 -3.61,10.18 -8.67,8.84 -8.67,8.84 0,0 -20.09,-5.93 -33.65,-1.15 -13.55,4.78 -25.96,9.76 -25.96,9.76 0,0 0.65,-26.98 17.76,-39.98z"/>
   <path class="fil17" d="M1491.17 1437.72l-1.49 -4.39c0,0 0,-3.34 0,-5.33 0,-1.99 0.83,-7.99 6.63,-7.99 5.79,0 17.06,0 22.2,0 5.15,0 32.99,-14.15 54.39,-31.56 0,0 1.51,-1.77 3.76,-0.48 2.24,1.3 9.06,6.75 9.76,7.31 0.69,0.58 0.78,2.92 0.37,3.74 -0.41,0.81 -20.21,40.02 -20.21,40.02 0,0 -58.3,7.65 -75.4,-1.32z"/>
   <path class="fil16" d="M1489.69 1433.33c0,0 -1.31,1.08 -1.31,2.3 0,1.21 0,3.31 0,4.27 0,0.96 2.58,5.44 8.33,5.44 5.74,0 53.59,0 61.63,0 8.04,0 16.52,-2.04 22.01,-4.8 5.48,-2.75 15.87,-5.81 15.87,-5.81 0,0 1.47,-0.5 1.47,2.03 0,2.53 0,3.67 0,4.9 0,1.22 -0.75,4.56 4.28,4.56 5.02,0 27.7,0 29.98,0 2.29,0 4.9,-1.3 4.9,-5.97 0,-4.67 0,-9.11 0,-12.01 0,-2.91 -1.76,-5.2 -3.66,-5.2 -1.89,0 -13.39,0 -23.06,0 -9.67,0 -17.37,2.37 -29.4,8.04 -12.02,5.66 -22.99,7.35 -35.54,7.35 -12.54,0 -28.41,0 -34.48,0 -6.08,0 -16.92,-1.38 -21.02,-5.07z"/>
   <path class="fil15" d="M1757.13 1372.33c-0.4,2.76 -3.61,16.63 -3.56,16.98 0.57,4.09 1.57,12.28 1.57,12.28 0,0 -8,9.19 -15.42,10.54 -7.42,1.33 -41.09,2.84 -41.52,1 -0.43,-1.84 8.42,-16.38 8.42,-16.38 0,0 9.56,-8.02 10.85,-26.57 1.28,-18.56 39.67,2.17 39.67,2.17z"/>
   <path class="fil18" d="M1713.39 1400.49l4.12 -1.48c0,0 9.35,4.92 21.11,0.91 11.76,-4.02 14.94,-10.62 14.94,-10.62 0,0 0.57,-1.34 1.84,-1.34 1.26,0 1.67,0 2.77,0 1.11,0 4.17,0.48 5.43,3.49 1.26,3.01 3.92,21.39 0.3,31.57 -3.61,10.18 -8.67,8.84 -8.67,8.84 0,0 -20.09,-5.93 -33.64,-1.15 -13.56,4.78 -25.97,9.76 -25.97,9.76 0,0 0.65,-26.98 17.76,-39.98z"/>
   <path class="fil17" d="M1621.9 1437.72l-1.49 -4.39c0,0 0,-3.34 0,-5.33 0,-1.99 0.84,-7.99 6.63,-7.99 5.8,0 17.06,0 22.21,0 5.14,0 32.98,-14.15 54.38,-31.56 0,0 1.51,-1.77 3.75,-0.48 2.25,1.3 9.07,6.75 9.76,7.31 0.69,0.58 0.77,2.92 0.37,3.74 -0.41,0.81 -20.21,40.02 -20.21,40.02 0,0 -58.3,7.65 -75.41,-1.32z"/>
   <path class="fil18" d="M1620.41 1433.33c0,0 -1.3,1.08 -1.3,2.3 0,1.21 0,3.31 0,4.27 0,0.96 2.57,5.44 8.32,5.44 5.75,0 53.6,0 61.63,0 8.04,0 16.52,-2.04 22.01,-4.8 5.49,-2.75 15.87,-5.81 15.87,-5.81 0,0 1.47,-0.5 1.47,2.03 0,2.53 0,3.67 0,4.9 0,1.22 -0.75,4.56 4.28,4.56 5.04,0 27.7,0 29.98,0 2.28,0 4.9,-1.3 4.9,-5.97 0,-4.67 0,-9.11 0,-12.01 0,-2.91 -1.76,-5.2 -3.66,-5.2 -1.89,0 -13.38,0 -23.06,0 -9.67,0 -17.37,2.37 -29.39,8.04 -12.02,5.66 -22.99,7.35 -35.53,7.35 -12.54,0 -28.42,0 -34.49,0 -6.07,0 -16.92,-1.38 -21.03,-5.07z"/>
   <path class="fil19" d="M1391.35 534.79c0,0 -13.89,23.31 -5.17,76.32 8.72,53 68.88,259.31 28.02,366.96 0,0 -2.52,7.38 4.5,11.44 7.02,4.07 106.25,21.29 178.79,-9.62 72.54,-30.91 -54.87,-429.39 -206.14,-445.11z"/>
   <path class="fil20" d="M1584.25 1381.95c0,0 16.25,9.87 43.74,3.91 0,0 7,-2.59 8.56,-9.85 1.56,-7.27 52.92,-439.62 59.14,-516.38 6.22,-76.75 -40.68,-123.62 -112.52,-172.89 -71.83,-49.27 -11.71,-7.67 -17.28,-10.83 -17.81,65.94 -38.73,108.36 -38.73,108.36l-0.16 32.5c-0.01,2.24 1.11,4.32 1.64,6.44 21.89,87.02 24.48,156.45 27.77,243.98 0.13,2.56 -1.29,-65.7 0.3,7.65 1.58,73.36 18.2,284.29 19.24,292.59 1.04,8.3 4.67,13.74 8.3,14.52z"/>
   <path class="fil6" d="M1404.59 617.42l20.76 33.7c0,0 87.99,151.15 100.18,172.67 12.19,21.53 64.34,18.47 64.34,18.47l-111.39 -323.76c0,0 -38.91,-6.16 -53.99,-5.84 -15.09,0.32 -24.78,23.42 -24.78,23.42l4.87 81.33z"/>
   <path class="fil21" d="M1391.35 534.79c0,0 -13.89,23.31 -5.17,76.32 6.74,40.96 44.19,173.5 42,281.29l0.02 0.01c19.16,-196.2 -16.15,-320.33 -28.47,-356.32 -2.78,-0.55 -5.57,-1.01 -8.37,-1.3z"/>
   <path class="fil20" d="M1713.76 1382.25c0,0 15.09,8.44 42.58,2.48 0,0 7,-2.59 8.56,-9.85 1.56,-7.27 22.11,-152.23 28.33,-228.98 6.22,-76.76 58.39,-364.71 -79.32,-459.16 -137.71,-94.45 -167.39,68.51 -167.39,68.51 0,0 128.47,54.08 131.58,198.25 3.11,144.17 26.33,405.94 27.36,414.24 1.04,8.29 4.67,13.74 8.3,14.52z"/>
   <path class="fil6" d="M1725.07 1385.79c7.2,1.32 17.74,1.88 31.27,-1.06 0,0 7,-2.59 8.56,-9.85 1.56,-7.26 22.11,-152.23 28.33,-228.98 4.72,-58.23 35.87,-238.04 -9.52,-362.67 -0.62,0.43 -71.51,50.11 -112.31,119.8 3.9,15.43 6.3,32.22 6.69,50.47 0.53,24.33 1.63,52.01 3.09,81.26 17.5,-18.78 40.76,-44.06 52.57,-58.23 20.4,-24.48 43.35,-15.81 51.52,-4.08 8.16,11.73 -22.96,307.05 -27.04,344.8 -2.88,26.56 -22.06,54.39 -33.17,68.54z"/>
   <path class="fil15" d="M1369.52 452.79c0.21,-0.03 0.82,2.52 3.35,6.79l-12.5 13.16c0,0 3.18,4.04 7.77,8.64 -5.69,1.96 -10.57,5.37 -13.67,9.92 0,0 -13.42,41.34 -9.52,45.35 -0.14,0.17 -0.28,0.33 -0.42,0.5 -24.17,28.54 -39,19.09 -42.02,16.53 -3.02,-2.56 -17.87,-16.17 -19.47,-16.49 -1.6,-0.32 -7.33,6.46 -11.2,3.18 -3.87,-3.28 -22.64,-26.23 -43.07,-58.48 -20.44,-32.26 -8.9,-69.42 -8.9,-69.42 49.82,-40.44 91.21,35.72 96.22,22.94 5.01,-12.78 19.3,-13.96 27.22,0.22 1.11,1.98 25.93,15.05 26.22,17.17z"/>
   <path class="fil14" d="M1369.52 452.79c0.21,-0.03 0.82,2.52 3.35,6.79l-12.5 13.16c0,0 3.18,4.04 7.77,8.64 -1.4,0.48 -2.76,1.06 -4.05,1.71 -0.23,-2.39 -0.63,-4.16 -1.27,-4.9 -3.39,-3.92 -10.17,-12.32 -10.17,-12.32 0,0 -9.47,4.41 -11.26,-6.04 -1.78,-10.46 -9.82,-20.66 -18.24,-19 -8.41,1.66 -3.58,12.61 -3.58,12.61l19.91 28.7 -3.31 34.17c0,0 -31.11,5.61 -24.73,-7.64 6.39,-13.26 -9.96,-23.47 -28.83,-44.89 -18.87,-21.43 -29.33,-19.13 -34.18,-15.81 -3.02,2.07 -17.06,11.48 -27.2,18.27 -5.13,-14.83 -5.14,-29.27 -4.05,-39.46 11.39,-8.74 27.55,-18.15 42.64,-25.22 30.52,6.71 52.67,42.96 56.25,33.83 5.01,-12.78 19.3,-13.96 27.22,0.22 1.11,1.98 25.93,15.05 26.22,17.17z"/>
   <path class="fil15" d="M1376.23 452.74c0,0 9.7,0.65 17.09,0.96 7.39,0.32 13.46,43.43 13.46,43.43l-12.59 19.14 -2.94 4.46 -9.53 14.49 -0.9 -4.47c0,0 -9.98,-7.73 -16.26,0.97 -6.28,8.7 -22.01,-14.6 -22.01,-14.6 0,0 -2.86,-51.09 33.67,-64.37z"/>
   <path class="fil14" d="M1376.23 452.74c0,0 9.7,0.65 17.09,0.96 7.39,0.32 13.46,43.43 13.46,43.43l-12.59 19.14 -2.94 4.46 -9.53 14.49 -0.9 -4.47c0,0 -9.98,-7.73 -16.26,0.97 -1.56,2.17 -3.71,2.35 -6.06,1.4l4.31 -17.95c0,0 3.4,-33.06 0,-36.98 -2.06,-2.39 -5.38,-6.43 -7.66,-9.23 4.91,-6.9 11.68,-12.8 21.07,-16.22z"/>
   <path class="fil6" d="M1298.75 452.64c-0.03,0.01 -22.76,11.11 -40.76,-23.04 0,0 -23.31,24.7 -38.5,30.88 -0.3,0.12 -0.62,0.22 -0.94,0.32l0.94 -0.32c0,0 -6.48,0.23 -13.61,-2.91 -9.06,-3.23 -20.57,-10.04 -27.74,-24.39 -13.26,-26.52 2.55,-40.04 16.83,-38.25 0,0 21.42,-46.67 33.41,-60.44 11.99,-13.77 40.04,-7.91 40.04,-7.91 0,0 -4.08,-11.99 0.76,-14.79 4.85,-2.81 31.11,2.39 41.31,32.81 0,0 20.4,-3.33 31.13,7.06 10.7,10.37 34.48,100.61 34.61,101.09 0.51,5.76 -1.76,11.56 -7.57,11.77 -8.89,0.02 -18.35,-2.67 -25.09,-11.72 0,0 -7.55,-26.93 -20.81,-22.86 0,0 -11.28,0.11 -6,19.06 0,0 4.56,8.22 10.83,13.69 6.28,5.47 23.41,16.87 35.33,44.71 11.92,27.85 -13.27,45.44 -20.18,53.61 -6.91,8.16 -18.52,14.52 -26.86,7.46 -8.35,-7.06 -27.16,-23.01 -30.02,-25.42 -2.84,-2.42 -3.51,-5.07 -2.82,-5.85 0,0 12.14,-12.88 21.36,-21.74 9.21,-8.86 16.41,-14.6 16.42,-24.72 0,-10.11 -0.24,-18.11 -9.53,-28.46 -3.81,-4.26 -8.25,-7.41 -12.53,-9.63z"/>
   <path class="fil8" d="M1257.99 429.59c0,0 -23.31,24.7 -38.5,30.88 -0.3,0.12 -0.62,0.22 -0.94,0.32l0.94 -0.32c0,0 -6.48,0.23 -13.61,-2.91 -9.06,-3.23 -20.57,-10.04 -27.74,-24.39 -13.26,-26.52 2.55,-40.04 16.83,-38.25 0,0 21.42,-46.67 33.41,-60.44 11.99,-13.77 40.04,-7.91 40.04,-7.91 0,0 -4.08,-11.99 0.76,-14.79 4.85,-2.81 31.11,2.39 41.31,32.81 0,0 0.08,30.4 -52.5,85z"/>
   <path class="fil22" d="M1175.31 426.55c-7.7,-22.13 6.61,-33.26 19.65,-31.63 0,0 82.64,19.46 93.86,-78.62 1.26,0.76 2.53,1.6 3.8,2.55 1.09,40.57 -11.01,115.65 -117.31,107.69z"/>
   <path class="fil6" d="M1267.45 497.83c2.22,-1.87 5.57,-1.59 7.44,0.62l4.45 5.26c1.87,2.22 1.6,5.56 -0.62,7.44 -2.22,1.88 -5.57,1.59 -7.44,-0.62l-4.45 -5.26c-1.87,-2.22 -1.59,-5.57 0.62,-7.44z"/>
   <path class="fil14" d="M1283.53 511.52c3.29,-2.79 8.22,-2.37 11,0.92 2.78,3.29 2.37,8.22 -0.92,11 -3.3,2.79 -8.22,2.37 -11,-0.92 -2.78,-3.29 -2.37,-8.22 0.92,-11z"/>
   <path class="fil6" d="M1268.5 487.5c0.87,-0.19 1.41,-1.05 1.22,-1.91 -0.19,-0.86 -1.05,-1.41 -1.91,-1.21 -0.03,0 -10.58,2.1 -13.96,11.43 -0.3,0.83 0.13,1.75 0.96,2.05 0.83,0.3 1.75,-0.13 2.05,-0.96 2.76,-7.64 11.62,-9.4 11.65,-9.41z"/>
   <path class="fil7" d="M1426.26 831.7c0,0 -67.31,25.12 -74.36,28.52 -7.05,3.4 -14.77,-24.65 -15.43,-29.22 -0.66,-4.56 4.17,-9.92 13.3,-15.15 9.13,-5.23 59.87,-34.64 59.87,-34.64l16.62 50.49z"/>
   <path class="fil6" d="M1436.83 829.66c-24.63,9.25 -67.3,25.37 -73.37,28.3 -8.6,4.15 -18.03,-30.1 -18.83,-35.68 -0.8,-5.57 5.09,-12.11 16.24,-18.5 6.3,-3.61 28.85,-16.66 47.25,-27.32 0,0 16.44,-11.42 18.9,-36.61 2.46,-25.19 11.13,-140.74 11.13,-140.74l67.45 30 11.96 17.64c0,0 -25.29,109.41 -35.21,134.84 -9.92,25.43 -23.7,39.86 -45.53,48.08z"/>
   <path class="fil23" d="M1780.91 677.27c0,0 47.94,82.94 56.99,207.15 0,0 0.78,4.2 -4.02,6.25 -4.8,2.04 -44.95,0.11 -92.13,58.03 -47.17,57.91 -122.57,109.94 -165.79,103.16 0,0 -4.68,-0.03 -5.26,-7.6 -0.58,-7.57 -9.63,-347.37 -148.5,-470.17 0,0 -13.48,-11.07 -12.99,-29.89 0.5,-18.82 217.57,-95.84 371.69,133.07z"/>
   <path class="fil24" d="M1741.8 762.16l-10.06 33.67c0,0 -21.42,1.04 -76.98,-110.41 0,0 -22.11,-42.94 -85.92,-56.06l28.42 -40.45c0,0 121.31,21.43 120.68,31.78 -0.63,10.35 23.85,141.48 23.85,141.48z"/>
   <path class="fil6" d="M1458.04 673.51l40.04 -26.89c4.02,-2.7 10.01,-1.94 13.29,1.69l69.98 77.33c3.29,3.63 2.68,8.81 -1.34,11.52l-40.04 26.88c-4.03,2.7 -10.01,1.94 -13.3,-1.69l-69.98 -77.32c-3.29,-3.63 -2.69,-8.82 1.35,-11.52z"/>
   <path class="fil8" d="M1452.23 677.41l40.04 -26.89c4.02,-2.7 10,-1.94 13.29,1.69l69.98 77.33c3.29,3.63 2.68,8.81 -1.34,11.52l-40.04 26.89c-4.03,2.7 -10.01,1.94 -13.3,-1.69l-69.97 -77.32c-3.29,-3.63 -2.69,-8.82 1.35,-11.52z"/>
   <path class="fil25" d="M1457.93 686.87l6.44 -4.33c0.65,-0.44 1.61,-0.31 2.14,0.27l17.32 19.13c0.53,0.58 0.44,1.42 -0.21,1.85l-6.45 4.33c-0.65,0.44 -1.61,0.31 -2.14,-0.27l-17.33 -19.13c-0.53,-0.59 -0.43,-1.42 0.22,-1.85z"/>
   <path class="fil26" d="M1463.36 686.88c1.69,-1.14 4.15,-0.8 5.48,0.77 1.33,1.57 1.04,3.76 -0.66,4.89 -1.69,1.14 -4.15,0.79 -5.48,-0.77 -1.34,-1.56 -1.04,-3.75 0.65,-4.89z"/>
   <path class="fil26" d="M1469.98 694.3c1.69,-1.14 4.15,-0.8 5.48,0.77 1.33,1.57 1.04,3.76 -0.66,4.89 -1.69,1.14 -4.15,0.8 -5.48,-0.77 -1.33,-1.56 -1.04,-3.76 0.65,-4.89z"/>
   <path class="fil7" d="M1471.02 695.53c0.96,-0.65 2.35,-0.45 3.11,0.44 0.76,0.89 0.59,2.13 -0.37,2.78 -0.96,0.64 -2.35,0.45 -3.11,-0.44 -0.76,-0.89 -0.59,-2.13 0.37,-2.78z"/>
   <path class="fil7" d="M1464.31 688.01c1.02,-0.69 2.5,-0.48 3.3,0.46 0.8,0.94 0.63,2.26 -0.39,2.94 -1.02,0.68 -2.49,0.48 -3.3,-0.46 -0.8,-0.94 -0.63,-2.26 0.39,-2.94z"/>
   <path class="fil26" d="M1476.3 701.38c1.02,-0.69 2.5,-0.48 3.3,0.46 0.8,0.94 0.63,2.26 -0.39,2.94 -1.02,0.68 -2.5,0.48 -3.3,-0.46 -0.8,-0.94 -0.62,-2.26 0.39,-2.94z"/>
   <path class="fil6" d="M1413.3 424.14c-0.81,0.47 -17.44,4.78 -20.24,6.04 -2.8,1.26 -3.69,7.18 -4.3,17.27 -0.62,10.09 -8.82,84.93 -9.21,89.19 -0.39,4.26 1.14,6.83 4.83,8.09 3.69,1.27 46.28,16.59 46.28,16.59l-17.35 -137.18z"/>
   <path class="fil7" d="M1643.76 634.98c0,0 -64.34,42.64 -71.74,46.61 -7.41,3.98 12.1,28.4 15.65,31.86 3.56,3.45 11.26,2.65 21.57,-1.99 10.31,-4.63 67.91,-30.16 67.91,-30.16l-33.38 -46.33z"/>
   <path class="fil20" d="M1672.49 610.03c0,0 -84.14,55.76 -93.82,60.96 -9.68,5.2 15.82,37.15 20.46,41.67 4.65,4.52 14.72,3.46 28.2,-2.6 13.49,-6.06 88.82,-39.44 88.82,-39.44l-43.66 -60.59z"/>
   <path class="fil27" d="M1493.97 617.8c0,0 39.71,9.56 86.81,12.44 47.1,2.87 144.91,9.36 150.96,165.6 0,0 0.73,0.82 3.25,-0.06 2.52,-0.89 70.63,-61.29 80.2,-90.32 9.57,-29.03 -45.75,-135.8 -76.09,-149.6 -30.34,-13.8 -86.8,-25.04 -148.49,-86.99 -61.68,-61.95 -146.56,-54.53 -146.56,-54.53l-18.46 68.37c0,0 8.43,117.41 68.37,135.1z"/>
   <path class="fil28" d="M1714.57 709.65c9.45,21.92 15.77,50.04 17.17,86.18 0,0 0.73,0.82 3.25,-0.06 2.52,-0.89 70.63,-61.29 80.2,-90.32 3.83,-11.62 -2.74,-35.7 -13.95,-61.29 -0.04,18.72 -2.5,39.45 -11.86,49.78 -13.12,14.49 -51.39,16.16 -74.81,15.72zm29.58 -150.82l0 0c-1.74,-1.24 -3.43,-2.25 -5.04,-2.98 -30.34,-13.8 -86.8,-25.04 -148.49,-86.99 -1.28,-1.28 -2.57,-2.52 -3.86,-3.75 0.46,1.03 39.83,90.22 -58.56,110 0,0 -6.37,1.28 -4.59,6.63 1.78,5.35 180.87,-48.17 220.54,-22.9z"/>
   <path class="fil28" d="M1447.59 414.14c-2.29,0.08 -3.54,0.19 -3.54,0.19l-11.28 41.76 16.37 114.17 14.37 5.92c0,0 -2.39,-15.99 -1.11,-17.14 1.28,-1.15 31.37,-15.94 35.2,-17.98 3.83,-2.04 3.06,-5.74 3.06,-5.74 -2.94,-6.12 -44.02,-100.38 -53.07,-121.18z"/>
   <path class="fil29" d="M1413.84 410.93c0,0 -3.87,1.58 -5.05,6.06 -1.18,4.47 0.52,97.97 0.93,108.38 0.4,10.42 42.36,63.63 52.78,75.96 10.42,12.32 25.82,15.34 31.47,16.47 0,0 0.49,-0.04 0.55,-0.52 0.06,-0.48 -16.35,-7.26 -21.34,-14.84 -4.99,-7.58 -13.66,-40.06 -14.67,-44.8 0,0 28.84,-13.89 33.81,-16.71 4.98,-2.81 5.77,-5.1 3.88,-8.33 -1.88,-3.23 -48.76,-114.16 -52.15,-118.26 -3.39,-4.1 -15.66,-5.11 -30.21,-3.4z"/>
   <path class="fil8" d="M1278.41 328.07c0.65,0.46 0.81,1.36 0.35,2.01 -0.46,0.65 -1.36,0.81 -2.02,0.35 -0.04,-0.04 -15.83,-11.38 -41.24,-6.65 -0.78,0.15 -1.54,-0.37 -1.68,-1.16 -0.14,-0.78 0.38,-1.54 1.16,-1.68 26.61,-4.96 43.37,7.09 43.42,7.12z"/>
   <path class="fil6" d="M1217.86 454.99c0.72,-0.35 1.59,-0.06 1.93,0.66 0.35,0.71 0.06,1.57 -0.65,1.93 -0.08,0.04 -27.09,13.87 -44.07,-17.72 -0.38,-0.7 -0.11,-1.57 0.59,-1.96 0.7,-0.37 1.58,-0.11 1.96,0.59 15.65,29.1 40.18,16.54 40.25,16.5z"/>
   <path class="fil15" d="M1570.49 683.67c-4.26,-1.52 -13.11,-6.34 -15.45,-7.51 -2.64,-1.32 -24.72,-6.27 -24.72,-6.27l11.87 13.19c0,0 -36.27,15.83 -44.18,22.09 -7.91,6.26 -2.96,9.23 3.96,9.23 6.92,0 6.92,0 6.92,0 0,0 -1.32,11.87 7.58,12.2 8.9,0.33 9.56,0 9.56,0 0,0 3.3,9.89 10.55,8.9 7.25,-0.99 19.78,-3.95 34.28,-12.2 11.73,-6.66 14.83,-10.09 15.59,-11.16 -4.77,-5.39 -17.45,-21.99 -15.96,-28.47z"/>
   <path class="fil14" d="M1570.49 683.67c-1.2,-0.43 -2.77,-1.12 -4.45,-1.92 -0.76,13.06 9.37,23.44 -6.75,32.06 -17.75,9.49 -29.38,7.04 -49.58,-12.24 -0.94,-0.64 -1.84,-1.24 -2.74,-1.82 -3.94,2.1 -7.18,4.01 -8.97,5.42 -7.91,6.26 -2.96,9.23 3.96,9.23 6.92,0 6.92,0 6.92,0 0,0 -1.32,11.87 7.58,12.2 8.9,0.33 9.56,0 9.56,0 0,0 3.3,9.89 10.55,8.9 7.25,-0.99 19.78,-3.95 34.28,-12.2 11.73,-6.66 14.83,-10.09 15.59,-11.16 -4.77,-5.39 -17.45,-21.99 -15.96,-28.47z"/>
   <path class="fil13" d="M1043.4 729.66l-458.15 0c-22.83,0 -41.5,15.61 -41.5,34.7l0 680.99 541.16 0 0 -680.99c0,-19.09 -18.68,-34.7 -41.5,-34.7z"/>
   <path class="fil2" d="M1118.63 729.66l-383.82 0c-19.13,0 -34.77,13.08 -34.77,29.07l0 686.63 453.36 0 0 -686.63c0,-15.99 -15.65,-29.07 -34.77,-29.07z"/>
   <path class="fil7" d="M1118.63 747.57l-383.82 0c-4.19,0 -7.62,2.87 -7.62,6.37l0 691.42 399.06 0 0 -691.42c0,-3.5 -3.43,-6.37 -7.62,-6.37z"/>
   <path class="fil5" d="M874.4 747.57l104.65 0c4.89,0 8.88,3.34 8.88,7.42l0 0.01c0,4.08 -3.99,7.42 -8.88,7.42l-104.65 0c-4.88,0 -8.88,-3.34 -8.88,-7.42l0 -0.01c0,-4.08 4,-7.42 8.88,-7.42z"/>
   <path class="fil5" d="M734.81 747.57l383.82 0c4.19,0 7.62,2.87 7.62,6.37l0 1.05 -399.06 0 0 -1.05c0,-3.5 3.43,-6.37 7.62,-6.37z"/>
   <path class="fil5" d="M874.4 1276.2l104.65 0c4.89,0 8.88,3.34 8.88,7.42l0 0.01c0,4.08 -3.99,7.42 -8.88,7.42l-104.65 0c-4.88,0 -8.88,-3.34 -8.88,-7.42l0 -0.01c0,-4.08 4,-7.42 8.88,-7.42z"/>
   <path class="fil5" d="M734.81 1276.2l383.82 0c4.19,0 7.62,2.87 7.62,6.37l0 1.06 -399.06 0 0 -1.06c0,-3.5 3.43,-6.37 7.62,-6.37z"/>
   <polygon class="fil6" points="818.16,859.22 727.19,859.22 727.19,1002.16 818.16,1002.16 "/>
   <polygon class="fil6" points="818.16,880.37 727.19,880.37 727.19,1002.16 818.16,1002.16 "/>
   <polygon class="fil7" points="727.19,893.26 818.16,893.26 818.16,1002.16 727.19,1002.16 "/>
   <polygon class="fil30" points="727.19,893.26 818.16,893.26 818.16,1002.16 727.19,1002.16 "/>
   <path class="fil8" d="M818.16 884.08l-67.32 0c-9.94,0 -20.11,7.56 -23.65,17.21l0 100.87 90.97 0 0 -118.08z"/>
   <polygon class="fil6" points="818.16,859.22 755.94,859.22 755.94,985.58 818.16,985.58 "/>
   <polygon class="fil6" points="818.16,880.37 755.94,880.37 755.94,985.58 818.16,985.58 "/>
   <polygon class="fil31" points="755.94,893.26 818.16,893.26 818.16,985.58 755.94,985.58 "/>
   <polygon class="fil32" points="755.94,893.26 818.16,893.26 818.16,985.58 755.94,985.58 "/>
   <polygon class="fil6" points="818.16,884.08 755.94,884.08 755.94,985.58 818.16,985.58 "/>
   <path class="fil8" d="M938.02 859.22l-139.04 0c-10.7,0 -19.46,8.76 -19.46,19.46l0 123.48 158.5 0 0 -142.94z"/>
   <path class="fil6" d="M938.02 880.37l-128.23 0c-10.7,0 -19.46,8.76 -19.46,19.46l0 102.33 147.68 0 0 -121.79z"/>
   <path class="fil7" d="M798.62 1002.16l0 -93.04c0,-8.72 7.13,-15.85 15.85,-15.85l123.55 0 0 108.9 -139.4 0z"/>
   <path class="fil33" d="M808.29 1002.16l24.75 -98.62c0.94,-3.77 2.91,-7.29 5.54,-10.28l99.44 0 0 108.9 -129.73 0z"/>
   <path class="fil8" d="M938.02 884.08l-67.32 0c-10.7,0 -21.65,8.75 -24.34,19.46l-24.75 98.62 116.42 0 0 -118.08z"/>
   <polygon class="fil6" points="938.02,859.22 875.8,859.22 875.8,985.58 938.02,985.58 "/>
   <polygon class="fil6" points="938.02,880.37 875.8,880.37 875.8,985.58 938.02,985.58 "/>
   <polygon class="fil31" points="875.8,893.26 938.02,893.26 938.02,985.58 875.8,985.58 "/>
   <polygon class="fil32" points="875.8,893.26 938.02,893.26 938.02,985.58 875.8,985.58 "/>
   <polygon class="fil6" points="938.02,884.08 875.8,884.08 875.8,985.58 938.02,985.58 "/>
   <path class="fil8" d="M1057.88 859.22l-139.04 0c-10.7,0 -19.46,8.76 -19.46,19.46l0 123.48 158.5 0 0 -142.94z"/>
   <path class="fil6" d="M1057.88 880.37l-128.23 0c-10.7,0 -19.46,8.76 -19.46,19.46l0 102.33 147.69 0 0 -121.79z"/>
   <path class="fil7" d="M918.48 1002.16l0 -93.04c0,-8.72 7.13,-15.85 15.85,-15.85l123.55 0 0 108.9 -139.4 0z"/>
   <path class="fil33" d="M928.15 1002.16l24.75 -98.62c0.94,-3.77 2.91,-7.29 5.53,-10.28l99.44 0 0 108.9 -129.73 0z"/>
   <path class="fil8" d="M1057.88 884.08l-67.33 0c-10.7,0 -21.65,8.75 -24.34,19.46l-24.75 98.62 116.42 0 0 -118.08z"/>
   <polygon class="fil6" points="1057.88,859.22 995.66,859.22 995.66,985.58 1057.88,985.58 "/>
   <polygon class="fil6" points="1057.88,880.37 995.66,880.37 995.66,985.58 1057.88,985.58 "/>
   <polygon class="fil31" points="995.66,893.26 1057.88,893.26 1057.88,985.58 995.66,985.58 "/>
   <polygon class="fil32" points="995.66,893.26 1057.88,893.26 1057.88,985.58 995.66,985.58 "/>
   <polygon class="fil6" points="1057.88,884.08 995.66,884.08 995.66,985.58 1057.88,985.58 "/>
   <path class="fil8" d="M1035.14 1076.5l234.95 0c10.7,0 19.46,-8.76 19.46,-19.46l0 -178.37c0,-10.7 -8.76,-19.46 -19.46,-19.46l-9.55 0 0 -9.06c0,-2.95 -2.41,-5.36 -5.36,-5.36l-70.98 0c-2.94,0 -5.35,2.41 -5.35,5.36l0 9.06 -143.7 0c-10.7,0 -19.46,8.76 -19.46,19.46l0 178.37c0,10.7 8.76,19.46 19.46,19.46z"/>
   <path class="fil6" d="M1035.14 1076.5l234.95 0c10.7,0 19.46,-8.76 19.46,-19.46l0 -174.63c-2.61,-1.3 -5.54,-2.04 -8.65,-2.04l-9.56 0 0 -9.06c0,-2.95 -2.41,-5.36 -5.35,-5.36l-70.98 0c-2.94,0 -5.36,2.41 -5.36,5.36l0 9.06 -143.7 0c-10.7,0 -19.46,8.76 -19.46,19.46l0 174.63c2.61,1.3 5.55,2.04 8.65,2.04z"/>
   <path class="fil7" d="M1199.09 1076.5l-148.46 0c-8.72,0 -15.85,-7.13 -15.85,-15.85l0 -151.53c0,-8.72 7.13,-15.85 15.85,-15.85l148.46 0c8.72,0 15.86,7.13 15.86,15.85l0 151.53c0,8.72 -7.14,15.85 -15.86,15.85z"/>
   <path class="fil33" d="M1199.09 1076.5l-148.46 0c-8.72,0 -15.85,-7.13 -15.85,-15.85l0 -19.95 34.43 -137.16c0.94,-3.77 2.91,-7.29 5.53,-10.28l124.36 0c8.72,0 15.86,7.13 15.86,15.85l0 151.53c0,8.72 -7.14,15.85 -15.86,15.85z"/>
   <path class="fil8" d="M1058.56 1076.5l216.93 0c10.7,0 21.66,-8.76 24.34,-19.46l38.53 -153.5c2.69,-10.7 -3.87,-19.46 -14.58,-19.46l-11.4 0 2.42 -9.64c0.98,-3.91 -1.41,-7.11 -5.32,-7.11l-79.18 0c-3.91,0 -7.91,3.2 -8.89,7.11l-2.41 9.64 -112.14 0c-10.7,0 -21.66,8.75 -24.34,19.46l-38.53 153.5c-2.69,10.7 3.87,19.46 14.57,19.46z"/>
   <path class="fil8" d="M1289.54 912.01l-30.79 122.68c-2.69,10.7 -13.64,19.46 -24.35,19.46l-19.46 0 -170.24 0 -0.72 2.88c-2.69,10.7 3.87,19.46 14.57,19.46l140.53 0 70.99 0 5.41 0c10.7,0 21.66,-8.76 24.34,-19.46l38.52 -153.5c2.69,-10.7 -3.87,-19.46 -14.58,-19.46l-11.4 0 2.42 -9.64c0.98,-3.91 -1.41,-7.11 -5.32,-7.11l-14.56 0c2.7,3.54 3.71,8.45 2.36,13.86l-7.74 30.82z"/>
   <polygon class="fil11" points="994.68,1099.99 1393.73,1099.99 1393.73,931.2 994.68,931.2 "/>
   <path class="fil5" d="M874.4 1099.99l104.65 0c4.89,0 8.88,3.34 8.88,7.43l0 0.01c0,4.09 -3.99,7.42 -8.88,7.42l-104.65 0c-4.88,0 -8.88,-3.33 -8.88,-7.42l0 -0.01c0,-4.08 4,-7.43 8.88,-7.43z"/>
   <path class="fil5" d="M734.81 1099.99l383.82 0c4.19,0 7.62,2.87 7.62,6.37l0 1.06 -399.06 0 0 -1.06c0,-3.51 3.43,-6.37 7.62,-6.37z"/>
   <path class="fil5" d="M1002.3 923.78l139.47 0 0.11 0 104.64 0 0.12 0 139.47 0c4.19,0 7.62,2.87 7.62,6.37l0 1.06 -138.33 0 0 0c0,4.08 -4,7.42 -8.88,7.42l-104.64 0c-4.88,0 -8.87,-3.34 -8.87,-7.42l0 -0 -138.33 0 0 -1.06c0,-3.5 3.43,-6.37 7.62,-6.37z"/>
   <path class="fil33" d="M994.68 1099.99l0 -168.79 -267.49 0 0 175.16c0,-3.51 3.43,-6.37 7.62,-6.37l139.43 0c0.05,-0 0.11,-0 0.16,-0l104.65 0c0.05,0 0.11,0 0.16,0l15.48 0z"/>
   <path class="fil5" d="M553.64 914.66c-45.69,-50.63 -79.68,13.68 -74.94,78.24 4.5,61.21 52.98,271.23 43.99,359.59l18.56 0c45.41,-113.3 70.87,-373.02 12.38,-437.83z"/>
   <path class="fil2" d="M534.44 1352.49c44.2,-178.58 -11.75,-425.43 -11.94,-426.27 -0.34,-1.54 -1.76,-2.48 -3.17,-2.11 -1.41,0.37 -2.27,1.92 -1.93,3.45 0.19,0.84 56.21,247.97 11.67,424.92l5.37 0z"/>
   <path class="fil17" d="M440.92 1026.24c-48.15,-27.76 -60.29,32.81 -41.52,82.93 15.56,41.53 84.28,164.39 110.26,243.32l24.47 0c2.08,-109.08 -36.38,-293.48 -93.22,-326.25z"/>
   <path class="fil34" d="M525.2 1352.49c-15.93,-147.53 -106.08,-307.89 -106.4,-308.47 -0.63,-1.13 -1.98,-1.49 -3.01,-0.8 -1.04,0.68 -1.37,2.15 -0.74,3.28 0.32,0.58 89.89,159.9 105.8,306l4.35 0z"/>
   <path class="fil3" d="M644.42 1096.26c46.67,-22.18 54.07,35.2 33.33,80.46 -14.03,30.63 -64.58,109.06 -98.62,175.77l-38.86 0c13.29,-100.93 55.91,-233.29 104.15,-256.23z"/>
   <path class="fil4" d="M554.15 1352.49c33.13,-122.28 109.44,-237.51 109.74,-237.97 0.66,-1 1.94,-1.23 2.86,-0.52 0.92,0.72 1.13,2.11 0.48,3.11 -0.3,0.46 -75.8,114.49 -108.85,235.37l-4.22 0z"/>
   <path class="fil8" d="M480.48 1312.12l136.72 0c4.09,0 7.44,3.64 7.44,8.09l0 36.74c0,4.45 -3.35,8.09 -7.44,8.09l-136.72 0c-4.09,0 -7.44,-3.64 -7.44,-8.09l0 -36.74c0,-4.46 3.34,-8.09 7.44,-8.09z"/>
   <polygon class="fil8" points="503.94,1342.01 593.76,1342.01 617.21,1365.04 598.05,1445.36 548.85,1445.36 499.64,1445.36 480.48,1365.04 "/>
   <polygon class="fil6" points="617.21,1365.04 613.27,1381.56 484.42,1381.56 480.48,1365.04 "/>
   <path class="fil15" d="M1336.45 829.61c-2.44,1.8 -3.77,2.98 -3.77,2.98 0,0 -21.43,-1.95 -27.93,5.52 -6.49,7.47 -20.78,25.65 -26.94,28.57 -6.17,2.93 0.65,8.12 13.63,3.57 12.99,-4.55 27.6,-15.59 27.6,-15.59 0,0 13.48,3.22 24.02,-3.14 -3.54,-7.7 -6.21,-17.94 -6.58,-20.54 -0.06,-0.45 -0.07,-0.91 -0.03,-1.38z"/>
  </g>
 </g>
</svg>
