<?xml version="1.0" encoding="UTF-8"?>
<!DOCTYPE svg PUBLIC "-//W3C//DTD SVG 1.1//EN" "http://www.w3.org/Graphics/SVG/1.1/DTD/svg11.dtd">
<!-- Creator: CorelDRAW 2018 (64-Bit) -->
<svg xmlns="http://www.w3.org/2000/svg" xml:space="preserve" width="2.34061in" height="1.48111in" version="1.1" style="shape-rendering:geometricPrecision; text-rendering:geometricPrecision; image-rendering:optimizeQuality; fill-rule:evenodd; clip-rule:evenodd"
viewBox="0 0 2340.61 1481.11"
 xmlns:xlink="http://www.w3.org/1999/xlink">
 <defs>
  <style type="text/css">
   <![CDATA[
    .fil21 {fill:#1B810E}
    .fil22 {fill:white}
    .fil23 {fill:white}
    .fil12 {fill:black;fill-rule:nonzero}
    .fil3 {fill:#097210;fill-rule:nonzero}
    .fil4 {fill:#0B182A;fill-rule:nonzero}
    .fil9 {fill:#131313;fill-rule:nonzero}
    .fil10 {fill:#163560;fill-rule:nonzero}
    .fil14 {fill:#1B810E;fill-rule:nonzero}
    .fil6 {fill:#212121;fill-rule:nonzero}
    .fil13 {fill:#30920A;fill-rule:nonzero}
    .fil2 {fill:#46A509;fill-rule:nonzero}
    .fil7 {fill:#4F4F4F;fill-rule:nonzero}
    .fil5 {fill:#81D701;fill-rule:nonzero}
    .fil17 {fill:#999999;fill-rule:nonzero}
    .fil11 {fill:#D68D5D;fill-rule:nonzero}
    .fil1 {fill:#DFF5B8;fill-rule:nonzero}
    .fil8 {fill:#E49963;fill-rule:nonzero}
    .fil19 {fill:#ED985F;fill-rule:nonzero}
    .fil15 {fill:#F4A269;fill-rule:nonzero}
    .fil16 {fill:#FFB27D;fill-rule:nonzero}
    .fil20 {fill:white;fill-rule:nonzero}
    .fil18 {fill:white;fill-rule:nonzero}
    .fil0 {fill:#BABCBD;fill-rule:nonzero}
   ]]>
  </style>
 </defs>
 <g id="Layer_x0020_1">
  <metadata id="CorelCorpID_0Corel-Layer"/>
  <g id="_777417813440">
   <g>
    <path class="fil0" d="M2340.61 1362.06c0,65.75 -488.03,119.05 -1090.04,119.05 -602.02,0 -1090.04,-53.3 -1090.04,-119.05 0,-65.75 488.03,-119.05 1090.04,-119.05 602.01,0 1090.04,53.3 1090.04,119.05z"/>
    <path class="fil1" d="M2134.25 1352.11l-1882.98 -0.64c0,0 -318.2,-438.55 -148.5,-731.92 169.71,-293.38 417.58,-86.28 438.25,-298.24 0.7,-7.17 0.14,-14.27 0.14,-21.2 -0.01,-1.65 0.02,-3.28 0.11,-4.91 6.35,-121.72 85.78,-200.39 190.59,-245.65 3.38,-1.47 6.79,-2.89 10.22,-4.28 167.14,-67.74 393.15,-53.8 493.2,4.44 170.23,99.09 169.17,218.36 520.69,179.02 351.51,-39.33 418.56,289.65 327.05,457.26 -129.85,237.84 360.03,198.77 51.22,666.11z"/>
   </g>
   <path class="fil2" d="M356.65 1170.05c0,0 -38.22,-44.6 -2.36,-72.91 0,0 26.2,-15.86 47.56,-14.58 0,0 -30.27,50.76 -20.48,55.8 9.79,5.06 29.65,-58.98 29.65,-58.98 0,0 59.61,-5.78 78.79,3.44 0,0 -50.96,41.7 -40.23,44.19 10.73,2.49 65.78,-38.45 65.78,-38.45 0,0 55.48,9.44 52.52,43.29 -2.96,33.85 -22.07,44.3 -30.48,43.4 -8.4,-0.91 -57.56,-19.67 -58.63,-12.78 -1.07,6.89 28.52,29.39 49.23,30.44 0,0 -39.11,43.13 -65.11,30.69 -26,-12.46 -28.22,-32.18 -44.43,-39.59 -16.2,-7.4 -30.04,-7.38 -23.35,0.17 6.69,7.55 36.02,14.88 45.29,31.28 9.27,16.4 17.58,27.46 -9.31,23.41 -26.89,-4.04 -70.62,-23.73 -72.54,-46.26 -1.92,-22.54 -1.92,-22.54 -1.92,-22.54z"/>
   <path class="fil3" d="M540.62 1132.76c0,0 -150.7,-5.81 -183.98,37.29 0,0 -7.36,22.04 -30.01,42.11l-3.53 9.63c0,0 26.11,-27.54 35.46,-29.2 0,0 -14.61,-53.4 182.06,-59.83z"/>
   <path class="fil3" d="M326.63 1212.15c0,0 -32.34,23.93 -34.59,66.67l5.87 0.53c0,0 10.33,-44.2 29,-61.48 18.67,-17.29 -0.28,-5.72 -0.28,-5.72z"/>
   <path class="fil4" d="M223.01 1113.96c0,0 60.8,-34.04 32.43,-80.25 0,0 -22.7,-28.37 -47.02,-35.67 0,0 12.98,68.91 0,70.53 -12.97,1.62 -8.91,-77.82 -8.91,-77.82 0,0 -64.04,-30.81 -89.17,-28.37 0,0 39.72,67.28 26.75,65.67 -12.97,-1.62 -57.56,-69.72 -57.56,-69.72 0,0 -65.66,-12.16 -76.2,26.75 -10.54,38.91 6.48,58.37 16.21,60.8 9.72,2.43 72.14,1.62 70.52,9.72 -1.62,8.1 -43.77,21.07 -67.28,13.78 0,0 25.94,64.04 59.99,60.8 34.05,-3.25 44.59,-24.32 65.67,-25.94 21.07,-1.63 36.48,4.05 25.94,9.72 -10.54,5.68 -46.21,1.86 -63.23,16.33 -17.02,14.47 -30.8,23.4 0.81,29.88 31.61,6.48 88.36,2.43 99.71,-21.89 11.35,-24.32 11.35,-24.32 11.35,-24.32z"/>
   <path class="fil4" d="M33.32 997.23c0,0 170.24,55.13 189.69,116.73 0,0 -0.81,27.57 16.21,59.19l0 12.16c0,0 -17.83,-41.35 -27.56,-47.02 0,0 38.1,-53.5 -178.34,-141.05z"/>
   <path class="fil4" d="M239.22 1173.15c0,0 26.25,39.86 11.29,88.39l-6.76 -1.82c0,0 6.56,-53.44 -7.18,-80.33 -13.74,-26.89 2.65,-6.24 2.65,-6.24z"/>
   <path class="fil5" d="M319.74 1067.01c0,0 -80.15,-44.88 -42.74,-105.8 0,0 29.92,-37.4 61.98,-47.02 0,0 -17.09,90.83 0,92.96 17.1,2.14 11.75,-102.58 11.75,-102.58 0,0 84.42,-40.61 117.55,-37.4 0,0 -52.36,88.69 -35.26,86.56 17.1,-2.14 75.87,-91.9 75.87,-91.9 0,0 86.56,-16.03 100.45,35.26 13.89,51.29 -8.55,76.94 -21.37,80.15 -12.82,3.2 -95.11,2.13 -92.97,12.83 2.14,10.68 57.7,27.78 88.69,18.16 0,0 -34.19,84.42 -79.07,80.14 -44.88,-4.26 -58.78,-32.06 -86.56,-34.19 -27.78,-2.14 -48.09,5.34 -34.19,12.82 13.89,7.47 60.91,2.45 83.35,21.53 22.44,19.07 40.61,30.83 -1.07,39.38 -41.67,8.54 -116.47,3.2 -131.44,-28.85 -14.96,-32.06 -14.96,-32.06 -14.96,-32.06z"/>
   <path class="fil2" d="M569.79 913.13c0,0 -224.41,72.67 -250.05,153.88 0,0 1.07,36.33 -21.37,78.01l0 16.03c0,0 23.51,-54.51 36.33,-61.98 0,0 -50.22,-70.52 235.09,-185.94z"/>
   <path class="fil2" d="M298.37 1145.02c0,0 -34.61,52.56 -14.88,116.52l8.91 -2.4c0,0 -8.64,-70.45 9.46,-105.89 18.11,-35.44 -3.49,-8.23 -3.49,-8.23z"/>
   <path class="fil6" d="M317.04 1400.26c86.7,0 156.99,-70.28 156.99,-156.99l-313.98 0c0,86.7 70.29,156.99 157,156.99z"/>
   <path class="fil7" d="M355.67 1399.06c-6.39,0.8 -12.9,1.2 -19.5,1.2 -86.7,0 -156.98,-70.29 -156.98,-157l39 0c0,80.1 59.99,146.19 137.49,155.79z"/>
   <path class="fil6" d="M476.2 1408.25l-318.32 0 0 0c0,-10.69 8.67,-19.36 19.37,-19.36l279.58 0c10.7,0 19.37,8.67 19.37,19.36l0 0z"/>
   <polygon class="fil6" points="154.88,1248.09 477.59,1248.09 477.59,1243.27 154.88,1243.27 "/>
   <path class="fil4" d="M1741.69 1356.98c0,0 3.15,50.75 12.98,51.48 1.3,0.09 49.8,0.09 49.8,0.09l61.9 -0.35c0,0 -0.41,-14.91 -18.5,-18.07 -18.09,-3.15 -48.38,-15.87 -59.35,-39.78 -11.53,-25.16 -46.83,6.63 -46.83,6.63z"/>
   <path class="fil8" d="M1708.66 756.84c0,0 29.23,16.61 37.41,16.61 8.19,-0 40.29,-6.21 49.24,-1.63 8.94,4.57 25.15,22.97 28.2,28.99 5.46,10.81 -22.02,6.03 -35,-3.17 -1.9,-1.34 -4.23,-1.83 -6.5,-1.34 -6.72,1.47 -20.7,4.01 -27.44,1.51 -9.07,-3.36 -56.87,-7.09 -56.87,-7.09l10.94 -33.88z"/>
   <path class="fil2" d="M1486.33 530.54c0,0 30.3,215.3 80.46,234.58 24.75,9.52 134.13,31.09 166.5,33.25 0,0 7.92,-6.43 5.98,-32.6 0,0 -114.59,-42.07 -130.87,-64.95 -24.23,-34.06 15.04,-139.12 -15.36,-171.1 -30.41,-31.98 -81.62,-45.73 -106.7,0.82z"/>
   <path class="fil9" d="M1496.55 984.13c8.83,14.99 19.06,29.04 29.59,42.33 32.56,41.1 68,74.99 74.18,107.02 1.22,6.39 3.17,13.27 5.72,20.5 2.58,7.34 5.77,15.05 9.44,23.03 13.81,30.01 34.48,63.64 55.12,94.21 35.64,52.83 69.17,96.93 69.17,96.93l61.51 -2.62c-2.46,-6.17 -29.28,-79.13 -65.18,-168.29 -14.55,-36.2 -30.05,-74.7 -44.99,-111.83 -2.01,-4.96 -3.99,-9.9 -5.96,-14.8 -4.58,-11.36 -9.07,-22.54 -13.45,-33.44 -33.7,-83.72 -60.54,-150.39 -60.54,-150.39 0,0 -134.65,-51.01 -148.64,-17.96 -11.52,27.26 -2.13,53.95 34.03,115.28z"/>
   <path class="fil10" d="M1599.3 1212.01c0,0 -42.77,27.48 -38.62,36.42 0.56,1.19 24.19,43.52 24.19,43.52l30.49 53.87c0,0 12.83,-7.62 6.76,-24.96 -6.07,-17.33 -9.73,-49.98 5.8,-71.2 16.34,-22.33 -28.62,-37.65 -28.62,-37.65z"/>
   <path class="fil6" d="M1620.23 1260.31c0,0 -26.73,-23.57 -31.44,-40.87 0,0 110.15,-131.98 134.05,-161.56 1.08,-1.36 0.8,-2.85 -0.65,-4.48 -18.02,-20.34 -218.46,-61.69 -244.65,-102.44 -9.02,-14.04 -14.14,-27.37 -16.92,-39.02 -5.94,-24.87 -1.24,-42.04 -1.24,-42.04l200.16 -5.79c0,0 166.65,103.77 185.52,174.52 18.87,70.76 -224.83,221.69 -224.83,221.69z"/>
   <path class="fil9" d="M1722.19 1053.41c-18.02,-20.34 -218.46,-61.69 -244.65,-102.44 -9.02,-14.04 -14.14,-27.37 -16.92,-39.02l0 -25.33 85.07 -13.38c0,0 24.12,74.23 95.56,102.07 66.93,26.07 79.6,72.34 80.94,78.11z"/>
   <path class="fil8" d="M1604.77 516.96c-40.5,10.46 -107.62,-27.05 -107.62,-27.05 0,0 26.06,-17.52 35.72,-56 0.49,-1.94 0.93,-3.93 1.32,-5.96 4.24,-0.9 12.24,-2.6 20.8,-4.41l30.93 27.71c0,0 -0.71,11.5 -4.57,31.28 -0.67,3.45 -1.44,7.15 -2.33,11.1 16.6,10.28 25.74,23.34 25.74,23.34z"/>
   <path class="fil5" d="M1454.28 684.8c5.79,78.01 -1.83,196.65 4.75,217.2 5.68,17.73 70.37,7.19 96.2,1.27 9.56,-2.19 21.14,-5.32 33.09,-9.02 33.36,-10.33 69.71,-25.07 73.59,-36.02 0.15,-0.43 0.28,-0.85 0.37,-1.26 0.37,-1.59 0.28,-3.08 -0.06,-4.59 -1.32,-5.58 -6.33,-11.61 -6.91,-25.44 -0.67,-15.43 -0.56,-33.59 -1.14,-53.13 -0.02,-2.2 -0.04,-4.6 -0.3,-6.79l0 -0.8c-0.02,-0.42 -0.02,-0.83 -0.04,-1.25 -0.56,-21.79 -1.69,-44.69 -3.02,-67.41 -0.82,-14.26 -1.79,-28.39 -2.91,-41.93 -2.91,-34.94 -6.82,-66.02 -12.02,-85.67 -8.49,-32.03 -27.18,-52.91 -44.19,-68.22l-12.31 -10.56c-13.74,3 -29.97,1.01 -44.66,-5.95 -15.91,-7.55 -21.39,-12.96 -24.16,-10.92 -36.71,28.33 -63.12,115.12 -56.27,210.48z"/>
   <path class="fil2" d="M1588.32 894.25c33.36,-10.33 69.71,-25.07 73.59,-36.02 0.15,-0.43 0.28,-0.85 0.37,-1.26 -0.02,-1.53 -0.04,-3.06 -0.06,-4.59 -1.32,-5.58 -6.33,-11.61 -6.91,-25.44 -0.67,-15.43 -0.56,-33.59 -1.14,-53.13 -0.02,-2.2 -0.04,-4.6 -0.3,-6.79l0 -0.8c-0.02,-0.42 -0.02,-0.83 -0.04,-1.25l-134.83 -171.79c0,0 -90.65,188.75 69.33,301.07z"/>
   <path class="fil11" d="M1585.92 451.25c0,0 -0.71,11.5 -4.57,31.28 -30.21,-9.76 -43.9,-37.04 -48.48,-48.61 0.49,-1.94 0.93,-3.93 1.32,-5.96 4.24,-0.9 12.24,-2.6 20.8,-4.41l30.93 27.71z"/>
   <path class="fil8" d="M1589.99 468.69c0,0 -65.87,-10.99 -58.39,-51.9 7.48,-40.91 4.02,-69.88 46.38,-64.6 42.37,5.29 47.67,22.39 48.49,36.65 0.82,14.26 -19.16,81.65 -36.48,79.85z"/>
   <polygon class="fil12" points="1849.24,818.73 1855.06,820.62 1904.47,668.53 1898.66,666.65 "/>
   <polygon class="fil12" points="1687.5,807 1855.27,810.58 1855.06,820.62 1687.28,817.04 "/>
   <path class="fil8" d="M1690.63 825.05c0,0 53.91,14.21 74.14,12.72 20.21,-1.49 37.03,-11.1 39.55,-16.12 2.57,-5.02 7.9,-13.93 -5.87,-12.28 -13.76,1.65 -32.54,4.57 -33.14,1.93 -0.56,-2.65 11.23,-2.39 11.23,-2.39 0,0 3.56,-5.19 -0.93,-5.37 -4.49,-0.19 -17.59,-3.74 -22.45,-1.31 -4.88,2.43 -9.37,11.42 -12.91,11.04 -3.56,-0.37 -45.12,-18.72 -45.12,-18.72l-4.49 30.51z"/>
   <path class="fil5" d="M1499.71 539.37c0,0 6.36,217.33 54.09,242.03 23.55,12.19 129.9,45.68 161.81,51.4 0,0 8.59,-5.52 9.56,-31.74 0,0 -109.27,-54.45 -122.93,-78.99 -20.33,-36.52 30.29,-136.61 3.6,-171.75 -26.69,-35.14 -76.08,-54.45 -106.13,-10.95z"/>
   <path class="fil12" d="M1532.87 433.91c0,0 -0.76,-14.04 7.9,-22.07 0,0 -3.01,-14.07 2.55,-16.39 5.57,-2.32 6.73,9.51 9.28,7.65 2.55,-1.85 13.93,-10.67 18.79,-23.66 4.87,-12.99 49.46,2.74 54.65,5.08 5.2,2.34 21.9,-6.24 25.14,-13.2 0,0 -9.26,-7.42 -13.45,-12.99 -4.17,-5.57 -33.4,-43.15 -74.23,-32.48 -40.83,10.67 -46.4,30.16 -44.07,46.86 2.31,16.7 -3.3,55.6 13.43,61.2z"/>
   <path class="fil5" d="M1684.44 1275.22c-12.59,80.69 -94.93,132.08 -179.38,132.08l-167.29 0 13.08 -470.33c0,0 159.62,-51.23 199.7,-2.5 35.11,42.69 130.36,211.7 135.37,311.72 0.5,10.04 -0.02,19.73 -1.49,29.02z"/>
   <path class="fil13" d="M1240.38 986.78c0,0 225.67,-115.18 268.41,-39.94 22.7,39.95 85.15,199.34 89.76,299.37 4.48,97.19 -79.72,161.09 -166.33,161.09l-153.83 0 -38 -420.51z"/>
   <path class="fil2" d="M1282.81 1050.67c-1.9,9.79 -20.18,18.87 -47.3,26.9 -4.78,1.43 -9.82,2.81 -15.11,4.16 -92.28,23.57 -255.73,36.73 -271.31,29.78 -21.52,-9.6 -153.66,-479.07 -153.66,-479.07 0,0 126.12,-4.74 226.29,-7.05 34.27,-0.78 65.5,-1.28 87.6,-1.22 2.69,0.01 5.22,0.19 7.59,0.53 9.56,1.36 16.67,5.35 22.29,11.41 16.13,17.33 20.12,51.56 35.05,89.41 14.77,37.41 32.89,84.11 50.07,130.44 4.43,11.94 8.8,23.86 13.03,35.59 1.2,3.31 2.38,6.61 3.56,9.88 25.4,71.07 44.96,133.38 41.89,149.24z"/>
   <path class="fil13" d="M1684.44 1275.22c-12.59,80.69 -94.93,132.08 -179.38,132.08l-82.06 0c54.72,-37.09 104.2,-151.39 261.44,-132.08z"/>
   <path class="fil13" d="M1240.93 901.43c-4.2,-0.69 -9.61,-1.57 -15.74,-2.62 -1.28,-1.3 -2.29,-2.63 -2.89,-3.94 -2.47,-5.43 -0.78,-21.03 2.04,-38.92 -17.18,-46.34 -35.3,-93.03 -50.07,-130.44 -14.93,-37.84 -18.93,-72.07 -35.05,-89.41 -5.62,-6.05 -12.73,-10.04 -22.29,-11.41 -13.32,0.19 -27.37,0.42 -41.88,0.69 -5.15,10.22 -14.02,19.85 -29.36,27.93 -68.44,36.02 -17.67,110.26 -17.67,110.26 0.5,0.33 27.17,53.33 27.17,53.33 -0.09,-3.7 3.5,-10.33 9.65,-18.76 4.54,31.69 11.92,64.05 20.74,87.21 -4.83,24.47 -17.24,60.91 -23.89,88.79 -5.31,22.23 -6.95,38.99 1.82,39.81 0.98,0.09 2.08,0.08 3.26,0 -0.55,7.75 0.96,15.92 5.35,24.37 17.15,33.15 99.65,39.12 163.41,39.24 27.12,-8.03 45.39,-17.11 47.3,-26.9 3.07,-15.86 -16.49,-78.17 -41.89,-149.24z"/>
   <path class="fil2" d="M1552.72 1335.04c-32.29,44.86 -81.82,73.61 -136.99,72.72l-237.2 0.12 -113.64 0.06 127.86 -421.1c0,0 323.61,-32.2 363.52,10.74 18.53,19.93 28.94,110.2 34.76,201.19 3.28,51.31 -11.65,99.27 -38.31,136.27z"/>
   <path class="fil14" d="M1552.72 1335.04c-32.29,44.86 -81.82,73.61 -136.99,72.72l-237.2 0.12c27.91,-23.43 115.7,-89.91 209.69,-86.77 71.24,2.39 127.82,1.37 164.5,13.93z"/>
   <path class="fil15" d="M1261.12 692.11c0,0 19.71,29.16 30.95,90.47 9.84,53.69 18.48,73.52 32.69,84.53 14.22,11.01 93.43,43.52 93.43,43.52l-5.93 13.87c0,0 -116.09,-15.81 -129.13,-35.22 -13.04,-19.4 -62.75,-134.04 -58.9,-160.44 3.86,-26.4 36.9,-36.73 36.9,-36.73z"/>
   <path class="fil16" d="M1545.41 1332.56c-1.04,11.32 14.72,14.07 32.98,14.98 18.25,0.91 12.73,4.66 37.76,9.18 25.02,4.53 35.04,-2.31 36.85,-5.69 1.62,-3 -10.02,-7.69 -22.42,-12.99 -1.56,-0.66 -3.12,-1.34 -4.67,-2.03 -13.96,-6.13 -21.78,-18.64 -32.67,-30.25 -10.3,-10.99 -20.08,-46.17 -20.08,-46.17l-34 -7.27c0,0 9.55,31.67 12.86,45.19 1.95,7.95 -0.93,16.84 -3.48,23.61 -1.37,3.68 -2.76,7.44 -3.13,11.44z"/>
   <path class="fil4" d="M1578.39 1347.54c18.25,0.91 12.73,4.66 37.76,9.18 25.02,4.53 35.04,-2.31 36.85,-5.69 1.62,-3 -10.02,-7.69 -22.42,-12.99l-0.19 0.21c0,0 -17.59,5.97 -37.89,0.45 -16.56,-4.5 -32.56,-14.39 -43.96,-17.57 -1.37,3.68 -2.76,7.44 -3.13,11.44 -1.04,11.32 14.72,14.07 32.98,14.98z"/>
   <path class="fil9" d="M1206.85 929.37c0,0 225.93,-17 268.46,9.84 42.53,26.85 110.75,339.52 110.75,339.52 0,0 -4.2,3.37 -13.62,4.39 -8.74,0.94 -28,-4.2 -28,-4.2 0,0 -98.03,-139.9 -104.94,-175.15 -6.91,-35.24 -5.22,-66.7 -20.94,-67.53 -15.72,-0.84 -211.74,23.82 -241.39,-28.41 -29.65,-52.23 -5.13,-103.94 -5.13,-103.94l34.82 25.47z"/>
   <path class="fil16" d="M1458.96 1368.84c-1.05,11.32 14.72,14.08 32.97,14.99 18.25,0.91 12.74,4.65 37.76,9.18 25.02,4.52 35.04,-2.32 36.85,-5.7 1.61,-3 -10.02,-7.69 -22.41,-12.99 -1.56,-0.66 -3.12,-1.34 -4.69,-2.02 -13.96,-6.14 -21.78,-18.65 -32.66,-30.25 -10.31,-10.99 -20.08,-46.18 -20.08,-46.18l-34 -7.26c0,0 9.55,31.66 12.86,45.18 1.95,7.95 -0.93,16.84 -3.48,23.61 -1.37,3.68 -2.77,7.45 -3.12,11.43z"/>
   <path class="fil4" d="M1491.94 1383.83c18.25,0.91 12.74,4.65 37.76,9.18 25.02,4.52 35.04,-2.32 36.85,-5.7 1.61,-3 -10.02,-7.69 -22.41,-12.99l-0.19 0.21c0,0 -17.59,5.98 -37.9,0.44 -16.55,-4.49 -32.56,-14.38 -43.96,-17.57 -1.37,3.68 -2.77,7.45 -3.12,11.43 -1.05,11.32 14.72,14.08 32.97,14.99z"/>
   <path class="fil6" d="M1162.59 943.37c0,0 200.7,9.5 242.16,37.98 41.46,28.48 97.45,343.57 97.45,343.57 0,0 -4.34,3.2 -13.77,3.85 -8.78,0.61 -27.83,-5.29 -27.83,-5.29 0,0 -92.51,-143.61 -98.04,-179.09 -5.53,-35.49 -2.62,-66.85 -18.3,-68.3 -15.68,-1.45 -212.51,15.57 -240.11,-37.78 -27.59,-53.35 58.43,-94.95 58.43,-94.95z"/>
   <path class="fil12" d="M1234.11 501.72c-8.91,-5.88 -19.96,-7.19 -27.75,-7.25 2.13,-1.93 6.12,-2.42 6.12,-2.42 -4.76,-1.04 -15.83,3.02 -15.83,3.02 -65.21,-30.25 -82.3,67.59 -82.42,90.58 -0.13,22.99 -1.72,49.35 -36.5,67.66 -68.44,36.02 -17.67,110.25 -17.67,110.25 0.5,0.34 27.17,53.34 27.17,53.34 -0.46,-18.61 91.41,-110.56 137.91,-136.83 11.9,-15.24 17.63,-43.18 18.07,-45.38 -3.35,22.23 -8.02,34.52 -11.91,41.35 40.03,-32.2 26.42,-158.75 2.81,-174.33z"/>
   <path class="fil16" d="M1154.15 658.52c0,0 17.73,0.77 36.41,2.54 12.7,1.2 26.25,2.6 33.41,5.59 17.69,7.39 15.83,38.72 -21.28,32.91 -37.12,-5.8 -51.14,-31.76 -48.54,-41.05z"/>
   <path class="fil16" d="M1222.41 681.35c0.21,0.11 5.3,26.94 -19.01,25.87 -15.96,-0.71 -50.36,-20.01 -47.32,-33.67 1.44,-6.5 13.5,-23.34 15.93,-61.8l2.9 0.78 48.84 13.09c0,0 -2.17,15.5 -3.19,30.17 -0.85,12.31 -0.88,24.05 1.85,25.55z"/>
   <path class="fil15" d="M1223.74 625.63c0,0 -2.17,15.5 -3.19,30.17 -27.63,-2.63 -40.58,-28.87 -45.65,-43.26l48.84 13.09z"/>
   <path class="fil5" d="M1170.15 606.81c0,0 -12.99,-23.9 -15.17,-43.74 -1.54,-14.16 9.04,-65.57 60.68,-54.62 0,0 15.04,2.5 28.64,13.07 10.8,8.4 26.04,25.99 4.76,70.05l-5.76 14.98 -73.15 0.26z"/>
   <path class="fil16" d="M1232.05 640.14c0,0 -65.59,-3.29 -62.91,-44.1 2.67,-40.81 -3.99,-68.73 38,-68.35 41.99,0.37 49.09,16.48 51.51,30.32 2.42,13.84 -9.47,81.94 -26.61,82.13z"/>
   <path class="fil12" d="M1237.05 528.68c0,0 -21.13,46.68 -49.13,51.93 -28,5.24 -39.45,-2.93 -39.45,-2.93 0,0 22.23,-15.37 28.56,-44.36 0,0 48,-28.33 60.02,-4.64z"/>
   <path class="fil12" d="M1232.35 532.27c0,0 12.69,11.58 15.26,22.19 2.57,10.61 2.62,32.1 8.91,31.79 0,0 15.68,-31.64 1.72,-51.06 -14.8,-20.59 -25.88,-2.92 -25.88,-2.92z"/>
   <path class="fil6" d="M1297.68 932.78c-5.3,6.35 -21.88,8.3 -39.59,11.21 -13.95,2.3 -28.58,5.19 -38.99,11.3 -23.65,13.88 -100.9,60.8 -123.53,58.67 -8.78,-0.83 -7.13,-17.59 -1.82,-39.82 8.37,-35.11 25.89,-83.87 25.89,-105.07 0,-11.57 3.85,-38.96 8.98,-70.26 0.42,-2.52 0.85,-5.07 1.27,-7.64 10.17,-60.87 24.26,-132.64 24.26,-132.64 0,0 15.72,34.27 46.32,34.27 30.6,0 23.5,-26.14 23.5,-26.14 0,0 27.93,3.28 34.53,10.39 6.61,7.11 23.33,37.83 26.66,46.21 0,0 0.67,10.66 -25.72,15.74 0,0 6.43,28.94 7.2,48.24 0.56,14.25 -9.73,58.86 -12.69,86.6 -1.06,9.83 -1.19,17.54 0.41,21.04 2.05,4.48 8.65,8.94 16.16,13.32 14.92,8.69 33.47,17.05 27.17,24.59z"/>
   <path class="fil9" d="M1270.51 908.19c16.94,28.89 -45.95,37.57 -56.36,43.69 -23.64,13.88 -95.95,64.21 -118.58,62.08 -8.78,-0.83 -7.13,-17.59 -1.82,-39.82 8.37,-35.11 25.89,-83.87 25.89,-105.07 0,-11.57 3.85,-38.96 8.98,-70.26l27.26 -26.17c0,0 29.2,75.48 57.04,87.85 14.59,6.48 29.82,10.76 41.02,13.35 -1.06,9.83 -1.19,17.54 0.41,21.04 2.05,4.48 8.65,8.94 16.16,13.32z"/>
   <path class="fil16" d="M1145.78 681.11c0,0 -23.3,-14.15 -45.83,12.7 -22.54,26.84 16.01,218.73 49.39,228.59 37.08,10.95 144.2,-1.76 144.2,-1.76l-2.06 -16.74c0,0 -114.04,-21.86 -118.78,-27.96 -4.74,-6.09 -15.08,-191.74 -26.93,-194.83z"/>
   <path class="fil6" d="M1154.15 658.52c0,0 -47.85,4.32 -61.74,20.06 -13.91,15.74 -17.96,58.39 -17.96,58.39 0,0 42.14,34.02 92.91,20.81l-13.2 -99.26z"/>
   <polygon class="fil17" points="1304.72,937.08 1367.93,937.08 1367.93,929.61 1304.72,929.61 "/>
   <path class="fil17" d="M1354.51 936.06c0.62,-2.47 58.11,-92.74 58.11,-92.74l127.91 0 -64.17 90.31 -121.86 2.43z"/>
   <path class="fil18" d="M1359.9 937.08c0.62,-2.47 58.29,-93.76 58.29,-93.76l122.35 0 -61.04 93.76 -119.59 0z"/>
   <path class="fil17" d="M1467.75 890.5c-1.26,3.66 -5.24,6.63 -8.91,6.63 -3.66,0 -5.6,-2.96 -4.34,-6.63 1.26,-3.66 5.24,-6.62 8.9,-6.62 3.66,0 5.6,2.96 4.34,6.62z"/>
   <path class="fil16" d="M1282.17 902.91c0,0 37.13,-7.19 41.33,-5.39 4.19,1.8 27.54,22.76 25.14,26.95 -2.39,4.19 -11.97,7.19 -22.76,3.59 -10.78,-3.59 -34.13,-5.39 -38.32,-10.78 -4.2,-5.39 -5.4,-14.37 -5.4,-14.37z"/>
   <path class="fil5" d="M1356.15 1279.44c-13.56,78.26 -88,127.86 -164.3,127.86l-153.83 0 12.04 -470.33c0,0 146.78,-51.23 183.65,-2.5 32.29,42.69 119.88,211.7 124.49,311.72 0.54,11.57 -0.19,22.67 -2.04,33.24z"/>
   <path class="fil13" d="M1356.15 1279.44c-13.56,78.26 -88,127.86 -164.3,127.86l-123.11 0c57.63,-39.06 135.21,-146.97 287.41,-127.86z"/>
   <path class="fil2" d="M1117.68 1406.95c-1.15,0.08 -2.3,0.15 -3.45,0.22 -2.44,0.12 -4.87,0.21 -7.33,0.24 -0.8,0.01 -1.63,0.02 -2.44,0.02l-153.83 0 -0.01 -0.07c-2.93,0.04 -5.89,0.07 -8.88,0.11 -15.85,0.19 -32.38,0.37 -47.73,0.5 -2.57,0.03 -5.1,0.06 -7.61,0.07 -0.92,0 -1.86,0 -2.76,0.01 -15.16,0.1 -28.57,0.15 -38.13,0.08 -13.45,-0.09 -26.12,-1.04 -38.04,-2.93 -15.38,-2.43 -29.5,-6.43 -42.39,-12.13 -4.65,-2.05 -9.15,-4.34 -13.49,-6.85 -5.83,-3.35 -11.41,-7.15 -16.68,-11.37 -13.65,-10.91 -25.46,-24.7 -35.49,-41.67 -6.99,-11.81 -13.13,-25.18 -18.44,-40.19 -6.69,-18.82 -12.06,-40.25 -16.18,-64.48 -5.92,-34.59 -9.29,-74.86 -10.31,-121.42 -0.41,-18.75 -0.44,-38.52 -0.09,-59.35 0.55,-33.28 2.06,-69.26 4.45,-108.09 3.39,-54.53 8.55,-114.69 15.38,-180.91 6.23,-60.48 13.4,-102.76 23.85,-112.39 15.42,-14.2 47.56,-19.92 69.92,-22.21 0.01,0 0.01,0 0.02,0 13.89,-1.42 23.97,-1.53 23.97,-1.53 27.32,0 51.6,19.62 60.37,48.76 17.85,59.35 49.72,165.45 82.9,276.44 0.17,0.56 0.33,1.11 0.5,1.67 1.9,6.37 3.81,12.77 5.72,19.17 0.29,0.97 0.59,1.95 0.88,2.92 1.87,-0.83 3.81,-1.71 5.81,-2.59 0.06,-0.04 0.12,-0.06 0.2,-0.09 7.95,-3.52 16.96,-7.39 26.67,-11.32l0 0c5.04,-2.04 10.26,-4.11 15.64,-6.17 15.18,-5.81 31.57,-11.57 48.18,-16.52 7.37,-2.21 14.79,-4.26 22.17,-6.08 9.47,-2.35 18.87,-4.33 28.03,-5.81 0.31,-0.06 0.57,-0.09 0.79,-0.13 1.09,-0.18 2.17,-0.33 3.24,-0.49 39.5,-5.8 73.78,-1.77 87.96,23.24 22.7,40.07 85.15,199.92 89.75,300.24 4.27,92.5 -71.37,154.94 -153.12,161.08z"/>
   <path class="fil5" d="M870.91 990.4c0,0 -78.96,-321.68 -84.66,-348.71 -2.54,-12.05 -10.37,-16.41 -18.24,-17.52 13.87,-1.42 23.97,-1.53 23.97,-1.53 27.32,0 51.6,19.55 60.37,48.61 19.12,63.39 54.33,180.28 90,299.33 -1.81,-0.05 -71.44,19.81 -71.44,19.81z"/>
   <path class="fil13" d="M1161.83 1145.09c-21.13,-34.92 -3.39,-41.48 -6.63,-119.72 -3.24,-78.23 -39.67,-71.78 -54.78,-86.9 -2.76,-2.78 -5.11,-8.46 -7.33,-16.07 -1.08,0.16 -2.15,0.31 -3.24,0.49 -0.22,0.04 -0.48,0.07 -0.79,0.13 -9.16,1.47 -18.56,3.46 -28.03,5.81 -7.38,1.82 -14.8,3.87 -22.17,6.08 -16.61,4.95 -33,10.71 -48.18,16.52 -5.39,2.06 -10.6,4.13 -15.64,6.17 -13.07,82.08 -33.3,449.89 -33.3,449.89 0.17,0.17 0.33,0.34 0.49,0.5 16.52,-0.14 34.37,-0.34 51.35,-0.55 2.43,-0.03 4.83,-0.06 7.22,-0.09l0.01 0.07 116.09 0c0.15,-0.08 0.31,-0.18 0.47,-0.28 0.1,-0.06 0.21,-0.13 0.31,-0.19 31.18,-19.34 24.22,-58.14 16.88,-82.46 -2.96,-26 -14.45,-56.47 -23.85,-84.79 2.92,-8.62 7.02,-13.55 24.58,-20.04 19.51,-7.19 24.64,-37.9 24.64,-37.9 5.21,13.73 -6.71,32.69 -7.02,33.19 0.67,-0.79 29.82,-35.35 8.93,-69.87z"/>
   <path class="fil19" d="M902.48 986.54c0,0 -117.12,51.03 -138.37,50.09 -21.26,-0.93 -152.26,-39.9 -152.26,-39.9l3.33 22.54c0,0 101.09,58.14 136.43,61.44 34.8,3.24 153.78,-31.24 165.27,-38.51 11.49,-7.28 18.98,-48.3 -14.4,-55.66z"/>
   <path class="fil12" d="M920.08 798.83c0,0 43.2,-8.2 64.72,7.51 38.98,28.46 41.07,126.6 55.68,141.22 14.61,14.62 49.83,8.38 52.96,84.02 3.13,75.64 -14.02,81.96 6.41,115.74 20.43,33.76 -8.64,67.56 -8.64,67.56 0,0 11.9,-18.64 6.8,-32.1 0,0 -4.95,29.7 -23.81,36.65 -18.87,6.96 -21.66,12.06 -24.67,22.27 0,0 -160.93,-82.46 -161.1,-140.94 -0.18,-58.49 -31.67,-116.43 -16.2,-141.77 0,0 -6.89,10.84 -7.74,22.91 0,0 -9.28,-17.78 6.8,-34.33 16.09,-16.55 -18.87,-50.8 -13.69,-90.47 3.56,-27.24 22.67,-57.07 62.48,-58.26z"/>
   <path class="fil16" d="M888.24 1042.26c10.29,7.13 23.18,13.02 39.37,16.76 60.69,14.02 83.96,-37.27 92.69,-72.48 -8.27,-4.74 -16.06,-5.78 -20.56,-6.32 -4.38,-0.52 -9,-0.86 -12.82,-1.05 -6.82,-5.22 -16.97,-26.58 -19.22,-59.75l-2.85 0.77 -47.83 13.09c0,0 2.19,15.2 3.27,29.57 0.82,11.25 0.96,21.99 -1.17,24.62 -3.74,0.81 -5.98,1.34 -5.98,1.34 0,0 0,0.02 -0.02,0.05 -0.65,1.06 -14.52,23.88 -24.88,53.41z"/>
   <path class="fil19" d="M917.02 933.28c0,0 2.2,15.19 3.26,29.57 27.1,-2.72 39.68,-28.52 44.57,-42.67l-47.83 13.09z"/>
   <path class="fil16" d="M908.93 947.56c0,0 64.32,-3.55 61.49,-43.57 -2.82,-40.02 3.58,-67.43 -37.61,-66.86 -41.19,0.57 -48.08,16.41 -50.38,30 -2.31,13.59 9.7,80.33 26.5,80.44z"/>
   <path class="fil12" d="M882.74 844.73c9.06,-12.75 16.76,-10.65 21.23,-7.33 33.72,-21.82 58.4,5.09 58.4,5.09 6.35,28.41 28.24,43.37 28.24,43.37 0,0 -11.19,8.07 -38.68,3.07 -8.41,-1.53 -16.19,-6.87 -22.95,-13.52 12.24,17.53 28.06,29.66 28.06,29.66 -33.32,-12.59 -49.48,-56.51 -51.11,-61.16 -3.67,3.8 -10.85,12.01 -12.67,19.68 -2.46,10.42 -13.13,26.71 -19.3,26.43 0,0 -4.81,-26.17 8.78,-45.29z"/>
   <path class="fil6" d="M1038.63 1173.04c5.8,-29.7 24.74,-148.33 5.8,-186.51 -6.8,-13.71 -33.49,-14.95 -62.77,-13.75 -9.12,5.88 -43.84,28.12 -58.1,25.34 -0.15,-0.03 -0.43,-0.1 -0.79,-0.19 -6.72,-1.68 -9.26,-6.39 -3.65,-10.46 0.01,-0.01 -14.5,-1.4 -32.52,2 -10.17,1.91 -37.62,16.11 -37.62,16.11 0,0 13.82,24.96 34.19,33.58 -3.46,30.99 1.69,44.66 33.85,116.25 27.17,60.5 -3.67,114.98 -3.67,114.98 0,0 159.93,128.59 160.83,63.12 0.67,-49.3 -42.98,-122.52 -35.56,-160.47z"/>
   <path class="fil14" d="M905.43 1410.22c-8.7,-0.98 -16.53,-5.74 -21.4,-13.02 -0.77,-1.16 -1.59,-2.4 -2.47,-3.73 -18.2,-27.56 -25.28,-111.96 -66.24,-201.87 -9.97,-21.89 -45.78,-25.83 -55.54,-50.57 0,0 -24.03,-80.21 45.99,-82.57 70.02,-2.37 187.53,223.17 189.37,246.83 1.8,22.91 46.3,120.29 -89.72,104.94z"/>
   <path class="fil4" d="M627.13 1408.37l99.66 0c0,0 3.73,-15.89 -2.81,-26.71 -5.79,-9.57 -3.57,-15.03 0.71,-22.94 -4.51,1.85 -10.35,3.54 -16.78,3.16 -4.96,-0.28 -10.21,-2.53 -14.82,-5.21 -4.29,4.9 -22.65,25.72 -28.4,29.83 -6.52,4.69 -35.56,3.02 -37.56,21.87z"/>
   <path class="fil9" d="M1028.12 1017.63c0,0 12.97,118.02 -71.15,142.74 -84.13,24.72 -108,-108.58 -40.09,-118.18 67.93,-9.58 111.23,-24.57 111.23,-24.57z"/>
   <path class="fil14" d="M757.52 1081.63c-6.01,44.98 -29.44,186.99 -70.78,256.28 -13.32,22.33 33.58,34.85 33.83,34.79 6.29,-1.65 16.77,-11.68 21.6,-16.04 33.56,-30.24 101.69,-115.89 101.69,-184.56 0,-33.48 0.59,-97.42 -23.76,-113.67 -14.99,-10 -60.21,5.34 -62.59,23.2z"/>
   <path class="fil5" d="M964.86 1408.37c0,0 -3.7,-5.13 -10.13,-14.9 -7.66,-11.61 -16.15,-34.45 -26.43,-63.74 -10.81,-30.74 -23.63,-68.56 -39.66,-107.91 -4.95,-12.15 -10.2,-24.44 -15.78,-36.72 -9.97,-21.89 -37.41,-18.87 -47.17,-43.61 0,0 -38.09,-85.78 31.93,-88.15 70.02,-2.37 203.08,229.49 210.72,251.94 8.37,24.57 49.2,126.65 -103.46,103.09z"/>
   <path class="fil4" d="M700.29 1408.37l99.66 0c0,0 3.72,-15.89 -2.81,-26.71 -5.8,-9.57 -3.58,-15.03 0.71,-22.94 -4.51,1.85 -10.36,3.54 -16.78,3.16 -4.97,-0.28 -10.21,-2.53 -14.82,-5.21 -4.29,4.9 -22.65,25.72 -28.4,29.83 -6.52,4.69 -35.56,3.02 -37.56,21.87z"/>
   <path class="fil2" d="M928.29 1329.73c-10.81,-30.74 -23.63,-68.56 -39.66,-107.91 4.19,-29.81 13.21,-55.9 28.4,-66.41 0,0 36.83,114.09 11.26,174.32z"/>
   <path class="fil5" d="M815.69 1078.44c-6,45 -14.46,190.18 -55.8,259.47 -13.32,22.33 33.59,34.85 33.84,34.79 6.29,-1.65 16.77,-11.68 21.6,-16.04 33.56,-30.24 101.69,-115.89 101.69,-184.56 0,-33.48 -39.3,-94.74 -63.64,-110.99 -14.99,-10 -35.31,-0.54 -37.7,17.33z"/>
   <path class="fil17" d="M599.95 938.76l102.06 -10.84c2.97,-0.31 5.79,1.41 6.85,4.21l36.52 95.96c1.59,4.2 -1.39,8.74 -5.9,8.93l-101.28 4.08c-2.75,0.11 -5.27,-1.5 -6.34,-4.04l-37.3 -89.2c-1.71,-4.07 1,-8.63 5.38,-9.09z"/>
   <path class="fil18" d="M591.09 939.68l102.06 -10.84c2.98,-0.31 5.79,1.41 6.86,4.2l36.51 95.96c1.61,4.21 -1.39,8.74 -5.89,8.93l-101.28 4.09c-2.75,0.11 -5.28,-1.5 -6.34,-4.05l-37.31 -89.19c-1.7,-4.07 1,-8.63 5.39,-9.09z"/>
   <path class="fil17" d="M647.66 984.48c-1.25,-3.43 0.52,-6.2 3.94,-6.2 3.43,0 7.2,2.78 8.46,6.2 1.25,3.43 -0.52,6.2 -3.94,6.2 -3.43,0 -7.21,-2.78 -8.46,-6.2z"/>
   <path class="fil17" d="M594.14 948.75c-0.61,-1.68 0.26,-3.04 1.94,-3.04 1.69,0 3.55,1.36 4.16,3.04 0.61,1.69 -0.26,3.05 -1.94,3.05 -1.67,0 -3.54,-1.36 -4.15,-3.05z"/>
   <path class="fil16" d="M1020.3 986.54c0,0 -141.45,52.09 -162.7,51.03 -13.74,-0.69 -127.92,-40.83 -127.92,-40.83l-10.26 19.39c0,0 111.14,71.43 141.69,71.08 60.33,-0.7 162.11,-37.73 173.6,-45.01 11.49,-7.28 18.97,-48.3 -14.41,-55.66z"/>
   <path class="fil16" d="M729.68 996.73c0,0 -10.26,-15.78 -20.46,-16.24 -10.2,-0.46 -27.84,6.96 -33.87,8.12 -6.03,1.16 -23.2,6.72 -18.09,15.08 5.1,8.34 28.76,10.2 38.97,8.34 10.2,-1.85 23.2,4.09 23.2,4.09l10.26 -19.39z"/>
   <path class="fil16" d="M712 980.98c0,0 -16.24,-7.44 -20.88,-8.84 -4.63,-1.39 -3.71,0.02 -2.32,4.42 1.39,4.39 9.74,8.59 9.74,9.97 0,1.38 13.46,-5.56 13.46,-5.56z"/>
   <path class="fil16" d="M601.6 988.38c0,0 10.24,-16.19 13.59,-16.85 10.2,-2.02 10.2,11.43 8.04,20.1 -2.31,9.3 -10.18,18.09 -12.36,17.31 -2.17,-0.76 -11.68,-12 -9.27,-20.56z"/>
   <path class="fil16" d="M601.21 991.63c0,0 -3.28,18.16 13.97,27.64l-13.97 -27.64z"/>
   <path class="fil20" d="M896.88 924.54c0,0 6.09,-2.41 23.2,-1.02 0,0 -0.91,6.67 -13.53,7.33 -7.15,0.37 -9.67,-6.31 -9.67,-6.31z"/>
   <path class="fil6" d="M947.43 1012.22c0,0 12.65,40.06 56.09,49.16 0,0 71.76,-22.11 36.03,-70.98 0,0 -35.32,-26.24 -92.13,21.82z"/>
   <path class="fil21" d="M642.69 901.69c2.04,1.22 3.76,3.01 4.89,5.29 3.14,6.33 0.56,14.01 -5.77,17.15 -6.33,3.15 -14.01,0.56 -17.15,-5.77 -1.13,-2.28 -1.52,-4.74 -1.26,-7.09 -6.59,-0.7 -12.7,-4.66 -15.87,-11.03 -1.33,-2.68 -2,-5.51 -2.09,-8.31 -8.07,-1.87 -15.26,-7.21 -19.23,-15.2 -2.37,-4.78 -3.29,-9.92 -2.92,-14.88 -16.55,-1.23 -32.05,-10.9 -39.96,-26.83 -1.62,-3.27 -2.84,-6.63 -3.68,-10.04 -79.48,16.13 -163,-22.2 -200.77,-98.26 -45.06,-90.75 -8.01,-200.91 82.74,-245.97 90.75,-45.07 200.91,-8.02 245.97,82.73 37.78,76.07 17.84,165.77 -43.04,219.34 2.21,2.73 4.15,5.73 5.78,9 7.91,15.93 6.25,34.13 -2.78,48.06 4.18,2.71 7.72,6.54 10.09,11.32 3.97,7.99 3.87,16.95 0.49,24.51 2.19,1.76 4.03,4.01 5.36,6.69 3.17,6.37 2.63,13.63 -0.8,19.31z"/>
   <g>
    <path class="fil22" d="M485.26 776.4l24.86 1.36c5.42,-1.85 19.89,-2.78 26.94,-4.5 39.94,-9.7 70.88,-34.89 90.43,-70.76 7.69,-14.11 13.39,-33.3 14.77,-51.7l34.04 1.55 0.09 -1.32c-4.35,-2.84 -1.85,-1.01 -4.74,-5.17l-9.63 -14.12c-4.63,-6.72 -8.28,-12.28 -12.89,-18.76 -3.24,-4.56 -23.48,-35.24 -27.26,-37.97 -5.42,4.06 -11.61,12.1 -16.73,17.7 -6.74,7.36 -45.77,47.89 -46.86,53.47l32.63 1.75c-2.9,37.51 -26.56,61.05 -53.37,72.42 -24.11,10.23 -53.07,8.36 -76.4,-4.9 -9.63,-5.48 -11.47,-10.47 -18.63,-13 -7.23,12.49 -25.07,25.66 -32.56,38.59 5.44,3.04 10.41,8.46 15.93,12.22 31.67,21.55 47.98,18.47 59.35,23.14z"/>
    <path class="fil22" d="M529.54 510.16l-25.83 -1.41c-14.14,3.8 -24.54,0.18 -51.24,11.86 -37.32,16.33 -65.79,46.57 -77.78,85.99 -2.61,8.59 -3.86,23.11 -6.37,29.12l-32.27 -1.79c3.01,6.68 8.86,14.29 12.77,19.96l40.7 57.7 64.06 -70.89 -32.41 -2.1c-1.62,-15.12 9.52,-36.19 16.54,-45.21 8.22,-10.57 21.35,-21.59 35.22,-27.11 40.13,-15.94 68.9,-3.11 94.08,17.52 6.11,-4.82 31.52,-33.24 34.1,-37.67 -11.79,-12.9 -31.75,-23.94 -49.5,-29.93 -6.81,-2.3 -16.43,-3.06 -22.06,-6.05z"/>
   </g>
   <path class="fil21" d="M1137.96 599.55c2.04,1.22 3.76,3.01 4.89,5.29 3.14,6.33 0.56,14.01 -5.77,17.15 -6.33,3.15 -14.01,0.56 -17.15,-5.77 -1.13,-2.28 -1.52,-4.74 -1.26,-7.09 -6.59,-0.7 -12.7,-4.66 -15.87,-11.03 -1.33,-2.68 -2,-5.51 -2.09,-8.31 -8.07,-1.87 -15.26,-7.21 -19.23,-15.2 -2.37,-4.78 -3.29,-9.92 -2.92,-14.88 -16.55,-1.23 -32.05,-10.9 -39.96,-26.83 -1.62,-3.27 -2.84,-6.63 -3.68,-10.04 -79.48,16.13 -163,-22.2 -200.77,-98.26 -45.06,-90.75 -8.01,-200.91 82.74,-245.97 90.75,-45.07 200.91,-8.02 245.97,82.73 37.78,76.07 17.84,165.77 -43.04,219.34 2.21,2.73 4.15,5.73 5.78,9 7.91,15.93 6.25,34.13 -2.78,48.06 4.18,2.71 7.72,6.54 10.09,11.32 3.97,7.99 3.87,16.95 0.49,24.51 2.19,1.76 4.03,4.01 5.36,6.69 3.17,6.37 2.63,13.63 -0.8,19.31z"/>
   <g>
    <path class="fil23" d="M899.18 253.13l-13.94 20.63c-1.2,5.59 -7.83,18.48 -9.99,25.41 -12.21,39.25 -6.51,78.74 14.2,113.94 8.15,13.85 21.68,28.61 36.75,39.25l-18.83 28.4 1.09 0.76c4.67,-2.27 1.81,-1.07 6.87,-1.41l17.06 -1c8.15,-0.52 14.79,-0.78 22.72,-1.41 5.57,-0.44 42.3,-2.02 46.58,-3.86 -0.69,-6.73 -4.41,-16.18 -6.58,-23.45 -2.85,-9.56 -17.55,-63.88 -21.77,-67.68l-18.28 27.09c-30.69,-21.77 -38.71,-54.17 -34.69,-83 3.63,-25.94 20.12,-49.82 43.48,-63.01 9.65,-5.45 14.87,-4.46 20.73,-9.31 -7,-12.62 -9.12,-34.7 -16.37,-47.76 -5.4,3.11 -12.62,4.58 -18.67,7.39 -34.76,16.08 -40.52,31.66 -50.37,39.02z"/>
    <path class="fil23" d="M1104.79 427.98l14.49 -21.43c4.01,-14.09 12.46,-21.14 16.17,-50.05 5.18,-40.41 -6.13,-80.37 -33.78,-110.93 -6.02,-6.66 -17.83,-15.19 -21.7,-20.43l18.13 -26.76c-7.28,-0.85 -16.81,0.25 -23.68,0.69l-70.42 5.25 27.88 91.38 18.46 -26.72c13.8,6.39 26.15,26.78 30.28,37.43 4.84,12.49 7.55,29.41 5.14,44.15 -6.96,42.61 -32.75,60.7 -63.39,71.69 0.99,7.72 12.31,44.12 14.78,48.61 17.13,-3.48 36.86,-14.92 51.12,-27.08 5.47,-4.66 11.06,-12.52 16.53,-15.81z"/>
   </g>
   <path class="fil21" d="M1865.25 699.8c1.06,2.12 1.54,4.56 1.27,7.09 -0.76,7.02 -7.08,12.1 -14.11,11.34 -7.02,-0.76 -12.1,-7.08 -11.34,-14.11 0.28,-2.53 1.27,-4.81 2.76,-6.65 -5.18,-4.15 -8.19,-10.77 -7.42,-17.85 0.32,-2.97 1.28,-5.72 2.72,-8.13 -5.79,-5.93 -8.97,-14.3 -8.01,-23.17 0.58,-5.31 2.58,-10.12 5.56,-14.11 -13.28,-9.95 -21.12,-26.45 -19.2,-44.14 0.39,-3.63 1.18,-7.12 2.31,-10.44 -75.64,-29.24 -125.33,-106.54 -116.16,-190.98 10.94,-100.73 101.53,-173.55 202.26,-162.6 100.73,10.95 173.55,101.53 162.6,202.26 -9.18,84.43 -74.31,149.25 -154.47,161.56 0.39,3.49 0.41,7.07 0.02,10.7 -1.92,17.69 -13.13,32.11 -28.24,38.98 2.06,4.53 2.98,9.67 2.4,14.97 -0.96,8.87 -5.87,16.37 -12.8,20.91 0.89,2.66 1.24,5.55 0.91,8.52 -0.77,7.08 -5.13,12.9 -11.08,15.83z"/>
   <g>
    <path class="fil22" d="M1837.61 529.26l24.3 5.41c5.65,-0.94 20.07,0.51 27.31,-0.03 40.99,-3.04 75.63,-22.83 100.79,-55.01 9.9,-12.66 18.66,-30.66 23.03,-48.59l33.33 7.09 0.31 -1.29c-3.82,-3.51 -1.67,-1.3 -3.83,-5.87l-7.19 -15.51c-3.48,-7.39 -6.16,-13.47 -9.65,-20.62 -2.45,-5.02 -17.4,-38.61 -20.68,-41.91 -6.01,3.11 -13.43,10.04 -19.41,14.72 -7.85,6.16 -52.99,39.76 -54.98,45.08l31.91 7.06c-9,36.53 -36.19,55.88 -64.49,62.71 -25.46,6.14 -53.73,-0.44 -74.57,-17.33 -8.61,-6.98 -9.61,-12.2 -16.26,-15.87 -9.18,11.14 -28.93,21.21 -38.43,32.75 4.87,3.89 8.89,10.06 13.72,14.66 27.72,26.44 44.31,26.07 54.77,32.54z"/>
    <path class="fil22" d="M1924.84 273.85l-25.25 -5.61c-14.57,1.44 -24.24,-3.84 -52.49,3.31 -39.49,10 -72.52,35.19 -90.81,72.11 -3.98,8.05 -7.59,22.17 -11.04,27.69l-31.54 -7.05c1.88,7.08 6.4,15.55 9.33,21.78l30.72 63.58 74.79 -59.45 -31.63 -7.37c0.88,-15.18 15.32,-34.15 23.71,-41.89 9.84,-9.09 24.59,-17.81 39.18,-20.98 42.2,-9.16 68.48,8.2 89.95,32.68 6.81,-3.76 36.53,-27.64 39.8,-31.58 -9.52,-14.66 -27.4,-28.82 -43.94,-37.63 -6.34,-3.38 -15.7,-5.7 -20.77,-9.58z"/>
   </g>
  </g>
 </g>
</svg>
