<?xml version="1.0" encoding="UTF-8"?>
<!DOCTYPE svg PUBLIC "-//W3C//DTD SVG 1.1//EN" "http://www.w3.org/Graphics/SVG/1.1/DTD/svg11.dtd">
<!-- Creator: CorelDRAW 2018 (64-Bit) -->
<svg xmlns="http://www.w3.org/2000/svg" xml:space="preserve" width="29.6458in" height="5.45652in" version="1.1" style="shape-rendering:geometricPrecision; text-rendering:geometricPrecision; image-rendering:optimizeQuality; fill-rule:evenodd; clip-rule:evenodd"
viewBox="0 0 29645.81 5456.52"
 xmlns:xlink="http://www.w3.org/1999/xlink">
 <defs>
  <style type="text/css">
   <![CDATA[
    .fil3 {fill:none}
    .fil2 {fill:#020202}
    .fil0 {fill:#029CB3}
    .fil1 {fill:white}
   ]]>
  </style>
   <clipPath id="id0">
    <path d="M-0 0l29645.81 0 0 5456.52 -29645.81 0 0 -5456.52z"/>
   </clipPath>
 </defs>
 <g id="Layer_x0020_1">
  <metadata id="CorelCorpID_0Corel-Layer"/>
  <g>
  </g>
  <g style="clip-path:url(#id0)">
   <g>
    <path class="fil0" d="M1735.63 3500.57c169.47,-45.74 90.96,-49.62 233.8,-136.35 -12.37,-297.76 -383.94,-722.35 102.27,-1308.72 257.06,-310 789.8,-512.09 1279.08,-228.1 941.28,546.35 498.2,2014.35 -526.26,1895.85 -0.45,-470.81 44.13,-216.65 372.13,-408.56 138.2,-80.86 227.09,-197.14 275.67,-313.8 149.02,-357.98 -24.31,-675.64 -235.16,-829.27 -587.7,-428.21 -1312.35,206.76 -1002.13,851.16 422.67,-125.72 107.16,-577.57 550.39,-619.04 354.99,-33.22 530.98,418.33 242.81,608.25 -193.29,127.4 -205.48,-12.7 -416.15,174.84 -98.08,87.31 -203.36,193.79 -298.81,291.54 -154.78,158.51 -413.01,485.78 -623.05,555.8 -540,-493.92 -741.89,-1501.68 -299.95,-2207.19 1003.76,-1602.36 3520.15,-653.78 3119.55,1263.28 -154.67,740.23 -820.5,1404.28 -1681.03,1347.69l-5.44 -312c212.34,-83.5 1036.8,-95.1 1322.21,-948.07 258.88,-773.68 -185.8,-1378.29 -601.94,-1629.28 -1251.2,-754.63 -2677.61,784.99 -1808.01,1951.96l0.03 0.01zm-50.82 -3201c-371.37,88.36 -454.86,331.51 -634.08,642.85 -1171.64,2035.46 -1249.61,1452.63 -110,3387.9 143.7,244.01 312.67,626.5 552.04,764.09 205.49,118.12 2163.28,122.46 2509.82,70.3 415.62,-62.54 819.57,-981.54 1106.05,-1475.43 526.98,-908.46 647.83,-808.46 76.63,-1786.7 -186.35,-319.17 -736.53,-1415.47 -1027.69,-1558.59 -196.05,-96.37 -2205.56,-108 -2472.77,-44.42l0 0.01z"/>
    <path class="fil1" d="M1735.63 3500.57c-869.61,-1166.96 556.81,-2706.59 1808.01,-1951.96 416.15,250.98 860.82,855.59 601.94,1629.28 -285.42,852.97 -1109.87,864.57 -1322.21,948.07l5.44 312c860.53,56.59 1526.35,-607.46 1681.03,-1347.69 400.59,-1917.06 -2115.79,-2865.64 -3119.55,-1263.28 -441.94,705.51 -240.05,1713.27 299.95,2207.19 210.04,-70.02 468.26,-397.29 623.05,-555.8 95.45,-97.75 200.72,-204.22 298.81,-291.54 210.67,-187.55 222.85,-47.44 416.15,-174.84 288.17,-189.91 112.18,-641.46 -242.81,-608.25 -443.23,41.47 -127.72,493.31 -550.39,619.04 -310.23,-644.4 414.43,-1279.37 1002.13,-851.16 210.85,153.63 384.18,471.28 235.16,829.27 -48.57,116.66 -137.47,232.94 -275.67,313.8 -328.01,191.91 -372.58,-62.25 -372.13,408.56 1024.47,118.5 1467.54,-1349.52 526.26,-1895.85 -489.28,-284 -1022.02,-81.91 -1279.08,228.1 -486.21,586.37 -114.64,1010.96 -102.27,1308.72 -142.85,86.73 -64.33,90.61 -233.8,136.35l-0.03 -0.01z"/>
    <path class="fil2" d="M17663.32 1991.5c398.24,-8.68 1341.54,-96.26 1616.85,100.44l-6.37 464.96c-253.13,216.87 -1197.45,125.47 -1623.09,116.84l12.62 -682.23 -0.01 -0.01zm1233.47 1076.7c645.59,5.73 907.28,-134.31 906.67,-757.57 -0.67,-682.26 -306.84,-754.63 -951.52,-756.86 -349.57,-1.2 -1445.67,-75.3 -1674.28,30.83 -79.39,69 -45.21,967.57 -45.21,1089.12 0,376.31 -5.94,757.56 0.33,1144.57l503.2 1.4 2.47 -773.41c160.2,20.7 742.24,417.25 907.57,520.38 550.21,343.17 449.34,250.68 1189.21,262.28l-1100.71 -732.78c-4.56,-17.46 -17.1,-19.4 -24.94,-30.56l287.2 2.58 0.01 0.01z"/>
    <path class="fil2" d="M6471.33 2007.74c327.15,-36.93 825.14,-15.66 1168.8,-13.03 561.57,4.31 468.6,204.95 469.32,724.45 0.74,532.41 66.02,681.41 -515.53,680.9 -333.96,-0.31 -807.93,25.02 -1135.15,-14.94l12.56 -1377.38 0 0zm-489.58 1821.63c524.25,38.49 1348.91,28.6 1882.07,5.54 805.25,-34.83 738.87,-447.3 739.09,-1161.17 0.22,-757.71 21.66,-1095.8 -781.64,-1118.89 -539.62,-15.52 -1315.31,-34.02 -1859.89,6.87l20.35 2267.65 0.01 0z"/>
    <path class="fil2" d="M12212.13 3404.04c-29.08,-302.85 -108.46,-869.85 200.26,-941.66 198.99,-46.29 933.82,-51.04 1054.76,62.21 122.69,114.87 197.92,786.83 -119.49,866.43 -165.72,41.56 -915.87,15.66 -1135.53,13.01l0 0.01zm-8.05 432.1c541.67,-1.95 1544.23,137.47 1773.43,-310.63 1.37,-2.66 423.5,-1356.66 -486.91,-1483.09 -529.3,-73.51 -1546.76,-119.86 -1733.8,341.81 -97.44,240.53 -104.58,1676.76 -49.83,1993.01l489.68 -11.7 7.42 -529.4 0.01 0z"/>
    <path class="fil2" d="M14908.74 3390.83c-63,-820.7 -18.4,-941.68 446.85,-941.46 356.78,0.18 749.59,-60.57 870.45,130.73 81.33,154.35 77.3,531.44 6.61,692.07 -135.11,233.54 -1036.32,134.26 -1323.91,118.67l0 -0.01zm14.15 446.2c571.37,-4.56 1546.7,147.81 1779.08,-318.13 51.75,-103.77 378.69,-1362.69 -485.06,-1476.81 -571.99,-75.6 -1534.39,-115.17 -1741.11,344.69 -92.88,206.61 -88.26,1694.81 -43.69,1991.83l481.94 -17.21 8.83 -524.35 0.01 -0.01z"/>
    <path class="fil2" d="M23364.91 3293.46c-212.76,-937.92 206.06,-940.05 1330.22,-832.2 39.09,296.74 111.99,872.96 -217.86,937.59 -337.94,66.21 -906.26,40.04 -1112.35,-105.38l-0.01 0zm1337.05 -1274.78c-1034.65,89.48 -2083.28,-392.43 -1842.74,1291.24 40.47,283.28 210.92,456.49 531.11,500.33 587.96,80.49 1555.25,108.58 1756.74,-327.37 99.34,-214.92 73.37,-1703.07 51.74,-2023.54l-483.83 -12.94 -13.02 572.29 0 -0.01z"/>
    <path class="fil2" d="M20848.98 3487.78c-210,0 -341.93,-11.49 -319.58,-265.95 19.38,-220.85 150.74,-205.33 361.87,-205.8 329.1,-0.73 780.82,-19.3 1106.69,19.69l-51.15 372.97c-246.9,122.18 -757.06,79 -1097.82,79.09l-0.01 0zm408.6 337.45c965.56,0.59 1230.95,87.18 1232.5,-924.74 1.27,-826.61 -272.65,-940.85 -1291.57,-862.65l30.11 341.98c344.87,14.56 802.14,-118.28 740.19,320.03 -464.06,30.74 -1695.43,-146 -1884.41,247.28 -137.96,287.09 -46.94,696.71 188.48,810.54 253.05,122.36 672.17,67.37 984.71,67.57l-0.01 -0.01z"/>
    <path class="fil2" d="M9861.54 3018.09c321.47,3.87 644.98,-10.44 974.03,9.17l-35.31 361.78c-266.26,161.34 -1219.39,119.75 -1384.9,48.6 -149.37,-398.3 70.79,-424.07 446.19,-419.55l-0.01 0zm1473.11 -163.19c-0.14,-369.61 -25.29,-613.94 -315.4,-747.25 -242.93,-111.62 -688.92,-101.22 -974.21,-63.59l22.34 332.18c359.93,28.8 795.57,-112.21 762.93,312.54 -498.78,92.83 -1692.02,-150.64 -1890.3,242.15 -142.96,283.19 -58.57,727.63 197.25,836.88 244.72,104.51 706.25,57.26 997.35,57.42 997.2,0.54 1200.45,68.2 1200.04,-970.31l0 -0.02z"/>
    <path class="fil2" d="M26387.77 3487.41c-227.47,-0.02 -364.8,36.12 -370.65,-223.96 -5.41,-240.39 99.95,-244.54 321.07,-248.06 350.07,-5.55 805.15,-12.97 1159.94,15.2l-53.67 381.48c-262.46,136.03 -735.15,75.74 -1056.7,75.34l0.01 0zm363.21 337.81c940.68,0.26 1227.21,80.93 1227.98,-924.6 0.71,-932.96 -405.77,-912.04 -1284.1,-866.8l1.6 333.98c326,15.51 819.45,-113.74 795.24,320.43 -503.04,95.8 -1722.14,-174.96 -1921.15,260.04 -130,284.15 -45.74,700.69 180.61,811.75 223.87,109.84 735.38,65.13 999.81,65.2l0.01 -0z"/>
    <path class="fil2" d="M28835.08 3808.8c22.73,-1460.48 -166.68,-1359.66 679.54,-1380.27l3.6 -396.47c-1420.26,-59.72 -1205.09,502.68 -1183.33,1793.57l500.2 -16.83z"/>
   </g>
  </g>
  <polygon class="fil3" points="-0,0 29645.81,0 29645.81,5456.52 -0,5456.52 "/>
 </g>
</svg>
