<?xml version="1.0" encoding="UTF-8"?>
<!DOCTYPE svg PUBLIC "-//W3C//DTD SVG 1.0//EN" "http://www.w3.org/TR/2001/REC-SVG-20010904/DTD/svg10.dtd">
<!-- Creator: CorelDRAW 2019 (64-Bit) -->
<svg xmlns="http://www.w3.org/2000/svg" xml:space="preserve" width="0.822917in" height="0.633075in" version="1.0" style="shape-rendering:geometricPrecision; text-rendering:geometricPrecision; image-rendering:optimizeQuality; fill-rule:evenodd; clip-rule:evenodd"
viewBox="0 0 822.91 633.07"
 xmlns:xlink="http://www.w3.org/1999/xlink"
 xmlns:xodm="http://www.corel.com/coreldraw/odm/2003">
 <defs>
  <style type="text/css">
   <![CDATA[
    .fil1 {fill:none}
    .fil0 {fill:#4DA971}
   ]]>
  </style>
   <clipPath id="id0">
    <path d="M-0 0l822.91 0 0 633.07 -822.91 0 0 -633.07z"/>
   </clipPath>
 </defs>
 <g id="Layer_x0020_1">
  <metadata id="CorelCorpID_0Corel-Layer"/>
  <g>
  </g>
  <g style="clip-path:url(#id0)">
   <g>
    <g id="_1920485164800">
     <path class="fil0" d="M284.06 522.79c3.75,-7.15 3.58,0.49 3.51,-11.6 -0.04,-6.04 1.79,-8.07 3.93,-10.95 -61.5,1.3 -123.9,-0.14 -185.56,0.05 -17.28,0.05 -19.91,-8.7 -24.95,-24.58 -2.15,-6.77 -11.59,-36.22 -11,-41.63 1.87,-17.02 22.65,-12.56 35.96,-12.56l627.32 0c17.11,-0 24.58,3.39 18.43,26.7 -1.91,7.24 -3.58,14.37 -5.33,21.69 -3.1,12.91 -5.39,28.61 -21,30.25 -13.39,1.41 -32.35,0.11 -46.34,0.11l-278.88 0c-30.4,0 -62.98,-1.33 -93.11,0.07 -1.85,4.44 -6.47,8.65 -8.78,11.34 -2.13,2.49 -7.76,8.31 -8.93,11.17 21.83,-1.12 45.65,-0.1 67.69,-0.1 112.92,0 225.79,0 338.7,0 24.35,0 41.24,3.59 55.8,-13.81 10.35,-12.37 13.95,-37.18 19.26,-57.9 2.59,-10.11 5,-20.41 7.65,-30.51 2.96,-11.25 1.8,-25.38 1.85,-37.8 0.13,-26.9 0.04,-53.81 0.15,-80.72 0.16,-37.67 -0.8,-83.83 -0.02,-120.24 0.59,-27.75 3.23,-47.08 -13.79,-63.36 -7.17,-6.85 -15.87,-8.13 -27.08,-8.19 -157.53,-0.86 -316.72,-0.03 -474.31,-0.03 -45.2,0 -90.4,0 -135.61,0 -14.11,0 -54.87,-2.04 -65.2,2.61 -22.82,10.26 -22.3,33.87 -22.39,54.15l0.43 239.67c0.09,13.14 12,47.3 16.25,61.72 6.82,23.2 9.4,39.07 25.9,49.23 13.37,8.22 46.27,5.17 63.78,5.17 45.01,0 90.8,0.96 135.68,0.04zm-209.29 -389.87c-18.1,3.59 -13.93,26.12 -14,51.33 -0.06,22.71 0.21,45.6 0.21,68.36 0,17.93 -1.76,127.48 1.5,134.66 4.05,8.92 12.06,7.69 21.92,7.69l548.03 0c38.34,0 77.24,0.79 115.48,0.01 9.85,-0.2 13.57,-6.32 13.55,-18l-0.02 -204.26c0,-45.28 -0.17,-40.07 -53.2,-40.07 -57.15,0 -627.12,-0.99 -633.47,0.27z"/>
     <path class="fil0" d="M118.35 446.61c-11.38,2.56 -15.84,18.51 -8.13,29.09 6.3,8.65 23.39,5.61 34.68,5.61 171.77,0 343.57,0 515.34,0 8.92,0 31.89,1.33 39.19,-0.33 10.38,-2.37 15.36,-18.36 7.94,-28.87 -6.22,-8.84 -23.16,-5.84 -34.62,-5.84 -105.7,0 -211.42,0 -317.13,0 -66.14,0 -132.09,0 -198.21,0 -9.07,0 -31.77,-1.3 -39.06,0.34z"/>
     <path class="fil0" d="M125.46 261.42c-4.35,2.24 -7.86,7.73 -5.34,14.74 2.38,6.65 6.48,7.02 13.65,6.98 142.01,-0.83 284.66,-0 427.02,-0 25.98,0 51.97,0 77.89,0 11.41,0 71.84,1.97 77.26,-1.64 3.89,-2.59 6.52,-9.3 3.28,-15.54 -3.06,-5.91 -8.58,-5.39 -15.17,-5.38l-193.34 0c-12.83,0 -26.26,-0.46 -39.01,0.02 -10.88,0.4 -25.05,-0.02 -37.49,-0.02l-193.34 0c-21.03,0 -112.32,-0.76 -115.42,0.84z"/>
     <path class="fil0" d="M543.02 214.17c-1.12,-17.19 3.91,-13.52 9.26,-22.63 -35.9,1.09 -72.94,0.05 -109.03,0.05l-300.44 0c-9.44,0 -19.02,-2.35 -22.52,6.37 -2.41,6 -1.19,16.03 11.37,16.09l356.09 -0.02c17.9,0 37.63,-0.98 55.26,0.14z"/>
     <path class="fil0" d="M549.99 214.07c39.44,-1.24 86.72,-0.04 127.64,-0.04 9.21,0 35.82,2.69 40.45,-3.27 3.78,-4.87 3.06,-13.6 -1.18,-17 -4.2,-3.36 -13.87,-2.17 -19.8,-2.17 -42.35,0 -87.7,-0.85 -129.35,0.01 -1.06,3.25 -6.97,9.15 -9.04,11.65 -1.67,2.02 -7.72,8.54 -8.72,10.81z"/>
     <path class="fil0" d="M644.98 342.9c-18.09,4.39 -12.26,34.56 4.37,31.05 18.06,-3.81 12,-35.02 -4.37,-31.05z"/>
     <path class="fil0" d="M599.18 342.99c-17.58,4.41 -12.47,36.09 5.96,30.62 5.98,-1.78 11.44,-10 9.42,-19.09 -1.58,-7.07 -7.93,-13.39 -15.38,-11.52z"/>
     <path class="fil0" d="M690.27 342.95c-17.12,4.13 -12.52,35.85 5.48,30.8 6.09,-1.7 11.69,-9.21 10.01,-18.47 -1.39,-7.63 -7.73,-14.2 -15.49,-12.32z"/>
     <path class="fil0" d="M543.02 214.17l6.97 -0.09c1,-2.27 7.05,-8.8 8.72,-10.81 2.07,-2.5 7.98,-8.41 9.04,-11.65l-15.47 -0.06c-5.36,9.11 -10.39,5.43 -9.26,22.63z"/>
     <path class="fil0" d="M284.06 522.79l5.27 0.06c1.17,-2.86 6.8,-8.68 8.93,-11.17 2.3,-2.69 6.93,-6.91 8.78,-11.34l-15.54 -0.1c-2.14,2.87 -3.96,4.91 -3.93,10.95 0.07,12.09 0.24,4.45 -3.51,11.6z"/>
    </g>
   </g>
  </g>
  <polygon class="fil1" points="-0,0 822.91,0 822.91,633.07 -0,633.07 "/>
 </g>
</svg>
