<?xml version="1.0" encoding="UTF-8"?>
<!DOCTYPE svg PUBLIC "-//W3C//DTD SVG 1.0//EN" "http://www.w3.org/TR/2001/REC-SVG-20010904/DTD/svg10.dtd">
<!-- Creator: CorelDRAW 2019 (64-Bit) -->
<svg xmlns="http://www.w3.org/2000/svg" xml:space="preserve" width="0.822917in" height="0.633075in" version="1.0" style="shape-rendering:geometricPrecision; text-rendering:geometricPrecision; image-rendering:optimizeQuality; fill-rule:evenodd; clip-rule:evenodd"
viewBox="0 0 822.91 633.07"
 xmlns:xlink="http://www.w3.org/1999/xlink"
 xmlns:xodm="http://www.corel.com/coreldraw/odm/2003">
 <defs>
  <style type="text/css">
   <![CDATA[
    .fil2 {fill:none}
    .fil0 {fill:#4DA971}
    .fil1 {fill:white}
   ]]>
  </style>
   <clipPath id="id0">
    <path d="M-0 0l822.91 0 0 633.07 -822.91 0 0 -633.07z"/>
   </clipPath>
 </defs>
 <g id="Layer_x0020_1">
  <metadata id="CorelCorpID_0Corel-Layer"/>
  <g>
  </g>
  <g style="clip-path:url(#id0)">
   <g>
    <g id="_1920447755376">
     <path class="fil0" d="M335.34 106.14l-87.19 0.04c1.3,-30.93 -27.01,-23.63 -54.69,-23.63 -19.35,0 -42.14,-4.26 -51.31,7.19 -3.77,4.7 -3.79,9.41 -4.03,16.54 -38.18,-1.63 -67.09,8.13 -89.74,37.65 -23.15,30.17 -17.73,67.72 -17.73,111.05 0,84.87 0,169.74 0,255.06 0,22.97 -0.8,36.95 7.96,56.25 7.11,15.67 16.39,26.1 28.25,35.5 30.15,23.9 66.09,18.78 109.61,18.78 85.53,0 171.37,-0.64 256.76,-0.02 85.21,0.62 170.71,-0.04 255.91,0.02 23.82,0.02 34.59,-1.18 53.58,-10.2 13.58,-6.45 26.87,-19.56 34.11,-30.54 9.37,-14.2 14.58,-27.82 15.46,-48.54 1.15,-27.18 0.05,-66.57 0.09,-96.07l0 -158.99c0,-5.3 0.19,-10.98 -0.03,-16.24l0.03 -46.68c0,-34.17 -2.43,-50.51 -21.96,-74.47 -32.65,-40.05 -79.69,-32.28 -128.37,-32.67 -6.37,-29.68 -26.35,-55.13 -50.59,-72.33 -31.47,-22.34 -57.46,-21.77 -102.11,-21.77 -39.35,0 -70.17,-2.06 -102.7,21.21 -10.94,7.83 -24.25,19.17 -31.59,30.46 -7.61,11.7 -16.59,25.42 -19.7,42.39z"/>
     <path class="fil1" d="M584.95 198.14c-1.17,-0.5 -15.77,-8.04 -16.55,-8.69 -4.28,-1.2 -10.53,-4.52 -15.65,-6.42 -2.58,-0.96 -5.46,-1.94 -8.12,-2.91 -1.37,-0.5 -2.28,-0.68 -3.91,-1.21 -3.14,-1.03 -1.8,-0.07 -3.36,-1.72 -2.91,0.21 -22.61,-3.97 -23.75,-5.04 -4.85,0.26 -15.43,-1.2 -21.29,-1.65 -42.91,-3.25 -92.02,12.84 -125.27,37.04 -17.72,12.89 -39.33,34.22 -50.5,53.2 -11.98,20.35 -18.44,30.43 -25.55,56.92 -14.52,54.12 -3.24,111.34 21.1,151.96l9.01 13.98c5.85,7.92 20.04,24.71 27,30.76 18.9,16.43 41.67,31.61 65.55,39.93 66.09,23.04 127.46,13.91 183.08,-23.58 4.85,-3.26 8.46,-6.25 13.08,-9.85l17.74 -17.13c6.33,-7.58 8.19,-8.66 16.23,-19.49 20.13,-27.08 35.18,-66.46 36.67,-102.54 1.17,-28.15 -1.88,-58.61 -11.5,-81.85 -8.36,-20.2 -9.54,-21.21 -19.09,-37.91 -2.08,-3.64 -2.62,-3.92 -4.89,-6.99l-21.08 -25.69c-4.35,-3.83 -7.7,-7.48 -12.48,-11.35 -13.93,-11.28 -15.17,-11.08 -25.34,-18.74 -0.11,-0.08 -0.32,-0.26 -0.41,-0.33l-0.73 -0.69z"/>
     <path class="fil0" d="M464.36 202.45c-13.32,2.46 -22.25,2.85 -34.54,7.46 -20.59,7.73 -37.05,15.16 -53.59,29.74 -2.09,1.84 -3.24,2.42 -5.55,4.65 -15.83,15.31 -20.85,21.19 -32.68,40.47 -29.1,47.38 -29.89,119.69 -1.04,165.95 5.98,9.58 10.26,16.07 16.99,24.7 1.83,2.34 2.93,3.15 4.88,5.29 7.1,7.76 7.3,8.41 15.98,15.5l11.35 9.05c2.56,2.08 9.63,6.48 12.9,8.35 8.64,4.95 18.04,8.85 28.6,13.11 20.13,8.1 50.56,10.55 74.59,8.16 21.8,-2.17 44.21,-10.24 62.81,-20.53 71.41,-39.53 106.87,-131.16 70.68,-213.62 -6.45,-14.7 -14.04,-26.68 -24,-38.88 -18.6,-22.8 -45.89,-41.89 -73.78,-51.2 -20.93,-6.98 -49.09,-12.71 -73.59,-8.19z"/>
     <path class="fil1" d="M447.68 114.53l68.87 -0c17.22,0 13.08,-14.68 13.08,-30.44 0,-5.73 0.59,-16.09 -0.18,-21.28 -1.29,-8.69 -9,-8.81 -13.76,-8.81l-66.31 0c-17.93,0 -14.45,9.65 -14.45,29.24 0,15.29 -4.2,31.29 12.75,31.29z"/>
     <path class="fil1" d="M554.27 295.79c2.65,5.47 29.74,27.24 29.7,71.42 -0.02,20.59 -6.63,45 -18.6,59.88l-11.95 14.15c3.8,4.8 8.66,8.49 12.53,13.26 7.43,-4.4 20.79,-25.09 25.18,-34.8 18.06,-39.93 14.55,-84.66 -10.58,-120.74 -3.01,-4.32 -10.18,-13.45 -13.84,-15.85 -3.86,4.22 -8.81,9.04 -12.44,12.67z"/>
     <path class="fil1" d="M125.2 178.82c-12.7,1.44 -23.16,13.61 -21,28.5 1.78,12.3 13.53,22.13 28.69,20.24 11.76,-1.47 23.39,-14.37 20.45,-28.48 -2.62,-12.58 -13.49,-21.93 -28.14,-20.26z"/>
    </g>
   </g>
  </g>
  <polygon class="fil2" points="-0,0 822.91,0 822.91,633.07 -0,633.07 "/>
 </g>
</svg>
