<?xml version="1.0" encoding="UTF-8"?>
<!DOCTYPE svg PUBLIC "-//W3C//DTD SVG 1.0//EN" "http://www.w3.org/TR/2001/REC-SVG-20010904/DTD/svg10.dtd">
<!-- Creator: CorelDRAW 2019 (64-Bit) -->
<svg xmlns="http://www.w3.org/2000/svg" xml:space="preserve" width="0.822917in" height="0.633075in" version="1.0" style="shape-rendering:geometricPrecision; text-rendering:geometricPrecision; image-rendering:optimizeQuality; fill-rule:evenodd; clip-rule:evenodd"
viewBox="0 0 822.91 633.07"
 xmlns:xlink="http://www.w3.org/1999/xlink"
 xmlns:xodm="http://www.corel.com/coreldraw/odm/2003">
 <defs>
  <style type="text/css">
   <![CDATA[
    .fil1 {fill:none}
    .fil0 {fill:#4DA971}
   ]]>
  </style>
   <clipPath id="id0">
    <path d="M-0 0l822.91 0 0 633.07 -822.91 0 0 -633.07z"/>
   </clipPath>
 </defs>
 <g id="Layer_x0020_1">
  <metadata id="CorelCorpID_0Corel-Layer"/>
  <g>
  </g>
  <g style="clip-path:url(#id0)">
   <g>
    <g id="_1920436566224">
     <path class="fil0" d="M120.03 239.19c20.47,17.74 44.64,15.14 55.51,54.31 7.2,25.97 2.99,82.18 3.51,113.24l467.02 0.62c-0.13,-30.24 -3.56,-83.37 2.12,-109.76 8.27,-38.4 28.15,-38.16 53.71,-56.7 5.18,-37.21 6.65,-74.93 9.81,-111.71 10.56,-123.06 -7.2,-90.82 -293.31,-90.82 -362.11,0 -314.68,-46.17 -298.36,200.81z"/>
     <path class="fil0" d="M120.66 493.18l5.36 94.83c53.18,17.36 440.77,7.96 526.19,7.96 24.94,0 27.35,-1.78 44.96,-8.15 7.59,-42.41 15.22,-97.26 -1.99,-137.46 -42.72,-16.11 -447.7,-7.69 -524.45,-7.67 -39.94,0.01 -50.07,8.32 -50.07,50.49z"/>
     <path class="fil0" d="M681.24 409.3c75.15,18.57 64.3,105.76 52.89,186.34 58.85,-0.81 47.31,-39.53 55.72,-130.19 4.5,-48.47 21.01,-138.18 10.37,-176.49 -18.39,-8.71 -83.83,-23.06 -107.93,-1.94 -23.09,20.23 -11.44,90.53 -11.05,122.28z"/>
     <path class="fil0" d="M90.37 595.64c-9.85,-79.42 -21.21,-168.03 52.89,-186.34 1.49,-134.9 9.43,-130.58 -75.58,-130.58 -70.36,0 -46.61,40.35 -35.61,158.24 3.08,33.02 5.75,68.2 8.95,102.36 3.82,40.78 7.27,55.72 49.35,56.32z"/>
    </g>
   </g>
  </g>
  <polygon class="fil1" points="-0,0 822.91,0 822.91,633.07 -0,633.07 "/>
 </g>
</svg>
