<?xml version="1.0" encoding="UTF-8"?>
<!DOCTYPE svg PUBLIC "-//W3C//DTD SVG 1.0//EN" "http://www.w3.org/TR/2001/REC-SVG-20010904/DTD/svg10.dtd">
<!-- Creator: CorelDRAW 2019 (64-Bit) -->
<svg xmlns="http://www.w3.org/2000/svg" xml:space="preserve" width="0.822917in" height="0.633075in" version="1.0" style="shape-rendering:geometricPrecision; text-rendering:geometricPrecision; image-rendering:optimizeQuality; fill-rule:evenodd; clip-rule:evenodd"
viewBox="0 0 822.91 633.07"
 xmlns:xlink="http://www.w3.org/1999/xlink"
 xmlns:xodm="http://www.corel.com/coreldraw/odm/2003">
 <defs>
  <style type="text/css">
   <![CDATA[
    .fil1 {fill:none}
    .fil0 {fill:#4DA971}
   ]]>
  </style>
   <clipPath id="id0">
    <path d="M-0 0l822.91 0 0 633.07 -822.91 0 0 -633.07z"/>
   </clipPath>
 </defs>
 <g id="Layer_x0020_1">
  <metadata id="CorelCorpID_0Corel-Layer"/>
  <g>
  </g>
  <g style="clip-path:url(#id0)">
   <g>
    <g id="_1920439800128">
     <polygon class="fil0" points="193.7,508.85 628.9,508.81 628.9,231.05 629.67,230.98 193.77,231.05 "/>
     <path class="fil0" d="M381.91 105.82c-4.6,-18.47 8.65,-33.21 22.81,-36.47 18.4,-4.24 32.83,8.68 36.16,22.9 4.24,18.09 -9.05,33.14 -22.94,36.09 -18.47,3.93 -32.54,-8.5 -36.04,-22.52zm120.74 -2.78c-2.34,-17.77 10.28,-31.98 25.54,-34.11 18.07,-2.52 32.37,10.52 34.31,26.08 2.17,17.48 -10.68,31.54 -25.37,33.74 -18.09,2.7 -32.48,-10.49 -34.48,-25.71zm-242.41 0c-2.39,-17.91 10.35,-31.79 25.29,-34.06 18.18,-2.77 32.51,10.42 34.67,25.75 2.47,17.62 -10.83,31.99 -25.72,34.05 -17.87,2.48 -32.24,-10.71 -34.24,-25.74zm363.39 -1.39c-2.38,-29.75 31.93,-42.06 49.85,-25.7 20.12,18.37 9.26,50.15 -16.66,52.97 -17.62,1.91 -31.93,-11.51 -33.19,-27.26zm-424.71 1.39c-2.26,15.24 -16.24,28.5 -34.39,25.69 -14.93,-2.31 -28.13,-16.27 -25.42,-34.39 2.27,-15.2 16.53,-28 34.38,-25.39 15.13,2.22 28.05,16.38 25.42,34.09zm-85.18 -61.81l594.75 -0.04 0.06 7.11 -0.99 0.01 -593.42 -0.01 -0.4 -7.08zm-6.67 111.47l1.11 0.19 606.33 0 1.11 -0.19 -0.02 -135.8 -608.54 0.24 0 135.56z"/>
     <path class="fil0" d="M149.05 163.39l523.73 -0 0.51 421.21 -524.01 0.02 -0.24 -415.52 0 -5.71zm-41.89 452.04l608.5 0.05 0.24 -459.14 -608.89 -0.03 0.15 459.12z"/>
     <polygon class="fil0" points="169.96,220.55 652.64,220.55 652.66,192.38 651.93,192.39 172.14,192.39 170.01,192.38 "/>
     <path class="fil0" d="M121.22 618.85c-0.04,10.6 -2.05,10.65 8.5,10.57 74.81,-0.55 568.21,1.34 570.71,-0.77 2.13,-1.8 1.3,-5.09 1.22,-9.76l-580.43 -0.05z"/>
     <path class="fil0" d="M707.94 13.48c0.08,-12.42 0.27,-9.88 -28.89,-9.88l-535.41 0c-30.59,0 -28.85,-2.39 -28.74,9.82l593.05 0.06z"/>
     <polygon class="fil0" points="169.97,180.92 169.94,186.13 652.76,186.16 652.72,176.57 169.96,176.58 "/>
     <path class="fil0" d="M424.55 79.15c2.59,0.82 5.65,4.31 6.61,6.51 -2.31,3.45 -9.39,9.91 -12.74,13.33 -2.76,2.81 -10.07,11.36 -13.34,12.56 -2.43,-1.1 -5.04,-3.98 -6.13,-6.43l25.6 -25.98zm9.65 9.36c1.75,-3.78 -0.68,-6.76 -2.6,-8.52 -9.21,-8.41 -6.46,-2.41 -12.3,-3.04 -0.93,-0.1 -3.15,-0.89 -4.5,-1.1 -16.57,-2.65 -32.06,14.1 -25.16,31.49 9.83,24.76 46.63,15.96 45,-9.89 -0.16,-2.49 -0.7,-3.57 -1.16,-5.57 -0.92,-3.93 -0.27,-1.24 0.72,-3.37z"/>
     <path class="fil0" d="M277.79 105.13c0.89,-1.77 23.37,-24.91 25.77,-25.99 2.13,0.96 5.33,4.4 6.52,6.52 -2.05,2.76 -23.94,24.81 -25.98,25.91 -2.28,-1.58 -5.33,-3.96 -6.3,-6.44zm35.46 -17.39c1.61,-3.76 -1.58,-6.22 -3.09,-8 -1.79,-2.11 -3.3,-4.92 -7.87,-3.91 -3.29,0.73 -1.34,1.63 -4.56,1.09 -1.38,-0.24 -2.76,-0.89 -4.59,-1.15 -16.26,-2.28 -32.01,14.32 -24.68,31.75 5.59,13.3 20.42,17.87 31.72,12.31 8.92,-4.38 14.12,-13.1 13.26,-23.08 -0.66,-7.77 -2.67,-3.25 -0.19,-9.02z"/>
     <path class="fil0" d="M647.75 111.56l-6.72 -6.28c1.43,-3.37 9.92,-10.85 12.69,-13.65 2.89,-2.91 9.98,-11.23 13.5,-12.49l6.56 6.3c-1.52,2.74 -10.54,10.78 -13,13.24 -3.77,3.78 -8.87,9.67 -13.03,12.87zm0.16 -35.15c-31.24,8.47 -16.7,55.29 14.04,44.32 6.09,-2.18 9.91,-6.17 12.42,-11.25 5.02,-10.15 0.89,-16.38 1.3,-19.52 0.5,-3.81 3.59,-3.8 -0.74,-8.51 -5.72,-6.21 -5.22,-6.84 -11.15,-4.83 -1.02,0.34 -0.37,0.44 -1.86,0.33 -2.11,-0.15 -6.04,-2.7 -14.02,-0.54z"/>
     <path class="fil0" d="M163.1 111.57c-2.19,-1.14 -5.26,-4.28 -6.52,-6.44 1.13,-3.54 9.53,-10.67 12.42,-13.56 2.88,-2.88 10.04,-11.31 13.57,-12.41l6.52 6.36c-1.79,4.13 -9.43,9.61 -12.96,13.18 -3.32,3.36 -9.43,10.37 -13.03,12.88zm0.48 -35.37c-31.16,7.55 -17.92,55.33 13.14,44.69 6.17,-2.11 10.25,-6.27 12.74,-10.97 1.36,-2.57 2.5,-5.69 2.74,-9.02 0.33,-4.47 -1.29,-8.17 -1.19,-10.38 0.16,-3.47 3.76,-4.46 -0.33,-8.8 -1.32,-1.41 -4.57,-5.17 -6.26,-5.74 -5.24,-1.76 -3.48,2.05 -9.28,0.53 -4.22,-1.11 -7.37,-1.33 -11.56,-0.31z"/>
     <path class="fil0" d="M526.77 111.52c-2.53,-0.92 -6,-4.48 -6.72,-7.05 1.68,-2.59 23.18,-24.27 26.18,-25.3 2.64,1.25 7.83,5.17 4.96,8.59l-24.43 23.75zm28.59 -22.78c2.47,-5.3 -2.32,-8.02 -2.89,-8.59 -1.83,-1.87 -3.16,-5.11 -7.56,-4.4 -3.8,0.62 -0.95,1.67 -4.55,1.19 -1.13,-0.15 -2.94,-0.89 -4.55,-1.12 -10.02,-1.47 -19.27,3.68 -23.94,12.35 -9.92,18.4 9.31,41.79 30.94,31.65 11.27,-5.29 14.49,-16.03 11.81,-28.01 -0.83,-3.69 -0.24,-0.97 0.74,-3.06z"/>
     <polygon class="fil0" points="659.67,228.26 670.15,228.32 670.17,224.73 670.17,171.89 670.2,168.92 666.53,168.93 664.44,168.9 659.65,169.08 "/>
     <polygon class="fil0" points="152.54,228.31 163.01,228.2 163.04,168.98 152.5,168.91 "/>
    </g>
   </g>
  </g>
  <polygon class="fil1" points="-0,0 822.91,0 822.91,633.07 -0,633.07 "/>
 </g>
</svg>
