<?xml version="1.0" encoding="UTF-8"?>
<!DOCTYPE svg PUBLIC "-//W3C//DTD SVG 1.0//EN" "http://www.w3.org/TR/2001/REC-SVG-20010904/DTD/svg10.dtd">
<!-- Creator: CorelDRAW 2019 (64-Bit) -->
<svg xmlns="http://www.w3.org/2000/svg" xml:space="preserve" width="0.822917in" height="0.633075in" version="1.0" style="shape-rendering:geometricPrecision; text-rendering:geometricPrecision; image-rendering:optimizeQuality; fill-rule:evenodd; clip-rule:evenodd"
viewBox="0 0 822.92 633.08"
 xmlns:xlink="http://www.w3.org/1999/xlink"
 xmlns:xodm="http://www.corel.com/coreldraw/odm/2003">
 <defs>
  <style type="text/css">
   <![CDATA[
    .fil1 {fill:none}
    .fil0 {fill:#4DA971}
   ]]>
  </style>
   <clipPath id="id0">
    <path d="M-0 0l822.92 0 0 633.08 -822.92 0 0 -633.08z"/>
   </clipPath>
 </defs>
 <g id="Layer_x0020_1">
  <metadata id="CorelCorpID_0Corel-Layer"/>
  <g>
  </g>
  <g style="clip-path:url(#id0)">
   <g>
    <g id="_1920588196816">
     <path class="fil0" d="M505.81 266.56c20.54,-3.82 37.4,11.74 40,28.86 3.19,20.99 -10.88,37.27 -27.95,40.24 -45.72,7.96 -56.64,-60.81 -12.05,-69.11zm113.12 15.19c11.93,-3.33 21.87,5.12 24.31,14.23 3.23,12.07 -5.13,22.26 -14.14,24.54 -25.51,6.47 -35.43,-31.73 -10.17,-38.77zm-156.59 -47.37c-21.78,4.28 -21.25,21.85 -21.25,36.13l0 114.69c0,12.3 -1.9,46.19 2.54,55.11 7.77,15.63 22.22,14.11 42.56,14.11 14.52,0 165.76,0.8 172.66,-0.37 8.04,-1.36 13.78,-6.44 17.08,-11.39 4.88,-7.31 4.02,-15.47 4.02,-24.82l0 -114.69c0,-28.45 6.41,-61.16 -18.43,-68.22 -7.85,-2.23 -125.6,-1 -142.69,-1 -12.88,0 -46.13,-1.59 -56.5,0.45z"/>
     <path class="fil0" d="M294.43 505.06c-0.41,8.36 0.41,15.57 -0.51,24.56 -0.74,7.26 -2.43,14.24 -4.12,21.02 18.78,1.43 43.07,0.13 62.45,0.13l316.45 0c21.13,0.01 35.72,-2.16 53.19,-10.21 7.87,-3.63 13.75,-7.24 20.03,-11.79 11.56,-8.37 22.44,-20.18 30.09,-32.73 16.25,-26.63 16.39,-48.83 16.39,-79.03l0.01 -380.08c0.04,-26.02 -22.47,-30.47 -34.02,-23.15 -15.46,9.79 -11.2,30.72 -11.19,52.46l0 316.45c0,18.44 1.58,45.65 -0.6,63.08 -4.06,32.4 -31.93,58.72 -67.21,59.32 -42.17,0.72 -85.01,0 -127.25,0 -84.3,0 -169.53,1.25 -253.71,-0.04z"/>
     <path class="fil0" d="M734.48 61.02c-5.06,1.75 -306.51,0.62 -320.27,0.62 -106.83,0 -213.82,-0.57 -320.63,0.01l-4.66 -0c-0.94,3.86 -0.95,45.69 0.02,49.37l-2.05 0.02 647.96 0c0.69,-4.09 0.53,-45.06 -0.36,-50.02z"/>
     <path class="fil0" d="M68.16 516.44c-0.22,-20.91 5.57,-39.24 13.9,-54.9 2.99,-5.62 -1.91,-11.33 -1.89,-29.46l0 -381.74c0,-11.82 1.65,-21.61 -4.23,-30.07 -4.16,-5.98 -13.72,-12.23 -25.18,-8.58 -20.55,6.54 -15.79,31.09 -15.79,52.88l0 346.58c0,33 -0.73,58.59 17.43,86.37 3.05,4.67 11.8,17.31 15.76,18.92z"/>
     <path class="fil0" d="M114.93 521.66c-2.44,-38.66 25.82,-69.68 60.88,-72.33 38.89,-2.94 69.07,26.11 72.07,61.42 3.3,38.87 -25.95,70.41 -61.34,73.16 -38.17,2.97 -69.39,-27.02 -71.61,-62.24zm58.91 -110.98c-55.4,3.65 -101.93,53.39 -97.14,113.63 4.46,56.06 51.74,102.78 113.17,97.8 55.54,-4.5 100.89,-53.04 96.17,-113.87 -4.33,-55.72 -51.63,-101.54 -112.2,-97.56z"/>
     <path class="fil0" d="M735.11 191.23l-0.21 -25.26 -646.35 0.01 -0.04 24.68 605.31 -0.02c8.99,0 34.27,-1.09 41.3,0.59z"/>
     <path class="fil0" d="M177.66 493.85c13.18,-2.65 24.17,7.03 26.31,17.89 6.04,30.65 -39.54,39.21 -44.96,8.95 -2.61,-14.57 6.99,-24.49 18.65,-26.84zm-62.73 27.8c2.22,35.22 33.44,65.22 71.61,62.24 35.39,-2.75 64.64,-34.29 61.34,-73.16 -3,-35.31 -33.19,-64.35 -72.07,-61.42 -35.06,2.65 -63.32,33.67 -60.88,72.33z"/>
     <path class="fil0" d="M142.96 364.68c-10.11,1.92 -14.33,14.02 -6.48,21.16 6.07,5.52 21.37,3.45 30.77,3.45 15.44,0 201.28,0.86 207.31,-0.31 9.76,-1.9 13.63,-14.42 6.02,-21.22 -5.69,-5.08 -21.89,-3.22 -30.84,-3.22 -14.21,0 -202.2,-0.72 -206.78,0.15z"/>
     <path class="fil0" d="M142.68 299.27c-9.25,1.82 -13.73,14.33 -6.23,21.29 5.74,5.33 21.78,3.28 30.8,3.28 15.34,0 201.3,0.83 207.2,-0.26 9.8,-1.81 13.9,-14.28 6.17,-21.15 -6.05,-5.37 -21.47,-3.35 -30.87,-3.35 -14.23,0 -202.45,-0.72 -207.06,0.19z"/>
     <path class="fil0" d="M142.94 234.09c-10.12,1.92 -14.33,14.04 -6.44,21.13 6.35,5.7 21.09,3.4 30.74,3.4 15.14,0 201.63,0.81 207.29,-0.22 9.61,-1.75 13.6,-14.6 6.05,-21.25 -5.92,-5.22 -21.64,-3.21 -30.84,-3.21 -14.23,0 -202.2,-0.72 -206.8,0.15z"/>
     <path class="fil0" d="M276.88 454.48l92.96 -0.05c8.68,0 15.17,-3.86 14.64,-13.15 -0.55,-9.63 -7.84,-11.53 -17.15,-11.53l-111.43 -0.04c1.5,3.03 7.66,8.14 10.94,11.6 3.66,3.87 6.73,8.9 10.05,13.17z"/>
    </g>
   </g>
  </g>
  <polygon class="fil1" points="-0,0 822.92,0 822.92,633.08 -0,633.08 "/>
 </g>
</svg>
