<?xml version="1.0" encoding="UTF-8"?>
<!DOCTYPE svg PUBLIC "-//W3C//DTD SVG 1.0//EN" "http://www.w3.org/TR/2001/REC-SVG-20010904/DTD/svg10.dtd">
<!-- Creator: CorelDRAW 2019 (64-Bit) -->
<svg xmlns="http://www.w3.org/2000/svg" xml:space="preserve" width="6.26795in" height="6.26795in" version="1.0" style="shape-rendering:geometricPrecision; text-rendering:geometricPrecision; image-rendering:optimizeQuality; fill-rule:evenodd; clip-rule:evenodd"
viewBox="0 0 6267.95 6267.95"
 xmlns:xlink="http://www.w3.org/1999/xlink"
 xmlns:xodm="http://www.corel.com/coreldraw/odm/2003">
 <defs>
  <style type="text/css">
   <![CDATA[
    .fil1 {fill:none}
    .fil0 {fill:#55BC7E}
   ]]>
  </style>
   <clipPath id="id0">
    <path d="M3133.98 0c1730.85,0 3133.98,1403.13 3133.98,3133.98 0,1730.85 -1403.13,3133.98 -3133.98,3133.98 -1730.85,0 -3133.98,-1403.13 -3133.98,-3133.98 0,-1730.85 1403.13,-3133.98 3133.98,-3133.98z"/>
   </clipPath>
 </defs>
 <g id="Layer_x0020_1">
  <metadata id="CorelCorpID_0Corel-Layer"/>
  <g>
  </g>
  <g style="clip-path:url(#id0)">
   <g>
    <path class="fil0" d="M-410.22 -470.28l-60.06 0 0 60.06c33.04,0 60.06,-27.04 60.06,-60.06zm540.65 60.06c33.03,0 60.07,-27.04 60.07,-60.06l-120.14 0c0,33.03 27.04,60.06 60.07,60.06zm660.78 -60.06c0,33.03 -27.03,60.06 -60.06,60.06 -33.04,0 -60.07,-27.04 -60.07,-60.06l120.14 0zm540.64 60.06c33.04,0 60.07,-27.04 60.07,-60.06l-120.14 0c0,33.03 27.04,60.06 60.07,60.06zm660.79 -60.06c0,33.03 -27.04,60.06 -60.08,60.06 -33.04,0 -60.06,-27.04 -60.06,-60.06l120.14 0zm540.63 60.06c33.04,0 60.07,-27.04 60.07,-60.06l-120.14 0c0,33.03 27.02,60.06 60.06,60.06zm660.79 -60.06c0,33.03 -27.04,60.06 -60.07,60.06 -33.04,0 -60.07,-27.04 -60.07,-60.06l120.14 0zm540.63 60.06c33.04,0 60.07,-27.04 60.07,-60.06l-120.15 0c0,33.03 27.04,60.06 60.07,60.06zm660.79 -60.06c0,33.03 -27.04,60.06 -60.07,60.06 -33.04,0 -60.07,-27.04 -60.07,-60.06l120.15 0zm540.64 60.06c33.04,0 60.06,-27.04 60.06,-60.06l-120.14 0c0,33.03 27.04,60.06 60.08,60.06zm660.78 -60.06c0,33.03 -27.04,60.06 -60.09,60.06 -33.04,0 -60.06,-27.04 -60.06,-60.06l120.15 0zm540.65 60.06c33.03,0 60.06,-27.04 60.06,-60.06l-120.15 0c0,33.03 27.06,60.06 60.09,60.06zm600.7 -60.06l0 60.06c-33.04,0 -60.06,-27.04 -60.06,-60.06l60.06 0zm-7148.46 600.7c0,-33.03 -27.02,-60.07 -60.06,-60.07l0 120.14c33.04,0 60.06,-27.04 60.06,-60.07zm600.71 0c0,33.18 -26.9,60.07 -60.07,60.07 -33.18,0 -60.07,-26.9 -60.07,-60.07 0,-33.17 26.9,-60.07 60.07,-60.07 33.17,0 60.07,26.9 60.07,60.07zm540.65 60.07c33.17,0 60.06,-26.9 60.06,-60.07 0,-33.17 -26.9,-60.07 -60.06,-60.07 -33.18,0 -60.07,26.9 -60.07,60.07 0,33.18 26.9,60.07 60.07,60.07zm660.78 -60.07c0,33.18 -26.9,60.07 -60.07,60.07 -33.17,0 -60.07,-26.9 -60.07,-60.07 0,-33.17 26.9,-60.07 60.07,-60.07 33.18,0 60.07,26.9 60.07,60.07zm540.63 60.07c33.18,0 60.08,-26.9 60.08,-60.07 0,-33.17 -26.9,-60.07 -60.08,-60.07 -33.18,0 -60.06,26.9 -60.06,60.07 0,33.18 26.89,60.07 60.06,60.07zm660.79 -60.07c0,33.18 -26.9,60.07 -60.07,60.07 -33.18,0 -60.06,-26.9 -60.06,-60.07 0,-33.17 26.89,-60.07 60.06,-60.07 33.18,0 60.07,26.9 60.07,60.07zm540.64 60.07c33.18,0 60.07,-26.9 60.07,-60.07 0,-33.17 -26.9,-60.07 -60.07,-60.07 -33.18,0 -60.07,26.9 -60.07,60.07 0,33.18 26.89,60.07 60.07,60.07zm660.78 -60.07c0,33.18 -26.9,60.07 -60.07,60.07 -33.18,0 -60.07,-26.9 -60.07,-60.07 0,-33.17 26.9,-60.07 60.07,-60.07 33.18,0 60.07,26.9 60.07,60.07zm540.64 60.07c33.18,0 60.07,-26.9 60.07,-60.07 0,-33.17 -26.9,-60.07 -60.07,-60.07 -33.18,0 -60.07,26.9 -60.07,60.07 0,33.18 26.9,60.07 60.07,60.07zm660.78 -60.07c0,33.18 -26.89,60.07 -60.06,60.07 -33.18,0 -60.08,-26.9 -60.08,-60.07 0,-33.17 26.9,-60.07 60.08,-60.07 33.18,0 60.06,26.9 60.06,60.07zm540.63 60.07c33.18,0 60.09,-26.9 60.09,-60.07 0,-33.17 -26.91,-60.07 -60.09,-60.07 -33.18,0 -60.06,26.9 -60.06,60.07 0,33.18 26.89,60.07 60.06,60.07zm660.79 -60.07c0,33.18 -26.89,60.07 -60.06,60.07 -33.18,0 -60.09,-26.9 -60.09,-60.07 0,-33.17 26.92,-60.07 60.09,-60.07 33.17,0 60.06,26.9 60.06,60.07zm480.58 0c0,33.04 27.02,60.07 60.06,60.07l0 -120.14c-33.04,0 -60.06,27.04 -60.06,60.07zm-7148.46 540.65c33.04,0 60.06,27.04 60.06,60.06 0,33.04 -27.02,60.07 -60.06,60.07l0 -120.14zm600.71 120.14c33.17,0 60.07,-26.9 60.07,-60.07 0,-33.18 -26.9,-60.06 -60.07,-60.06 -33.18,0 -60.07,26.89 -60.07,60.06 0,33.18 26.9,60.07 60.07,60.07zm660.78 -60.07c0,33.18 -26.9,60.07 -60.06,60.07 -33.18,0 -60.07,-26.9 -60.07,-60.07 0,-33.18 26.9,-60.06 60.07,-60.06 33.17,0 60.06,26.89 60.06,60.06zm540.64 60.07c33.18,0 60.07,-26.9 60.07,-60.07 0,-33.18 -26.9,-60.06 -60.07,-60.06 -33.17,0 -60.07,26.89 -60.07,60.06 0,33.18 26.9,60.07 60.07,60.07zm660.79 -60.07c0,33.18 -26.9,60.07 -60.08,60.07 -33.18,0 -60.06,-26.9 -60.06,-60.07 0,-33.18 26.89,-60.06 60.06,-60.06 33.18,0 60.08,26.89 60.08,60.06zm540.63 60.07c33.18,0 60.07,-26.9 60.07,-60.07 0,-33.18 -26.9,-60.06 -60.07,-60.06 -33.18,0 -60.06,26.89 -60.06,60.06 0,33.18 26.89,60.07 60.06,60.07zm660.79 -60.07c0,33.18 -26.9,60.07 -60.07,60.07 -33.18,0 -60.07,-26.9 -60.07,-60.07 0,-33.18 26.89,-60.06 60.07,-60.06 33.18,0 60.07,26.89 60.07,60.06zm540.63 60.07c33.18,0 60.07,-26.9 60.07,-60.07 0,-33.18 -26.9,-60.06 -60.07,-60.06 -33.18,0 -60.07,26.89 -60.07,60.06 0,33.18 26.9,60.07 60.07,60.07zm660.79 -60.07c0,33.18 -26.9,60.07 -60.07,60.07 -33.18,0 -60.07,-26.9 -60.07,-60.07 0,-33.18 26.9,-60.06 60.07,-60.06 33.18,0 60.07,26.89 60.07,60.06zm540.64 60.07c33.18,0 60.06,-26.9 60.06,-60.07 0,-33.18 -26.89,-60.06 -60.06,-60.06 -33.18,0 -60.08,26.89 -60.08,60.06 0,33.18 26.9,60.07 60.08,60.07zm660.78 -60.07c0,33.18 -26.91,60.07 -60.09,60.07 -33.18,0 -60.06,-26.9 -60.06,-60.07 0,-33.18 26.89,-60.06 60.06,-60.06 33.18,0 60.09,26.89 60.09,60.06zm540.65 60.07c33.17,0 60.06,-26.9 60.06,-60.07 0,-33.18 -26.89,-60.06 -60.06,-60.06 -33.18,0 -60.09,26.89 -60.09,60.06 0,33.18 26.92,60.07 60.09,60.07zm600.7 0c-33.04,0 -60.06,-27.03 -60.06,-60.07 0,-33.03 27.02,-60.06 60.06,-60.06l0 120.14zm-7148.46 540.64c0,-33.04 -27.02,-60.07 -60.06,-60.07l0 120.14c33.04,0 60.06,-27.04 60.06,-60.07zm600.71 0c0,33.18 -26.9,60.07 -60.07,60.07 -33.18,0 -60.07,-26.9 -60.07,-60.07 0,-33.18 26.9,-60.07 60.07,-60.07 33.17,0 60.07,26.89 60.07,60.07zm540.65 60.07c33.17,0 60.06,-26.9 60.06,-60.07 0,-33.18 -26.9,-60.07 -60.06,-60.07 -33.18,0 -60.07,26.89 -60.07,60.07 0,33.18 26.9,60.07 60.07,60.07zm660.78 -60.07c0,33.18 -26.9,60.07 -60.07,60.07 -33.17,0 -60.07,-26.9 -60.07,-60.07 0,-33.18 26.9,-60.07 60.07,-60.07 33.18,0 60.07,26.89 60.07,60.07zm540.63 60.07c33.18,0 60.08,-26.9 60.08,-60.07 0,-33.18 -26.9,-60.07 -60.08,-60.07 -33.18,0 -60.06,26.89 -60.06,60.07 0,33.18 26.89,60.07 60.06,60.07zm1862.2 -60.06c0,33.17 -26.89,60.06 -60.07,60.06 -33.18,0 -60.07,-26.9 -60.07,-60.06 0,-33.18 26.9,-60.08 60.07,-60.08 33.18,0 60.07,26.9 60.07,60.08zm-1261.49 60.06c33.18,0 60.07,-26.9 60.07,-60.07 0,-33.18 -26.9,-60.07 -60.07,-60.07 -33.18,0 -60.06,26.89 -60.06,60.07 0,33.18 26.89,60.07 60.06,60.07zm660.79 -60.07c0,33.18 -26.9,60.07 -60.07,60.07 -33.18,0 -60.07,-26.9 -60.07,-60.07 0,-33.18 26.89,-60.07 60.07,-60.07 33.18,0 60.07,26.89 60.07,60.07zm1141.35 60.07c33.18,0 60.07,-26.9 60.07,-60.07 0,-33.18 -26.9,-60.07 -60.07,-60.07 -33.18,0 -60.07,26.89 -60.07,60.07 0,33.18 26.9,60.07 60.07,60.07zm660.78 -60.07c0,33.18 -26.89,60.07 -60.06,60.07 -33.18,0 -60.08,-26.9 -60.08,-60.07 0,-33.18 26.9,-60.07 60.08,-60.07 33.18,0 60.06,26.89 60.06,60.07zm540.63 60.07c33.18,0 60.09,-26.9 60.09,-60.07 0,-33.18 -26.91,-60.07 -60.09,-60.07 -33.18,0 -60.06,26.89 -60.06,60.07 0,33.18 26.89,60.07 60.06,60.07zm660.79 -60.07c0,33.18 -26.89,60.07 -60.06,60.07 -33.18,0 -60.09,-26.9 -60.09,-60.07 0,-33.18 26.92,-60.07 60.09,-60.07 33.17,0 60.06,26.89 60.06,60.07zm480.58 0c0,33.04 27.02,60.07 60.06,60.07l0 -120.14c-33.04,0 -60.06,27.03 -60.06,60.07zm-7148.46 540.65c33.04,0 60.06,27.02 60.06,60.07 0,33.04 -27.02,60.07 -60.06,60.07l0 -120.14zm600.71 120.14c33.17,0 60.07,-26.9 60.07,-60.07 0,-33.18 -26.9,-60.07 -60.07,-60.07 -33.18,0 -60.07,26.89 -60.07,60.07 0,33.18 26.9,60.07 60.07,60.07zm660.78 -60.07c0,33.18 -26.9,60.07 -60.06,60.07 -33.18,0 -60.07,-26.9 -60.07,-60.07 0,-33.18 26.9,-60.07 60.07,-60.07 33.17,0 60.06,26.89 60.06,60.07zm540.64 60.07c33.18,0 60.07,-26.9 60.07,-60.07 0,-33.18 -26.9,-60.07 -60.07,-60.07 -33.17,0 -60.07,26.89 -60.07,60.07 0,33.18 26.9,60.07 60.07,60.07zm660.79 -60.07c0,33.18 -26.9,60.07 -60.08,60.07 -33.18,0 -60.06,-26.9 -60.06,-60.07 0,-33.18 26.89,-60.07 60.06,-60.07 33.18,0 60.08,26.89 60.08,60.07zm540.63 60.07c33.18,0 60.07,-26.9 60.07,-60.07 0,-33.18 -26.9,-60.07 -60.07,-60.07 -33.18,0 -60.06,26.89 -60.06,60.07 0,33.18 26.89,60.07 60.06,60.07zm660.79 -60.07c0,33.18 -26.9,60.07 -60.07,60.07 -33.18,0 -60.07,-26.9 -60.07,-60.07 0,-33.18 26.89,-60.07 60.07,-60.07 33.18,0 60.07,26.89 60.07,60.07zm540.63 60.07c33.18,0 60.07,-26.9 60.07,-60.07 0,-33.18 -26.9,-60.07 -60.07,-60.07 -33.18,0 -60.07,26.89 -60.07,60.07 0,33.18 26.9,60.07 60.07,60.07zm660.79 -60.07c0,33.18 -26.9,60.07 -60.07,60.07 -33.18,0 -60.07,-26.9 -60.07,-60.07 0,-33.18 26.9,-60.07 60.07,-60.07 33.18,0 60.07,26.89 60.07,60.07zm540.64 60.07c33.18,0 60.06,-26.9 60.06,-60.07 0,-33.18 -26.89,-60.07 -60.06,-60.07 -33.18,0 -60.08,26.89 -60.08,60.07 0,33.18 26.9,60.07 60.08,60.07zm660.78 -60.07c0,33.18 -26.91,60.07 -60.09,60.07 -33.18,0 -60.06,-26.9 -60.06,-60.07 0,-33.18 26.89,-60.07 60.06,-60.07 33.18,0 60.09,26.89 60.09,60.07zm540.65 60.07c33.17,0 60.06,-26.9 60.06,-60.07 0,-33.18 -26.89,-60.07 -60.06,-60.07 -33.18,0 -60.09,26.89 -60.09,60.07 0,33.18 26.92,60.07 60.09,60.07zm600.7 0c-33.04,0 -60.06,-27.04 -60.06,-60.07 0,-33.04 27.02,-60.07 60.06,-60.07l0 120.14zm-7148.46 540.65c0,-33.04 -27.02,-60.09 -60.06,-60.09l0 120.15c33.04,0 60.06,-27.02 60.06,-60.06zm600.71 0c0,33.18 -26.9,60.06 -60.07,60.06 -33.18,0 -60.07,-26.89 -60.07,-60.06 0,-33.18 26.9,-60.09 60.07,-60.09 33.17,0 60.07,26.91 60.07,60.09zm540.65 60.06c33.17,0 60.06,-26.89 60.06,-60.06 0,-33.18 -26.9,-60.09 -60.06,-60.09 -33.18,0 -60.07,26.91 -60.07,60.09 0,33.18 26.9,60.06 60.07,60.06zm660.78 -60.06c0,33.18 -26.9,60.06 -60.07,60.06 -33.17,0 -60.07,-26.89 -60.07,-60.06 0,-33.18 26.9,-60.09 60.07,-60.09 33.18,0 60.07,26.91 60.07,60.09zm540.63 60.06c33.18,0 60.08,-26.89 60.08,-60.06 0,-33.18 -26.9,-60.09 -60.08,-60.09 -33.18,0 -60.06,26.91 -60.06,60.09 0,33.18 26.89,60.06 60.06,60.06zm660.79 -60.06c0,33.18 -26.9,60.06 -60.07,60.06 -33.18,0 -60.06,-26.89 -60.06,-60.06 0,-33.18 26.89,-60.09 60.06,-60.09 33.18,0 60.07,26.91 60.07,60.09zm540.64 60.06c33.18,0 60.07,-26.89 60.07,-60.06 0,-33.18 -26.9,-60.09 -60.07,-60.09 -33.18,0 -60.07,26.91 -60.07,60.09 0,33.18 26.89,60.06 60.07,60.06zm660.78 -60.06c0,33.18 -26.9,60.06 -60.07,60.06 -33.18,0 -60.07,-26.89 -60.07,-60.06 0,-33.18 26.9,-60.09 60.07,-60.09 33.18,0 60.07,26.91 60.07,60.09zm540.64 60.06c33.18,0 60.07,-26.89 60.07,-60.06 0,-33.18 -26.9,-60.09 -60.07,-60.09 -33.18,0 -60.07,26.91 -60.07,60.09 0,33.18 26.9,60.06 60.07,60.06zm660.78 -60.06c0,33.18 -26.89,60.06 -60.06,60.06 -33.18,0 -60.08,-26.89 -60.08,-60.06 0,-33.18 26.9,-60.09 60.08,-60.09 33.18,0 60.06,26.91 60.06,60.09zm540.63 60.06c33.18,0 60.09,-26.89 60.09,-60.06 0,-33.18 -26.91,-60.09 -60.09,-60.09 -33.18,0 -60.06,26.91 -60.06,60.09 0,33.18 26.89,60.06 60.06,60.06zm660.79 -60.06c0,33.18 -26.89,60.06 -60.06,60.06 -33.18,0 -60.09,-26.89 -60.09,-60.06 0,-33.18 26.92,-60.09 60.09,-60.09 33.17,0 60.06,26.91 60.06,60.09zm480.58 0c0,33.04 27.02,60.06 60.06,60.06l0 -120.15c-33.04,0 -60.06,27.04 -60.06,60.09zm-7148.46 540.63c33.04,0 60.06,27.02 60.06,60.07 0,33.04 -27.02,60.06 -60.06,60.06l0 -120.13zm600.71 120.13c33.17,0 60.07,-26.89 60.07,-60.06 0,-33.18 -26.9,-60.07 -60.07,-60.07 -33.18,0 -60.07,26.89 -60.07,60.07 0,33.18 26.9,60.06 60.07,60.06zm660.78 -60.06c0,33.18 -26.9,60.06 -60.06,60.06 -33.18,0 -60.07,-26.89 -60.07,-60.06 0,-33.18 26.9,-60.07 60.07,-60.07 33.17,0 60.06,26.89 60.06,60.07zm540.64 60.06c33.18,0 60.07,-26.89 60.07,-60.06 0,-33.18 -26.9,-60.07 -60.07,-60.07 -33.17,0 -60.07,26.89 -60.07,60.07 0,33.18 26.9,60.06 60.07,60.06zm660.79 -60.06c0,33.18 -26.9,60.06 -60.08,60.06 -33.18,0 -60.06,-26.89 -60.06,-60.06 0,-33.18 26.89,-60.07 60.06,-60.07 33.18,0 60.08,26.89 60.08,60.07zm540.63 60.06c33.18,0 60.07,-26.89 60.07,-60.06 0,-33.18 -26.9,-60.07 -60.07,-60.07 -33.18,0 -60.06,26.89 -60.06,60.07 0,33.18 26.89,60.06 60.06,60.06zm660.79 -60.06c0,33.18 -26.9,60.06 -60.07,60.06 -33.18,0 -60.07,-26.89 -60.07,-60.06 0,-33.18 26.89,-60.07 60.07,-60.07 33.18,0 60.07,26.89 60.07,60.07zm540.63 60.06c33.18,0 60.07,-26.89 60.07,-60.06 0,-33.18 -26.9,-60.07 -60.07,-60.07 -33.18,0 -60.07,26.89 -60.07,60.07 0,33.18 26.9,60.06 60.07,60.06zm660.79 -60.06c0,33.18 -26.9,60.06 -60.07,60.06 -33.18,0 -60.07,-26.89 -60.07,-60.06 0,-33.18 26.9,-60.07 60.07,-60.07 33.18,0 60.07,26.89 60.07,60.07zm540.64 60.06c33.18,0 60.06,-26.89 60.06,-60.06 0,-33.18 -26.89,-60.07 -60.06,-60.07 -33.18,0 -60.08,26.89 -60.08,60.07 0,33.18 26.9,60.06 60.08,60.06zm660.78 -60.06c0,33.18 -26.91,60.06 -60.09,60.06 -33.18,0 -60.06,-26.89 -60.06,-60.06 0,-33.18 26.89,-60.07 60.06,-60.07 33.18,0 60.09,26.89 60.09,60.07zm540.65 60.06c33.17,0 60.06,-26.89 60.06,-60.06 0,-33.18 -26.89,-60.07 -60.06,-60.07 -33.18,0 -60.09,26.89 -60.09,60.07 0,33.18 26.92,60.06 60.09,60.06zm600.7 0c-33.04,0 -60.06,-27.02 -60.06,-60.06 0,-33.04 27.02,-60.07 60.06,-60.07l0 120.13zm-7148.46 540.64c0,-33.04 -27.02,-60.07 -60.06,-60.07l0 120.15c33.04,0 60.06,-27.04 60.06,-60.08zm600.71 0c0,33.18 -26.9,60.08 -60.07,60.08 -33.18,0 -60.07,-26.91 -60.07,-60.08 0,-33.18 26.9,-60.07 60.07,-60.07 33.17,0 60.07,26.89 60.07,60.07zm540.65 60.08c33.17,0 60.06,-26.91 60.06,-60.08 0,-33.18 -26.9,-60.07 -60.06,-60.07 -33.18,0 -60.07,26.89 -60.07,60.07 0,33.18 26.9,60.08 60.07,60.08zm660.78 -60.08c0,33.18 -26.9,60.08 -60.07,60.08 -33.17,0 -60.07,-26.91 -60.07,-60.08 0,-33.18 26.9,-60.07 60.07,-60.07 33.18,0 60.07,26.89 60.07,60.07zm540.63 60.08c33.18,0 60.08,-26.91 60.08,-60.08 0,-33.18 -26.9,-60.07 -60.08,-60.07 -33.18,0 -60.06,26.89 -60.06,60.07 0,33.18 26.89,60.08 60.06,60.08zm660.79 -60.08c0,33.18 -26.9,60.08 -60.07,60.08 -33.18,0 -60.06,-26.91 -60.06,-60.08 0,-33.18 26.89,-60.07 60.06,-60.07 33.18,0 60.07,26.89 60.07,60.07zm540.64 60.08c33.18,0 60.07,-26.91 60.07,-60.08 0,-33.18 -26.9,-60.07 -60.07,-60.07 -33.18,0 -60.07,26.89 -60.07,60.07 0,33.18 26.89,60.08 60.07,60.08zm660.78 -60.08c0,33.18 -26.9,60.08 -60.07,60.08 -33.18,0 -60.07,-26.91 -60.07,-60.08 0,-33.18 26.9,-60.07 60.07,-60.07 33.18,0 60.07,26.89 60.07,60.07zm540.64 60.08c33.18,0 60.07,-26.91 60.07,-60.08 0,-33.18 -26.9,-60.07 -60.07,-60.07 -33.18,0 -60.07,26.89 -60.07,60.07 0,33.18 26.9,60.08 60.07,60.08zm660.78 -60.08c0,33.18 -26.89,60.08 -60.06,60.08 -33.18,0 -60.08,-26.91 -60.08,-60.08 0,-33.18 26.9,-60.07 60.08,-60.07 33.18,0 60.06,26.89 60.06,60.07zm540.63 60.08c33.18,0 60.09,-26.91 60.09,-60.08 0,-33.18 -26.91,-60.07 -60.09,-60.07 -33.18,0 -60.06,26.89 -60.06,60.07 0,33.18 26.89,60.08 60.06,60.08zm660.79 -60.08c0,33.18 -26.89,60.08 -60.06,60.08 -33.18,0 -60.09,-26.91 -60.09,-60.08 0,-33.18 26.92,-60.07 60.09,-60.07 33.17,0 60.06,26.89 60.06,60.07zm480.58 0c0,33.04 27.02,60.08 60.06,60.08l0 -120.15c-33.04,0 -60.06,27.02 -60.06,60.07zm-7148.46 540.63c33.04,0 60.06,27.06 60.06,60.1 0,33.03 -27.02,60.05 -60.06,60.05l0 -120.15zm600.71 120.15c33.17,0 60.07,-26.87 60.07,-60.05 0,-33.18 -26.9,-60.1 -60.07,-60.1 -33.18,0 -60.07,26.92 -60.07,60.1 0,33.18 26.9,60.05 60.07,60.05zm660.78 -60.05c0,33.18 -26.9,60.05 -60.06,60.05 -33.18,0 -60.07,-26.87 -60.07,-60.05 0,-33.18 26.9,-60.1 60.07,-60.1 33.17,0 60.06,26.92 60.06,60.1zm540.64 60.05c33.18,0 60.07,-26.87 60.07,-60.05 0,-33.18 -26.9,-60.1 -60.07,-60.1 -33.17,0 -60.07,26.92 -60.07,60.1 0,33.18 26.9,60.05 60.07,60.05zm660.79 -60.05c0,33.18 -26.9,60.05 -60.08,60.05 -33.18,0 -60.06,-26.87 -60.06,-60.05 0,-33.18 26.89,-60.1 60.06,-60.1 33.18,0 60.08,26.92 60.08,60.1zm540.63 60.05c33.18,0 60.07,-26.87 60.07,-60.05 0,-33.18 -26.9,-60.1 -60.07,-60.1 -33.18,0 -60.06,26.92 -60.06,60.1 0,33.18 26.89,60.05 60.06,60.05zm660.79 -60.05c0,33.18 -26.9,60.05 -60.07,60.05 -33.18,0 -60.07,-26.87 -60.07,-60.05 0,-33.18 26.89,-60.1 60.07,-60.1 33.18,0 60.07,26.92 60.07,60.1zm540.63 60.05c33.18,0 60.07,-26.87 60.07,-60.05 0,-33.18 -26.9,-60.1 -60.07,-60.1 -33.18,0 -60.07,26.92 -60.07,60.1 0,33.18 26.9,60.05 60.07,60.05zm660.79 -60.05c0,33.18 -26.9,60.05 -60.07,60.05 -33.18,0 -60.07,-26.87 -60.07,-60.05 0,-33.18 26.9,-60.1 60.07,-60.1 33.18,0 60.07,26.92 60.07,60.1zm540.64 60.05c33.18,0 60.06,-26.87 60.06,-60.05 0,-33.18 -26.89,-60.1 -60.06,-60.1 -33.18,0 -60.08,26.92 -60.08,60.1 0,33.18 26.9,60.05 60.08,60.05zm660.78 -60.05c0,33.18 -26.91,60.05 -60.09,60.05 -33.18,0 -60.06,-26.87 -60.06,-60.05 0,-33.18 26.89,-60.1 60.06,-60.1 33.18,0 60.09,26.92 60.09,60.1zm540.65 60.05c33.17,0 60.06,-26.87 60.06,-60.05 0,-33.18 -26.89,-60.1 -60.06,-60.1 -33.18,0 -60.09,26.92 -60.09,60.1 0,33.18 26.92,60.05 60.09,60.05zm600.7 0c-33.04,0 -60.06,-27.02 -60.06,-60.05 0,-33.04 27.02,-60.1 60.06,-60.1l0 120.15zm-7148.46 540.65c0,-33.04 -27.02,-60.07 -60.06,-60.07l0 120.12c33.04,0 60.06,-27.02 60.06,-60.05zm600.71 0c0,33.18 -26.9,60.05 -60.07,60.05 -33.18,0 -60.07,-26.87 -60.07,-60.05 0,-33.18 26.9,-60.07 60.07,-60.07 33.17,0 60.07,26.89 60.07,60.07zm540.65 60.05c33.17,0 60.06,-26.87 60.06,-60.05 0,-33.18 -26.9,-60.07 -60.06,-60.07 -33.18,0 -60.07,26.89 -60.07,60.07 0,33.18 26.9,60.05 60.07,60.05zm660.78 -60.05c0,33.18 -26.9,60.05 -60.07,60.05 -33.17,0 -60.07,-26.87 -60.07,-60.05 0,-33.18 26.9,-60.07 60.07,-60.07 33.18,0 60.07,26.89 60.07,60.07zm540.63 60.05c33.18,0 60.08,-26.87 60.08,-60.05 0,-33.18 -26.9,-60.07 -60.08,-60.07 -33.18,0 -60.06,26.89 -60.06,60.07 0,33.18 26.89,60.05 60.06,60.05zm660.79 -60.05c0,33.18 -26.9,60.05 -60.07,60.05 -33.18,0 -60.06,-26.87 -60.06,-60.05 0,-33.18 26.89,-60.07 60.06,-60.07 33.18,0 60.07,26.89 60.07,60.07zm540.64 60.05c33.18,0 60.07,-26.87 60.07,-60.05 0,-33.18 -26.9,-60.07 -60.07,-60.07 -33.18,0 -60.07,26.89 -60.07,60.07 0,33.18 26.89,60.05 60.07,60.05zm660.78 -60.05c0,33.18 -26.9,60.05 -60.07,60.05 -33.18,0 -60.07,-26.87 -60.07,-60.05 0,-33.18 26.9,-60.07 60.07,-60.07 33.18,0 60.07,26.89 60.07,60.07zm540.64 60.05c33.18,0 60.07,-26.87 60.07,-60.05 0,-33.18 -26.9,-60.07 -60.07,-60.07 -33.18,0 -60.07,26.89 -60.07,60.07 0,33.18 26.9,60.05 60.07,60.05zm660.78 -60.05c0,33.18 -26.89,60.05 -60.06,60.05 -33.18,0 -60.08,-26.87 -60.08,-60.05 0,-33.18 26.9,-60.07 60.08,-60.07 33.18,0 60.06,26.89 60.06,60.07zm540.63 60.05c33.18,0 60.09,-26.87 60.09,-60.05 0,-33.18 -26.91,-60.07 -60.09,-60.07 -33.18,0 -60.06,26.89 -60.06,60.07 0,33.18 26.89,60.05 60.06,60.05zm660.79 -60.05c0,33.18 -26.89,60.05 -60.06,60.05 -33.18,0 -60.09,-26.87 -60.09,-60.05 0,-33.18 26.92,-60.07 60.09,-60.07 33.17,0 60.06,26.89 60.06,60.07zm480.58 0c0,33.03 27.02,60.05 60.06,60.05l0 -120.12c-33.04,0 -60.06,27.02 -60.06,60.07zm-7148.46 540.63c33.04,0 60.06,27.02 60.06,60.06 0,33.03 -27.02,60.09 -60.06,60.09l0 -120.15zm600.71 120.15c33.17,0 60.07,-26.91 60.07,-60.09 0,-33.18 -26.9,-60.06 -60.07,-60.06 -33.18,0 -60.07,26.89 -60.07,60.06 0,33.18 26.9,60.09 60.07,60.09zm660.78 -60.09c0,33.18 -26.9,60.09 -60.06,60.09 -33.18,0 -60.07,-26.91 -60.07,-60.09 0,-33.18 26.9,-60.06 60.07,-60.06 33.17,0 60.06,26.89 60.06,60.06zm540.64 60.09c33.18,0 60.07,-26.91 60.07,-60.09 0,-33.18 -26.9,-60.06 -60.07,-60.06 -33.17,0 -60.07,26.89 -60.07,60.06 0,33.18 26.9,60.09 60.07,60.09zm660.79 -60.09c0,33.18 -26.9,60.09 -60.08,60.09 -33.18,0 -60.06,-26.91 -60.06,-60.09 0,-33.18 26.89,-60.06 60.06,-60.06 33.18,0 60.08,26.89 60.08,60.06zm540.63 60.09c33.18,0 60.07,-26.91 60.07,-60.09 0,-33.18 -26.9,-60.06 -60.07,-60.06 -33.18,0 -60.06,26.89 -60.06,60.06 0,33.18 26.89,60.09 60.06,60.09zm660.79 -60.09c0,33.18 -26.9,60.09 -60.07,60.09 -33.18,0 -60.07,-26.91 -60.07,-60.09 0,-33.18 26.89,-60.06 60.07,-60.06 33.18,0 60.07,26.89 60.07,60.06zm540.63 60.09c33.18,0 60.07,-26.91 60.07,-60.09 0,-33.18 -26.9,-60.06 -60.07,-60.06 -33.18,0 -60.07,26.89 -60.07,60.06 0,33.18 26.9,60.09 60.07,60.09zm660.79 -60.09c0,33.18 -26.9,60.09 -60.07,60.09 -33.18,0 -60.07,-26.91 -60.07,-60.09 0,-33.18 26.9,-60.06 60.07,-60.06 33.18,0 60.07,26.89 60.07,60.06zm540.64 60.09c33.18,0 60.06,-26.91 60.06,-60.09 0,-33.18 -26.89,-60.06 -60.06,-60.06 -33.18,0 -60.08,26.89 -60.08,60.06 0,33.18 26.9,60.09 60.08,60.09zm660.78 -60.09c0,33.18 -26.91,60.09 -60.09,60.09 -33.18,0 -60.06,-26.91 -60.06,-60.09 0,-33.18 26.89,-60.06 60.06,-60.06 33.18,0 60.09,26.89 60.09,60.06zm540.65 60.09c33.17,0 60.06,-26.91 60.06,-60.09 0,-33.18 -26.89,-60.06 -60.06,-60.06 -33.18,0 -60.09,26.89 -60.09,60.06 0,33.18 26.92,60.09 60.09,60.09zm600.7 0c-33.04,0 -60.06,-27.06 -60.06,-60.09 0,-33.04 27.02,-60.06 60.06,-60.06l0 120.15zm-7148.46 540.64c0,-33.03 -27.02,-60.09 -60.06,-60.09l0 120.15c33.04,0 60.06,-27.02 60.06,-60.06zm600.71 0c0,33.18 -26.9,60.06 -60.07,60.06 -33.18,0 -60.07,-26.89 -60.07,-60.06 0,-33.17 26.9,-60.09 60.07,-60.09 33.17,0 60.07,26.92 60.07,60.09zm540.65 60.06c33.17,0 60.06,-26.89 60.06,-60.06 0,-33.17 -26.9,-60.09 -60.06,-60.09 -33.18,0 -60.07,26.92 -60.07,60.09 0,33.18 26.9,60.06 60.07,60.06zm660.78 -60.06c0,33.18 -26.9,60.06 -60.07,60.06 -33.17,0 -60.07,-26.89 -60.07,-60.06 0,-33.17 26.9,-60.09 60.07,-60.09 33.18,0 60.07,26.92 60.07,60.09zm540.63 60.06c33.18,0 60.08,-26.89 60.08,-60.06 0,-33.17 -26.9,-60.09 -60.08,-60.09 -33.18,0 -60.06,26.92 -60.06,60.09 0,33.18 26.89,60.06 60.06,60.06zm660.79 -60.06c0,33.18 -26.9,60.06 -60.07,60.06 -33.18,0 -60.06,-26.89 -60.06,-60.06 0,-33.17 26.89,-60.09 60.06,-60.09 33.18,0 60.07,26.92 60.07,60.09zm540.64 60.06c33.18,0 60.07,-26.89 60.07,-60.06 0,-33.17 -26.9,-60.09 -60.07,-60.09 -33.18,0 -60.07,26.92 -60.07,60.09 0,33.18 26.89,60.06 60.07,60.06zm660.78 -60.06c0,33.18 -26.9,60.06 -60.07,60.06 -33.18,0 -60.07,-26.89 -60.07,-60.06 0,-33.17 26.9,-60.09 60.07,-60.09 33.18,0 60.07,26.92 60.07,60.09zm540.64 60.06c33.18,0 60.07,-26.89 60.07,-60.06 0,-33.17 -26.9,-60.09 -60.07,-60.09 -33.18,0 -60.07,26.92 -60.07,60.09 0,33.18 26.9,60.06 60.07,60.06zm660.78 -60.06c0,33.18 -26.89,60.06 -60.06,60.06 -33.18,0 -60.08,-26.89 -60.08,-60.06 0,-33.17 26.9,-60.09 60.08,-60.09 33.18,0 60.06,26.92 60.06,60.09zm540.63 60.06c33.18,0 60.09,-26.89 60.09,-60.06 0,-33.17 -26.91,-60.09 -60.09,-60.09 -33.18,0 -60.06,26.92 -60.06,60.09 0,33.18 26.89,60.06 60.06,60.06zm660.79 -60.06c0,33.18 -26.89,60.06 -60.06,60.06 -33.18,0 -60.09,-26.89 -60.09,-60.06 0,-33.17 26.92,-60.09 60.09,-60.09 33.17,0 60.06,26.92 60.06,60.09zm480.58 0c0,33.04 27.02,60.06 60.06,60.06l0 -120.15c-33.04,0 -60.06,27.06 -60.06,60.09zm-7148.46 600.7l0 -60.06c33.04,0 60.06,27.02 60.06,60.06l-60.06 0zm600.71 -60.06c-33.04,0 -60.07,27.02 -60.07,60.06l120.14 0c0,-33.03 -27.04,-60.06 -60.07,-60.06zm540.64 60.06c0,-33.03 27.04,-60.06 60.07,-60.06 33.03,0 60.06,27.02 60.06,60.06l-120.14 0zm660.78 -60.06c-33.03,0 -60.07,27.02 -60.07,60.06l120.14 0c0,-33.03 -27.04,-60.06 -60.07,-60.06zm540.65 60.06c0,-33.03 27.02,-60.06 60.06,-60.06 33.04,0 60.08,27.02 60.08,60.06l-120.14 0zm660.78 -60.06c-33.04,0 -60.06,27.02 -60.06,60.06l120.14 0c0,-33.03 -27.04,-60.06 -60.07,-60.06zm540.65 60.06c0,-33.03 27.02,-60.06 60.07,-60.06 33.04,0 60.07,27.02 60.07,60.06l-120.14 0zm660.78 -60.06c-33.04,0 -60.07,27.02 -60.07,60.06l120.15 0c0,-33.03 -27.03,-60.06 -60.07,-60.06zm540.64 60.06c0,-33.03 27.04,-60.06 60.07,-60.06 33.04,0 60.07,27.02 60.07,60.06l-120.15 0zm660.79 -60.06c-33.04,0 -60.08,27.02 -60.08,60.06l120.14 0c0,-33.03 -27.02,-60.06 -60.06,-60.06zm540.63 60.06c0,-33.03 27.02,-60.06 60.06,-60.06 33.04,0 60.09,27.02 60.09,60.06l-120.15 0zm660.8 -60.06c-33.04,0 -60.09,27.02 -60.09,60.06l120.15 0c0,-33.03 -27.02,-60.06 -60.06,-60.06zm540.64 60.06c0,-33.03 27.02,-60.06 60.06,-60.06l0 60.06 -60.06 0z"/>
   </g>
  </g>
  <path class="fil1" d="M3133.98 0c1730.85,0 3133.98,1403.13 3133.98,3133.98 0,1730.85 -1403.13,3133.98 -3133.98,3133.98 -1730.85,0 -3133.98,-1403.13 -3133.98,-3133.98 0,-1730.85 1403.13,-3133.98 3133.98,-3133.98z"/>
 </g>
</svg>
