<?xml version="1.0" encoding="UTF-8"?>
<!DOCTYPE svg PUBLIC "-//W3C//DTD SVG 1.0//EN" "http://www.w3.org/TR/2001/REC-SVG-20010904/DTD/svg10.dtd">
<!-- Creator: CorelDRAW 2019 (64-Bit) -->
<svg xmlns="http://www.w3.org/2000/svg" xml:space="preserve" width="0.822917in" height="0.633075in" version="1.0" style="shape-rendering:geometricPrecision; text-rendering:geometricPrecision; image-rendering:optimizeQuality; fill-rule:evenodd; clip-rule:evenodd"
viewBox="0 0 822.91 633.07"
 xmlns:xlink="http://www.w3.org/1999/xlink"
 xmlns:xodm="http://www.corel.com/coreldraw/odm/2003">
 <defs>
  <style type="text/css">
   <![CDATA[
    .fil2 {fill:none}
    .fil0 {fill:#4DA971}
    .fil1 {fill:#FEFEFE}
   ]]>
  </style>
   <clipPath id="id0">
    <path d="M-0 0l822.91 0 0 633.07 -822.91 0 0 -633.07z"/>
   </clipPath>
 </defs>
 <g id="Layer_x0020_1">
  <metadata id="CorelCorpID_0Corel-Layer"/>
  <g>
  </g>
  <g style="clip-path:url(#id0)">
   <g>
    <g id="_1920487171152">
     <path class="fil0" d="M212.95 324.4l0 84.93c0,26.61 5.63,20.59 56.69,20.59 -0.54,21.66 4.32,14.74 -61.07,14.7 -57.81,-0.04 -52.54,-10.9 -52.63,68.52 -0.1,86.8 -19.5,73.89 99.81,73.51l374.32 0c33.68,0 36.91,5.06 36.91,-29.47 -0,-40.1 2,-72.61 -3.04,-111.09l-100.17 -1.41c-10.41,-2.24 -6.46,1.69 -10.52,-7.04 5.17,-12.34 -9.17,-5.44 13.52,-8.12 49.66,-5.85 43.18,32.1 43.18,-105.12 -0,-32.3 -26.89,-21.84 -56.48,-22.24 1.23,101.67 15.66,85.56 -99.57,85.82l-157.28 0c-34.07,0.1 -27.3,-11.45 -27.38,-66.72l0.11 -18.97c-29.36,0.11 -56.42,-10.05 -56.42,22.12z"/>
     <path class="fil0" d="M13.54 421.56c14.22,17.09 34.02,3.83 71.51,9.56l0.05 169.16c-5.92,0.53 -64.39,-3.52 -34.65,29.23l97.38 0c26.58,-28.68 -9.02,-28.73 -34.94,-28.41l-0.04 -171.13c22.66,-0.12 54.9,3.63 69.54,-5.68 6.04,-29.87 1.76,-257.65 1.7,-320.1 -0.03,-23.68 6.07,-85.84 -7.82,-100.66l-162.72 0 0 418.01z"/>
     <path class="fil0" d="M675.09 629.52l97.38 0c8.63,-9.56 9.9,-11.02 5.05,-24.68 -10.82,-4.24 -25.63,-3.25 -39.7,-4.55l-0.05 -169.27c38.18,-5.3 57.6,7.36 71.61,-9.46l0 -418.01 -162.72 0c-13.84,14.76 -7.82,77.05 -7.81,100.66 0.04,48.28 -4.07,311.01 1.9,319.83 14.02,9.83 46.98,5.91 69.33,5.93l-0.2 171.14c-25.33,-0.3 -61.98,0.05 -34.79,28.41z"/>
     <polygon class="fil0" points="298.25,359.33 524.65,359.21 524.69,302.23 298.17,302.27 "/>
     <path class="fil1" d="M233.73 530.29c46.5,0 235.29,2.81 257.61,-2.15 6.73,-12.11 7.24,-11.02 1.55,-24.92 -52.88,-4.71 -188.61,-1.83 -249.73,-1.93 -15.13,0 -26.93,-2.81 -30.19,9.92 -3.8,14.81 7.41,19.08 20.76,19.07z"/>
     <path class="fil1" d="M713.73 61.4c-53.34,12.89 -36.91,94.14 19.47,83.26 55.11,-10.63 36.65,-96.83 -19.47,-83.26z"/>
     <path class="fil1" d="M714.85 175.32c-55.61,13.7 -37.4,93.91 18.74,83.36 54.73,-10.28 35.55,-96.74 -18.74,-83.36z"/>
     <path class="fil1" d="M88.24 61.78c-54.61,13.66 -34.34,99.51 24.56,81.96 47.99,-14.3 31.33,-95.94 -24.56,-81.96z"/>
     <path class="fil1" d="M89.49 175.7c-56.18,15.45 -35.42,99.8 23.84,81.94 46.94,-14.14 30.07,-96.76 -23.84,-81.94z"/>
     <path class="fil1" d="M90.73 289.66c-60.58,14.4 -33.72,98.08 20.54,82.05 51.76,-15.29 31.74,-94.47 -20.54,-82.05z"/>
     <path class="fil1" d="M716 289.18c-58.12,14.07 -37.12,93.52 16.13,83.56 51.68,-9.66 39.13,-96.94 -16.13,-83.56z"/>
     <path class="fil1" d="M297.43 440.79c10.44,8.55 100.87,3.83 115.59,3.83 19.93,-0 39.85,-0 59.77,0 9.52,0 18.96,0.02 28.48,0.17 25.44,0.41 24.1,-0.03 24.15,-7.15 -3.36,-11.06 -4.59,-8.11 -20.9,-8l-94.65 0.3c-19.92,0 -39.84,0.02 -59.76,0 -10.66,-0.01 -21.13,-0.19 -31.75,-0.31 -19.93,-0.24 -18.77,-3.27 -20.94,11.16z"/>
     <path class="fil0" d="M206.46 629.52l69 0c35.59,-39.54 -55.67,-30.56 -73.83,-25.72 -4.07,13.82 -2.95,17.2 4.83,25.72z"/>
     <path class="fil0" d="M547.45 629.52l69 0c7.64,-8.54 8.91,-11.83 4.93,-25.72 -18.19,-4.78 -110.25,-13.48 -73.93,25.72z"/>
     <path class="fil1" d="M534.03 503.92c-0.65,0.35 -16.47,4.9 -6.42,20.02 4.32,6.5 14.12,8.19 21.15,2.39 9.73,-8.03 4.14,-32.49 -14.73,-22.41z"/>
     <path class="fil1" d="M605.03 528.3c5.85,-9.57 8.07,-34.15 -14.01,-25.96 -15.06,5.58 -14.05,31.09 14.01,25.96z"/>
     <path class="fil0" d="M714.45 320.7c-14.59,13.98 6.13,33.86 19.72,19.65 11.9,-12.44 -6.39,-32.43 -19.72,-19.65z"/>
     <path class="fil0" d="M735.41 228.42c6.41,-22.99 -10.5,-33.16 -21.84,-21.84 -11.23,11.2 -1.61,28.49 21.84,21.84z"/>
     <path class="fil0" d="M87.5 228.42c23.13,6.87 33.07,-10.53 21.78,-21.76 -11.64,-11.58 -28.14,-0.98 -21.78,21.76z"/>
     <path class="fil0" d="M87.79 114.74c8.6,2.12 15.04,1.7 22.35,-1.87 4.01,-13.89 3.91,-24.21 -11.54,-23.58 -16.12,0.65 -14.27,13.53 -10.82,25.45z"/>
     <path class="fil0" d="M712.59 113c7.46,3.39 13.98,3.85 22.45,1.66 3.4,-11.3 5.65,-22.59 -8.27,-25.15 -16.47,-3.03 -17.88,9.39 -14.18,23.48z"/>
     <path class="fil0" d="M89.99 322.5c-15.19,15.85 9.18,28.5 19.17,18.85 6.19,-5.99 5.86,-26.27 -10.38,-24.18 -14.43,1.85 -5.85,2.27 -8.79,5.33z"/>
    </g>
   </g>
  </g>
  <polygon class="fil2" points="-0,0 822.91,0 822.91,633.07 -0,633.07 "/>
 </g>
</svg>
