<?xml version="1.0" encoding="UTF-8"?>
<!DOCTYPE svg PUBLIC "-//W3C//DTD SVG 1.0//EN" "http://www.w3.org/TR/2001/REC-SVG-20010904/DTD/svg10.dtd">
<!-- Creator: CorelDRAW 2019 (64-Bit) -->
<svg xmlns="http://www.w3.org/2000/svg" xml:space="preserve" width="0.822917in" height="0.633075in" version="1.0" style="shape-rendering:geometricPrecision; text-rendering:geometricPrecision; image-rendering:optimizeQuality; fill-rule:evenodd; clip-rule:evenodd"
viewBox="0 0 822.91 633.07"
 xmlns:xlink="http://www.w3.org/1999/xlink"
 xmlns:xodm="http://www.corel.com/coreldraw/odm/2003">
 <defs>
  <style type="text/css">
   <![CDATA[
    .fil1 {fill:none}
    .fil0 {fill:#4DA971}
   ]]>
  </style>
   <clipPath id="id0">
    <path d="M-0 0l822.91 0 0 633.07 -822.91 0 0 -633.07z"/>
   </clipPath>
 </defs>
 <g id="Layer_x0020_1">
  <metadata id="CorelCorpID_0Corel-Layer"/>
  <g>
  </g>
  <g style="clip-path:url(#id0)">
   <g>
    <g id="_1920658346544">
     <path class="fil0" d="M143.05 562.74c6.79,0.29 17.28,-1.92 17.44,6.43 0.17,8.91 -10.23,6.47 -17.64,6.88 -1.04,11.54 -1.32,25.55 4.82,33.19 7.24,9.01 16.1,8.37 30.65,8.37l388.44 0c25.97,0 51.99,0.15 77.96,0 12.53,-0.07 22.11,-5.08 27.44,-11.59 7.94,-9.7 8.33,-15.59 8.15,-30.89 -7.22,1.58 -21.56,3.18 -21.49,-5.95 0.07,-8.78 14.44,-7.18 21.4,-5.58 0.83,-12.03 0.11,-53.17 0.11,-68.36l0 -276.89c-0.1,-21.41 -12.69,-35.62 -27.31,-41.85 -14.79,-6.3 -46.57,-3.13 -65.43,-3.59 -22.81,-0.56 -46.33,-0.02 -69.22,-0.02 -92.36,0 -184.38,-0.01 -276.88,0 -16.97,0 -53.39,-1.13 -67.05,2.05 -15.76,3.67 -29.63,20.05 -31.51,37.67 -0.83,7.84 -0.24,56.89 -0.24,68.93 0,12.83 -1.78,58.77 1.98,67.25 3.25,7.32 10.58,12.94 20.85,13.14 32.73,0.63 70.98,-0.02 104.18,-0 35.31,0.02 28.44,-21.01 30.01,-38.74 1.59,-17.94 16.2,-32.74 32.15,-37.32 12.33,-3.54 52.06,-1.76 67.54,-1.76 23.07,0 46.15,0 69.22,0 10.19,0 23.35,-1.59 31.77,2.64 7.31,3.67 12.38,11.43 12,23.01 -0.74,22.61 -0.09,46.36 -0.09,69.22 0,23.07 0,46.15 0,69.22 0,8.46 1.13,25.85 -1.52,32.78 -2.94,7.67 -10.23,13.89 -20.62,14.25 -22.53,0.78 -46.56,0.01 -69.25,0.01l-241.93 0c-12.61,0 -21.09,-1.49 -29.02,5.93 -8.05,7.53 -7.28,13.51 -7.28,27 0,7.03 -0.9,29.29 0.34,34.56zm33.93 -327.62l92.07 0 0.67 0c9.97,0 11.7,-13.26 -1.34,-13.26l-91.4 0c-10.93,0 -10.77,13.26 0,13.26zm-4.14 16.58c-3.3,1.52 -5.44,5.89 -2.69,9.74 2.64,3.69 7.65,2.82 12.87,2.82 13.71,-0.01 87.37,0.6 90.35,-0.5 3.88,-1.43 5.32,-6.64 2.72,-10.12 -2.49,-3.34 -8.21,-2.67 -13.09,-2.66 -13.87,0.01 -86.89,-0.79 -90.16,0.72zm0.75 28.96c-3.61,1.25 -6.02,5.26 -3.81,9.4 2.29,4.3 6.96,3.43 11.91,3.43 13.84,-0.04 88.52,0.62 91.49,-0.45 3.16,-1.13 5.61,-5.1 3.66,-9.15 -2.03,-4.21 -6.43,-3.68 -11.81,-3.67 -14,0.04 -88.27,-0.66 -91.43,0.44zm101.46 40.74l1.24 -1.74c1.29,-2.06 1.67,-4.09 0.66,-6.33 -1.19,-2.63 -4.04,-3.91 -7.31,-3.96l-6.09 -0.01 -10.02 0.09c-12.35,-0.77 -60.14,-0.48 -76.56,-0.13 -10.59,0.22 -9.7,11.3 -3.13,13.01 5.38,1.41 42.34,0.29 50.87,0.29 11.04,0 42.82,1.35 50.35,-1.22zm284.69 -16.22c2.18,1.11 3.62,2.48 6.17,4.09l4.46 2.95c1.16,0.83 0.8,0.39 1.52,1.32 5.36,0.75 11.04,4.36 19.72,5.02 54.33,4.15 79.09,-65.91 33.86,-96.37 -45.84,-30.87 -102.25,21.12 -76.52,68.44 3.06,5.62 5.33,8.32 9.41,12.76 1.2,1.31 0.53,0.12 1.37,1.79zm45.47 144.04l5.82 -4.66c3.7,-6.55 2.93,-18.85 -2.46,-22.71 -4.63,-3.32 -20.09,-3.24 -24.83,-0.35 -7.46,4.54 -5.37,19.56 -3.05,22.89 5.37,7.73 14.85,4.36 24.52,4.83zm16.82 -13.84c-0.14,2.36 -0.32,4 0.42,6.3 0.29,0.91 0.68,1.57 1.06,2.2 0.18,0.3 0.63,0.92 0.84,1.23l0.63 0.87c0.07,0.1 0.22,0.3 0.33,0.45 2.18,1.74 4.26,1.84 6.27,3.05 4.01,0 7.76,-0.31 11.81,-0.32 4.48,-0.01 6.26,-0.84 9.14,-2.3 3.56,-5.85 4.12,-6.06 3.59,-16.13 -0.89,-16.9 -26.75,-10.53 -28.05,-9.93 -5.13,2.36 -6.45,7.33 -6.03,14.58zm-52.05 -77.9c0.01,-16.04 -3.99,-16.43 -22.04,-16.43 -16.35,0 -14.66,22.43 -7.31,27.75 3.82,2.77 14.67,2.73 19.88,1.92 6.89,-1.08 9.46,-6.22 9.46,-13.24zm-27.11 63.17c-3.82,1.6 -6.36,3.48 -6.98,8.77 -1.16,9.89 -0.13,19.67 12.02,19.94 8.64,0.2 20.16,1.65 21.9,-9.36 1.51,-9.61 -0.01,-19.98 -11.75,-20.38 -4.78,-0.16 -11.02,-0.71 -15.18,1.03zm1.14 -39.83c-11.81,3.65 -8.52,19.89 -7.2,22.76 1.53,3.33 4.53,6.09 9.74,6.48 3.32,0.25 12.98,0.33 15.8,-0.56 10.3,-3.22 8.26,-19.09 6.66,-22.66 -4.13,-9.22 -21.13,-7.23 -25.01,-6.03zm42.26 -38.98c-3.94,1.4 -6.49,3.8 -7.27,8.35 -0.65,3.8 -0.53,11.78 1.12,14.8 4.72,8.67 22.53,6.26 25.53,5.2 10.43,-3.69 7.72,-19.79 6.25,-22.9 -1.67,-3.52 -5,-5.98 -10.15,-6.23 -4.81,-0.23 -11.25,-0.73 -15.47,0.77zm43.37 39.22c-3.89,1.49 -6.64,3.36 -7.53,8.29 -0.68,3.78 -0.55,11.61 0.93,14.65 4.41,9.07 23.27,6.34 25.89,5.42 3.19,-1.13 6.35,-4.45 6.99,-8.46 1.46,-9.14 0.37,-20.09 -11.17,-20.68 -4.41,-0.22 -11.33,-0.68 -15.11,0.77zm-43.05 -0.01c-3.98,1.52 -6.66,3.53 -7.54,8.15 -1.67,8.79 -0.67,20.35 11.19,20.91 8.57,0.41 20.76,1.69 22.55,-9.21 1.56,-9.44 0.29,-19.98 -11.06,-20.6 -4.41,-0.24 -11.38,-0.69 -15.15,0.75zm43.01 -39.42c-11,3.5 -8,19.95 -6.64,22.83 1.55,3.3 4.98,6.04 9.67,6.39 8.98,0.67 20.84,1.44 23.15,-8.39 1.7,-7.2 1.34,-20.53 -10.35,-21.37 -4.18,-0.3 -12.28,-0.59 -15.83,0.54zm-370.67 225.09c-0.45,3.65 0.31,5.49 1.61,7.86 1.46,0.32 1.55,0.59 3.22,1.01 5.91,0.11 22.11,0.98 26.78,-0.59 2.57,-1.64 4.8,-4.82 2.52,-9.03 -1.88,-3.48 -5.75,-3.22 -10.57,-3.2 -4.72,0.02 -9.44,0 -14.16,-0.02 -5.84,-0.02 -6.8,0.2 -9.41,3.96zm47.34 8.47c4.85,0.99 10.16,0.52 15.19,0.52 6.4,0 9.95,0.85 14.83,-1.3 9.66,-14 -12.48,-11.63 -16.18,-11.63 -5.7,0 -17.69,-1.98 -17.12,7.06 0.19,3.08 1.42,3.74 3.28,5.35zm175.38 -1.93c0.16,0.11 0.38,0.1 0.45,0.34 0.9,2.93 11.32,2.04 12.75,2.04 5.5,0.02 10.66,0.32 16.13,0.04 3.92,-0.8 7.15,-4.95 4.55,-9.71 -2.25,-4.11 -7.63,-3.2 -13.28,-3.2 -12.34,0.01 -23.41,-3.09 -20.59,10.49zm110.64 -10.47c-5.89,0 -17.6,-1.02 -20.61,1.89 -2.04,1.97 -2.54,5.79 -0.8,8.43 2.83,4.31 12.68,2.83 18.05,2.83 6.73,0 14.79,1.43 16.17,-4.87 1.83,-8.32 -6.37,-8.28 -12.81,-8.28zm25.7 0.93c-6.6,3.65 -4.74,12.22 5.18,12.26 4.76,0.02 20.17,0.85 23.36,-0.94 5.67,-3.17 4.45,-12.09 -5.15,-12.27 -4.71,-0.09 -20.27,-0.78 -23.39,0.95zm-442.86 -0.73c-8.11,1.65 -7.15,11.96 0.5,12.89 2.65,0.32 22.64,0.29 24.63,-0.24 6.46,-1.72 6.56,-11.66 -1.27,-12.77 -2.57,-0.37 -21.83,-0.29 -23.87,0.13zm198.07 -0.19c-11.35,0 -28.96,-2.46 -25.43,8.84 1.79,5.71 9.82,4.31 16.02,4.31 5.19,0 14.83,1.33 17.77,-2.44 1.69,-2.16 2.02,-5.6 0.13,-8.14 -1.71,-2.3 -4.78,-2.58 -8.5,-2.58zm185.83 10.99c1.17,-1.93 1.61,-3.03 1.55,-6.2 -2.07,-6.55 -10.34,-4.79 -17.35,-4.79 -6.83,0 -15.95,-1.66 -17.69,4.76 -2.63,9.7 10.11,8.4 12.99,8.39 6.16,-0.01 16.85,1.63 20.5,-2.17zm-161.44 -10.82c-8.26,1.8 -7.31,11.95 0.46,12.91 2.62,0.33 22.71,0.29 24.67,-0.24 6.61,-1.77 6.43,-11.83 -1.33,-12.79 -2.59,-0.31 -21.87,-0.3 -23.8,0.12zm44.39 0.03c-8.4,1.79 -6.93,12.02 0.48,12.91 2.59,0.31 22.65,0.26 24.62,-0.24 6.58,-1.65 6.69,-11.88 -1.29,-12.82 -2.83,-0.33 -21.64,-0.32 -23.82,0.15zm-222.45 0.04c-8.13,1.81 -6.98,11.84 0.46,12.83 3.12,0.42 22.16,0.3 24.52,-0.16 7.61,-1.5 6.19,-12.05 -1.14,-12.86 -3.28,-0.37 -21.37,-0.36 -23.84,0.19z"/>
     <path class="fil0" d="M497.82 37.5c-0.85,2.19 1.16,1.7 1.51,5.59 0.22,2.47 -0.88,4.45 -1.56,6.06 3.38,-0.59 6.68,-2.06 9.38,-2.74 3.31,-0.83 7.1,-1.33 9.67,-2.55 -0.74,-13.07 15.85,-15.03 19.78,-5.46l4.32 -1.28c4.05,-5.76 11.91,-6.24 16.14,-0.88 -1.23,1.93 -1.4,1.78 -3.07,2.81 -1.93,-1.01 -3.12,-2.5 -5.78,-1.61 -0.07,0.16 -0.12,0.39 -0.15,0.51 -0.02,0.13 -0.1,0.37 -0.13,0.52 -0.03,0.17 -0.08,0.36 -0.1,0.56 -0.02,0.2 -0.04,0.37 -0.06,0.59 -0.06,0.62 -0.03,2 -0.03,2.67 0,1.75 -0.11,3.28 0.2,4.88 3.22,0.74 4.48,-0.62 6.18,-2.07l3.73 3.13c-5.84,5.06 -12.09,5.7 -17.11,-0.83 -6.03,0.31 -20.01,-0.88 -23.48,2.52 -2.19,2.14 -3.1,6.03 -1.42,9.62 1.53,3.26 4.53,4.54 8.72,4.75l0.05 49.91c-4.14,1.99 -6.8,0.89 -8.91,5.39 -2.11,4.51 0.22,8.75 2.94,10.49 4.09,2.63 21.98,1.34 28.14,1.44l0.26 19.01c2.74,0.27 19.48,1.17 21.9,-0.78l0.48 -18.17c6.08,-0.24 23.81,0.85 27.65,-1.14 2.95,-1.53 5.57,-5.68 3.68,-10.53 -1.98,-5.09 -5.23,-3.65 -9.1,-5.71l-0.11 -49.87c12.7,-0.83 11.36,-12.26 5.75,-15.59 -4.41,-2.62 -21.21,-0.85 -27.65,-1.03 -0.81,-0.6 -0.38,-0.31 -1.14,-1.06l-3.49 -2.63 0.05 7.5 -5 0.17 -0.01 -27.11 5.05 -0 0.05 13.93c5.35,-1.59 3.71,-9.49 3.58,-14.5 -0.56,-6.14 -8.69,-10.91 -15.59,-7.4 -4.35,2.21 -4.62,5.55 -5.87,6.93 -1.77,1.96 -43.92,12.46 -49.47,13.98zm43.63 46.22l6.5 0.32 22.85 -0.05 3.85 -0.12 0.04 -3.11 -33.17 -0.17 -0.06 3.12zm0.04 15.28l32.99 0.17 0.06 -3.99 -32.8 -0.04 -0.25 3.85zm-0.03 15.53l33.13 0.21 0.03 -4.32 -33.02 -0.05 -0.13 4.15zm0.02 -50.2l-0.03 4.69 6.49 0.43 4.71 -0.06 22.04 -0.04 -0.16 -5.33 -33.05 0.31z"/>
     <path class="fil0" d="M488.2 40.59c-3.5,-0.18 -11.58,2.96 -15.43,3.75 -10.14,2.09 -36.81,9.75 -47.87,12.69l-126.46 33.5c-10.53,2.73 -20.8,5.37 -31.33,8.26 -8.78,2.4 -24.13,7.31 -32.65,8.33 -0.07,-19.5 -21.25,-16.63 -22.41,-3.57 -0.42,4.68 -0.38,43.93 0.36,46.17 1.44,2.12 19.56,1.02 21.64,0.86l0.47 -31.72 251.11 -66.2c3.39,-0.68 9.29,-2.35 12.13,-3.5 0.68,-1.61 1.79,-3.59 1.56,-6.06 -0.35,-3.89 -2.35,-3.4 -1.51,-5.59 -1.81,0.39 -3.19,0.94 -5.02,1.39l-3.18 0.87c-1.57,0.68 -0.41,-0.11 -1.43,0.83zm52.72 -3.46l5.7 -1.44 0.11 11.85 -5.98 -0.13c5.01,6.54 11.27,5.89 17.11,0.83l-3.73 -3.13c-1.7,1.46 -2.96,2.81 -6.18,2.07 -0.31,-1.59 -0.2,-3.13 -0.2,-4.88 0,-0.68 -0.02,-2.06 0.03,-2.67 0.02,-0.22 0.04,-0.39 0.06,-0.59 0.02,-0.19 0.07,-0.39 0.1,-0.56 0.03,-0.16 0.11,-0.4 0.13,-0.52 0.03,-0.12 0.08,-0.35 0.15,-0.51 2.66,-0.89 3.85,0.6 5.78,1.61 1.67,-1.03 1.84,-0.88 3.07,-2.81 -4.23,-5.36 -12.09,-4.87 -16.14,0.88zm-24.1 6.74c6.67,-1.25 13.77,-3.1 19.78,-5.46 -3.93,-9.57 -20.52,-7.61 -19.78,5.46zm52.83 3.83c-0.93,-6.34 1.85,-19.15 -0.9,-23.7 0.13,5.01 1.77,12.92 -3.58,14.5l-0.05 -13.93 -5.05 0 0.01 27.11 5 -0.17 -0.05 -7.5 3.49 2.63c0.76,0.75 0.33,0.46 1.14,1.06z"/>
     <path class="fil0" d="M592.05 230.02c-18.93,2.13 -34.59,18.66 -32.38,39.76 1.93,18.41 18.69,34.27 39.71,32.17 18.88,-1.89 34.94,-18.5 32.71,-39.93 -1.92,-18.46 -18.96,-34.37 -40.04,-32.01z"/>
     <path class="fil0" d="M215.86 454.27c0.43,-1.96 0.2,-7.64 0.21,-10.11 0.01,-2.35 -0.45,-8.04 0.22,-10.13 0.57,-1.76 0.11,-0.81 1.01,-1.97l3.36 0 1.39 3.33c0.06,0.41 -0.02,3.43 -0.04,4.07 -0.04,2.23 -0.02,4.48 -0.02,6.71 1.88,-4.92 8.14,-5.38 11.56,-5.65 4.71,-10.24 -1.77,-12.86 -1.98,-18.5 -0.27,-7.52 -0.11,-16.5 0.07,-24.06 6.61,-0.91 7.61,0.29 11.35,-4.03 2.53,-2.91 4.26,-6.89 4.5,-11.75l-48.64 -0.14c-0.23,12.43 3.59,15.81 15.77,15.67l0.15 24.31c-0.2,3.48 -1.08,3.41 -2.33,5.88 -2.36,4.66 1.46,21.53 3.39,26.36z"/>
     <path class="fil0" d="M215.86 454.27l7.03 30.82c0.06,0.14 0.2,0.35 0.26,0.46 0.06,0.11 0.17,0.31 0.28,0.46l10.14 -45.48c-3.42,0.28 -9.68,0.74 -11.56,5.65 0,-2.23 -0.02,-4.48 0.02,-6.71 0.01,-0.65 0.1,-3.67 0.04,-4.07l-1.39 -3.33 -3.36 0c-0.91,1.16 -0.44,0.2 -1.01,1.97 -0.67,2.09 -0.21,7.78 -0.22,10.13 -0.01,2.47 0.22,8.14 -0.21,10.11z"/>
    </g>
   </g>
  </g>
  <polygon class="fil1" points="-0,0 822.91,0 822.91,633.07 -0,633.07 "/>
 </g>
</svg>
