<?xml version="1.0" encoding="UTF-8"?>
<!DOCTYPE svg PUBLIC "-//W3C//DTD SVG 1.0//EN" "http://www.w3.org/TR/2001/REC-SVG-20010904/DTD/svg10.dtd">
<!-- Creator: CorelDRAW 2019 (64-Bit) -->
<svg xmlns="http://www.w3.org/2000/svg" xml:space="preserve" width="0.822917in" height="0.633075in" version="1.0" style="shape-rendering:geometricPrecision; text-rendering:geometricPrecision; image-rendering:optimizeQuality; fill-rule:evenodd; clip-rule:evenodd"
viewBox="0 0 822.91 633.07"
 xmlns:xlink="http://www.w3.org/1999/xlink"
 xmlns:xodm="http://www.corel.com/coreldraw/odm/2003">
 <defs>
  <style type="text/css">
   <![CDATA[
    .fil1 {fill:none}
    .fil0 {fill:#4DA971}
   ]]>
  </style>
   <clipPath id="id0">
    <path d="M-0 0l822.91 0 0 633.07 -822.91 0 0 -633.07z"/>
   </clipPath>
 </defs>
 <g id="Layer_x0020_1">
  <metadata id="CorelCorpID_0Corel-Layer"/>
  <g>
  </g>
  <g style="clip-path:url(#id0)">
   <g>
    <g id="_1920489515024">
     <path class="fil0" d="M541.58 53.01c0.48,0.43 1.38,0.17 1.64,0.98 2.44,7.52 0.25,-0.33 2.97,1.86 5.45,4.41 3.8,4.93 3.62,19.7 -0.13,10.3 0.13,20.61 -0.12,30.91l-8.26 3.12 15.09 4.26c-1.55,1.81 -94.74,23.57 -107.3,26.87 -34.15,8.96 -70.08,22.98 -106.76,28.81 -87.89,13.98 -160.92,-13.81 -200.43,-60.84 26.58,4.28 45.13,29.09 147.54,29.33 48.76,0.11 140.7,-11.74 178.72,-27.13 -18.76,1.77 -66.33,14.23 -94.53,17.99 -36.2,4.83 -70.9,7.2 -108.09,5.04 -34.11,-1.99 -107.3,-13.95 -134.02,-36.15 -6.04,-5.01 -12.02,-9.67 -7.61,-18.47 4.33,-8.63 3.06,5.45 5.98,-9.81 1.78,-9.31 1.11,-7.12 -2.41,-13.51l-26.28 -0.38c-2.4,5.27 -3.85,9.7 -1.94,15.59 4.52,13.88 6.22,-3.66 7.24,12.64 0.45,7.24 -1.81,6.61 -3.69,8.87 -11.22,13.44 -9.86,6.94 -9.87,26.12l0.09 51.68c-12.28,-0.98 -18.68,-1.36 -27.67,3.64 -0.76,13.65 4.07,9.37 2.2,24.86 -3.67,30.53 -2.57,62.14 -5.21,92.63 -17.22,6.25 -11.92,11.05 -11.48,45.13 5.85,3.54 5.5,2.79 13.52,5.31 -0.54,14.21 2.56,54.06 9.22,68.96 1.5,3.37 1.12,2.57 2.68,4.55 -1.83,-16.21 -14.38,-61.67 -7.15,-76.7l6.32 -8.56 1.37 15.27c0.61,-0.15 1.49,-1.3 1.81,-0.76 0.25,0.43 10.61,-7.51 13.89,4.42 5.19,18.92 -4.93,58.06 1.45,78.39l26.22 -2.11c-0.22,14.72 1.24,63.86 -1.53,69.77 -12.07,-1.67 -0.75,0.92 -8.23,-7.3l-14.53 0.46 -1.17 22.46c20.9,0.39 15.55,-6.34 23.93,-7.26 3.91,8.18 -2.57,12.57 6.92,15.6 10.54,3.36 10.56,-6.17 10.67,-13.46 0.24,-15.96 0.11,-33.13 -0.39,-49.1 7.26,-1.17 11.15,-0.31 18,-0.61 8.71,-0.38 7.29,-2.63 12.12,-7.67 9.79,2.88 4.75,9.36 17.81,3.11 5.91,-16.76 -2.24,-20.34 -15.75,-11.11 -8.85,-3.76 8.37,5.64 -4.89,-4.24 -9.01,-6.71 -12.77,-1.81 -27,-3.74l-0.14 -9.16c15.94,-13.41 27.24,-5.55 36.11,-37.07 9,-32.02 -10.13,-88.66 137.86,-89.63 44.47,-0.3 91.01,7.79 135.37,13.94 54.48,7.56 73.87,27.13 73.74,83.95 -0.11,53.12 -31.22,99.12 -41.77,131.85 -54.53,-0.16 -417.96,-2.34 -434.51,0.2 -12.49,1.92 -11.62,9.67 -12.52,21.87 -13.18,-0.34 -27.61,-2.91 -30.75,10.89 -1.55,6.82 -0.72,32.67 -0.35,40.88l823.21 0.01c1.7,-38.67 8.7,-52.92 -31.13,-51.76 -2.12,-30.22 -12.65,-22.17 -72.51,-22.09 -6.22,-82.43 -16.57,-165.47 -13.41,-248.7l14.29 1.64c0.63,19.8 -1.6,26.48 15.52,33.6 11.71,4.87 24.58,10.35 36,13.51 0.72,30.56 -11.29,45.9 24.48,44.97 9.76,-0.26 14.71,-1.27 14.74,-11.85l0.13 -100.81c16.61,-6.23 12.13,-16.38 12.11,-41.14 -0.02,-12.3 -2.01,-13.59 -12.36,-16 0.54,-42.12 2.03,-84.61 -1.15,-126.6 -6.85,-1.67 -17.7,-2.13 -26.15,-1.59 -16.19,1.04 -11.59,15.71 -11.85,39.28 -52.47,31.3 -50.17,8.03 -51.37,66.52l-20.97 3.61c-21.19,-55.24 -51.16,-66.31 -106.92,-70.16l0.24 -1.19c-1.19,-6.27 6.52,6.41 -0.56,-1.9 -1.13,-1.32 -2.99,-1.8 -5.25,-3.07l-0.14 -47.32c2.17,-2.12 -0.01,-0.88 3.58,-2.67 0.61,-0.31 3.21,-1.15 3.99,-1.44l-13.16 -5.46c-11.93,-7.68 -3.22,-15.17 -15.61,-16.68 -4.18,8.54 -0.64,18.77 -23.5,20.13zm250.24 176.11c2.67,-4.68 -0.03,5.02 2.48,-6.32 4.33,-19.55 5.17,-116.23 -2.12,-131.22 -5.41,49.55 -3.5,88.36 -0.36,137.55zm-54.43 -80.39l-0.19 147.09 26.01 9.24 -0.19 -168.3 -25.63 11.98zm-665.73 392.72c15.22,6.76 312.21,6.15 338.25,0.39 -35.3,-7.78 -297.53,-6.37 -338.25,-0.39zm400.78 38.67c14.49,7.3 262.42,7.14 276.34,-0.08 -42.38,-4.46 -94.87,-3.56 -138.28,-3.47 -43.01,0.09 -96.28,-1.3 -138.06,3.55zm107.2 -129.53c24.68,0 84.05,7.06 67.32,-22.55 -5.75,-10.17 -26.8,-7.02 -40.58,-7.02 -12.37,0 -35.61,-3.53 -43.29,4.3 -10.7,10.93 -1.4,25.28 16.54,25.28zm-104.13 -296.8c0.52,0.2 1.35,-0.16 1.63,0.43l11.56 -0.84c4.64,-1.16 8.56,-2.13 13.52,-3.05 58.35,-10.72 146.44,-24.1 181.73,30.01 -2.16,-8.46 -7.83,-16.91 -12.57,-21.62 -32.57,-32.38 -98.08,-29.76 -140.57,-20.91 -20.49,4.26 -37.28,11.5 -55.3,15.98zm116.05 38.22c-51.43,18.5 -25.05,91.98 23.83,77.8 18.02,-5.22 35.28,-26.82 27.52,-51.66 -5.65,-18.07 -27.5,-34.72 -51.35,-26.14zm-388.53 95.31c34.39,-5.79 53.65,-12.04 92.69,-11.55 24.81,0.31 77.44,6.12 98.63,1.44 -7.15,-3.65 -85.37,-10.31 -100.69,-10.32 -26.85,-0.02 -72.65,5.98 -90.63,20.43zm-74.64 95.74c1.81,-38.53 8.05,-229.24 -1.5,-252.33 -6.13,51.71 -4.93,163.48 -2.2,222.58 0.76,16.33 -0.7,22.2 3.71,29.75z"/>
     <path class="fil0" d="M66.4 291.62c8.36,6.91 3.33,6.4 9.21,11.43l4.33 -23.77 -7.6 -82.05c-4.97,19.85 -6.36,72.38 -5.94,94.39z"/>
     <polygon class="fil0" points="74.68,184.22 82.89,270.62 91.05,184.08 "/>
    </g>
   </g>
  </g>
  <polygon class="fil1" points="-0,0 822.91,0 822.91,633.07 -0,633.07 "/>
 </g>
</svg>
