<?xml version="1.0" encoding="UTF-8"?>
<!DOCTYPE svg PUBLIC "-//W3C//DTD SVG 1.0//EN" "http://www.w3.org/TR/2001/REC-SVG-20010904/DTD/svg10.dtd">
<!-- Creator: CorelDRAW 2019 (64-Bit) -->
<svg xmlns="http://www.w3.org/2000/svg" xml:space="preserve" width="0.822917in" height="0.633075in" version="1.0" style="shape-rendering:geometricPrecision; text-rendering:geometricPrecision; image-rendering:optimizeQuality; fill-rule:evenodd; clip-rule:evenodd"
viewBox="0 0 822.91 633.07"
 xmlns:xlink="http://www.w3.org/1999/xlink"
 xmlns:xodm="http://www.corel.com/coreldraw/odm/2003">
 <defs>
  <style type="text/css">
   <![CDATA[
    .fil1 {fill:none}
    .fil0 {fill:#4DA971}
   ]]>
  </style>
   <clipPath id="id0">
    <path d="M-0 0l822.91 0 0 633.07 -822.91 0 0 -633.07z"/>
   </clipPath>
 </defs>
 <g id="Layer_x0020_1">
  <metadata id="CorelCorpID_0Corel-Layer"/>
  <g>
  </g>
  <g style="clip-path:url(#id0)">
   <g>
    <g id="_1920478450896">
     <path class="fil0" d="M11.31 540.19l592.33 0.12 -0.05 -503.58c-91.15,-1 -182.8,-0.02 -273.93,-0.02 -91.28,0 -182.55,-0 -273.83,0 -11.65,0 -19.99,-1.28 -29.56,4.2 -19.34,11.06 -14.88,31.88 -14.88,53.59l0 308.49c0,45.2 1.26,92.23 -0.08,137.2zm61.65 -404.06c-7.78,3.28 -8.07,6.76 -8.03,17.03 0.18,43.81 -1.56,319.82 1.09,325.89 4.55,10.43 26.7,7.29 43.16,7.29 38.5,0 396.16,1.28 401.66,-0.82 12.02,-4.59 7.98,-27.91 7.98,-41.63 0,-34.9 1.3,-295.22 -0.9,-301.2 -2.74,-7.45 -9.35,-7.62 -17.56,-7.57 -47.61,0.24 -421.39,-1.52 -427.4,1.02z"/>
     <path class="fil0" d="M615.52 540.32l196.07 -0.01c-0.85,-28.8 -0.08,-58.71 -0.08,-87.54l0 -349.39c0,-29.5 5.47,-57.32 -21.7,-65.48 -9.64,-2.89 -150.94,-0.83 -174.2,-1.24l-0.09 503.66zm86.84 -133.15c-24.45,4.63 -46.42,29 -40.17,59.74 4.91,24.14 29,46.15 59.5,40.11 24.88,-4.93 46.38,-28.6 40.35,-59.92 -4.73,-24.63 -29.1,-45.73 -59.69,-39.93zm54.92 -43.52c8.17,0 19.14,0.86 19.84,-9.58 0.85,-12.8 -13.04,-11.13 -22.51,-11.13 -7.82,-0 -13.83,2.58 -13.35,11.09 0.5,9.09 7.8,9.62 16.02,9.62zm-3.56 -36.86c9.24,0.01 24,1.98 23.41,-10.93 -0.49,-10.76 -11.57,-9.9 -19.85,-9.9 -7.78,0 -14.59,0.84 -15.88,8.3 -1.41,8.08 4.61,12.53 12.32,12.52zm-51.19 -57.32c-8.35,1.91 -11.24,11.89 -5.3,17.53 3.77,3.58 18.34,4.04 24.93,2.47 7.47,-1.77 10.83,-12.15 4.51,-17.67 -4,-3.49 -18.09,-3.72 -24.13,-2.33zm0.07 73.81c-8.37,2.02 -11.38,11.82 -5.41,17.54 3.65,3.51 18.47,3.99 24.97,2.52 7.78,-1.76 10.58,-12.35 4.45,-17.71 -4.01,-3.5 -18,-3.8 -24.01,-2.35zm46.95 -73.85c-8.17,1.8 -11.51,11.72 -5.19,17.56 4.04,3.74 18.48,3.98 24.86,2.49 7.68,-1.8 10.62,-12.11 4.46,-17.58 -4.06,-3.62 -17.96,-3.82 -24.13,-2.47zm-95.27 37.3c-7.63,2.67 -9.64,11.28 -3.72,17.15 3.87,3.83 19.54,4.18 25.5,2.31 7.63,-2.39 9.16,-13.54 3.44,-17.91 -3.84,-2.93 -19.97,-3.39 -25.22,-1.56zm1.21 36.6c-8.35,2.18 -11.28,11.49 -5.32,17.38 3.63,3.59 19.2,4.22 25.59,2.5 7.13,-1.93 10.22,-11.43 4.22,-17.18 -4.03,-3.86 -18.16,-4.35 -24.49,-2.7zm-0.02 -73.85c-8.4,2.06 -11.14,11.39 -5.27,17.42 3.61,3.71 19.33,4.2 25.52,2.46 7.07,-1.99 10.24,-11.49 4.33,-17.2 -3.94,-3.8 -18.17,-4.26 -24.58,-2.69zm45.83 37.22c-7.16,2.5 -9.82,11.69 -3.67,17.24 4.12,3.72 19.09,4.11 25.48,2.18 7.73,-2.33 9.66,-12.65 3.35,-17.68 -4.11,-3.27 -19.56,-3.69 -25.16,-1.74zm-37.98 -211.48c-20.36,6.42 -16.18,26.92 -16.18,49.04 0,12.34 -1.52,55.25 0.79,64.01 5.65,21.4 30.09,16.69 48,16.69 12.35,0 55.96,1.54 64.73,-0.82 21.23,-5.7 16.61,-30.72 16.61,-48.76 0,-12.24 1.52,-55.73 -0.88,-64.51 -5.57,-20.4 -26.52,-16.83 -48.46,-16.83 -12.13,0 -56.38,-1.4 -64.62,1.19z"/>
     <path class="fil0" d="M42.5 596.79l737.9 0c18.81,-0 31.04,-13.2 31.11,-32l0 -12.51 -800.13 -0.02c-0,13.88 -1.39,21.33 5.56,31.85 4.34,6.56 13.11,12.68 25.55,12.68z"/>
     <path class="fil0" d="M137.74 357.5c2.35,7.74 14.79,23.48 19.95,27.2 14.05,10.13 17.09,9.93 37.73,9.93l192.03 0c17.52,0 26.83,-0.37 38.19,-9.48 6.47,-5.19 16.63,-18.04 20.59,-27.46 7.09,-0.72 17.85,0.55 15.07,-9.62 -1.98,-7.24 -12.46,-5.26 -19.62,-5.26l-298.72 0c-6.88,0 -17.65,-2 -20.11,4.63 -3.81,10.26 7.68,9.96 14.89,10.07z"/>
     <polygon class="fil0" points="550.77,503.29 558.15,503.23 570.59,503.24 573.26,503.24 576.47,503.15 576.61,118.44 571.49,118.08 550.76,118.14 "/>
     <path class="fil0" d="M116.29 407.09c-6.65,2.6 -6.3,10.78 -0.72,13.5 3.91,1.9 156.19,0.79 164.3,0.79 21.22,0 181.48,1.74 187.74,-0.52 5.64,-2.03 6.31,-11.04 0.83,-13.54 -4.52,-2.06 -155.91,-0.79 -164.57,-0.79 -20.33,0 -182.76,-1.33 -187.59,0.55z"/>
     <path class="fil0" d="M729.73 438.66c-5.32,-2.54 -6.85,-5.96 -15.97,-6.64 -19.57,-1.45 -35.06,20.5 -24.2,38.68 5.25,8.78 17.11,16.47 31.86,11.1 14.7,-5.35 16.16,-17.85 16.18,-29.92 7.31,-5.57 16.56,-5.15 10.97,-15.26 -5.76,-10.44 -6.94,-2.74 -18.85,2.04zm-21.94 8.69c-13.57,6.36 -4.19,25.15 8.76,19.79 11.57,-4.79 5.53,-26.49 -8.76,-19.79z"/>
    </g>
   </g>
  </g>
  <polygon class="fil1" points="-0,0 822.91,0 822.91,633.07 -0,633.07 "/>
 </g>
</svg>
