<?xml version="1.0" encoding="UTF-8"?>
<!DOCTYPE svg PUBLIC "-//W3C//DTD SVG 1.0//EN" "http://www.w3.org/TR/2001/REC-SVG-20010904/DTD/svg10.dtd">
<!-- Creator: CorelDRAW 2019 (64-Bit) -->
<svg xmlns="http://www.w3.org/2000/svg" xml:space="preserve" width="0.822917in" height="0.633075in" version="1.0" style="shape-rendering:geometricPrecision; text-rendering:geometricPrecision; image-rendering:optimizeQuality; fill-rule:evenodd; clip-rule:evenodd"
viewBox="0 0 822.91 633.07"
 xmlns:xlink="http://www.w3.org/1999/xlink"
 xmlns:xodm="http://www.corel.com/coreldraw/odm/2003">
 <defs>
  <style type="text/css">
   <![CDATA[
    .fil1 {fill:none}
    .fil0 {fill:#4DA971}
   ]]>
  </style>
   <clipPath id="id0">
    <path d="M-0 0l822.91 0 0 633.07 -822.91 0 0 -633.07z"/>
   </clipPath>
 </defs>
 <g id="Layer_x0020_1">
  <metadata id="CorelCorpID_0Corel-Layer"/>
  <g>
  </g>
  <g style="clip-path:url(#id0)">
   <g>
    <g id="_1920588724416">
     <path class="fil0" d="M413.79 624.84l243.77 0.31 -0.41 -616.83c-15.95,-0.06 -232.77,-1.54 -242.83,0.72l-0.53 615.8zm28.77 -27.74l10.7 -0 0.39 -26.54 155.3 -0.49 0.73 26.86 19.05 0.1 0.22 -174.25 -186.04 -0.1 -0.34 174.42zm0.01 -395.51l41.61 -0.13c-14.2,-6.26 -27.57,-12.6 -26.59,-31.05 2.36,0.51 12.67,6.83 18.84,8.91 15.95,5.38 36.73,5.18 52.88,0.4 10.18,-3.01 12.94,-6.45 20.24,-9.77 0.75,16.8 -12.97,27.98 -26.86,31l66.79 0.55 -19.95 -5.63c1.78,-11.06 32.29,-126.81 34.41,-129.7l24.58 5.93 0.44 -35.5 -186.31 -0.08 -0.09 165.08zm146.34 159.03l-0.01 15.46c-0.24,13.32 -2.21,16.22 2.55,18.37 1.09,-1.29 1.53,-0.14 1.94,-6.72l-0.09 -59.79c0,-22.59 0.17,-45.24 -0.04,-67.82l15.31 -0.63 0.04 134.48 20.18 0.44 0.15 -164.61 -185.99 -0.02 -0.39 164.59 8.03 -0.28 0.04 -128.21 24.76 0.16 0.24 128.37 22.2 -0.15 0.1 -132.96 14.77 -0.54c2.45,11.76 -0.45,124.38 0.73,129.55 0.93,4.06 -0.28,1.83 2.09,4.19l0.16 -104.54 24.98 -0.17c1.7,7.9 0.66,62.79 0.67,78.39l-0.07 20.87c1.17,8.56 -0.62,2.51 2.09,5.35l0.28 -104.32 44.31 -0.3c2.37,8.93 0.97,57.86 0.96,70.81z"/>
     <path class="fil0" d="M165.34 624.84l243.91 0.45 -0.43 -616.95c-28,0.17 -234.27,-1.66 -242.76,0.98 0.18,21.83 1.61,608.91 -0.72,615.53zm28.9 -444.77c6.78,-5.71 50.38,-76.39 57.15,-82.04 7.32,3.65 14.5,10.02 22.21,13.78l6.94 -21.25 28.72 6.54 -26.83 104.94 29.6 -0.63 -24.89 -6.72 26.87 -104.29 29.2 7.18 -26.77 103.98 24.6 -0.16 -19.91 -5.4 33.78 -129.89 25.36 6.07 0.44 -35.59 -186.23 0 -0.22 143.46zm104.24 188.13c2.48,-4.49 1.86,-4.44 7.61,-6.43 15.62,-5.39 3.84,-7.76 22.31,-12.04 -2.37,4.91 -4.69,7.94 -7.11,11.53 2.11,2.25 12.1,8.69 8.67,20.35 -1.41,4.78 1.15,-0.09 -1.51,2.75 -1.03,6.25 -1.43,4.36 -6.62,10.17l58.72 0.05 0.12 -164.71 -185.89 -0.01 -0.53 164.71 51.44 -0.02c-6.36,-5.2 -13.31,-9.25 -14.75,-19.82 -1.61,-11.81 4.74,-20.39 11,-23.96l0.04 -33.91c-1.8,-8.4 0.6,-0.23 -5.15,-5.55l0.09 -7.46 12.33 -0.49c-3.5,-36.76 17.94,-24.63 26.46,-44.54 -4.99,16.87 -20.56,15.04 -21.67,30.32 -1.27,17.52 6.52,14.28 17.98,14.26 2.57,18.21 -2.72,2.16 -4.46,14.78 -0.58,4.24 0.08,15.85 0.08,20.9 0.03,11.42 0.05,9.23 6.04,15.21 3.37,3.36 6.01,8.01 6.57,14.11 1.37,14.64 -7.02,19.82 -14.83,25.94l37.62 0.29c-4.35,-5.26 -10.48,-9.45 -8.09,-20.37l3.53 -6.03zm-104.22 228.92l7.65 -0.42 0.02 -126.68 25 0.02 -0.04 126.66 22.2 0.51 0.19 -132.11 14.85 -0.17c2.71,15.35 -0.99,121.29 0.58,128.07 0.96,4.13 -0.31,1.81 2.11,4.23l0.06 -103.07 25.8 -0.15 -0.04 103.25c4.24,-4.24 2.25,-19.23 2.25,-25.02 -0,-15.77 -1.07,-69.95 0.54,-78.11l43.89 -0.19c2.37,9.97 -0.23,94.94 0.7,99.13 0.92,4.11 -0.69,2.65 2.98,4.06 3.69,-4.97 1.7,-130.02 1.55,-133.18l15.42 -0.28 -0.06 133.25 20.59 0.22 0.2 -174.33 -185.92 -0.01 -0.51 174.3z"/>
     <polygon class="fil0" points="453.48,544.35 609.22,544.28 609.38,513.03 454.02,512.98 "/>
     <polygon class="fil0" points="453.47,508.95 513.34,508.89 513.3,449.37 453.47,449.38 "/>
     <polygon class="fil0" points="454.33,565.53 605.7,565.93 605.7,548.31 454.22,548.29 "/>
     <path class="fil0" d="M351.03 201.65l29.52 -0.03 0.11 -111.96c-5.98,14.17 -10.94,38.64 -15.18,55.37 -4.64,18.29 -11.11,38.36 -14.45,56.62z"/>
     <polygon class="fil0" points="599.07,201.51 628.77,201.53 628.91,89.52 "/>
     <path class="fil0" d="M217.54 201.68l60.9 -0.08c-2.59,-1.66 -1.59,-1.22 -5.23,-2.35l-19.74 -4.42 18.6 -73.55c-3.81,4.59 -51.37,72.91 -54.53,80.39z"/>
     <path class="fil0" d="M588.9 376.08l0.01 -15.46c-6.14,-7.01 -11.09,-7.28 -21.05,-2.13l-1.26 -1.27c-0.13,-0.09 -0.52,-0.32 -0.67,-0.43l-4.46 -4.02c-0.32,-0.27 -0.57,-0.54 -0.91,-0.79l-3.72 -2.11c-5.95,5.33 -6.27,36.24 9.02,30.57l2.76 -1.83c7.64,6.27 14.44,2.82 20.28,-2.52z"/>
     <path class="fil0" d="M298.48 368.2l1.36 13.64c7.07,2.2 23.5,-1 28.61,2.52 2.66,-2.83 0.1,2.03 1.51,-2.75 3.43,-11.66 -6.56,-18.09 -8.67,-20.35 2.43,-3.59 4.75,-6.63 7.11,-11.54 -18.46,4.28 -6.68,6.65 -22.3,12.04 -5.76,1.99 -5.14,1.93 -7.61,6.43z"/>
    </g>
   </g>
  </g>
  <polygon class="fil1" points="-0,0 822.91,0 822.91,633.07 -0,633.07 "/>
 </g>
</svg>
