<?xml version="1.0" encoding="UTF-8"?>
<!DOCTYPE svg PUBLIC "-//W3C//DTD SVG 1.0//EN" "http://www.w3.org/TR/2001/REC-SVG-20010904/DTD/svg10.dtd">
<!-- Creator: CorelDRAW 2019 (64-Bit) -->
<svg xmlns="http://www.w3.org/2000/svg" xml:space="preserve" width="0.822917in" height="0.633075in" version="1.0" style="shape-rendering:geometricPrecision; text-rendering:geometricPrecision; image-rendering:optimizeQuality; fill-rule:evenodd; clip-rule:evenodd"
viewBox="0 0 822.92 633.08"
 xmlns:xlink="http://www.w3.org/1999/xlink"
 xmlns:xodm="http://www.corel.com/coreldraw/odm/2003">
 <defs>
  <style type="text/css">
   <![CDATA[
    .fil2 {fill:none}
    .fil0 {fill:#4DA971}
    .fil1 {fill:#FEFEFE}
   ]]>
  </style>
   <clipPath id="id0">
    <path d="M-0 0l822.92 0 0 633.08 -822.92 0 0 -633.08z"/>
   </clipPath>
 </defs>
 <g id="Layer_x0020_1">
  <metadata id="CorelCorpID_0Corel-Layer"/>
  <g>
  </g>
  <g style="clip-path:url(#id0)">
   <g>
    <g id="_1920478419056">
     <path class="fil0" d="M165.21 178.91c1.68,52.17 -1.91,418.09 2.61,434.46 7.51,27.19 37.04,20.6 69.19,20.56l348.23 0c78.93,0.11 71.36,5.64 71.35,-104.86 -0.01,-51.47 3.55,-325.85 -2.2,-352.1 -300.31,-70.46 -296.36,26.11 -489.18,1.94z"/>
     <path class="fil1" d="M381.05 222.27c-232,36.68 -179.29,386.03 55.11,350.92 88.02,-13.19 164.83,-100.22 146.98,-205.02 -14.98,-88 -98.14,-162.34 -202.1,-145.9z"/>
     <path class="fil0" d="M382.88 244.1c-77.19,12.34 -142.48,85.84 -128.52,178.25 11.74,77.73 86.6,143.08 178.75,128.7 200.31,-31.25 154.38,-339.65 -50.23,-306.95z"/>
     <path class="fil0" d="M167.21 165.36c72.31,24.27 169.94,-13.44 239.23,-24.16 85.3,-13.19 167.76,12.38 250.58,23.3 -3.11,-110.74 18.17,-165.47 -40.57,-166.08l-410.64 0.05c-44.39,0.5 -40.29,23.25 -40.12,62.42 0.14,32.53 -3.37,73.41 1.52,104.47z"/>
     <path class="fil1" d="M278.59 380.38c-21.03,45.18 28.84,142.11 116.91,149.83 81.13,7.11 141.06,-53.35 145.36,-128.83l-14.16 -7.35c-5.05,-2.06 -8.18,-2.8 -13.96,-5.21 -9.94,-4.15 -18.79,-8.83 -30.01,-12.66 -23.55,-8.03 -49.65,-7.34 -71.28,2.33 -91.96,41.09 -73.24,-16.37 -132.87,1.89z"/>
     <path class="fil1" d="M447.82 93.53c9.28,10.12 24.64,5.42 52.31,5.4 16.89,-0.01 41,3.61 54.17,-3.64 2.46,-8.57 4.26,-44.02 0.47,-51.02 -6.61,-12.21 -39.51,-6.75 -54.64,-6.76 -13.91,-0 -45.06,-5.06 -53.5,4.38 -7.87,8.8 -4.48,45.5 1.2,51.63z"/>
     <path class="fil1" d="M425.89 285.3c13.61,18.41 31.49,5.52 62.8,42.54 2.59,3.06 4.82,7.49 10.09,9.69 7.75,3.24 -11.2,0.13 5.49,1.26 14.63,0.99 4.69,-0.09 8.98,-1.98 11.03,-30.23 -83.03,-89.91 -87.36,-51.51z"/>
     <path class="fil1" d="M295.73 72.37c-4.33,3.02 -4.09,-3.55 -7.44,9.04 -3.74,14.05 9.93,25.2 23.73,16.28 16.78,-10.85 3.78,-39.31 -16.29,-25.32z"/>
     <path class="fil1" d="M590.45 60.27c13.22,10.43 14.94,10.43 28.93,0.65 1.51,-15.04 -0.39,-17.33 -10.92,-24.69 -16.06,2.36 -20.12,7.3 -18.01,24.03z"/>
    </g>
   </g>
  </g>
  <polygon class="fil2" points="-0,0 822.92,0 822.92,633.08 -0,633.08 "/>
 </g>
</svg>
